<svg xmlns="http://www.w3.org/2000/svg" xmlns:xlink="http://www.w3.org/1999/xlink" contentStyleType="text/css" data-diagram-type="SEQUENCE" height="340px" preserveAspectRatio="none" style="width:554px;height:340px;background:#FFFFFF;" version="1.1" viewBox="0 0 554 340" width="554px" zoomAndPan="magnify"><defs/><g><g><title>User</title><rect fill="#000000" fill-opacity="0.00000" height="178.6641" width="8" x="19.9551" y="81.2969"/><line style="stroke:#181818;stroke-width:0.5;stroke-dasharray:5,5;" x1="23" x2="23" y1="81.2969" y2="259.9609"/></g><g><title>Media Content</title><rect fill="#000000" fill-opacity="0.00000" height="178.6641" width="8" x="153.1792" y="81.2969"/><line style="stroke:#181818;stroke-width:0.5;stroke-dasharray:5,5;" x1="157.0908" x2="157.0908" y1="81.2969" y2="259.9609"/></g><g><title>Classification System</title><rect fill="#000000" fill-opacity="0.00000" height="178.6641" width="8" x="377.9111" y="81.2969"/><line style="stroke:#181818;stroke-width:0.5;stroke-dasharray:5,5;" x1="381.2661" x2="381.2661" y1="81.2969" y2="259.9609"/></g><g><title>Reports</title><rect fill="#000000" fill-opacity="0.00000" height="178.6641" width="8" x="510.437" y="81.2969"/><line style="stroke:#181818;stroke-width:0.5;stroke-dasharray:5,5;" x1="514.271" x2="514.271" y1="81.2969" y2="259.9609"/></g><g class="participant participant-head" data-participant="User"><text fill="#000000" font-family="sans-serif" font-size="14" lengthAdjust="spacing" textLength="31.9102" x="5" y="77.9951">User</text><ellipse cx="23.9551" cy="13.5" fill="#E2E2F0" rx="8" ry="8" style="stroke:#181818;stroke-width:0.5;"/><path d="M23.9551,21.5 L23.9551,48.5 M10.9551,29.5 L36.9551,29.5 M23.9551,48.5 L10.9551,63.5 M23.9551,48.5 L36.9551,63.5" fill="none" style="stroke:#181818;stroke-width:0.5;"/></g><g class="participant participant-tail" data-participant="User"><text fill="#000000" font-family="sans-serif" font-size="14" lengthAdjust="spacing" textLength="31.9102" x="5" y="271.9561">User</text><ellipse cx="23.9551" cy="283.7578" fill="#E2E2F0" rx="8" ry="8" style="stroke:#181818;stroke-width:0.5;"/><path d="M23.9551,291.7578 L23.9551,318.7578 M10.9551,299.7578 L36.9551,299.7578 M23.9551,318.7578 L10.9551,333.7578 M23.9551,318.7578 L36.9551,333.7578" fill="none" style="stroke:#181818;stroke-width:0.5;"/></g><g class="participant participant-head" data-participant="MediaContent"><rect fill="#E2E2F0" height="30.2969" rx="2.5" ry="2.5" style="stroke:#181818;stroke-width:0.5;" width="116.1768" x="99.0908" y="50"/><text fill="#000000" font-family="sans-serif" font-size="14" lengthAdjust="spacing" textLength="102.1768" x="106.0908" y="69.9951">Media Content</text></g><g class="participant participant-tail" data-participant="MediaContent"><rect fill="#E2E2F0" height="30.2969" rx="2.5" ry="2.5" style="stroke:#181818;stroke-width:0.5;" width="116.1768" x="99.0908" y="258.9609"/><text fill="#000000" font-family="sans-serif" font-size="14" lengthAdjust="spacing" textLength="102.1768" x="106.0908" y="278.9561">Media Content</text></g><g class="participant participant-head" data-participant="ClassificationSystem"><rect fill="#E2E2F0" height="30.2969" rx="2.5" ry="2.5" style="stroke:#181818;stroke-width:0.5;" width="163.29" x="300.2661" y="50"/><text fill="#000000" font-family="sans-serif" font-size="14" lengthAdjust="spacing" textLength="149.29" x="307.2661" y="69.9951">Classification System</text></g><g class="participant participant-tail" data-participant="ClassificationSystem"><rect fill="#E2E2F0" height="30.2969" rx="2.5" ry="2.5" style="stroke:#181818;stroke-width:0.5;" width="163.29" x="300.2661" y="258.9609"/><text fill="#000000" font-family="sans-serif" font-size="14" lengthAdjust="spacing" textLength="149.29" x="307.2661" y="278.9561">Classification System</text></g><g class="participant participant-head" data-participant="Reports"><rect fill="#E2E2F0" height="30.2969" rx="2.5" ry="2.5" style="stroke:#181818;stroke-width:0.5;" width="68.332" x="480.271" y="50"/><text fill="#000000" font-family="sans-serif" font-size="14" lengthAdjust="spacing" textLength="54.332" x="487.271" y="69.9951">Reports</text></g><g class="participant participant-tail" data-participant="Reports"><rect fill="#E2E2F0" height="30.2969" rx="2.5" ry="2.5" style="stroke:#181818;stroke-width:0.5;" width="68.332" x="480.271" y="258.9609"/><text fill="#000000" font-family="sans-serif" font-size="14" lengthAdjust="spacing" textLength="54.332" x="487.271" y="278.9561">Reports</text></g><g class="message" data-participant-1="User" data-participant-2="MediaContent"><polygon fill="#181818" points="145.1792,108.4297,155.1792,112.4297,145.1792,116.4297,149.1792,112.4297" style="stroke:#181818;stroke-width:1;"/><line style="stroke:#181818;stroke-width:1;" x1="23.9551" x2="151.1792" y1="112.4297" y2="112.4297"/><text fill="#000000" font-family="sans-serif" font-size="13" lengthAdjust="spacing" textLength="109.2241" x="30.9551" y="107.3638">Request Content</text></g><g class="message" data-participant-1="MediaContent" data-participant-2="ClassificationSystem"><polygon fill="#181818" points="369.9111,137.5625,379.9111,141.5625,369.9111,145.5625,373.9111,141.5625" style="stroke:#181818;stroke-width:1;"/><line style="stroke:#181818;stroke-width:1;" x1="157.1792" x2="375.9111" y1="141.5625" y2="141.5625"/><text fill="#000000" font-family="sans-serif" font-size="13" lengthAdjust="spacing" textLength="200.7319" x="164.1792" y="136.4966">Send Content for Classification</text></g><g class="message" data-participant-1="ClassificationSystem" data-participant-2="ClassificationSystem"><line style="stroke:#181818;stroke-width:1;" x1="381.9111" x2="423.9111" y1="170.6953" y2="170.6953"/><line style="stroke:#181818;stroke-width:1;" x1="423.9111" x2="423.9111" y1="170.6953" y2="183.6953"/><line style="stroke:#181818;stroke-width:1;" x1="382.9111" x2="423.9111" y1="183.6953" y2="183.6953"/><polygon fill="#181818" points="392.9111,179.6953,382.9111,183.6953,392.9111,187.6953,388.9111,183.6953" style="stroke:#181818;stroke-width:1;"/><text fill="#000000" font-family="sans-serif" font-size="13" lengthAdjust="spacing" textLength="105.6631" x="388.9111" y="165.6294">Process Content</text></g><g class="message" data-participant-1="ClassificationSystem" data-participant-2="Reports"><polygon fill="#181818" points="502.437,208.8281,512.437,212.8281,502.437,216.8281,506.437,212.8281" style="stroke:#181818;stroke-width:1;"/><line style="stroke:#181818;stroke-width:1;" x1="381.9111" x2="508.437" y1="212.8281" y2="212.8281"/><text fill="#000000" font-family="sans-serif" font-size="13" lengthAdjust="spacing" textLength="108.5259" x="388.9111" y="207.7622">Generate Report</text></g><g class="message" data-participant-1="Reports" data-participant-2="User"><polygon fill="#181818" points="34.9551,237.9609,24.9551,241.9609,34.9551,245.9609,30.9551,241.9609" style="stroke:#181818;stroke-width:1;"/><line style="stroke:#181818;stroke-width:1;" x1="28.9551" x2="513.437" y1="241.9609" y2="241.9609"/><text fill="#000000" font-family="sans-serif" font-size="13" lengthAdjust="spacing" textLength="94.0786" x="40.9551" y="236.895">Deliver Report</text></g><!--SRC=[TO_12i8m44Jl-OgbTtyW1oyLF0bYyGEMT0iBDQdPLV3lJTfK3BItC6ycEuDEGuIxK3GJHcN74tg5va8z8xJ1Atbj00LcfGYrjnrHX0Tsg1myT1zHUioPcYoWpjve2b5bTfUtCRaE78xLIPlmyqMYQodpJxDxwvY5Zdo_Hc18MskRsKhj_tQDmP78hyDUkaonS2PF4PMAOWh8dhpImeb6VgUv2_W2]--></g></svg>