<svg xmlns="http://www.w3.org/2000/svg" xmlns:xlink="http://www.w3.org/1999/xlink" contentStyleType="text/css" data-diagram-type="SEQUENCE" height="356px" preserveAspectRatio="none" style="width:453px;height:356px;background:#FFFFFF;" version="1.1" viewBox="0 0 453 356" width="453px" zoomAndPan="magnify"><defs/><g><g><title>User</title><rect fill="#000000" fill-opacity="0.00000" height="194.7969" width="8" x="19.9551" y="81.2969"/><line style="stroke:#181818;stroke-width:0.5;stroke-dasharray:5,5;" x1="23" x2="23" y1="81.2969" y2="276.0938"/></g><g><title>Training Data</title><rect fill="#000000" fill-opacity="0.00000" height="194.7969" width="8" x="130.7593" y="81.2969"/><line style="stroke:#181818;stroke-width:0.5;stroke-dasharray:5,5;" x1="134.1709" x2="134.1709" y1="81.2969" y2="276.0938"/></g><g><title>Effectiveness Analysis</title><rect fill="#000000" fill-opacity="0.00000" height="194.7969" width="8" x="280.0962" y="81.2969"/><line style="stroke:#181818;stroke-width:0.5;stroke-dasharray:5,5;" x1="283.3477" x2="283.3477" y1="81.2969" y2="276.0938"/></g><g><title>Reports</title><rect fill="#000000" fill-opacity="0.00000" height="194.7969" width="8" x="409.0107" y="81.2969"/><line style="stroke:#181818;stroke-width:0.5;stroke-dasharray:5,5;" x1="412.8447" x2="412.8447" y1="81.2969" y2="276.0938"/></g><g class="participant participant-head" data-participant="User"><text fill="#000000" font-family="sans-serif" font-size="14" lengthAdjust="spacing" textLength="31.9102" x="5" y="77.9951">User</text><ellipse cx="23.9551" cy="13.5" fill="#E2E2F0" rx="8" ry="8" style="stroke:#181818;stroke-width:0.5;"/><path d="M23.9551,21.5 L23.9551,48.5 M10.9551,29.5 L36.9551,29.5 M23.9551,48.5 L10.9551,63.5 M23.9551,48.5 L36.9551,63.5" fill="none" style="stroke:#181818;stroke-width:0.5;"/></g><g class="participant participant-tail" data-participant="User"><text fill="#000000" font-family="sans-serif" font-size="14" lengthAdjust="spacing" textLength="31.9102" x="5" y="288.0889">User</text><ellipse cx="23.9551" cy="299.8906" fill="#E2E2F0" rx="8" ry="8" style="stroke:#181818;stroke-width:0.5;"/><path d="M23.9551,307.8906 L23.9551,334.8906 M10.9551,315.8906 L36.9551,315.8906 M23.9551,334.8906 L10.9551,349.8906 M23.9551,334.8906 L36.9551,349.8906" fill="none" style="stroke:#181818;stroke-width:0.5;"/></g><g class="participant participant-head" data-participant="TD"><rect fill="#E2E2F0" height="30.2969" rx="2.5" ry="2.5" style="stroke:#181818;stroke-width:0.5;" width="109.1768" x="80.1709" y="50"/><text fill="#000000" font-family="sans-serif" font-size="14" lengthAdjust="spacing" textLength="95.1768" x="87.1709" y="69.9951">Training Data</text></g><g class="participant participant-tail" data-participant="TD"><rect fill="#E2E2F0" height="30.2969" rx="2.5" ry="2.5" style="stroke:#181818;stroke-width:0.5;" width="109.1768" x="80.1709" y="275.0938"/><text fill="#000000" font-family="sans-serif" font-size="14" lengthAdjust="spacing" textLength="95.1768" x="87.1709" y="295.0889">Training Data</text></g><g class="participant participant-head" data-participant="EA"><rect fill="#E2E2F0" height="30.2969" rx="2.5" ry="2.5" style="stroke:#181818;stroke-width:0.5;" width="169.4971" x="199.3477" y="50"/><text fill="#000000" font-family="sans-serif" font-size="14" lengthAdjust="spacing" textLength="155.4971" x="206.3477" y="69.9951">Effectiveness Analysis</text></g><g class="participant participant-tail" data-participant="EA"><rect fill="#E2E2F0" height="30.2969" rx="2.5" ry="2.5" style="stroke:#181818;stroke-width:0.5;" width="169.4971" x="199.3477" y="275.0938"/><text fill="#000000" font-family="sans-serif" font-size="14" lengthAdjust="spacing" textLength="155.4971" x="206.3477" y="295.0889">Effectiveness Analysis</text></g><g class="participant participant-head" data-participant="R"><rect fill="#E2E2F0" height="30.2969" rx="2.5" ry="2.5" style="stroke:#181818;stroke-width:0.5;" width="68.332" x="378.8447" y="50"/><text fill="#000000" font-family="sans-serif" font-size="14" lengthAdjust="spacing" textLength="54.332" x="385.8447" y="69.9951">Reports</text></g><g class="participant participant-tail" data-participant="R"><rect fill="#E2E2F0" height="30.2969" rx="2.5" ry="2.5" style="stroke:#181818;stroke-width:0.5;" width="68.332" x="378.8447" y="275.0938"/><text fill="#000000" font-family="sans-serif" font-size="14" lengthAdjust="spacing" textLength="54.332" x="385.8447" y="295.0889">Reports</text></g><g class="message" data-participant-1="User" data-participant-2="TD"><polygon fill="#181818" points="122.7593,108.4297,132.7593,112.4297,122.7593,116.4297,126.7593,112.4297" style="stroke:#181818;stroke-width:1;"/><line style="stroke:#181818;stroke-width:1;" x1="23.9551" x2="128.7593" y1="112.4297" y2="112.4297"/><text fill="#000000" font-family="sans-serif" font-size="13" lengthAdjust="spacing" textLength="86.8042" x="30.9551" y="107.3638">Request data</text></g><g class="message" data-participant-1="TD" data-participant-2="User"><polygon fill="#181818" points="34.9551,137.5625,24.9551,141.5625,34.9551,145.5625,30.9551,141.5625" style="stroke:#181818;stroke-width:1;"/><line style="stroke:#181818;stroke-width:1;" x1="28.9551" x2="133.7593" y1="141.5625" y2="141.5625"/><text fill="#000000" font-family="sans-serif" font-size="13" lengthAdjust="spacing" textLength="82.1069" x="40.9551" y="136.4966">Provide data</text></g><g class="message" data-participant-1="User" data-participant-2="EA"><polygon fill="#181818" points="272.0962,166.6953,282.0962,170.6953,272.0962,174.6953,276.0962,170.6953" style="stroke:#181818;stroke-width:1;"/><line style="stroke:#181818;stroke-width:1;" x1="23.9551" x2="278.0962" y1="170.6953" y2="170.6953"/><text fill="#000000" font-family="sans-serif" font-size="13" lengthAdjust="spacing" textLength="84.6396" x="30.9551" y="165.6294">Analyze data</text></g><g class="message" data-participant-1="EA" data-participant-2="User"><polygon fill="#181818" points="34.9551,195.8281,24.9551,199.8281,34.9551,203.8281,30.9551,199.8281" style="stroke:#181818;stroke-width:1;"/><line style="stroke:#181818;stroke-width:1;" x1="28.9551" x2="283.0962" y1="199.8281" y2="199.8281"/><text fill="#000000" font-family="sans-serif" font-size="13" lengthAdjust="spacing" textLength="100.7183" x="40.9551" y="194.7622">Return analysis</text></g><g class="message" data-participant-1="User" data-participant-2="R"><polygon fill="#181818" points="401.0107,224.9609,411.0107,228.9609,401.0107,232.9609,405.0107,228.9609" style="stroke:#181818;stroke-width:1;"/><line style="stroke:#181818;stroke-width:1;" x1="23.9551" x2="407.0107" y1="228.9609" y2="228.9609"/><text fill="#000000" font-family="sans-serif" font-size="13" lengthAdjust="spacing" textLength="104.8379" x="30.9551" y="223.895">Generate report</text></g><g class="message" data-participant-1="R" data-participant-2="User"><polygon fill="#181818" points="34.9551,254.0938,24.9551,258.0938,34.9551,262.0938,30.9551,258.0938" style="stroke:#181818;stroke-width:1;"/><line style="stroke:#181818;stroke-width:1;" x1="28.9551" x2="412.0107" y1="258.0938" y2="258.0938"/><text fill="#000000" font-family="sans-serif" font-size="13" lengthAdjust="spacing" textLength="90.3906" x="40.9551" y="253.0278">Deliver report</text></g><!--SRC=[LOzB2iCm34JtFeN8lXVmec2mwRQOz00YKOeWEAci1DhJr_cq8Lk_UPuHDZe8F3A96L6K6nunALIr82TEJ_2eM05cgFqv4RgE6kMP4kKCBc7_pfpNQ73dQAHn4DrOD6PfWykr_6WXqckYhD2M6bFxvNd15kuopDpI1lvAS7Qh-kmak4E9f9Cam7tAOKKBjp9JK0batMBYeNdgonNo8ry0]--></g></svg>