<svg xmlns="http://www.w3.org/2000/svg" xmlns:xlink="http://www.w3.org/1999/xlink" contentStyleType="text/css" data-diagram-type="DESCRIPTION" height="672px" preserveAspectRatio="none" style="width:447px;height:672px;background:#FFFFFF;" version="1.1" viewBox="0 0 447 672" width="447px" zoomAndPan="magnify"><defs/><g><!--cluster User System--><g class="cluster" data-entity="User System" data-source-line="1" data-uid="ent0002" id="cluster_User System"><path d="M149.5,298.59 L249.792,298.59 A3.75,3.75 0 0 1 252.292,301.09 L259.292,320.8869 L280.5,320.8869 A2.5,2.5 0 0 1 283,323.3869 L283,393.39 A2.5,2.5 0 0 1 280.5,395.89 L149.5,395.89 A2.5,2.5 0 0 1 147,393.39 L147,301.09 A2.5,2.5 0 0 1 149.5,298.59" fill="none" style="stroke:#000000;stroke-width:1.5;"/><line style="stroke:#000000;stroke-width:1.5;" x1="147" x2="259.292" y1="320.8869" y2="320.8869"/><text fill="#000000" font-family="sans-serif" font-size="14" font-weight="bold" lengthAdjust="spacing" textLength="99.292" x="151" y="313.5851">User System</text></g><!--cluster Delivery System--><g class="cluster" data-entity="Delivery System" data-source-line="5" data-uid="ent0004" id="cluster_Delivery System"><path d="M8.5,6 L138.0566,6 A3.75,3.75 0 0 1 140.5566,8.5 L147.5566,28.2969 L239.5,28.2969 A2.5,2.5 0 0 1 242,30.7969 L242,100.79 A2.5,2.5 0 0 1 239.5,103.29 L8.5,103.29 A2.5,2.5 0 0 1 6,100.79 L6,8.5 A2.5,2.5 0 0 1 8.5,6" fill="none" style="stroke:#000000;stroke-width:1.5;"/><line style="stroke:#000000;stroke-width:1.5;" x1="6" x2="147.5566" y1="28.2969" y2="28.2969"/><text fill="#000000" font-family="sans-serif" font-size="14" font-weight="bold" lengthAdjust="spacing" textLength="128.5566" x="10" y="20.9951">Delivery System</text></g><!--cluster Backend System--><g class="cluster" data-entity="Backend System" data-source-line="9" data-uid="ent0006" id="cluster_Backend System"><path d="M36.5,444.89 L167.9023,444.89 A3.75,3.75 0 0 1 170.4023,447.39 L177.4023,467.1869 L437.5,467.1869 A2.5,2.5 0 0 1 440,469.6869 L440,662.98 A2.5,2.5 0 0 1 437.5,665.48 L36.5,665.48 A2.5,2.5 0 0 1 34,662.98 L34,447.39 A2.5,2.5 0 0 1 36.5,444.89" fill="none" style="stroke:#000000;stroke-width:1.5;"/><line style="stroke:#000000;stroke-width:1.5;" x1="34" x2="177.4023" y1="467.1869" y2="467.1869"/><text fill="#000000" font-family="sans-serif" font-size="14" font-weight="bold" lengthAdjust="spacing" textLength="130.4023" x="38" y="459.8851">Backend System</text></g><!--cluster Communication System--><g class="cluster" data-entity="Communication System" data-source-line="15" data-uid="ent0010" id="cluster_Communication System"><path d="M125.5,152.29 L312.3145,152.29 A3.75,3.75 0 0 1 314.8145,154.79 L321.8145,174.5869 L354.5,174.5869 A2.5,2.5 0 0 1 357,177.0869 L357,247.09 A2.5,2.5 0 0 1 354.5,249.59 L125.5,249.59 A2.5,2.5 0 0 1 123,247.09 L123,154.79 A2.5,2.5 0 0 1 125.5,152.29" fill="none" style="stroke:#000000;stroke-width:1.5;"/><line style="stroke:#000000;stroke-width:1.5;" x1="123" x2="321.8145" y1="174.5869" y2="174.5869"/><text fill="#000000" font-family="sans-serif" font-size="14" font-weight="bold" lengthAdjust="spacing" textLength="185.8145" x="127" y="167.2851">Communication System</text></g><!--entity User App--><g class="entity" data-entity="User App" data-source-line="2" data-uid="ent0003" id="entity_User App"><rect fill="#F1F1F1" height="46.2969" rx="2.5" ry="2.5" style="stroke:#181818;stroke-width:0.5;" width="103.7109" x="163.14" y="333.59"/><rect fill="#F1F1F1" height="10" style="stroke:#181818;stroke-width:0.5;" width="15" x="246.8509" y="338.59"/><rect fill="#F1F1F1" height="2" style="stroke:#181818;stroke-width:0.5;" width="4" x="244.8509" y="340.59"/><rect fill="#F1F1F1" height="2" style="stroke:#181818;stroke-width:0.5;" width="4" x="244.8509" y="344.59"/><text fill="#000000" font-family="sans-serif" font-size="14" lengthAdjust="spacing" textLength="63.7109" x="178.14" y="366.5851">User App</text></g><!--entity Delivery Personnel App--><g class="entity" data-entity="Delivery Personnel App" data-source-line="6" data-uid="ent0005" id="entity_Delivery Personnel App"><rect fill="#F1F1F1" height="46.2969" rx="2.5" ry="2.5" style="stroke:#181818;stroke-width:0.5;" width="203.2832" x="22.36" y="41"/><rect fill="#F1F1F1" height="10" style="stroke:#181818;stroke-width:0.5;" width="15" x="205.6432" y="46"/><rect fill="#F1F1F1" height="2" style="stroke:#181818;stroke-width:0.5;" width="4" x="203.6432" y="48"/><rect fill="#F1F1F1" height="2" style="stroke:#181818;stroke-width:0.5;" width="4" x="203.6432" y="52"/><text fill="#000000" font-family="sans-serif" font-size="14" lengthAdjust="spacing" textLength="163.2832" x="37.36" y="73.9951">Delivery Personnel App</text></g><!--entity API--><g class="entity" data-entity="API" data-source-line="10" data-uid="ent0007" id="entity_API"><rect fill="#F1F1F1" height="46.2969" rx="2.5" ry="2.5" style="stroke:#181818;stroke-width:0.5;" width="62.1484" x="104.93" y="479.89"/><rect fill="#F1F1F1" height="10" style="stroke:#181818;stroke-width:0.5;" width="15" x="147.0784" y="484.89"/><rect fill="#F1F1F1" height="2" style="stroke:#181818;stroke-width:0.5;" width="4" x="145.0784" y="486.89"/><rect fill="#F1F1F1" height="2" style="stroke:#181818;stroke-width:0.5;" width="4" x="145.0784" y="490.89"/><text fill="#000000" font-family="sans-serif" font-size="14" lengthAdjust="spacing" textLength="22.1484" x="119.93" y="512.8851">API</text></g><!--entity Order Management--><g class="entity" data-entity="Order Management" data-source-line="11" data-uid="ent0008" id="entity_Order Management"><rect fill="#F1F1F1" height="46.2969" rx="2.5" ry="2.5" style="stroke:#181818;stroke-width:0.5;" width="176.7051" x="49.65" y="603.18"/><rect fill="#F1F1F1" height="10" style="stroke:#181818;stroke-width:0.5;" width="15" x="206.3551" y="608.18"/><rect fill="#F1F1F1" height="2" style="stroke:#181818;stroke-width:0.5;" width="4" x="204.3551" y="610.18"/><rect fill="#F1F1F1" height="2" style="stroke:#181818;stroke-width:0.5;" width="4" x="204.3551" y="614.18"/><text fill="#000000" font-family="sans-serif" font-size="14" lengthAdjust="spacing" textLength="136.7051" x="64.65" y="636.1751">Order Management</text></g><!--entity Delivery Tracking--><g class="entity" data-entity="Delivery Tracking" data-source-line="12" data-uid="ent0009" id="entity_Delivery Tracking"><rect fill="#F1F1F1" height="46.2969" rx="2.5" ry="2.5" style="stroke:#181818;stroke-width:0.5;" width="162.9033" x="261.55" y="603.18"/><rect fill="#F1F1F1" height="10" style="stroke:#181818;stroke-width:0.5;" width="15" x="404.4533" y="608.18"/><rect fill="#F1F1F1" height="2" style="stroke:#181818;stroke-width:0.5;" width="4" x="402.4533" y="610.18"/><rect fill="#F1F1F1" height="2" style="stroke:#181818;stroke-width:0.5;" width="4" x="402.4533" y="614.18"/><text fill="#000000" font-family="sans-serif" font-size="14" lengthAdjust="spacing" textLength="122.9033" x="276.55" y="636.1751">Delivery Tracking</text></g><!--entity Interactive Component--><g class="entity" data-entity="Interactive Component" data-source-line="16" data-uid="ent0011" id="entity_Interactive Component"><rect fill="#F1F1F1" height="46.2969" rx="2.5" ry="2.5" style="stroke:#181818;stroke-width:0.5;" width="201.1436" x="139.43" y="187.29"/><rect fill="#F1F1F1" height="10" style="stroke:#181818;stroke-width:0.5;" width="15" x="320.5736" y="192.29"/><rect fill="#F1F1F1" height="2" style="stroke:#181818;stroke-width:0.5;" width="4" x="318.5736" y="194.29"/><rect fill="#F1F1F1" height="2" style="stroke:#181818;stroke-width:0.5;" width="4" x="318.5736" y="198.29"/><text fill="#000000" font-family="sans-serif" font-size="14" lengthAdjust="spacing" textLength="161.1436" x="154.43" y="220.2851">Interactive Component</text></g><!--link User App to API--><g class="link" data-entity-1="User App" data-entity-2="API" data-source-line="19" data-uid="lnk12" id="link_User App_API"><path d="M202.66,380.28 C187.81,407.39 165.9407,447.3468 151.1407,474.3868" fill="none" id="User App-to-API" style="stroke:#181818;stroke-width:1;"/><polygon fill="#181818" points="148.26,479.65,156.0899,473.6757,150.6606,475.264,149.0723,469.8347,148.26,479.65" style="stroke:#181818;stroke-width:1;"/><text fill="#000000" font-family="sans-serif" font-size="13" lengthAdjust="spacing" textLength="120.7896" x="185.9" y="424.9569">Request/Response</text></g><!--link Delivery Personnel App to API--><g class="link" data-entity-1="Delivery Personnel App" data-entity-2="API" data-source-line="20" data-uid="lnk13" id="link_Delivery Personnel App_API"><path d="M120.13,87.6 C113.96,124.57 102.2,200.63 98,265.59 C92.87,345.04 114.9826,432.1751 127.3026,473.9451" fill="none" id="Delivery Personnel App-to-API" style="stroke:#181818;stroke-width:1;"/><polygon fill="#181818" points="129,479.7,130.2905,469.9361,127.5855,474.9043,122.6173,472.1993,129,479.7" style="stroke:#181818;stroke-width:1;"/><text fill="#000000" font-family="sans-serif" font-size="13" lengthAdjust="spacing" textLength="120.7896" x="99" y="278.6569">Request/Response</text></g><!--link API to Order Management--><g class="link" data-entity-1="API" data-entity-2="Order Management" data-source-line="21" data-uid="lnk14" id="link_API_Order Management"><path d="M126.15,526.63 C121.45,540.07 117.37,557.51 120,573.18 C121.68,583.2 122.9507,588.2392 126.3307,597.2892" fill="none" id="API-to-Order Management" style="stroke:#181818;stroke-width:1;"/><polygon fill="#181818" points="128.43,602.91,129.0283,593.0793,126.6806,598.226,121.5339,595.8783,128.43,602.91" style="stroke:#181818;stroke-width:1;"/><text fill="#000000" font-family="sans-serif" font-size="13" lengthAdjust="spacing" textLength="99.7153" x="121" y="569.2469">Manage Orders</text></g><!--link API to Delivery Tracking--><g class="link" data-entity-1="API" data-entity-2="Delivery Tracking" data-source-line="22" data-uid="lnk15" id="link_API_Delivery Tracking"><path d="M167.44,522.46 C204.2,544 259.8537,576.606 299.3837,599.776" fill="none" id="API-to-Delivery Tracking" style="stroke:#181818;stroke-width:1;"/><polygon fill="#181818" points="304.56,602.81,298.8182,594.808,300.2464,600.2816,294.7728,601.7098,304.56,602.81" style="stroke:#181818;stroke-width:1;"/><text fill="#000000" font-family="sans-serif" font-size="13" lengthAdjust="spacing" textLength="158.4121" x="252.89" y="569.2469">Track Deliveries via GPS</text></g><!--link Delivery Personnel App to Interactive Component--><g class="link" data-entity-1="Delivery Personnel App" data-entity-2="Interactive Component" data-source-line="23" data-uid="lnk16" id="link_Delivery Personnel App_Interactive Component"><path d="M142.12,87.69 C163.92,114.8 196.5107,155.3437 218.2407,182.3737" fill="none" id="Delivery Personnel App-to-Interactive Component" style="stroke:#181818;stroke-width:1;"/><polygon fill="#181818" points="222,187.05,219.4785,177.5294,218.8672,183.1531,213.2435,182.5418,222,187.05" style="stroke:#181818;stroke-width:1;"/><text fill="#000000" font-family="sans-serif" font-size="13" lengthAdjust="spacing" textLength="84.3413" x="179.52" y="132.3569">Contact User</text></g><!--link Interactive Component to User App--><g class="link" data-entity-1="Interactive Component" data-entity-2="User App" data-source-line="24" data-uid="lnk17" id="link_Interactive Component_User App"><path d="M236.09,233.99 C231.4,261.1 224.5832,300.3979 219.9032,327.4379" fill="none" id="Interactive Component-to-User App" style="stroke:#181818;stroke-width:1;"/><polygon fill="#181818" points="218.88,333.35,224.3563,325.164,219.7327,328.4232,216.4735,323.7997,218.88,333.35" style="stroke:#181818;stroke-width:1;"/><text fill="#000000" font-family="sans-serif" font-size="13" lengthAdjust="spacing" textLength="72.4204" x="231.47" y="278.6569">Notify User</text></g><!--SRC=[XP3B2i8m44Nt-OgXUt7lGgWAua8jFbRIHT1HWkqa9b4euhyxfhv2bQuocJdtPcwCt1xb0I5PExImh9p7Ce6h0DY4JcfCBcv2c1Stma9Tq5On- -vcQ9qcmgAf7721j8k5QJR97-VSxlYrgIH6IoIVHwuhorf5XzXmgCloJ6ehlT8Ksqx88siyou4neobuileJ2pgTVhq0z621fpCwtrsWOzYX-1UfHHK60MaaOhw-GHYvRxYPbEbGmtEaqC55IHXdovRTVcTdlw4cptru_83uXmMBpn_rOAQzsbUrw0u0]--></g></svg>