<svg xmlns="http://www.w3.org/2000/svg" xmlns:xlink="http://www.w3.org/1999/xlink" contentStyleType="text/css" data-diagram-type="ACTIVITY" height="558px" preserveAspectRatio="none" style="width:353px;height:558px;background:#FFFFFF;" version="1.1" viewBox="0 0 353 558" width="353px" zoomAndPan="magnify"><defs/><g><ellipse cx="161.4702" cy="20" fill="#222222" rx="10" ry="10" style="stroke:#222222;stroke-width:1;"/><rect fill="#F1F1F1" height="33.9688" rx="12.5" ry="12.5" style="stroke:#181818;stroke-width:0.5;" width="211.7422" x="55.5991" y="50"/><text fill="#000000" font-family="sans-serif" font-size="12" lengthAdjust="spacing" textLength="191.7422" x="65.5991" y="71.1387">Admin opens task management</text><rect fill="#F1F1F1" height="33.9688" rx="12.5" ry="12.5" style="stroke:#181818;stroke-width:0.5;" width="92.3457" x="115.2974" y="103.9688"/><text fill="#000000" font-family="sans-serif" font-size="12" lengthAdjust="spacing" textLength="72.3457" x="125.2974" y="125.1074">Selects task</text><rect fill="#F1F1F1" height="33.9688" rx="12.5" ry="12.5" style="stroke:#181818;stroke-width:0.5;" width="132.7695" x="95.0854" y="201.9375"/><text fill="#000000" font-family="sans-serif" font-size="12" lengthAdjust="spacing" textLength="112.7695" x="105.0854" y="223.0762">Assigns or revokes</text><rect fill="#F1F1F1" height="33.9688" rx="12.5" ry="12.5" style="stroke:#181818;stroke-width:0.5;" width="188.3164" x="67.312" y="255.9063"/><text fill="#000000" font-family="sans-serif" font-size="12" lengthAdjust="spacing" textLength="168.3164" x="77.312" y="277.0449">System verifies permissions</text><polygon fill="#F1F1F1" points="110.8074,309.875,212.1331,309.875,224.1331,321.875,212.1331,333.875,110.8074,333.875,98.8074,321.875,110.8074,309.875" style="stroke:#181818;stroke-width:0.5;"/><text fill="#000000" font-family="sans-serif" font-size="11" lengthAdjust="spacing" textLength="101.3257" x="110.8074" y="325.6831">Permissions valid?</text><text fill="#000000" font-family="sans-serif" font-size="11" lengthAdjust="spacing" textLength="19.0083" x="79.7991" y="319.2808">yes</text><text fill="#000000" font-family="sans-serif" font-size="11" lengthAdjust="spacing" textLength="13.7017" x="224.1331" y="319.2808">no</text><rect fill="#F1F1F1" height="33.9688" rx="12.5" ry="12.5" style="stroke:#181818;stroke-width:0.5;" width="139.4727" x="11" y="343.875"/><text fill="#000000" font-family="sans-serif" font-size="12" lengthAdjust="spacing" textLength="119.4727" x="21" y="365.0137">Updates task status</text><rect fill="#F1F1F1" height="33.9688" rx="12.5" ry="12.5" style="stroke:#181818;stroke-width:0.5;" width="134.0234" x="13.7246" y="397.8438"/><text fill="#000000" font-family="sans-serif" font-size="12" lengthAdjust="spacing" textLength="114.0234" x="23.7246" y="418.9824">Sends notifications</text><rect fill="#F1F1F1" height="33.9688" rx="12.5" ry="12.5" style="stroke:#181818;stroke-width:0.5;" width="143.4629" x="170.4727" y="343.875"/><text fill="#000000" font-family="sans-serif" font-size="12" lengthAdjust="spacing" textLength="123.4629" x="180.4727" y="365.0137">Show error message</text><polygon fill="#F1F1F1" points="161.4702,437.8125,173.4702,449.8125,161.4702,461.8125,149.4702,449.8125,161.4702,437.8125" style="stroke:#181818;stroke-width:0.5;"/><polygon fill="#F1F1F1" points="161.4702,157.9375,173.4702,169.9375,161.4702,181.9375,149.4702,169.9375,161.4702,157.9375" style="stroke:#181818;stroke-width:0.5;"/><polygon fill="#F1F1F1" points="128.6045,481.8125,194.3359,481.8125,206.3359,493.8125,194.3359,505.8125,128.6045,505.8125,116.6045,493.8125,128.6045,481.8125" style="stroke:#181818;stroke-width:0.5;"/><text fill="#000000" font-family="sans-serif" font-size="11" lengthAdjust="spacing" textLength="65.7314" x="128.6045" y="497.6206">More tasks?</text><ellipse cx="161.4702" cy="536.8125" fill="none" rx="11" ry="11" style="stroke:#222222;stroke-width:1;"/><ellipse cx="161.4702" cy="536.8125" fill="#222222" rx="6" ry="6" style="stroke:#222222;stroke-width:1;"/><line style="stroke:#181818;stroke-width:1;" x1="161.4702" x2="161.4702" y1="30" y2="50"/><polygon fill="#181818" points="157.4702,40,161.4702,50,165.4702,40,161.4702,44" style="stroke:#181818;stroke-width:1;"/><line style="stroke:#181818;stroke-width:1;" x1="161.4702" x2="161.4702" y1="83.9688" y2="103.9688"/><polygon fill="#181818" points="157.4702,93.9688,161.4702,103.9688,165.4702,93.9688,161.4702,97.9688" style="stroke:#181818;stroke-width:1;"/><line style="stroke:#181818;stroke-width:1;" x1="161.4702" x2="161.4702" y1="235.9063" y2="255.9063"/><polygon fill="#181818" points="157.4702,245.9063,161.4702,255.9063,165.4702,245.9063,161.4702,249.9063" style="stroke:#181818;stroke-width:1;"/><line style="stroke:#181818;stroke-width:1;" x1="80.7363" x2="80.7363" y1="377.8438" y2="397.8438"/><polygon fill="#181818" points="76.7363,387.8438,80.7363,397.8438,84.7363,387.8438,80.7363,391.8438" style="stroke:#181818;stroke-width:1;"/><line style="stroke:#181818;stroke-width:1;" x1="98.8074" x2="80.7363" y1="321.875" y2="321.875"/><line style="stroke:#181818;stroke-width:1;" x1="80.7363" x2="80.7363" y1="321.875" y2="343.875"/><polygon fill="#181818" points="76.7363,333.875,80.7363,343.875,84.7363,333.875,80.7363,337.875" style="stroke:#181818;stroke-width:1;"/><line style="stroke:#181818;stroke-width:1;" x1="224.1331" x2="242.2041" y1="321.875" y2="321.875"/><line style="stroke:#181818;stroke-width:1;" x1="242.2041" x2="242.2041" y1="321.875" y2="343.875"/><polygon fill="#181818" points="238.2041,333.875,242.2041,343.875,246.2041,333.875,242.2041,337.875" style="stroke:#181818;stroke-width:1;"/><line style="stroke:#181818;stroke-width:1;" x1="80.7363" x2="80.7363" y1="431.8125" y2="449.8125"/><line style="stroke:#181818;stroke-width:1;" x1="80.7363" x2="149.4702" y1="449.8125" y2="449.8125"/><polygon fill="#181818" points="139.4702,445.8125,149.4702,449.8125,139.4702,453.8125,143.4702,449.8125" style="stroke:#181818;stroke-width:1;"/><line style="stroke:#181818;stroke-width:1;" x1="242.2041" x2="242.2041" y1="377.8438" y2="449.8125"/><line style="stroke:#181818;stroke-width:1;" x1="242.2041" x2="173.4702" y1="449.8125" y2="449.8125"/><polygon fill="#181818" points="183.4702,445.8125,173.4702,449.8125,183.4702,453.8125,179.4702,449.8125" style="stroke:#181818;stroke-width:1;"/><line style="stroke:#181818;stroke-width:1;" x1="161.4702" x2="161.4702" y1="289.875" y2="309.875"/><polygon fill="#181818" points="157.4702,299.875,161.4702,309.875,165.4702,299.875,161.4702,303.875" style="stroke:#181818;stroke-width:1;"/><line style="stroke:#181818;stroke-width:1;" x1="161.4702" x2="161.4702" y1="181.9375" y2="201.9375"/><polygon fill="#181818" points="157.4702,191.9375,161.4702,201.9375,165.4702,191.9375,161.4702,195.9375" style="stroke:#181818;stroke-width:1;"/><line style="stroke:#181818;stroke-width:1;" x1="206.3359" x2="327.9355" y1="493.8125" y2="493.8125"/><polygon fill="#181818" points="323.9355,334.375,327.9355,324.375,331.9355,334.375,327.9355,330.375" style="stroke:#181818;stroke-width:1;"/><line style="stroke:#181818;stroke-width:1;" x1="327.9355" x2="327.9355" y1="169.9375" y2="493.8125"/><line style="stroke:#181818;stroke-width:1;" x1="327.9355" x2="173.4702" y1="169.9375" y2="169.9375"/><polygon fill="#181818" points="183.4702,165.9375,173.4702,169.9375,183.4702,173.9375,179.4702,169.9375" style="stroke:#181818;stroke-width:1;"/><line style="stroke:#181818;stroke-width:1;" x1="161.4702" x2="161.4702" y1="461.8125" y2="481.8125"/><polygon fill="#181818" points="157.4702,471.8125,161.4702,481.8125,165.4702,471.8125,161.4702,475.8125" style="stroke:#181818;stroke-width:1;"/><line style="stroke:#181818;stroke-width:1;" x1="161.4702" x2="161.4702" y1="137.9375" y2="157.9375"/><polygon fill="#181818" points="157.4702,147.9375,161.4702,157.9375,165.4702,147.9375,161.4702,151.9375" style="stroke:#181818;stroke-width:1;"/><line style="stroke:#181818;stroke-width:1;" x1="161.4702" x2="161.4702" y1="505.8125" y2="525.8125"/><polygon fill="#181818" points="157.4702,515.8125,161.4702,525.8125,165.4702,515.8125,161.4702,519.8125" style="stroke:#181818;stroke-width:1;"/><!--SRC=[HKzBZi8m3Dtd55wsLsWNY0ECD5B50IBoIYqQ9x9D4RSdb8vc-_xFFAg7C9nJPg5I8KOUxKuvIhmXGtmCmuGLL_yoOmYAYkY1Q3YRyQrPYf9YAtVO-86dbpaoRL2U6KOLchb9Y-mypzJz_aEqnPNJgITV8DIzO7qJjPXBJT5n33AF_jZjdm98CfBYBVyQ_IyOgu4wAOT_MigJeDhMPPYrFxj84i_71tekl3RBJr7iDNRgGp0lzGq0]--></g></svg>