<svg xmlns="http://www.w3.org/2000/svg" xmlns:xlink="http://www.w3.org/1999/xlink" contentStyleType="text/css" data-diagram-type="CLASS" height="681px" preserveAspectRatio="none" style="width:735px;height:681px;background:#FFFFFF;" version="1.1" viewBox="0 0 735 681" width="735px" zoomAndPan="magnify"><defs/><g><!--class MetricCalculator--><g class="entity" data-entity="MetricCalculator" data-source-line="1" data-uid="ent0002" id="entity_MetricCalculator"><rect fill="#F1F1F1" height="96.8906" rx="2.5" ry="2.5" style="stroke:#181818;stroke-width:0.5;" width="221.8701" x="357.27" y="213.48"/><ellipse cx="406.646" cy="229.48" fill="#ADD1B2" rx="11" ry="11" style="stroke:#181818;stroke-width:1;"/><path d="M409.6147,235.1206 Q409.0366,235.4175 408.396,235.5581 Q407.7554,235.7144 407.0522,235.7144 Q404.5522,235.7144 403.2241,234.0738 Q401.9116,232.4175 401.9116,229.2925 Q401.9116,226.1675 403.2241,224.5113 Q404.5522,222.855 407.0522,222.855 Q407.7554,222.855 408.396,223.0113 Q409.0522,223.1675 409.6147,223.4644 L409.6147,226.1831 Q408.9897,225.605 408.396,225.3394 Q407.8022,225.0581 407.1772,225.0581 Q405.8335,225.0581 405.146,226.1363 Q404.4585,227.1988 404.4585,229.2925 Q404.4585,231.3863 405.146,232.4644 Q405.8335,233.5269 407.1772,233.5269 Q407.8022,233.5269 408.396,233.2613 Q408.9897,232.98 409.6147,232.4019 L409.6147,235.1206 Z " fill="#000000"/><text fill="#000000" font-family="sans-serif" font-size="14" lengthAdjust="spacing" textLength="114.6182" x="427.146" y="234.3267">MetricCalculator</text><line style="stroke:#181818;stroke-width:0.5;" x1="358.27" x2="578.1401" y1="245.48" y2="245.48"/><rect fill="none" height="6" style="stroke:#C82930;stroke-width:1;" width="6" x="365.27" y="256.1284"/><text fill="#000000" font-family="sans-serif" font-size="14" lengthAdjust="spacing" textLength="42.8408" x="377.27" y="262.4751">config</text><rect fill="none" height="6" style="stroke:#C82930;stroke-width:1;" width="6" x="365.27" y="272.4253"/><text fill="#000000" font-family="sans-serif" font-size="14" lengthAdjust="spacing" textLength="54.0928" x="377.27" y="278.772">sources</text><line style="stroke:#181818;stroke-width:0.5;" x1="358.27" x2="578.1401" y1="286.0738" y2="286.0738"/><ellipse cx="368.27" cy="299.7222" fill="#84BE84" rx="3" ry="3" style="stroke:#038048;stroke-width:1;"/><text fill="#000000" font-family="sans-serif" font-size="14" lengthAdjust="spacing" textLength="195.8701" x="377.27" y="303.0689">computeKPIs(entity, period)</text></g><!--class Normalizer--><g class="entity" data-entity="Normalizer" data-source-line="7" data-uid="ent0003" id="entity_Normalizer"><rect fill="#F1F1F1" height="113.1875" rx="2.5" ry="2.5" style="stroke:#181818;stroke-width:0.5;" width="108.5078" x="355.95" y="371.37"/><ellipse cx="370.95" cy="387.37" fill="#ADD1B2" rx="11" ry="11" style="stroke:#181818;stroke-width:1;"/><path d="M373.9188,393.0106 Q373.3406,393.3075 372.7,393.4481 Q372.0594,393.6044 371.3563,393.6044 Q368.8563,393.6044 367.5281,391.9638 Q366.2156,390.3075 366.2156,387.1825 Q366.2156,384.0575 367.5281,382.4013 Q368.8563,380.745 371.3563,380.745 Q372.0594,380.745 372.7,380.9013 Q373.3563,381.0575 373.9188,381.3544 L373.9188,384.0731 Q373.2938,383.495 372.7,383.2294 Q372.1063,382.9481 371.4813,382.9481 Q370.1375,382.9481 369.45,384.0263 Q368.7625,385.0888 368.7625,387.1825 Q368.7625,389.2763 369.45,390.3544 Q370.1375,391.4169 371.4813,391.4169 Q372.1063,391.4169 372.7,391.1513 Q373.2938,390.87 373.9188,390.2919 L373.9188,393.0106 Z " fill="#000000"/><text fill="#000000" font-family="sans-serif" font-size="14" lengthAdjust="spacing" textLength="76.5078" x="384.95" y="392.2167">Normalizer</text><line style="stroke:#181818;stroke-width:0.5;" x1="356.95" x2="463.4578" y1="403.37" y2="403.37"/><rect fill="none" height="6" style="stroke:#C82930;stroke-width:1;" width="6" x="363.95" y="414.0184"/><text fill="#000000" font-family="sans-serif" font-size="14" lengthAdjust="spacing" textLength="58.3926" x="375.95" y="420.3651">strategy</text><line style="stroke:#181818;stroke-width:0.5;" x1="356.95" x2="463.4578" y1="427.6669" y2="427.6669"/><ellipse cx="366.95" cy="441.3153" fill="#84BE84" rx="3" ry="3" style="stroke:#038048;stroke-width:1;"/><text fill="#000000" font-family="sans-serif" font-size="14" lengthAdjust="spacing" textLength="56.1982" x="375.95" y="444.662">zscore()</text><ellipse cx="366.95" cy="457.6122" fill="#84BE84" rx="3" ry="3" style="stroke:#038048;stroke-width:1;"/><text fill="#000000" font-family="sans-serif" font-size="14" lengthAdjust="spacing" textLength="67.8262" x="375.95" y="460.9589">minmax()</text><ellipse cx="366.95" cy="473.9091" fill="#84BE84" rx="3" ry="3" style="stroke:#038048;stroke-width:1;"/><text fill="#000000" font-family="sans-serif" font-size="14" lengthAdjust="spacing" textLength="76.6035" x="375.95" y="477.2557">winsorize()</text></g><!--class WeightConfig--><g class="entity" data-entity="WeightConfig" data-source-line="14" data-uid="ent0004" id="entity_WeightConfig"><rect fill="#F1F1F1" height="129.4844" rx="2.5" ry="2.5" style="stroke:#181818;stroke-width:0.5;" width="126.5137" x="404.95" y="7"/><ellipse cx="419.95" cy="23" fill="#ADD1B2" rx="11" ry="11" style="stroke:#181818;stroke-width:1;"/><path d="M422.9188,28.6406 Q422.3406,28.9375 421.7,29.0781 Q421.0594,29.2344 420.3563,29.2344 Q417.8563,29.2344 416.5281,27.5938 Q415.2156,25.9375 415.2156,22.8125 Q415.2156,19.6875 416.5281,18.0313 Q417.8563,16.375 420.3563,16.375 Q421.0594,16.375 421.7,16.5313 Q422.3563,16.6875 422.9188,16.9844 L422.9188,19.7031 Q422.2938,19.125 421.7,18.8594 Q421.1063,18.5781 420.4813,18.5781 Q419.1375,18.5781 418.45,19.6563 Q417.7625,20.7188 417.7625,22.8125 Q417.7625,24.9063 418.45,25.9844 Q419.1375,27.0469 420.4813,27.0469 Q421.1063,27.0469 421.7,26.7813 Q422.2938,26.5 422.9188,25.9219 L422.9188,28.6406 Z " fill="#000000"/><text fill="#000000" font-family="sans-serif" font-size="14" lengthAdjust="spacing" textLength="94.5137" x="433.95" y="27.8467">WeightConfig</text><line style="stroke:#181818;stroke-width:0.5;" x1="405.95" x2="530.4637" y1="39" y2="39"/><rect fill="none" height="6" style="stroke:#C82930;stroke-width:1;" width="6" x="412.95" y="49.6484"/><text fill="#000000" font-family="sans-serif" font-size="14" lengthAdjust="spacing" textLength="12.7764" x="424.95" y="55.9951">id</text><rect fill="none" height="6" style="stroke:#C82930;stroke-width:1;" width="6" x="412.95" y="65.9453"/><text fill="#000000" font-family="sans-serif" font-size="14" lengthAdjust="spacing" textLength="74.0537" x="424.95" y="72.292">ownerRole</text><rect fill="none" height="6" style="stroke:#C82930;stroke-width:1;" width="6" x="412.95" y="82.2422"/><text fill="#000000" font-family="sans-serif" font-size="14" lengthAdjust="spacing" textLength="54.4961" x="424.95" y="88.5889">weights</text><line style="stroke:#181818;stroke-width:0.5;" x1="405.95" x2="530.4637" y1="95.8906" y2="95.8906"/><ellipse cx="415.95" cy="109.5391" fill="#84BE84" rx="3" ry="3" style="stroke:#038048;stroke-width:1;"/><text fill="#000000" font-family="sans-serif" font-size="14" lengthAdjust="spacing" textLength="67.1357" x="424.95" y="112.8857">validate()</text><ellipse cx="415.95" cy="125.8359" fill="#84BE84" rx="3" ry="3" style="stroke:#038048;stroke-width:1;"/><text fill="#000000" font-family="sans-serif" font-size="14" lengthAdjust="spacing" textLength="81.915" x="424.95" y="129.1826">setWeight()</text></g><!--class IndexCalculator--><g class="entity" data-entity="IndexCalculator" data-source-line="22" data-uid="ent0005" id="entity_IndexCalculator"><rect fill="#F1F1F1" height="113.1875" rx="2.5" ry="2.5" style="stroke:#181818;stroke-width:0.5;" width="204.876" x="499.77" y="371.37"/><ellipse cx="543.1178" cy="387.37" fill="#ADD1B2" rx="11" ry="11" style="stroke:#181818;stroke-width:1;"/><path d="M546.0866,393.0106 Q545.5084,393.3075 544.8678,393.4481 Q544.2272,393.6044 543.5241,393.6044 Q541.0241,393.6044 539.6959,391.9638 Q538.3834,390.3075 538.3834,387.1825 Q538.3834,384.0575 539.6959,382.4013 Q541.0241,380.745 543.5241,380.745 Q544.2272,380.745 544.8678,380.9013 Q545.5241,381.0575 546.0866,381.3544 L546.0866,384.0731 Q545.4616,383.495 544.8678,383.2294 Q544.2741,382.9481 543.6491,382.9481 Q542.3053,382.9481 541.6178,384.0263 Q540.9303,385.0888 540.9303,387.1825 Q540.9303,389.2763 541.6178,390.3544 Q542.3053,391.4169 543.6491,391.4169 Q544.2741,391.4169 544.8678,391.1513 Q545.4616,390.87 546.0866,390.2919 L546.0866,393.0106 Z " fill="#000000"/><text fill="#000000" font-family="sans-serif" font-size="14" lengthAdjust="spacing" textLength="109.8809" x="563.4173" y="392.2167">IndexCalculator</text><line style="stroke:#181818;stroke-width:0.5;" x1="500.77" x2="703.646" y1="403.37" y2="403.37"/><rect fill="none" height="6" style="stroke:#C82930;stroke-width:1;" width="6" x="507.77" y="414.0184"/><text fill="#000000" font-family="sans-serif" font-size="14" lengthAdjust="spacing" textLength="31.2744" x="519.77" y="420.3651">type</text><line style="stroke:#181818;stroke-width:0.5;" x1="500.77" x2="703.646" y1="427.6669" y2="427.6669"/><ellipse cx="510.77" cy="441.3153" fill="#84BE84" rx="3" ry="3" style="stroke:#038048;stroke-width:1;"/><text fill="#000000" font-family="sans-serif" font-size="14" lengthAdjust="spacing" textLength="178.876" x="519.77" y="444.662">computeBrandInfluence()</text><ellipse cx="510.77" cy="457.6122" fill="#84BE84" rx="3" ry="3" style="stroke:#038048;stroke-width:1;"/><text fill="#000000" font-family="sans-serif" font-size="14" lengthAdjust="spacing" textLength="176.3193" x="519.77" y="460.9589">computeMarketPosition()</text><ellipse cx="510.77" cy="473.9091" fill="#84BE84" rx="3" ry="3" style="stroke:#038048;stroke-width:1;"/><text fill="#000000" font-family="sans-serif" font-size="14" lengthAdjust="spacing" textLength="144.457" x="519.77" y="477.2557">computeReadiness()</text></g><!--class AnomalyDetector--><g class="entity" data-entity="AnomalyDetector" data-source-line="29" data-uid="ent0006" id="entity_AnomalyDetector"><rect fill="#F1F1F1" height="96.8906" rx="2.5" ry="2.5" style="stroke:#181818;stroke-width:0.5;" width="154.4111" x="7" y="23.3"/><ellipse cx="22" cy="39.3" fill="#ADD1B2" rx="11" ry="11" style="stroke:#181818;stroke-width:1;"/><path d="M24.9688,44.9406 Q24.3906,45.2375 23.75,45.3781 Q23.1094,45.5344 22.4063,45.5344 Q19.9063,45.5344 18.5781,43.8937 Q17.2656,42.2375 17.2656,39.1125 Q17.2656,35.9875 18.5781,34.3312 Q19.9063,32.675 22.4063,32.675 Q23.1094,32.675 23.75,32.8312 Q24.4063,32.9875 24.9688,33.2844 L24.9688,36.0031 Q24.3438,35.425 23.75,35.1594 Q23.1563,34.8781 22.5313,34.8781 Q21.1875,34.8781 20.5,35.9562 Q19.8125,37.0187 19.8125,39.1125 Q19.8125,41.2062 20.5,42.2844 Q21.1875,43.3469 22.5313,43.3469 Q23.1563,43.3469 23.75,43.0812 Q24.3438,42.8 24.9688,42.2219 L24.9688,44.9406 Z " fill="#000000"/><text fill="#000000" font-family="sans-serif" font-size="14" lengthAdjust="spacing" textLength="122.4111" x="36" y="44.1467">AnomalyDetector</text><line style="stroke:#181818;stroke-width:0.5;" x1="8" x2="160.4111" y1="55.3" y2="55.3"/><rect fill="none" height="6" style="stroke:#C82930;stroke-width:1;" width="6" x="15" y="65.9484"/><text fill="#000000" font-family="sans-serif" font-size="14" lengthAdjust="spacing" textLength="52.7324" x="27" y="72.2951">params</text><line style="stroke:#181818;stroke-width:0.5;" x1="8" x2="160.4111" y1="79.5969" y2="79.5969"/><ellipse cx="18" cy="93.2453" fill="#84BE84" rx="3" ry="3" style="stroke:#038048;stroke-width:1;"/><text fill="#000000" font-family="sans-serif" font-size="14" lengthAdjust="spacing" textLength="55.7129" x="27" y="96.592">detect()</text><ellipse cx="18" cy="109.5422" fill="#84BE84" rx="3" ry="3" style="stroke:#038048;stroke-width:1;"/><text fill="#000000" font-family="sans-serif" font-size="14" lengthAdjust="spacing" textLength="61.9404" x="27" y="112.8889">explain()</text></g><!--class LeaderboardService--><g class="entity" data-entity="LeaderboardService" data-source-line="35" data-uid="ent0007" id="entity_LeaderboardService"><rect fill="#F1F1F1" height="96.8906" rx="2.5" ry="2.5" style="stroke:#181818;stroke-width:0.5;" width="172.6631" x="196.87" y="23.3"/><ellipse cx="211.87" cy="39.3" fill="#ADD1B2" rx="11" ry="11" style="stroke:#181818;stroke-width:1;"/><path d="M214.8388,44.9406 Q214.2606,45.2375 213.62,45.3781 Q212.9794,45.5344 212.2763,45.5344 Q209.7763,45.5344 208.4481,43.8937 Q207.1356,42.2375 207.1356,39.1125 Q207.1356,35.9875 208.4481,34.3312 Q209.7763,32.675 212.2763,32.675 Q212.9794,32.675 213.62,32.8312 Q214.2763,32.9875 214.8388,33.2844 L214.8388,36.0031 Q214.2138,35.425 213.62,35.1594 Q213.0263,34.8781 212.4013,34.8781 Q211.0575,34.8781 210.37,35.9562 Q209.6825,37.0187 209.6825,39.1125 Q209.6825,41.2062 210.37,42.2844 Q211.0575,43.3469 212.4013,43.3469 Q213.0263,43.3469 213.62,43.0812 Q214.2138,42.8 214.8388,42.2219 L214.8388,44.9406 Z " fill="#000000"/><text fill="#000000" font-family="sans-serif" font-size="14" lengthAdjust="spacing" textLength="140.6631" x="225.87" y="44.1467">LeaderboardService</text><line style="stroke:#181818;stroke-width:0.5;" x1="197.87" x2="368.5331" y1="55.3" y2="55.3"/><rect fill="none" height="6" style="stroke:#C82930;stroke-width:1;" width="6" x="204.87" y="65.9484"/><text fill="#000000" font-family="sans-serif" font-size="14" lengthAdjust="spacing" textLength="52.7324" x="216.87" y="72.2951">params</text><line style="stroke:#181818;stroke-width:0.5;" x1="197.87" x2="368.5331" y1="79.5969" y2="79.5969"/><ellipse cx="207.87" cy="93.2453" fill="#84BE84" rx="3" ry="3" style="stroke:#038048;stroke-width:1;"/><text fill="#000000" font-family="sans-serif" font-size="14" lengthAdjust="spacing" textLength="42.2393" x="216.87" y="96.592">rank()</text><ellipse cx="207.87" cy="109.5422" fill="#84BE84" rx="3" ry="3" style="stroke:#038048;stroke-width:1;"/><text fill="#000000" font-family="sans-serif" font-size="14" lengthAdjust="spacing" textLength="72.1943" x="216.87" y="112.8889">quartiles()</text></g><!--class TimeSeriesStore--><g class="entity" data-entity="TimeSeriesStore" data-source-line="41" data-uid="ent0008" id="entity_TimeSeriesStore"><rect fill="#F1F1F1" height="113.1875" rx="2.5" ry="2.5" style="stroke:#181818;stroke-width:0.5;" width="147.0557" x="449.68" y="561.56"/><ellipse cx="464.68" cy="577.56" fill="#ADD1B2" rx="11" ry="11" style="stroke:#181818;stroke-width:1;"/><path d="M467.6488,583.2006 Q467.0706,583.4975 466.43,583.6381 Q465.7894,583.7944 465.0863,583.7944 Q462.5863,583.7944 461.2581,582.1538 Q459.9456,580.4975 459.9456,577.3725 Q459.9456,574.2475 461.2581,572.5913 Q462.5863,570.935 465.0863,570.935 Q465.7894,570.935 466.43,571.0913 Q467.0863,571.2475 467.6488,571.5444 L467.6488,574.2631 Q467.0238,573.685 466.43,573.4194 Q465.8363,573.1381 465.2113,573.1381 Q463.8675,573.1381 463.18,574.2163 Q462.4925,575.2788 462.4925,577.3725 Q462.4925,579.4663 463.18,580.5444 Q463.8675,581.6069 465.2113,581.6069 Q465.8363,581.6069 466.43,581.3413 Q467.0238,581.06 467.6488,580.4819 L467.6488,583.2006 Z " fill="#000000"/><text fill="#000000" font-family="sans-serif" font-size="14" lengthAdjust="spacing" textLength="115.0557" x="478.68" y="582.4067">TimeSeriesStore</text><line style="stroke:#181818;stroke-width:0.5;" x1="450.68" x2="595.7357" y1="593.56" y2="593.56"/><rect fill="none" height="6" style="stroke:#C82930;stroke-width:1;" width="6" x="457.68" y="604.2084"/><text fill="#000000" font-family="sans-serif" font-size="14" lengthAdjust="spacing" textLength="54.79" x="469.68" y="610.5551">adapter</text><line style="stroke:#181818;stroke-width:0.5;" x1="450.68" x2="595.7357" y1="617.8569" y2="617.8569"/><ellipse cx="460.68" cy="631.5053" fill="#84BE84" rx="3" ry="3" style="stroke:#038048;stroke-width:1;"/><text fill="#000000" font-family="sans-serif" font-size="14" lengthAdjust="spacing" textLength="46.5254" x="469.68" y="634.852">fetch()</text><ellipse cx="460.68" cy="647.8022" fill="#84BE84" rx="3" ry="3" style="stroke:#038048;stroke-width:1;"/><text fill="#000000" font-family="sans-serif" font-size="14" lengthAdjust="spacing" textLength="46.1221" x="469.68" y="651.1489">write()</text><ellipse cx="460.68" cy="664.0991" fill="#84BE84" rx="3" ry="3" style="stroke:#038048;stroke-width:1;"/><text fill="#000000" font-family="sans-serif" font-size="14" lengthAdjust="spacing" textLength="33.5576" x="469.68" y="667.4457">diff()</text></g><!--class SoVComputer--><g class="entity" data-entity="SoVComputer" data-source-line="48" data-uid="ent0009" id="entity_SoVComputer"><rect fill="#F1F1F1" height="64.2969" rx="2.5" ry="2.5" style="stroke:#181818;stroke-width:0.5;" width="128.626" x="19.89" y="229.78"/><ellipse cx="34.89" cy="245.78" fill="#ADD1B2" rx="11" ry="11" style="stroke:#181818;stroke-width:1;"/><path d="M37.8588,251.4206 Q37.2806,251.7175 36.64,251.8581 Q35.9994,252.0144 35.2963,252.0144 Q32.7963,252.0144 31.4681,250.3737 Q30.1556,248.7175 30.1556,245.5925 Q30.1556,242.4675 31.4681,240.8112 Q32.7963,239.155 35.2963,239.155 Q35.9994,239.155 36.64,239.3112 Q37.2963,239.4675 37.8588,239.7644 L37.8588,242.4831 Q37.2338,241.905 36.64,241.6394 Q36.0463,241.3581 35.4213,241.3581 Q34.0775,241.3581 33.39,242.4362 Q32.7025,243.4987 32.7025,245.5925 Q32.7025,247.6862 33.39,248.7644 Q34.0775,249.8269 35.4213,249.8269 Q36.0463,249.8269 36.64,249.5612 Q37.2338,249.28 37.8588,248.7019 L37.8588,251.4206 Z " fill="#000000"/><text fill="#000000" font-family="sans-serif" font-size="14" lengthAdjust="spacing" textLength="96.626" x="48.89" y="250.6267">SoVComputer</text><line style="stroke:#181818;stroke-width:0.5;" x1="20.89" x2="147.516" y1="261.78" y2="261.78"/><line style="stroke:#181818;stroke-width:0.5;" x1="20.89" x2="147.516" y1="269.78" y2="269.78"/><ellipse cx="30.89" cy="283.4284" fill="#84BE84" rx="3" ry="3" style="stroke:#038048;stroke-width:1;"/><text fill="#000000" font-family="sans-serif" font-size="14" lengthAdjust="spacing" textLength="102.1699" x="39.89" y="286.7751">computeSOV()</text></g><!--class Alerts--><g class="entity" data-entity="Alerts" data-source-line="56" data-uid="ent0014" id="entity_Alerts"><rect fill="#F1F1F1" height="48" rx="2.5" ry="2.5" style="stroke:#181818;stroke-width:0.5;" width="72.6191" x="644.9" y="594.16"/><ellipse cx="659.9" cy="610.16" fill="#ADD1B2" rx="11" ry="11" style="stroke:#181818;stroke-width:1;"/><path d="M662.8688,615.8006 Q662.2906,616.0975 661.65,616.2381 Q661.0094,616.3944 660.3063,616.3944 Q657.8063,616.3944 656.4781,614.7538 Q655.1656,613.0975 655.1656,609.9725 Q655.1656,606.8475 656.4781,605.1913 Q657.8063,603.535 660.3063,603.535 Q661.0094,603.535 661.65,603.6913 Q662.3063,603.8475 662.8688,604.1444 L662.8688,606.8631 Q662.2438,606.285 661.65,606.0194 Q661.0563,605.7381 660.4313,605.7381 Q659.0875,605.7381 658.4,606.8163 Q657.7125,607.8788 657.7125,609.9725 Q657.7125,612.0663 658.4,613.1444 Q659.0875,614.2069 660.4313,614.2069 Q661.0563,614.2069 661.65,613.9413 Q662.2438,613.66 662.8688,613.0819 L662.8688,615.8006 Z " fill="#000000"/><text fill="#000000" font-family="sans-serif" font-size="14" lengthAdjust="spacing" textLength="40.6191" x="673.9" y="615.0067">Alerts</text><line style="stroke:#181818;stroke-width:0.5;" x1="645.9" x2="716.5191" y1="626.16" y2="626.16"/><line style="stroke:#181818;stroke-width:0.5;" x1="645.9" x2="716.5191" y1="634.16" y2="634.16"/></g><!--link MetricCalculator to Normalizer--><g class="link" data-entity-1="MetricCalculator" data-entity-2="Normalizer" data-source-line="52" data-uid="lnk10" id="link_MetricCalculator_Normalizer"><path codeLine="52" d="M451.27,310.82 C444.62,329.64 438.9295,345.713 432.0195,365.263" fill="none" id="MetricCalculator-to-Normalizer" style="stroke:#181818;stroke-width:1;"/><polygon fill="#181818" points="430.02,370.92,436.7906,363.7674,431.6862,366.2058,429.2479,361.1015,430.02,370.92" style="stroke:#181818;stroke-width:1;"/></g><!--link MetricCalculator to IndexCalculator--><g class="link" data-entity-1="MetricCalculator" data-entity-2="IndexCalculator" data-source-line="53" data-uid="lnk11" id="link_MetricCalculator_IndexCalculator"><path codeLine="53" d="M507.32,310.82 C522.7,329.64 536.6542,346.7233 552.6242,366.2733" fill="none" id="MetricCalculator-to-IndexCalculator" style="stroke:#181818;stroke-width:1;"/><polygon fill="#181818" points="556.42,370.92,553.8241,361.4194,553.2568,367.0477,547.6285,366.4805,556.42,370.92" style="stroke:#181818;stroke-width:1;"/></g><!--reverse link WeightConfig to MetricCalculator--><g class="link" data-entity-1="WeightConfig" data-entity-2="MetricCalculator" data-source-line="54" data-uid="lnk12" id="link_WeightConfig_MetricCalculator"><path codeLine="54" d="M468.21,142.98 C468.21,167.89 468.21,189.93 468.21,213.02" fill="none" id="WeightConfig-backto-MetricCalculator" style="stroke:#181818;stroke-width:1;stroke-dasharray:7,7;"/><polygon fill="#181818" points="468.21,136.98,464.21,145.98,468.21,141.98,472.21,145.98,468.21,136.98" style="stroke:#181818;stroke-width:1;"/><text fill="#000000" font-family="sans-serif" font-size="13" lengthAdjust="spacing" textLength="35.7056" x="469.21" y="179.5469">inject</text></g><!--link IndexCalculator to TimeSeriesStore--><g class="link" data-entity-1="IndexCalculator" data-entity-2="TimeSeriesStore" data-source-line="55" data-uid="lnk13" id="link_IndexCalculator_TimeSeriesStore"><path codeLine="55" d="M537.74,484.98 C530.62,494.12 524.42,504.06 520.21,514.56 C514.39,529.03 512.6978,539.5938 513.2478,555.1338" fill="none" id="IndexCalculator-to-TimeSeriesStore" style="stroke:#181818;stroke-width:1;"/><polygon fill="#181818" points="513.46,561.13,517.1392,551.9941,513.2831,556.1331,509.1442,552.2771,513.46,561.13" style="stroke:#181818;stroke-width:1;"/><text fill="#000000" font-family="sans-serif" font-size="13" lengthAdjust="spacing" textLength="116.3018" x="521.21" y="527.6269">write IndexScores</text></g><!--link IndexCalculator to Alerts--><g class="link" data-entity-1="IndexCalculator" data-entity-2="Alerts" data-source-line="56" data-uid="lnk15" id="link_IndexCalculator_Alerts"><path codeLine="56" d="M629.05,484.87 C633.57,494.71 638.12,504.89 642.21,514.56 C653.56,541.41 663.2369,567.1686 670.8169,588.0986" fill="none" id="IndexCalculator-to-Alerts" style="stroke:#181818;stroke-width:1;"/><polygon fill="#181818" points="672.86,593.74,673.5563,583.9158,671.1574,589.0388,666.0344,586.6399,672.86,593.74" style="stroke:#181818;stroke-width:1;"/><text fill="#000000" font-family="sans-serif" font-size="13" lengthAdjust="spacing" textLength="77.3018" x="650.05" y="527.6269">emit events</text></g><!--SRC=[RPBDJiCm3CVlVOeSDy7s01D26kComM1QqJY7nDtCqgGuxhuGxqwMjj2jEpMkxP_zjwsCz5xCW0dLH1fL6icEn7SYn40ePpDSnQTt9IdmuNqJVkT5oV0qd_eUM4O-t8e229tk9pz9eYBonL4k3HwXWNacoR0wHCJHAqVGwqSZHvlBVMtiq7f78Q_NWhq3hjOyYUtKEDJnutOMQE4CH6iNuwekjw6w3XLhhWUkA6tkr6hOTsJpeO2sq0UILazjPagmgk7Llfca3V3SUMHqzjot0AdHWlVjacFhmbmEZy2W_aiMacHUzQsZfoR1lZ0IRHlm7AX07qwIJe6sgA3B20rlQi9NAOdHm5aJRvX3I4RmQUYX0KWj2mQAQHcmMZSh8VmReyOiQvDIjvnKQYifV-BJrsKLrxcjmU2-THtN_HUBISuEu6uux5xiIA3z38DBBdTwmbtg7LMQgZBfwHJzrRon0M8VmY575h0Dr-wJNm00]--></g></svg>