<svg xmlns="http://www.w3.org/2000/svg" xmlns:xlink="http://www.w3.org/1999/xlink" contentStyleType="text/css" data-diagram-type="SEQUENCE" height="386px" preserveAspectRatio="none" style="width:844px;height:386px;background:#FFFFFF;" version="1.1" viewBox="0 0 844 386" width="844px" zoomAndPan="magnify"><defs/><g><g><title>User</title><rect fill="#000000" fill-opacity="0.00000" height="223.9297" width="8" x="19.9551" y="81.2969"/><line style="stroke:#181818;stroke-width:0.5;stroke-dasharray:5,5;" x1="23" x2="23" y1="81.2969" y2="305.2266"/></g><g><title>Web App</title><rect fill="#000000" fill-opacity="0.00000" height="223.9297" width="8" x="180.3408" y="81.2969"/><line style="stroke:#181818;stroke-width:0.5;stroke-dasharray:5,5;" x1="183.769" x2="183.769" y1="81.2969" y2="305.2266"/></g><g><title>Scheduler</title><rect fill="#000000" fill-opacity="0.00000" height="223.9297" width="8" x="388.5435" y="81.2969"/><line style="stroke:#181818;stroke-width:0.5;stroke-dasharray:5,5;" x1="392.499" x2="392.499" y1="81.2969" y2="305.2266"/></g><g><title>Report Service</title><rect fill="#000000" fill-opacity="0.00000" height="223.9297" width="8" x="521.0693" y="81.2969"/><line style="stroke:#181818;stroke-width:0.5;stroke-dasharray:5,5;" x1="524.4546" x2="524.4546" y1="81.2969" y2="305.2266"/></g><g><title>Email Service</title><rect fill="#000000" fill-opacity="0.00000" height="223.9297" width="8" x="689.2246" y="81.2969"/><line style="stroke:#181818;stroke-width:0.5;stroke-dasharray:5,5;" x1="692.708" x2="692.708" y1="81.2969" y2="305.2266"/></g><g><title>Audit Log</title><rect fill="#000000" fill-opacity="0.00000" height="223.9297" width="8" x="793.9502" y="81.2969"/><line style="stroke:#181818;stroke-width:0.5;stroke-dasharray:5,5;" x1="797.7412" x2="797.7412" y1="81.2969" y2="305.2266"/></g><g class="participant participant-head" data-participant="User"><text fill="#000000" font-family="sans-serif" font-size="14" lengthAdjust="spacing" textLength="31.9102" x="5" y="77.9951">User</text><ellipse cx="23.9551" cy="13.5" fill="#E2E2F0" rx="8" ry="8" style="stroke:#181818;stroke-width:0.5;"/><path d="M23.9551,21.5 L23.9551,48.5 M10.9551,29.5 L36.9551,29.5 M23.9551,48.5 L10.9551,63.5 M23.9551,48.5 L36.9551,63.5" fill="none" style="stroke:#181818;stroke-width:0.5;"/></g><g class="participant participant-tail" data-participant="User"><text fill="#000000" font-family="sans-serif" font-size="14" lengthAdjust="spacing" textLength="31.9102" x="5" y="317.2217">User</text><ellipse cx="23.9551" cy="329.0234" fill="#E2E2F0" rx="8" ry="8" style="stroke:#181818;stroke-width:0.5;"/><path d="M23.9551,337.0234 L23.9551,364.0234 M10.9551,345.0234 L36.9551,345.0234 M23.9551,364.0234 L10.9551,379.0234 M23.9551,364.0234 L36.9551,379.0234" fill="none" style="stroke:#181818;stroke-width:0.5;"/></g><g class="participant participant-head" data-participant="WebApp"><rect fill="#E2E2F0" height="30.2969" rx="2.5" ry="2.5" style="stroke:#181818;stroke-width:0.5;" width="77.1436" x="145.769" y="50"/><text fill="#000000" font-family="sans-serif" font-size="14" lengthAdjust="spacing" textLength="63.1436" x="152.769" y="69.9951">Web App</text></g><g class="participant participant-tail" data-participant="WebApp"><rect fill="#E2E2F0" height="30.2969" rx="2.5" ry="2.5" style="stroke:#181818;stroke-width:0.5;" width="77.1436" x="145.769" y="304.2266"/><text fill="#000000" font-family="sans-serif" font-size="14" lengthAdjust="spacing" textLength="63.1436" x="152.769" y="324.2217">Web App</text></g><g class="participant participant-head" data-participant="Scheduler"><rect fill="#E2E2F0" height="30.2969" rx="2.5" ry="2.5" style="stroke:#181818;stroke-width:0.5;" width="84.0889" x="350.499" y="50"/><text fill="#000000" font-family="sans-serif" font-size="14" lengthAdjust="spacing" textLength="70.0889" x="357.499" y="69.9951">Scheduler</text></g><g class="participant participant-tail" data-participant="Scheduler"><rect fill="#E2E2F0" height="30.2969" rx="2.5" ry="2.5" style="stroke:#181818;stroke-width:0.5;" width="84.0889" x="350.499" y="304.2266"/><text fill="#000000" font-family="sans-serif" font-size="14" lengthAdjust="spacing" textLength="70.0889" x="357.499" y="324.2217">Scheduler</text></g><g class="participant participant-head" data-participant="ReportService"><rect fill="#E2E2F0" height="30.2969" rx="2.5" ry="2.5" style="stroke:#181818;stroke-width:0.5;" width="117.2295" x="466.4546" y="50"/><text fill="#000000" font-family="sans-serif" font-size="14" lengthAdjust="spacing" textLength="103.2295" x="473.4546" y="69.9951">Report Service</text></g><g class="participant participant-tail" data-participant="ReportService"><rect fill="#E2E2F0" height="30.2969" rx="2.5" ry="2.5" style="stroke:#181818;stroke-width:0.5;" width="117.2295" x="466.4546" y="304.2266"/><text fill="#000000" font-family="sans-serif" font-size="14" lengthAdjust="spacing" textLength="103.2295" x="473.4546" y="324.2217">Report Service</text></g><g class="participant participant-head" data-participant="EmailService"><rect fill="#E2E2F0" height="30.2969" rx="2.5" ry="2.5" style="stroke:#181818;stroke-width:0.5;" width="109.0332" x="638.708" y="50"/><text fill="#000000" font-family="sans-serif" font-size="14" lengthAdjust="spacing" textLength="95.0332" x="645.708" y="69.9951">Email Service</text></g><g class="participant participant-tail" data-participant="EmailService"><rect fill="#E2E2F0" height="30.2969" rx="2.5" ry="2.5" style="stroke:#181818;stroke-width:0.5;" width="109.0332" x="638.708" y="304.2266"/><text fill="#000000" font-family="sans-serif" font-size="14" lengthAdjust="spacing" textLength="95.0332" x="645.708" y="324.2217">Email Service</text></g><g class="participant participant-head" data-participant="AuditLog"><rect fill="#E2E2F0" height="30.2969" rx="2.5" ry="2.5" style="stroke:#181818;stroke-width:0.5;" width="80.418" x="757.7412" y="50"/><text fill="#000000" font-family="sans-serif" font-size="14" lengthAdjust="spacing" textLength="66.418" x="764.7412" y="69.9951">Audit Log</text></g><g class="participant participant-tail" data-participant="AuditLog"><rect fill="#E2E2F0" height="30.2969" rx="2.5" ry="2.5" style="stroke:#181818;stroke-width:0.5;" width="80.418" x="757.7412" y="304.2266"/><text fill="#000000" font-family="sans-serif" font-size="14" lengthAdjust="spacing" textLength="66.418" x="764.7412" y="324.2217">Audit Log</text></g><g class="message" data-participant-1="User" data-participant-2="WebApp"><polygon fill="#181818" points="172.3408,108.4297,182.3408,112.4297,172.3408,116.4297,176.3408,112.4297" style="stroke:#181818;stroke-width:1;"/><line style="stroke:#181818;stroke-width:1;" x1="23.9551" x2="178.3408" y1="112.4297" y2="112.4297"/><text fill="#000000" font-family="sans-serif" font-size="13" lengthAdjust="spacing" textLength="101.2007" x="30.9551" y="107.3638">Request Report</text></g><g class="message" data-participant-1="WebApp" data-participant-2="Scheduler"><polygon fill="#181818" points="380.5435,137.5625,390.5435,141.5625,380.5435,145.5625,384.5435,141.5625" style="stroke:#181818;stroke-width:1;"/><line style="stroke:#181818;stroke-width:1;" x1="184.3408" x2="386.5435" y1="141.5625" y2="141.5625"/><text fill="#000000" font-family="sans-serif" font-size="13" lengthAdjust="spacing" textLength="184.2026" x="191.3408" y="136.4966">Schedule Report Generation</text></g><g class="message" data-participant-1="Scheduler" data-participant-2="ReportService"><polygon fill="#181818" points="513.0693,166.6953,523.0693,170.6953,513.0693,174.6953,517.0693,170.6953" style="stroke:#181818;stroke-width:1;"/><line style="stroke:#181818;stroke-width:1;" x1="392.5435" x2="519.0693" y1="170.6953" y2="170.6953"/><text fill="#000000" font-family="sans-serif" font-size="13" lengthAdjust="spacing" textLength="108.5259" x="399.5435" y="165.6294">Generate Report</text></g><g class="message" data-participant-1="ReportService" data-participant-2="EmailService"><polygon fill="#181818" points="681.2246,195.8281,691.2246,199.8281,681.2246,203.8281,685.2246,199.8281" style="stroke:#181818;stroke-width:1;"/><line style="stroke:#181818;stroke-width:1;" x1="525.0693" x2="687.2246" y1="199.8281" y2="199.8281"/><text fill="#000000" font-family="sans-serif" font-size="13" lengthAdjust="spacing" textLength="144.1553" x="532.0693" y="194.7622">Send Report via Email</text></g><g class="message" data-participant-1="EmailService" data-participant-2="WebApp"><polygon fill="#181818" points="195.3408,224.9609,185.3408,228.9609,195.3408,232.9609,191.3408,228.9609" style="stroke:#181818;stroke-width:1;"/><line style="stroke:#181818;stroke-width:1;" x1="189.3408" x2="692.2246" y1="228.9609" y2="228.9609"/><text fill="#000000" font-family="sans-serif" font-size="13" lengthAdjust="spacing" textLength="84.335" x="201.3408" y="223.895">Confirmation</text></g><g class="message" data-participant-1="WebApp" data-participant-2="AuditLog"><polygon fill="#181818" points="785.9502,254.0938,795.9502,258.0938,785.9502,262.0938,789.9502,258.0938" style="stroke:#181818;stroke-width:1;"/><line style="stroke:#181818;stroke-width:1;" x1="184.3408" x2="791.9502" y1="258.0938" y2="258.0938"/><text fill="#000000" font-family="sans-serif" font-size="13" lengthAdjust="spacing" textLength="111.9155" x="191.3408" y="253.0278">Log Confirmation</text></g><g class="message" data-participant-1="WebApp" data-participant-2="User"><polygon fill="#181818" points="34.9551,283.2266,24.9551,287.2266,34.9551,291.2266,30.9551,287.2266" style="stroke:#181818;stroke-width:1;"/><line style="stroke:#181818;stroke-width:1;stroke-dasharray:2,2;" x1="28.9551" x2="183.3408" y1="287.2266" y2="287.2266"/><text fill="#000000" font-family="sans-serif" font-size="13" lengthAdjust="spacing" textLength="136.3857" x="40.9551" y="282.1606">Display Confirmation</text></g><!--SRC=[RO_13i8W44JlVCMcz_v0OqmQDLuyQOndfAjkqW82RUBV2vHYIRpjpZwO6IwSCd2rQ9Zcnf4WpQM3wePtQBMkW5lmin_B-qMyi1jxD978MmcTKIlZu89c8e6HdAMabFHXuDGNS5J-iktOaOEJUaOkRdvXB1I1UfiYDzxkFQ9roPRDSW1ouYQF2O8ZIZJSaP8iK-594RrPiEKPAyw1NwVtBYYxnM4YFb_PcbddtYdv83FCANwfbw9Dg5v2iVcchlCNUxAwvv-I-W80]--></g></svg>