<svg xmlns="http://www.w3.org/2000/svg" xmlns:xlink="http://www.w3.org/1999/xlink" contentStyleType="text/css" data-diagram-type="SEQUENCE" height="415px" preserveAspectRatio="none" style="width:614px;height:415px;background:#FFFFFF;" version="1.1" viewBox="0 0 614 415" width="614px" zoomAndPan="magnify"><defs/><g><g><title>User</title><rect fill="#000000" fill-opacity="0.00000" height="253.0625" width="8" x="19.9551" y="81.2969"/><line style="stroke:#181818;stroke-width:0.5;stroke-dasharray:5,5;" x1="23" x2="23" y1="81.2969" y2="334.3594"/></g><g><title>Web App</title><rect fill="#000000" fill-opacity="0.00000" height="253.0625" width="8" x="252.7676" y="81.2969"/><line style="stroke:#181818;stroke-width:0.5;stroke-dasharray:5,5;" x1="256.1958" x2="256.1958" y1="81.2969" y2="334.3594"/></g><g><title>ML Service</title><rect fill="#000000" fill-opacity="0.00000" height="253.0625" width="8" x="438.3281" y="81.2969"/><line style="stroke:#181818;stroke-width:0.5;stroke-dasharray:5,5;" x1="442.293" x2="442.293" y1="81.2969" y2="334.3594"/></g><g><title>Report Export</title><rect fill="#000000" fill-opacity="0.00000" height="253.0625" width="8" x="549.0215" y="81.2969"/><line style="stroke:#181818;stroke-width:0.5;stroke-dasharray:5,5;" x1="552.3633" x2="552.3633" y1="81.2969" y2="334.3594"/></g><g class="participant participant-head" data-participant="User"><text fill="#000000" font-family="sans-serif" font-size="14" lengthAdjust="spacing" textLength="31.9102" x="5" y="77.9951">User</text><ellipse cx="23.9551" cy="13.5" fill="#E2E2F0" rx="8" ry="8" style="stroke:#181818;stroke-width:0.5;"/><path d="M23.9551,21.5 L23.9551,48.5 M10.9551,29.5 L36.9551,29.5 M23.9551,48.5 L10.9551,63.5 M23.9551,48.5 L36.9551,63.5" fill="none" style="stroke:#181818;stroke-width:0.5;"/></g><g class="participant participant-tail" data-participant="User"><text fill="#000000" font-family="sans-serif" font-size="14" lengthAdjust="spacing" textLength="31.9102" x="5" y="346.3545">User</text><ellipse cx="23.9551" cy="358.1563" fill="#E2E2F0" rx="8" ry="8" style="stroke:#181818;stroke-width:0.5;"/><path d="M23.9551,366.1563 L23.9551,393.1563 M10.9551,374.1563 L36.9551,374.1563 M23.9551,393.1563 L10.9551,408.1563 M23.9551,393.1563 L36.9551,408.1563" fill="none" style="stroke:#181818;stroke-width:0.5;"/></g><g class="participant participant-head" data-participant="WebApp"><rect fill="#E2E2F0" height="30.2969" rx="2.5" ry="2.5" style="stroke:#181818;stroke-width:0.5;" width="77.1436" x="218.1958" y="50"/><text fill="#000000" font-family="sans-serif" font-size="14" lengthAdjust="spacing" textLength="63.1436" x="225.1958" y="69.9951">Web App</text></g><g class="participant participant-tail" data-participant="WebApp"><rect fill="#E2E2F0" height="30.2969" rx="2.5" ry="2.5" style="stroke:#181818;stroke-width:0.5;" width="77.1436" x="218.1958" y="333.3594"/><text fill="#000000" font-family="sans-serif" font-size="14" lengthAdjust="spacing" textLength="63.1436" x="225.1958" y="353.3545">Web App</text></g><g class="participant participant-head" data-participant="MLService"><rect fill="#E2E2F0" height="30.2969" rx="2.5" ry="2.5" style="stroke:#181818;stroke-width:0.5;" width="90.0703" x="397.293" y="50"/><text fill="#000000" font-family="sans-serif" font-size="14" lengthAdjust="spacing" textLength="76.0703" x="404.293" y="69.9951">ML Service</text></g><g class="participant participant-tail" data-participant="MLService"><rect fill="#E2E2F0" height="30.2969" rx="2.5" ry="2.5" style="stroke:#181818;stroke-width:0.5;" width="90.0703" x="397.293" y="333.3594"/><text fill="#000000" font-family="sans-serif" font-size="14" lengthAdjust="spacing" textLength="76.0703" x="404.293" y="353.3545">ML Service</text></g><g class="participant participant-head" data-participant="ReportExport"><rect fill="#E2E2F0" height="30.2969" rx="2.5" ry="2.5" style="stroke:#181818;stroke-width:0.5;" width="111.3164" x="497.3633" y="50"/><text fill="#000000" font-family="sans-serif" font-size="14" lengthAdjust="spacing" textLength="97.3164" x="504.3633" y="69.9951">Report Export</text></g><g class="participant participant-tail" data-participant="ReportExport"><rect fill="#E2E2F0" height="30.2969" rx="2.5" ry="2.5" style="stroke:#181818;stroke-width:0.5;" width="111.3164" x="497.3633" y="333.3594"/><text fill="#000000" font-family="sans-serif" font-size="14" lengthAdjust="spacing" textLength="97.3164" x="504.3633" y="353.3545">Report Export</text></g><g class="message" data-participant-1="User" data-participant-2="WebApp"><polygon fill="#181818" points="244.7676,108.4297,254.7676,112.4297,244.7676,116.4297,248.7676,112.4297" style="stroke:#181818;stroke-width:1;"/><line style="stroke:#181818;stroke-width:1;" x1="23.9551" x2="250.7676" y1="112.4297" y2="112.4297"/><text fill="#000000" font-family="sans-serif" font-size="13" lengthAdjust="spacing" textLength="123.0303" x="30.9551" y="107.3638">Request prediction</text></g><g class="message" data-participant-1="WebApp" data-participant-2="MLService"><polygon fill="#181818" points="430.3281,137.5625,440.3281,141.5625,430.3281,145.5625,434.3281,141.5625" style="stroke:#181818;stroke-width:1;"/><line style="stroke:#181818;stroke-width:1;" x1="256.7676" x2="436.3281" y1="141.5625" y2="141.5625"/><text fill="#000000" font-family="sans-serif" font-size="13" lengthAdjust="spacing" textLength="157.8027" x="263.7676" y="136.4966">Send data for prediction</text></g><g class="message" data-participant-1="MLService" data-participant-2="WebApp"><polygon fill="#181818" points="267.7676,166.6953,257.7676,170.6953,267.7676,174.6953,263.7676,170.6953" style="stroke:#181818;stroke-width:1;"/><line style="stroke:#181818;stroke-width:1;" x1="261.7676" x2="441.3281" y1="170.6953" y2="170.6953"/><text fill="#000000" font-family="sans-serif" font-size="13" lengthAdjust="spacing" textLength="161.5605" x="273.7676" y="165.6294">Return prediction results</text></g><g class="message" data-participant-1="WebApp" data-participant-2="MLService"><polygon fill="#181818" points="430.3281,195.8281,440.3281,199.8281,430.3281,203.8281,434.3281,199.8281" style="stroke:#181818;stroke-width:1;"/><line style="stroke:#181818;stroke-width:1;" x1="256.7676" x2="436.3281" y1="199.8281" y2="199.8281"/><text fill="#000000" font-family="sans-serif" font-size="13" lengthAdjust="spacing" textLength="140.9243" x="263.7676" y="194.7622">Request explanations</text></g><g class="message" data-participant-1="MLService" data-participant-2="WebApp"><polygon fill="#181818" points="267.7676,224.9609,257.7676,228.9609,267.7676,232.9609,263.7676,228.9609" style="stroke:#181818;stroke-width:1;"/><line style="stroke:#181818;stroke-width:1;" x1="261.7676" x2="441.3281" y1="228.9609" y2="228.9609"/><text fill="#000000" font-family="sans-serif" font-size="13" lengthAdjust="spacing" textLength="131.4854" x="273.7676" y="223.895">Return explanations</text></g><g class="message" data-participant-1="WebApp" data-participant-2="ReportExport"><polygon fill="#181818" points="541.0215,254.0938,551.0215,258.0938,541.0215,262.0938,545.0215,258.0938" style="stroke:#181818;stroke-width:1;"/><line style="stroke:#181818;stroke-width:1;" x1="256.7676" x2="547.0215" y1="258.0938" y2="258.0938"/><text fill="#000000" font-family="sans-serif" font-size="13" lengthAdjust="spacing" textLength="206.6479" x="263.7676" y="253.0278">Export results and explanations</text></g><g class="message" data-participant-1="ReportExport" data-participant-2="WebApp"><polygon fill="#181818" points="267.7676,283.2266,257.7676,287.2266,267.7676,291.2266,263.7676,287.2266" style="stroke:#181818;stroke-width:1;"/><line style="stroke:#181818;stroke-width:1;" x1="261.7676" x2="552.0215" y1="287.2266" y2="287.2266"/><text fill="#000000" font-family="sans-serif" font-size="13" lengthAdjust="spacing" textLength="97.938" x="273.7676" y="282.1606">Confirm export</text></g><g class="message" data-participant-1="WebApp" data-participant-2="User"><polygon fill="#181818" points="34.9551,312.3594,24.9551,316.3594,34.9551,320.3594,30.9551,316.3594" style="stroke:#181818;stroke-width:1;"/><line style="stroke:#181818;stroke-width:1;" x1="28.9551" x2="255.7676" y1="316.3594" y2="316.3594"/><text fill="#000000" font-family="sans-serif" font-size="13" lengthAdjust="spacing" textLength="208.8125" x="40.9551" y="311.2935">Provide link to prediction record</text></g><!--SRC=[VP312i8m38RlVOhWtHVOGH3nva0KyHpR38gphMasV7nRDxK5yTGq-VB_IL2BPpX5OXMGnMeRq0aipdI1TGWBm0WfJc5TRtTm91wjfXVIxkPVJHqeU1ROFlBp0gVCb50g-y9oDJiqgNeVA0e49cErME_KLChGnwD9riw0GK7eqlG5_M5gLHdO5HWmnQ6N-5lyFGGzGeyESqFyAro1NyborMQ-mTiPC2rGzPLqwR7nhhDyot0-sLS-tww1FVlH6eBUkYk8hvVKderw0W00]--></g></svg>