<svg xmlns="http://www.w3.org/2000/svg" xmlns:xlink="http://www.w3.org/1999/xlink" contentStyleType="text/css" data-diagram-type="ACTIVITY" height="470px" preserveAspectRatio="none" style="width:492px;height:470px;background:#FFFFFF;" version="1.1" viewBox="0 0 492 470" width="492px" zoomAndPan="magnify"><defs/><g><ellipse cx="246.4941" cy="20" fill="#222222" rx="10" ry="10" style="stroke:#222222;stroke-width:1;"/><rect fill="#F1F1F1" height="33.9688" rx="12.5" ry="12.5" style="stroke:#181818;stroke-width:0.5;" width="144.7813" x="174.1035" y="50"/><text fill="#000000" font-family="sans-serif" font-size="12" lengthAdjust="spacing" textLength="124.7813" x="184.1035" y="71.1387">Incoming Call Queue</text><polygon fill="#F1F1F1" points="164.3164,103.9688,328.6719,103.9688,340.6719,115.9688,328.6719,127.9688,164.3164,127.9688,152.3164,115.9688,164.3164,103.9688" style="stroke:#181818;stroke-width:0.5;"/><text fill="#000000" font-family="sans-serif" font-size="11" lengthAdjust="spacing" textLength="164.3555" x="164.3164" y="119.7769">Concurrent Handling Decision</text><text fill="#000000" font-family="sans-serif" font-size="11" lengthAdjust="spacing" textLength="19.0083" x="133.3081" y="113.3745">yes</text><text fill="#000000" font-family="sans-serif" font-size="11" lengthAdjust="spacing" textLength="13.7017" x="340.6719" y="113.3745">no</text><rect fill="#F1F1F1" height="33.9688" rx="12.5" ry="12.5" style="stroke:#181818;stroke-width:0.5;" width="173.2988" x="37.0977" y="137.9688"/><text fill="#000000" font-family="sans-serif" font-size="12" lengthAdjust="spacing" textLength="153.2988" x="47.0977" y="159.1074">Assign to Available Agent</text><rect fill="#F1F1F1" height="33.9688" rx="12.5" ry="12.5" style="stroke:#181818;stroke-width:0.5;" width="100.25" x="73.6221" y="191.9375"/><text fill="#000000" font-family="sans-serif" font-size="12" lengthAdjust="spacing" textLength="80.25" x="83.6221" y="213.0762">Create Ticket</text><rect fill="#F1F1F1" height="33.9688" rx="12.5" ry="12.5" style="stroke:#181818;stroke-width:0.5;" width="179.7793" x="33.8574" y="245.9063"/><text fill="#000000" font-family="sans-serif" font-size="12" lengthAdjust="spacing" textLength="159.7793" x="43.8574" y="267.0449">Log Call and Ticket Details</text><rect fill="#F1F1F1" height="33.9688" rx="12.5" ry="12.5" style="stroke:#181818;stroke-width:0.5;" width="225.4941" x="11" y="299.875"/><text fill="#000000" font-family="sans-serif" font-size="12" lengthAdjust="spacing" textLength="205.4941" x="21" y="321.0137">Notify Customer Upon Completion</text><rect fill="#F1F1F1" height="33.9688" rx="12.5" ry="12.5" style="stroke:#181818;stroke-width:0.5;" width="165.7402" x="286.3711" y="137.9688"/><text fill="#000000" font-family="sans-serif" font-size="12" lengthAdjust="spacing" textLength="145.7402" x="296.3711" y="159.1074">Wait for Available Agent</text><rect fill="#F1F1F1" height="33.9688" rx="12.5" ry="12.5" style="stroke:#181818;stroke-width:0.5;" width="173.2988" x="282.5918" y="191.9375"/><text fill="#000000" font-family="sans-serif" font-size="12" lengthAdjust="spacing" textLength="153.2988" x="292.5918" y="213.0762">Assign to Available Agent</text><rect fill="#F1F1F1" height="33.9688" rx="12.5" ry="12.5" style="stroke:#181818;stroke-width:0.5;" width="100.25" x="319.1162" y="245.9063"/><text fill="#000000" font-family="sans-serif" font-size="12" lengthAdjust="spacing" textLength="80.25" x="329.1162" y="267.0449">Create Ticket</text><rect fill="#F1F1F1" height="33.9688" rx="12.5" ry="12.5" style="stroke:#181818;stroke-width:0.5;" width="179.7793" x="279.3516" y="299.875"/><text fill="#000000" font-family="sans-serif" font-size="12" lengthAdjust="spacing" textLength="159.7793" x="289.3516" y="321.0137">Log Call and Ticket Details</text><rect fill="#F1F1F1" height="33.9688" rx="12.5" ry="12.5" style="stroke:#181818;stroke-width:0.5;" width="225.4941" x="256.4941" y="353.8438"/><text fill="#000000" font-family="sans-serif" font-size="12" lengthAdjust="spacing" textLength="205.4941" x="266.4941" y="374.9824">Notify Customer Upon Completion</text><polygon fill="#F1F1F1" points="246.4941,393.8125,258.4941,405.8125,246.4941,417.8125,234.4941,405.8125,246.4941,393.8125" style="stroke:#181818;stroke-width:0.5;"/><ellipse cx="246.4941" cy="448.8125" fill="none" rx="11" ry="11" style="stroke:#222222;stroke-width:1;"/><ellipse cx="246.4941" cy="448.8125" fill="#222222" rx="6" ry="6" style="stroke:#222222;stroke-width:1;"/><line style="stroke:#181818;stroke-width:1;" x1="246.4941" x2="246.4941" y1="30" y2="50"/><polygon fill="#181818" points="242.4941,40,246.4941,50,250.4941,40,246.4941,44" style="stroke:#181818;stroke-width:1;"/><line style="stroke:#181818;stroke-width:1;" x1="123.7471" x2="123.7471" y1="171.9375" y2="191.9375"/><polygon fill="#181818" points="119.7471,181.9375,123.7471,191.9375,127.7471,181.9375,123.7471,185.9375" style="stroke:#181818;stroke-width:1;"/><line style="stroke:#181818;stroke-width:1;" x1="123.7471" x2="123.7471" y1="225.9063" y2="245.9063"/><polygon fill="#181818" points="119.7471,235.9063,123.7471,245.9063,127.7471,235.9063,123.7471,239.9063" style="stroke:#181818;stroke-width:1;"/><line style="stroke:#181818;stroke-width:1;" x1="123.7471" x2="123.7471" y1="279.875" y2="299.875"/><polygon fill="#181818" points="119.7471,289.875,123.7471,299.875,127.7471,289.875,123.7471,293.875" style="stroke:#181818;stroke-width:1;"/><line style="stroke:#181818;stroke-width:1;" x1="369.2412" x2="369.2412" y1="171.9375" y2="191.9375"/><polygon fill="#181818" points="365.2412,181.9375,369.2412,191.9375,373.2412,181.9375,369.2412,185.9375" style="stroke:#181818;stroke-width:1;"/><line style="stroke:#181818;stroke-width:1;" x1="369.2412" x2="369.2412" y1="225.9063" y2="245.9063"/><polygon fill="#181818" points="365.2412,235.9063,369.2412,245.9063,373.2412,235.9063,369.2412,239.9063" style="stroke:#181818;stroke-width:1;"/><line style="stroke:#181818;stroke-width:1;" x1="369.2412" x2="369.2412" y1="279.875" y2="299.875"/><polygon fill="#181818" points="365.2412,289.875,369.2412,299.875,373.2412,289.875,369.2412,293.875" style="stroke:#181818;stroke-width:1;"/><line style="stroke:#181818;stroke-width:1;" x1="369.2412" x2="369.2412" y1="333.8438" y2="353.8438"/><polygon fill="#181818" points="365.2412,343.8438,369.2412,353.8438,373.2412,343.8438,369.2412,347.8438" style="stroke:#181818;stroke-width:1;"/><line style="stroke:#181818;stroke-width:1;" x1="152.3164" x2="123.7471" y1="115.9688" y2="115.9688"/><line style="stroke:#181818;stroke-width:1;" x1="123.7471" x2="123.7471" y1="115.9688" y2="137.9688"/><polygon fill="#181818" points="119.7471,127.9688,123.7471,137.9688,127.7471,127.9688,123.7471,131.9688" style="stroke:#181818;stroke-width:1;"/><line style="stroke:#181818;stroke-width:1;" x1="340.6719" x2="369.2412" y1="115.9688" y2="115.9688"/><line style="stroke:#181818;stroke-width:1;" x1="369.2412" x2="369.2412" y1="115.9688" y2="137.9688"/><polygon fill="#181818" points="365.2412,127.9688,369.2412,137.9688,373.2412,127.9688,369.2412,131.9688" style="stroke:#181818;stroke-width:1;"/><line style="stroke:#181818;stroke-width:1;" x1="123.7471" x2="123.7471" y1="333.8438" y2="405.8125"/><line style="stroke:#181818;stroke-width:1;" x1="123.7471" x2="234.4941" y1="405.8125" y2="405.8125"/><polygon fill="#181818" points="224.4941,401.8125,234.4941,405.8125,224.4941,409.8125,228.4941,405.8125" style="stroke:#181818;stroke-width:1;"/><line style="stroke:#181818;stroke-width:1;" x1="369.2412" x2="369.2412" y1="387.8125" y2="405.8125"/><line style="stroke:#181818;stroke-width:1;" x1="369.2412" x2="258.4941" y1="405.8125" y2="405.8125"/><polygon fill="#181818" points="268.4941,401.8125,258.4941,405.8125,268.4941,409.8125,264.4941,405.8125" style="stroke:#181818;stroke-width:1;"/><line style="stroke:#181818;stroke-width:1;" x1="246.4941" x2="246.4941" y1="83.9688" y2="103.9688"/><polygon fill="#181818" points="242.4941,93.9688,246.4941,103.9688,250.4941,93.9688,246.4941,97.9688" style="stroke:#181818;stroke-width:1;"/><line style="stroke:#181818;stroke-width:1;" x1="246.4941" x2="246.4941" y1="417.8125" y2="437.8125"/><polygon fill="#181818" points="242.4941,427.8125,246.4941,437.8125,250.4941,427.8125,246.4941,431.8125" style="stroke:#181818;stroke-width:1;"/><!--SRC=[lOwn3i8m34JtVCMDvHVeL8K198I4168EnIqMgLqbBX9_JreOcLdl-UuvMqZcrZjfTM3fuKECE4uqKUsuG-LLsYab4iCso2tEDnjgERFA2dOdGVMYl7B0kicPUu4fccVW6AwHqFIbMi_K9mf6E77xe4-orw-l37_picsbcXT-KEFk1Jzbqu4IpgCAl0vZ92lwsb7CX4fqiLy26pfDF-N_VqrktBb2npS0]--></g></svg>