<svg xmlns="http://www.w3.org/2000/svg" xmlns:xlink="http://www.w3.org/1999/xlink" contentStyleType="text/css" data-diagram-type="ACTIVITY" height="706px" preserveAspectRatio="none" style="width:856px;height:706px;background:#FFFFFF;" version="1.1" viewBox="0 0 856 706" width="856px" zoomAndPan="magnify"><defs/><g><ellipse cx="412.7058" cy="20" fill="#222222" rx="10" ry="10" style="stroke:#222222;stroke-width:1;"/><rect fill="#F1F1F1" height="33.9688" rx="12.5" ry="12.5" style="stroke:#181818;stroke-width:0.5;" width="134.1113" x="345.6501" y="50"/><text fill="#000000" font-family="sans-serif" font-size="12" lengthAdjust="spacing" textLength="114.1113" x="355.6501" y="71.1387">Initialize Scheduler</text><rect fill="#F1F1F1" height="33.9688" rx="12.5" ry="12.5" style="stroke:#181818;stroke-width:0.5;" width="205.7363" x="309.8376" y="147.9688"/><text fill="#000000" font-family="sans-serif" font-size="12" lengthAdjust="spacing" textLength="185.7363" x="319.8376" y="169.1074">Load Saved Cursors and ETags</text><rect fill="#F1F1F1" height="33.9688" rx="12.5" ry="12.5" style="stroke:#181818;stroke-width:0.5;" width="119.832" x="352.7898" y="201.9375"/><text fill="#000000" font-family="sans-serif" font-size="12" lengthAdjust="spacing" textLength="99.832" x="362.7898" y="223.0762">Call Platform API</text><polygon fill="#F1F1F1" points="40.8599,255.9063,107.7515,255.9063,119.7515,267.9063,107.7515,279.9063,40.8599,279.9063,28.8599,267.9063,40.8599,255.9063" style="stroke:#181818;stroke-width:0.5;"/><text fill="#000000" font-family="sans-serif" font-size="11" lengthAdjust="spacing" textLength="123.7822" x="78.3057" y="290.1167">429 or Limit Exceeded</text><text fill="#000000" font-family="sans-serif" font-size="11" lengthAdjust="spacing" textLength="66.8916" x="40.8599" y="271.7144">HTTP Status</text><rect fill="#F1F1F1" height="33.9688" rx="12.5" ry="12.5" style="stroke:#181818;stroke-width:0.5;" width="126.6113" x="11" y="312.7109"/><text fill="#000000" font-family="sans-serif" font-size="12" lengthAdjust="spacing" textLength="106.6113" x="21" y="333.8496">Backoff with Jitter</text><rect fill="#F1F1F1" height="33.9688" rx="12.5" ry="12.5" style="stroke:#181818;stroke-width:0.5;" width="111.8105" x="18.4004" y="381.6797"/><text fill="#000000" font-family="sans-serif" font-size="12" lengthAdjust="spacing" textLength="91.8105" x="28.4004" y="402.8184">Reschedule Job</text><polygon fill="#F1F1F1" points="272.8857,255.9063,296.8857,255.9063,308.8857,267.9063,296.8857,279.9063,272.8857,279.9063,260.8857,267.9063,272.8857,255.9063" style="stroke:#181818;stroke-width:0.5;"/><text fill="#000000" font-family="sans-serif" font-size="11" lengthAdjust="spacing" textLength="82.5376" x="288.8857" y="290.1167">Transient Error</text><text fill="#000000" font-family="sans-serif" font-size="11" lengthAdjust="spacing" textLength="20.0181" x="274.8767" y="271.7144">5xx</text><rect fill="#F1F1F1" height="33.9688" rx="12.5" ry="12.5" style="stroke:#181818;stroke-width:0.5;" width="145.5957" x="212.0879" y="312.7109"/><text fill="#000000" font-family="sans-serif" font-size="12" lengthAdjust="spacing" textLength="125.5957" x="222.0879" y="333.8496">Send to Retry Queue</text><polygon fill="#F1F1F1" points="402.2717,255.9063,487.6667,255.9063,499.6667,267.9063,487.6667,279.9063,402.2717,279.9063,390.2717,267.9063,402.2717,255.9063" style="stroke:#181818;stroke-width:0.5;"/><text fill="#000000" font-family="sans-serif" font-size="11" lengthAdjust="spacing" textLength="91.1475" x="448.9692" y="290.1167">Permanent Error</text><text fill="#000000" font-family="sans-serif" font-size="11" lengthAdjust="spacing" textLength="85.395" x="402.2717" y="271.7144">4xx except 429</text><text fill="#000000" font-family="sans-serif" font-size="11" lengthAdjust="spacing" textLength="44.2793" x="499.6667" y="265.312">Success</text><rect fill="#F1F1F1" height="33.9688" rx="12.5" ry="12.5" style="stroke:#181818;stroke-width:0.5;" width="115.0918" x="387.4233" y="312.7109"/><text fill="#000000" font-family="sans-serif" font-size="12" lengthAdjust="spacing" textLength="95.0918" x="397.4233" y="333.8496">Log Diagnostics</text><rect fill="#F1F1F1" height="33.9688" rx="12.5" ry="12.5" style="stroke:#181818;stroke-width:0.5;" width="48.5645" x="420.687" y="381.6797"/><text fill="#000000" font-family="sans-serif" font-size="12" lengthAdjust="spacing" textLength="28.5645" x="430.687" y="402.8184">Alert</text><rect fill="#F1F1F1" height="33.9688" rx="12.5" ry="12.5" style="stroke:#181818;stroke-width:0.5;" width="106.748" x="391.5952" y="450.6484"/><text fill="#000000" font-family="sans-serif" font-size="12" lengthAdjust="spacing" textLength="86.748" x="401.5952" y="471.7871">Mark as Failed</text><rect fill="#F1F1F1" height="33.9688" rx="12.5" ry="12.5" style="stroke:#181818;stroke-width:0.5;" width="159.6289" x="606.2791" y="295.1074"/><text fill="#000000" font-family="sans-serif" font-size="12" lengthAdjust="spacing" textLength="139.6289" x="616.2791" y="316.2461">Stream to Raw Storage</text><rect fill="#F1F1F1" height="33.9688" rx="12.5" ry="12.5" style="stroke:#181818;stroke-width:0.5;" width="210.4766" x="580.8552" y="364.0762"/><text fill="#000000" font-family="sans-serif" font-size="12" lengthAdjust="spacing" textLength="190.4766" x="590.8552" y="385.2148">Transform KPI Names and Units</text><rect fill="#F1F1F1" height="33.9688" rx="12.5" ry="12.5" style="stroke:#181818;stroke-width:0.5;" width="264.2949" x="553.946" y="433.0449"/><text fill="#000000" font-family="sans-serif" font-size="12" lengthAdjust="spacing" textLength="244.2949" x="563.946" y="454.1836">Write Curated Aggregates to Warehouse</text><rect fill="#F1F1F1" height="33.9688" rx="12.5" ry="12.5" style="stroke:#181818;stroke-width:0.5;" width="176.9785" x="597.6042" y="502.0137"/><text fill="#000000" font-family="sans-serif" font-size="12" lengthAdjust="spacing" textLength="156.9785" x="607.6042" y="523.1523">Update Last Sync Markers</text><rect fill="#F1F1F1" height="33.9688" rx="12.5" ry="12.5" style="stroke:#181818;stroke-width:0.5;" width="188.1934" x="591.9968" y="555.9824"/><text fill="#000000" font-family="sans-serif" font-size="12" lengthAdjust="spacing" textLength="168.1934" x="601.9968" y="577.1211">Advance Cursors Atomically</text><polygon fill="#F1F1F1" points="412.7058,103.9688,424.7058,115.9688,412.7058,127.9688,400.7058,115.9688,412.7058,103.9688" style="stroke:#181818;stroke-width:0.5;"/><polygon fill="#F1F1F1" points="341.1038,629.9512,484.3079,629.9512,496.3079,641.9512,484.3079,653.9512,341.1038,653.9512,329.1038,641.9512,341.1038,629.9512" style="stroke:#181818;stroke-width:0.5;"/><text fill="#000000" font-family="sans-serif" font-size="11" lengthAdjust="spacing" textLength="143.2041" x="341.1038" y="645.7593">More Platforms/Accounts?</text><ellipse cx="412.7058" cy="684.9512" fill="none" rx="11" ry="11" style="stroke:#222222;stroke-width:1;"/><ellipse cx="412.7058" cy="684.9512" fill="#222222" rx="6" ry="6" style="stroke:#222222;stroke-width:1;"/><line style="stroke:#181818;stroke-width:1;" x1="412.7058" x2="412.7058" y1="30" y2="50"/><polygon fill="#181818" points="408.7058,40,412.7058,50,416.7058,40,412.7058,44" style="stroke:#181818;stroke-width:1;"/><line style="stroke:#181818;stroke-width:1;" x1="412.7058" x2="412.7058" y1="181.9375" y2="201.9375"/><polygon fill="#181818" points="408.7058,191.9375,412.7058,201.9375,416.7058,191.9375,412.7058,195.9375" style="stroke:#181818;stroke-width:1;"/><line style="stroke:#181818;stroke-width:1;" x1="74.3057" x2="74.3057" y1="346.6797" y2="381.6797"/><polygon fill="#181818" points="70.3057,371.6797,74.3057,381.6797,78.3057,371.6797,74.3057,375.6797" style="stroke:#181818;stroke-width:1;"/><line style="stroke:#181818;stroke-width:1;" x1="444.9692" x2="444.9692" y1="346.6797" y2="381.6797"/><polygon fill="#181818" points="440.9692,371.6797,444.9692,381.6797,448.9692,371.6797,444.9692,375.6797" style="stroke:#181818;stroke-width:1;"/><line style="stroke:#181818;stroke-width:1;" x1="444.9692" x2="444.9692" y1="415.6484" y2="450.6484"/><polygon fill="#181818" points="440.9692,440.6484,444.9692,450.6484,448.9692,440.6484,444.9692,444.6484" style="stroke:#181818;stroke-width:1;"/><line style="stroke:#181818;stroke-width:1;" x1="686.0935" x2="686.0935" y1="329.0762" y2="364.0762"/><polygon fill="#181818" points="682.0935,354.0762,686.0935,364.0762,690.0935,354.0762,686.0935,358.0762" style="stroke:#181818;stroke-width:1;"/><line style="stroke:#181818;stroke-width:1;" x1="686.0935" x2="686.0935" y1="398.0449" y2="433.0449"/><polygon fill="#181818" points="682.0935,423.0449,686.0935,433.0449,690.0935,423.0449,686.0935,427.0449" style="stroke:#181818;stroke-width:1;"/><line style="stroke:#181818;stroke-width:1;" x1="686.0935" x2="686.0935" y1="467.0137" y2="502.0137"/><polygon fill="#181818" points="682.0935,492.0137,686.0935,502.0137,690.0935,492.0137,686.0935,496.0137" style="stroke:#181818;stroke-width:1;"/><line style="stroke:#181818;stroke-width:1;" x1="686.0935" x2="686.0935" y1="535.9824" y2="555.9824"/><polygon fill="#181818" points="682.0935,545.9824,686.0935,555.9824,690.0935,545.9824,686.0935,549.9824" style="stroke:#181818;stroke-width:1;"/><line style="stroke:#181818;stroke-width:1;" x1="74.3057" x2="74.3057" y1="279.9063" y2="312.7109"/><polygon fill="#181818" points="70.3057,302.7109,74.3057,312.7109,78.3057,302.7109,74.3057,306.7109" style="stroke:#181818;stroke-width:1;"/><line style="stroke:#181818;stroke-width:1;" x1="74.3057" x2="74.3057" y1="415.6484" y2="609.9512"/><polygon fill="#181818" points="70.3057,599.9512,74.3057,609.9512,78.3057,599.9512,74.3057,603.9512" style="stroke:#181818;stroke-width:1;"/><line style="stroke:#181818;stroke-width:1;" x1="284.8857" x2="284.8857" y1="279.9063" y2="312.7109"/><polygon fill="#181818" points="280.8857,302.7109,284.8857,312.7109,288.8857,302.7109,284.8857,306.7109" style="stroke:#181818;stroke-width:1;"/><line style="stroke:#181818;stroke-width:1;" x1="284.8857" x2="284.8857" y1="346.6797" y2="609.9512"/><polygon fill="#181818" points="280.8857,599.9512,284.8857,609.9512,288.8857,599.9512,284.8857,603.9512" style="stroke:#181818;stroke-width:1;"/><line style="stroke:#181818;stroke-width:1;" x1="444.9692" x2="444.9692" y1="279.9063" y2="312.7109"/><polygon fill="#181818" points="440.9692,302.7109,444.9692,312.7109,448.9692,302.7109,444.9692,306.7109" style="stroke:#181818;stroke-width:1;"/><line style="stroke:#181818;stroke-width:1;" x1="444.9692" x2="444.9692" y1="484.6172" y2="609.9512"/><polygon fill="#181818" points="440.9692,599.9512,444.9692,609.9512,448.9692,599.9512,444.9692,603.9512" style="stroke:#181818;stroke-width:1;"/><line style="stroke:#181818;stroke-width:1;" x1="119.7515" x2="260.8857" y1="267.9063" y2="267.9063"/><polygon fill="#181818" points="250.8857,263.9063,260.8857,267.9063,250.8857,271.9063,254.8857,267.9063" style="stroke:#181818;stroke-width:1;"/><line style="stroke:#181818;stroke-width:1;" x1="308.8857" x2="390.2717" y1="267.9063" y2="267.9063"/><polygon fill="#181818" points="380.2717,263.9063,390.2717,267.9063,380.2717,271.9063,384.2717,267.9063" style="stroke:#181818;stroke-width:1;"/><line style="stroke:#181818;stroke-width:1;" x1="412.7058" x2="412.7058" y1="235.9063" y2="240.9063"/><line style="stroke:#181818;stroke-width:1;" x1="412.7058" x2="74.3057" y1="240.9063" y2="240.9063"/><line style="stroke:#181818;stroke-width:1;" x1="74.3057" x2="74.3057" y1="240.9063" y2="255.9063"/><polygon fill="#181818" points="70.3057,245.9063,74.3057,255.9063,78.3057,245.9063,74.3057,249.9063" style="stroke:#181818;stroke-width:1;"/><line style="stroke:#181818;stroke-width:1;" x1="499.6667" x2="686.0935" y1="267.9063" y2="267.9063"/><line style="stroke:#181818;stroke-width:1;" x1="686.0935" x2="686.0935" y1="267.9063" y2="295.1074"/><polygon fill="#181818" points="682.0935,285.1074,686.0935,295.1074,690.0935,285.1074,686.0935,289.1074" style="stroke:#181818;stroke-width:1;"/><line style="stroke:#181818;stroke-width:1;" x1="686.0935" x2="686.0935" y1="589.9512" y2="609.9512"/><polygon fill="#181818" points="682.0935,599.9512,686.0935,609.9512,690.0935,599.9512,686.0935,603.9512" style="stroke:#181818;stroke-width:1;"/><line style="stroke:#181818;stroke-width:1;" x1="74.3057" x2="686.0935" y1="609.9512" y2="609.9512"/><line style="stroke:#181818;stroke-width:1;" x1="412.7058" x2="412.7058" y1="127.9688" y2="147.9688"/><polygon fill="#181818" points="408.7058,137.9688,412.7058,147.9688,416.7058,137.9688,412.7058,141.9688" style="stroke:#181818;stroke-width:1;"/><line style="stroke:#181818;stroke-width:1;" x1="496.3079" x2="830.241" y1="641.9512" y2="641.9512"/><polygon fill="#181818" points="826.241,391.0605,830.241,381.0605,834.241,391.0605,830.241,387.0605" style="stroke:#181818;stroke-width:1;"/><line style="stroke:#181818;stroke-width:1;" x1="830.241" x2="830.241" y1="115.9688" y2="641.9512"/><line style="stroke:#181818;stroke-width:1;" x1="830.241" x2="424.7058" y1="115.9688" y2="115.9688"/><polygon fill="#181818" points="434.7058,111.9688,424.7058,115.9688,434.7058,119.9688,430.7058,115.9688" style="stroke:#181818;stroke-width:1;"/><line style="stroke:#181818;stroke-width:1;" x1="412.7058" x2="412.7058" y1="609.9512" y2="629.9512"/><polygon fill="#181818" points="408.7058,619.9512,412.7058,629.9512,416.7058,619.9512,412.7058,623.9512" style="stroke:#181818;stroke-width:1;"/><line style="stroke:#181818;stroke-width:1;" x1="412.7058" x2="412.7058" y1="83.9688" y2="103.9688"/><polygon fill="#181818" points="408.7058,93.9688,412.7058,103.9688,416.7058,93.9688,412.7058,97.9688" style="stroke:#181818;stroke-width:1;"/><line style="stroke:#181818;stroke-width:1;" x1="412.7058" x2="412.7058" y1="653.9512" y2="673.9512"/><polygon fill="#181818" points="408.7058,663.9512,412.7058,673.9512,416.7058,663.9512,412.7058,667.9512" style="stroke:#181818;stroke-width:1;"/><!--SRC=[NPB1JiCm38RlVGeVjnCIWWDmG6M060nKrg6TJUAs4MqosUxMyVIafPq4Dyk9Fd_n7r5aJPBhfNVgi7RV1BcfoBOryKt2j2FK1E1w5T12Zdkoi6XP0WkWj_2mmL9k-WiBh6l8QjGYS0Dfjkoxhe3PqsQJGQwehSn1A_8mkpY_Wi2mSerJUEWCaIKxZ_SZvmxDLoWAE3YjuDcfzXx3oPfaD8FdyDatgHOQPbnstSJUC7fnv2EOEV18pIdAQe0rAH_XlQMM_W0kkWueYkmKejp4oeWRzFzPgr32lSFI1r5dPBHBuy9qh5-Hlm057j7LP4-3Pdbh38bCJig4pM25XxYXm5ZII1XUCMpo9Ll26pRqk- -F6DCqSSjEgKy3DQQIbYLJ6KlfYLjaga8h4-zZP-CHh50KygCtq2iId-Jj7hsXKxIfXiQPcEXnaFVM5UDVW4CLtmIpry1qYblEKcD2wrLkvqaY6dO_]--></g></svg>