<svg xmlns="http://www.w3.org/2000/svg" xmlns:xlink="http://www.w3.org/1999/xlink" contentStyleType="text/css" data-diagram-type="SEQUENCE" height="356px" preserveAspectRatio="none" style="width:564px;height:356px;background:#FFFFFF;" version="1.1" viewBox="0 0 564 356" width="564px" zoomAndPan="magnify"><defs/><g><g><title>User</title><rect fill="#000000" fill-opacity="0.00000" height="194.7969" width="8" x="19.9551" y="81.2969"/><line style="stroke:#181818;stroke-width:0.5;stroke-dasharray:5,5;" x1="23" x2="23" y1="81.2969" y2="276.0938"/></g><g><title>Web App</title><rect fill="#000000" fill-opacity="0.00000" height="194.7969" width="8" x="226.3677" y="81.2969"/><line style="stroke:#181818;stroke-width:0.5;stroke-dasharray:5,5;" x1="229.7959" x2="229.7959" y1="81.2969" y2="276.0938"/></g><g><title>NLP Sentiment Model</title><rect fill="#000000" fill-opacity="0.00000" height="194.7969" width="8" x="372.9219" y="81.2969"/><line style="stroke:#181818;stroke-width:0.5;stroke-dasharray:5,5;" x1="376.9146" x2="376.9146" y1="81.2969" y2="276.0938"/></g><g><title>Data Store</title><rect fill="#000000" fill-opacity="0.00000" height="194.7969" width="8" x="509.5234" y="81.2969"/><line style="stroke:#181818;stroke-width:0.5;stroke-dasharray:5,5;" x1="512.9292" x2="512.9292" y1="81.2969" y2="276.0938"/></g><g class="participant participant-head" data-participant="User"><text fill="#000000" font-family="sans-serif" font-size="14" lengthAdjust="spacing" textLength="31.9102" x="5" y="77.9951">User</text><ellipse cx="23.9551" cy="13.5" fill="#E2E2F0" rx="8" ry="8" style="stroke:#181818;stroke-width:0.5;"/><path d="M23.9551,21.5 L23.9551,48.5 M10.9551,29.5 L36.9551,29.5 M23.9551,48.5 L10.9551,63.5 M23.9551,48.5 L36.9551,63.5" fill="none" style="stroke:#181818;stroke-width:0.5;"/></g><g class="participant participant-tail" data-participant="User"><text fill="#000000" font-family="sans-serif" font-size="14" lengthAdjust="spacing" textLength="31.9102" x="5" y="288.0889">User</text><ellipse cx="23.9551" cy="299.8906" fill="#E2E2F0" rx="8" ry="8" style="stroke:#181818;stroke-width:0.5;"/><path d="M23.9551,307.8906 L23.9551,334.8906 M10.9551,315.8906 L36.9551,315.8906 M23.9551,334.8906 L10.9551,349.8906 M23.9551,334.8906 L36.9551,349.8906" fill="none" style="stroke:#181818;stroke-width:0.5;"/></g><g class="participant participant-head" data-participant="WebApp"><rect fill="#E2E2F0" height="30.2969" rx="2.5" ry="2.5" style="stroke:#181818;stroke-width:0.5;" width="77.1436" x="191.7959" y="50"/><text fill="#000000" font-family="sans-serif" font-size="14" lengthAdjust="spacing" textLength="63.1436" x="198.7959" y="69.9951">Web App</text></g><g class="participant participant-tail" data-participant="WebApp"><rect fill="#E2E2F0" height="30.2969" rx="2.5" ry="2.5" style="stroke:#181818;stroke-width:0.5;" width="77.1436" x="191.7959" y="275.0938"/><text fill="#000000" font-family="sans-serif" font-size="14" lengthAdjust="spacing" textLength="63.1436" x="198.7959" y="295.0889">Web App</text></g><g class="participant participant-head" data-participant="NLPModel"><rect fill="#E2E2F0" height="30.2969" rx="2.5" ry="2.5" style="stroke:#181818;stroke-width:0.5;" width="164.0146" x="294.9146" y="50"/><text fill="#000000" font-family="sans-serif" font-size="14" lengthAdjust="spacing" textLength="150.0146" x="301.9146" y="69.9951">NLP Sentiment Model</text></g><g class="participant participant-tail" data-participant="NLPModel"><rect fill="#E2E2F0" height="30.2969" rx="2.5" ry="2.5" style="stroke:#181818;stroke-width:0.5;" width="164.0146" x="294.9146" y="275.0938"/><text fill="#000000" font-family="sans-serif" font-size="14" lengthAdjust="spacing" textLength="150.0146" x="301.9146" y="295.0889">NLP Sentiment Model</text></g><g class="participant participant-head" data-participant="DataStore"><rect fill="#E2E2F0" height="30.2969" rx="2.5" ry="2.5" style="stroke:#181818;stroke-width:0.5;" width="89.1885" x="468.9292" y="50"/><text fill="#000000" font-family="sans-serif" font-size="14" lengthAdjust="spacing" textLength="75.1885" x="475.9292" y="69.9951">Data Store</text></g><g class="participant participant-tail" data-participant="DataStore"><rect fill="#E2E2F0" height="30.2969" rx="2.5" ry="2.5" style="stroke:#181818;stroke-width:0.5;" width="89.1885" x="468.9292" y="275.0938"/><text fill="#000000" font-family="sans-serif" font-size="14" lengthAdjust="spacing" textLength="75.1885" x="475.9292" y="295.0889">Data Store</text></g><g class="message" data-participant-1="User" data-participant-2="WebApp"><polygon fill="#181818" points="218.3677,108.4297,228.3677,112.4297,218.3677,116.4297,222.3677,112.4297" style="stroke:#181818;stroke-width:1;"/><line style="stroke:#181818;stroke-width:1;" x1="23.9551" x2="224.3677" y1="112.4297" y2="112.4297"/><text fill="#000000" font-family="sans-serif" font-size="13" lengthAdjust="spacing" textLength="182.4126" x="30.9551" y="107.3638">Request Sentiment Analysis</text></g><g class="message" data-participant-1="WebApp" data-participant-2="NLPModel"><polygon fill="#181818" points="364.9219,137.5625,374.9219,141.5625,364.9219,145.5625,368.9219,141.5625" style="stroke:#181818;stroke-width:1;"/><line style="stroke:#181818;stroke-width:1;" x1="230.3677" x2="370.9219" y1="141.5625" y2="141.5625"/><text fill="#000000" font-family="sans-serif" font-size="13" lengthAdjust="spacing" textLength="122.5542" x="237.3677" y="136.4966">Analyze Sentiment</text></g><g class="message" data-participant-1="NLPModel" data-participant-2="WebApp"><polygon fill="#181818" points="241.3677,166.6953,231.3677,170.6953,241.3677,174.6953,237.3677,170.6953" style="stroke:#181818;stroke-width:1;"/><line style="stroke:#181818;stroke-width:1;" x1="235.3677" x2="375.9219" y1="170.6953" y2="170.6953"/><text fill="#000000" font-family="sans-serif" font-size="13" lengthAdjust="spacing" textLength="118.8535" x="247.3677" y="165.6294">Sentiment Results</text></g><g class="message" data-participant-1="WebApp" data-participant-2="DataStore"><polygon fill="#181818" points="501.5234,195.8281,511.5234,199.8281,501.5234,203.8281,505.5234,199.8281" style="stroke:#181818;stroke-width:1;"/><line style="stroke:#181818;stroke-width:1;" x1="230.3677" x2="507.5234" y1="199.8281" y2="199.8281"/><text fill="#000000" font-family="sans-serif" font-size="13" lengthAdjust="spacing" textLength="86.3027" x="237.3677" y="194.7622">Store Results</text></g><g class="message" data-participant-1="DataStore" data-participant-2="WebApp"><polygon fill="#181818" points="241.3677,224.9609,231.3677,228.9609,241.3677,232.9609,237.3677,228.9609" style="stroke:#181818;stroke-width:1;"/><line style="stroke:#181818;stroke-width:1;" x1="235.3677" x2="512.5234" y1="228.9609" y2="228.9609"/><text fill="#000000" font-family="sans-serif" font-size="13" lengthAdjust="spacing" textLength="141.502" x="247.3677" y="223.895">Acknowledge Storage</text></g><g class="message" data-participant-1="WebApp" data-participant-2="User"><polygon fill="#181818" points="34.9551,254.0938,24.9551,258.0938,34.9551,262.0938,30.9551,258.0938" style="stroke:#181818;stroke-width:1;"/><line style="stroke:#181818;stroke-width:1;" x1="28.9551" x2="229.3677" y1="258.0938" y2="258.0938"/><text fill="#000000" font-family="sans-serif" font-size="13" lengthAdjust="spacing" textLength="161.1353" x="40.9551" y="253.0278">Render Results in Charts</text></g><!--SRC=[LP0z3i8m38NtdC9Yvm8Ta2eO0Q5MYDcqLea8QQXT8JWzIVgNBf7jz-azErX9sy6LgLCEEz6LTcW5DZUwG-xS1f31rxvSw-VZ1Kgoeb_-WLDRaucidyTcJHzG44gVH14ARUoK2icmtOqP6HJqxeabySujcYzhLWCIu2aa6yGVBRYQjDHqCIk8UoEfrxnBDYmu8xEGEkNLqxOVGtL34SU64gzmJ3Z1rlweqGUqXVt3VmR_0G00]--></g></svg>