<svg xmlns="http://www.w3.org/2000/svg" xmlns:xlink="http://www.w3.org/1999/xlink" contentStyleType="text/css" data-diagram-type="SEQUENCE" height="399px" preserveAspectRatio="none" style="width:534px;height:399px;background:#FFFFFF;" version="1.1" viewBox="0 0 534 399" width="534px" zoomAndPan="magnify"><defs/><g><g><title>User</title><rect fill="#000000" fill-opacity="0.00000" height="236.9297" width="8" x="19.9551" y="81.2969"/><line style="stroke:#181818;stroke-width:0.5;stroke-dasharray:5,5;" x1="23" x2="23" y1="81.2969" y2="318.2266"/></g><g><title>Web App</title><rect fill="#000000" fill-opacity="0.00000" height="236.9297" width="8" x="167.7852" y="81.2969"/><line style="stroke:#181818;stroke-width:0.5;stroke-dasharray:5,5;" x1="171.2134" x2="171.2134" y1="81.2969" y2="318.2266"/></g><g><title>Index Engine</title><rect fill="#000000" fill-opacity="0.00000" height="236.9297" width="8" x="341.1201" y="81.2969"/><line style="stroke:#181818;stroke-width:0.5;stroke-dasharray:5,5;" x1="344.5107" x2="344.5107" y1="81.2969" y2="318.2266"/></g><g><title>Metrics Store</title><rect fill="#000000" fill-opacity="0.00000" height="236.9297" width="8" x="471.2148" y="81.2969"/><line style="stroke:#181818;stroke-width:0.5;stroke-dasharray:5,5;" x1="474.9253" x2="474.9253" y1="81.2969" y2="318.2266"/></g><g class="participant participant-head" data-participant="User"><text fill="#000000" font-family="sans-serif" font-size="14" lengthAdjust="spacing" textLength="31.9102" x="5" y="77.9951">User</text><ellipse cx="23.9551" cy="13.5" fill="#E2E2F0" rx="8" ry="8" style="stroke:#181818;stroke-width:0.5;"/><path d="M23.9551,21.5 L23.9551,48.5 M10.9551,29.5 L36.9551,29.5 M23.9551,48.5 L10.9551,63.5 M23.9551,48.5 L36.9551,63.5" fill="none" style="stroke:#181818;stroke-width:0.5;"/></g><g class="participant participant-tail" data-participant="User"><text fill="#000000" font-family="sans-serif" font-size="14" lengthAdjust="spacing" textLength="31.9102" x="5" y="330.2217">User</text><ellipse cx="23.9551" cy="342.0234" fill="#E2E2F0" rx="8" ry="8" style="stroke:#181818;stroke-width:0.5;"/><path d="M23.9551,350.0234 L23.9551,377.0234 M10.9551,358.0234 L36.9551,358.0234 M23.9551,377.0234 L10.9551,392.0234 M23.9551,377.0234 L36.9551,392.0234" fill="none" style="stroke:#181818;stroke-width:0.5;"/></g><g class="participant participant-head" data-participant="WebApp"><rect fill="#E2E2F0" height="30.2969" rx="2.5" ry="2.5" style="stroke:#181818;stroke-width:0.5;" width="77.1436" x="133.2134" y="50"/><text fill="#000000" font-family="sans-serif" font-size="14" lengthAdjust="spacing" textLength="63.1436" x="140.2134" y="69.9951">Web App</text></g><g class="participant participant-tail" data-participant="WebApp"><rect fill="#E2E2F0" height="30.2969" rx="2.5" ry="2.5" style="stroke:#181818;stroke-width:0.5;" width="77.1436" x="133.2134" y="317.2266"/><text fill="#000000" font-family="sans-serif" font-size="14" lengthAdjust="spacing" textLength="63.1436" x="140.2134" y="337.2217">Web App</text></g><g class="participant participant-head" data-participant="IndexEngine"><rect fill="#E2E2F0" height="30.2969" rx="2.5" ry="2.5" style="stroke:#181818;stroke-width:0.5;" width="105.2188" x="292.5107" y="50"/><text fill="#000000" font-family="sans-serif" font-size="14" lengthAdjust="spacing" textLength="91.2188" x="299.5107" y="69.9951">Index Engine</text></g><g class="participant participant-tail" data-participant="IndexEngine"><rect fill="#E2E2F0" height="30.2969" rx="2.5" ry="2.5" style="stroke:#181818;stroke-width:0.5;" width="105.2188" x="292.5107" y="317.2266"/><text fill="#000000" font-family="sans-serif" font-size="14" lengthAdjust="spacing" textLength="91.2188" x="299.5107" y="337.2217">Index Engine</text></g><g class="participant participant-head" data-participant="MetricsStore"><rect fill="#E2E2F0" height="30.2969" rx="2.5" ry="2.5" style="stroke:#181818;stroke-width:0.5;" width="106.5791" x="421.9253" y="50"/><text fill="#000000" font-family="sans-serif" font-size="14" lengthAdjust="spacing" textLength="92.5791" x="428.9253" y="69.9951">Metrics Store</text></g><g class="participant participant-tail" data-participant="MetricsStore"><rect fill="#E2E2F0" height="30.2969" rx="2.5" ry="2.5" style="stroke:#181818;stroke-width:0.5;" width="106.5791" x="421.9253" y="317.2266"/><text fill="#000000" font-family="sans-serif" font-size="14" lengthAdjust="spacing" textLength="92.5791" x="428.9253" y="337.2217">Metrics Store</text></g><g class="message" data-participant-1="User" data-participant-2="WebApp"><polygon fill="#181818" points="159.7852,108.4297,169.7852,112.4297,159.7852,116.4297,163.7852,112.4297" style="stroke:#181818;stroke-width:1;"/><line style="stroke:#181818;stroke-width:1;" x1="23.9551" x2="165.7852" y1="112.4297" y2="112.4297"/><text fill="#000000" font-family="sans-serif" font-size="13" lengthAdjust="spacing" textLength="88.5625" x="30.9551" y="107.3638">Request Data</text></g><g class="message" data-participant-1="WebApp" data-participant-2="IndexEngine"><polygon fill="#181818" points="333.1201,137.5625,343.1201,141.5625,333.1201,145.5625,337.1201,141.5625" style="stroke:#181818;stroke-width:1;"/><line style="stroke:#181818;stroke-width:1;" x1="171.7852" x2="339.1201" y1="141.5625" y2="141.5625"/><text fill="#000000" font-family="sans-serif" font-size="13" lengthAdjust="spacing" textLength="71.1318" x="178.7852" y="136.4966">Fetch Data</text></g><g class="message" data-participant-1="IndexEngine" data-participant-2="MetricsStore"><polygon fill="#181818" points="463.2148,166.6953,473.2148,170.6953,463.2148,174.6953,467.2148,170.6953" style="stroke:#181818;stroke-width:1;"/><line style="stroke:#181818;stroke-width:1;" x1="345.1201" x2="469.2148" y1="170.6953" y2="170.6953"/><text fill="#000000" font-family="sans-serif" font-size="13" lengthAdjust="spacing" textLength="106.0947" x="352.1201" y="165.6294">Retrieve Metrics</text></g><g class="message" data-participant-1="MetricsStore" data-participant-2="IndexEngine"><polygon fill="#181818" points="356.1201,195.8281,346.1201,199.8281,356.1201,203.8281,352.1201,199.8281" style="stroke:#181818;stroke-width:1;"/><line style="stroke:#181818;stroke-width:1;stroke-dasharray:2,2;" x1="350.1201" x2="474.2148" y1="199.8281" y2="199.8281"/><text fill="#000000" font-family="sans-serif" font-size="13" lengthAdjust="spacing" textLength="95.272" x="362.1201" y="194.7622">Return Metrics</text></g><g class="message" data-participant-1="IndexEngine" data-participant-2="IndexEngine"><line style="stroke:#181818;stroke-width:1;" x1="345.1201" x2="387.1201" y1="228.9609" y2="228.9609"/><line style="stroke:#181818;stroke-width:1;" x1="387.1201" x2="387.1201" y1="228.9609" y2="241.9609"/><line style="stroke:#181818;stroke-width:1;" x1="346.1201" x2="387.1201" y1="241.9609" y2="241.9609"/><polygon fill="#181818" points="356.1201,237.9609,346.1201,241.9609,356.1201,245.9609,352.1201,241.9609" style="stroke:#181818;stroke-width:1;"/><text fill="#000000" font-family="sans-serif" font-size="13" lengthAdjust="spacing" textLength="93.6597" x="352.1201" y="223.895">Apply Weights</text></g><g class="message" data-participant-1="IndexEngine" data-participant-2="WebApp"><polygon fill="#181818" points="182.7852,267.0938,172.7852,271.0938,182.7852,275.0938,178.7852,271.0938" style="stroke:#181818;stroke-width:1;"/><line style="stroke:#181818;stroke-width:1;stroke-dasharray:2,2;" x1="176.7852" x2="344.1201" y1="271.0938" y2="271.0938"/><text fill="#000000" font-family="sans-serif" font-size="13" lengthAdjust="spacing" textLength="149.335" x="188.7852" y="266.0278">Return Processed Data</text></g><g class="message" data-participant-1="WebApp" data-participant-2="User"><polygon fill="#181818" points="34.9551,296.2266,24.9551,300.2266,34.9551,304.2266,30.9551,300.2266" style="stroke:#181818;stroke-width:1;"/><line style="stroke:#181818;stroke-width:1;" x1="28.9551" x2="170.7852" y1="300.2266" y2="300.2266"/><text fill="#000000" font-family="sans-serif" font-size="13" lengthAdjust="spacing" textLength="123.8301" x="40.9551" y="295.1606">Render Breakdown</text></g><!--SRC=[NO_F2i8m3CRlVOgm-rvW1q5HmOCWYdYkNTYAqjMqyy_RcwvJsjwIBxzyNoAL7mZE3abOILuhRQNnK5tm2ajhAv0EkEOod-zCYs_Oc4uRdA19Y7rExj6JLWvE71JHMPa48K8sr8ivfO4ZFaPq7jRIIn75C4xy6zYYLtqa4ZrWgNVmuWwV-9D5EeQwj6Ly9FE72-iCvQlk7xvPTxqloEoNoV10WqBdi2sV2hy7YjS9LeJorWulymK0]--></g></svg>