<svg xmlns="http://www.w3.org/2000/svg" xmlns:xlink="http://www.w3.org/1999/xlink" contentStyleType="text/css" data-diagram-type="DESCRIPTION" height="539px" preserveAspectRatio="none" style="width:875px;height:539px;background:#FFFFFF;" version="1.1" viewBox="0 0 875 539" width="875px" zoomAndPan="magnify"><defs/><g><!--cluster System Performance Monitoring--><g class="cluster" data-entity="System Performance Monitoring" data-source-line="3" data-uid="ent0003" id="cluster_System Performance Monitoring"><rect fill="none" height="97.3" rx="2.5" ry="2.5" style="stroke:#181818;stroke-width:1;" width="381" x="406" y="166.3"/><text fill="#000000" font-family="sans-serif" font-size="14" font-weight="bold" lengthAdjust="spacing" textLength="255.4521" x="468.7739" y="181.2951">System Performance Monitoring</text></g><!--cluster Data Storage--><g class="cluster" data-entity="Data Storage" data-source-line="8" data-uid="ent0006" id="cluster_Data Storage"><rect fill="none" height="220.59" rx="2.5" ry="2.5" style="stroke:#181818;stroke-width:1;" width="188" x="297" y="312.6"/><text fill="#000000" font-family="sans-serif" font-size="14" font-weight="bold" lengthAdjust="spacing" textLength="104.3438" x="338.8281" y="327.5951">Data Storage</text></g><!--cluster External Integration Systems--><g class="cluster" data-entity="External Integration Systems" data-source-line="13" data-uid="ent0009" id="cluster_External Integration Systems"><rect fill="none" height="256.6" rx="2.5" ry="2.5" style="stroke:#181818;stroke-width:1;" width="247" x="7" y="7"/><text fill="#000000" font-family="sans-serif" font-size="14" font-weight="bold" lengthAdjust="spacing" textLength="231.1094" x="14.9453" y="21.9951">External Integration Systems</text></g><!--entity PM--><g class="entity" data-entity="PM" data-source-line="4" data-uid="ent0004" id="entity_PM"><rect fill="#F1F1F1" height="46.2969" rx="2.5" ry="2.5" style="stroke:#181818;stroke-width:0.5;" width="184.7305" x="421.63" y="201.3"/><rect fill="#F1F1F1" height="10" style="stroke:#181818;stroke-width:0.5;" width="15" x="586.3605" y="206.3"/><rect fill="#F1F1F1" height="2" style="stroke:#181818;stroke-width:0.5;" width="4" x="584.3605" y="208.3"/><rect fill="#F1F1F1" height="2" style="stroke:#181818;stroke-width:0.5;" width="4" x="584.3605" y="212.3"/><text fill="#000000" font-family="sans-serif" font-size="14" lengthAdjust="spacing" textLength="144.7305" x="436.63" y="234.2951">Performance Metrics</text></g><!--entity AS--><g class="entity" data-entity="AS" data-source-line="5" data-uid="ent0005" id="entity_AS"><rect fill="#F1F1F1" height="46.2969" rx="2.5" ry="2.5" style="stroke:#181818;stroke-width:0.5;" width="129.9814" x="641.01" y="201.3"/><rect fill="#F1F1F1" height="10" style="stroke:#181818;stroke-width:0.5;" width="15" x="750.9914" y="206.3"/><rect fill="#F1F1F1" height="2" style="stroke:#181818;stroke-width:0.5;" width="4" x="748.9914" y="208.3"/><rect fill="#F1F1F1" height="2" style="stroke:#181818;stroke-width:0.5;" width="4" x="748.9914" y="212.3"/><text fill="#000000" font-family="sans-serif" font-size="14" lengthAdjust="spacing" textLength="89.9814" x="656.01" y="234.2951">Alert System</text></g><!--entity DB--><g class="entity" data-entity="DB" data-source-line="9" data-uid="ent0007" id="entity_DB"><rect fill="#F1F1F1" height="46.2969" rx="2.5" ry="2.5" style="stroke:#181818;stroke-width:0.5;" width="106.8008" x="318.6" y="347.6"/><rect fill="#F1F1F1" height="10" style="stroke:#181818;stroke-width:0.5;" width="15" x="405.4008" y="352.6"/><rect fill="#F1F1F1" height="2" style="stroke:#181818;stroke-width:0.5;" width="4" x="403.4008" y="354.6"/><rect fill="#F1F1F1" height="2" style="stroke:#181818;stroke-width:0.5;" width="4" x="403.4008" y="358.6"/><text fill="#000000" font-family="sans-serif" font-size="14" lengthAdjust="spacing" textLength="66.8008" x="333.6" y="380.5951">Database</text></g><!--entity DW--><g class="entity" data-entity="DW" data-source-line="10" data-uid="ent0008" id="entity_DW"><rect fill="#F1F1F1" height="46.2969" rx="2.5" ry="2.5" style="stroke:#181818;stroke-width:0.5;" width="156.8877" x="312.56" y="470.89"/><rect fill="#F1F1F1" height="10" style="stroke:#181818;stroke-width:0.5;" width="15" x="449.4477" y="475.89"/><rect fill="#F1F1F1" height="2" style="stroke:#181818;stroke-width:0.5;" width="4" x="447.4477" y="477.89"/><rect fill="#F1F1F1" height="2" style="stroke:#181818;stroke-width:0.5;" width="4" x="447.4477" y="481.89"/><text fill="#000000" font-family="sans-serif" font-size="14" lengthAdjust="spacing" textLength="116.8877" x="327.56" y="503.8851">Data Warehouse</text></g><!--entity API--><g class="entity" data-entity="API" data-source-line="14" data-uid="ent0010" id="entity_API"><rect fill="#F1F1F1" height="46.2969" rx="2.5" ry="2.5" style="stroke:#181818;stroke-width:0.5;" width="128.4434" x="70.78" y="42"/><rect fill="#F1F1F1" height="10" style="stroke:#181818;stroke-width:0.5;" width="15" x="179.2234" y="47"/><rect fill="#F1F1F1" height="2" style="stroke:#181818;stroke-width:0.5;" width="4" x="177.2234" y="49"/><rect fill="#F1F1F1" height="2" style="stroke:#181818;stroke-width:0.5;" width="4" x="177.2234" y="53"/><text fill="#000000" font-family="sans-serif" font-size="14" lengthAdjust="spacing" textLength="88.4434" x="85.78" y="74.9951">API Gateway</text></g><!--entity DSP--><g class="entity" data-entity="DSP" data-source-line="15" data-uid="ent0011" id="entity_DSP"><rect fill="#F1F1F1" height="46.2969" rx="2.5" ry="2.5" style="stroke:#181818;stroke-width:0.5;" width="201.2734" x="34.36" y="201.3"/><rect fill="#F1F1F1" height="10" style="stroke:#181818;stroke-width:0.5;" width="15" x="215.6334" y="206.3"/><rect fill="#F1F1F1" height="2" style="stroke:#181818;stroke-width:0.5;" width="4" x="213.6334" y="208.3"/><rect fill="#F1F1F1" height="2" style="stroke:#181818;stroke-width:0.5;" width="4" x="213.6334" y="212.3"/><text fill="#000000" font-family="sans-serif" font-size="14" lengthAdjust="spacing" textLength="161.2734" x="49.36" y="234.2951">Data Stream Processor</text></g><!--entity TA--><g class="entity" data-entity="TA" data-source-line="1" data-uid="ent0002" id="entity_TA"><ellipse cx="581.0008" cy="35.5" fill="#F1F1F1" rx="8" ry="8" style="stroke:#181818;stroke-width:0.5;"/><path d="M581.0008,43.5 L581.0008,70.5 M568.0008,51.5 L594.0008,51.5 M581.0008,70.5 L568.0008,85.5 M581.0008,70.5 L594.0008,85.5" fill="none" style="stroke:#181818;stroke-width:0.5;"/><text fill="#000000" font-family="sans-serif" font-size="14" lengthAdjust="spacing" textLength="123.1016" x="519.45" y="99.9951">Technical Analyst</text></g><!--link TA to PM--><g class="link" data-entity-1="TA" data-entity-2="PM" data-source-line="18" data-uid="lnk12" id="link_TA_PM"><path d="M519.25,71.37 C478.05,78.43 426.7,94.92 400,133.3 C380.55,161.26 407.8452,182.3229 443.1652,198.3329" fill="none" id="TA-to-PM" style="stroke:#181818;stroke-width:1;"/><polygon fill="#181818" points="448.63,200.81,442.0842,193.4511,444.076,198.7457,438.7814,200.7375,448.63,200.81" style="stroke:#181818;stroke-width:1;"/><text fill="#000000" font-family="sans-serif" font-size="13" lengthAdjust="spacing" textLength="136.6206" x="401" y="146.3669">Monitor Performance</text></g><!--link TA to AS--><g class="link" data-entity-1="TA" data-entity-2="AS" data-source-line="19" data-uid="lnk13" id="link_TA_AS"><path d="M569.28,103.75 C566.71,119.78 567.37,137.66 578,150.3 C591.36,166.18 605.07,149.8 624,158.3 C646.73,168.5 664.2321,182.3371 679.6721,196.8071" fill="none" id="TA-to-AS" style="stroke:#181818;stroke-width:1;"/><polygon fill="#181818" points="684.05,200.91,680.2184,191.837,680.4017,197.4909,674.7478,197.6743,684.05,200.91" style="stroke:#181818;stroke-width:1;"/><text fill="#000000" font-family="sans-serif" font-size="13" lengthAdjust="spacing" textLength="93.3296" x="579" y="146.3669">Receive Alerts</text></g><!--link AS to TA--><g class="link" data-entity-1="AS" data-entity-2="TA" data-source-line="24" data-uid="lnk17" id="link_AS_TA"><path d="M702.88,200.86 C699.28,181.42 691.84,153.41 677,133.3 C667.82,120.86 660.4611,113.4481 647.8611,104.1681" fill="none" id="AS-to-TA" style="stroke:#181818;stroke-width:1;"/><polygon fill="#181818" points="643.03,100.61,647.9046,109.168,647.0559,103.5751,652.6488,102.7265,643.03,100.61" style="stroke:#181818;stroke-width:1;"/><text fill="#000000" font-family="sans-serif" font-size="13" lengthAdjust="spacing" textLength="83.1797" x="687.31" y="146.3669">Notify Issues</text></g><!--link TA to DB--><g class="link" data-entity-1="TA" data-entity-2="DB" data-source-line="20" data-uid="lnk14" id="link_TA_DB"><path d="M519.19,68.68 C457.98,74.92 367.44,95.05 325,158.3 C284.98,217.95 327.6393,301.215 353.5093,342.235" fill="none" id="TA-to-DB" style="stroke:#181818;stroke-width:1;"/><polygon fill="#181818" points="356.71,347.31,355.2924,337.5637,354.0428,343.0808,348.5257,341.8312,356.71,347.31" style="stroke:#181818;stroke-width:1;"/><text fill="#000000" font-family="sans-serif" font-size="13" lengthAdjust="spacing" textLength="79.9043" x="326" y="229.0169">Access Data</text></g><!--link TA to DW--><g class="link" data-entity-1="TA" data-entity-2="DW" data-source-line="21" data-uid="lnk15" id="link_TA_DW"><path d="M642.79,72.45 C686.3,80.02 743,96.67 779,133.3 C811.3,166.17 814.15,225.31 787,271.6 C718.65,388.12 569.9329,446.2649 475.3829,473.0449" fill="none" id="TA-to-DW" style="stroke:#181818;stroke-width:1;"/><polygon fill="#181818" points="469.61,474.68,479.3594,476.076,474.4208,473.3174,477.1793,468.3787,469.61,474.68" style="stroke:#181818;stroke-width:1;"/><text fill="#000000" font-family="sans-serif" font-size="13" lengthAdjust="spacing" textLength="86.3979" x="780.64" y="292.6669">Analyze Data</text></g><!--link PM to DB--><g class="link" data-entity-1="PM" data-entity-2="DB" data-source-line="23" data-uid="lnk16" id="link_PM_DB"><path d="M491.81,247.99 C465.14,275.1 424.8485,316.0435 398.2385,343.0835" fill="none" id="PM-to-DB" style="stroke:#181818;stroke-width:1;"/><polygon fill="#181818" points="394.03,347.36,403.1938,343.7509,397.5371,343.7962,397.4917,338.1396,394.03,347.36" style="stroke:#181818;stroke-width:1;"/><text fill="#000000" font-family="sans-serif" font-size="13" lengthAdjust="spacing" textLength="85.9663" x="460.89" y="292.6669">Store Metrics</text></g><!--link DB to DW--><g class="link" data-entity-1="DB" data-entity-2="DW" data-source-line="25" data-uid="lnk18" id="link_DB_DW"><path d="M375.53,394.28 C378.94,416.06 383.1502,442.9625 386.5602,464.7025" fill="none" id="DB-to-DW" style="stroke:#181818;stroke-width:1;"/><polygon fill="#181818" points="387.49,470.63,390.0471,461.1189,386.7152,465.6904,382.1437,462.3585,387.49,470.63" style="stroke:#181818;stroke-width:1;"/><text fill="#000000" font-family="sans-serif" font-size="13" lengthAdjust="spacing" textLength="89.356" x="383.64" y="436.9569">Transfer Data</text></g><!--link API to DSP--><g class="link" data-entity-1="API" data-entity-2="DSP" data-source-line="26" data-uid="lnk19" id="link_API_DSP"><path d="M135,88.69 C135,118.59 135,165.07 135,194.95" fill="none" id="API-to-DSP" style="stroke:#181818;stroke-width:1;"/><polygon fill="#181818" points="135,200.95,139,191.95,135,195.95,131,191.95,135,200.95" style="stroke:#181818;stroke-width:1;"/><text fill="#000000" font-family="sans-serif" font-size="13" lengthAdjust="spacing" textLength="94.999" x="136" y="146.3669">Integrate Data</text></g><!--link DSP to DB--><g class="link" data-entity-1="DSP" data-entity-2="DB" data-source-line="27" data-uid="lnk20" id="link_DSP_DB"><path d="M143.58,248.08 C150.5,263.62 161.62,283.69 177,296.6 C217.71,330.76 270.1325,348.4232 312.3525,358.4532" fill="none" id="DSP-to-DB" style="stroke:#181818;stroke-width:1;"/><polygon fill="#181818" points="318.19,359.84,310.3582,353.8681,313.3254,358.6843,308.5092,361.6515,318.19,359.84" style="stroke:#181818;stroke-width:1;"/><text fill="#000000" font-family="sans-serif" font-size="13" lengthAdjust="spacing" textLength="101.2515" x="178" y="292.6669">Processed Data</text></g><!--SRC=[RP51JyCm38Nl-HLMx_i3Eo1bAa8z35MaqiucU5saBa6E1mp4VyTfruenhlwUtujVq4jYg3hoXnWy3c0Z3kSi5M26pXh3v0LZFn1KJkTqX9Pud_Y8qHDiKmng469VmPS1yEducY95WUfAHiB1vz6qtLxhx40iC7cF0klCzrLkZOBWD0Pxkeafy1apZQlrvXR23faEwJHBTd_Sxp-4M8-69WhrZ19Il3mdtwJPje4757h7y_JMjladqGaJQb6SFEMSU0fsRKdkBAnMTze2hEVsVZSwS-kKFv6dy4OmLfHdL6yKML-ieSGjyrsPb-_xf0aOJLasIe7BJnZrBqHNr_2O9EpFqEHyecnKlBXrZ37lYIUxSlo8NAjihkkILOPBrkLoUfdO3m00]--></g></svg>