<svg xmlns="http://www.w3.org/2000/svg" xmlns:xlink="http://www.w3.org/1999/xlink" contentStyleType="text/css" data-diagram-type="ACTIVITY" height="481px" preserveAspectRatio="none" style="width:261px;height:481px;background:#FFFFFF;" version="1.1" viewBox="0 0 261 481" width="261px" zoomAndPan="magnify"><defs/><g><ellipse cx="118.2422" cy="20" fill="#222222" rx="10" ry="10" style="stroke:#222222;stroke-width:1;"/><rect fill="#F1F1F1" height="33.9688" rx="12.5" ry="12.5" style="stroke:#181818;stroke-width:0.5;" width="116.5215" x="59.9814" y="50"/><text fill="#000000" font-family="sans-serif" font-size="12" lengthAdjust="spacing" textLength="96.5215" x="69.9814" y="71.1387">List User Orders</text><rect fill="#F1F1F1" height="33.9688" rx="12.5" ry="12.5" style="stroke:#181818;stroke-width:0.5;" width="214.4844" x="11" y="152.3711"/><text fill="#000000" font-family="sans-serif" font-size="12" lengthAdjust="spacing" textLength="194.4844" x="21" y="173.5098">Show Order Status and Tracking</text><rect fill="#F1F1F1" height="33.9688" rx="12.5" ry="12.5" style="stroke:#181818;stroke-width:0.5;" width="120.3125" x="58.0859" y="254.7422"/><text fill="#000000" font-family="sans-serif" font-size="12" lengthAdjust="spacing" textLength="100.3125" x="68.0859" y="275.8809">Contact Delivery</text><polygon fill="#F1F1F1" points="41.9727,206.3398,194.5117,206.3398,206.5117,218.3398,194.5117,230.3398,41.9727,230.3398,29.9727,218.3398,41.9727,206.3398" style="stroke:#181818;stroke-width:0.5;"/><text fill="#000000" font-family="sans-serif" font-size="11" lengthAdjust="spacing" textLength="19.0083" x="122.2422" y="240.5503">yes</text><text fill="#000000" font-family="sans-serif" font-size="11" lengthAdjust="spacing" textLength="152.5391" x="41.9727" y="222.1479">Option to Contact Delivery?</text><polygon fill="#F1F1F1" points="118.2422,308.7109,130.2422,320.7109,118.2422,332.7109,106.2422,320.7109,118.2422,308.7109" style="stroke:#181818;stroke-width:0.5;"/><polygon fill="#F1F1F1" points="50.7544,103.9688,185.73,103.9688,197.73,115.9688,185.73,127.9688,50.7544,127.9688,38.7544,115.9688,50.7544,103.9688" style="stroke:#181818;stroke-width:0.5;"/><text fill="#000000" font-family="sans-serif" font-size="11" lengthAdjust="spacing" textLength="19.0083" x="122.2422" y="138.1792">yes</text><text fill="#000000" font-family="sans-serif" font-size="11" lengthAdjust="spacing" textLength="134.9756" x="50.7544" y="119.7769">Select Order for Details?</text><text fill="#000000" font-family="sans-serif" font-size="11" lengthAdjust="spacing" textLength="13.7017" x="197.73" y="113.3745">no</text><polygon fill="#F1F1F1" points="118.2422,352.7109,130.2422,364.7109,118.2422,376.7109,106.2422,364.7109,118.2422,352.7109" style="stroke:#181818;stroke-width:0.5;"/><rect fill="#F1F1F1" height="33.9688" rx="12.5" ry="12.5" style="stroke:#181818;stroke-width:0.5;" width="151.8828" x="42.3008" y="396.7109"/><text fill="#000000" font-family="sans-serif" font-size="12" lengthAdjust="spacing" textLength="131.8828" x="52.3008" y="417.8496">Option to Rate Orders</text><ellipse cx="118.2422" cy="460.6797" fill="none" rx="10" ry="10" style="stroke:#222222;stroke-width:1.5;"/><line style="stroke:#222222;stroke-width:2.5;" x1="112.055" x2="124.4294" y1="454.4925" y2="466.8669"/><line style="stroke:#222222;stroke-width:2.5;" x1="124.4294" x2="112.055" y1="454.4925" y2="466.8669"/><line style="stroke:#181818;stroke-width:1;" x1="118.2422" x2="118.2422" y1="30" y2="50"/><polygon fill="#181818" points="114.2422,40,118.2422,50,122.2422,40,118.2422,44" style="stroke:#181818;stroke-width:1;"/><line style="stroke:#181818;stroke-width:1;" x1="118.2422" x2="118.2422" y1="230.3398" y2="254.7422"/><polygon fill="#181818" points="114.2422,244.7422,118.2422,254.7422,122.2422,244.7422,118.2422,248.7422" style="stroke:#181818;stroke-width:1;"/><line style="stroke:#181818;stroke-width:1;" x1="206.5117" x2="218.5117" y1="218.3398" y2="218.3398"/><polygon fill="#181818" points="214.5117,261.7266,218.5117,271.7266,222.5117,261.7266,218.5117,265.7266" style="stroke:#181818;stroke-width:1;"/><line style="stroke:#181818;stroke-width:1;" x1="218.5117" x2="218.5117" y1="218.3398" y2="320.7109"/><line style="stroke:#181818;stroke-width:1;" x1="218.5117" x2="130.2422" y1="320.7109" y2="320.7109"/><polygon fill="#181818" points="140.2422,316.7109,130.2422,320.7109,140.2422,324.7109,136.2422,320.7109" style="stroke:#181818;stroke-width:1;"/><line style="stroke:#181818;stroke-width:1;" x1="118.2422" x2="118.2422" y1="288.7109" y2="308.7109"/><polygon fill="#181818" points="114.2422,298.7109,118.2422,308.7109,122.2422,298.7109,118.2422,302.7109" style="stroke:#181818;stroke-width:1;"/><line style="stroke:#181818;stroke-width:1;" x1="118.2422" x2="118.2422" y1="186.3398" y2="206.3398"/><polygon fill="#181818" points="114.2422,196.3398,118.2422,206.3398,122.2422,196.3398,118.2422,200.3398" style="stroke:#181818;stroke-width:1;"/><line style="stroke:#181818;stroke-width:1;" x1="118.2422" x2="118.2422" y1="127.9688" y2="152.3711"/><polygon fill="#181818" points="114.2422,142.3711,118.2422,152.3711,122.2422,142.3711,118.2422,146.3711" style="stroke:#181818;stroke-width:1;"/><line style="stroke:#181818;stroke-width:1;" x1="197.73" x2="235.4844" y1="115.9688" y2="115.9688"/><polygon fill="#181818" points="231.4844,227.2422,235.4844,237.2422,239.4844,227.2422,235.4844,231.2422" style="stroke:#181818;stroke-width:1;"/><line style="stroke:#181818;stroke-width:1;" x1="235.4844" x2="235.4844" y1="115.9688" y2="364.7109"/><line style="stroke:#181818;stroke-width:1;" x1="235.4844" x2="130.2422" y1="364.7109" y2="364.7109"/><polygon fill="#181818" points="140.2422,360.7109,130.2422,364.7109,140.2422,368.7109,136.2422,364.7109" style="stroke:#181818;stroke-width:1;"/><line style="stroke:#181818;stroke-width:1;" x1="118.2422" x2="118.2422" y1="332.7109" y2="352.7109"/><polygon fill="#181818" points="114.2422,342.7109,118.2422,352.7109,122.2422,342.7109,118.2422,346.7109" style="stroke:#181818;stroke-width:1;"/><line style="stroke:#181818;stroke-width:1;" x1="118.2422" x2="118.2422" y1="83.9688" y2="103.9688"/><polygon fill="#181818" points="114.2422,93.9688,118.2422,103.9688,122.2422,93.9688,118.2422,97.9688" style="stroke:#181818;stroke-width:1;"/><line style="stroke:#181818;stroke-width:1;" x1="118.2422" x2="118.2422" y1="376.7109" y2="396.7109"/><polygon fill="#181818" points="114.2422,386.7109,118.2422,396.7109,122.2422,386.7109,118.2422,390.7109" style="stroke:#181818;stroke-width:1;"/><line style="stroke:#181818;stroke-width:1;" x1="118.2422" x2="118.2422" y1="430.6797" y2="450.6797"/><polygon fill="#181818" points="114.2422,440.6797,118.2422,450.6797,122.2422,440.6797,118.2422,444.6797" style="stroke:#181818;stroke-width:1;"/><!--SRC=[NSz12i90343HVKwHPUSAxSA5NGe5gmS8RMg3GqOcKUdjdL9Hw3B9vq7CAJj0VH9pl1fdxFB8sHgG2QkU8m- -hN1A6LjsacY7W3wpOhMm1K2i-pczlrdlv4z3qX4lcOQxwAqfoSfr3vUaw0cFIPsAt7AK5-Tb3nPodwm8woWJS3J6IbE0RORw3v_9-VT2ENy0]--></g></svg>