<svg xmlns="http://www.w3.org/2000/svg" xmlns:xlink="http://www.w3.org/1999/xlink" contentStyleType="text/css" data-diagram-type="DESCRIPTION" height="565px" preserveAspectRatio="none" style="width:1696px;height:565px;background:#FFFFFF;" version="1.1" viewBox="0 0 1696 565" width="1696px" zoomAndPan="magnify"><defs/><g><!--entity SystemAdmin--><g class="entity" data-entity="SystemAdmin" data-source-line="1" data-uid="ent0002" id="entity_SystemAdmin"><ellipse cx="312.0136" cy="14" fill="#F1F1F1" rx="8" ry="8" style="stroke:#181818;stroke-width:0.5;"/><path d="M312.0136,22 L312.0136,49 M299.0136,30 L325.0136,30 M312.0136,49 L299.0136,64 M312.0136,49 L325.0136,64" fill="none" style="stroke:#181818;stroke-width:0.5;"/><text fill="#000000" font-family="sans-serif" font-size="14" lengthAdjust="spacing" textLength="101.7871" x="261.12" y="78.4951">System/Admin</text></g><!--entity RestaurantOperator--><g class="entity" data-entity="RestaurantOperator" data-source-line="2" data-uid="ent0003" id="entity_RestaurantOperator"><ellipse cx="840.0143" cy="14" fill="#F1F1F1" rx="8" ry="8" style="stroke:#181818;stroke-width:0.5;"/><path d="M840.0143,22 L840.0143,49 M827.0143,30 L853.0143,30 M840.0143,49 L827.0143,64 M840.0143,49 L853.0143,64" fill="none" style="stroke:#181818;stroke-width:0.5;"/><text fill="#000000" font-family="sans-serif" font-size="14" lengthAdjust="spacing" textLength="144.3887" x="767.82" y="78.4951">Restaurant Operator</text></g><!--entity RegisteredCustomer--><g class="entity" data-entity="RegisteredCustomer" data-source-line="3" data-uid="ent0004" id="entity_RegisteredCustomer"><ellipse cx="1489.0118" cy="14" fill="#F1F1F1" rx="8" ry="8" style="stroke:#181818;stroke-width:0.5;"/><path d="M1489.0118,22 L1489.0118,49 M1476.0118,30 L1502.0118,30 M1489.0118,49 L1476.0118,64 M1489.0118,49 L1502.0118,64" fill="none" style="stroke:#181818;stroke-width:0.5;"/><text fill="#000000" font-family="sans-serif" font-size="14" lengthAdjust="spacing" textLength="148.2236" x="1414.9" y="78.4951">Registered Customer</text></g><!--entity UC1--><g class="entity" data-entity="UC1" data-source-line="5" data-uid="ent0005" id="entity_UC1"><ellipse cx="98.0143" cy="188.4229" fill="#F1F1F1" rx="92.0143" ry="20.8029" style="stroke:#181818;stroke-width:0.5;"/><text fill="#000000" font-family="sans-serif" font-size="14" lengthAdjust="spacing" textLength="158.2861" x="18.8713" y="193.0713">Create Promo Banners</text></g><!--entity UC2--><g class="entity" data-entity="UC2" data-source-line="6" data-uid="ent0006" id="entity_UC2"><ellipse cx="312.0075" cy="188.4235" fill="#F1F1F1" rx="87.1175" ry="19.8235" style="stroke:#181818;stroke-width:0.5;"/><text fill="#000000" font-family="sans-serif" font-size="14" lengthAdjust="spacing" textLength="147.1846" x="238.4152" y="193.0719">Schedule Campaigns</text></g><!--entity UC3--><g class="entity" data-entity="UC3" data-source-line="7" data-uid="ent0007" id="entity_UC3"><ellipse cx="543.0075" cy="188.4235" fill="#F1F1F1" rx="108.9675" ry="24.1935" style="stroke:#181818;stroke-width:0.5;"/><text fill="#000000" font-family="sans-serif" font-size="14" lengthAdjust="spacing" textLength="195.6445" x="445.1853" y="193.0719">Define Global Coupon Rules</text></g><!--entity UC4--><g class="entity" data-entity="UC4" data-source-line="8" data-uid="ent0008" id="entity_UC4"><ellipse cx="1121.0114" cy="188.4203" fill="#F1F1F1" rx="127.4014" ry="27.8803" style="stroke:#181818;stroke-width:0.5;"/><text fill="#000000" font-family="sans-serif" font-size="14" lengthAdjust="spacing" textLength="235.0811" x="1003.4708" y="193.0687">Create Restaurant-Specific Offers</text></g><!--entity UC5--><g class="entity" data-entity="UC5" data-source-line="9" data-uid="ent0009" id="entity_UC5"><ellipse cx="823.0071" cy="188.4154" fill="#F1F1F1" rx="136.0771" ry="29.6154" style="stroke:#181818;stroke-width:0.5;"/><text fill="#000000" font-family="sans-serif" font-size="14" lengthAdjust="spacing" textLength="253.374" x="696.3201" y="193.0639">Create Restaurant-Specific Coupons</text></g><!--entity UC6--><g class="entity" data-entity="UC6" data-source-line="10" data-uid="ent0010" id="entity_UC6"><ellipse cx="1378.015" cy="188.419" fill="#F1F1F1" rx="94.295" ry="21.259" style="stroke:#181818;stroke-width:0.5;"/><text fill="#000000" font-family="sans-serif" font-size="14" lengthAdjust="spacing" textLength="163.3994" x="1296.3152" y="193.0674">View Targeted Banners</text></g><!--entity UC7--><g class="entity" data-entity="UC7" data-source-line="11" data-uid="ent0011" id="entity_UC7"><ellipse cx="1593.009" cy="188.4218" fill="#F1F1F1" rx="85.359" ry="19.4718" style="stroke:#181818;stroke-width:0.5;"/><text fill="#000000" font-family="sans-serif" font-size="14" lengthAdjust="spacing" textLength="143.1514" x="1521.4333" y="193.0702">Enter Coupon Codes</text></g><!--entity UC8--><g class="entity" data-entity="UC8" data-source-line="12" data-uid="ent0012" id="entity_UC8"><ellipse cx="1593.0124" cy="312.1745" fill="#F1F1F1" rx="73.6724" ry="17.1345" style="stroke:#181818;stroke-width:0.5;"/><text fill="#000000" font-family="sans-serif" font-size="14" lengthAdjust="spacing" textLength="115.4932" x="1535.2659" y="316.8229">Validate Coupon</text></g><!--entity UC9--><g class="entity" data-entity="UC9" data-source-line="13" data-uid="ent0013" id="entity_UC9"><ellipse cx="1593.0073" cy="422.6255" fill="#F1F1F1" rx="69.6273" ry="16.3255" style="stroke:#181818;stroke-width:0.5;"/><text fill="#000000" font-family="sans-serif" font-size="14" lengthAdjust="spacing" textLength="105.4375" x="1540.2885" y="427.2739">Apply Discount</text></g><!--entity UC10--><g class="entity" data-entity="UC10" data-source-line="14" data-uid="ent0014" id="entity_UC10"><ellipse cx="1593.0079" cy="537.7696" fill="#F1F1F1" rx="97.0979" ry="21.8196" style="stroke:#181818;stroke-width:0.5;"/><text fill="#000000" font-family="sans-serif" font-size="14" lengthAdjust="spacing" textLength="169.6406" x="1508.1876" y="542.418">Process Online Payment</text></g><!--entity UC11--><g class="entity" data-entity="UC11" data-source-line="15" data-uid="ent0015" id="entity_UC11"><ellipse cx="1159.0117" cy="43.6463" fill="#F1F1F1" rx="155.5317" ry="33.5063" style="stroke:#181818;stroke-width:0.5;"/><text fill="#000000" font-family="sans-serif" font-size="14" lengthAdjust="spacing" textLength="293.9795" x="1012.0219" y="48.2948">Generate Personalized Recommendations</text></g><!--link SystemAdmin to UC1--><g class="link" data-entity-1="SystemAdmin" data-entity-2="UC1" data-source-line="17" data-uid="lnk16" id="link_SystemAdmin_UC1"><path d="M260.76,78.85 C218.84,106.81 166.0714,142.0105 131.8314,164.8505" fill="none" id="SystemAdmin-to-UC1" style="stroke:#181818;stroke-width:1;"/><polygon fill="#181818" points="126.84,168.18,136.5468,166.5133,130.9995,165.4054,132.1074,159.8581,126.84,168.18" style="stroke:#181818;stroke-width:1;"/></g><!--link SystemAdmin to UC2--><g class="link" data-entity-1="SystemAdmin" data-entity-2="UC2" data-source-line="18" data-uid="lnk17" id="link_SystemAdmin_UC2"><path d="M312.01,82.16 C312.01,109.75 312.01,140.14 312.01,162.1" fill="none" id="SystemAdmin-to-UC2" style="stroke:#181818;stroke-width:1;"/><polygon fill="#181818" points="312.01,168.1,316.01,159.1,312.01,163.1,308.01,159.1,312.01,168.1" style="stroke:#181818;stroke-width:1;"/></g><!--link SystemAdmin to UC3--><g class="link" data-entity-1="SystemAdmin" data-entity-2="UC3" data-source-line="19" data-uid="lnk18" id="link_SystemAdmin_UC3"><path d="M363.28,76.34 C406.88,103.28 463.2762,138.1354 501.8462,161.9754" fill="none" id="SystemAdmin-to-UC3" style="stroke:#181818;stroke-width:1;"/><polygon fill="#181818" points="506.95,165.13,501.3974,156.9956,502.6969,162.5012,497.1913,163.8006,506.95,165.13" style="stroke:#181818;stroke-width:1;"/></g><!--link RestaurantOperator to UC4--><g class="link" data-entity-1="RestaurantOperator" data-entity-2="UC4" data-source-line="21" data-uid="lnk19" id="link_RestaurantOperator_UC4"><path d="M912.38,81.42 C962.46,106.86 1022.4408,137.3323 1066.5508,159.7423" fill="none" id="RestaurantOperator-to-UC4" style="stroke:#181818;stroke-width:1;"/><polygon fill="#181818" points="1071.9,162.46,1065.6879,154.8173,1067.4423,160.1953,1062.0644,161.9497,1071.9,162.46" style="stroke:#181818;stroke-width:1;"/></g><!--link RestaurantOperator to UC5--><g class="link" data-entity-1="RestaurantOperator" data-entity-2="UC5" data-source-line="22" data-uid="lnk20" id="link_RestaurantOperator_UC5"><path d="M835.55,82.16 C832.69,106.12 829.7589,130.742 827.1389,152.762" fill="none" id="RestaurantOperator-to-UC5" style="stroke:#181818;stroke-width:1;"/><polygon fill="#181818" points="826.43,158.72,831.4653,150.2556,827.0207,153.755,823.5214,149.3104,826.43,158.72" style="stroke:#181818;stroke-width:1;"/></g><!--link RegisteredCustomer to UC6--><g class="link" data-entity-1="RegisteredCustomer" data-entity-2="UC6" data-source-line="24" data-uid="lnk21" id="link_RegisteredCustomer_UC6"><path d="M1459.85,82.16 C1438.65,109.42 1414.462,140.5326 1397.332,162.5726" fill="none" id="RegisteredCustomer-to-UC6" style="stroke:#181818;stroke-width:1;"/><polygon fill="#181818" points="1393.65,167.31,1402.3313,162.6586,1396.7183,163.3622,1396.0148,157.7492,1393.65,167.31" style="stroke:#181818;stroke-width:1;"/></g><!--link RegisteredCustomer to UC7--><g class="link" data-entity-1="RegisteredCustomer" data-entity-2="UC7" data-source-line="25" data-uid="lnk22" id="link_RegisteredCustomer_UC7"><path d="M1516.34,82.16 C1536.68,110.08 1560.0474,142.1602 1575.9774,164.0302" fill="none" id="RegisteredCustomer-to-UC7" style="stroke:#181818;stroke-width:1;"/><polygon fill="#181818" points="1579.51,168.88,1577.4443,159.2502,1576.5662,164.8385,1570.9779,163.9603,1579.51,168.88" style="stroke:#181818;stroke-width:1;"/></g><!--link UC7 to UC8--><g class="link" data-entity-1="UC7" data-entity-2="UC8" data-source-line="27" data-uid="lnk23" id="link_UC7_UC8"><path d="M1593.01,208.17 C1593.01,231.78 1593.01,265.98 1593.01,288.54" fill="none" id="UC7-to-UC8" style="stroke:#181818;stroke-width:1;"/><polygon fill="#181818" points="1593.01,294.54,1597.01,285.54,1593.01,289.54,1589.01,285.54,1593.01,294.54" style="stroke:#181818;stroke-width:1;"/><text fill="#000000" font-family="sans-serif" font-size="13" lengthAdjust="spacing" textLength="63.0068" x="1594.01" y="261.0969">&#171;include&#187;</text></g><!--link UC8 to UC9--><g class="link" data-entity-1="UC8" data-entity-2="UC9" data-source-line="28" data-uid="lnk24" id="link_UC8_UC9"><path d="M1593.01,329.64 C1593.01,350.38 1593.01,379.75 1593.01,400.06" fill="none" id="UC8-to-UC9" style="stroke:#181818;stroke-width:1;"/><polygon fill="#181818" points="1593.01,406.06,1597.01,397.06,1593.01,401.06,1589.01,397.06,1593.01,406.06" style="stroke:#181818;stroke-width:1;"/><text fill="#000000" font-family="sans-serif" font-size="13" lengthAdjust="spacing" textLength="63.0068" x="1594.01" y="372.3669">&#171;include&#187;</text></g><!--link UC9 to UC10--><g class="link" data-entity-1="UC9" data-entity-2="UC10" data-source-line="29" data-uid="lnk25" id="link_UC9_UC10"><path d="M1593.01,439.36 C1593.01,459.27 1593.01,487.65 1593.01,509.79" fill="none" id="UC9-to-UC10" style="stroke:#181818;stroke-width:1;"/><polygon fill="#181818" points="1593.01,515.79,1597.01,506.79,1593.01,510.79,1589.01,506.79,1593.01,515.79" style="stroke:#181818;stroke-width:1;"/><text fill="#000000" font-family="sans-serif" font-size="13" lengthAdjust="spacing" textLength="63.0068" x="1594.01" y="482.0169">&#171;include&#187;</text></g><!--link UC11 to UC6--><g class="link" data-entity-1="UC11" data-entity-2="UC6" data-source-line="31" data-uid="lnk26" id="link_UC11_UC6"><path d="M1207.07,75.98 C1250.01,103.97 1306.5531,140.8343 1342.8931,164.5143" fill="none" id="UC11-to-UC6" style="stroke:#181818;stroke-width:1;"/><polygon fill="#181818" points="1347.92,167.79,1342.5634,159.5252,1343.7309,165.0603,1338.1958,166.2278,1347.92,167.79" style="stroke:#181818;stroke-width:1;"/><text fill="#000000" font-family="sans-serif" font-size="13" lengthAdjust="spacing" textLength="63.0068" x="1282.63" y="124.8669">&#171;include&#187;</text></g><!--link UC11 to UC4--><g class="link" data-entity-1="UC11" data-entity-2="UC4" data-source-line="32" data-uid="lnk27" id="link_UC11_UC4"><path d="M1150.3,77.4 C1143.64,102.43 1136.1025,130.7217 1129.8325,154.2917" fill="none" id="UC11-to-UC4" style="stroke:#181818;stroke-width:1;"/><polygon fill="#181818" points="1128.29,160.09,1134.4692,152.4208,1129.5754,155.258,1126.7381,150.3642,1128.29,160.09" style="stroke:#181818;stroke-width:1;"/><text fill="#000000" font-family="sans-serif" font-size="13" lengthAdjust="spacing" textLength="63.0068" x="1141.01" y="124.8669">&#171;include&#187;</text></g><!--SRC=[ZLB9Ri8m4BtxAqQvex8l5KAYeU88WhRtgJEXbX8xiXrLzEjh4umf0QaNItwBvyrua5kbONyqbifbLWe9Q21fxayd865uqkp8MAmrIhkfIAE7l3J24F3eE0ZtZgOihOrL9GL7W27W2MEr8Ow684areINOQbKgU44fIPl46z_JNbJj-HTbTK6GObcXECYWwKVDYd8X2TQ5-iG2KbLNIiBEcO9sqAeQk-diA-8Y5nmsUHuZ3FzbQMe5poXwFWHzmnlg0rdN_j_knb7sAjryGk9KPPV4awkdi12P3z38pe9f52ohgZZ2IXYkQcdF_2poRiASZ86DBFoOjdWiwQBhTQDmJT9_h9Eui4gwkZyk_8wuAft3PH2nrrwFiUjjwdGMfuzhO_qxs82nEslMSCF7rCZRMhlMSEF7r8GnTvmlKtY6-Ln8NjGPBHRC8mqpQp6pq5RtXc9-0A5motQXXZVKBm00]--></g></svg>