<svg xmlns="http://www.w3.org/2000/svg" xmlns:xlink="http://www.w3.org/1999/xlink" contentStyleType="text/css" data-diagram-type="SEQUENCE" height="356px" preserveAspectRatio="none" style="width:560px;height:356px;background:#FFFFFF;" version="1.1" viewBox="0 0 560 356" width="560px" zoomAndPan="magnify"><defs/><g><g><title>Admin</title><rect fill="#000000" fill-opacity="0.00000" height="194.7969" width="8" x="26.4321" y="81.2969"/><line style="stroke:#181818;stroke-width:0.5;stroke-dasharray:5,5;" x1="30" x2="30" y1="81.2969" y2="276.0938"/></g><g><title>Web App</title><rect fill="#000000" fill-opacity="0.00000" height="194.7969" width="8" x="233.7334" y="81.2969"/><line style="stroke:#181818;stroke-width:0.5;stroke-dasharray:5,5;" x1="237.1616" x2="237.1616" y1="81.2969" y2="276.0938"/></g><g><title>Identity Provider</title><rect fill="#000000" fill-opacity="0.00000" height="194.7969" width="8" x="395.0649" y="81.2969"/><line style="stroke:#181818;stroke-width:0.5;stroke-dasharray:5,5;" x1="398.915" x2="398.915" y1="81.2969" y2="276.0938"/></g><g><title>Audit Log</title><rect fill="#000000" fill-opacity="0.00000" height="194.7969" width="8" x="510.4238" y="81.2969"/><line style="stroke:#181818;stroke-width:0.5;stroke-dasharray:5,5;" x1="514.2148" x2="514.2148" y1="81.2969" y2="276.0938"/></g><g class="participant participant-head" data-participant="Admin"><text fill="#000000" font-family="sans-serif" font-size="14" lengthAdjust="spacing" textLength="44.8643" x="5" y="77.9951">Admin</text><ellipse cx="30.4321" cy="13.5" fill="#E2E2F0" rx="8" ry="8" style="stroke:#181818;stroke-width:0.5;"/><path d="M30.4321,21.5 L30.4321,48.5 M17.4321,29.5 L43.4321,29.5 M30.4321,48.5 L17.4321,63.5 M30.4321,48.5 L43.4321,63.5" fill="none" style="stroke:#181818;stroke-width:0.5;"/></g><g class="participant participant-tail" data-participant="Admin"><text fill="#000000" font-family="sans-serif" font-size="14" lengthAdjust="spacing" textLength="44.8643" x="5" y="288.0889">Admin</text><ellipse cx="30.4321" cy="299.8906" fill="#E2E2F0" rx="8" ry="8" style="stroke:#181818;stroke-width:0.5;"/><path d="M30.4321,307.8906 L30.4321,334.8906 M17.4321,315.8906 L43.4321,315.8906 M30.4321,334.8906 L17.4321,349.8906 M30.4321,334.8906 L43.4321,349.8906" fill="none" style="stroke:#181818;stroke-width:0.5;"/></g><g class="participant participant-head" data-participant="WebApp"><rect fill="#E2E2F0" height="30.2969" rx="2.5" ry="2.5" style="stroke:#181818;stroke-width:0.5;" width="77.1436" x="199.1616" y="50"/><text fill="#000000" font-family="sans-serif" font-size="14" lengthAdjust="spacing" textLength="63.1436" x="206.1616" y="69.9951">Web App</text></g><g class="participant participant-tail" data-participant="WebApp"><rect fill="#E2E2F0" height="30.2969" rx="2.5" ry="2.5" style="stroke:#181818;stroke-width:0.5;" width="77.1436" x="199.1616" y="275.0938"/><text fill="#000000" font-family="sans-serif" font-size="14" lengthAdjust="spacing" textLength="63.1436" x="206.1616" y="295.0889">Web App</text></g><g class="participant participant-head" data-participant="IdP"><rect fill="#E2E2F0" height="30.2969" rx="2.5" ry="2.5" style="stroke:#181818;stroke-width:0.5;" width="130.2998" x="333.915" y="50"/><text fill="#000000" font-family="sans-serif" font-size="14" lengthAdjust="spacing" textLength="116.2998" x="340.915" y="69.9951">Identity Provider</text></g><g class="participant participant-tail" data-participant="IdP"><rect fill="#E2E2F0" height="30.2969" rx="2.5" ry="2.5" style="stroke:#181818;stroke-width:0.5;" width="130.2998" x="333.915" y="275.0938"/><text fill="#000000" font-family="sans-serif" font-size="14" lengthAdjust="spacing" textLength="116.2998" x="340.915" y="295.0889">Identity Provider</text></g><g class="participant participant-head" data-participant="AuditLog"><rect fill="#E2E2F0" height="30.2969" rx="2.5" ry="2.5" style="stroke:#181818;stroke-width:0.5;" width="80.418" x="474.2148" y="50"/><text fill="#000000" font-family="sans-serif" font-size="14" lengthAdjust="spacing" textLength="66.418" x="481.2148" y="69.9951">Audit Log</text></g><g class="participant participant-tail" data-participant="AuditLog"><rect fill="#E2E2F0" height="30.2969" rx="2.5" ry="2.5" style="stroke:#181818;stroke-width:0.5;" width="80.418" x="474.2148" y="275.0938"/><text fill="#000000" font-family="sans-serif" font-size="14" lengthAdjust="spacing" textLength="66.418" x="481.2148" y="295.0889">Audit Log</text></g><g class="message" data-participant-1="Admin" data-participant-2="WebApp"><polygon fill="#181818" points="225.7334,108.4297,235.7334,112.4297,225.7334,116.4297,229.7334,112.4297" style="stroke:#181818;stroke-width:1;"/><line style="stroke:#181818;stroke-width:1;" x1="30.4321" x2="231.7334" y1="112.4297" y2="112.4297"/><text fill="#000000" font-family="sans-serif" font-size="13" lengthAdjust="spacing" textLength="86.582" x="37.4321" y="107.3638">Update Roles</text></g><g class="message" data-participant-1="WebApp" data-participant-2="IdP"><polygon fill="#181818" points="387.0649,137.5625,397.0649,141.5625,387.0649,145.5625,391.0649,141.5625" style="stroke:#181818;stroke-width:1;"/><line style="stroke:#181818;stroke-width:1;" x1="237.7334" x2="393.0649" y1="141.5625" y2="141.5625"/><text fill="#000000" font-family="sans-serif" font-size="13" lengthAdjust="spacing" textLength="137.3315" x="244.7334" y="136.4966">Request Role Update</text></g><g class="message" data-participant-1="IdP" data-participant-2="WebApp"><polygon fill="#181818" points="248.7334,166.6953,238.7334,170.6953,248.7334,174.6953,244.7334,170.6953" style="stroke:#181818;stroke-width:1;"/><line style="stroke:#181818;stroke-width:1;" x1="242.7334" x2="398.0649" y1="170.6953" y2="170.6953"/><text fill="#000000" font-family="sans-serif" font-size="13" lengthAdjust="spacing" textLength="135.4082" x="254.7334" y="165.6294">Confirm Role Update</text></g><g class="message" data-participant-1="WebApp" data-participant-2="AuditLog"><polygon fill="#181818" points="502.4238,195.8281,512.4238,199.8281,502.4238,203.8281,506.4238,199.8281" style="stroke:#181818;stroke-width:1;"/><line style="stroke:#181818;stroke-width:1;" x1="237.7334" x2="508.4238" y1="199.8281" y2="199.8281"/><text fill="#000000" font-family="sans-serif" font-size="13" lengthAdjust="spacing" textLength="107.3896" x="244.7334" y="194.7622">Log Role Update</text></g><g class="message" data-participant-1="AuditLog" data-participant-2="WebApp"><polygon fill="#181818" points="248.7334,224.9609,238.7334,228.9609,248.7334,232.9609,244.7334,228.9609" style="stroke:#181818;stroke-width:1;"/><line style="stroke:#181818;stroke-width:1;" x1="242.7334" x2="513.4238" y1="228.9609" y2="228.9609"/><text fill="#000000" font-family="sans-serif" font-size="13" lengthAdjust="spacing" textLength="111.9155" x="254.7334" y="223.895">Log Confirmation</text></g><g class="message" data-participant-1="WebApp" data-participant-2="Admin"><polygon fill="#181818" points="41.4321,254.0938,31.4321,258.0938,41.4321,262.0938,37.4321,258.0938" style="stroke:#181818;stroke-width:1;"/><line style="stroke:#181818;stroke-width:1;" x1="35.4321" x2="236.7334" y1="258.0938" y2="258.0938"/><text fill="#000000" font-family="sans-serif" font-size="13" lengthAdjust="spacing" textLength="183.3013" x="47.4321" y="253.0278">Roles Updated Confirmation</text></g><!--SRC=[LOun2iCm34Ltdq9axmKy54AdG8SGA9tTI2s2ndOT9T3RrtOS6c_wVjzFCgEu02rER9KtGNXaRwn0SwS7jDutO6Q8SnnhtY5POVb27zpAI24tE-phMhiW2rpTA-ESOb0gRuJJkRWrt3mQ8HZScsQrFIOSXHe6-YmqIuQbg28uVhyu- -GmLPM_PT-hqoLLPoT7Luh5PuITFOhIsNgxiYYmwlu0]--></g></svg>