<svg xmlns="http://www.w3.org/2000/svg" xmlns:xlink="http://www.w3.org/1999/xlink" contentStyleType="text/css" data-diagram-type="SEQUENCE" height="356px" preserveAspectRatio="none" style="width:507px;height:356px;background:#FFFFFF;" version="1.1" viewBox="0 0 507 356" width="507px" zoomAndPan="magnify"><defs/><g><g><title>User</title><rect fill="#000000" fill-opacity="0.00000" height="194.7969" width="8" x="19.9551" y="81.2969"/><line style="stroke:#181818;stroke-width:0.5;stroke-dasharray:5,5;" x1="23" x2="23" y1="81.2969" y2="276.0938"/></g><g><title>Web App</title><rect fill="#000000" fill-opacity="0.00000" height="194.7969" width="8" x="206.7598" y="81.2969"/><line style="stroke:#181818;stroke-width:0.5;stroke-dasharray:5,5;" x1="210.188" x2="210.188" y1="81.2969" y2="276.0938"/></g><g><title>Etimad Data</title><rect fill="#000000" fill-opacity="0.00000" height="194.7969" width="8" x="308.125" y="81.2969"/><line style="stroke:#181818;stroke-width:0.5;stroke-dasharray:5,5;" x1="311.522" x2="311.522" y1="81.2969" y2="276.0938"/></g><g><title>Index Engine</title><rect fill="#000000" fill-opacity="0.00000" height="194.7969" width="8" x="444.625" y="81.2969"/><line style="stroke:#181818;stroke-width:0.5;stroke-dasharray:5,5;" x1="448.0156" x2="448.0156" y1="81.2969" y2="276.0938"/></g><g class="participant participant-head" data-participant="User"><text fill="#000000" font-family="sans-serif" font-size="14" lengthAdjust="spacing" textLength="31.9102" x="5" y="77.9951">User</text><ellipse cx="23.9551" cy="13.5" fill="#E2E2F0" rx="8" ry="8" style="stroke:#181818;stroke-width:0.5;"/><path d="M23.9551,21.5 L23.9551,48.5 M10.9551,29.5 L36.9551,29.5 M23.9551,48.5 L10.9551,63.5 M23.9551,48.5 L36.9551,63.5" fill="none" style="stroke:#181818;stroke-width:0.5;"/></g><g class="participant participant-tail" data-participant="User"><text fill="#000000" font-family="sans-serif" font-size="14" lengthAdjust="spacing" textLength="31.9102" x="5" y="288.0889">User</text><ellipse cx="23.9551" cy="299.8906" fill="#E2E2F0" rx="8" ry="8" style="stroke:#181818;stroke-width:0.5;"/><path d="M23.9551,307.8906 L23.9551,334.8906 M10.9551,315.8906 L36.9551,315.8906 M23.9551,334.8906 L10.9551,349.8906 M23.9551,334.8906 L36.9551,349.8906" fill="none" style="stroke:#181818;stroke-width:0.5;"/></g><g class="participant participant-head" data-participant="WebApp"><rect fill="#E2E2F0" height="30.2969" rx="2.5" ry="2.5" style="stroke:#181818;stroke-width:0.5;" width="77.1436" x="172.188" y="50"/><text fill="#000000" font-family="sans-serif" font-size="14" lengthAdjust="spacing" textLength="63.1436" x="179.188" y="69.9951">Web App</text></g><g class="participant participant-tail" data-participant="WebApp"><rect fill="#E2E2F0" height="30.2969" rx="2.5" ry="2.5" style="stroke:#181818;stroke-width:0.5;" width="77.1436" x="172.188" y="275.0938"/><text fill="#000000" font-family="sans-serif" font-size="14" lengthAdjust="spacing" textLength="63.1436" x="179.188" y="295.0889">Web App</text></g><g class="participant participant-head" data-participant="EtimadData"><rect fill="#E2E2F0" height="30.2969" rx="2.5" ry="2.5" style="stroke:#181818;stroke-width:0.5;" width="101.2061" x="261.522" y="50"/><text fill="#000000" font-family="sans-serif" font-size="14" lengthAdjust="spacing" textLength="87.2061" x="268.522" y="69.9951">Etimad Data</text></g><g class="participant participant-tail" data-participant="EtimadData"><rect fill="#E2E2F0" height="30.2969" rx="2.5" ry="2.5" style="stroke:#181818;stroke-width:0.5;" width="101.2061" x="261.522" y="275.0938"/><text fill="#000000" font-family="sans-serif" font-size="14" lengthAdjust="spacing" textLength="87.2061" x="268.522" y="295.0889">Etimad Data</text></g><g class="participant participant-head" data-participant="IndexEngine"><rect fill="#E2E2F0" height="30.2969" rx="2.5" ry="2.5" style="stroke:#181818;stroke-width:0.5;" width="105.2188" x="396.0156" y="50"/><text fill="#000000" font-family="sans-serif" font-size="14" lengthAdjust="spacing" textLength="91.2188" x="403.0156" y="69.9951">Index Engine</text></g><g class="participant participant-tail" data-participant="IndexEngine"><rect fill="#E2E2F0" height="30.2969" rx="2.5" ry="2.5" style="stroke:#181818;stroke-width:0.5;" width="105.2188" x="396.0156" y="275.0938"/><text fill="#000000" font-family="sans-serif" font-size="14" lengthAdjust="spacing" textLength="91.2188" x="403.0156" y="295.0889">Index Engine</text></g><g class="message" data-participant-1="User" data-participant-2="WebApp"><polygon fill="#181818" points="198.7598,108.4297,208.7598,112.4297,198.7598,116.4297,202.7598,112.4297" style="stroke:#181818;stroke-width:1;"/><line style="stroke:#181818;stroke-width:1;" x1="23.9551" x2="204.7598" y1="112.4297" y2="112.4297"/><text fill="#000000" font-family="sans-serif" font-size="13" lengthAdjust="spacing" textLength="86.8042" x="30.9551" y="107.3638">Request data</text></g><g class="message" data-participant-1="WebApp" data-participant-2="EtimadData"><polygon fill="#181818" points="300.125,137.5625,310.125,141.5625,300.125,145.5625,304.125,141.5625" style="stroke:#181818;stroke-width:1;"/><line style="stroke:#181818;stroke-width:1;" x1="210.7598" x2="306.125" y1="141.5625" y2="141.5625"/><text fill="#000000" font-family="sans-serif" font-size="13" lengthAdjust="spacing" textLength="69.3735" x="217.7598" y="136.4966">Fetch data</text></g><g class="message" data-participant-1="EtimadData" data-participant-2="WebApp"><polygon fill="#181818" points="221.7598,166.6953,211.7598,170.6953,221.7598,174.6953,217.7598,170.6953" style="stroke:#181818;stroke-width:1;"/><line style="stroke:#181818;stroke-width:1;" x1="215.7598" x2="311.125" y1="170.6953" y2="170.6953"/><text fill="#000000" font-family="sans-serif" font-size="13" lengthAdjust="spacing" textLength="77.3652" x="227.7598" y="165.6294">Return data</text></g><g class="message" data-participant-1="WebApp" data-participant-2="IndexEngine"><polygon fill="#181818" points="436.625,195.8281,446.625,199.8281,436.625,203.8281,440.625,199.8281" style="stroke:#181818;stroke-width:1;"/><line style="stroke:#181818;stroke-width:1;" x1="210.7598" x2="442.625" y1="199.8281" y2="199.8281"/><text fill="#000000" font-family="sans-serif" font-size="13" lengthAdjust="spacing" textLength="213.8652" x="217.7598" y="194.7622">Send data for score computation</text></g><g class="message" data-participant-1="IndexEngine" data-participant-2="WebApp"><polygon fill="#181818" points="221.7598,224.9609,211.7598,228.9609,221.7598,232.9609,217.7598,228.9609" style="stroke:#181818;stroke-width:1;"/><line style="stroke:#181818;stroke-width:1;" x1="215.7598" x2="447.625" y1="228.9609" y2="228.9609"/><text fill="#000000" font-family="sans-serif" font-size="13" lengthAdjust="spacing" textLength="153.0356" x="227.7598" y="223.895">Return computed score</text></g><g class="message" data-participant-1="WebApp" data-participant-2="User"><polygon fill="#181818" points="34.9551,254.0938,24.9551,258.0938,34.9551,262.0938,30.9551,258.0938" style="stroke:#181818;stroke-width:1;"/><line style="stroke:#181818;stroke-width:1;" x1="28.9551" x2="209.7598" y1="258.0938" y2="258.0938"/><text fill="#000000" font-family="sans-serif" font-size="13" lengthAdjust="spacing" textLength="162.8047" x="40.9551" y="253.0278">Display gaps and actions</text></g><!--SRC=[RO_12i8m44Jl_OgXTtyW1q5e1Q-AU5wJjGPi4fCjwD_RD49RyROp-tQ69Iq-ufmuLe6YM6q3EK5zuIjs8TIWX74Un_M-5TkJGKD24rDqbclku0o_qBhEEfx0oIYwgd8lDjjlWyAHdmCdWSavnSphELnXpwBl1PZjTOOCqVr6B6eLJkpC1E0sFf-qZmpj-p08YVMkMi1_aWl9fXmkEl8t2erDuK5lT1GIQ2mYdKFJ1m00]--></g></svg>