<svg xmlns="http://www.w3.org/2000/svg" xmlns:xlink="http://www.w3.org/1999/xlink" contentStyleType="text/css" data-diagram-type="ACTIVITY" height="588px" preserveAspectRatio="none" style="width:524px;height:588px;background:#FFFFFF;" version="1.1" viewBox="0 0 524 588" width="524px" zoomAndPan="magnify"><defs/><g><ellipse cx="262.4434" cy="20" fill="#222222" rx="10" ry="10" style="stroke:#222222;stroke-width:1;"/><rect fill="#F1F1F1" height="33.9688" rx="12.5" ry="12.5" style="stroke:#181818;stroke-width:0.5;" width="111.1484" x="206.8691" y="50"/><text fill="#000000" font-family="sans-serif" font-size="12" lengthAdjust="spacing" textLength="91.1484" x="216.8691" y="71.1387">Ticket Creation</text><rect fill="#F1F1F1" height="33.9688" rx="12.5" ry="12.5" style="stroke:#181818;stroke-width:0.5;" width="151.5605" x="186.6631" y="103.9688"/><text fill="#000000" font-family="sans-serif" font-size="12" lengthAdjust="spacing" textLength="131.5605" x="196.6631" y="125.1074">Assign to Department</text><rect fill="#F1F1F1" height="33.9688" rx="12.5" ry="12.5" style="stroke:#181818;stroke-width:0.5;" width="140.9668" x="191.96" y="157.9375"/><text fill="#000000" font-family="sans-serif" font-size="12" lengthAdjust="spacing" textLength="120.9668" x="201.96" y="179.0762">Apply Routing Rules</text><rect fill="#F1F1F1" height="33.9688" rx="12.5" ry="12.5" style="stroke:#181818;stroke-width:0.5;" width="122.1875" x="201.3496" y="211.9063"/><text fill="#000000" font-family="sans-serif" font-size="12" lengthAdjust="spacing" textLength="102.1875" x="211.3496" y="233.0449">Escalation Check</text><polygon fill="#F1F1F1" points="208.3591,265.875,316.5276,265.875,328.5276,277.875,316.5276,289.875,208.3591,289.875,196.3591,277.875,208.3591,265.875" style="stroke:#181818;stroke-width:0.5;"/><text fill="#000000" font-family="sans-serif" font-size="11" lengthAdjust="spacing" textLength="108.1685" x="208.3591" y="281.6831">Escalation Needed?</text><text fill="#000000" font-family="sans-serif" font-size="11" lengthAdjust="spacing" textLength="19.0083" x="177.3508" y="275.2808">yes</text><text fill="#000000" font-family="sans-serif" font-size="11" lengthAdjust="spacing" textLength="13.7017" x="328.5276" y="275.2808">no</text><rect fill="#F1F1F1" height="33.9688" rx="12.5" ry="12.5" style="stroke:#181818;stroke-width:0.5;" width="241.4434" x="11" y="299.875"/><text fill="#000000" font-family="sans-serif" font-size="12" lengthAdjust="spacing" textLength="221.4434" x="21" y="321.0137">Notify Assigned Agent via Email/SMS</text><rect fill="#F1F1F1" height="33.9688" rx="12.5" ry="12.5" style="stroke:#181818;stroke-width:0.5;" width="241.4434" x="272.4434" y="299.875"/><text fill="#000000" font-family="sans-serif" font-size="12" lengthAdjust="spacing" textLength="221.4434" x="282.4434" y="321.0137">Notify Assigned Agent via Email/SMS</text><polygon fill="#F1F1F1" points="262.4434,339.8438,274.4434,351.8438,262.4434,363.8438,250.4434,351.8438,262.4434,339.8438" style="stroke:#181818;stroke-width:0.5;"/><rect fill="#F1F1F1" height="33.9688" rx="12.5" ry="12.5" style="stroke:#181818;stroke-width:0.5;" width="153.5" x="185.6934" y="383.8438"/><text fill="#000000" font-family="sans-serif" font-size="12" lengthAdjust="spacing" textLength="133.5" x="195.6934" y="404.9824">Agent works on Ticket</text><polygon fill="#F1F1F1" points="203.4768,437.8125,321.4099,437.8125,333.4099,449.8125,321.4099,461.8125,203.4768,461.8125,191.4768,449.8125,203.4768,437.8125" style="stroke:#181818;stroke-width:0.5;"/><text fill="#000000" font-family="sans-serif" font-size="11" lengthAdjust="spacing" textLength="117.9331" x="203.4768" y="453.6206">Resolution Achieved?</text><text fill="#000000" font-family="sans-serif" font-size="11" lengthAdjust="spacing" textLength="19.0083" x="172.4685" y="447.2183">yes</text><text fill="#000000" font-family="sans-serif" font-size="11" lengthAdjust="spacing" textLength="13.7017" x="333.4099" y="447.2183">no</text><rect fill="#F1F1F1" height="33.9688" rx="12.5" ry="12.5" style="stroke:#181818;stroke-width:0.5;" width="105.3418" x="128.8059" y="471.8125"/><text fill="#000000" font-family="sans-serif" font-size="12" lengthAdjust="spacing" textLength="85.3418" x="138.8059" y="492.9512">Ticket Closure</text><rect fill="#F1F1F1" height="33.9688" rx="12.5" ry="12.5" style="stroke:#181818;stroke-width:0.5;" width="105.5176" x="290.6511" y="471.8125"/><text fill="#000000" font-family="sans-serif" font-size="12" lengthAdjust="spacing" textLength="85.5176" x="300.6511" y="492.9512">Reassignment</text><polygon fill="#F1F1F1" points="262.4434,511.7813,274.4434,523.7813,262.4434,535.7813,250.4434,523.7813,262.4434,511.7813" style="stroke:#181818;stroke-width:0.5;"/><ellipse cx="262.4434" cy="566.7813" fill="none" rx="11" ry="11" style="stroke:#222222;stroke-width:1;"/><ellipse cx="262.4434" cy="566.7813" fill="#222222" rx="6" ry="6" style="stroke:#222222;stroke-width:1;"/><line style="stroke:#181818;stroke-width:1;" x1="262.4434" x2="262.4434" y1="30" y2="50"/><polygon fill="#181818" points="258.4434,40,262.4434,50,266.4434,40,262.4434,44" style="stroke:#181818;stroke-width:1;"/><line style="stroke:#181818;stroke-width:1;" x1="262.4434" x2="262.4434" y1="83.9688" y2="103.9688"/><polygon fill="#181818" points="258.4434,93.9688,262.4434,103.9688,266.4434,93.9688,262.4434,97.9688" style="stroke:#181818;stroke-width:1;"/><line style="stroke:#181818;stroke-width:1;" x1="262.4434" x2="262.4434" y1="137.9375" y2="157.9375"/><polygon fill="#181818" points="258.4434,147.9375,262.4434,157.9375,266.4434,147.9375,262.4434,151.9375" style="stroke:#181818;stroke-width:1;"/><line style="stroke:#181818;stroke-width:1;" x1="262.4434" x2="262.4434" y1="191.9063" y2="211.9063"/><polygon fill="#181818" points="258.4434,201.9063,262.4434,211.9063,266.4434,201.9063,262.4434,205.9063" style="stroke:#181818;stroke-width:1;"/><line style="stroke:#181818;stroke-width:1;" x1="196.3591" x2="131.7217" y1="277.875" y2="277.875"/><line style="stroke:#181818;stroke-width:1;" x1="131.7217" x2="131.7217" y1="277.875" y2="299.875"/><polygon fill="#181818" points="127.7217,289.875,131.7217,299.875,135.7217,289.875,131.7217,293.875" style="stroke:#181818;stroke-width:1;"/><line style="stroke:#181818;stroke-width:1;" x1="328.5276" x2="393.165" y1="277.875" y2="277.875"/><line style="stroke:#181818;stroke-width:1;" x1="393.165" x2="393.165" y1="277.875" y2="299.875"/><polygon fill="#181818" points="389.165,289.875,393.165,299.875,397.165,289.875,393.165,293.875" style="stroke:#181818;stroke-width:1;"/><line style="stroke:#181818;stroke-width:1;" x1="131.7217" x2="131.7217" y1="333.8438" y2="351.8438"/><line style="stroke:#181818;stroke-width:1;" x1="131.7217" x2="250.4434" y1="351.8438" y2="351.8438"/><polygon fill="#181818" points="240.4434,347.8438,250.4434,351.8438,240.4434,355.8438,244.4434,351.8438" style="stroke:#181818;stroke-width:1;"/><line style="stroke:#181818;stroke-width:1;" x1="393.165" x2="393.165" y1="333.8438" y2="351.8438"/><line style="stroke:#181818;stroke-width:1;" x1="393.165" x2="274.4434" y1="351.8438" y2="351.8438"/><polygon fill="#181818" points="284.4434,347.8438,274.4434,351.8438,284.4434,355.8438,280.4434,351.8438" style="stroke:#181818;stroke-width:1;"/><line style="stroke:#181818;stroke-width:1;" x1="262.4434" x2="262.4434" y1="245.875" y2="265.875"/><polygon fill="#181818" points="258.4434,255.875,262.4434,265.875,266.4434,255.875,262.4434,259.875" style="stroke:#181818;stroke-width:1;"/><line style="stroke:#181818;stroke-width:1;" x1="262.4434" x2="262.4434" y1="363.8438" y2="383.8438"/><polygon fill="#181818" points="258.4434,373.8438,262.4434,383.8438,266.4434,373.8438,262.4434,377.8438" style="stroke:#181818;stroke-width:1;"/><line style="stroke:#181818;stroke-width:1;" x1="191.4768" x2="181.4768" y1="449.8125" y2="449.8125"/><line style="stroke:#181818;stroke-width:1;" x1="181.4768" x2="181.4768" y1="449.8125" y2="471.8125"/><polygon fill="#181818" points="177.4768,461.8125,181.4768,471.8125,185.4768,461.8125,181.4768,465.8125" style="stroke:#181818;stroke-width:1;"/><line style="stroke:#181818;stroke-width:1;" x1="333.4099" x2="343.4099" y1="449.8125" y2="449.8125"/><line style="stroke:#181818;stroke-width:1;" x1="343.4099" x2="343.4099" y1="449.8125" y2="471.8125"/><polygon fill="#181818" points="339.4099,461.8125,343.4099,471.8125,347.4099,461.8125,343.4099,465.8125" style="stroke:#181818;stroke-width:1;"/><line style="stroke:#181818;stroke-width:1;" x1="181.4768" x2="181.4768" y1="505.7813" y2="523.7813"/><line style="stroke:#181818;stroke-width:1;" x1="181.4768" x2="250.4434" y1="523.7813" y2="523.7813"/><polygon fill="#181818" points="240.4434,519.7813,250.4434,523.7813,240.4434,527.7813,244.4434,523.7813" style="stroke:#181818;stroke-width:1;"/><line style="stroke:#181818;stroke-width:1;" x1="343.4099" x2="343.4099" y1="505.7813" y2="523.7813"/><line style="stroke:#181818;stroke-width:1;" x1="343.4099" x2="274.4434" y1="523.7813" y2="523.7813"/><polygon fill="#181818" points="284.4434,519.7813,274.4434,523.7813,284.4434,527.7813,280.4434,523.7813" style="stroke:#181818;stroke-width:1;"/><line style="stroke:#181818;stroke-width:1;" x1="262.4434" x2="262.4434" y1="417.8125" y2="437.8125"/><polygon fill="#181818" points="258.4434,427.8125,262.4434,437.8125,266.4434,427.8125,262.4434,431.8125" style="stroke:#181818;stroke-width:1;"/><line style="stroke:#181818;stroke-width:1;" x1="262.4434" x2="262.4434" y1="535.7813" y2="555.7813"/><polygon fill="#181818" points="258.4434,545.7813,262.4434,555.7813,266.4434,545.7813,262.4434,549.7813" style="stroke:#181818;stroke-width:1;"/><!--SRC=[bP2nZeD034Jx_GgNf4eFHOHoAIy5oG-iO02BpHfXauY_pmPoqkcKvjgnH_DcrFnapkLNhWSO7ITuOuc5oqjLxYAPq1V6z7H3j9SyZc6XIcRZs54r1sXIJrhxi3hfsACU2kUufUoNV0OQD8STMOz8sGBTEQByBCRjGbiO6Ygx54DtzdIwUGxxo_UbS0WAogBymn4RRbEjxVYGQL1A45lBDrm5bJ2lS6NTC-uVy7vc2QBpX3ya5VmAiItpZbIJyGa0]--></g></svg>