<svg xmlns="http://www.w3.org/2000/svg" xmlns:xlink="http://www.w3.org/1999/xlink" contentStyleType="text/css" data-diagram-type="SEQUENCE" height="417px" preserveAspectRatio="none" style="width:648px;height:417px;background:#FFFFFF;" version="1.1" viewBox="0 0 648 417" width="648px" zoomAndPan="magnify"><defs/><g><rect fill="none" height="75.3984" style="stroke:#000000;stroke-width:1.5;" width="632.5615" x="10" y="243.9609"/><g><title>User</title><rect fill="#000000" fill-opacity="0.00000" height="255.0625" width="8" x="34.9551" y="81.2969"/><line style="stroke:#181818;stroke-width:0.5;stroke-dasharray:5,5;" x1="38" x2="38" y1="81.2969" y2="336.3594"/></g><g><title>Report System</title><rect fill="#000000" fill-opacity="0.00000" height="255.0625" width="8" x="222.7183" y="81.2969"/><line style="stroke:#181818;stroke-width:0.5;stroke-dasharray:5,5;" x1="225.8711" x2="225.8711" y1="81.2969" y2="336.3594"/></g><g><title>Data Generator</title><rect fill="#000000" fill-opacity="0.00000" height="255.0625" width="8" x="353.0513" y="81.2969"/><line style="stroke:#181818;stroke-width:0.5;stroke-dasharray:5,5;" x1="356.5654" x2="356.5654" y1="81.2969" y2="336.3594"/></g><g><title>Renderer</title><rect fill="#000000" fill-opacity="0.00000" height="255.0625" width="8" x="463.9565" y="81.2969"/><line style="stroke:#181818;stroke-width:0.5;stroke-dasharray:5,5;" x1="467.5371" x2="467.5371" y1="81.2969" y2="336.3594"/></g><g><title>Export Module</title><rect fill="#000000" fill-opacity="0.00000" height="255.0625" width="8" x="570.9688" y="81.2969"/><line style="stroke:#181818;stroke-width:0.5;stroke-dasharray:5,5;" x1="574.376" x2="574.376" y1="81.2969" y2="336.3594"/></g><g class="participant participant-head" data-participant="User"><text fill="#000000" font-family="sans-serif" font-size="14" lengthAdjust="spacing" textLength="31.9102" x="20" y="77.9951">User</text><ellipse cx="38.9551" cy="13.5" fill="#E2E2F0" rx="8" ry="8" style="stroke:#181818;stroke-width:0.5;"/><path d="M38.9551,21.5 L38.9551,48.5 M25.9551,29.5 L51.9551,29.5 M38.9551,48.5 L25.9551,63.5 M38.9551,48.5 L51.9551,63.5" fill="none" style="stroke:#181818;stroke-width:0.5;"/></g><g class="participant participant-tail" data-participant="User"><text fill="#000000" font-family="sans-serif" font-size="14" lengthAdjust="spacing" textLength="31.9102" x="20" y="348.3545">User</text><ellipse cx="38.9551" cy="360.1563" fill="#E2E2F0" rx="8" ry="8" style="stroke:#181818;stroke-width:0.5;"/><path d="M38.9551,368.1563 L38.9551,395.1563 M25.9551,376.1563 L51.9551,376.1563 M38.9551,395.1563 L25.9551,410.1563 M38.9551,395.1563 L51.9551,410.1563" fill="none" style="stroke:#181818;stroke-width:0.5;"/></g><g class="participant participant-head" data-participant="RS"><rect fill="#E2E2F0" height="30.2969" rx="2.5" ry="2.5" style="stroke:#181818;stroke-width:0.5;" width="117.6943" x="167.8711" y="50"/><text fill="#000000" font-family="sans-serif" font-size="14" lengthAdjust="spacing" textLength="103.6943" x="174.8711" y="69.9951">Report System</text></g><g class="participant participant-tail" data-participant="RS"><rect fill="#E2E2F0" height="30.2969" rx="2.5" ry="2.5" style="stroke:#181818;stroke-width:0.5;" width="117.6943" x="167.8711" y="335.3594"/><text fill="#000000" font-family="sans-serif" font-size="14" lengthAdjust="spacing" textLength="103.6943" x="174.8711" y="355.3545">Report System</text></g><g class="participant participant-head" data-participant="DG"><rect fill="#E2E2F0" height="30.2969" rx="2.5" ry="2.5" style="stroke:#181818;stroke-width:0.5;" width="122.9717" x="295.5654" y="50"/><text fill="#000000" font-family="sans-serif" font-size="14" lengthAdjust="spacing" textLength="108.9717" x="302.5654" y="69.9951">Data Generator</text></g><g class="participant participant-tail" data-participant="DG"><rect fill="#E2E2F0" height="30.2969" rx="2.5" ry="2.5" style="stroke:#181818;stroke-width:0.5;" width="122.9717" x="295.5654" y="335.3594"/><text fill="#000000" font-family="sans-serif" font-size="14" lengthAdjust="spacing" textLength="108.9717" x="302.5654" y="355.3545">Data Generator</text></g><g class="participant participant-head" data-participant="R"><rect fill="#E2E2F0" height="30.2969" rx="2.5" ry="2.5" style="stroke:#181818;stroke-width:0.5;" width="78.8389" x="428.5371" y="50"/><text fill="#000000" font-family="sans-serif" font-size="14" lengthAdjust="spacing" textLength="64.8389" x="435.5371" y="69.9951">Renderer</text></g><g class="participant participant-tail" data-participant="R"><rect fill="#E2E2F0" height="30.2969" rx="2.5" ry="2.5" style="stroke:#181818;stroke-width:0.5;" width="78.8389" x="428.5371" y="335.3594"/><text fill="#000000" font-family="sans-serif" font-size="14" lengthAdjust="spacing" textLength="64.8389" x="435.5371" y="355.3545">Renderer</text></g><g class="participant participant-head" data-participant="EM"><rect fill="#E2E2F0" height="30.2969" rx="2.5" ry="2.5" style="stroke:#181818;stroke-width:0.5;" width="115.1855" x="517.376" y="50"/><text fill="#000000" font-family="sans-serif" font-size="14" lengthAdjust="spacing" textLength="101.1855" x="524.376" y="69.9951">Export Module</text></g><g class="participant participant-tail" data-participant="EM"><rect fill="#E2E2F0" height="30.2969" rx="2.5" ry="2.5" style="stroke:#181818;stroke-width:0.5;" width="115.1855" x="517.376" y="335.3594"/><text fill="#000000" font-family="sans-serif" font-size="14" lengthAdjust="spacing" textLength="101.1855" x="524.376" y="355.3545">Export Module</text></g><g class="message" data-participant-1="User" data-participant-2="RS"><polygon fill="#181818" points="214.7183,108.4297,224.7183,112.4297,214.7183,116.4297,218.7183,112.4297" style="stroke:#181818;stroke-width:1;"/><line style="stroke:#181818;stroke-width:1;" x1="38.9551" x2="220.7183" y1="112.4297" y2="112.4297"/><text fill="#000000" font-family="sans-serif" font-size="13" lengthAdjust="spacing" textLength="163.7632" x="45.9551" y="107.3638">Select report parameters</text></g><g class="message" data-participant-1="RS" data-participant-2="DG"><polygon fill="#181818" points="345.0513,137.5625,355.0513,141.5625,345.0513,145.5625,349.0513,141.5625" style="stroke:#181818;stroke-width:1;"/><line style="stroke:#181818;stroke-width:1;" x1="226.7183" x2="351.0513" y1="141.5625" y2="141.5625"/><text fill="#000000" font-family="sans-serif" font-size="13" lengthAdjust="spacing" textLength="94.1294" x="233.7183" y="136.4966">Generate data</text></g><g class="message" data-participant-1="DG" data-participant-2="RS"><polygon fill="#181818" points="237.7183,166.6953,227.7183,170.6953,237.7183,174.6953,233.7183,170.6953" style="stroke:#181818;stroke-width:1;"/><line style="stroke:#181818;stroke-width:1;" x1="231.7183" x2="356.0513" y1="170.6953" y2="170.6953"/><text fill="#000000" font-family="sans-serif" font-size="13" lengthAdjust="spacing" textLength="77.3652" x="243.7183" y="165.6294">Return data</text></g><g class="message" data-participant-1="RS" data-participant-2="R"><polygon fill="#181818" points="455.9565,195.8281,465.9565,199.8281,455.9565,203.8281,459.9565,199.8281" style="stroke:#181818;stroke-width:1;"/><line style="stroke:#181818;stroke-width:1;" x1="226.7183" x2="461.9565" y1="199.8281" y2="199.8281"/><text fill="#000000" font-family="sans-serif" font-size="13" lengthAdjust="spacing" textLength="186.0244" x="233.7183" y="194.7622">Render data in visual format</text></g><g class="message" data-participant-1="R" data-participant-2="User"><polygon fill="#181818" points="49.9551,224.9609,39.9551,228.9609,49.9551,232.9609,45.9551,228.9609" style="stroke:#181818;stroke-width:1;"/><line style="stroke:#181818;stroke-width:1;" x1="43.9551" x2="466.9565" y1="228.9609" y2="228.9609"/><text fill="#000000" font-family="sans-serif" font-size="13" lengthAdjust="spacing" textLength="136.957" x="55.9551" y="223.895">Display visual output</text></g><path d="M10,243.9609 L74.4429,243.9609 L74.4429,251.0938 L64.4429,261.0938 L10,261.0938 L10,243.9609" fill="#EEEEEE" style="stroke:#000000;stroke-width:1.5;"/><rect fill="none" height="75.3984" style="stroke:#000000;stroke-width:1.5;" width="632.5615" x="10" y="243.9609"/><text fill="#000000" font-family="sans-serif" font-size="13" font-weight="bold" lengthAdjust="spacing" textLength="19.4429" x="25" y="257.0278">alt</text><text fill="#000000" font-family="sans-serif" font-size="11" font-weight="bold" lengthAdjust="spacing" textLength="140.6152" x="89.4429" y="256.1714">[User wants to export]</text><g class="message" data-participant-1="User" data-participant-2="EM"><polygon fill="#181818" points="562.9688,278.2266,572.9688,282.2266,562.9688,286.2266,566.9688,282.2266" style="stroke:#181818;stroke-width:1;"/><line style="stroke:#181818;stroke-width:1;" x1="38.9551" x2="568.9688" y1="282.2266" y2="282.2266"/><text fill="#000000" font-family="sans-serif" font-size="13" lengthAdjust="spacing" textLength="94.5674" x="45.9551" y="277.1606">Export options</text></g><g class="message" data-participant-1="EM" data-participant-2="User"><polygon fill="#181818" points="49.9551,307.3594,39.9551,311.3594,49.9551,315.3594,45.9551,311.3594" style="stroke:#181818;stroke-width:1;"/><line style="stroke:#181818;stroke-width:1;" x1="43.9551" x2="573.9688" y1="311.3594" y2="311.3594"/><text fill="#000000" font-family="sans-serif" font-size="13" lengthAdjust="spacing" textLength="66.4854" x="55.9551" y="306.2935">Export file</text></g><!--SRC=[NOz1RiGW34NtdE9hzhr05bqboYeReXx0IZmI4W5aJDkv_G2Pg9goz7_uFzEcKV2LMKmYKRUvH45nivoYADP7LZvke0oxlXCZAM7cm49rHKV6-V-IiBFm6ThtRFhj1KlSY-SEJ8inJGGVdxLimCgUDuMS9lKp7QmisTYr8UCyNFMClSgOSRw-MjOYuPoUj6t3PjE7S07VBXVok4SvI8rjK6iVCBgSF3qk81PDHGrvxJb-gdw6Hd2_mA2-ItjQ1hmEYqbT3Bd7q_At_HNVdMTJXPu0]--></g></svg>