<svg xmlns="http://www.w3.org/2000/svg" xmlns:xlink="http://www.w3.org/1999/xlink" contentStyleType="text/css" data-diagram-type="ACTIVITY" height="1176px" preserveAspectRatio="none" style="width:621px;height:1176px;background:#FFFFFF;" version="1.1" viewBox="0 0 621 1176" width="621px" zoomAndPan="magnify"><defs/><g><ellipse cx="250.4192" cy="20" fill="#222222" rx="10" ry="10" style="stroke:#222222;stroke-width:1;"/><rect fill="#F1F1F1" height="33.9688" rx="12.5" ry="12.5" style="stroke:#181818;stroke-width:0.5;" width="153.1484" x="173.845" y="50"/><text fill="#000000" font-family="sans-serif" font-size="12" lengthAdjust="spacing" textLength="133.1484" x="183.845" y="71.1387">Pull normalized inputs</text><polygon fill="#F1F1F1" points="194.3289,103.9688,306.5095,103.9688,318.5095,115.9688,306.5095,127.9688,194.3289,127.9688,182.3289,115.9688,194.3289,103.9688" style="stroke:#181818;stroke-width:0.5;"/><text fill="#000000" font-family="sans-serif" font-size="11" lengthAdjust="spacing" textLength="112.1807" x="194.3289" y="119.7769">Data completeness?</text><text fill="#000000" font-family="sans-serif" font-size="11" lengthAdjust="spacing" textLength="14.9585" x="167.3704" y="113.3745">No</text><text fill="#000000" font-family="sans-serif" font-size="11" lengthAdjust="spacing" textLength="19.2178" x="318.5095" y="113.3745">Yes</text><rect fill="#F1F1F1" height="33.9688" rx="12.5" ry="12.5" style="stroke:#181818;stroke-width:0.5;" width="165.5762" x="11" y="137.9688"/><text fill="#000000" font-family="sans-serif" font-size="12" lengthAdjust="spacing" textLength="145.5762" x="21" y="159.1074">Trigger imputation rules</text><rect fill="#F1F1F1" height="33.9688" rx="12.5" ry="12.5" style="stroke:#181818;stroke-width:0.5;" width="78.9453" x="54.3154" y="191.9375"/><text fill="#000000" font-family="sans-serif" font-size="12" lengthAdjust="spacing" textLength="58.9453" x="64.3154" y="213.0762">Audit trail</text><rect fill="#F1F1F1" height="33.9688" rx="12.5" ry="12.5" style="stroke:#181818;stroke-width:0.5;" width="170.3984" x="321.8511" y="137.9688"/><text fill="#000000" font-family="sans-serif" font-size="12" lengthAdjust="spacing" textLength="150.3984" x="331.8511" y="159.1074">Proceed to normalization</text><polygon fill="#F1F1F1" points="351.7791,191.9375,462.3215,191.9375,474.3215,203.9375,462.3215,215.9375,351.7791,215.9375,339.7791,203.9375,351.7791,191.9375" style="stroke:#181818;stroke-width:0.5;"/><text fill="#000000" font-family="sans-serif" font-size="11" lengthAdjust="spacing" textLength="110.5425" x="351.7791" y="207.7456">Normalization type?</text><text fill="#000000" font-family="sans-serif" font-size="11" lengthAdjust="spacing" textLength="41.3037" x="298.4753" y="201.3433">Z-score</text><text fill="#000000" font-family="sans-serif" font-size="11" lengthAdjust="spacing" textLength="47.4536" x="474.3215" y="201.3433">Min-max</text><rect fill="#F1F1F1" height="33.9688" rx="12.5" ry="12.5" style="stroke:#181818;stroke-width:0.5;" width="188.7969" x="206.5762" y="225.9375"/><text fill="#000000" font-family="sans-serif" font-size="12" lengthAdjust="spacing" textLength="168.7969" x="216.5762" y="247.0762">Apply Z-score normalization</text><rect fill="#F1F1F1" height="33.9688" rx="12.5" ry="12.5" style="stroke:#181818;stroke-width:0.5;" width="195.5059" x="415.373" y="225.9375"/><text fill="#000000" font-family="sans-serif" font-size="12" lengthAdjust="spacing" textLength="175.5059" x="425.373" y="247.0762">Apply Min-max normalization</text><polygon fill="#F1F1F1" points="407.0503,265.9063,419.0503,277.9063,407.0503,289.9063,395.0503,277.9063,407.0503,265.9063" style="stroke:#181818;stroke-width:0.5;"/><polygon fill="#F1F1F1" points="250.4192,295.9063,262.4192,307.9063,250.4192,319.9063,238.4192,307.9063,250.4192,295.9063" style="stroke:#181818;stroke-width:0.5;"/><rect fill="#F1F1F1" height="33.9688" rx="12.5" ry="12.5" style="stroke:#181818;stroke-width:0.5;" width="116.709" x="192.0647" y="339.9063"/><text fill="#000000" font-family="sans-serif" font-size="12" lengthAdjust="spacing" textLength="96.709" x="202.0647" y="361.0449">Apply weighting</text><rect fill="#F1F1F1" height="33.9688" rx="12.5" ry="12.5" style="stroke:#181818;stroke-width:0.5;" width="220.0449" x="140.3967" y="393.875"/><text fill="#000000" font-family="sans-serif" font-size="12" lengthAdjust="spacing" textLength="200.0449" x="150.3967" y="415.0137">Aggregate weighted components</text><polygon fill="#F1F1F1" points="193.3567,496.2461,307.4817,496.2461,319.4817,508.2461,307.4817,520.2461,193.3567,520.2461,181.3567,508.2461,193.3567,496.2461" style="stroke:#181818;stroke-width:0.5;"/><text fill="#000000" font-family="sans-serif" font-size="11" lengthAdjust="spacing" textLength="114.125" x="193.3567" y="512.0542">Capping or flagging?</text><text fill="#000000" font-family="sans-serif" font-size="11" lengthAdjust="spacing" textLength="45.3965" x="135.9602" y="505.6519">Capping</text><text fill="#000000" font-family="sans-serif" font-size="11" lengthAdjust="spacing" textLength="47.0991" x="319.4817" y="505.6519">Flagging</text><rect fill="#F1F1F1" height="33.9688" rx="12.5" ry="12.5" style="stroke:#181818;stroke-width:0.5;" width="140.5859" x="91.2932" y="530.2461"/><text fill="#000000" font-family="sans-serif" font-size="12" lengthAdjust="spacing" textLength="120.5859" x="101.2932" y="551.3848">Cap extreme values</text><rect fill="#F1F1F1" height="33.9688" rx="12.5" ry="12.5" style="stroke:#181818;stroke-width:0.5;" width="174.7461" x="251.8792" y="530.2461"/><text fill="#000000" font-family="sans-serif" font-size="12" lengthAdjust="spacing" textLength="154.7461" x="261.8792" y="551.3848">Flag anomalies for review</text><polygon fill="#F1F1F1" points="250.4192,570.2148,262.4192,582.2148,250.4192,594.2148,238.4192,582.2148,250.4192,570.2148" style="stroke:#181818;stroke-width:0.5;"/><polygon fill="#F1F1F1" points="201.1045,447.8438,299.7339,447.8438,311.7339,459.8438,299.7339,471.8438,201.1045,471.8438,189.1045,459.8438,201.1045,447.8438" style="stroke:#181818;stroke-width:0.5;"/><text fill="#000000" font-family="sans-serif" font-size="11" lengthAdjust="spacing" textLength="19.2178" x="254.4192" y="482.0542">Yes</text><text fill="#000000" font-family="sans-serif" font-size="11" lengthAdjust="spacing" textLength="98.6294" x="201.1045" y="463.6519">Outlier detection?</text><polygon fill="#F1F1F1" points="250.4192,614.2148,262.4192,626.2148,250.4192,638.2148,238.4192,626.2148,250.4192,614.2148" style="stroke:#181818;stroke-width:0.5;"/><rect fill="#F1F1F1" height="33.9688" rx="12.5" ry="12.5" style="stroke:#181818;stroke-width:0.5;" width="102.4004" x="199.219" y="658.2148"/><text fill="#000000" font-family="sans-serif" font-size="12" lengthAdjust="spacing" textLength="82.4004" x="209.219" y="679.3535">Finalize index</text><rect fill="#F1F1F1" height="33.9688" rx="12.5" ry="12.5" style="stroke:#181818;stroke-width:0.5;" width="180.5879" x="160.1252" y="712.1836"/><text fill="#000000" font-family="sans-serif" font-size="12" lengthAdjust="spacing" textLength="160.5879" x="170.1252" y="733.3223">Version with weight profile</text><rect fill="#F1F1F1" height="33.9688" rx="12.5" ry="12.5" style="stroke:#181818;stroke-width:0.5;" width="143.9199" x="178.4592" y="766.1523"/><text fill="#000000" font-family="sans-serif" font-size="12" lengthAdjust="spacing" textLength="123.9199" x="188.4592" y="787.291">Store in IndexScores</text><rect fill="#F1F1F1" height="33.9688" rx="12.5" ry="12.5" style="stroke:#181818;stroke-width:0.5;" width="285.6348" x="107.6018" y="820.1211"/><text fill="#000000" font-family="sans-serif" font-size="12" lengthAdjust="spacing" textLength="265.6348" x="117.6018" y="841.2598">Link lineage to raw metrics and NLP outputs</text><rect fill="#F1F1F1" height="33.9688" rx="12.5" ry="12.5" style="stroke:#181818;stroke-width:0.5;" width="125.2813" x="187.7786" y="874.0898"/><text fill="#000000" font-family="sans-serif" font-size="12" lengthAdjust="spacing" textLength="105.2813" x="197.7786" y="895.2285">Layering involves</text><rect fill="#F1F1F1" height="33.9688" rx="12.5" ry="12.5" style="stroke:#181818;stroke-width:0.5;" width="144.9863" x="177.926" y="928.0586"/><text fill="#000000" font-family="sans-serif" font-size="12" lengthAdjust="spacing" textLength="124.9863" x="187.926" y="949.1973">Index Engine service</text><rect fill="#F1F1F1" height="33.9688" rx="12.5" ry="12.5" style="stroke:#181818;stroke-width:0.5;" width="173.8262" x="163.5061" y="982.0273"/><text fill="#000000" font-family="sans-serif" font-size="12" lengthAdjust="spacing" textLength="153.8262" x="173.5061" y="1003.166">Warehouse/Feature Store</text><rect fill="#F1F1F1" height="33.9688" rx="12.5" ry="12.5" style="stroke:#181818;stroke-width:0.5;" width="243.459" x="128.6897" y="1035.9961"/><text fill="#000000" font-family="sans-serif" font-size="12" lengthAdjust="spacing" textLength="223.459" x="138.6897" y="1057.1348">RBAC-protected weight configuration</text><rect fill="#F1F1F1" height="33.9688" rx="12.5" ry="12.5" style="stroke:#181818;stroke-width:0.5;" width="157.6895" x="171.5745" y="1089.9648"/><text fill="#000000" font-family="sans-serif" font-size="12" lengthAdjust="spacing" textLength="137.6895" x="181.5745" y="1111.1035">Dashboard query layer</text><ellipse cx="250.4192" cy="1154.9336" fill="none" rx="11" ry="11" style="stroke:#222222;stroke-width:1;"/><ellipse cx="250.4192" cy="1154.9336" fill="#222222" rx="6" ry="6" style="stroke:#222222;stroke-width:1;"/><line style="stroke:#181818;stroke-width:1;" x1="250.4192" x2="250.4192" y1="30" y2="50"/><polygon fill="#181818" points="246.4192,40,250.4192,50,254.4192,40,250.4192,44" style="stroke:#181818;stroke-width:1;"/><line style="stroke:#181818;stroke-width:1;" x1="93.7881" x2="93.7881" y1="171.9375" y2="191.9375"/><polygon fill="#181818" points="89.7881,181.9375,93.7881,191.9375,97.7881,181.9375,93.7881,185.9375" style="stroke:#181818;stroke-width:1;"/><line style="stroke:#181818;stroke-width:1;" x1="339.7791" x2="300.9746" y1="203.9375" y2="203.9375"/><line style="stroke:#181818;stroke-width:1;" x1="300.9746" x2="300.9746" y1="203.9375" y2="225.9375"/><polygon fill="#181818" points="296.9746,215.9375,300.9746,225.9375,304.9746,215.9375,300.9746,219.9375" style="stroke:#181818;stroke-width:1;"/><line style="stroke:#181818;stroke-width:1;" x1="474.3215" x2="513.126" y1="203.9375" y2="203.9375"/><line style="stroke:#181818;stroke-width:1;" x1="513.126" x2="513.126" y1="203.9375" y2="225.9375"/><polygon fill="#181818" points="509.126,215.9375,513.126,225.9375,517.126,215.9375,513.126,219.9375" style="stroke:#181818;stroke-width:1;"/><line style="stroke:#181818;stroke-width:1;" x1="300.9746" x2="300.9746" y1="259.9063" y2="277.9063"/><line style="stroke:#181818;stroke-width:1;" x1="300.9746" x2="395.0503" y1="277.9063" y2="277.9063"/><polygon fill="#181818" points="385.0503,273.9063,395.0503,277.9063,385.0503,281.9063,389.0503,277.9063" style="stroke:#181818;stroke-width:1;"/><line style="stroke:#181818;stroke-width:1;" x1="513.126" x2="513.126" y1="259.9063" y2="277.9063"/><line style="stroke:#181818;stroke-width:1;" x1="513.126" x2="419.0503" y1="277.9063" y2="277.9063"/><polygon fill="#181818" points="429.0503,273.9063,419.0503,277.9063,429.0503,281.9063,425.0503,277.9063" style="stroke:#181818;stroke-width:1;"/><line style="stroke:#181818;stroke-width:1;" x1="407.0503" x2="407.0503" y1="171.9375" y2="191.9375"/><polygon fill="#181818" points="403.0503,181.9375,407.0503,191.9375,411.0503,181.9375,407.0503,185.9375" style="stroke:#181818;stroke-width:1;"/><line style="stroke:#181818;stroke-width:1;" x1="182.3289" x2="93.7881" y1="115.9688" y2="115.9688"/><line style="stroke:#181818;stroke-width:1;" x1="93.7881" x2="93.7881" y1="115.9688" y2="137.9688"/><polygon fill="#181818" points="89.7881,127.9688,93.7881,137.9688,97.7881,127.9688,93.7881,131.9688" style="stroke:#181818;stroke-width:1;"/><line style="stroke:#181818;stroke-width:1;" x1="318.5095" x2="407.0503" y1="115.9688" y2="115.9688"/><line style="stroke:#181818;stroke-width:1;" x1="407.0503" x2="407.0503" y1="115.9688" y2="137.9688"/><polygon fill="#181818" points="403.0503,127.9688,407.0503,137.9688,411.0503,127.9688,407.0503,131.9688" style="stroke:#181818;stroke-width:1;"/><line style="stroke:#181818;stroke-width:1;" x1="93.7881" x2="93.7881" y1="225.9063" y2="307.9063"/><line style="stroke:#181818;stroke-width:1;" x1="93.7881" x2="238.4192" y1="307.9063" y2="307.9063"/><polygon fill="#181818" points="228.4192,303.9063,238.4192,307.9063,228.4192,311.9063,232.4192,307.9063" style="stroke:#181818;stroke-width:1;"/><line style="stroke:#181818;stroke-width:1;" x1="407.0503" x2="407.0503" y1="289.9063" y2="307.9063"/><line style="stroke:#181818;stroke-width:1;" x1="407.0503" x2="262.4192" y1="307.9063" y2="307.9063"/><polygon fill="#181818" points="272.4192,303.9063,262.4192,307.9063,272.4192,311.9063,268.4192,307.9063" style="stroke:#181818;stroke-width:1;"/><line style="stroke:#181818;stroke-width:1;" x1="250.4192" x2="250.4192" y1="83.9688" y2="103.9688"/><polygon fill="#181818" points="246.4192,93.9688,250.4192,103.9688,254.4192,93.9688,250.4192,97.9688" style="stroke:#181818;stroke-width:1;"/><line style="stroke:#181818;stroke-width:1;" x1="250.4192" x2="250.4192" y1="319.9063" y2="339.9063"/><polygon fill="#181818" points="246.4192,329.9063,250.4192,339.9063,254.4192,329.9063,250.4192,333.9063" style="stroke:#181818;stroke-width:1;"/><line style="stroke:#181818;stroke-width:1;" x1="250.4192" x2="250.4192" y1="373.875" y2="393.875"/><polygon fill="#181818" points="246.4192,383.875,250.4192,393.875,254.4192,383.875,250.4192,387.875" style="stroke:#181818;stroke-width:1;"/><line style="stroke:#181818;stroke-width:1;" x1="181.3567" x2="161.5862" y1="508.2461" y2="508.2461"/><line style="stroke:#181818;stroke-width:1;" x1="161.5862" x2="161.5862" y1="508.2461" y2="530.2461"/><polygon fill="#181818" points="157.5862,520.2461,161.5862,530.2461,165.5862,520.2461,161.5862,524.2461" style="stroke:#181818;stroke-width:1;"/><line style="stroke:#181818;stroke-width:1;" x1="319.4817" x2="339.2522" y1="508.2461" y2="508.2461"/><line style="stroke:#181818;stroke-width:1;" x1="339.2522" x2="339.2522" y1="508.2461" y2="530.2461"/><polygon fill="#181818" points="335.2522,520.2461,339.2522,530.2461,343.2522,520.2461,339.2522,524.2461" style="stroke:#181818;stroke-width:1;"/><line style="stroke:#181818;stroke-width:1;" x1="161.5862" x2="161.5862" y1="564.2148" y2="582.2148"/><line style="stroke:#181818;stroke-width:1;" x1="161.5862" x2="238.4192" y1="582.2148" y2="582.2148"/><polygon fill="#181818" points="228.4192,578.2148,238.4192,582.2148,228.4192,586.2148,232.4192,582.2148" style="stroke:#181818;stroke-width:1;"/><line style="stroke:#181818;stroke-width:1;" x1="339.2522" x2="339.2522" y1="564.2148" y2="582.2148"/><line style="stroke:#181818;stroke-width:1;" x1="339.2522" x2="262.4192" y1="582.2148" y2="582.2148"/><polygon fill="#181818" points="272.4192,578.2148,262.4192,582.2148,272.4192,586.2148,268.4192,582.2148" style="stroke:#181818;stroke-width:1;"/><line style="stroke:#181818;stroke-width:1;" x1="250.4192" x2="250.4192" y1="471.8438" y2="496.2461"/><polygon fill="#181818" points="246.4192,486.2461,250.4192,496.2461,254.4192,486.2461,250.4192,490.2461" style="stroke:#181818;stroke-width:1;"/><line style="stroke:#181818;stroke-width:1;" x1="311.7339" x2="446.6252" y1="459.8438" y2="459.8438"/><polygon fill="#181818" points="442.6252,535.2305,446.6252,545.2305,450.6252,535.2305,446.6252,539.2305" style="stroke:#181818;stroke-width:1;"/><line style="stroke:#181818;stroke-width:1;" x1="446.6252" x2="446.6252" y1="459.8438" y2="626.2148"/><line style="stroke:#181818;stroke-width:1;" x1="446.6252" x2="262.4192" y1="626.2148" y2="626.2148"/><polygon fill="#181818" points="272.4192,622.2148,262.4192,626.2148,272.4192,630.2148,268.4192,626.2148" style="stroke:#181818;stroke-width:1;"/><line style="stroke:#181818;stroke-width:1;" x1="250.4192" x2="250.4192" y1="594.2148" y2="614.2148"/><polygon fill="#181818" points="246.4192,604.2148,250.4192,614.2148,254.4192,604.2148,250.4192,608.2148" style="stroke:#181818;stroke-width:1;"/><line style="stroke:#181818;stroke-width:1;" x1="250.4192" x2="250.4192" y1="427.8438" y2="447.8438"/><polygon fill="#181818" points="246.4192,437.8438,250.4192,447.8438,254.4192,437.8438,250.4192,441.8438" style="stroke:#181818;stroke-width:1;"/><line style="stroke:#181818;stroke-width:1;" x1="250.4192" x2="250.4192" y1="638.2148" y2="658.2148"/><polygon fill="#181818" points="246.4192,648.2148,250.4192,658.2148,254.4192,648.2148,250.4192,652.2148" style="stroke:#181818;stroke-width:1;"/><line style="stroke:#181818;stroke-width:1;" x1="250.4192" x2="250.4192" y1="692.1836" y2="712.1836"/><polygon fill="#181818" points="246.4192,702.1836,250.4192,712.1836,254.4192,702.1836,250.4192,706.1836" style="stroke:#181818;stroke-width:1;"/><line style="stroke:#181818;stroke-width:1;" x1="250.4192" x2="250.4192" y1="746.1523" y2="766.1523"/><polygon fill="#181818" points="246.4192,756.1523,250.4192,766.1523,254.4192,756.1523,250.4192,760.1523" style="stroke:#181818;stroke-width:1;"/><line style="stroke:#181818;stroke-width:1;" x1="250.4192" x2="250.4192" y1="800.1211" y2="820.1211"/><polygon fill="#181818" points="246.4192,810.1211,250.4192,820.1211,254.4192,810.1211,250.4192,814.1211" style="stroke:#181818;stroke-width:1;"/><line style="stroke:#181818;stroke-width:1;" x1="250.4192" x2="250.4192" y1="854.0898" y2="874.0898"/><polygon fill="#181818" points="246.4192,864.0898,250.4192,874.0898,254.4192,864.0898,250.4192,868.0898" style="stroke:#181818;stroke-width:1;"/><line style="stroke:#181818;stroke-width:1;" x1="250.4192" x2="250.4192" y1="908.0586" y2="928.0586"/><polygon fill="#181818" points="246.4192,918.0586,250.4192,928.0586,254.4192,918.0586,250.4192,922.0586" style="stroke:#181818;stroke-width:1;"/><line style="stroke:#181818;stroke-width:1;" x1="250.4192" x2="250.4192" y1="962.0273" y2="982.0273"/><polygon fill="#181818" points="246.4192,972.0273,250.4192,982.0273,254.4192,972.0273,250.4192,976.0273" style="stroke:#181818;stroke-width:1;"/><line style="stroke:#181818;stroke-width:1;" x1="250.4192" x2="250.4192" y1="1015.9961" y2="1035.9961"/><polygon fill="#181818" points="246.4192,1025.9961,250.4192,1035.9961,254.4192,1025.9961,250.4192,1029.9961" style="stroke:#181818;stroke-width:1;"/><line style="stroke:#181818;stroke-width:1;" x1="250.4192" x2="250.4192" y1="1069.9648" y2="1089.9648"/><polygon fill="#181818" points="246.4192,1079.9648,250.4192,1089.9648,254.4192,1079.9648,250.4192,1083.9648" style="stroke:#181818;stroke-width:1;"/><line style="stroke:#181818;stroke-width:1;" x1="250.4192" x2="250.4192" y1="1123.9336" y2="1143.9336"/><polygon fill="#181818" points="246.4192,1133.9336,250.4192,1143.9336,254.4192,1133.9336,250.4192,1137.9336" style="stroke:#181818;stroke-width:1;"/><!--SRC=[RL9DZzD03BtdL_ZOFLJSsmDQTgc4j9IAHI2ucSIPM4ncWiUJjlnwFCbGWPPBbDX-VXzEKXHjTgViFOGe8th-HHrmcBAcVSCzR1vH4TeuJfwK0gNq-Wvqe02ROxnh07QVX9qZ0HuDXCenW6HF1hVcVUvOGGNPxnloYM3pbTA2EqbioSWqtgWNTC4LukFVHT3hH3VcRzlKHg6ofd1Caxz2hRtSjRA-vx0TyV8FfDR-0maTzytwREhmcTWDoi7jhUASa4EbMZKN9Q4OAFo9xKDMpvPAPwcrPUzDVFLVXXvmccmZH87UetFsVXkhlIhOle0kAZGIpEZp6kzgxL2XTRHy0ePOB562tfOBpKpdbyuE79QBsy4xkfYnpoIff7rc7Qetc2JsxCcwpre2vW3lolXpYTjax9uu_03FWT1HkQRW6KPIuJQPZWwEJoU8MTTVoiRnIb9SSvYZdvSLoq9u6ym6GIAPkIs4Nr1eY3dHgmEXPYDV95ZduvlxXwqfA-5Q-bLg6qFFBaizvEuHq_0zedJmCvDSmHTgqv0qJhy1]--></g></svg>