<svg xmlns="http://www.w3.org/2000/svg" xmlns:xlink="http://www.w3.org/1999/xlink" contentStyleType="text/css" data-diagram-type="ACTIVITY" height="416px" preserveAspectRatio="none" style="width:402px;height:416px;background:#FFFFFF;" version="1.1" viewBox="0 0 402 416" width="402px" zoomAndPan="magnify"><defs/><g><ellipse cx="217.1709" cy="20" fill="#222222" rx="10" ry="10" style="stroke:#222222;stroke-width:1;"/><rect fill="#F1F1F1" height="33.9688" rx="12.5" ry="12.5" style="stroke:#181818;stroke-width:0.5;" width="122.0352" x="156.1533" y="50"/><text fill="#000000" font-family="sans-serif" font-size="12" lengthAdjust="spacing" textLength="102.0352" x="166.1533" y="71.1387">User defines rule</text><rect fill="#F1F1F1" height="33.9688" rx="12.5" ry="12.5" style="stroke:#181818;stroke-width:0.5;" width="122.9961" x="155.6729" y="103.9688"/><text fill="#000000" font-family="sans-serif" font-size="12" lengthAdjust="spacing" textLength="102.9961" x="165.6729" y="125.1074">System validates</text><polygon fill="#F1F1F1" points="156.4534,157.9375,277.8884,157.9375,289.8884,169.9375,277.8884,181.9375,156.4534,181.9375,144.4534,169.9375,156.4534,157.9375" style="stroke:#181818;stroke-width:0.5;"/><text fill="#000000" font-family="sans-serif" font-size="11" lengthAdjust="spacing" textLength="121.4351" x="156.4534" y="173.7456">Validation successful?</text><text fill="#000000" font-family="sans-serif" font-size="11" lengthAdjust="spacing" textLength="19.0083" x="125.4451" y="167.3433">yes</text><text fill="#000000" font-family="sans-serif" font-size="11" lengthAdjust="spacing" textLength="13.7017" x="289.8884" y="167.3433">no</text><rect fill="#F1F1F1" height="33.9688" rx="12.5" ry="12.5" style="stroke:#181818;stroke-width:0.5;" width="129.9746" x="52.0244" y="191.9375"/><text fill="#000000" font-family="sans-serif" font-size="12" lengthAdjust="spacing" textLength="109.9746" x="62.0244" y="213.0762">System saves rule</text><rect fill="#F1F1F1" height="33.9688" rx="12.5" ry="12.5" style="stroke:#181818;stroke-width:0.5;" width="212.0234" x="11" y="245.9063"/><text fill="#000000" font-family="sans-serif" font-size="12" lengthAdjust="spacing" textLength="192.0234" x="21" y="267.0449">Alerts Service schedules checks</text><rect fill="#F1F1F1" height="33.9688" rx="12.5" ry="12.5" style="stroke:#181818;stroke-width:0.5;" width="148.3496" x="42.8369" y="299.875"/><text fill="#000000" font-family="sans-serif" font-size="12" lengthAdjust="spacing" textLength="128.3496" x="52.8369" y="321.0137">Notifications are sent</text><rect fill="#F1F1F1" height="33.9688" rx="12.5" ry="12.5" style="stroke:#181818;stroke-width:0.5;" width="148.6133" x="243.0234" y="191.9375"/><text fill="#000000" font-family="sans-serif" font-size="12" lengthAdjust="spacing" textLength="128.6133" x="253.0234" y="213.0762">Show validation error</text><polygon fill="#F1F1F1" points="217.1709,339.8438,229.1709,351.8438,217.1709,363.8438,205.1709,351.8438,217.1709,339.8438" style="stroke:#181818;stroke-width:0.5;"/><ellipse cx="217.1709" cy="394.8438" fill="none" rx="11" ry="11" style="stroke:#222222;stroke-width:1;"/><ellipse cx="217.1709" cy="394.8438" fill="#222222" rx="6" ry="6" style="stroke:#222222;stroke-width:1;"/><line style="stroke:#181818;stroke-width:1;" x1="217.1709" x2="217.1709" y1="30" y2="50"/><polygon fill="#181818" points="213.1709,40,217.1709,50,221.1709,40,217.1709,44" style="stroke:#181818;stroke-width:1;"/><line style="stroke:#181818;stroke-width:1;" x1="217.1709" x2="217.1709" y1="83.9688" y2="103.9688"/><polygon fill="#181818" points="213.1709,93.9688,217.1709,103.9688,221.1709,93.9688,217.1709,97.9688" style="stroke:#181818;stroke-width:1;"/><line style="stroke:#181818;stroke-width:1;" x1="117.0117" x2="117.0117" y1="225.9063" y2="245.9063"/><polygon fill="#181818" points="113.0117,235.9063,117.0117,245.9063,121.0117,235.9063,117.0117,239.9063" style="stroke:#181818;stroke-width:1;"/><line style="stroke:#181818;stroke-width:1;" x1="117.0117" x2="117.0117" y1="279.875" y2="299.875"/><polygon fill="#181818" points="113.0117,289.875,117.0117,299.875,121.0117,289.875,117.0117,293.875" style="stroke:#181818;stroke-width:1;"/><line style="stroke:#181818;stroke-width:1;" x1="144.4534" x2="117.0117" y1="169.9375" y2="169.9375"/><line style="stroke:#181818;stroke-width:1;" x1="117.0117" x2="117.0117" y1="169.9375" y2="191.9375"/><polygon fill="#181818" points="113.0117,181.9375,117.0117,191.9375,121.0117,181.9375,117.0117,185.9375" style="stroke:#181818;stroke-width:1;"/><line style="stroke:#181818;stroke-width:1;" x1="289.8884" x2="317.3301" y1="169.9375" y2="169.9375"/><line style="stroke:#181818;stroke-width:1;" x1="317.3301" x2="317.3301" y1="169.9375" y2="191.9375"/><polygon fill="#181818" points="313.3301,181.9375,317.3301,191.9375,321.3301,181.9375,317.3301,185.9375" style="stroke:#181818;stroke-width:1;"/><line style="stroke:#181818;stroke-width:1;" x1="117.0117" x2="117.0117" y1="333.8438" y2="351.8438"/><line style="stroke:#181818;stroke-width:1;" x1="117.0117" x2="205.1709" y1="351.8438" y2="351.8438"/><polygon fill="#181818" points="195.1709,347.8438,205.1709,351.8438,195.1709,355.8438,199.1709,351.8438" style="stroke:#181818;stroke-width:1;"/><line style="stroke:#181818;stroke-width:1;" x1="317.3301" x2="317.3301" y1="225.9063" y2="351.8438"/><line style="stroke:#181818;stroke-width:1;" x1="317.3301" x2="229.1709" y1="351.8438" y2="351.8438"/><polygon fill="#181818" points="239.1709,347.8438,229.1709,351.8438,239.1709,355.8438,235.1709,351.8438" style="stroke:#181818;stroke-width:1;"/><line style="stroke:#181818;stroke-width:1;" x1="217.1709" x2="217.1709" y1="137.9375" y2="157.9375"/><polygon fill="#181818" points="213.1709,147.9375,217.1709,157.9375,221.1709,147.9375,217.1709,151.9375" style="stroke:#181818;stroke-width:1;"/><line style="stroke:#181818;stroke-width:1;" x1="217.1709" x2="217.1709" y1="363.8438" y2="383.8438"/><polygon fill="#181818" points="213.1709,373.8438,217.1709,383.8438,221.1709,373.8438,217.1709,377.8438" style="stroke:#181818;stroke-width:1;"/><!--SRC=[HOux3i8m44HxdsBBK701a41SW2Q2tdB6YeMnqSucYDjZY0BTQlRDX-RLdDjT29K1CHLGTChOk-sXwVsBXhlCFgV16xZ8AKftNQHKYt0A0MISyd4ZDg98zm8tJcJrqy-_N94MqLwd33LA3vrJW32C61f0QKUuyG-UgwMOmhUBuhMnABPto8HqfIv5OtskCp-Re5grCML8qJbQVRm1]--></g></svg>