<svg xmlns="http://www.w3.org/2000/svg" xmlns:xlink="http://www.w3.org/1999/xlink" contentStyleType="text/css" data-diagram-type="DESCRIPTION" height="251px" preserveAspectRatio="none" style="width:849px;height:251px;background:#FFFFFF;" version="1.1" viewBox="0 0 849 251" width="849px" zoomAndPan="magnify"><defs/><g><!--entity MPRT--><g class="entity" data-entity="MPRT" data-source-line="1" data-uid="ent0002" id="entity_MPRT"><ellipse cx="459.4573" cy="71.12" fill="#F1F1F1" rx="8" ry="8" style="stroke:#181818;stroke-width:0.5;"/><path d="M459.4573,79.12 L459.4573,106.12 M446.4573,87.12 L472.4573,87.12 M459.4573,106.12 L446.4573,121.12 M459.4573,106.12 L472.4573,121.12" fill="none" style="stroke:#181818;stroke-width:0.5;"/><text fill="#000000" font-family="sans-serif" font-size="14" lengthAdjust="spacing" textLength="260.3945" x="329.26" y="135.6151">Marketing and Public Relations Team</text></g><!--entity SMAI--><g class="entity" data-entity="SMAI" data-source-line="2" data-uid="ent0003" id="entity_SMAI"><ellipse cx="192.4561" cy="71.12" fill="#F1F1F1" rx="8" ry="8" style="stroke:#181818;stroke-width:0.5;"/><path d="M192.4561,79.12 L192.4561,106.12 M179.4561,87.12 L205.4561,87.12 M192.4561,106.12 L179.4561,121.12 M192.4561,106.12 L205.4561,121.12" fill="none" style="stroke:#181818;stroke-width:0.5;"/><text fill="#000000" font-family="sans-serif" font-size="14" lengthAdjust="spacing" textLength="203.4922" x="90.71" y="135.6151">Social Media API Integrations</text></g><!--entity SMDA--><g class="entity" data-entity="SMDA" data-source-line="4" data-uid="ent0004" id="entity_SMDA"><ellipse cx="111.4568" cy="222.4114" fill="#F1F1F1" rx="105.4568" ry="23.4914" style="stroke:#181818;stroke-width:0.5;"/><text fill="#000000" font-family="sans-serif" font-size="14" lengthAdjust="spacing" textLength="188.0156" x="17.449" y="227.0598">Social Media Data Analysis</text></g><!--entity EM--><g class="entity" data-entity="EM" data-source-line="5" data-uid="ent0005" id="entity_EM"><ellipse cx="337.4646" cy="222.4149" fill="#F1F1F1" rx="85.9746" ry="19.5949" style="stroke:#181818;stroke-width:0.5;"/><text fill="#000000" font-family="sans-serif" font-size="14" lengthAdjust="spacing" textLength="144.5664" x="265.1814" y="227.0634">Engagement Metrics</text></g><!--entity ST--><g class="entity" data-entity="ST" data-source-line="6" data-uid="ent0006" id="entity_ST"><ellipse cx="541.4577" cy="222.4135" fill="#F1F1F1" rx="82.7677" ry="18.9535" style="stroke:#181818;stroke-width:0.5;"/><text fill="#000000" font-family="sans-serif" font-size="14" lengthAdjust="spacing" textLength="137.1563" x="472.8796" y="227.062">Sentiment Tracking</text></g><g class="entity" data-entity="GMN13" data-source-line="17" data-uid="ent0014" id="entity_GMN13"><path d="M624.63,80.64 L624.63,120.9056 L842.274,120.9056 L842.274,90.64 L832.274,80.64 L624.63,80.64" fill="#FEFFDD" style="stroke:#181818;stroke-width:0.5;"/><path d="M832.274,80.64 L832.274,90.64 L842.274,90.64 L832.274,80.64" fill="#FEFFDD" style="stroke:#181818;stroke-width:1;"/><text fill="#000000" font-family="sans-serif" font-size="13" lengthAdjust="spacing" textLength="196.644" x="630.63" y="97.7069">Data flows from platforms like</text><text fill="#000000" font-family="sans-serif" font-size="13" lengthAdjust="spacing" textLength="154.0068" x="630.63" y="112.8397">Facebook and Twitter/X</text></g><!--link MPRT to SMDA--><g class="link" data-entity-1="MPRT" data-entity-2="SMDA" data-source-line="8" data-uid="lnk7" id="link_MPRT_SMDA"><path d="M350.3,139.3 C289.71,160.13 222.5441,183.2194 173.3541,200.1294" fill="none" id="MPRT-to-SMDA" style="stroke:#181818;stroke-width:1;"/><polygon fill="#181818" points="167.68,202.08,177.4915,202.9369,172.4084,200.4545,174.8907,195.3714,167.68,202.08" style="stroke:#181818;stroke-width:1;"/></g><!--link MPRT to EM--><g class="link" data-entity-1="MPRT" data-entity-2="EM" data-source-line="9" data-uid="lnk8" id="link_MPRT_EM"><path d="M421.19,139.3 C399.53,160.54 377.6834,181.9586 360.4434,198.8686" fill="none" id="MPRT-to-EM" style="stroke:#181818;stroke-width:1;"/><polygon fill="#181818" points="356.16,203.07,365.3861,199.6235,359.7295,199.5688,359.7842,193.9122,356.16,203.07" style="stroke:#181818;stroke-width:1;"/></g><!--link MPRT to ST--><g class="link" data-entity-1="MPRT" data-entity-2="ST" data-source-line="10" data-uid="lnk9" id="link_MPRT_ST"><path d="M485.18,139.3 C499.83,160.68 514.1279,181.5409 525.7179,198.4509" fill="none" id="MPRT-to-ST" style="stroke:#181818;stroke-width:1;"/><polygon fill="#181818" points="529.11,203.4,527.3213,193.7149,526.2833,199.2757,520.7225,198.2377,529.11,203.4" style="stroke:#181818;stroke-width:1;"/></g><!--link SMAI to SMDA--><g class="link" data-entity-1="SMAI" data-entity-2="SMDA" data-source-line="12" data-uid="lnk10" id="link_SMAI_SMDA"><path d="M167.05,139.3 C153.78,158.89 141.355,177.2524 129.995,194.0224" fill="none" id="SMAI-to-SMDA" style="stroke:#181818;stroke-width:1;"/><polygon fill="#181818" points="126.63,198.99,134.9892,193.782,129.4342,194.8504,128.3658,189.2953,126.63,198.99" style="stroke:#181818;stroke-width:1;"/></g><!--link SMAI to EM--><g class="link" data-entity-1="SMAI" data-entity-2="EM" data-source-line="13" data-uid="lnk11" id="link_SMAI_EM"><path d="M237.94,139.3 C263.68,160.54 290.1124,182.3409 310.6024,199.2509" fill="none" id="SMAI-to-EM" style="stroke:#181818;stroke-width:1;"/><polygon fill="#181818" points="315.23,203.07,310.8346,194.2563,311.3737,199.8874,305.7425,200.4265,315.23,203.07" style="stroke:#181818;stroke-width:1;"/></g><!--link SMAI to ST--><g class="link" data-entity-1="SMAI" data-entity-2="ST" data-source-line="14" data-uid="lnk12" id="link_SMAI_ST"><path d="M294.34,136.7 C361.54,159.73 440.5542,186.8144 491.3142,204.2144" fill="none" id="SMAI-to-ST" style="stroke:#181818;stroke-width:1;"/><polygon fill="#181818" points="496.99,206.16,489.7734,199.4577,492.2602,204.5387,487.1792,207.0255,496.99,206.16" style="stroke:#181818;stroke-width:1;"/></g><!--link SMAI to GMN13--><g class="link" data-entity-1="SMAI" data-entity-2="GMN13" data-source-line="17" data-uid="lnk15" id="link_SMAI_GMN13"><path d="M254.36,62.28 C276.97,50.31 303.31,38.67 328.96,32.62 C441.86,6 476.8,7.12 589.96,32.62 C630.45,41.75 672.93,63.7 701.06,80.24" fill="none" id="SMAI-GMN13" style="stroke:#181818;stroke-width:1;stroke-dasharray:7,7;"/></g><!--SRC=[NP31QiCm44Jl-eebzz0_A1YIW0y2a-ZGwqPPgujbAKWRGly-Qul6fSTXtWopYrvoWPt5Cf5m2e3f1iFZ6jd3cI8AvrJ14Suxm0fsE3k3BNF9dZ62fHiZT4CFVH8AfKLM-cAxtfX79O-L_WKEA9fA67yg_zA7ReEFAM2WcP9eG0hx1XtjdpurUILSGJ_f-jRZZ5bsmdx_sKhVIjERezWoSCFUIh7DKInb8IWSlWNosAw2Ti0OyxF2MF8CTttMcCjS8V942fpGqpNdQNsfUx88bOylGwgMGlC2]--></g></svg>