<svg xmlns="http://www.w3.org/2000/svg" xmlns:xlink="http://www.w3.org/1999/xlink" contentStyleType="text/css" data-diagram-type="SEQUENCE" height="399px" preserveAspectRatio="none" style="width:505px;height:399px;background:#FFFFFF;" version="1.1" viewBox="0 0 505 399" width="505px" zoomAndPan="magnify"><defs/><g><g><title>User</title><rect fill="#000000" fill-opacity="0.00000" height="236.9297" width="8" x="19.9551" y="81.2969"/><line style="stroke:#181818;stroke-width:0.5;stroke-dasharray:5,5;" x1="23" x2="23" y1="81.2969" y2="318.2266"/></g><g><title>Web App</title><rect fill="#000000" fill-opacity="0.00000" height="236.9297" width="8" x="146.9331" y="81.2969"/><line style="stroke:#181818;stroke-width:0.5;stroke-dasharray:5,5;" x1="150.3613" x2="150.3613" y1="81.2969" y2="318.2266"/></g><g><title>Scenario Store</title><rect fill="#000000" fill-opacity="0.00000" height="236.9297" width="8" x="337.4487" y="81.2969"/><line style="stroke:#181818;stroke-width:0.5;stroke-dasharray:5,5;" x1="341.1382" x2="341.1382" y1="81.2969" y2="318.2266"/></g><g><title>ML Service</title><rect fill="#000000" fill-opacity="0.00000" height="236.9297" width="8" x="450.7944" y="81.2969"/><line style="stroke:#181818;stroke-width:0.5;stroke-dasharray:5,5;" x1="454.7593" x2="454.7593" y1="81.2969" y2="318.2266"/></g><g class="participant participant-head" data-participant="User"><text fill="#000000" font-family="sans-serif" font-size="14" lengthAdjust="spacing" textLength="31.9102" x="5" y="77.9951">User</text><ellipse cx="23.9551" cy="13.5" fill="#E2E2F0" rx="8" ry="8" style="stroke:#181818;stroke-width:0.5;"/><path d="M23.9551,21.5 L23.9551,48.5 M10.9551,29.5 L36.9551,29.5 M23.9551,48.5 L10.9551,63.5 M23.9551,48.5 L36.9551,63.5" fill="none" style="stroke:#181818;stroke-width:0.5;"/></g><g class="participant participant-tail" data-participant="User"><text fill="#000000" font-family="sans-serif" font-size="14" lengthAdjust="spacing" textLength="31.9102" x="5" y="330.2217">User</text><ellipse cx="23.9551" cy="342.0234" fill="#E2E2F0" rx="8" ry="8" style="stroke:#181818;stroke-width:0.5;"/><path d="M23.9551,350.0234 L23.9551,377.0234 M10.9551,358.0234 L36.9551,358.0234 M23.9551,377.0234 L10.9551,392.0234 M23.9551,377.0234 L36.9551,392.0234" fill="none" style="stroke:#181818;stroke-width:0.5;"/></g><g class="participant participant-head" data-participant="WebApp"><rect fill="#E2E2F0" height="30.2969" rx="2.5" ry="2.5" style="stroke:#181818;stroke-width:0.5;" width="77.1436" x="112.3613" y="50"/><text fill="#000000" font-family="sans-serif" font-size="14" lengthAdjust="spacing" textLength="63.1436" x="119.3613" y="69.9951">Web App</text></g><g class="participant participant-tail" data-participant="WebApp"><rect fill="#E2E2F0" height="30.2969" rx="2.5" ry="2.5" style="stroke:#181818;stroke-width:0.5;" width="77.1436" x="112.3613" y="317.2266"/><text fill="#000000" font-family="sans-serif" font-size="14" lengthAdjust="spacing" textLength="63.1436" x="119.3613" y="337.2217">Web App</text></g><g class="participant participant-head" data-participant="ScenarioStore"><rect fill="#E2E2F0" height="30.2969" rx="2.5" ry="2.5" style="stroke:#181818;stroke-width:0.5;" width="116.6211" x="283.1382" y="50"/><text fill="#000000" font-family="sans-serif" font-size="14" lengthAdjust="spacing" textLength="102.6211" x="290.1382" y="69.9951">Scenario Store</text></g><g class="participant participant-tail" data-participant="ScenarioStore"><rect fill="#E2E2F0" height="30.2969" rx="2.5" ry="2.5" style="stroke:#181818;stroke-width:0.5;" width="116.6211" x="283.1382" y="317.2266"/><text fill="#000000" font-family="sans-serif" font-size="14" lengthAdjust="spacing" textLength="102.6211" x="290.1382" y="337.2217">Scenario Store</text></g><g class="participant participant-head" data-participant="MLService"><rect fill="#E2E2F0" height="30.2969" rx="2.5" ry="2.5" style="stroke:#181818;stroke-width:0.5;" width="90.0703" x="409.7593" y="50"/><text fill="#000000" font-family="sans-serif" font-size="14" lengthAdjust="spacing" textLength="76.0703" x="416.7593" y="69.9951">ML Service</text></g><g class="participant participant-tail" data-participant="MLService"><rect fill="#E2E2F0" height="30.2969" rx="2.5" ry="2.5" style="stroke:#181818;stroke-width:0.5;" width="90.0703" x="409.7593" y="317.2266"/><text fill="#000000" font-family="sans-serif" font-size="14" lengthAdjust="spacing" textLength="76.0703" x="416.7593" y="337.2217">ML Service</text></g><g class="message" data-participant-1="User" data-participant-2="WebApp"><polygon fill="#181818" points="138.9331,108.4297,148.9331,112.4297,138.9331,116.4297,142.9331,112.4297" style="stroke:#181818;stroke-width:1;"/><line style="stroke:#181818;stroke-width:1;" x1="23.9551" x2="144.9331" y1="112.4297" y2="112.4297"/><text fill="#000000" font-family="sans-serif" font-size="13" lengthAdjust="spacing" textLength="102.978" x="30.9551" y="107.3638">Initiate Request</text></g><g class="message" data-participant-1="WebApp" data-participant-2="ScenarioStore"><polygon fill="#181818" points="329.4487,137.5625,339.4487,141.5625,329.4487,145.5625,333.4487,141.5625" style="stroke:#181818;stroke-width:1;"/><line style="stroke:#181818;stroke-width:1;" x1="150.9331" x2="335.4487" y1="141.5625" y2="141.5625"/><text fill="#000000" font-family="sans-serif" font-size="13" lengthAdjust="spacing" textLength="115.4194" x="157.9331" y="136.4966">Retrieve Scenario</text></g><g class="message" data-participant-1="ScenarioStore" data-participant-2="WebApp"><polygon fill="#181818" points="161.9331,166.6953,151.9331,170.6953,161.9331,174.6953,157.9331,170.6953" style="stroke:#181818;stroke-width:1;"/><line style="stroke:#181818;stroke-width:1;" x1="155.9331" x2="340.4487" y1="170.6953" y2="170.6953"/><text fill="#000000" font-family="sans-serif" font-size="13" lengthAdjust="spacing" textLength="104.5967" x="167.9331" y="165.6294">Return Scenario</text></g><g class="message" data-participant-1="WebApp" data-participant-2="MLService"><polygon fill="#181818" points="442.7944,195.8281,452.7944,199.8281,442.7944,203.8281,446.7944,199.8281" style="stroke:#181818;stroke-width:1;"/><line style="stroke:#181818;stroke-width:1;" x1="150.9331" x2="448.7944" y1="199.8281" y2="199.8281"/><text fill="#000000" font-family="sans-serif" font-size="13" lengthAdjust="spacing" textLength="168.3271" x="157.9331" y="194.7622">Send Scenario for Scoring</text></g><g class="message" data-participant-1="MLService" data-participant-2="WebApp"><polygon fill="#181818" points="161.9331,224.9609,151.9331,228.9609,161.9331,232.9609,157.9331,228.9609" style="stroke:#181818;stroke-width:1;"/><line style="stroke:#181818;stroke-width:1;" x1="155.9331" x2="453.7944" y1="228.9609" y2="228.9609"/><text fill="#000000" font-family="sans-serif" font-size="13" lengthAdjust="spacing" textLength="84.7793" x="167.9331" y="223.895">Return Score</text></g><g class="message" data-participant-1="WebApp" data-participant-2="WebApp"><line style="stroke:#181818;stroke-width:1;" x1="150.9331" x2="192.9331" y1="258.0938" y2="258.0938"/><line style="stroke:#181818;stroke-width:1;" x1="192.9331" x2="192.9331" y1="258.0938" y2="271.0938"/><line style="stroke:#181818;stroke-width:1;" x1="151.9331" x2="192.9331" y1="271.0938" y2="271.0938"/><polygon fill="#181818" points="161.9331,267.0938,151.9331,271.0938,161.9331,275.0938,157.9331,271.0938" style="stroke:#181818;stroke-width:1;"/><text fill="#000000" font-family="sans-serif" font-size="13" lengthAdjust="spacing" textLength="176.5156" x="157.9331" y="253.0278">Compare Score to Baseline</text></g><g class="message" data-participant-1="WebApp" data-participant-2="ScenarioStore"><polygon fill="#181818" points="329.4487,296.2266,339.4487,300.2266,329.4487,304.2266,333.4487,300.2266" style="stroke:#181818;stroke-width:1;"/><line style="stroke:#181818;stroke-width:1;" x1="150.9331" x2="335.4487" y1="300.2266" y2="300.2266"/><text fill="#000000" font-family="sans-serif" font-size="13" lengthAdjust="spacing" textLength="107.4785" x="157.9331" y="295.1606">Persist Selection</text></g><!--SRC=[TP3F2i8m3CRlVOgmko-mWw2UX0t48PvhZHAOxKopFR_Plyw1tj9yltxv4kiaC5mYicai2pbgh1V8hdY3NTDaO2DehULQhnnwonIWqlyuO7DhwApfie0AkICtacKnlOpf9yDcEyt8uUX9o0h26TyjHZ6Zq2Ch_rm1OS8EKz-iW6zJHLls2xXufYIv1lJtXC13hrAvmEIV9a4_FVjb5yDPFeINNW177IJ0taQioUF_XKx8aQ9ea1gTKF0V]--></g></svg>