<svg xmlns="http://www.w3.org/2000/svg" xmlns:xlink="http://www.w3.org/1999/xlink" contentStyleType="text/css" data-diagram-type="DESCRIPTION" height="196px" preserveAspectRatio="none" style="width:603px;height:196px;background:#FFFFFF;" version="1.1" viewBox="0 0 603 196" width="603px" zoomAndPan="magnify"><defs/><g><!--entity admin--><g class="entity" data-entity="admin" data-source-line="1" data-uid="ent0002" id="entity_admin"><ellipse cx="261.8494" cy="14" fill="#F1F1F1" rx="8" ry="8" style="stroke:#181818;stroke-width:0.5;"/><path d="M261.8494,22 L261.8494,49 M248.8494,30 L274.8494,30 M261.8494,49 L248.8494,64 M261.8494,49 L274.8494,64" fill="none" style="stroke:#181818;stroke-width:0.5;"/><text fill="#000000" font-family="sans-serif" font-size="14" lengthAdjust="spacing" textLength="152.3389" x="185.68" y="78.4951">System Administrator</text></g><!--entity addUsers--><g class="entity" data-entity="addUsers" data-source-line="3" data-uid="ent0003" id="entity_addUsers"><ellipse cx="75.8465" cy="166.1793" fill="#F1F1F1" rx="69.8465" ry="16.3693" style="stroke:#181818;stroke-width:0.5;"/><text fill="#000000" font-family="sans-serif" font-size="14" lengthAdjust="spacing" textLength="105.9912" x="22.8509" y="170.8277">Add New Users</text></g><!--entity assignPermissions--><g class="entity" data-entity="assignPermissions" data-source-line="4" data-uid="ent0004" id="entity_assignPermissions"><ellipse cx="261.8454" cy="166.1771" fill="#F1F1F1" rx="81.3354" ry="18.6671" style="stroke:#181818;stroke-width:0.5;"/><text fill="#000000" font-family="sans-serif" font-size="14" lengthAdjust="spacing" textLength="133.8135" x="194.9387" y="170.8255">Assign Permissions</text></g><!--entity manageLinks--><g class="entity" data-entity="manageLinks" data-source-line="5" data-uid="ent0005" id="entity_manageLinks"><ellipse cx="487.849" cy="166.1798" fill="#F1F1F1" rx="109.899" ry="24.3798" style="stroke:#181818;stroke-width:0.5;"/><text fill="#000000" font-family="sans-serif" font-size="14" lengthAdjust="spacing" textLength="197.6611" x="389.0185" y="170.8282">Manage Departmental Links</text></g><!--link admin to addUsers--><g class="link" data-entity-1="admin" data-entity-2="addUsers" data-source-line="7" data-uid="lnk6" id="link_admin_addUsers"><path d="M203.76,82.29 C168.16,105.36 129.6051,130.3469 103.6051,147.1969" fill="none" id="admin-to-addUsers" style="stroke:#181818;stroke-width:1;"/><polygon fill="#181818" points="98.57,150.46,108.298,148.922,102.7659,147.7407,103.9472,142.2086,98.57,150.46" style="stroke:#181818;stroke-width:1;"/></g><!--link admin to assignPermissions--><g class="link" data-entity-1="admin" data-entity-2="assignPermissions" data-source-line="8" data-uid="lnk7" id="link_admin_assignPermissions"><path d="M261.85,82.13 C261.85,103.83 261.85,124.15 261.85,141.26" fill="none" id="admin-to-assignPermissions" style="stroke:#181818;stroke-width:1;"/><polygon fill="#181818" points="261.85,147.26,265.85,138.26,261.85,142.26,257.85,138.26,261.85,147.26" style="stroke:#181818;stroke-width:1;"/></g><!--link admin to manageLinks--><g class="link" data-entity-1="admin" data-entity-2="manageLinks" data-source-line="9" data-uid="lnk8" id="link_admin_manageLinks"><path d="M332.42,82.29 C369.98,102.32 409.5661,123.426 441.4161,140.416" fill="none" id="admin-to-manageLinks" style="stroke:#181818;stroke-width:1;"/><polygon fill="#181818" points="446.71,143.24,440.6518,135.4748,442.2984,140.8867,436.8865,142.5333,446.71,143.24" style="stroke:#181818;stroke-width:1;"/></g><!--SRC=[POx12W8n34Jl_OgXz_q5OS6ZYY1-GDY6fMYoqbJ4ltUD2oruoxpCP49JNGhYvMsL1MEIhDbgePL6a86-98IdyKJ6Y6DAEF4BL-DYcoEvw3ncULQSkKXUnqKte-EEjiIHb6R6dXzKgh1MkkEGzVOBYczTX-0FOHXshRX3VnLjrrtv0000]--></g></svg>