<svg xmlns="http://www.w3.org/2000/svg" xmlns:xlink="http://www.w3.org/1999/xlink" contentStyleType="text/css" data-diagram-type="SEQUENCE" height="444px" preserveAspectRatio="none" style="width:654px;height:444px;background:#FFFFFF;" version="1.1" viewBox="0 0 654 444" width="654px" zoomAndPan="magnify"><defs/><g><rect fill="none" height="119.3359" style="stroke:#000000;stroke-width:1.5;" width="637.6367" x="10" y="227.8281"/><g><title>User</title><rect fill="#000000" fill-opacity="0.00000" height="282.8672" width="8" x="34.9551" y="81.2969"/><line style="stroke:#181818;stroke-width:0.5;stroke-dasharray:5,5;" x1="38" x2="38" y1="81.2969" y2="364.1641"/></g><g><title>App</title><rect fill="#000000" fill-opacity="0.00000" height="282.8672" width="8" x="228.8374" y="81.2969"/><line style="stroke:#181818;stroke-width:0.5;stroke-dasharray:5,5;" x1="232.1621" x2="232.1621" y1="81.2969" y2="364.1641"/></g><g><title>Geocoding Service</title><rect fill="#000000" fill-opacity="0.00000" height="282.8672" width="8" x="470.3271" y="81.2969"/><line style="stroke:#181818;stroke-width:0.5;stroke-dasharray:5,5;" x1="473.8184" x2="473.8184" y1="81.2969" y2="364.1641"/></g><g><title>Database</title><rect fill="#000000" fill-opacity="0.00000" height="282.8672" width="8" x="593.2363" y="81.2969"/><line style="stroke:#181818;stroke-width:0.5;stroke-dasharray:5,5;" x1="596.8359" x2="596.8359" y1="81.2969" y2="364.1641"/></g><g class="participant participant-head" data-participant="User"><text fill="#000000" font-family="sans-serif" font-size="14" lengthAdjust="spacing" textLength="31.9102" x="20" y="77.9951">User</text><ellipse cx="38.9551" cy="13.5" fill="#E2E2F0" rx="8" ry="8" style="stroke:#181818;stroke-width:0.5;"/><path d="M38.9551,21.5 L38.9551,48.5 M25.9551,29.5 L51.9551,29.5 M38.9551,48.5 L25.9551,63.5 M38.9551,48.5 L51.9551,63.5" fill="none" style="stroke:#181818;stroke-width:0.5;"/></g><g class="participant participant-tail" data-participant="User"><text fill="#000000" font-family="sans-serif" font-size="14" lengthAdjust="spacing" textLength="31.9102" x="20" y="376.1592">User</text><ellipse cx="38.9551" cy="387.9609" fill="#E2E2F0" rx="8" ry="8" style="stroke:#181818;stroke-width:0.5;"/><path d="M38.9551,395.9609 L38.9551,422.9609 M25.9551,403.9609 L51.9551,403.9609 M38.9551,422.9609 L25.9551,437.9609 M38.9551,422.9609 L51.9551,437.9609" fill="none" style="stroke:#181818;stroke-width:0.5;"/></g><g class="participant participant-head" data-participant="App"><rect fill="#E2E2F0" height="30.2969" rx="2.5" ry="2.5" style="stroke:#181818;stroke-width:0.5;" width="41.3506" x="212.1621" y="50"/><text fill="#000000" font-family="sans-serif" font-size="14" lengthAdjust="spacing" textLength="27.3506" x="219.1621" y="69.9951">App</text></g><g class="participant participant-tail" data-participant="App"><rect fill="#E2E2F0" height="30.2969" rx="2.5" ry="2.5" style="stroke:#181818;stroke-width:0.5;" width="41.3506" x="212.1621" y="363.1641"/><text fill="#000000" font-family="sans-serif" font-size="14" lengthAdjust="spacing" textLength="27.3506" x="219.1621" y="383.1592">App</text></g><g class="participant participant-head" data-participant="GeocodingService"><rect fill="#E2E2F0" height="30.2969" rx="2.5" ry="2.5" style="stroke:#181818;stroke-width:0.5;" width="145.0176" x="401.8184" y="50"/><text fill="#000000" font-family="sans-serif" font-size="14" lengthAdjust="spacing" textLength="131.0176" x="408.8184" y="69.9951">Geocoding Service</text></g><g class="participant participant-tail" data-participant="GeocodingService"><rect fill="#E2E2F0" height="30.2969" rx="2.5" ry="2.5" style="stroke:#181818;stroke-width:0.5;" width="145.0176" x="401.8184" y="363.1641"/><text fill="#000000" font-family="sans-serif" font-size="14" lengthAdjust="spacing" textLength="131.0176" x="408.8184" y="383.1592">Geocoding Service</text></g><g class="participant participant-head" data-participant="Database"><rect fill="#E2E2F0" height="30.2969" rx="2.5" ry="2.5" style="stroke:#181818;stroke-width:0.5;" width="80.8008" x="556.8359" y="50"/><text fill="#000000" font-family="sans-serif" font-size="14" lengthAdjust="spacing" textLength="66.8008" x="563.8359" y="69.9951">Database</text></g><g class="participant participant-tail" data-participant="Database"><rect fill="#E2E2F0" height="30.2969" rx="2.5" ry="2.5" style="stroke:#181818;stroke-width:0.5;" width="80.8008" x="556.8359" y="363.1641"/><text fill="#000000" font-family="sans-serif" font-size="14" lengthAdjust="spacing" textLength="66.8008" x="563.8359" y="383.1592">Database</text></g><g class="message" data-participant-1="User" data-participant-2="App"><polygon fill="#181818" points="220.8374,108.4297,230.8374,112.4297,220.8374,116.4297,224.8374,112.4297" style="stroke:#181818;stroke-width:1;"/><line style="stroke:#181818;stroke-width:1;" x1="38.9551" x2="226.8374" y1="112.4297" y2="112.4297"/><text fill="#000000" font-family="sans-serif" font-size="13" lengthAdjust="spacing" textLength="117.1777" x="45.9551" y="107.3638">Selects map point</text></g><g class="message" data-participant-1="App" data-participant-2="GeocodingService"><polygon fill="#181818" points="462.3271,137.5625,472.3271,141.5625,462.3271,145.5625,466.3271,141.5625" style="stroke:#181818;stroke-width:1;"/><line style="stroke:#181818;stroke-width:1;" x1="232.8374" x2="468.3271" y1="141.5625" y2="141.5625"/><text fill="#000000" font-family="sans-serif" font-size="13" lengthAdjust="spacing" textLength="217.4897" x="239.8374" y="136.4966">Request geocoding for map point</text></g><g class="message" data-participant-1="GeocodingService" data-participant-2="App"><polygon fill="#181818" points="243.8374,166.6953,233.8374,170.6953,243.8374,174.6953,239.8374,170.6953" style="stroke:#181818;stroke-width:1;"/><line style="stroke:#181818;stroke-width:1;" x1="237.8374" x2="473.3271" y1="170.6953" y2="170.6953"/><text fill="#000000" font-family="sans-serif" font-size="13" lengthAdjust="spacing" textLength="146.8848" x="249.8374" y="165.6294">Return address details</text></g><g class="message" data-participant-1="App" data-participant-2="App"><line style="stroke:#181818;stroke-width:1;" x1="232.8374" x2="274.8374" y1="199.8281" y2="199.8281"/><line style="stroke:#181818;stroke-width:1;" x1="274.8374" x2="274.8374" y1="199.8281" y2="212.8281"/><line style="stroke:#181818;stroke-width:1;" x1="233.8374" x2="274.8374" y1="212.8281" y2="212.8281"/><polygon fill="#181818" points="243.8374,208.8281,233.8374,212.8281,243.8374,216.8281,239.8374,212.8281" style="stroke:#181818;stroke-width:1;"/><text fill="#000000" font-family="sans-serif" font-size="13" lengthAdjust="spacing" textLength="137.5029" x="239.8374" y="194.7622">Validate service area</text></g><path d="M10,227.8281 L74.4429,227.8281 L74.4429,234.9609 L64.4429,244.9609 L10,244.9609 L10,227.8281" fill="#EEEEEE" style="stroke:#000000;stroke-width:1.5;"/><rect fill="none" height="119.3359" style="stroke:#000000;stroke-width:1.5;" width="637.6367" x="10" y="227.8281"/><text fill="#000000" font-family="sans-serif" font-size="13" font-weight="bold" lengthAdjust="spacing" textLength="19.4429" x="25" y="240.895">alt</text><text fill="#000000" font-family="sans-serif" font-size="11" font-weight="bold" lengthAdjust="spacing" textLength="121.1826" x="89.4429" y="240.0386">[Service area valid]</text><g class="message" data-participant-1="App" data-participant-2="Database"><polygon fill="#181818" points="585.2363,262.0938,595.2363,266.0938,585.2363,270.0938,589.2363,266.0938" style="stroke:#181818;stroke-width:1;"/><line style="stroke:#181818;stroke-width:1;" x1="232.8374" x2="591.2363" y1="266.0938" y2="266.0938"/><text fill="#000000" font-family="sans-serif" font-size="13" lengthAdjust="spacing" textLength="87.4009" x="239.8374" y="261.0278">Save address</text></g><g class="message" data-participant-1="Database" data-participant-2="App"><polygon fill="#181818" points="243.8374,291.2266,233.8374,295.2266,243.8374,299.2266,239.8374,295.2266" style="stroke:#181818;stroke-width:1;"/><line style="stroke:#181818;stroke-width:1;" x1="237.8374" x2="596.2363" y1="295.2266" y2="295.2266"/><text fill="#000000" font-family="sans-serif" font-size="13" lengthAdjust="spacing" textLength="84.335" x="249.8374" y="290.1606">Confirmation</text></g><line style="stroke:#000000;stroke-width:1;stroke-dasharray:2,2;" x1="10" x2="647.6367" y1="304.2266" y2="304.2266"/><text fill="#000000" font-family="sans-serif" font-size="11" font-weight="bold" lengthAdjust="spacing" textLength="132.7842" x="15" y="314.437">[Service area invalid]</text><g class="message" data-participant-1="App" data-participant-2="User"><polygon fill="#181818" points="49.9551,335.1641,39.9551,339.1641,49.9551,343.1641,45.9551,339.1641" style="stroke:#181818;stroke-width:1;"/><line style="stroke:#181818;stroke-width:1;" x1="43.9551" x2="231.8374" y1="339.1641" y2="339.1641"/><text fill="#000000" font-family="sans-serif" font-size="13" lengthAdjust="spacing" textLength="169.8823" x="55.9551" y="334.0981">Notify service area invalid</text></g><!--SRC=[PL3BRWCX3Bpp5LRk-O4zL8eQARSUKZLt5xoH9G8KUrVAtmSs2z6cN13ZUNX0gp73Zr0s2REovOH1ONT8QGSeKExju4JHHiVX2j-KPxQqq3gwWblD4HL_KPxKzZ2cfiB-esOCnSsJLO4R9aYHWve2r-cxzG1d-fj85AvzbR5qU0dV5JtZJ3hb0EXS9X5mfCXUMj12kQ1dXqeWgnOpeK6lhUu2m5nf1ifPnQrLAO8pjOY5qKOzupE6aVCDbMCmvCjauytXdtlzgG6-el9utspMoHJS0m00]--></g></svg>