<svg xmlns="http://www.w3.org/2000/svg" xmlns:xlink="http://www.w3.org/1999/xlink" contentStyleType="text/css" data-diagram-type="SEQUENCE" height="356px" preserveAspectRatio="none" style="width:579px;height:356px;background:#FFFFFF;" version="1.1" viewBox="0 0 579 356" width="579px" zoomAndPan="magnify"><defs/><g><g><title>Executive</title><rect fill="#000000" fill-opacity="0.00000" height="194.7969" width="8" x="38.2959" y="81.2969"/><line style="stroke:#181818;stroke-width:0.5;stroke-dasharray:5,5;" x1="42" x2="42" y1="81.2969" y2="276.0938"/></g><g><title>Web App</title><rect fill="#000000" fill-opacity="0.00000" height="194.7969" width="8" x="149.1001" y="81.2969"/><line style="stroke:#181818;stroke-width:0.5;stroke-dasharray:5,5;" x1="152.5283" x2="152.5283" y1="81.2969" y2="276.0938"/></g><g><title>API Gateway</title><rect fill="#000000" fill-opacity="0.00000" height="194.7969" width="8" x="279.9058" y="81.2969"/><line style="stroke:#181818;stroke-width:0.5;stroke-dasharray:5,5;" x1="283.6841" x2="283.6841" y1="81.2969" y2="276.0938"/></g><g><title>Metrics Store</title><rect fill="#000000" fill-opacity="0.00000" height="194.7969" width="8" x="408.4453" y="81.2969"/><line style="stroke:#181818;stroke-width:0.5;stroke-dasharray:5,5;" x1="412.1558" x2="412.1558" y1="81.2969" y2="276.0938"/></g><g><title>PDF Service</title><rect fill="#000000" fill-opacity="0.00000" height="194.7969" width="8" x="520.4683" y="81.2969"/><line style="stroke:#181818;stroke-width:0.5;stroke-dasharray:5,5;" x1="523.7349" x2="523.7349" y1="81.2969" y2="276.0938"/></g><g class="participant participant-head" data-participant="Executive"><text fill="#000000" font-family="sans-serif" font-size="14" lengthAdjust="spacing" textLength="68.5918" x="5" y="77.9951">Executive</text><ellipse cx="42.2959" cy="13.5" fill="#E2E2F0" rx="8" ry="8" style="stroke:#181818;stroke-width:0.5;"/><path d="M42.2959,21.5 L42.2959,48.5 M29.2959,29.5 L55.2959,29.5 M42.2959,48.5 L29.2959,63.5 M42.2959,48.5 L55.2959,63.5" fill="none" style="stroke:#181818;stroke-width:0.5;"/></g><g class="participant participant-tail" data-participant="Executive"><text fill="#000000" font-family="sans-serif" font-size="14" lengthAdjust="spacing" textLength="68.5918" x="5" y="288.0889">Executive</text><ellipse cx="42.2959" cy="299.8906" fill="#E2E2F0" rx="8" ry="8" style="stroke:#181818;stroke-width:0.5;"/><path d="M42.2959,307.8906 L42.2959,334.8906 M29.2959,315.8906 L55.2959,315.8906 M42.2959,334.8906 L29.2959,349.8906 M42.2959,334.8906 L55.2959,349.8906" fill="none" style="stroke:#181818;stroke-width:0.5;"/></g><g class="participant participant-head" data-participant="WebApp"><rect fill="#E2E2F0" height="30.2969" rx="2.5" ry="2.5" style="stroke:#181818;stroke-width:0.5;" width="77.1436" x="114.5283" y="50"/><text fill="#000000" font-family="sans-serif" font-size="14" lengthAdjust="spacing" textLength="63.1436" x="121.5283" y="69.9951">Web App</text></g><g class="participant participant-tail" data-participant="WebApp"><rect fill="#E2E2F0" height="30.2969" rx="2.5" ry="2.5" style="stroke:#181818;stroke-width:0.5;" width="77.1436" x="114.5283" y="275.0938"/><text fill="#000000" font-family="sans-serif" font-size="14" lengthAdjust="spacing" textLength="63.1436" x="121.5283" y="295.0889">Web App</text></g><g class="participant participant-head" data-participant="APIGateway"><rect fill="#E2E2F0" height="30.2969" rx="2.5" ry="2.5" style="stroke:#181818;stroke-width:0.5;" width="102.4434" x="232.6841" y="50"/><text fill="#000000" font-family="sans-serif" font-size="14" lengthAdjust="spacing" textLength="88.4434" x="239.6841" y="69.9951">API Gateway</text></g><g class="participant participant-tail" data-participant="APIGateway"><rect fill="#E2E2F0" height="30.2969" rx="2.5" ry="2.5" style="stroke:#181818;stroke-width:0.5;" width="102.4434" x="232.6841" y="275.0938"/><text fill="#000000" font-family="sans-serif" font-size="14" lengthAdjust="spacing" textLength="88.4434" x="239.6841" y="295.0889">API Gateway</text></g><g class="participant participant-head" data-participant="MetricsStore"><rect fill="#E2E2F0" height="30.2969" rx="2.5" ry="2.5" style="stroke:#181818;stroke-width:0.5;" width="106.5791" x="359.1558" y="50"/><text fill="#000000" font-family="sans-serif" font-size="14" lengthAdjust="spacing" textLength="92.5791" x="366.1558" y="69.9951">Metrics Store</text></g><g class="participant participant-tail" data-participant="MetricsStore"><rect fill="#E2E2F0" height="30.2969" rx="2.5" ry="2.5" style="stroke:#181818;stroke-width:0.5;" width="106.5791" x="359.1558" y="275.0938"/><text fill="#000000" font-family="sans-serif" font-size="14" lengthAdjust="spacing" textLength="92.5791" x="366.1558" y="295.0889">Metrics Store</text></g><g class="participant participant-head" data-participant="PDFService"><rect fill="#E2E2F0" height="30.2969" rx="2.5" ry="2.5" style="stroke:#181818;stroke-width:0.5;" width="97.4668" x="475.7349" y="50"/><text fill="#000000" font-family="sans-serif" font-size="14" lengthAdjust="spacing" textLength="83.4668" x="482.7349" y="69.9951">PDF Service</text></g><g class="participant participant-tail" data-participant="PDFService"><rect fill="#E2E2F0" height="30.2969" rx="2.5" ry="2.5" style="stroke:#181818;stroke-width:0.5;" width="97.4668" x="475.7349" y="275.0938"/><text fill="#000000" font-family="sans-serif" font-size="14" lengthAdjust="spacing" textLength="83.4668" x="482.7349" y="295.0889">PDF Service</text></g><g class="message" data-participant-1="Executive" data-participant-2="WebApp"><polygon fill="#181818" points="141.1001,108.4297,151.1001,112.4297,141.1001,116.4297,145.1001,112.4297" style="stroke:#181818;stroke-width:1;"/><line style="stroke:#181818;stroke-width:1;" x1="42.2959" x2="147.1001" y1="112.4297" y2="112.4297"/><text fill="#000000" font-family="sans-serif" font-size="13" lengthAdjust="spacing" textLength="86.8042" x="49.2959" y="107.3638">Request data</text></g><g class="message" data-participant-1="WebApp" data-participant-2="APIGateway"><polygon fill="#181818" points="271.9058,137.5625,281.9058,141.5625,271.9058,145.5625,275.9058,141.5625" style="stroke:#181818;stroke-width:1;"/><line style="stroke:#181818;stroke-width:1;" x1="153.1001" x2="277.9058" y1="141.5625" y2="141.5625"/><text fill="#000000" font-family="sans-serif" font-size="13" lengthAdjust="spacing" textLength="106.8057" x="160.1001" y="136.4966">Forward request</text></g><g class="message" data-participant-1="APIGateway" data-participant-2="MetricsStore"><polygon fill="#181818" points="400.4453,166.6953,410.4453,170.6953,400.4453,174.6953,404.4453,170.6953" style="stroke:#181818;stroke-width:1;"/><line style="stroke:#181818;stroke-width:1;" x1="283.9058" x2="406.4453" y1="170.6953" y2="170.6953"/><text fill="#000000" font-family="sans-serif" font-size="13" lengthAdjust="spacing" textLength="104.5396" x="290.9058" y="165.6294">Retrieve indices</text></g><g class="message" data-participant-1="MetricsStore" data-participant-2="APIGateway"><polygon fill="#181818" points="294.9058,195.8281,284.9058,199.8281,294.9058,203.8281,290.9058,199.8281" style="stroke:#181818;stroke-width:1;"/><line style="stroke:#181818;stroke-width:1;stroke-dasharray:2,2;" x1="288.9058" x2="411.4453" y1="199.8281" y2="199.8281"/><text fill="#000000" font-family="sans-serif" font-size="13" lengthAdjust="spacing" textLength="93.7168" x="300.9058" y="194.7622">Return indices</text></g><g class="message" data-participant-1="APIGateway" data-participant-2="WebApp"><polygon fill="#181818" points="164.1001,224.9609,154.1001,228.9609,164.1001,232.9609,160.1001,228.9609" style="stroke:#181818;stroke-width:1;"/><line style="stroke:#181818;stroke-width:1;stroke-dasharray:2,2;" x1="158.1001" x2="282.9058" y1="228.9609" y2="228.9609"/><text fill="#000000" font-family="sans-serif" font-size="13" lengthAdjust="spacing" textLength="93.7168" x="170.1001" y="223.895">Return indices</text></g><g class="message" data-participant-1="WebApp" data-participant-2="PDFService"><polygon fill="#181818" points="512.4683,254.0938,522.4683,258.0938,512.4683,262.0938,516.4683,258.0938" style="stroke:#181818;stroke-width:1;"/><line style="stroke:#181818;stroke-width:1;" x1="153.1001" x2="518.4683" y1="258.0938" y2="258.0938"/><text fill="#000000" font-family="sans-serif" font-size="13" lengthAdjust="spacing" textLength="89.1973" x="160.1001" y="253.0278">Export to PDF</text></g><!--SRC=[NP6z3eCm38JtF8N5pWimL49ggJfKGcNex0OFMKZg66ZVlkP7GBhvxZxP5mMjU8RBXsmlRY0JaCLP5x0Jo9xqWZA43322pZgcULdVu8f28tvdHlKgK-vEmiv6QFGMpUJgp4RArkSA6kB1sOLKlKfZjfgGdzP21JpetLCKQ57GBEOKxrqAg3oFo2tmWfezcyXZbscTAj8JhclrQ3J76FA_pKhtt6tiSN5ICQ7sallZ2ls3u5b0_EJ-0000]--></g></svg>