<svg xmlns="http://www.w3.org/2000/svg" xmlns:xlink="http://www.w3.org/1999/xlink" contentStyleType="text/css" data-diagram-type="DESCRIPTION" height="322px" preserveAspectRatio="none" style="width:611px;height:322px;background:#FFFFFF;" version="1.1" viewBox="0 0 611 322" width="611px" zoomAndPan="magnify"><defs/><g><!--cluster Market Performance System--><g class="cluster" data-entity="Market Performance System" data-source-line="1" data-uid="ent0002" id="cluster_Market Performance System"><path d="M8.5,6 L234.416,6 A3.75,3.75 0 0 1 236.916,8.5 L243.916,28.2969 L601.5,28.2969 A2.5,2.5 0 0 1 604,30.7969 L604,313.39 A2.5,2.5 0 0 1 601.5,315.89 L8.5,315.89 A2.5,2.5 0 0 1 6,313.39 L6,8.5 A2.5,2.5 0 0 1 8.5,6" fill="none" style="stroke:#000000;stroke-width:1.5;"/><line style="stroke:#000000;stroke-width:1.5;" x1="6" x2="243.916" y1="28.2969" y2="28.2969"/><text fill="#000000" font-family="sans-serif" font-size="14" font-weight="bold" lengthAdjust="spacing" textLength="224.916" x="10" y="20.9951">Market Performance System</text></g><!--entity Backend System--><g class="entity" data-entity="Backend System" data-source-line="2" data-uid="ent0003" id="entity_Backend System"><rect fill="#F1F1F1" height="46.2969" rx="2.5" ry="2.5" style="stroke:#181818;stroke-width:0.5;" width="157.0176" x="240.49" y="147.3"/><rect fill="#F1F1F1" height="10" style="stroke:#181818;stroke-width:0.5;" width="15" x="377.5076" y="152.3"/><rect fill="#F1F1F1" height="2" style="stroke:#181818;stroke-width:0.5;" width="4" x="375.5076" y="154.3"/><rect fill="#F1F1F1" height="2" style="stroke:#181818;stroke-width:0.5;" width="4" x="375.5076" y="158.3"/><text fill="#000000" font-family="sans-serif" font-size="14" lengthAdjust="spacing" textLength="117.0176" x="255.49" y="180.2951">Backend System</text></g><!--entity Social Media APIs--><g class="entity" data-entity="Social Media APIs" data-source-line="2" data-uid="ent0004" id="entity_Social Media APIs"><rect fill="#F1F1F1" height="46.2969" rx="2.5" ry="2.5" style="stroke:#181818;stroke-width:0.5;" width="161.8984" x="146.05" y="41"/><rect fill="#F1F1F1" height="10" style="stroke:#181818;stroke-width:0.5;" width="15" x="287.9484" y="46"/><rect fill="#F1F1F1" height="2" style="stroke:#181818;stroke-width:0.5;" width="4" x="285.9484" y="48"/><rect fill="#F1F1F1" height="2" style="stroke:#181818;stroke-width:0.5;" width="4" x="285.9484" y="52"/><text fill="#000000" font-family="sans-serif" font-size="14" lengthAdjust="spacing" textLength="121.8984" x="161.05" y="73.9951">Social Media APIs</text></g><!--entity Etimad Platform API--><g class="entity" data-entity="Etimad Platform API" data-source-line="3" data-uid="ent0006" id="entity_Etimad Platform API"><rect fill="#F1F1F1" height="46.2969" rx="2.5" ry="2.5" style="stroke:#181818;stroke-width:0.5;" width="179.665" x="22.17" y="253.59"/><rect fill="#F1F1F1" height="10" style="stroke:#181818;stroke-width:0.5;" width="15" x="181.835" y="258.59"/><rect fill="#F1F1F1" height="2" style="stroke:#181818;stroke-width:0.5;" width="4" x="179.835" y="260.59"/><rect fill="#F1F1F1" height="2" style="stroke:#181818;stroke-width:0.5;" width="4" x="179.835" y="264.59"/><text fill="#000000" font-family="sans-serif" font-size="14" lengthAdjust="spacing" textLength="139.665" x="37.17" y="286.5851">Etimad Platform API</text></g><!--entity AI/ML Component--><g class="entity" data-entity="AI.ML Component" data-source-line="4" data-uid="ent0008" id="entity_AI.ML Component"><rect fill="#F1F1F1" height="46.2969" rx="2.5" ry="2.5" style="stroke:#181818;stroke-width:0.5;" width="164.0313" x="236.98" y="253.59"/><rect fill="#F1F1F1" height="10" style="stroke:#181818;stroke-width:0.5;" width="15" x="381.0113" y="258.59"/><rect fill="#F1F1F1" height="2" style="stroke:#181818;stroke-width:0.5;" width="4" x="379.0113" y="260.59"/><rect fill="#F1F1F1" height="2" style="stroke:#181818;stroke-width:0.5;" width="4" x="379.0113" y="264.59"/><text fill="#000000" font-family="sans-serif" font-size="14" lengthAdjust="spacing" textLength="124.0313" x="251.98" y="286.5851">AI/ML Component</text></g><!--entity Cloud Database--><g class="entity" data-entity="Cloud Database" data-source-line="5" data-uid="ent0010" id="entity_Cloud Database"><rect fill="#F1F1F1" height="46.2969" rx="2.5" ry="2.5" style="stroke:#181818;stroke-width:0.5;" width="151.2412" x="436.38" y="253.59"/><rect fill="#F1F1F1" height="10" style="stroke:#181818;stroke-width:0.5;" width="15" x="567.6212" y="258.59"/><rect fill="#F1F1F1" height="2" style="stroke:#181818;stroke-width:0.5;" width="4" x="565.6212" y="260.59"/><rect fill="#F1F1F1" height="2" style="stroke:#181818;stroke-width:0.5;" width="4" x="565.6212" y="264.59"/><text fill="#000000" font-family="sans-serif" font-size="14" lengthAdjust="spacing" textLength="111.2412" x="451.38" y="286.5851">Cloud Database</text></g><!--entity Web Interface--><g class="entity" data-entity="Web Interface" data-source-line="6" data-uid="ent0012" id="entity_Web Interface"><rect fill="#F1F1F1" height="46.2969" rx="2.5" ry="2.5" style="stroke:#181818;stroke-width:0.5;" width="138.4717" x="342.76" y="41"/><rect fill="#F1F1F1" height="10" style="stroke:#181818;stroke-width:0.5;" width="15" x="461.2317" y="46"/><rect fill="#F1F1F1" height="2" style="stroke:#181818;stroke-width:0.5;" width="4" x="459.2317" y="48"/><rect fill="#F1F1F1" height="2" style="stroke:#181818;stroke-width:0.5;" width="4" x="459.2317" y="52"/><text fill="#000000" font-family="sans-serif" font-size="14" lengthAdjust="spacing" textLength="98.4717" x="357.76" y="73.9951">Web Interface</text></g><!--link Backend System to Social Media APIs--><g class="link" data-entity-1="Backend System" data-entity-2="Social Media APIs" data-source-line="2" data-uid="lnk5" id="link_Backend System_Social Media APIs"><path d="M310.11,146.86 C297.47,129.38 280.5485,109.425 262.3285,91.935" fill="none" id="Backend System-to-Social Media APIs" style="stroke:#181818;stroke-width:1;"/><polygon fill="#181818" points="258,87.78,261.7227,96.8982,261.6071,91.2425,267.2627,91.1269,258,87.78" style="stroke:#181818;stroke-width:1;"/></g><!--link Social Media APIs to Backend System--><g class="link" data-entity-1="Social Media APIs" data-entity-2="Backend System" data-source-line="9" data-uid="lnk14" id="link_Social Media APIs_Backend System"><path d="M235.92,87.78 C248.57,105.27 269.84,129.38 288.04,146.86" fill="none" id="Social Media APIs-Backend System" style="stroke:#181818;stroke-width:1;"/></g><!--link Backend System to Etimad Platform API--><g class="link" data-entity-1="Backend System" data-entity-2="Etimad Platform API" data-source-line="3" data-uid="lnk7" id="link_Backend System_Etimad Platform API"><path d="M263.04,194.08 C225.54,211.57 182.9726,232.7881 151.0526,250.2681" fill="none" id="Backend System-to-Etimad Platform API" style="stroke:#181818;stroke-width:1;"/><polygon fill="#181818" points="145.79,253.15,155.6051,252.3356,150.1755,250.7484,151.7626,245.3188,145.79,253.15" style="stroke:#181818;stroke-width:1;"/></g><!--link Etimad Platform API to Backend System--><g class="link" data-entity-1="Etimad Platform API" data-entity-2="Backend System" data-source-line="10" data-uid="lnk15" id="link_Etimad Platform API_Backend System"><path d="M167.86,253.15 C205.35,235.67 253.19,211.57 285.13,194.08" fill="none" id="Etimad Platform API-Backend System" style="stroke:#181818;stroke-width:1;"/></g><!--link Backend System to AI/ML Component--><g class="link" data-entity-1="Backend System" data-entity-2="AI.ML Component" data-source-line="4" data-uid="lnk9" id="link_Backend System_AI.ML Component"><path d="M307.96,194.08 C305.18,211.57 304.2343,229.745 307.0243,247.225" fill="none" id="Backend System-to-AI/ML Component" style="stroke:#181818;stroke-width:1;"/><polygon fill="#181818" points="307.97,253.15,310.5015,243.632,307.1819,248.2125,302.6015,244.893,307.97,253.15" style="stroke:#181818;stroke-width:1;"/></g><!--link AI/ML Component to Backend System--><g class="link" data-entity-1="AI.ML Component" data-entity-2="Backend System" data-source-line="11" data-uid="lnk16" id="link_AI.ML Component_Backend System"><path d="M330.03,253.15 C332.82,235.67 332.82,211.57 330.04,194.08" fill="none" id="AI/ML Component-Backend System" style="stroke:#181818;stroke-width:1;"/></g><!--link Backend System to Cloud Database--><g class="link" data-entity-1="Backend System" data-entity-2="Cloud Database" data-source-line="5" data-uid="lnk11" id="link_Backend System_Cloud Database"><path d="M349.84,194.08 C379.43,211.57 418.6579,232.9977 453.7979,250.4777" fill="none" id="Backend System-to-Cloud Database" style="stroke:#181818;stroke-width:1;"/><polygon fill="#181818" points="459.17,253.15,452.8934,245.5602,454.6933,250.9231,449.3304,252.723,459.17,253.15" style="stroke:#181818;stroke-width:1;"/></g><!--link Cloud Database to Backend System--><g class="link" data-entity-1="Cloud Database" data-entity-2="Backend System" data-source-line="12" data-uid="lnk17" id="link_Cloud Database_Backend System"><path d="M481.24,253.15 C451.67,235.67 407.07,211.57 371.92,194.08" fill="none" id="Cloud Database-Backend System" style="stroke:#181818;stroke-width:1;"/></g><!--link Web Interface to Backend System--><g class="link" data-entity-1="Web Interface" data-entity-2="Backend System" data-source-line="6" data-uid="lnk13" id="link_Web Interface_Backend System"><path d="M402.86,87.78 C390.04,105.27 372.8978,125.2451 354.5178,142.7251" fill="none" id="Web Interface-to-Backend System" style="stroke:#181818;stroke-width:1;"/><polygon fill="#181818" points="350.17,146.86,359.4482,143.5562,353.7931,143.4143,353.9351,137.7592,350.17,146.86" style="stroke:#181818;stroke-width:1;"/></g><!--link Web Interface to Backend System--><g class="link" data-entity-1="Web Interface" data-entity-2="Backend System" data-source-line="13" data-uid="lnk18" id="link_Web Interface_Backend System"><path d="M380.78,87.78 C362.4,105.27 340.91,129.38 328.11,146.86" fill="none" id="Web Interface-Backend System" style="stroke:#181818;stroke-width:1;"/></g><!--SRC=[VS-n2eCm40RWFK_nuovzWuAr7OGAWaC7SJYJQn5D8YOTIkcxLy4f1cyylkF-Vo8vq8kHb3GFx57n_BIp9YCPzSTvrWc-0iiqbuMoKTkwHPgUqTHMzZIYPDKJigfmxG6- -LwJGZMINv-i_eXdnQcy8xTwieQDFwBvQDyAL_BKaUDDFhX3OVpIY2HlCBWMFo4Y7P3kPJHz58QveoX873LXWHtv0m00]--></g></svg>