<svg xmlns="http://www.w3.org/2000/svg" xmlns:xlink="http://www.w3.org/1999/xlink" contentStyleType="text/css" data-diagram-type="ACTIVITY" height="298px" preserveAspectRatio="none" style="width:177px;height:298px;background:#FFFFFF;" version="1.1" viewBox="0 0 177 298" width="177px" zoomAndPan="magnify"><defs/><g><ellipse cx="88.9834" cy="20" fill="#222222" rx="10" ry="10" style="stroke:#222222;stroke-width:1;"/><rect fill="#F1F1F1" height="33.9688" rx="12.5" ry="12.5" style="stroke:#181818;stroke-width:0.5;" width="155.9668" x="11" y="50"/><text fill="#000000" font-family="sans-serif" font-size="12" lengthAdjust="spacing" textLength="135.9668" x="21" y="71.1387">User edits preferences</text><rect fill="#F1F1F1" height="33.9688" rx="12.5" ry="12.5" style="stroke:#181818;stroke-width:0.5;" width="144.377" x="16.7949" y="103.9688"/><text fill="#000000" font-family="sans-serif" font-size="12" lengthAdjust="spacing" textLength="124.377" x="26.7949" y="125.1074">App applies changes</text><rect fill="#F1F1F1" height="33.9688" rx="12.5" ry="12.5" style="stroke:#181818;stroke-width:0.5;" width="153.3652" x="12.3008" y="157.9375"/><text fill="#000000" font-family="sans-serif" font-size="12" lengthAdjust="spacing" textLength="133.3652" x="22.3008" y="179.0762">App refreshes content</text><rect fill="#F1F1F1" height="33.9688" rx="12.5" ry="12.5" style="stroke:#181818;stroke-width:0.5;" width="133.2383" x="22.3643" y="211.9063"/><text fill="#000000" font-family="sans-serif" font-size="12" lengthAdjust="spacing" textLength="113.2383" x="32.3643" y="233.0449">App syncs to cloud</text><ellipse cx="88.9834" cy="276.875" fill="none" rx="11" ry="11" style="stroke:#222222;stroke-width:1;"/><ellipse cx="88.9834" cy="276.875" fill="#222222" rx="6" ry="6" style="stroke:#222222;stroke-width:1;"/><line style="stroke:#181818;stroke-width:1;" x1="88.9834" x2="88.9834" y1="30" y2="50"/><polygon fill="#181818" points="84.9834,40,88.9834,50,92.9834,40,88.9834,44" style="stroke:#181818;stroke-width:1;"/><line style="stroke:#181818;stroke-width:1;" x1="88.9834" x2="88.9834" y1="83.9688" y2="103.9688"/><polygon fill="#181818" points="84.9834,93.9688,88.9834,103.9688,92.9834,93.9688,88.9834,97.9688" style="stroke:#181818;stroke-width:1;"/><line style="stroke:#181818;stroke-width:1;" x1="88.9834" x2="88.9834" y1="137.9375" y2="157.9375"/><polygon fill="#181818" points="84.9834,147.9375,88.9834,157.9375,92.9834,147.9375,88.9834,151.9375" style="stroke:#181818;stroke-width:1;"/><line style="stroke:#181818;stroke-width:1;" x1="88.9834" x2="88.9834" y1="191.9063" y2="211.9063"/><polygon fill="#181818" points="84.9834,201.9063,88.9834,211.9063,92.9834,201.9063,88.9834,205.9063" style="stroke:#181818;stroke-width:1;"/><line style="stroke:#181818;stroke-width:1;" x1="88.9834" x2="88.9834" y1="245.875" y2="265.875"/><polygon fill="#181818" points="84.9834,255.875,88.9834,265.875,92.9834,255.875,88.9834,259.875" style="stroke:#181818;stroke-width:1;"/><!--SRC=[FShB2O1030N0Uwf87Ngo20jOTfyVa6p8YmUxLq6y3iCiaIB3J8IYxKdrm8A0LN2KONBNudxieDQjsFhhqmBSNk-MiFoSbrLgTgr7Fziemkn-0m00]--></g></svg>