<svg xmlns="http://www.w3.org/2000/svg" xmlns:xlink="http://www.w3.org/1999/xlink" contentStyleType="text/css" data-diagram-type="SEQUENCE" height="415px" preserveAspectRatio="none" style="width:725px;height:415px;background:#FFFFFF;" version="1.1" viewBox="0 0 725 415" width="725px" zoomAndPan="magnify"><defs/><g><g><title>Scheduler</title><rect fill="#000000" fill-opacity="0.00000" height="253.0625" width="8" x="39.0444" y="81.2969"/><line style="stroke:#181818;stroke-width:0.5;stroke-dasharray:5,5;" x1="43" x2="43" y1="81.2969" y2="334.3594"/></g><g><title>Ingestion Service</title><rect fill="#000000" fill-opacity="0.00000" height="253.0625" width="8" x="213.084" y="81.2969"/><line style="stroke:#181818;stroke-width:0.5;stroke-dasharray:5,5;" x1="216.6816" x2="216.6816" y1="81.2969" y2="334.3594"/></g><g><title>Social API</title><rect fill="#000000" fill-opacity="0.00000" height="253.0625" width="8" x="331.5396" y="81.2969"/><line style="stroke:#181818;stroke-width:0.5;stroke-dasharray:5,5;" x1="335.4863" x2="335.4863" y1="81.2969" y2="334.3594"/></g><g><title>Queue</title><rect fill="#000000" fill-opacity="0.00000" height="253.0625" width="8" x="412.5889" y="81.2969"/><line style="stroke:#181818;stroke-width:0.5;stroke-dasharray:5,5;" x1="415.5928" x2="415.5928" y1="81.2969" y2="334.3594"/></g><g><title>Database</title><rect fill="#000000" fill-opacity="0.00000" height="253.0625" width="8" x="576.6118" y="81.2969"/><line style="stroke:#181818;stroke-width:0.5;stroke-dasharray:5,5;" x1="580.2114" x2="580.2114" y1="81.2969" y2="334.3594"/></g><g><title>Monitoring</title><rect fill="#000000" fill-opacity="0.00000" height="253.0625" width="8" x="671.4458" y="81.2969"/><line style="stroke:#181818;stroke-width:0.5;stroke-dasharray:5,5;" x1="675.0122" x2="675.0122" y1="81.2969" y2="334.3594"/></g><g class="participant participant-head" data-participant="Scheduler"><text fill="#000000" font-family="sans-serif" font-size="14" lengthAdjust="spacing" textLength="70.0889" x="5" y="77.9951">Scheduler</text><ellipse cx="43.0444" cy="13.5" fill="#E2E2F0" rx="8" ry="8" style="stroke:#181818;stroke-width:0.5;"/><path d="M43.0444,21.5 L43.0444,48.5 M30.0444,29.5 L56.0444,29.5 M43.0444,48.5 L30.0444,63.5 M43.0444,48.5 L56.0444,63.5" fill="none" style="stroke:#181818;stroke-width:0.5;"/></g><g class="participant participant-tail" data-participant="Scheduler"><text fill="#000000" font-family="sans-serif" font-size="14" lengthAdjust="spacing" textLength="70.0889" x="5" y="346.3545">Scheduler</text><ellipse cx="43.0444" cy="358.1563" fill="#E2E2F0" rx="8" ry="8" style="stroke:#181818;stroke-width:0.5;"/><path d="M43.0444,366.1563 L43.0444,393.1563 M30.0444,374.1563 L56.0444,374.1563 M43.0444,393.1563 L30.0444,408.1563 M43.0444,393.1563 L56.0444,408.1563" fill="none" style="stroke:#181818;stroke-width:0.5;"/></g><g class="participant participant-head" data-participant="IngestionService"><rect fill="#E2E2F0" height="30.2969" rx="2.5" ry="2.5" style="stroke:#181818;stroke-width:0.5;" width="134.8047" x="149.6816" y="50"/><text fill="#000000" font-family="sans-serif" font-size="14" lengthAdjust="spacing" textLength="120.8047" x="156.6816" y="69.9951">Ingestion Service</text></g><g class="participant participant-tail" data-participant="IngestionService"><rect fill="#E2E2F0" height="30.2969" rx="2.5" ry="2.5" style="stroke:#181818;stroke-width:0.5;" width="134.8047" x="149.6816" y="333.3594"/><text fill="#000000" font-family="sans-serif" font-size="14" lengthAdjust="spacing" textLength="120.8047" x="156.6816" y="353.3545">Ingestion Service</text></g><g class="participant participant-head" data-participant="SocialAPI"><rect fill="#E2E2F0" height="30.2969" rx="2.5" ry="2.5" style="stroke:#181818;stroke-width:0.5;" width="82.1064" x="294.4863" y="50"/><text fill="#000000" font-family="sans-serif" font-size="14" lengthAdjust="spacing" textLength="68.1064" x="301.4863" y="69.9951">Social API</text></g><g class="participant participant-tail" data-participant="SocialAPI"><rect fill="#E2E2F0" height="30.2969" rx="2.5" ry="2.5" style="stroke:#181818;stroke-width:0.5;" width="82.1064" x="294.4863" y="333.3594"/><text fill="#000000" font-family="sans-serif" font-size="14" lengthAdjust="spacing" textLength="68.1064" x="301.4863" y="353.3545">Social API</text></g><g class="participant participant-head" data-participant="Queue"><rect fill="#E2E2F0" height="30.2969" rx="2.5" ry="2.5" style="stroke:#181818;stroke-width:0.5;" width="59.9922" x="386.5928" y="50"/><text fill="#000000" font-family="sans-serif" font-size="14" lengthAdjust="spacing" textLength="45.9922" x="393.5928" y="69.9951">Queue</text></g><g class="participant participant-tail" data-participant="Queue"><rect fill="#E2E2F0" height="30.2969" rx="2.5" ry="2.5" style="stroke:#181818;stroke-width:0.5;" width="59.9922" x="386.5928" y="333.3594"/><text fill="#000000" font-family="sans-serif" font-size="14" lengthAdjust="spacing" textLength="45.9922" x="393.5928" y="353.3545">Queue</text></g><g class="participant participant-head" data-participant="DB"><rect fill="#E2E2F0" height="30.2969" rx="2.5" ry="2.5" style="stroke:#181818;stroke-width:0.5;" width="80.8008" x="540.2114" y="50"/><text fill="#000000" font-family="sans-serif" font-size="14" lengthAdjust="spacing" textLength="66.8008" x="547.2114" y="69.9951">Database</text></g><g class="participant participant-tail" data-participant="DB"><rect fill="#E2E2F0" height="30.2969" rx="2.5" ry="2.5" style="stroke:#181818;stroke-width:0.5;" width="80.8008" x="540.2114" y="333.3594"/><text fill="#000000" font-family="sans-serif" font-size="14" lengthAdjust="spacing" textLength="66.8008" x="547.2114" y="353.3545">Database</text></g><g class="participant participant-head" data-participant="Monitoring"><rect fill="#E2E2F0" height="30.2969" rx="2.5" ry="2.5" style="stroke:#181818;stroke-width:0.5;" width="88.8672" x="631.0122" y="50"/><text fill="#000000" font-family="sans-serif" font-size="14" lengthAdjust="spacing" textLength="74.8672" x="638.0122" y="69.9951">Monitoring</text></g><g class="participant participant-tail" data-participant="Monitoring"><rect fill="#E2E2F0" height="30.2969" rx="2.5" ry="2.5" style="stroke:#181818;stroke-width:0.5;" width="88.8672" x="631.0122" y="333.3594"/><text fill="#000000" font-family="sans-serif" font-size="14" lengthAdjust="spacing" textLength="74.8672" x="638.0122" y="353.3545">Monitoring</text></g><g class="message" data-participant-1="Scheduler" data-participant-2="IngestionService"><polygon fill="#181818" points="205.084,108.4297,215.084,112.4297,205.084,116.4297,209.084,112.4297" style="stroke:#181818;stroke-width:1;"/><line style="stroke:#181818;stroke-width:1;" x1="43.0444" x2="211.084" y1="112.4297" y2="112.4297"/><text fill="#000000" font-family="sans-serif" font-size="13" lengthAdjust="spacing" textLength="150.0396" x="50.0444" y="107.3638">Start ingestion process</text></g><g class="message" data-participant-1="IngestionService" data-participant-2="SocialAPI"><polygon fill="#181818" points="323.5396,137.5625,333.5396,141.5625,323.5396,145.5625,327.5396,141.5625" style="stroke:#181818;stroke-width:1;"/><line style="stroke:#181818;stroke-width:1;" x1="217.084" x2="329.5396" y1="141.5625" y2="141.5625"/><text fill="#000000" font-family="sans-serif" font-size="13" lengthAdjust="spacing" textLength="69.3735" x="224.084" y="136.4966">Fetch data</text></g><g class="message" data-participant-1="SocialAPI" data-participant-2="IngestionService"><polygon fill="#181818" points="228.084,166.6953,218.084,170.6953,228.084,174.6953,224.084,170.6953" style="stroke:#181818;stroke-width:1;"/><line style="stroke:#181818;stroke-width:1;stroke-dasharray:2,2;" x1="222.084" x2="334.5396" y1="170.6953" y2="170.6953"/><text fill="#000000" font-family="sans-serif" font-size="13" lengthAdjust="spacing" textLength="77.3652" x="234.084" y="165.6294">Return data</text></g><g class="message" data-participant-1="IngestionService" data-participant-2="Queue"><polygon fill="#181818" points="404.5889,195.8281,414.5889,199.8281,404.5889,203.8281,408.5889,199.8281" style="stroke:#181818;stroke-width:1;"/><line style="stroke:#181818;stroke-width:1;" x1="217.084" x2="410.5889" y1="199.8281" y2="199.8281"/><text fill="#000000" font-family="sans-serif" font-size="13" lengthAdjust="spacing" textLength="90.5938" x="224.084" y="194.7622">Enqueue data</text></g><g class="message" data-participant-1="Queue" data-participant-2="DB"><polygon fill="#181818" points="568.6118,224.9609,578.6118,228.9609,568.6118,232.9609,572.6118,228.9609" style="stroke:#181818;stroke-width:1;"/><line style="stroke:#181818;stroke-width:1;" x1="416.5889" x2="574.6118" y1="228.9609" y2="228.9609"/><text fill="#000000" font-family="sans-serif" font-size="13" lengthAdjust="spacing" textLength="68.0596" x="423.5889" y="223.895">Store data</text></g><g class="message" data-participant-1="DB" data-participant-2="Queue"><polygon fill="#181818" points="427.5889,254.0938,417.5889,258.0938,427.5889,262.0938,423.5889,258.0938" style="stroke:#181818;stroke-width:1;"/><line style="stroke:#181818;stroke-width:1;stroke-dasharray:2,2;" x1="421.5889" x2="579.6118" y1="258.0938" y2="258.0938"/><text fill="#000000" font-family="sans-serif" font-size="13" lengthAdjust="spacing" textLength="140.0229" x="433.5889" y="253.0278">Acknowledge storage</text></g><g class="message" data-participant-1="Queue" data-participant-2="Monitoring"><polygon fill="#181818" points="663.4458,283.2266,673.4458,287.2266,663.4458,291.2266,667.4458,287.2266" style="stroke:#181818;stroke-width:1;"/><line style="stroke:#181818;stroke-width:1;" x1="416.5889" x2="669.4458" y1="287.2266" y2="287.2266"/><text fill="#000000" font-family="sans-serif" font-size="13" lengthAdjust="spacing" textLength="126.7563" x="423.5889" y="282.1606">Send status update</text></g><g class="message" data-participant-1="Monitoring" data-participant-2="Queue"><polygon fill="#181818" points="427.5889,312.3594,417.5889,316.3594,427.5889,320.3594,423.5889,316.3594" style="stroke:#181818;stroke-width:1;"/><line style="stroke:#181818;stroke-width:1;stroke-dasharray:2,2;" x1="421.5889" x2="674.4458" y1="316.3594" y2="316.3594"/><text fill="#000000" font-family="sans-serif" font-size="13" lengthAdjust="spacing" textLength="130.584" x="433.5889" y="311.2935">Acknowledge status</text></g><!--SRC=[TL1BRi8m4Dtx52FsN22BIaG1YGLIIqumEADW4OrJUqolNtyYHw5qvtc_UMFKOXtq-av3cCYf6PqORMPaWTsPH_9YB4DFxcaqxG0zL7G1jvxUQeCJ73xFMLp6E6rLNu52ISklBTcXu0rzuRjsIruicrZPy9ZfTLIgNW7xZpyj6-Wbve2fDytEQl9UlIgJkzPku4IYxp34JggYi7-xuKeI71VjkzHyQmD7_awFeijO8hisLRHkmRisBrai1_rW-pFHC1BuACAHLkVw1p61U8WAbE0Xp369r4h_dvZqwXS0]--></g></svg>