<svg xmlns="http://www.w3.org/2000/svg" xmlns:xlink="http://www.w3.org/1999/xlink" contentStyleType="text/css" data-diagram-type="ACTIVITY" height="434px" preserveAspectRatio="none" style="width:179px;height:434px;background:#FFFFFF;" version="1.1" viewBox="0 0 179 434" width="179px" zoomAndPan="magnify"><defs/><g><ellipse cx="82.8193" cy="20" fill="#222222" rx="10" ry="10" style="stroke:#222222;stroke-width:1;"/><rect fill="#F1F1F1" height="33.9688" rx="12.5" ry="12.5" style="stroke:#181818;stroke-width:0.5;" width="98.2637" x="33.6875" y="50"/><text fill="#000000" font-family="sans-serif" font-size="12" lengthAdjust="spacing" textLength="78.2637" x="43.6875" y="71.1387">Create Order</text><rect fill="#F1F1F1" height="33.9688" rx="12.5" ry="12.5" style="stroke:#181818;stroke-width:0.5;" width="143.6387" x="11" y="125.3677"/><text fill="#000000" font-family="sans-serif" font-size="12" lengthAdjust="spacing" textLength="123.6387" x="21" y="146.5063">Update Order Status</text><rect fill="#F1F1F1" height="33.9688" rx="12.5" ry="12.5" style="stroke:#181818;stroke-width:0.5;" width="140.8613" x="12.3887" y="200.7354"/><text fill="#000000" font-family="sans-serif" font-size="12" lengthAdjust="spacing" textLength="120.8613" x="22.3887" y="221.874">Track Order via GPS</text><rect fill="#F1F1F1" height="33.9688" rx="12.5" ry="12.5" style="stroke:#181818;stroke-width:0.5;" width="93.1016" x="36.2686" y="303.1064"/><text fill="#000000" font-family="sans-serif" font-size="12" lengthAdjust="spacing" textLength="73.1016" x="46.2686" y="324.2451">Notify Users</text><polygon fill="#F1F1F1" points="36.0774,254.7041,129.5613,254.7041,141.5613,266.7041,129.5613,278.7041,36.0774,278.7041,24.0774,266.7041,36.0774,254.7041" style="stroke:#181818;stroke-width:0.5;"/><text fill="#000000" font-family="sans-serif" font-size="11" lengthAdjust="spacing" textLength="19.0083" x="86.8193" y="288.9146">yes</text><text fill="#000000" font-family="sans-serif" font-size="11" lengthAdjust="spacing" textLength="93.4839" x="36.0774" y="270.5122">Status Changed?</text><text fill="#000000" font-family="sans-serif" font-size="11" lengthAdjust="spacing" textLength="13.7017" x="141.5613" y="264.1099">no</text><polygon fill="#F1F1F1" points="82.8193,357.0752,94.8193,369.0752,82.8193,381.0752,70.8193,369.0752,82.8193,357.0752" style="stroke:#181818;stroke-width:0.5;"/><ellipse cx="82.8193" cy="412.0752" fill="none" rx="11" ry="11" style="stroke:#222222;stroke-width:1;"/><ellipse cx="82.8193" cy="412.0752" fill="#222222" rx="6" ry="6" style="stroke:#222222;stroke-width:1;"/><line style="stroke:#181818;stroke-width:1;" x1="82.8193" x2="82.8193" y1="30" y2="50"/><polygon fill="#181818" points="78.8193,40,82.8193,50,86.8193,40,82.8193,44" style="stroke:#181818;stroke-width:1;"/><line style="stroke:#181818;stroke-width:1;" x1="82.8193" x2="82.8193" y1="83.9688" y2="125.3677"/><polygon fill="#181818" points="78.8193,115.3677,82.8193,125.3677,86.8193,115.3677,82.8193,119.3677" style="stroke:#181818;stroke-width:1;"/><text fill="#000000" font-family="sans-serif" font-size="11" lengthAdjust="spacing" textLength="51.1382" x="86.8193" y="105.2734">"System"</text><line style="stroke:#181818;stroke-width:1;" x1="82.8193" x2="82.8193" y1="159.3364" y2="200.7354"/><polygon fill="#181818" points="78.8193,190.7354,82.8193,200.7354,86.8193,190.7354,82.8193,194.7354" style="stroke:#181818;stroke-width:1;"/><text fill="#000000" font-family="sans-serif" font-size="11" lengthAdjust="spacing" textLength="40.9224" x="86.8193" y="180.6411">"Users"</text><line style="stroke:#181818;stroke-width:1;" x1="82.8193" x2="82.8193" y1="278.7041" y2="303.1064"/><polygon fill="#181818" points="78.8193,293.1064,82.8193,303.1064,86.8193,293.1064,82.8193,297.1064" style="stroke:#181818;stroke-width:1;"/><line style="stroke:#181818;stroke-width:1;" x1="141.5613" x2="153.5613" y1="266.7041" y2="266.7041"/><polygon fill="#181818" points="149.5613,310.0908,153.5613,320.0908,157.5613,310.0908,153.5613,314.0908" style="stroke:#181818;stroke-width:1;"/><line style="stroke:#181818;stroke-width:1;" x1="153.5613" x2="153.5613" y1="266.7041" y2="369.0752"/><line style="stroke:#181818;stroke-width:1;" x1="153.5613" x2="94.8193" y1="369.0752" y2="369.0752"/><polygon fill="#181818" points="104.8193,365.0752,94.8193,369.0752,104.8193,373.0752,100.8193,369.0752" style="stroke:#181818;stroke-width:1;"/><line style="stroke:#181818;stroke-width:1;" x1="82.8193" x2="82.8193" y1="337.0752" y2="357.0752"/><polygon fill="#181818" points="78.8193,347.0752,82.8193,357.0752,86.8193,347.0752,82.8193,351.0752" style="stroke:#181818;stroke-width:1;"/><line style="stroke:#181818;stroke-width:1;" x1="82.8193" x2="82.8193" y1="234.7041" y2="254.7041"/><polygon fill="#181818" points="78.8193,244.7041,82.8193,254.7041,86.8193,244.7041,82.8193,248.7041" style="stroke:#181818;stroke-width:1;"/><line style="stroke:#181818;stroke-width:1;" x1="82.8193" x2="82.8193" y1="381.0752" y2="401.0752"/><polygon fill="#181818" points="78.8193,391.0752,82.8193,401.0752,86.8193,391.0752,82.8193,395.0752" style="stroke:#181818;stroke-width:1;"/><!--SRC=[FSmn3i8m34RXtQVurQaTk40ZmT213P123n0HbqP0Mja6ARU75iJyFZsr84RKTiB164U9B8usMrI-gF6ZSjJsS_mtU0lsL4UhwPL55tAMSBdzn2i5x4_-GzA0-klHZI5VEUuQsCWPTM5j26WFawMXO1qvuhiowZmjYND46eZKflaD]--></g></svg>