<svg xmlns="http://www.w3.org/2000/svg" xmlns:xlink="http://www.w3.org/1999/xlink" contentStyleType="text/css" data-diagram-type="SEQUENCE" height="369px" preserveAspectRatio="none" style="width:539px;height:369px;background:#FFFFFF;" version="1.1" viewBox="0 0 539 369" width="539px" zoomAndPan="magnify"><defs/><g><g><title>User</title><rect fill="#000000" fill-opacity="0.00000" height="207.7969" width="8" x="19.9551" y="81.2969"/><line style="stroke:#181818;stroke-width:0.5;stroke-dasharray:5,5;" x1="23" x2="23" y1="81.2969" y2="289.0938"/></g><g><title>System</title><rect fill="#000000" fill-opacity="0.00000" height="207.7969" width="8" x="123.834" y="81.2969"/><line style="stroke:#181818;stroke-width:0.5;stroke-dasharray:5,5;" x1="127.731" x2="127.731" y1="81.2969" y2="289.0938"/></g><g><title>Ticketing Service</title><rect fill="#000000" fill-opacity="0.00000" height="207.7969" width="8" x="302.1772" y="81.2969"/><line style="stroke:#181818;stroke-width:0.5;stroke-dasharray:5,5;" x1="306.0825" x2="306.0825" y1="81.2969" y2="289.0938"/></g><g><title>Notification Service</title><rect fill="#000000" fill-opacity="0.00000" height="207.7969" width="8" x="454.5322" y="81.2969"/><line style="stroke:#181818;stroke-width:0.5;stroke-dasharray:5,5;" x1="458.272" x2="458.272" y1="81.2969" y2="289.0938"/></g><g class="participant participant-head" data-participant="User"><text fill="#000000" font-family="sans-serif" font-size="14" lengthAdjust="spacing" textLength="31.9102" x="5" y="77.9951">User</text><ellipse cx="23.9551" cy="13.5" fill="#E2E2F0" rx="8" ry="8" style="stroke:#181818;stroke-width:0.5;"/><path d="M23.9551,21.5 L23.9551,48.5 M10.9551,29.5 L36.9551,29.5 M23.9551,48.5 L10.9551,63.5 M23.9551,48.5 L36.9551,63.5" fill="none" style="stroke:#181818;stroke-width:0.5;"/></g><g class="participant participant-tail" data-participant="User"><text fill="#000000" font-family="sans-serif" font-size="14" lengthAdjust="spacing" textLength="31.9102" x="5" y="301.0889">User</text><ellipse cx="23.9551" cy="312.8906" fill="#E2E2F0" rx="8" ry="8" style="stroke:#181818;stroke-width:0.5;"/><path d="M23.9551,320.8906 L23.9551,347.8906 M10.9551,328.8906 L36.9551,328.8906 M23.9551,347.8906 L10.9551,362.8906 M23.9551,347.8906 L36.9551,362.8906" fill="none" style="stroke:#181818;stroke-width:0.5;"/></g><g class="participant participant-head" data-participant="Sys"><rect fill="#E2E2F0" height="30.2969" rx="2.5" ry="2.5" style="stroke:#181818;stroke-width:0.5;" width="66.2061" x="94.731" y="50"/><text fill="#000000" font-family="sans-serif" font-size="14" lengthAdjust="spacing" textLength="52.2061" x="101.731" y="69.9951">System</text></g><g class="participant participant-tail" data-participant="Sys"><rect fill="#E2E2F0" height="30.2969" rx="2.5" ry="2.5" style="stroke:#181818;stroke-width:0.5;" width="66.2061" x="94.731" y="288.0938"/><text fill="#000000" font-family="sans-serif" font-size="14" lengthAdjust="spacing" textLength="52.2061" x="101.731" y="308.0889">System</text></g><g class="participant participant-head" data-participant="TicketSvc"><rect fill="#E2E2F0" height="30.2969" rx="2.5" ry="2.5" style="stroke:#181818;stroke-width:0.5;" width="134.1895" x="239.0825" y="50"/><text fill="#000000" font-family="sans-serif" font-size="14" lengthAdjust="spacing" textLength="120.1895" x="246.0825" y="69.9951">Ticketing Service</text></g><g class="participant participant-tail" data-participant="TicketSvc"><rect fill="#E2E2F0" height="30.2969" rx="2.5" ry="2.5" style="stroke:#181818;stroke-width:0.5;" width="134.1895" x="239.0825" y="288.0938"/><text fill="#000000" font-family="sans-serif" font-size="14" lengthAdjust="spacing" textLength="120.1895" x="246.0825" y="308.0889">Ticketing Service</text></g><g class="participant participant-head" data-participant="NotifSvc"><rect fill="#E2E2F0" height="30.2969" rx="2.5" ry="2.5" style="stroke:#181818;stroke-width:0.5;" width="150.5205" x="383.272" y="50"/><text fill="#000000" font-family="sans-serif" font-size="14" lengthAdjust="spacing" textLength="136.5205" x="390.272" y="69.9951">Notification Service</text></g><g class="participant participant-tail" data-participant="NotifSvc"><rect fill="#E2E2F0" height="30.2969" rx="2.5" ry="2.5" style="stroke:#181818;stroke-width:0.5;" width="150.5205" x="383.272" y="288.0938"/><text fill="#000000" font-family="sans-serif" font-size="14" lengthAdjust="spacing" textLength="136.5205" x="390.272" y="308.0889">Notification Service</text></g><g class="message" data-participant-1="User" data-participant-2="Sys"><polygon fill="#181818" points="115.834,108.4297,125.834,112.4297,115.834,116.4297,119.834,112.4297" style="stroke:#181818;stroke-width:1;"/><line style="stroke:#181818;stroke-width:1;" x1="23.9551" x2="121.834" y1="112.4297" y2="112.4297"/><text fill="#000000" font-family="sans-serif" font-size="13" lengthAdjust="spacing" textLength="79.8789" x="30.9551" y="107.3638">Receive Call</text></g><g class="message" data-participant-1="Sys" data-participant-2="Sys"><line style="stroke:#181818;stroke-width:1;" x1="127.834" x2="169.834" y1="141.5625" y2="141.5625"/><line style="stroke:#181818;stroke-width:1;" x1="169.834" x2="169.834" y1="141.5625" y2="154.5625"/><line style="stroke:#181818;stroke-width:1;" x1="128.834" x2="169.834" y1="154.5625" y2="154.5625"/><polygon fill="#181818" points="138.834,150.5625,128.834,154.5625,138.834,158.5625,134.834,154.5625" style="stroke:#181818;stroke-width:1;"/><text fill="#000000" font-family="sans-serif" font-size="13" lengthAdjust="spacing" textLength="118.3965" x="134.834" y="136.4966">Display Caller Info</text></g><g class="message" data-participant-1="Sys" data-participant-2="TicketSvc"><polygon fill="#181818" points="294.1772,179.6953,304.1772,183.6953,294.1772,187.6953,298.1772,183.6953" style="stroke:#181818;stroke-width:1;"/><line style="stroke:#181818;stroke-width:1;" x1="127.834" x2="300.1772" y1="183.6953" y2="183.6953"/><text fill="#000000" font-family="sans-serif" font-size="13" lengthAdjust="spacing" textLength="86.9375" x="134.834" y="178.6294">Create Ticket</text></g><g class="message" data-participant-1="TicketSvc" data-participant-2="Sys"><polygon fill="#181818" points="138.834,208.8281,128.834,212.8281,138.834,216.8281,134.834,212.8281" style="stroke:#181818;stroke-width:1;"/><line style="stroke:#181818;stroke-width:1;" x1="132.834" x2="305.1772" y1="212.8281" y2="212.8281"/><text fill="#000000" font-family="sans-serif" font-size="13" lengthAdjust="spacing" textLength="154.3433" x="144.834" y="207.7622">Confirm Ticket Creation</text></g><g class="message" data-participant-1="Sys" data-participant-2="NotifSvc"><polygon fill="#181818" points="446.5322,237.9609,456.5322,241.9609,446.5322,245.9609,450.5322,241.9609" style="stroke:#181818;stroke-width:1;"/><line style="stroke:#181818;stroke-width:1;" x1="127.834" x2="452.5322" y1="241.9609" y2="241.9609"/><text fill="#000000" font-family="sans-serif" font-size="13" lengthAdjust="spacing" textLength="111.4648" x="134.834" y="236.895">Send Notification</text></g><g class="message" data-participant-1="NotifSvc" data-participant-2="User"><polygon fill="#181818" points="34.9551,267.0938,24.9551,271.0938,34.9551,275.0938,30.9551,271.0938" style="stroke:#181818;stroke-width:1;"/><line style="stroke:#181818;stroke-width:1;" x1="28.9551" x2="457.5322" y1="271.0938" y2="271.0938"/><text fill="#000000" font-family="sans-serif" font-size="13" lengthAdjust="spacing" textLength="105.936" x="40.9551" y="266.0278">Notify Customer</text></g><!--SRC=[LP0n3i8m34NtdCBgpWKoi9I5XO720IpZ8eisgH9JgRSdQPk8Rj5_J_vVGL8Vu1avc0c32ic4Jg7fbgWyDe0HqlF87a8VLd5lw3ZCGhngMzhDT9HlNgKNGXNl3luAicvoEvpEkSZ2dObbPcXn64nAAhX8d0PSLf3yg-jzuRNQGXiObVV4L52ljDxr4iPTsFIqh5mgesoQwbxmFzuKbhqysMuuBVf6zMFwmHy0]--></g></svg>