<svg xmlns="http://www.w3.org/2000/svg" xmlns:xlink="http://www.w3.org/1999/xlink" contentStyleType="text/css" data-diagram-type="DESCRIPTION" height="1248px" preserveAspectRatio="none" style="width:964px;height:1248px;background:#FFFFFF;" version="1.1" viewBox="0 0 964 1248" width="964px" zoomAndPan="magnify"><defs/><g><!--cluster NLP Service--><g class="cluster" data-entity="NLP Service" data-source-line="1" data-uid="ent0002" id="cluster_NLP Service"><path d="M8.5,127.3 L103.4736,127.3 A3.75,3.75 0 0 1 105.9736,129.8 L112.9736,149.5969 L954.5,149.5969 A2.5,2.5 0 0 1 957,152.0969 L957,987.88 A2.5,2.5 0 0 1 954.5,990.38 L8.5,990.38 A2.5,2.5 0 0 1 6,987.88 L6,129.8 A2.5,2.5 0 0 1 8.5,127.3" fill="none" style="stroke:#000000;stroke-width:1.5;"/><line style="stroke:#000000;stroke-width:1.5;" x1="6" x2="112.9736" y1="149.5969" y2="149.5969"/><text fill="#000000" font-family="sans-serif" font-size="14" font-weight="bold" lengthAdjust="spacing" textLength="93.9736" x="10" y="142.2951">NLP Service</text></g><!--cluster Inference Gateway--><g class="cluster" data-entity="Inference Gateway" data-source-line="2" data-uid="ent0003" id="cluster_Inference Gateway"><rect fill="none" height="211.8" rx="2.5" ry="2.5" style="stroke:#181818;stroke-width:1;" width="329" x="38" y="201.09"/><rect fill="none" height="10" style="stroke:#181818;stroke-width:1;" width="15" x="347" y="206.09"/><rect fill="none" height="2" style="stroke:#181818;stroke-width:1;" width="4" x="345" y="208.09"/><rect fill="none" height="2" style="stroke:#181818;stroke-width:1;" width="4" x="345" y="212.09"/><text fill="#000000" font-family="sans-serif" font-size="14" font-weight="bold" lengthAdjust="spacing" textLength="148.4287" x="128.2856" y="227.0851">Inference Gateway</text></g><!--cluster Tokenization/Normalization--><g class="cluster" data-entity="Tokenization.Normalization" data-source-line="8" data-uid="ent0007" id="cluster_Tokenization.Normalization"><rect fill="none" height="113.3" rx="2.5" ry="2.5" style="stroke:#181818;stroke-width:1;" width="312" x="114" y="519.19"/><rect fill="none" height="10" style="stroke:#181818;stroke-width:1;" width="15" x="406" y="524.19"/><rect fill="none" height="2" style="stroke:#181818;stroke-width:1;" width="4" x="404" y="526.19"/><rect fill="none" height="2" style="stroke:#181818;stroke-width:1;" width="4" x="404" y="530.19"/><text fill="#000000" font-family="sans-serif" font-size="14" font-weight="bold" lengthAdjust="spacing" textLength="217.0684" x="161.4658" y="545.1851">Tokenization/Normalization</text></g><!--cluster Model Registry--><g class="cluster" data-entity="Model Registry" data-source-line="15" data-uid="ent0012" id="cluster_Model Registry"><rect fill="none" height="97.3" rx="2.5" ry="2.5" style="stroke:#181818;stroke-width:1;" width="534" x="399" y="170.3"/><rect fill="none" height="10" style="stroke:#181818;stroke-width:1;" width="15" x="913" y="175.3"/><rect fill="none" height="2" style="stroke:#181818;stroke-width:1;" width="4" x="911" y="177.3"/><rect fill="none" height="2" style="stroke:#181818;stroke-width:1;" width="4" x="911" y="181.3"/><text fill="#000000" font-family="sans-serif" font-size="14" font-weight="bold" lengthAdjust="spacing" textLength="118.8906" x="606.5547" y="196.2951">Model Registry</text></g><!--cluster Feature Extraction--><g class="cluster" data-entity="Feature Extraction" data-source-line="20" data-uid="ent0015" id="cluster_Feature Extraction"><rect fill="none" height="219.6" rx="2.5" ry="2.5" style="stroke:#181818;stroke-width:1;" width="404" x="121" y="738.78"/><rect fill="none" height="10" style="stroke:#181818;stroke-width:1;" width="15" x="505" y="743.78"/><rect fill="none" height="2" style="stroke:#181818;stroke-width:1;" width="4" x="503" y="745.78"/><rect fill="none" height="2" style="stroke:#181818;stroke-width:1;" width="4" x="503" y="749.78"/><text fill="#000000" font-family="sans-serif" font-size="14" font-weight="bold" lengthAdjust="spacing" textLength="147.4512" x="249.2744" y="764.7751">Feature Extraction</text></g><!--cluster Observability--><g class="cluster" data-entity="Observability" data-source-line="29" data-uid="ent0021" id="cluster_Observability"><rect fill="none" height="113.3" rx="2.5" ry="2.5" style="stroke:#181818;stroke-width:1;" width="433" x="479" y="519.19"/><rect fill="none" height="10" style="stroke:#181818;stroke-width:1;" width="15" x="892" y="524.19"/><rect fill="none" height="2" style="stroke:#181818;stroke-width:1;" width="4" x="890" y="526.19"/><rect fill="none" height="2" style="stroke:#181818;stroke-width:1;" width="4" x="890" y="530.19"/><text fill="#000000" font-family="sans-serif" font-size="14" font-weight="bold" lengthAdjust="spacing" textLength="105.4648" x="642.7676" y="545.1851">Observability</text></g><!--cluster Governance Wrapper--><g class="cluster" data-entity="Governance Wrapper" data-source-line="34" data-uid="ent0024" id="cluster_Governance Wrapper"><rect fill="none" height="113.29" rx="2.5" ry="2.5" style="stroke:#181818;stroke-width:1;" width="498" x="407" y="299.6"/><rect fill="none" height="10" style="stroke:#181818;stroke-width:1;" width="15" x="885" y="304.6"/><rect fill="none" height="2" style="stroke:#181818;stroke-width:1;" width="4" x="883" y="306.6"/><rect fill="none" height="2" style="stroke:#181818;stroke-width:1;" width="4" x="883" y="310.6"/><text fill="#000000" font-family="sans-serif" font-size="14" font-weight="bold" lengthAdjust="spacing" textLength="166.9199" x="572.54" y="325.5951">Governance Wrapper</text></g><!--cluster Data Sources--><g class="cluster" data-entity="Data Sources" data-source-line="40" data-uid="ent0027" id="cluster_Data Sources"><path d="M107.5,6 L213.2813,6 A3.75,3.75 0 0 1 215.7813,8.5 L222.7813,28.2969 L355.5,28.2969 A2.5,2.5 0 0 1 358,30.7969 L358,100.8 A2.5,2.5 0 0 1 355.5,103.3 L107.5,103.3 A2.5,2.5 0 0 1 105,100.8 L105,8.5 A2.5,2.5 0 0 1 107.5,6" fill="none" style="stroke:#000000;stroke-width:1.5;"/><line style="stroke:#000000;stroke-width:1.5;" x1="105" x2="222.7813" y1="28.2969" y2="28.2969"/><text fill="#000000" font-family="sans-serif" font-size="14" font-weight="bold" lengthAdjust="spacing" textLength="104.7813" x="109" y="20.9951">Data Sources</text></g><!--cluster Business Purpose--><g class="cluster" data-entity="Business Purpose" data-source-line="45" data-uid="ent0030" id="cluster_Business Purpose"><path d="M200.5,1022.38 L340.8711,1022.38 A3.75,3.75 0 0 1 343.3711,1024.88 L350.3711,1044.6769 L771.5,1044.6769 A2.5,2.5 0 0 1 774,1047.1769 L774,1239.47 A2.5,2.5 0 0 1 771.5,1241.97 L200.5,1241.97 A2.5,2.5 0 0 1 198,1239.47 L198,1024.88 A2.5,2.5 0 0 1 200.5,1022.38" fill="none" style="stroke:#000000;stroke-width:1.5;"/><line style="stroke:#000000;stroke-width:1.5;" x1="198" x2="350.3711" y1="1044.6769" y2="1044.6769"/><text fill="#000000" font-family="sans-serif" font-size="14" font-weight="bold" lengthAdjust="spacing" textLength="139.3711" x="202" y="1037.3751">Business Purpose</text></g><!--entity Language Detection--><g class="entity" data-entity="Language Detection" data-source-line="7" data-uid="ent0006" id="entity_Language Detection"><rect fill="#F1F1F1" height="46.2969" rx="2.5" ry="2.5" style="stroke:#181818;stroke-width:0.5;" width="181.5518" x="32.22" y="448.89"/><rect fill="#F1F1F1" height="10" style="stroke:#181818;stroke-width:0.5;" width="15" x="193.7718" y="453.89"/><rect fill="#F1F1F1" height="2" style="stroke:#181818;stroke-width:0.5;" width="4" x="191.7718" y="455.89"/><rect fill="#F1F1F1" height="2" style="stroke:#181818;stroke-width:0.5;" width="4" x="191.7718" y="459.89"/><text fill="#000000" font-family="sans-serif" font-size="14" lengthAdjust="spacing" textLength="141.5518" x="47.22" y="481.8851">Language Detection</text></g><!--entity Sentiment Classifier--><g class="entity" data-entity="Sentiment Classifier" data-source-line="11" data-uid="ent0009" id="entity_Sentiment Classifier"><rect fill="#F1F1F1" height="46.2969" rx="2.5" ry="2.5" style="stroke:#181818;stroke-width:0.5;" width="180.7246" x="463.64" y="668.49"/><rect fill="#F1F1F1" height="10" style="stroke:#181818;stroke-width:0.5;" width="15" x="624.3646" y="673.49"/><rect fill="#F1F1F1" height="2" style="stroke:#181818;stroke-width:0.5;" width="4" x="622.3646" y="675.49"/><rect fill="#F1F1F1" height="2" style="stroke:#181818;stroke-width:0.5;" width="4" x="622.3646" y="679.49"/><text fill="#000000" font-family="sans-serif" font-size="14" lengthAdjust="spacing" textLength="140.7246" x="478.64" y="701.4851">Sentiment Classifier</text></g><!--entity Entity Extractor--><g class="entity" data-entity="Entity Extractor" data-source-line="12" data-uid="ent0010" id="entity_Entity Extractor"><rect fill="#F1F1F1" height="46.2969" rx="2.5" ry="2.5" style="stroke:#181818;stroke-width:0.5;" width="149.7852" x="753.11" y="668.49"/><rect fill="#F1F1F1" height="10" style="stroke:#181818;stroke-width:0.5;" width="15" x="882.8952" y="673.49"/><rect fill="#F1F1F1" height="2" style="stroke:#181818;stroke-width:0.5;" width="4" x="880.8952" y="675.49"/><rect fill="#F1F1F1" height="2" style="stroke:#181818;stroke-width:0.5;" width="4" x="880.8952" y="679.49"/><text fill="#000000" font-family="sans-serif" font-size="14" lengthAdjust="spacing" textLength="109.7852" x="768.11" y="701.4851">Entity Extractor</text></g><!--entity Topic Modeling--><g class="entity" data-entity="Topic Modeling" data-source-line="13" data-uid="ent0011" id="entity_Topic Modeling"><rect fill="#F1F1F1" height="46.2969" rx="2.5" ry="2.5" style="stroke:#181818;stroke-width:0.5;" width="145.7246" x="283.14" y="668.49"/><rect fill="#F1F1F1" height="10" style="stroke:#181818;stroke-width:0.5;" width="15" x="408.8646" y="673.49"/><rect fill="#F1F1F1" height="2" style="stroke:#181818;stroke-width:0.5;" width="4" x="406.8646" y="675.49"/><rect fill="#F1F1F1" height="2" style="stroke:#181818;stroke-width:0.5;" width="4" x="406.8646" y="679.49"/><text fill="#000000" font-family="sans-serif" font-size="14" lengthAdjust="spacing" textLength="105.7246" x="298.14" y="701.4851">Topic Modeling</text></g><!--entity Processed Mentions Store--><g class="entity" data-entity="Processed Mentions Store" data-source-line="26" data-uid="ent0019" id="entity_Processed Mentions Store"><rect fill="#F1F1F1" height="46.2969" rx="2.5" ry="2.5" style="stroke:#181818;stroke-width:0.5;" width="221.0498" x="549.48" y="888.08"/><rect fill="#F1F1F1" height="10" style="stroke:#181818;stroke-width:0.5;" width="15" x="750.5298" y="893.08"/><rect fill="#F1F1F1" height="2" style="stroke:#181818;stroke-width:0.5;" width="4" x="748.5298" y="895.08"/><rect fill="#F1F1F1" height="2" style="stroke:#181818;stroke-width:0.5;" width="4" x="748.5298" y="899.08"/><text fill="#000000" font-family="sans-serif" font-size="14" lengthAdjust="spacing" textLength="181.0498" x="564.48" y="921.0751">Processed Mentions Store</text></g><!--entity Feature Store--><g class="entity" data-entity="Feature Store" data-source-line="27" data-uid="ent0020" id="entity_Feature Store"><rect fill="#F1F1F1" height="46.2969" rx="2.5" ry="2.5" style="stroke:#181818;stroke-width:0.5;" width="135.7373" x="805.13" y="888.08"/><rect fill="#F1F1F1" height="10" style="stroke:#181818;stroke-width:0.5;" width="15" x="920.8673" y="893.08"/><rect fill="#F1F1F1" height="2" style="stroke:#181818;stroke-width:0.5;" width="4" x="918.8673" y="895.08"/><rect fill="#F1F1F1" height="2" style="stroke:#181818;stroke-width:0.5;" width="4" x="918.8673" y="899.08"/><text fill="#000000" font-family="sans-serif" font-size="14" lengthAdjust="spacing" textLength="95.7373" x="820.13" y="921.0751">Feature Store</text></g><!--entity CPU Models--><g class="entity" data-entity="CPU Models" data-source-line="3" data-uid="ent0004" id="entity_CPU Models"><rect fill="#F1F1F1" height="46.2969" rx="2.5" ry="2.5" style="stroke:#181818;stroke-width:0.5;" width="122.2432" x="61.88" y="342.6"/><rect fill="#F1F1F1" height="10" style="stroke:#181818;stroke-width:0.5;" width="15" x="164.1232" y="347.6"/><rect fill="#F1F1F1" height="2" style="stroke:#181818;stroke-width:0.5;" width="4" x="162.1232" y="349.6"/><rect fill="#F1F1F1" height="2" style="stroke:#181818;stroke-width:0.5;" width="4" x="162.1232" y="353.6"/><text fill="#000000" font-family="sans-serif" font-size="14" lengthAdjust="spacing" textLength="82.2432" x="76.88" y="375.5951">CPU Models</text></g><!--entity GPU Models--><g class="entity" data-entity="GPU Models" data-source-line="4" data-uid="ent0005" id="entity_GPU Models"><rect fill="#F1F1F1" height="46.2969" rx="2.5" ry="2.5" style="stroke:#181818;stroke-width:0.5;" width="123.3164" x="219.34" y="342.6"/><rect fill="#F1F1F1" height="10" style="stroke:#181818;stroke-width:0.5;" width="15" x="322.6564" y="347.6"/><rect fill="#F1F1F1" height="2" style="stroke:#181818;stroke-width:0.5;" width="4" x="320.6564" y="349.6"/><rect fill="#F1F1F1" height="2" style="stroke:#181818;stroke-width:0.5;" width="4" x="320.6564" y="353.6"/><text fill="#000000" font-family="sans-serif" font-size="14" lengthAdjust="spacing" textLength="83.3164" x="234.34" y="375.5951">GPU Models</text></g><!--entity Arabic-specific Normalization--><g class="entity" data-entity="Arabic-specific Normalization" data-source-line="9" data-uid="ent0008" id="entity_Arabic-specific Normalization"><rect fill="#F1F1F1" height="46.2969" rx="2.5" ry="2.5" style="stroke:#181818;stroke-width:0.5;" width="244.3193" x="137.84" y="562.19"/><rect fill="#F1F1F1" height="10" style="stroke:#181818;stroke-width:0.5;" width="15" x="362.1593" y="567.19"/><rect fill="#F1F1F1" height="2" style="stroke:#181818;stroke-width:0.5;" width="4" x="360.1593" y="569.19"/><rect fill="#F1F1F1" height="2" style="stroke:#181818;stroke-width:0.5;" width="4" x="360.1593" y="573.19"/><text fill="#000000" font-family="sans-serif" font-size="14" lengthAdjust="spacing" textLength="204.3193" x="152.84" y="595.1851">Arabic-specific Normalization</text></g><!--entity Versioned Artifacts--><g class="entity" data-entity="Versioned Artifacts" data-source-line="16" data-uid="ent0013" id="entity_Versioned Artifacts"><rect fill="#F1F1F1" height="46.2969" rx="2.5" ry="2.5" style="stroke:#181818;stroke-width:0.5;" width="173.2188" x="415.39" y="205.3"/><rect fill="#F1F1F1" height="10" style="stroke:#181818;stroke-width:0.5;" width="15" x="568.6088" y="210.3"/><rect fill="#F1F1F1" height="2" style="stroke:#181818;stroke-width:0.5;" width="4" x="566.6088" y="212.3"/><rect fill="#F1F1F1" height="2" style="stroke:#181818;stroke-width:0.5;" width="4" x="566.6088" y="216.3"/><text fill="#000000" font-family="sans-serif" font-size="14" lengthAdjust="spacing" textLength="133.2188" x="430.39" y="238.2951">Versioned Artifacts</text></g><!--entity Configuration for Arabic and English--><g class="entity" data-entity="Configuration for Arabic and English" data-source-line="17" data-uid="ent0014" id="entity_Configuration for Arabic and English"><rect fill="#F1F1F1" height="46.2969" rx="2.5" ry="2.5" style="stroke:#181818;stroke-width:0.5;" width="293.2715" x="623.36" y="205.3"/><rect fill="#F1F1F1" height="10" style="stroke:#181818;stroke-width:0.5;" width="15" x="896.6315" y="210.3"/><rect fill="#F1F1F1" height="2" style="stroke:#181818;stroke-width:0.5;" width="4" x="894.6315" y="212.3"/><rect fill="#F1F1F1" height="2" style="stroke:#181818;stroke-width:0.5;" width="4" x="894.6315" y="216.3"/><text fill="#000000" font-family="sans-serif" font-size="14" lengthAdjust="spacing" textLength="253.2715" x="638.36" y="238.2951">Configuration for Arabic and English</text></g><!--entity Polarity Scores--><g class="entity" data-entity="Polarity Scores" data-source-line="21" data-uid="ent0016" id="entity_Polarity Scores"><rect fill="#F1F1F1" height="46.2969" rx="2.5" ry="2.5" style="stroke:#181818;stroke-width:0.5;" width="144.1592" x="144.92" y="781.78"/><rect fill="#F1F1F1" height="10" style="stroke:#181818;stroke-width:0.5;" width="15" x="269.0792" y="786.78"/><rect fill="#F1F1F1" height="2" style="stroke:#181818;stroke-width:0.5;" width="4" x="267.0792" y="788.78"/><rect fill="#F1F1F1" height="2" style="stroke:#181818;stroke-width:0.5;" width="4" x="267.0792" y="792.78"/><text fill="#000000" font-family="sans-serif" font-size="14" lengthAdjust="spacing" textLength="104.1592" x="159.92" y="814.7751">Polarity Scores</text></g><!--entity Entity Sentiment--><g class="entity" data-entity="Entity Sentiment" data-source-line="22" data-uid="ent0017" id="entity_Entity Sentiment"><rect fill="#F1F1F1" height="46.2969" rx="2.5" ry="2.5" style="stroke:#181818;stroke-width:0.5;" width="157.6875" x="324.16" y="781.78"/><rect fill="#F1F1F1" height="10" style="stroke:#181818;stroke-width:0.5;" width="15" x="461.8475" y="786.78"/><rect fill="#F1F1F1" height="2" style="stroke:#181818;stroke-width:0.5;" width="4" x="459.8475" y="788.78"/><rect fill="#F1F1F1" height="2" style="stroke:#181818;stroke-width:0.5;" width="4" x="459.8475" y="792.78"/><text fill="#000000" font-family="sans-serif" font-size="14" lengthAdjust="spacing" textLength="117.6875" x="339.16" y="814.7751">Entity Sentiment</text></g><!--entity Keyphrases--><g class="entity" data-entity="Keyphrases" data-source-line="23" data-uid="ent0018" id="entity_Keyphrases"><rect fill="#F1F1F1" height="46.2969" rx="2.5" ry="2.5" style="stroke:#181818;stroke-width:0.5;" width="121.375" x="156.31" y="888.08"/><rect fill="#F1F1F1" height="10" style="stroke:#181818;stroke-width:0.5;" width="15" x="257.685" y="893.08"/><rect fill="#F1F1F1" height="2" style="stroke:#181818;stroke-width:0.5;" width="4" x="255.685" y="895.08"/><rect fill="#F1F1F1" height="2" style="stroke:#181818;stroke-width:0.5;" width="4" x="255.685" y="899.08"/><text fill="#000000" font-family="sans-serif" font-size="14" lengthAdjust="spacing" textLength="81.375" x="171.31" y="921.0751">Keyphrases</text></g><!--entity Per-model Latency--><g class="entity" data-entity="Per-model Latency" data-source-line="30" data-uid="ent0022" id="entity_Per-model Latency"><rect fill="#F1F1F1" height="46.2969" rx="2.5" ry="2.5" style="stroke:#181818;stroke-width:0.5;" width="171.2432" x="503.38" y="562.19"/><rect fill="#F1F1F1" height="10" style="stroke:#181818;stroke-width:0.5;" width="15" x="654.6232" y="567.19"/><rect fill="#F1F1F1" height="2" style="stroke:#181818;stroke-width:0.5;" width="4" x="652.6232" y="569.19"/><rect fill="#F1F1F1" height="2" style="stroke:#181818;stroke-width:0.5;" width="4" x="652.6232" y="573.19"/><text fill="#000000" font-family="sans-serif" font-size="14" lengthAdjust="spacing" textLength="131.2432" x="518.38" y="595.1851">Per-model Latency</text></g><!--entity Accuracy Metrics--><g class="entity" data-entity="Accuracy Metrics" data-source-line="31" data-uid="ent0023" id="entity_Accuracy Metrics"><rect fill="#F1F1F1" height="46.2969" rx="2.5" ry="2.5" style="stroke:#181818;stroke-width:0.5;" width="159.4307" x="709.28" y="562.19"/><rect fill="#F1F1F1" height="10" style="stroke:#181818;stroke-width:0.5;" width="15" x="848.7107" y="567.19"/><rect fill="#F1F1F1" height="2" style="stroke:#181818;stroke-width:0.5;" width="4" x="846.7107" y="569.19"/><rect fill="#F1F1F1" height="2" style="stroke:#181818;stroke-width:0.5;" width="4" x="846.7107" y="573.19"/><text fill="#000000" font-family="sans-serif" font-size="14" lengthAdjust="spacing" textLength="119.4307" x="724.28" y="595.1851">Accuracy Metrics</text></g><!--entity Dataset Lineage--><g class="entity" data-entity="Dataset Lineage" data-source-line="35" data-uid="ent0025" id="entity_Dataset Lineage"><rect fill="#F1F1F1" height="46.2969" rx="2.5" ry="2.5" style="stroke:#181818;stroke-width:0.5;" width="154.5293" x="430.74" y="342.6"/><rect fill="#F1F1F1" height="10" style="stroke:#181818;stroke-width:0.5;" width="15" x="565.2693" y="347.6"/><rect fill="#F1F1F1" height="2" style="stroke:#181818;stroke-width:0.5;" width="4" x="563.2693" y="349.6"/><rect fill="#F1F1F1" height="2" style="stroke:#181818;stroke-width:0.5;" width="4" x="563.2693" y="353.6"/><text fill="#000000" font-family="sans-serif" font-size="14" lengthAdjust="spacing" textLength="114.5293" x="445.74" y="375.5951">Dataset Lineage</text></g><!--entity Consent/Masking Operations--><g class="entity" data-entity="Consent.Masking Operations" data-source-line="36" data-uid="ent0026" id="entity_Consent.Masking Operations"><rect fill="#F1F1F1" height="46.2969" rx="2.5" ry="2.5" style="stroke:#181818;stroke-width:0.5;" width="241.3252" x="620.34" y="342.6"/><rect fill="#F1F1F1" height="10" style="stroke:#181818;stroke-width:0.5;" width="15" x="841.6652" y="347.6"/><rect fill="#F1F1F1" height="2" style="stroke:#181818;stroke-width:0.5;" width="4" x="839.6652" y="349.6"/><rect fill="#F1F1F1" height="2" style="stroke:#181818;stroke-width:0.5;" width="4" x="839.6652" y="353.6"/><text fill="#000000" font-family="sans-serif" font-size="14" lengthAdjust="spacing" textLength="201.3252" x="635.34" y="375.5951">Consent/Masking Operations</text></g><!--entity ETL Pipeline--><g class="entity" data-entity="ETL Pipeline" data-source-line="41" data-uid="ent0028" id="entity_ETL Pipeline"><rect fill="#F1F1F1" height="46.2969" rx="2.5" ry="2.5" style="stroke:#181818;stroke-width:0.5;" width="124.7451" x="120.63" y="41"/><rect fill="#F1F1F1" height="10" style="stroke:#181818;stroke-width:0.5;" width="15" x="225.3751" y="46"/><rect fill="#F1F1F1" height="2" style="stroke:#181818;stroke-width:0.5;" width="4" x="223.3751" y="48"/><rect fill="#F1F1F1" height="2" style="stroke:#181818;stroke-width:0.5;" width="4" x="223.3751" y="52"/><text fill="#000000" font-family="sans-serif" font-size="14" lengthAdjust="spacing" textLength="84.7451" x="135.63" y="73.9951">ETL Pipeline</text></g><!--entity API--><g class="entity" data-entity="API" data-source-line="42" data-uid="ent0029" id="entity_API"><rect fill="#F1F1F1" height="46.2969" rx="2.5" ry="2.5" style="stroke:#181818;stroke-width:0.5;" width="62.1484" x="279.93" y="41"/><rect fill="#F1F1F1" height="10" style="stroke:#181818;stroke-width:0.5;" width="15" x="322.0784" y="46"/><rect fill="#F1F1F1" height="2" style="stroke:#181818;stroke-width:0.5;" width="4" x="320.0784" y="48"/><rect fill="#F1F1F1" height="2" style="stroke:#181818;stroke-width:0.5;" width="4" x="320.0784" y="52"/><text fill="#000000" font-family="sans-serif" font-size="14" lengthAdjust="spacing" textLength="22.1484" x="294.93" y="73.9951">API</text></g><!--entity Brand Influence Dashboards--><g class="entity" data-entity="Brand Influence Dashboards" data-source-line="46" data-uid="ent0031" id="entity_Brand Influence Dashboards"><rect fill="#F1F1F1" height="46.2969" rx="2.5" ry="2.5" style="stroke:#181818;stroke-width:0.5;" width="238.584" x="221.71" y="1065.38"/><rect fill="#F1F1F1" height="10" style="stroke:#181818;stroke-width:0.5;" width="15" x="440.294" y="1070.38"/><rect fill="#F1F1F1" height="2" style="stroke:#181818;stroke-width:0.5;" width="4" x="438.294" y="1072.38"/><rect fill="#F1F1F1" height="2" style="stroke:#181818;stroke-width:0.5;" width="4" x="438.294" y="1076.38"/><text fill="#000000" font-family="sans-serif" font-size="14" lengthAdjust="spacing" textLength="198.584" x="236.71" y="1098.3751">Brand Influence Dashboards</text></g><!--entity Market Position Dashboards--><g class="entity" data-entity="Market Position Dashboards" data-source-line="47" data-uid="ent0032" id="entity_Market Position Dashboards"><rect fill="#F1F1F1" height="46.2969" rx="2.5" ry="2.5" style="stroke:#181818;stroke-width:0.5;" width="236.0273" x="494.99" y="1065.38"/><rect fill="#F1F1F1" height="10" style="stroke:#181818;stroke-width:0.5;" width="15" x="711.0173" y="1070.38"/><rect fill="#F1F1F1" height="2" style="stroke:#181818;stroke-width:0.5;" width="4" x="709.0173" y="1072.38"/><rect fill="#F1F1F1" height="2" style="stroke:#181818;stroke-width:0.5;" width="4" x="709.0173" y="1076.38"/><text fill="#000000" font-family="sans-serif" font-size="14" lengthAdjust="spacing" textLength="196.0273" x="509.99" y="1098.3751">Market Position Dashboards</text></g><!--entity Issues Detection Dashboards--><g class="entity" data-entity="Issues Detection Dashboards" data-source-line="48" data-uid="ent0033" id="entity_Issues Detection Dashboards"><rect fill="#F1F1F1" height="46.2969" rx="2.5" ry="2.5" style="stroke:#181818;stroke-width:0.5;" width="243.9023" x="222.05" y="1171.67"/><rect fill="#F1F1F1" height="10" style="stroke:#181818;stroke-width:0.5;" width="15" x="445.9523" y="1176.67"/><rect fill="#F1F1F1" height="2" style="stroke:#181818;stroke-width:0.5;" width="4" x="443.9523" y="1178.67"/><rect fill="#F1F1F1" height="2" style="stroke:#181818;stroke-width:0.5;" width="4" x="443.9523" y="1182.67"/><text fill="#000000" font-family="sans-serif" font-size="14" lengthAdjust="spacing" textLength="203.9023" x="237.05" y="1204.6651">Issues Detection Dashboards</text></g><!--link ETL Pipeline to Inference Gateway--><g class="link" data-entity-1="ETL Pipeline" data-entity-2="Inference Gateway" data-source-line="51" data-uid="lnk34" id="link_ETL Pipeline_Inference Gateway"><path d="M185.64,87.72 C188.21,109.665 192.2125,143.8575 195.615,172.925 C196.4656,180.1919 197.2787,187.1384 198.0226,193.4932 C198.2086,195.0819 198.3902,196.6337 198.567,198.1441 C198.6554,198.8994 198.7426,199.6443 198.8286,200.3784 C198.8501,200.562 198.1739,194.7855 198.1952,194.9677" fill="none" id="ETL Pipeline-to-Inference Gateway" style="stroke:#181818;stroke-width:1;"/><polygon fill="#181818" points="198.8928,200.927,201.8193,191.523,198.3115,195.9609,193.8735,192.4531,198.8928,200.927" style="stroke:#181818;stroke-width:1;"/></g><!--link API to Inference Gateway--><g class="link" data-entity-1="API" data-entity-2="Inference Gateway" data-source-line="52" data-uid="lnk35" id="link_API_Inference Gateway"><path d="M295.84,87.72 C281.1,109.665 258.1375,143.8575 238.6175,172.925 C233.7375,180.1919 229.0727,187.1384 224.8052,193.4932 C223.7384,195.0819 222.6964,196.6337 221.682,198.1441 C221.1749,198.8994 220.6746,199.6443 220.1817,200.3784 C220.0584,200.562 223.2806,195.7637 223.1582,195.9459" fill="none" id="API-to-Inference Gateway" style="stroke:#181818;stroke-width:1;"/><polygon fill="#181818" points="219.8133,200.927,228.1514,195.6853,222.6007,196.776,221.51,191.2254,219.8133,200.927" style="stroke:#181818;stroke-width:1;"/></g><!--link Inference Gateway to CPU Models--><g class="link" data-entity-1="Inference Gateway" data-entity-2="CPU Models" data-source-line="54" data-uid="lnk36" id="link_Inference Gateway_CPU Models"><path d="M201.94,229.54 C200.18,232.56 161.2357,299.2588 139.2257,336.9488" fill="none" id="Inference Gateway-to-CPU Models" style="stroke:#181818;stroke-width:1;"/><polygon fill="#181818" points="136.2,342.13,144.1927,336.3753,138.7214,337.8123,137.2844,332.341,136.2,342.13" style="stroke:#181818;stroke-width:1;"/></g><!--link Inference Gateway to GPU Models--><g class="link" data-entity-1="Inference Gateway" data-entity-2="GPU Models" data-source-line="55" data-uid="lnk37" id="link_Inference Gateway_GPU Models"><path d="M202.06,229.54 C203.82,232.56 242.7643,299.2588 264.7743,336.9488" fill="none" id="Inference Gateway-to-GPU Models" style="stroke:#181818;stroke-width:1;"/><polygon fill="#181818" points="267.8,342.13,266.7156,332.341,265.2786,337.8123,259.8073,336.3753,267.8,342.13" style="stroke:#181818;stroke-width:1;"/></g><!--link CPU Models to Language Detection--><g class="link" data-entity-1="CPU Models" data-entity-2="Language Detection" data-source-line="57" data-uid="lnk38" id="link_CPU Models_Language Detection"><path d="M123,389.37 C123,406.87 123,424.97 123,442.45" fill="none" id="CPU Models-to-Language Detection" style="stroke:#181818;stroke-width:1;"/><polygon fill="#181818" points="123,448.45,127,439.45,123,443.45,119,439.45,123,448.45" style="stroke:#181818;stroke-width:1;"/></g><!--link GPU Models to Language Detection--><g class="link" data-entity-1="GPU Models" data-entity-2="Language Detection" data-source-line="58" data-uid="lnk39" id="link_GPU Models_Language Detection"><path d="M254.82,389.25 C239.84,401.63 220.41,416.87 202,428.89 C191.46,435.77 184.9648,439.6791 173.7848,445.6891" fill="none" id="GPU Models-to-Language Detection" style="stroke:#181818;stroke-width:1;"/><polygon fill="#181818" points="168.5,448.53,178.3212,447.7918,172.904,446.1626,174.5332,440.7454,168.5,448.53" style="stroke:#181818;stroke-width:1;"/></g><!--link Language Detection to Tokenization/Normalization--><g class="link" data-entity-1="Language Detection" data-entity-2="Tokenization.Normalization" data-source-line="60" data-uid="lnk40" id="link_Language Detection_Tokenization.Normalization"><path d="M214.02,477.88 C288.65,482.68 384.18,491.09 398,503.19 C401.3837,506.1525 404.2413,509.5875 406.6503,513.3371 C407.8549,515.2119 406.2986,511.7817 407.2887,513.794" fill="none" id="Language Detection-to-Tokenization/Normalization" style="stroke:#181818;stroke-width:1;"/><polygon fill="#181818" points="409.9374,519.1777,409.5534,509.3364,407.7301,514.6913,402.3752,512.868,409.9374,519.1777" style="stroke:#181818;stroke-width:1;"/></g><!--link Tokenization/Normalization to Sentiment Classifier--><g class="link" data-entity-1="Tokenization.Normalization" data-entity-2="Sentiment Classifier" data-source-line="61" data-uid="lnk41" id="link_Tokenization.Normalization_Sentiment Classifier"><path d="M414.8115,632.6832 C415.0001,633.5014 415.2078,634.3139 415.4358,635.1194 C415.892,636.7302 416.4296,638.3123 417.0583,639.8528 C418.3158,642.9336 419.9375,645.8475 422,648.49 C428.18,656.4 438.6619,661.7913 457.6819,667.9513" fill="none" id="Tokenization/Normalization-to-Sentiment Classifier" style="stroke:#181818;stroke-width:1;"/><polygon fill="#181818" points="463.39,669.8,456.0603,663.2216,458.6333,668.2594,453.5954,670.8324,463.39,669.8" style="stroke:#181818;stroke-width:1;"/></g><!--link Tokenization/Normalization to Entity Extractor--><g class="link" data-entity-1="Tokenization.Normalization" data-entity-2="Entity Extractor" data-source-line="62" data-uid="lnk42" id="link_Tokenization.Normalization_Entity Extractor"><path d="M426.1701,597.0191 C426.2341,597.098 426.2985,597.1772 426.3632,597.2568 C426.4926,597.4158 426.6233,597.5761 426.7554,597.7377 C427.0196,598.0609 427.2892,598.389 427.564,598.7219 C428.6632,600.0535 429.8467,601.4608 431.1089,602.9277 C433.6332,605.8614 436.4722,609.0331 439.5812,612.3125 C452.0175,625.43 468.775,640.27 487,648.49 C558.37,680.66 584.31,658.86 662,668.49 C691.72,672.17 718.4537,675.6692 746.8937,679.4992" fill="none" id="Tokenization/Normalization-to-Entity Extractor" style="stroke:#181818;stroke-width:1;"/><polygon fill="#181818" points="752.84,680.3,744.4544,675.1346,747.8847,679.6327,743.3867,683.063,752.84,680.3" style="stroke:#181818;stroke-width:1;"/></g><!--link Tokenization/Normalization to Topic Modeling--><g class="link" data-entity-1="Tokenization.Normalization" data-entity-2="Topic Modeling" data-source-line="63" data-uid="lnk43" id="link_Tokenization.Normalization_Topic Modeling"><path d="M405.7699,632.7777 C405.599,633.1986 405.426,633.6188 405.2509,634.0382 C404.5504,635.7158 403.8161,637.3806 403.0466,639.0214 C401.5078,642.303 399.8288,645.4888 398,648.49 C393.7,655.54 392.1683,658.0037 386.3483,663.9737" fill="none" id="Tokenization/Normalization-to-Topic Modeling" style="stroke:#181818;stroke-width:1;"/><polygon fill="#181818" points="382.16,668.27,391.3067,664.6178,385.6503,664.6898,385.5783,659.0334,382.16,668.27" style="stroke:#181818;stroke-width:1;"/></g><!--link Sentiment Classifier to Feature Extraction--><g class="link" data-entity-1="Sentiment Classifier" data-entity-2="Feature Extraction" data-source-line="65" data-uid="lnk44" id="link_Sentiment Classifier_Feature Extraction"><path d="M546.51,715.16 C541.275,730.91 534.1875,752.23 528.27,770.0288 C527.5303,772.2536 526.8089,774.4234 526.1117,776.5205 C525.7631,777.569 527.3135,772.9058 526.9777,773.9157" fill="none" id="Sentiment Classifier-to-Feature Extraction" style="stroke:#181818;stroke-width:1;"/><polygon fill="#181818" points="525.0847,779.6092,531.7199,772.3309,526.6622,774.8646,524.1285,769.8069,525.0847,779.6092" style="stroke:#181818;stroke-width:1;"/></g><!--link Entity Extractor to Feature Extraction--><g class="link" data-entity-1="Entity Extractor" data-entity-2="Feature Extraction" data-source-line="66" data-uid="lnk45" id="link_Entity Extractor_Feature Extraction"><path d="M765.06,715.16 C720.335,731.165 659.545,752.92 609.3375,770.8875 C584.2338,779.8713 561.7756,787.9081 545.2941,793.8059 C537.0533,796.7548 530.3066,799.169 525.4705,800.8993 C525.3194,800.9534 530.8194,798.9855 530.672,799.0383" fill="none" id="Entity Extractor-to-Feature Extraction" style="stroke:#181818;stroke-width:1;"/><polygon fill="#181818" points="525.0227,801.0595,534.8442,801.7938,529.7305,799.3751,532.1491,794.2614,525.0227,801.0595" style="stroke:#181818;stroke-width:1;"/></g><!--link Topic Modeling to Feature Extraction--><g class="link" data-entity-1="Topic Modeling" data-entity-2="Feature Extraction" data-source-line="67" data-uid="lnk46" id="link_Topic Modeling_Feature Extraction"><path d="M429.07,711.19 C434.78,712.47 440.48,713.68 446,714.78 C457.47,717.07 489.42,714.84 498,722.78 C501.2925,725.8275 504.0663,729.3269 506.3986,733.124 C506.9817,734.0733 507.5372,735.0412 508.0663,736.0253 C508.3309,736.5173 508.5888,737.0134 508.8403,737.5133 C508.9661,737.7632 509.0903,738.014 509.2128,738.2658 C509.2741,738.3917 506.7438,733.1061 506.8043,733.2325" fill="none" id="Topic Modeling-to-Feature Extraction" style="stroke:#181818;stroke-width:1;"/><polygon fill="#181818" points="509.3955,738.6441,509.1165,728.7992,507.2362,734.1344,501.901,732.254,509.3955,738.6441" style="stroke:#181818;stroke-width:1;"/></g><!--link Feature Extraction to Processed Mentions Store--><g class="link" data-entity-1="Feature Extraction" data-entity-2="Processed Mentions Store" data-source-line="69" data-uid="lnk47" id="link_Feature Extraction_Processed Mentions Store"><path d="M525.0336,811.7938 C526.5413,812.8933 528.2354,814.1286 530.0934,815.4836 C537.5256,820.9034 547.5813,828.2369 558.8275,836.4388 C581.32,852.8425 603.7272,869.1847 624.2822,884.1747" fill="none" id="Feature Extraction-to-Processed Mentions Store" style="stroke:#181818;stroke-width:1;"/><polygon fill="#181818" points="629.13,887.71,624.2152,879.1751,625.0901,884.7639,619.5014,885.6389,629.13,887.71" style="stroke:#181818;stroke-width:1;"/></g><!--link Feature Extraction to Feature Store--><g class="link" data-entity-1="Feature Extraction" data-entity-2="Feature Store" data-source-line="70" data-uid="lnk48" id="link_Feature Extraction_Feature Store"><path d="M525.3532,808.3783 C525.6818,808.4745 526.0194,808.5734 526.3659,808.6749 C531.9099,810.2987 539.7285,812.5889 549.3195,815.3984 C568.5016,821.0175 594.7731,828.7138 624.1163,837.31 C682.8025,854.5025 748.017,873.6081 799.132,888.5831" fill="none" id="Feature Extraction-to-Feature Store" style="stroke:#181818;stroke-width:1;"/><polygon fill="#181818" points="804.89,890.27,797.3776,883.901,800.0917,888.8643,795.1284,891.5783,804.89,890.27" style="stroke:#181818;stroke-width:1;"/></g><!--link Observability to Sentiment Classifier--><g class="link" data-entity-1="Observability" data-entity-2="Sentiment Classifier" data-source-line="72" data-uid="lnk49" id="link_Observability_Sentiment Classifier"><path d="M896.4795,632.7539 C896.2962,633.1536 896.1086,633.5512 895.9166,633.9463 C895.5325,634.7367 895.1309,635.5175 894.711,636.2868 C893.871,637.8256 892.9577,639.3186 891.9647,640.7506 C889.9786,643.6147 887.6737,646.235 885,648.49 C882.68,650.44 747.646,667.1551 650.446,678.9851" fill="none" id="Observability-to-Sentiment Classifier" style="stroke:#181818;stroke-width:1;"/><polygon fill="#181818" points="644.49,679.71,653.9073,682.5934,649.4534,679.1059,652.9408,674.652,644.49,679.71" style="stroke:#181818;stroke-width:1;"/></g><!--link Observability to Entity Extractor--><g class="link" data-entity-1="Observability" data-entity-2="Entity Extractor" data-source-line="73" data-uid="lnk50" id="link_Observability_Entity Extractor"><path d="M893.5257,632.6104 C893.4401,632.8184 893.3538,633.0261 893.2669,633.2335 C893.0929,633.6484 892.9162,634.0623 892.7367,634.4749 C892.0188,636.1256 891.2564,637.757 890.4466,639.3573 C888.8272,642.5578 887.0188,645.6338 885,648.49 C879.81,655.82 877.6569,658.6792 870.4969,664.3392" fill="none" id="Observability-to-Entity Extractor" style="stroke:#181818;stroke-width:1;"/><polygon fill="#181818" points="865.79,668.06,875.331,665.6167,869.7124,664.9593,870.3698,659.3408,865.79,668.06" style="stroke:#181818;stroke-width:1;"/></g><!--link Observability to Topic Modeling--><g class="link" data-entity-1="Observability" data-entity-2="Topic Modeling" data-source-line="74" data-uid="lnk51" id="link_Observability_Topic Modeling"><path d="M897.0571,632.5281 C896.9663,632.7274 896.8744,632.9262 896.7813,633.1243 C896.5953,633.5206 896.4047,633.9145 896.2094,634.3056 C895.819,635.088 895.4101,635.8598 894.9818,636.6188 C894.1252,638.137 893.1912,639.6046 892.173,641.0057 C890.1367,643.8081 887.7638,646.345 885,648.49 C846.42,678.42 494.33,661.51 446,668.49 C440.43,669.29 440.5789,669.1409 434.8389,670.2609" fill="none" id="Observability-to-Topic Modeling" style="stroke:#181818;stroke-width:1;"/><polygon fill="#181818" points="428.95,671.41,438.5495,673.6124,433.8575,670.4524,437.0174,665.7604,428.95,671.41" style="stroke:#181818;stroke-width:1;"/></g><!--link Governance Wrapper to Language Detection--><g class="link" data-entity-1="Governance Wrapper" data-entity-2="Language Detection" data-source-line="76" data-uid="lnk52" id="link_Governance Wrapper_Language Detection"><path d="M890.1085,413.0004 C890.0175,413.1994 889.9253,413.3978 889.832,413.5956 C889.6455,413.9913 889.4544,414.3844 889.2586,414.7749 C888.8671,415.5557 888.4569,416.3257 888.0272,417.0828 C887.1678,418.597 886.2303,420.0597 885.2079,421.455 C883.1631,424.2455 880.7788,426.7663 878,428.89 C849.87,450.4 276.2,445.06 241,448.89 C232.3,449.84 229.1987,450.1478 220.1987,451.5478" fill="none" id="Governance Wrapper-to-Language Detection" style="stroke:#181818;stroke-width:1;"/><polygon fill="#181818" points="214.27,452.47,223.7779,455.0391,219.2106,451.7015,222.5482,447.1342,214.27,452.47" style="stroke:#181818;stroke-width:1;"/></g><!--link Governance Wrapper to Tokenization/Normalization--><g class="link" data-entity-1="Governance Wrapper" data-entity-2="Tokenization.Normalization" data-source-line="77" data-uid="lnk53" id="link_Governance Wrapper_Tokenization.Normalization"><path d="M890.0612,412.9419 C889.9704,413.1412 889.8785,413.3399 889.7854,413.5379 C889.5993,413.9341 889.4087,414.3278 889.2134,414.7188 C888.8229,415.5008 888.4139,416.2722 887.9855,417.0308 C887.1287,418.5481 886.1944,420.0147 885.1759,421.4148 C883.1389,424.2148 880.765,426.7488 878,428.89 C837.9,459.94 457.6,412.78 422,448.89 C416.8,454.17 415.6985,481.0652 415.9735,513.1127" fill="none" id="Governance Wrapper-to-Tokenization/Normalization" style="stroke:#181818;stroke-width:1;"/><polygon fill="#181818" points="416.025,519.1125,419.9476,510.0785,415.9821,514.1127,411.9479,510.1472,416.025,519.1125" style="stroke:#181818;stroke-width:1;"/></g><!--link Governance Wrapper to Sentiment Classifier--><g class="link" data-entity-1="Governance Wrapper" data-entity-2="Sentiment Classifier" data-source-line="78" data-uid="lnk54" id="link_Governance Wrapper_Sentiment Classifier"><path d="M889.107,413.1877 C889.0612,413.288 889.0152,413.3881 888.9688,413.4881 C888.8762,413.6882 888.7825,413.8877 888.6878,414.0867 C888.3088,414.8827 887.913,415.67 887.4996,416.4467 C886.6728,418.0001 885.7756,419.5114 884.8022,420.9656 C882.8555,423.8742 880.6038,426.555 878,428.89 C746.3,546.98 599.8,366.94 487,503.19 C445.82,552.93 455.78,591.96 487,648.49 C491.25,656.18 492.7985,659.0323 499.8685,664.4223" fill="none" id="Governance Wrapper-to-Sentiment Classifier" style="stroke:#181818;stroke-width:1;"/><polygon fill="#181818" points="504.64,668.06,499.9079,659.4225,500.6637,665.0286,495.0576,665.7845,504.64,668.06" style="stroke:#181818;stroke-width:1;"/></g><!--link Governance Wrapper to Entity Extractor--><g class="link" data-entity-1="Governance Wrapper" data-entity-2="Entity Extractor" data-source-line="79" data-uid="lnk55" id="link_Governance Wrapper_Entity Extractor"><path d="M905.0282,383.8843 C905.1258,384.106 905.2241,384.3296 905.3231,384.5551 C905.5209,385.0061 905.7213,385.4647 905.9242,385.9308 C907.5468,389.6594 909.3242,393.8677 911.1983,398.4981 C918.6947,417.02 927.7381,442.2975 934.6087,470.66 C948.35,527.385 953.4,596.45 920,648.49 C914.88,656.47 912.821,659.6449 904.871,664.9149" fill="none" id="Governance Wrapper-to-Entity Extractor" style="stroke:#181818;stroke-width:1;"/><polygon fill="#181818" points="899.87,668.23,909.5816,666.5913,904.0375,665.4674,905.1614,659.9233,899.87,668.23" style="stroke:#181818;stroke-width:1;"/></g><!--link Governance Wrapper to Topic Modeling--><g class="link" data-entity-1="Governance Wrapper" data-entity-2="Topic Modeling" data-source-line="80" data-uid="lnk56" id="link_Governance Wrapper_Topic Modeling"><path d="M890.0654,412.9461 C889.9746,413.1454 889.8826,413.344 889.7896,413.5421 C889.6034,413.9381 889.4128,414.3318 889.2175,414.7228 C888.8268,415.5048 888.4177,416.276 887.9892,417.0345 C887.1322,418.5516 886.1976,420.0179 885.1788,421.4176 C883.1411,424.217 880.7663,426.75 878,428.89 C836.65,460.87 459.69,441.12 408,448.89 C327.59,460.98 311.21,481.87 231,495.19 C219.02,497.18 130.27,494.29 122,503.19 C78.04,550.49 80.58,598.94 122,648.49 C142.25,672.71 215.8955,682.6089 276.6955,686.9889" fill="none" id="Governance Wrapper-to-Topic Modeling" style="stroke:#181818;stroke-width:1;"/><polygon fill="#181818" points="282.68,687.42,273.9907,682.7837,277.6929,687.0607,273.4159,690.763,282.68,687.42" style="stroke:#181818;stroke-width:1;"/></g><!--link Processed Mentions Store to Business Purpose--><g class="link" data-entity-1="Processed Mentions Store" data-entity-2="Business Purpose" data-source-line="82" data-uid="lnk57" id="link_Processed Mentions Store_Business Purpose"><path d="M687.17,934.63 C706.68,952.18 732.08,978.27 747,1006.38 C749.1025,1010.3413 750.9744,1014.533 752.6406,1018.8413 C753.0572,1019.9183 751.4336,1037.6524 751.8249,1038.7423" fill="none" id="Processed Mentions Store-to-Business Purpose" style="stroke:#181818;stroke-width:1;"/><polygon fill="#181818" points="753.8522,1044.3894,754.576,1034.5672,752.1628,1039.6835,747.0465,1037.2703,753.8522,1044.3894" style="stroke:#181818;stroke-width:1;"/></g><!--link Feature Store to Business Purpose--><g class="link" data-entity-1="Feature Store" data-entity-2="Business Purpose" data-source-line="83" data-uid="lnk58" id="link_Feature Store_Business Purpose"><path d="M859.23,934.79 C845.005,958.09 822.1975,995.455 802.7025,1027.395 C792.955,1043.365 784.0356,1057.9788 777.4313,1068.8 C776.6057,1070.1527 775.8163,1071.4461 775.066,1072.6754 C774.8785,1072.9828 774.6933,1073.2861 774.5107,1073.5854 C774.4194,1073.735 777.4543,1068.7621 777.3643,1068.9097" fill="none" id="Feature Store-to-Business Purpose" style="stroke:#181818;stroke-width:1;"/><polygon fill="#181818" points="774.2386,1074.0312,782.3415,1068.4327,776.8433,1069.7633,775.5127,1064.2651,774.2386,1074.0312" style="stroke:#181818;stroke-width:1;"/></g><!--SRC=[XLJRZjem47ttLrXvH_i7bLYW21Lsex9j7z0-63C4Ys17CywsjDf_xoHSDXSxcuS8CcTcpXcFJw7qKMKWawTbAjU0RqP38ly9oOzsfy9Pi5uc2xi71Aj1pfM7t-fymrJFPfB-a2ktWvnUFpxEEn_VwtUty5BPhAm8JC63ziRPf0jvSKUmvg-gWWzF3aygl_vhaHYZsXezeWAqsHijMyWcXKRfDR_DgVevoHKHvm7s-iyOuyzoziUZqjvXW631_MgjncP9K6STbTyXC-InFRsVWCGKOIV7wCsUUpJ7E75sRx8IQnboxr1UX4fbTt9cizpGOMZ0Nq7v4k56lpkrrEKAAtbhxH2QZQ-oxoDgXBx1kJYW8XWysXIT1YBMjQfgE4jopUE394Qn4Ur2dhV4kycwS-RK5W0uEjN3NV9cMdrky1nhpOFJPoRWqUX1jdFt1cXLjUA_K1K5BqAppLHvrklbqbZWTMqV4765XvMY8n-_VERK-h3kxTw5A6xNhAeZrwv47isjmMRsifIfAQhrkLRUZDF5QolniIIE4icqnCBH_P9k7h7Q1BwWULbVqAcYmzOft5txRrOAZymyTMJg7Ue15aGbqCSDR26OGvkV78s-X0n1r9oZKH7oa0hSSeyegEacefboQHYoaMPE72L2No_m0UCHWwvKPuUzvVEyljrydjDr817kVW47747qkmvWEztYI15qdneUDuTuJiSdHDSLXiOUWWOc7OBrXnloYkY2nT63-nNDYWYCuWCg1nXrfKRFwPBGSoNHEQK8x3y0]--></g></svg>