<svg xmlns="http://www.w3.org/2000/svg" xmlns:xlink="http://www.w3.org/1999/xlink" contentStyleType="text/css" data-diagram-type="ACTIVITY" height="340px" preserveAspectRatio="none" style="width:582px;height:340px;background:#FFFFFF;" version="1.1" viewBox="0 0 582 340" width="582px" zoomAndPan="magnify"><defs/><g><ellipse cx="364.9888" cy="20" fill="#222222" rx="10" ry="10" style="stroke:#222222;stroke-width:1;"/><rect fill="#F1F1F1" height="33.9688" rx="12.5" ry="12.5" style="stroke:#181818;stroke-width:0.5;" width="180.9746" x="274.5015" y="50"/><text fill="#000000" font-family="sans-serif" font-size="12" lengthAdjust="spacing" textLength="160.9746" x="284.5015" y="71.1387">User drags pin or searches</text><polygon fill="#F1F1F1" points="323.7898,125.3677,406.1877,125.3677,418.1877,137.3677,406.1877,149.3677,323.7898,149.3677,311.7898,137.3677,323.7898,125.3677" style="stroke:#181818;stroke-width:0.5;"/><text fill="#000000" font-family="sans-serif" font-size="11" lengthAdjust="spacing" textLength="82.3979" x="323.7898" y="141.1758">Location valid?</text><text fill="#000000" font-family="sans-serif" font-size="11" lengthAdjust="spacing" textLength="136.4365" x="175.3533" y="134.7734">App verifies service area</text><text fill="#000000" font-family="sans-serif" font-size="11" lengthAdjust="spacing" textLength="13.7017" x="418.1877" y="134.7734">no</text><polygon fill="#F1F1F1" points="158.075,159.3677,270.3254,159.3677,282.3254,171.3677,270.3254,183.3677,158.075,183.3677,146.075,171.3677,158.075,159.3677" style="stroke:#181818;stroke-width:0.5;"/><text fill="#000000" font-family="sans-serif" font-size="11" lengthAdjust="spacing" textLength="112.2505" x="158.075" y="175.1758">Within service area?</text><text fill="#000000" font-family="sans-serif" font-size="11" lengthAdjust="spacing" textLength="125.1572" x="20.9177" y="168.7734">App saves the location</text><text fill="#000000" font-family="sans-serif" font-size="11" lengthAdjust="spacing" textLength="13.7017" x="282.3254" y="168.7734">no</text><rect fill="#F1F1F1" height="33.9688" rx="12.5" ry="12.5" style="stroke:#181818;stroke-width:0.5;" width="186.8398" x="11" y="193.3677"/><text fill="#000000" font-family="sans-serif" font-size="12" lengthAdjust="spacing" textLength="166.8398" x="21" y="214.5063">Location saved successfully</text><rect fill="#F1F1F1" height="33.9688" rx="12.5" ry="12.5" style="stroke:#181818;stroke-width:0.5;" width="212.2813" x="217.8398" y="193.3677"/><text fill="#000000" font-family="sans-serif" font-size="12" lengthAdjust="spacing" textLength="192.2813" x="227.8398" y="214.5063">Location not within service area</text><polygon fill="#F1F1F1" points="214.2002,233.3364,226.2002,245.3364,214.2002,257.3364,202.2002,245.3364,214.2002,233.3364" style="stroke:#181818;stroke-width:0.5;"/><rect fill="#F1F1F1" height="33.9688" rx="12.5" ry="12.5" style="stroke:#181818;stroke-width:0.5;" width="111.3125" x="460.1211" y="159.3677"/><text fill="#000000" font-family="sans-serif" font-size="12" lengthAdjust="spacing" textLength="91.3125" x="470.1211" y="180.5063">Invalid location</text><polygon fill="#F1F1F1" points="364.9888,263.3364,376.9888,275.3364,364.9888,287.3364,352.9888,275.3364,364.9888,263.3364" style="stroke:#181818;stroke-width:0.5;"/><ellipse cx="364.9888" cy="318.3364" fill="none" rx="11" ry="11" style="stroke:#222222;stroke-width:1;"/><ellipse cx="364.9888" cy="318.3364" fill="#222222" rx="6" ry="6" style="stroke:#222222;stroke-width:1;"/><line style="stroke:#181818;stroke-width:1;" x1="364.9888" x2="364.9888" y1="30" y2="50"/><polygon fill="#181818" points="360.9888,40,364.9888,50,368.9888,40,364.9888,44" style="stroke:#181818;stroke-width:1;"/><line style="stroke:#181818;stroke-width:1;" x1="146.075" x2="104.4199" y1="171.3677" y2="171.3677"/><line style="stroke:#181818;stroke-width:1;" x1="104.4199" x2="104.4199" y1="171.3677" y2="193.3677"/><polygon fill="#181818" points="100.4199,183.3677,104.4199,193.3677,108.4199,183.3677,104.4199,187.3677" style="stroke:#181818;stroke-width:1;"/><line style="stroke:#181818;stroke-width:1;" x1="282.3254" x2="323.9805" y1="171.3677" y2="171.3677"/><line style="stroke:#181818;stroke-width:1;" x1="323.9805" x2="323.9805" y1="171.3677" y2="193.3677"/><polygon fill="#181818" points="319.9805,183.3677,323.9805,193.3677,327.9805,183.3677,323.9805,187.3677" style="stroke:#181818;stroke-width:1;"/><line style="stroke:#181818;stroke-width:1;" x1="104.4199" x2="104.4199" y1="227.3364" y2="245.3364"/><line style="stroke:#181818;stroke-width:1;" x1="104.4199" x2="202.2002" y1="245.3364" y2="245.3364"/><polygon fill="#181818" points="192.2002,241.3364,202.2002,245.3364,192.2002,249.3364,196.2002,245.3364" style="stroke:#181818;stroke-width:1;"/><line style="stroke:#181818;stroke-width:1;" x1="323.9805" x2="323.9805" y1="227.3364" y2="245.3364"/><line style="stroke:#181818;stroke-width:1;" x1="323.9805" x2="226.2002" y1="245.3364" y2="245.3364"/><polygon fill="#181818" points="236.2002,241.3364,226.2002,245.3364,236.2002,249.3364,232.2002,245.3364" style="stroke:#181818;stroke-width:1;"/><line style="stroke:#181818;stroke-width:1;" x1="311.7898" x2="214.2002" y1="137.3677" y2="137.3677"/><line style="stroke:#181818;stroke-width:1;" x1="214.2002" x2="214.2002" y1="137.3677" y2="159.3677"/><polygon fill="#181818" points="210.2002,149.3677,214.2002,159.3677,218.2002,149.3677,214.2002,153.3677" style="stroke:#181818;stroke-width:1;"/><line style="stroke:#181818;stroke-width:1;" x1="418.1877" x2="515.7773" y1="137.3677" y2="137.3677"/><line style="stroke:#181818;stroke-width:1;" x1="515.7773" x2="515.7773" y1="137.3677" y2="159.3677"/><polygon fill="#181818" points="511.7773,149.3677,515.7773,159.3677,519.7773,149.3677,515.7773,153.3677" style="stroke:#181818;stroke-width:1;"/><line style="stroke:#181818;stroke-width:1;" x1="214.2002" x2="214.2002" y1="257.3364" y2="275.3364"/><line style="stroke:#181818;stroke-width:1;" x1="214.2002" x2="352.9888" y1="275.3364" y2="275.3364"/><polygon fill="#181818" points="342.9888,271.3364,352.9888,275.3364,342.9888,279.3364,346.9888,275.3364" style="stroke:#181818;stroke-width:1;"/><line style="stroke:#181818;stroke-width:1;" x1="515.7773" x2="515.7773" y1="193.3364" y2="275.3364"/><line style="stroke:#181818;stroke-width:1;" x1="515.7773" x2="376.9888" y1="275.3364" y2="275.3364"/><polygon fill="#181818" points="386.9888,271.3364,376.9888,275.3364,386.9888,279.3364,382.9888,275.3364" style="stroke:#181818;stroke-width:1;"/><line style="stroke:#181818;stroke-width:1;" x1="364.9888" x2="364.9888" y1="83.9688" y2="125.3677"/><polygon fill="#181818" points="360.9888,115.3677,364.9888,125.3677,368.9888,115.3677,364.9888,119.3677" style="stroke:#181818;stroke-width:1;"/><text fill="#000000" font-family="sans-serif" font-size="11" lengthAdjust="spacing" textLength="124.8672" x="368.9888" y="105.2734">App geocodes location</text><line style="stroke:#181818;stroke-width:1;" x1="364.9888" x2="364.9888" y1="287.3364" y2="307.3364"/><polygon fill="#181818" points="360.9888,297.3364,364.9888,307.3364,368.9888,297.3364,364.9888,301.3364" style="stroke:#181818;stroke-width:1;"/><!--SRC=[POzD2eCm48NtESLRwg8NK6Zfij1jwJeaemw4H3BHukqRhKYmo-5xVoD9nwHKynAAi57tWf4zGeIGZcOWQTNbYliuegTWWYM12qOd3hvLYZjKp_t4h1tRMuqqa4UraDGAsCqpHUuuctFFp8QW8-asypNXpMd8fIKwnnn1ekUSabanOyNDCMDLMCXa38bqatFBgY0dXCg7-gJs8U7ptxzPlELEbSRcuRSdY-wVI4aAunS0]--></g></svg>