<svg xmlns="http://www.w3.org/2000/svg" xmlns:xlink="http://www.w3.org/1999/xlink" contentStyleType="text/css" data-diagram-type="SEQUENCE" height="356px" preserveAspectRatio="none" style="width:573px;height:356px;background:#FFFFFF;" version="1.1" viewBox="0 0 573 356" width="573px" zoomAndPan="magnify"><defs/><g><g><title>Analyst</title><rect fill="#000000" fill-opacity="0.00000" height="194.7969" width="8" x="29.9937" y="81.2969"/><line style="stroke:#181818;stroke-width:0.5;stroke-dasharray:5,5;" x1="33" x2="33" y1="81.2969" y2="276.0938"/></g><g><title>Web App</title><rect fill="#000000" fill-opacity="0.00000" height="194.7969" width="8" x="156.9717" y="81.2969"/><line style="stroke:#181818;stroke-width:0.5;stroke-dasharray:5,5;" x1="160.3999" x2="160.3999" y1="81.2969" y2="276.0938"/></g><g><title>API Gateway</title><rect fill="#000000" fill-opacity="0.00000" height="194.7969" width="8" x="291.4653" y="81.2969"/><line style="stroke:#181818;stroke-width:0.5;stroke-dasharray:5,5;" x1="295.2437" x2="295.2437" y1="81.2969" y2="276.0938"/></g><g><title>Social Platform</title><rect fill="#000000" fill-opacity="0.00000" height="194.7969" width="8" x="412.6479" y="81.2969"/><line style="stroke:#181818;stroke-width:0.5;stroke-dasharray:5,5;" x1="416.0249" x2="416.0249" y1="81.2969" y2="276.0938"/></g><g><title>Database</title><rect fill="#000000" fill-opacity="0.00000" height="194.7969" width="8" x="522.6714" y="81.2969"/><line style="stroke:#181818;stroke-width:0.5;stroke-dasharray:5,5;" x1="526.271" x2="526.271" y1="81.2969" y2="276.0938"/></g><g class="participant participant-head" data-participant="Analyst"><text fill="#000000" font-family="sans-serif" font-size="14" lengthAdjust="spacing" textLength="51.9873" x="5" y="77.9951">Analyst</text><ellipse cx="33.9937" cy="13.5" fill="#E2E2F0" rx="8" ry="8" style="stroke:#181818;stroke-width:0.5;"/><path d="M33.9937,21.5 L33.9937,48.5 M20.9937,29.5 L46.9937,29.5 M33.9937,48.5 L20.9937,63.5 M33.9937,48.5 L46.9937,63.5" fill="none" style="stroke:#181818;stroke-width:0.5;"/></g><g class="participant participant-tail" data-participant="Analyst"><text fill="#000000" font-family="sans-serif" font-size="14" lengthAdjust="spacing" textLength="51.9873" x="5" y="288.0889">Analyst</text><ellipse cx="33.9937" cy="299.8906" fill="#E2E2F0" rx="8" ry="8" style="stroke:#181818;stroke-width:0.5;"/><path d="M33.9937,307.8906 L33.9937,334.8906 M20.9937,315.8906 L46.9937,315.8906 M33.9937,334.8906 L20.9937,349.8906 M33.9937,334.8906 L46.9937,349.8906" fill="none" style="stroke:#181818;stroke-width:0.5;"/></g><g class="participant participant-head" data-participant="WebApp"><rect fill="#E2E2F0" height="30.2969" rx="2.5" ry="2.5" style="stroke:#181818;stroke-width:0.5;" width="77.1436" x="122.3999" y="50"/><text fill="#000000" font-family="sans-serif" font-size="14" lengthAdjust="spacing" textLength="63.1436" x="129.3999" y="69.9951">Web App</text></g><g class="participant participant-tail" data-participant="WebApp"><rect fill="#E2E2F0" height="30.2969" rx="2.5" ry="2.5" style="stroke:#181818;stroke-width:0.5;" width="77.1436" x="122.3999" y="275.0938"/><text fill="#000000" font-family="sans-serif" font-size="14" lengthAdjust="spacing" textLength="63.1436" x="129.3999" y="295.0889">Web App</text></g><g class="participant participant-head" data-participant="APIGateway"><rect fill="#E2E2F0" height="30.2969" rx="2.5" ry="2.5" style="stroke:#181818;stroke-width:0.5;" width="102.4434" x="244.2437" y="50"/><text fill="#000000" font-family="sans-serif" font-size="14" lengthAdjust="spacing" textLength="88.4434" x="251.2437" y="69.9951">API Gateway</text></g><g class="participant participant-tail" data-participant="APIGateway"><rect fill="#E2E2F0" height="30.2969" rx="2.5" ry="2.5" style="stroke:#181818;stroke-width:0.5;" width="102.4434" x="244.2437" y="275.0938"/><text fill="#000000" font-family="sans-serif" font-size="14" lengthAdjust="spacing" textLength="88.4434" x="251.2437" y="295.0889">API Gateway</text></g><g class="participant participant-head" data-participant="SocialPlatform"><rect fill="#E2E2F0" height="30.2969" rx="2.5" ry="2.5" style="stroke:#181818;stroke-width:0.5;" width="119.2461" x="357.0249" y="50"/><text fill="#000000" font-family="sans-serif" font-size="14" lengthAdjust="spacing" textLength="105.2461" x="364.0249" y="69.9951">Social Platform</text></g><g class="participant participant-tail" data-participant="SocialPlatform"><rect fill="#E2E2F0" height="30.2969" rx="2.5" ry="2.5" style="stroke:#181818;stroke-width:0.5;" width="119.2461" x="357.0249" y="275.0938"/><text fill="#000000" font-family="sans-serif" font-size="14" lengthAdjust="spacing" textLength="105.2461" x="364.0249" y="295.0889">Social Platform</text></g><g class="participant participant-head" data-participant="Database"><rect fill="#E2E2F0" height="30.2969" rx="2.5" ry="2.5" style="stroke:#181818;stroke-width:0.5;" width="80.8008" x="486.271" y="50"/><text fill="#000000" font-family="sans-serif" font-size="14" lengthAdjust="spacing" textLength="66.8008" x="493.271" y="69.9951">Database</text></g><g class="participant participant-tail" data-participant="Database"><rect fill="#E2E2F0" height="30.2969" rx="2.5" ry="2.5" style="stroke:#181818;stroke-width:0.5;" width="80.8008" x="486.271" y="275.0938"/><text fill="#000000" font-family="sans-serif" font-size="14" lengthAdjust="spacing" textLength="66.8008" x="493.271" y="295.0889">Database</text></g><g class="message" data-participant-1="Analyst" data-participant-2="WebApp"><polygon fill="#181818" points="148.9717,108.4297,158.9717,112.4297,148.9717,116.4297,152.9717,112.4297" style="stroke:#181818;stroke-width:1;"/><line style="stroke:#181818;stroke-width:1;" x1="33.9937" x2="154.9717" y1="112.4297" y2="112.4297"/><text fill="#000000" font-family="sans-serif" font-size="13" lengthAdjust="spacing" textLength="102.978" x="40.9937" y="107.3638">Initiate Request</text></g><g class="message" data-participant-1="WebApp" data-participant-2="APIGateway"><polygon fill="#181818" points="283.4653,137.5625,293.4653,141.5625,283.4653,145.5625,287.4653,141.5625" style="stroke:#181818;stroke-width:1;"/><line style="stroke:#181818;stroke-width:1;" x1="160.9717" x2="289.4653" y1="141.5625" y2="141.5625"/><text fill="#000000" font-family="sans-serif" font-size="13" lengthAdjust="spacing" textLength="110.4937" x="167.9717" y="136.4966">Forward Request</text></g><g class="message" data-participant-1="APIGateway" data-participant-2="SocialPlatform"><polygon fill="#181818" points="404.6479,166.6953,414.6479,170.6953,404.6479,174.6953,408.6479,170.6953" style="stroke:#181818;stroke-width:1;"/><line style="stroke:#181818;stroke-width:1;" x1="295.4653" x2="410.6479" y1="170.6953" y2="170.6953"/><text fill="#000000" font-family="sans-serif" font-size="13" lengthAdjust="spacing" textLength="97.1826" x="302.4653" y="165.6294">Request Token</text></g><g class="message" data-participant-1="SocialPlatform" data-participant-2="APIGateway"><polygon fill="#181818" points="306.4653,195.8281,296.4653,199.8281,306.4653,203.8281,302.4653,199.8281" style="stroke:#181818;stroke-width:1;"/><line style="stroke:#181818;stroke-width:1;stroke-dasharray:2,2;" x1="300.4653" x2="415.6479" y1="199.8281" y2="199.8281"/><text fill="#000000" font-family="sans-serif" font-size="13" lengthAdjust="spacing" textLength="87.7437" x="312.4653" y="194.7622">Return Token</text></g><g class="message" data-participant-1="APIGateway" data-participant-2="WebApp"><polygon fill="#181818" points="171.9717,224.9609,161.9717,228.9609,171.9717,232.9609,167.9717,228.9609" style="stroke:#181818;stroke-width:1;"/><line style="stroke:#181818;stroke-width:1;stroke-dasharray:2,2;" x1="165.9717" x2="294.4653" y1="228.9609" y2="228.9609"/><text fill="#000000" font-family="sans-serif" font-size="13" lengthAdjust="spacing" textLength="96.7637" x="177.9717" y="223.895">Forward Token</text></g><g class="message" data-participant-1="WebApp" data-participant-2="Database"><polygon fill="#181818" points="514.6714,254.0938,524.6714,258.0938,514.6714,262.0938,518.6714,258.0938" style="stroke:#181818;stroke-width:1;"/><line style="stroke:#181818;stroke-width:1;" x1="160.9717" x2="520.6714" y1="258.0938" y2="258.0938"/><text fill="#000000" font-family="sans-serif" font-size="13" lengthAdjust="spacing" textLength="112.7471" x="167.9717" y="253.0278">Store Credentials</text></g><!--SRC=[NP712eCm38RlFaNmxWlqC92D3M-YWvsZPb3cMjT6nBTVrNRQtPB-7yaNYYrh0xd2VhQS36XOjd90nP0-g85y65902wvsPPpdPG4tP9fmNXdN-pRcQjrAxA7iaP_Ql5TsUmjFCNz1nWOjhM1eaiGxGdRoDW8A9LcwbL3HPoJdlmKBiii8k6epeUb-r9ujPAmY0WLt_IALn2baVwChuj4epnxd7Yp3-WtQ5SDf0cht1mHdGnqfTr1llm00]--></g></svg>