<svg xmlns="http://www.w3.org/2000/svg" xmlns:xlink="http://www.w3.org/1999/xlink" contentStyleType="text/css" data-diagram-type="SEQUENCE" height="298px" preserveAspectRatio="none" style="width:470px;height:298px;background:#FFFFFF;" version="1.1" viewBox="0 0 470 298" width="470px" zoomAndPan="magnify"><defs/><g><g><title>User</title><rect fill="#000000" fill-opacity="0.00000" height="136.5313" width="8" x="19.9551" y="81.2969"/><line style="stroke:#181818;stroke-width:0.5;stroke-dasharray:5,5;" x1="23" x2="23" y1="81.2969" y2="217.8281"/></g><g><title>ProjectData</title><rect fill="#000000" fill-opacity="0.00000" height="136.5313" width="8" x="132.5176" y="81.2969"/><line style="stroke:#181818;stroke-width:0.5;stroke-dasharray:5,5;" x1="135.5771" x2="135.5771" y1="81.2969" y2="217.8281"/></g><g><title>Analysis</title><rect fill="#000000" fill-opacity="0.00000" height="136.5313" width="8" x="226.2988" y="81.2969"/><line style="stroke:#181818;stroke-width:0.5;stroke-dasharray:5,5;" x1="229.458" x2="229.458" y1="81.2969" y2="217.8281"/></g><g><title>Reporting</title><rect fill="#000000" fill-opacity="0.00000" height="136.5313" width="8" x="419.248" y="81.2969"/><line style="stroke:#181818;stroke-width:0.5;stroke-dasharray:5,5;" x1="422.9043" x2="422.9043" y1="81.2969" y2="217.8281"/></g><g class="participant participant-head" data-participant="User"><text fill="#000000" font-family="sans-serif" font-size="14" lengthAdjust="spacing" textLength="31.9102" x="5" y="77.9951">User</text><ellipse cx="23.9551" cy="13.5" fill="#E2E2F0" rx="8" ry="8" style="stroke:#181818;stroke-width:0.5;"/><path d="M23.9551,21.5 L23.9551,48.5 M10.9551,29.5 L36.9551,29.5 M23.9551,48.5 L10.9551,63.5 M23.9551,48.5 L36.9551,63.5" fill="none" style="stroke:#181818;stroke-width:0.5;"/></g><g class="participant participant-tail" data-participant="User"><text fill="#000000" font-family="sans-serif" font-size="14" lengthAdjust="spacing" textLength="31.9102" x="5" y="229.8232">User</text><ellipse cx="23.9551" cy="241.625" fill="#E2E2F0" rx="8" ry="8" style="stroke:#181818;stroke-width:0.5;"/><path d="M23.9551,249.625 L23.9551,276.625 M10.9551,257.625 L36.9551,257.625 M23.9551,276.625 L10.9551,291.625 M23.9551,276.625 L36.9551,291.625" fill="none" style="stroke:#181818;stroke-width:0.5;"/></g><g class="participant participant-head" data-participant="ProjectData"><rect fill="#E2E2F0" height="30.2969" rx="2.5" ry="2.5" style="stroke:#181818;stroke-width:0.5;" width="95.8809" x="88.5771" y="50"/><text fill="#000000" font-family="sans-serif" font-size="14" lengthAdjust="spacing" textLength="81.8809" x="95.5771" y="69.9951">ProjectData</text></g><g class="participant participant-tail" data-participant="ProjectData"><rect fill="#E2E2F0" height="30.2969" rx="2.5" ry="2.5" style="stroke:#181818;stroke-width:0.5;" width="95.8809" x="88.5771" y="216.8281"/><text fill="#000000" font-family="sans-serif" font-size="14" lengthAdjust="spacing" textLength="81.8809" x="95.5771" y="236.8232">ProjectData</text></g><g class="participant participant-head" data-participant="Analysis"><rect fill="#E2E2F0" height="30.2969" rx="2.5" ry="2.5" style="stroke:#181818;stroke-width:0.5;" width="71.6816" x="194.458" y="50"/><text fill="#000000" font-family="sans-serif" font-size="14" lengthAdjust="spacing" textLength="57.6816" x="201.458" y="69.9951">Analysis</text></g><g class="participant participant-tail" data-participant="Analysis"><rect fill="#E2E2F0" height="30.2969" rx="2.5" ry="2.5" style="stroke:#181818;stroke-width:0.5;" width="71.6816" x="194.458" y="216.8281"/><text fill="#000000" font-family="sans-serif" font-size="14" lengthAdjust="spacing" textLength="57.6816" x="201.458" y="236.8232">Analysis</text></g><g class="participant participant-head" data-participant="Reporting"><rect fill="#E2E2F0" height="30.2969" rx="2.5" ry="2.5" style="stroke:#181818;stroke-width:0.5;" width="82.6875" x="381.9043" y="50"/><text fill="#000000" font-family="sans-serif" font-size="14" lengthAdjust="spacing" textLength="68.6875" x="388.9043" y="69.9951">Reporting</text></g><g class="participant participant-tail" data-participant="Reporting"><rect fill="#E2E2F0" height="30.2969" rx="2.5" ry="2.5" style="stroke:#181818;stroke-width:0.5;" width="82.6875" x="381.9043" y="216.8281"/><text fill="#000000" font-family="sans-serif" font-size="14" lengthAdjust="spacing" textLength="68.6875" x="388.9043" y="236.8232">Reporting</text></g><g class="message" data-participant-1="User" data-participant-2="ProjectData"><polygon fill="#181818" points="124.5176,108.4297,134.5176,112.4297,124.5176,116.4297,128.5176,112.4297" style="stroke:#181818;stroke-width:1;"/><line style="stroke:#181818;stroke-width:1;" x1="23.9551" x2="130.5176" y1="112.4297" y2="112.4297"/><text fill="#000000" font-family="sans-serif" font-size="13" lengthAdjust="spacing" textLength="88.5625" x="30.9551" y="107.3638">Request Data</text></g><g class="message" data-participant-1="ProjectData" data-participant-2="Analysis"><polygon fill="#181818" points="218.2988,137.5625,228.2988,141.5625,218.2988,145.5625,222.2988,141.5625" style="stroke:#181818;stroke-width:1;"/><line style="stroke:#181818;stroke-width:1;" x1="136.5176" x2="224.2988" y1="141.5625" y2="141.5625"/><text fill="#000000" font-family="sans-serif" font-size="13" lengthAdjust="spacing" textLength="67.9136" x="143.5176" y="136.4966">Send Data</text></g><g class="message" data-participant-1="Analysis" data-participant-2="Reporting"><polygon fill="#181818" points="411.248,166.6953,421.248,170.6953,411.248,174.6953,415.248,170.6953" style="stroke:#181818;stroke-width:1;"/><line style="stroke:#181818;stroke-width:1;" x1="230.2988" x2="417.248" y1="170.6953" y2="170.6953"/><text fill="#000000" font-family="sans-serif" font-size="13" lengthAdjust="spacing" textLength="168.9492" x="237.2988" y="165.6294">Process and Analyze Data</text></g><g class="message" data-participant-1="Reporting" data-participant-2="User"><polygon fill="#181818" points="34.9551,195.8281,24.9551,199.8281,34.9551,203.8281,30.9551,199.8281" style="stroke:#181818;stroke-width:1;"/><line style="stroke:#181818;stroke-width:1;" x1="28.9551" x2="422.248" y1="199.8281" y2="199.8281"/><text fill="#000000" font-family="sans-serif" font-size="13" lengthAdjust="spacing" textLength="96.5034" x="40.9551" y="194.7622">Provide Report</text></g><!--SRC=[IqmkoIzI22rEBUBY0f4AkdOA0KNvMQd99Iw99ObM2a6fXQMfnIKA81uNaWn8eMDUOavbSMQnbK9mQbuAH0bC32GVb5gGNrIIcPTk1J8pERMuM24Hg0wif2eLeXwk1gG1v0AmshBCb5IeTW00]--></g></svg>