<svg xmlns="http://www.w3.org/2000/svg" xmlns:xlink="http://www.w3.org/1999/xlink" contentStyleType="text/css" data-diagram-type="DESCRIPTION" height="185px" preserveAspectRatio="none" style="width:699px;height:185px;background:#FFFFFF;" version="1.1" viewBox="0 0 699 185" width="699px" zoomAndPan="magnify"><defs/><g><!--entity Admin--><g class="entity" data-entity="Admin" data-source-line="1" data-uid="ent0002" id="entity_Admin"><ellipse cx="182.5721" cy="14" fill="#F1F1F1" rx="8" ry="8" style="stroke:#181818;stroke-width:0.5;"/><path d="M182.5721,22 L182.5721,49 M169.5721,30 L195.5721,30 M182.5721,49 L169.5721,64 M182.5721,49 L195.5721,64" fill="none" style="stroke:#181818;stroke-width:0.5;"/><text fill="#000000" font-family="sans-serif" font-size="14" lengthAdjust="spacing" textLength="44.8643" x="160.14" y="78.4951">Admin</text></g><!--entity DeliveryDriver--><g class="entity" data-entity="DeliveryDriver" data-source-line="2" data-uid="ent0003" id="entity_DeliveryDriver"><ellipse cx="531.5713" cy="14" fill="#F1F1F1" rx="8" ry="8" style="stroke:#181818;stroke-width:0.5;"/><path d="M531.5713,22 L531.5713,49 M518.5713,30 L544.5713,30 M531.5713,49 L518.5713,64 M531.5713,49 L544.5713,64" fill="none" style="stroke:#181818;stroke-width:0.5;"/><text fill="#000000" font-family="sans-serif" font-size="14" lengthAdjust="spacing" textLength="105.6426" x="478.75" y="78.4951">Delivery Driver</text></g><!--entity UC_OrderManagement--><g class="entity" data-entity="UC_OrderManagement" data-source-line="4" data-uid="ent0004" id="entity_UC_OrderManagement"><ellipse cx="88.5738" cy="160.7248" fill="#F1F1F1" rx="82.5738" ry="18.9148" style="stroke:#181818;stroke-width:0.5;"/><text fill="#000000" font-family="sans-serif" font-size="14" lengthAdjust="spacing" textLength="136.7051" x="20.2213" y="165.3732">Order Management</text></g><!--entity UC_OrderTracking--><g class="entity" data-entity="UC_OrderTracking" data-source-line="5" data-uid="ent0005" id="entity_UC_OrderTracking"><ellipse cx="275.5741" cy="160.7168" fill="#F1F1F1" rx="69.3841" ry="16.2768" style="stroke:#181818;stroke-width:0.5;"/><text fill="#000000" font-family="sans-serif" font-size="14" lengthAdjust="spacing" textLength="104.8223" x="223.163" y="165.3653">Order Tracking</text></g><!--entity UC_AcceptOrder--><g class="entity" data-entity="UC_AcceptOrder" data-source-line="6" data-uid="ent0006" id="entity_UC_AcceptOrder"><ellipse cx="444.5743" cy="160.7229" fill="#F1F1F1" rx="64.6143" ry="15.3229" style="stroke:#181818;stroke-width:0.5;"/><text fill="#000000" font-family="sans-serif" font-size="14" lengthAdjust="spacing" textLength="92.4424" x="398.3531" y="165.3713">Accept Order</text></g><!--entity UC_ConfirmDelivery--><g class="entity" data-entity="UC_ConfirmDelivery" data-source-line="7" data-uid="ent0007" id="entity_UC_ConfirmDelivery"><ellipse cx="618.5654" cy="160.7191" fill="#F1F1F1" rx="74.6954" ry="17.3391" style="stroke:#181818;stroke-width:0.5;"/><text fill="#000000" font-family="sans-serif" font-size="14" lengthAdjust="spacing" textLength="117.9883" x="559.5713" y="165.3675">Confirm Delivery</text></g><!--link Admin to UC_OrderManagement--><g class="link" data-entity-1="Admin" data-entity-2="UC_OrderManagement" data-source-line="9" data-uid="lnk8" id="link_Admin_UC_OrderManagement"><path d="M159.82,72.51 C142.21,94.05 122.1551,118.6027 107.0151,137.1427" fill="none" id="Admin-to-UC_OrderManagement" style="stroke:#181818;stroke-width:1;"/><polygon fill="#181818" points="103.22,141.79,112.0108,137.3491,106.3825,137.9172,105.8144,132.289,103.22,141.79" style="stroke:#181818;stroke-width:1;"/></g><!--link Admin to UC_OrderTracking--><g class="link" data-entity-1="Admin" data-entity-2="UC_OrderTracking" data-source-line="10" data-uid="lnk9" id="link_Admin_UC_OrderTracking"><path d="M205.32,72.8 C223.5,95.29 244.5182,121.2938 259.2782,139.5538" fill="none" id="Admin-to-UC_OrderTracking" style="stroke:#181818;stroke-width:1;"/><polygon fill="#181818" points="263.05,144.22,260.5031,134.7062,259.9068,140.3315,254.2815,139.7352,263.05,144.22" style="stroke:#181818;stroke-width:1;"/></g><!--link DeliveryDriver to UC_AcceptOrder--><g class="link" data-entity-1="DeliveryDriver" data-entity-2="UC_AcceptOrder" data-source-line="12" data-uid="lnk10" id="link_DeliveryDriver_UC_AcceptOrder"><path d="M503.33,82.01 C487.05,103.53 471.1389,124.5842 459.1989,140.3742" fill="none" id="DeliveryDriver-to-UC_AcceptOrder" style="stroke:#181818;stroke-width:1;"/><polygon fill="#181818" points="455.58,145.16,464.1988,140.3939,458.5957,141.1719,457.8178,135.5687,455.58,145.16" style="stroke:#181818;stroke-width:1;"/></g><!--link DeliveryDriver to UC_ConfirmDelivery--><g class="link" data-entity-1="DeliveryDriver" data-entity-2="UC_ConfirmDelivery" data-source-line="13" data-uid="lnk11" id="link_DeliveryDriver_UC_ConfirmDelivery"><path d="M559.82,82.01 C575.5,102.75 590.5798,122.7052 602.6098,138.6052" fill="none" id="DeliveryDriver-to-UC_ConfirmDelivery" style="stroke:#181818;stroke-width:1;"/><polygon fill="#181818" points="606.23,143.39,603.9896,133.7994,603.2132,139.4027,597.6099,138.6263,606.23,143.39" style="stroke:#181818;stroke-width:1;"/></g><!--SRC=[RP312i8m343l-Ogm-tv16DjLlEXPGXT7qNQILi6_5pEpkhbJoyihl9HS7WMRFlW8fFUguvj_ihomayzP8IKqDY60Hs97YR4wIC-2UueqSE2OrJwrP-K5hnySXTpLns6X6onounpVC-hKr8afAc8xnekNC7UQ_EM60NHJhElTLkJ_S4w2vG-Oz1kpRQmAtW00]--></g></svg>