<svg xmlns="http://www.w3.org/2000/svg" xmlns:xlink="http://www.w3.org/1999/xlink" contentStyleType="text/css" data-diagram-type="DESCRIPTION" height="578px" preserveAspectRatio="none" style="width:945px;height:578px;background:#FFFFFF;" version="1.1" viewBox="0 0 945 578" width="945px" zoomAndPan="magnify"><defs/><g><!--cluster MetricCollectorService--><g class="cluster" data-entity="MetricCollectorService" data-source-line="1" data-uid="ent0002" id="cluster_MetricCollectorService"><rect fill="none" height="565.6" rx="2.5" ry="2.5" style="stroke:#181818;stroke-width:1;" width="693" x="25.3398" y="7"/><rect fill="none" height="10" style="stroke:#181818;stroke-width:1;" width="15" x="698.3398" y="12"/><rect fill="none" height="2" style="stroke:#181818;stroke-width:1;" width="4" x="696.3398" y="14"/><rect fill="none" height="2" style="stroke:#181818;stroke-width:1;" width="4" x="696.3398" y="18"/><text fill="#000000" font-family="sans-serif" font-size="14" font-weight="bold" lengthAdjust="spacing" textLength="178.8213" x="282.4292" y="32.9951">MetricCollectorService</text></g><!--cluster APIInterface--><g class="cluster" data-entity="APIInterface" data-source-line="2" data-uid="ent0003" id="cluster_APIInterface"><rect fill="none" height="175.16" rx="2.5" ry="2.5" style="stroke:#181818;stroke-width:1;" width="369" x="65.3398" y="121.72"/><rect fill="none" height="10" style="stroke:#181818;stroke-width:1;" width="15" x="414.3398" y="126.72"/><rect fill="none" height="2" style="stroke:#181818;stroke-width:1;" width="4" x="412.3398" y="128.72"/><rect fill="none" height="2" style="stroke:#181818;stroke-width:1;" width="4" x="412.3398" y="132.72"/><text fill="#000000" font-family="sans-serif" font-size="14" font-weight="bold" lengthAdjust="spacing" textLength="97.9043" x="200.8877" y="147.7151">APIInterface</text></g><!--cluster PersistenceLayer--><g class="cluster" data-entity="PersistenceLayer" data-source-line="3" data-uid="ent0005" id="cluster_PersistenceLayer"><rect fill="none" height="186.72" rx="2.5" ry="2.5" style="stroke:#181818;stroke-width:1;" width="260" x="174.3398" y="345.88"/><rect fill="none" height="10" style="stroke:#181818;stroke-width:1;" width="15" x="414.3398" y="350.88"/><rect fill="none" height="2" style="stroke:#181818;stroke-width:1;" width="4" x="412.3398" y="352.88"/><rect fill="none" height="2" style="stroke:#181818;stroke-width:1;" width="4" x="412.3398" y="356.88"/><text fill="#000000" font-family="sans-serif" font-size="14" font-weight="bold" lengthAdjust="spacing" textLength="135.9668" x="236.3564" y="371.8751">PersistenceLayer</text></g><!--entity External Social Media APIs--><g class="entity" data-entity="External Social Media APIs" data-source-line="7" data-uid="ent0007" id="entity_External Social Media APIs"><ellipse cx="98.3398" cy="249.73" fill="#F1F1F1" rx="8" ry="8" style="stroke:#181818;stroke-width:0.5;"/><text fill="#000000" font-family="sans-serif" font-size="14" lengthAdjust="spacing" textLength="184.6797" x="6" y="279.7251">External Social Media APIs</text></g><!--entity BusinessMetricProcessingEngine--><g class="entity" data-entity="BusinessMetricProcessingEngine" data-source-line="8" data-uid="ent0009" id="entity_BusinessMetricProcessingEngine"><rect fill="#F1F1F1" height="46.2969" rx="2.5" ry="2.5" style="stroke:#181818;stroke-width:0.5;" width="268.5527" x="142.0598" y="226.58"/><rect fill="#F1F1F1" height="10" style="stroke:#181818;stroke-width:0.5;" width="15" x="390.6126" y="231.58"/><rect fill="#F1F1F1" height="2" style="stroke:#181818;stroke-width:0.5;" width="4" x="388.6126" y="233.58"/><rect fill="#F1F1F1" height="2" style="stroke:#181818;stroke-width:0.5;" width="4" x="388.6126" y="237.58"/><text fill="#000000" font-family="sans-serif" font-size="14" lengthAdjust="spacing" textLength="228.5527" x="157.0598" y="259.5751">BusinessMetricProcessingEngine</text></g><!--entity Database for Metric Storage--><g class="entity" data-entity="Database for Metric Storage" data-source-line="12" data-uid="ent0011" id="entity_Database for Metric Storage"><ellipse cx="304.3398" cy="479.6" fill="#F1F1F1" rx="8" ry="8" style="stroke:#181818;stroke-width:0.5;"/><text fill="#000000" font-family="sans-serif" font-size="14" lengthAdjust="spacing" textLength="197.7021" x="205.4888" y="509.5951">Database for Metric Storage</text></g><!--entity Decision-Making Processes--><g class="entity" data-entity="Decision-Making Processes" data-source-line="29" data-uid="ent0019" id="entity_Decision-Making Processes"><ellipse cx="844.3398" cy="479.6" fill="#F1F1F1" rx="8" ry="8" style="stroke:#181818;stroke-width:0.5;"/><text fill="#000000" font-family="sans-serif" font-size="14" lengthAdjust="spacing" textLength="189.0889" x="749.7954" y="509.5951">Decision-Making Processes</text></g><!--link MetricCollectorService to APIInterface--><g class="link" data-entity-1="MetricCollectorService" data-entity-2="APIInterface" data-source-line="2" data-uid="lnk4" id="link_MetricCollectorService_APIInterface"><path d="M401.5698,34.74 C385.9298,35.12 135.2098,41.57 114.3398,64.72 C98.3998,82.41 115.1073,102.88 136.1873,119.1088 C136.8461,119.6159 137.5091,120.1189 138.1755,120.6176 C138.5088,120.8669 134.0154,117.552 134.3502,117.7991" fill="none" id="MetricCollectorService-to-APIInterface" style="stroke:#181818;stroke-width:1;"/><polygon fill="#181818" points="139.1776,121.3622,134.3119,112.7993,135.1548,118.393,129.5611,119.2359,139.1776,121.3622" style="stroke:#181818;stroke-width:1;"/></g><!--link MetricCollectorService to APIInterface--><g class="link" data-entity-1="MetricCollectorService" data-entity-2="APIInterface" data-source-line="21" data-uid="lnk15" id="link_MetricCollectorService_APIInterface"><path d="M401.6598,34.75 C387.7998,35.28 165.7098,44.07 147.3398,64.72 C134.0848,79.63 142.8398,100.0575 155.1498,116.9588 C155.9192,118.0151 156.7025,119.0576 157.4951,120.0842 C157.8914,120.5975 154.5622,116.4054 154.9627,116.9104" fill="none" id="MetricCollectorService-to-APIInterface-1" style="stroke:#181818;stroke-width:1;"/><polygon fill="#181818" points="158.6906,121.6118,156.233,112.0745,155.584,117.694,149.9645,117.045,158.6906,121.6118" style="stroke:#181818;stroke-width:1;"/><text fill="#000000" font-family="sans-serif" font-size="13" lengthAdjust="spacing" textLength="154.2925" x="148.3398" y="77.7869">Periodic Metric Updates</text></g><!--link MetricCollectorService to APIInterface--><g class="link" data-entity-1="MetricCollectorService" data-entity-2="APIInterface" data-source-line="25" data-uid="lnk17" id="link_MetricCollectorService_APIInterface"><path d="M402.0798,34.85 C396.8398,37.52 312.8498,80.24 307.3398,81.72 C294.5398,85.17 197.7198,80.36 188.3398,89.72 C183.8848,94.17 181.353,99.8875 180.0741,105.9977 C179.4346,109.0527 179.1084,112.206 179.0117,115.348 C178.9633,116.9191 178.9723,118.4873 179.0282,120.039 C179.0422,120.427 179.0591,120.8139 179.0787,121.1996 C179.0837,121.296 178.7613,115.4013 178.7665,115.4975" fill="none" id="MetricCollectorService-to-APIInterface-2" style="stroke:#181818;stroke-width:1;stroke-dasharray:7,7;"/><polygon fill="#181818" points="179.094,121.4886,182.5968,112.2837,178.8211,116.496,174.6088,112.7203,179.094,121.4886" style="stroke:#181818;stroke-width:1;"/><text fill="#000000" font-family="sans-serif" font-size="13" lengthAdjust="spacing" textLength="105.6313" x="341.5598" y="77.7869">High Availability</text></g><!--link MetricCollectorService to PersistenceLayer--><g class="link" data-entity-1="MetricCollectorService" data-entity-2="PersistenceLayer" data-source-line="3" data-uid="lnk6" id="link_MetricCollectorService_PersistenceLayer"><path d="M403.0198,34.85 C408.2298,35.9 442.0398,43.42 454.3398,64.72 C471.3648,94.2 464.6073,170.115 453.4736,239.1363 C447.9067,273.6469 441.2458,306.4341 435.9166,330.8317 C435.2504,333.8814 434.6051,336.8 433.9853,339.5746 C433.6754,340.9618 433.3719,342.313 433.0753,343.6266 C432.9271,344.2834 434.1082,339.0795 433.9634,339.7173" fill="none" id="MetricCollectorService-to-PersistenceLayer" style="stroke:#181818;stroke-width:1;"/><polygon fill="#181818" points="432.6358,345.5685,438.5281,337.6767,433.7422,340.6925,430.7264,335.9066,432.6358,345.5685" style="stroke:#181818;stroke-width:1;"/></g><!--link MetricCollectorService to PersistenceLayer--><g class="link" data-entity-1="MetricCollectorService" data-entity-2="PersistenceLayer" data-source-line="22" data-uid="lnk16" id="link_MetricCollectorService_PersistenceLayer"><path d="M402.8398,34.79 C407.7598,35.5 447.7298,41.9 466.3398,64.72 C473.5598,73.58 470.9998,78.38 472.3398,89.72 C484.0198,188.44 485.4298,217.53 457.3398,312.88 C453.2648,326.71 445.8648,341.07 439.3173,352.2013 C437.6805,354.9841 436.0969,357.5651 434.6318,359.8856 C434.5403,360.0306 437.6612,355.1068 437.5706,355.2498" fill="none" id="MetricCollectorService-to-PersistenceLayer-1" style="stroke:#181818;stroke-width:1;"/><polygon fill="#181818" points="434.3585,360.3176,442.5552,354.8572,437.0352,356.0944,435.7981,350.5745,434.3585,360.3176" style="stroke:#181818;stroke-width:1;"/><text fill="#000000" font-family="sans-serif" font-size="13" lengthAdjust="spacing" textLength="85.9663" x="481.1998" y="192.6469">Store Metrics</text></g><!--link MetricCollectorService to PersistenceLayer--><g class="link" data-entity-1="MetricCollectorService" data-entity-2="PersistenceLayer" data-source-line="26" data-uid="lnk18" id="link_MetricCollectorService_PersistenceLayer"><path d="M402.8698,34.83 C408.0898,35.87 450.6898,44.87 478.3398,64.72 C532.6098,103.69 552.3898,116.83 575.3398,179.58 C593.6398,229.615 557.8298,277.0675 516.7411,312.3588 C496.1967,330.0044 474.3327,344.6097 457.2528,354.9773 C448.7129,360.1612 441.369,364.2856 435.9842,367.2009 C435.6476,367.3831 435.3187,367.5606 434.9977,367.7333 C434.8372,367.8197 439.9662,365.0691 439.8096,365.1531" fill="none" id="MetricCollectorService-to-PersistenceLayer-2" style="stroke:#181818;stroke-width:1;stroke-dasharray:7,7;"/><polygon fill="#181818" points="434.522,367.9889,444.3439,367.2603,438.9283,365.6257,440.5629,360.2102,434.522,367.9889" style="stroke:#181818;stroke-width:1;"/><text fill="#000000" font-family="sans-serif" font-size="13" lengthAdjust="spacing" textLength="81.3452" x="580.4698" y="192.6469">Low Latency</text></g><!--link APIInterface to External Social Media APIs--><g class="link" data-entity-1="APIInterface" data-entity-2="External Social Media APIs" data-source-line="7" data-uid="lnk8" id="link_APIInterface_External Social Media APIs"><path d="M184.4698,149.67 C187.0898,151.35 228.7898,178.51 213.3398,196.58 C187.3198,227.02 158.1698,189.17 124.3398,210.58 C113.0998,217.7 107.9315,226.1448 103.9815,235.0548" fill="none" id="APIInterface-to-External Social Media APIs" style="stroke:#181818;stroke-width:1;"/><polygon fill="#181818" points="101.5498,240.54,108.8541,233.9334,103.5763,235.969,101.5406,230.6911,101.5498,240.54" style="stroke:#181818;stroke-width:1;"/></g><!--link APIInterface to External Social Media APIs--><g class="link" data-entity-1="APIInterface" data-entity-2="External Social Media APIs" data-source-line="20" data-uid="lnk14" id="link_APIInterface_External Social Media APIs"><path d="M183.6998,149.59 C177.4498,149.72 126.7698,151.65 105.3398,179.58 C91.5298,197.58 93.2162,220.5262 95.6262,234.5862" fill="none" id="APIInterface-to-External Social Media APIs-1" style="stroke:#181818;stroke-width:1;"/><polygon fill="#181818" points="96.6398,240.5,99.0618,230.9536,95.7951,235.5719,91.1768,232.3051,96.6398,240.5" style="stroke:#181818;stroke-width:1;"/><text fill="#000000" font-family="sans-serif" font-size="13" lengthAdjust="spacing" textLength="102.4829" x="106.3398" y="192.6469">Secure Channel</text></g><!--link APIInterface to BusinessMetricProcessingEngine--><g class="link" data-entity-1="APIInterface" data-entity-2="BusinessMetricProcessingEngine" data-source-line="8" data-uid="lnk10" id="link_APIInterface_BusinessMetricProcessingEngine"><path d="M184.6198,149.75 C187.3398,151.38 209.5998,164.86 224.3398,179.58 C238.5798,193.81 248.7715,207.1383 258.4815,221.3283" fill="none" id="APIInterface-to-BusinessMetricProcessingEngine" style="stroke:#181818;stroke-width:1;"/><polygon fill="#181818" points="261.8698,226.28,260.0884,216.5936,259.0462,222.1536,253.4862,221.1114,261.8698,226.28" style="stroke:#181818;stroke-width:1;"/></g><!--link PersistenceLayer to Database for Metric Storage--><g class="link" data-entity-1="PersistenceLayer" data-entity-2="Database for Metric Storage" data-source-line="12" data-uid="lnk12" id="link_PersistenceLayer_Database for Metric Storage"><path d="M425.9898,373.9 C420.0398,379.03 344.3172,444.1858 317.5272,467.2458" fill="none" id="PersistenceLayer-to-Database for Metric Storage" style="stroke:#181818;stroke-width:1;"/><polygon fill="#181818" points="312.9798,471.16,322.4104,468.3202,316.7693,467.8981,317.1914,462.257,312.9798,471.16" style="stroke:#181818;stroke-width:1;"/></g><!--link BusinessMetricProcessingEngine to PersistenceLayer--><g class="link" data-entity-1="BusinessMetricProcessingEngine" data-entity-2="PersistenceLayer" data-source-line="16" data-uid="lnk13" id="link_BusinessMetricProcessingEngine_PersistenceLayer"><path d="M300.2798,273.2 C315.8898,287.55 336.8998,306.31 356.3398,321.88 C363.5848,327.6825 371.4261,333.6281 379.1498,339.3072 C381.0808,340.727 383.0044,342.1301 384.9095,343.5101 C385.862,344.2001 386.8099,344.8844 387.7519,345.5621 C387.8696,345.6468 383.1155,342.2291 383.233,342.3136" fill="none" id="BusinessMetricProcessingEngine-to-PersistenceLayer" style="stroke:#181818;stroke-width:1;"/><polygon fill="#181818" points="388.1048,345.8159,383.132,337.3146,384.045,342.8973,378.4623,343.8103,388.1048,345.8159" style="stroke:#181818;stroke-width:1;"/></g><!--link PersistenceLayer to Decision-Making Processes--><g class="link" data-entity-1="PersistenceLayer" data-entity-2="Decision-Making Processes" data-source-line="29" data-uid="lnk20" id="link_PersistenceLayer_Decision-Making Processes"><path d="M434.3585,375.6186 C434.5799,375.6742 434.8055,375.7309 435.0355,375.7887 C435.9552,376.0197 436.943,376.2678 437.9967,376.5325 C440.1042,377.0618 442.475,377.6573 445.0907,378.3144 C455.5536,380.9425 469.9351,384.555 487.0534,388.855 C521.2902,397.455 566.4742,408.805 613.1511,420.53 C706.5048,443.98 800.0106,467.4683 829.6706,474.9183" fill="none" id="PersistenceLayer-to-Decision-Making Processes" style="stroke:#181818;stroke-width:1;stroke-dasharray:7,7;"/><polygon fill="#181818" points="835.4898,476.38,827.7354,470.308,830.6405,475.1619,825.7865,478.067,835.4898,476.38" style="stroke:#181818;stroke-width:1;"/><text fill="#000000" font-family="sans-serif" font-size="13" lengthAdjust="spacing" textLength="79.9043" x="611.3098" y="416.6669">Data Access</text></g><!--SRC=[ZPBFRi8m3CRlUGghbvtW0JXCOe0q993GgfqG1vEQOgqaLHnWrRHtNqAh_Ic5xXJ5iJ___3dQ7afho7X8bkGTwuaj2jBUkfJSYJKbyA40rjsF6nWC7c4zNitdnfFROGZrPg_82Oidesc15RcD-bHA_t3yLckw_sbmKKbcx-5ki83KQWx7aZ9628cIT5Uidux2XaHgk9MpEbpOv3EJXtYReatPa5p1rpHJzBX58TXP1tK3ICFac5FI4hwFqRJfORrZv0F4kNE7dgs14lrULDiDn_dUzvW88qX97nt1P8_6KA5kRpMpPtFr3u9006IR1IiQHrxB33t9FvIkRHvT_AH6IkAWBoJ1LE4JWLGX-G0P2UVcjlvms47v7Do0yGcvm2qNxAkU-YwsXJt30cEiYcHJqYp1_y41tyBMG8vbQPrN7RLHCldENzRvpSBfieRujs2iOq1z0G00]--></g></svg>