<svg xmlns="http://www.w3.org/2000/svg" xmlns:xlink="http://www.w3.org/1999/xlink" contentStyleType="text/css" data-diagram-type="DESCRIPTION" height="136px" preserveAspectRatio="none" style="width:3328px;height:136px;background:#FFFFFF;" version="1.1" viewBox="0 0 3328 136" width="3328px" zoomAndPan="magnify"><defs/><g><!--entity Executive--><g class="entity" data-entity="Executive" data-source-line="1" data-uid="ent0002" id="entity_Executive"><ellipse cx="107.4453" cy="63.44" fill="#F1F1F1" rx="8" ry="8" style="stroke:#181818;stroke-width:0.5;"/><path d="M107.4453,71.44 L107.4453,98.44 M94.4453,79.44 L120.4453,79.44 M107.4453,98.44 L94.4453,113.44 M107.4453,98.44 L120.4453,113.44" fill="none" style="stroke:#181818;stroke-width:0.5;"/><text fill="#000000" font-family="sans-serif" font-size="14" lengthAdjust="spacing" textLength="202.8906" x="6" y="127.9351">&#1575;&#1604;&#1605;&#1583;&#1610;&#1585; &#1575;&#1604;&#1578;&#1606;&#1601;&#1610;&#1584;&#1610;/&#1593;&#1590;&#1608; &#1605;&#1580;&#1604;&#1587; &#1575;&#1604;&#1573;&#1583;&#1575;&#1585;&#1577;</text></g><!--entity MarketingAnalyst--><g class="entity" data-entity="MarketingAnalyst" data-source-line="2" data-uid="ent0003" id="entity_MarketingAnalyst"><ellipse cx="1098.4493" cy="63.44" fill="#F1F1F1" rx="8" ry="8" style="stroke:#181818;stroke-width:0.5;"/><path d="M1098.4493,71.44 L1098.4493,98.44 M1085.4493,79.44 L1111.4493,79.44 M1098.4493,98.44 L1085.4493,113.44 M1098.4493,98.44 L1111.4493,113.44" fill="none" style="stroke:#181818;stroke-width:0.5;"/><text fill="#000000" font-family="sans-serif" font-size="14" lengthAdjust="spacing" textLength="181.1387" x="1007.88" y="127.9351">&#1605;&#1581;&#1604;&#1604; &#1575;&#1604;&#1578;&#1587;&#1608;&#1610;&#1602; &#1608;&#1575;&#1604;&#1593;&#1604;&#1575;&#1602;&#1575;&#1578; &#1575;&#1604;&#1593;&#1575;&#1605;&#1577;</text></g><!--entity BusinessAnalyst--><g class="entity" data-entity="BusinessAnalyst" data-source-line="3" data-uid="ent0004" id="entity_BusinessAnalyst"><ellipse cx="1567.4441" cy="63.44" fill="#F1F1F1" rx="8" ry="8" style="stroke:#181818;stroke-width:0.5;"/><path d="M1567.4441,71.44 L1567.4441,98.44 M1554.4441,79.44 L1580.4441,79.44 M1567.4441,98.44 L1554.4441,113.44 M1567.4441,98.44 L1580.4441,113.44" fill="none" style="stroke:#181818;stroke-width:0.5;"/><text fill="#000000" font-family="sans-serif" font-size="14" lengthAdjust="spacing" textLength="183.9482" x="1475.47" y="127.9351">&#1605;&#1581;&#1604;&#1604; &#1578;&#1591;&#1608;&#1610;&#1585; &#1575;&#1604;&#1571;&#1593;&#1605;&#1575;&#1604;/&#1575;&#1604;&#1605;&#1606;&#1575;&#1602;&#1589;&#1575;&#1578;</text></g><!--entity VEO--><g class="entity" data-entity="VEO" data-source-line="5" data-uid="ent0005" id="entity_VEO"><ellipse cx="872.4481" cy="93.0896" fill="#F1F1F1" rx="100.3981" ry="22.4796" style="stroke:#181818;stroke-width:0.5;"/><text fill="#000000" font-family="sans-serif" font-size="14" lengthAdjust="spacing" textLength="176.9346" x="783.9808" y="97.7381">View Executive Overview</text></g><!--entity DDI--><g class="entity" data-entity="DDI" data-source-line="6" data-uid="ent0006" id="entity_DDI"><ellipse cx="2076.4463" cy="93.0933" fill="#F1F1F1" rx="86.0163" ry="19.6033" style="stroke:#181818;stroke-width:0.5;"/><text fill="#000000" font-family="sans-serif" font-size="14" lengthAdjust="spacing" textLength="144.6621" x="2004.1153" y="97.7417">Drill Down to Indices</text></g><!--entity EES--><g class="entity" data-entity="EES" data-source-line="7" data-uid="ent0007" id="entity_EES"><ellipse cx="630.4464" cy="93.0933" fill="#F1F1F1" rx="106.8164" ry="23.7633" style="stroke:#181818;stroke-width:0.5;"/><text fill="#000000" font-family="sans-serif" font-size="14" lengthAdjust="spacing" textLength="190.9756" x="534.9586" y="97.7417">Export Executive Summary</text></g><!--entity SSR--><g class="entity" data-entity="SSR" data-source-line="8" data-uid="ent0008" id="entity_SSR"><ellipse cx="366.4482" cy="93.0916" fill="#F1F1F1" rx="122.0582" ry="26.8116" style="stroke:#181818;stroke-width:0.5;"/><text fill="#000000" font-family="sans-serif" font-size="14" lengthAdjust="spacing" textLength="223.7402" x="254.5781" y="97.7401">Subscribe to Scheduled Reports</text></g><!--entity VBII--><g class="entity" data-entity="VBII" data-source-line="9" data-uid="ent0009" id="entity_VBII"><ellipse cx="3215.4521" cy="93.0944" fill="#F1F1F1" rx="107.2221" ry="23.8444" style="stroke:#181818;stroke-width:0.5;"/><text fill="#000000" font-family="sans-serif" font-size="14" lengthAdjust="spacing" textLength="191.8574" x="3119.5234" y="97.7429">View Brand Influence Index</text></g><!--entity VMPI--><g class="entity" data-entity="VMPI" data-source-line="10" data-uid="ent0010" id="entity_VMPI"><ellipse cx="2967.4467" cy="93.0893" fill="#F1F1F1" rx="106.0467" ry="23.6093" style="stroke:#181818;stroke-width:0.5;"/><text fill="#000000" font-family="sans-serif" font-size="14" lengthAdjust="spacing" textLength="189.3008" x="2872.7963" y="97.7378">View Market Position Index</text></g><!--entity VTRI--><g class="entity" data-entity="VTRI" data-source-line="11" data-uid="ent0011" id="entity_VTRI"><ellipse cx="2712.4458" cy="93.0912" fill="#F1F1F1" rx="114.1058" ry="25.2212" style="stroke:#181818;stroke-width:0.5;"/><text fill="#000000" font-family="sans-serif" font-size="14" lengthAdjust="spacing" textLength="206.7324" x="2609.0796" y="97.7396">View Tender Readiness Index</text></g><!--entity VOAS--><g class="entity" data-entity="VOAS" data-source-line="12" data-uid="ent0012" id="entity_VOAS"><ellipse cx="2414.4491" cy="93.0878" fill="#F1F1F1" rx="148.9391" ry="32.1878" style="stroke:#181818;stroke-width:0.5;"/><text fill="#000000" font-family="sans-serif" font-size="14" lengthAdjust="spacing" textLength="280.2734" x="2274.3124" y="97.7363">View Opportunity Acceptance Summary</text></g><!--entity CDV--><g class="entity" data-entity="CDV" data-source-line="13" data-uid="ent0013" id="entity_CDV"><ellipse cx="1332.4486" cy="93.0897" fill="#F1F1F1" rx="108.2486" ry="24.0497" style="stroke:#181818;stroke-width:0.5;"/><text fill="#000000" font-family="sans-serif" font-size="14" lengthAdjust="spacing" textLength="194.0859" x="1235.4056" y="97.7382">Configure Dashboard Views</text></g><!--entity URN--><g class="entity" data-entity="URN" data-source-line="14" data-uid="ent0014" id="entity_URN"><ellipse cx="1792.4457" cy="93.0851" fill="#F1F1F1" rx="98.0757" ry="22.0151" style="stroke:#181818;stroke-width:0.5;"/><text fill="#000000" font-family="sans-serif" font-size="14" lengthAdjust="spacing" textLength="171.8076" x="1706.5419" y="97.7336">Update Readiness Notes</text></g><!--link Executive to VEO--><g class="link" data-entity-1="Executive" data-entity-2="VEO" data-source-line="16" data-uid="lnk15" id="link_Executive_VEO"><path d="M192.3,54.5 C209.09,48.46 226.82,43.16 243.95,39.94 C297.78,29.83 683.12,29.76 736.95,39.94 C769.84,46.16 799.5395,57.6717 825.7895,69.7517" fill="none" id="Executive-to-VEO" style="stroke:#181818;stroke-width:1;"/><polygon fill="#181818" points="831.24,72.26,824.7364,64.8639,826.6979,70.1698,821.392,72.1313,831.24,72.26" style="stroke:#181818;stroke-width:1;"/></g><!--link Executive to DDI--><g class="link" data-entity-1="Executive" data-entity-2="DDI" data-source-line="17" data-uid="lnk16" id="link_Executive_DDI"><path d="M192.3,54.5 C209.09,48.46 226.82,43.16 243.95,39.94 C333.87,23.05 1800.33,27.22 1890.95,39.94 C1939.71,46.79 1987.9694,61.3394 2025.0494,74.1594" fill="none" id="Executive-to-DDI" style="stroke:#181818;stroke-width:1;"/><polygon fill="#181818" points="2030.72,76.12,2023.5211,69.3987,2025.9945,74.4862,2020.907,76.9596,2030.72,76.12" style="stroke:#181818;stroke-width:1;"/></g><!--link Executive to EES--><g class="link" data-entity-1="Executive" data-entity-2="EES" data-source-line="18" data-uid="lnk17" id="link_Executive_EES"><path d="M192.3,54.5 C209.09,48.46 226.82,43.16 243.95,39.94 C350.96,19.84 381.81,20.49 488.95,39.94 C522.12,45.97 552.1487,56.945 579.2987,68.765" fill="none" id="Executive-to-EES" style="stroke:#181818;stroke-width:1;"/><polygon fill="#181818" points="584.8,71.16,578.1448,63.9,580.2156,69.1641,574.9514,71.235,584.8,71.16" style="stroke:#181818;stroke-width:1;"/></g><!--link Executive to SSR--><g class="link" data-entity-1="Executive" data-entity-2="SSR" data-source-line="19" data-uid="lnk18" id="link_Executive_SSR"><path d="M209.38,93.09 C220.93,93.09 226.49,93.09 238.04,93.09" fill="none" id="Executive-to-SSR" style="stroke:#181818;stroke-width:1;"/><polygon fill="#181818" points="244.04,93.09,235.04,89.09,239.04,93.09,235.04,97.09,244.04,93.09" style="stroke:#181818;stroke-width:1;"/></g><!--link DDI to VBII--><g class="link" data-entity-1="DDI" data-entity-2="VBII" data-source-line="21" data-uid="lnk19" id="link_DDI_VBII"><path d="M2122.8,76.24 C2160.71,63.41 2216.02,46.81 2265.95,39.94 C2354.89,27.71 2985.61,23.9 3073.95,39.94 C3107.12,45.97 3137.1487,56.945 3164.2987,68.765" fill="none" id="DDI-to-VBII" style="stroke:#181818;stroke-width:1;"/><polygon fill="#181818" points="3169.8,71.16,3163.1448,63.9,3165.2156,69.1641,3159.9514,71.235,3169.8,71.16" style="stroke:#181818;stroke-width:1;"/></g><!--link DDI to VMPI--><g class="link" data-entity-1="DDI" data-entity-2="VMPI" data-source-line="22" data-uid="lnk20" id="link_DDI_VMPI"><path d="M2122.8,76.24 C2160.71,63.41 2216.02,46.81 2265.95,39.94 C2389.45,22.95 2704.31,17.52 2826.95,39.94 C2860.04,45.99 2889.9669,57.0262 2916.9569,68.8862" fill="none" id="DDI-to-VMPI" style="stroke:#181818;stroke-width:1;"/><polygon fill="#181818" points="2922.45,71.3,2915.8196,64.0173,2917.8725,69.2885,2912.6012,71.3414,2922.45,71.3" style="stroke:#181818;stroke-width:1;"/></g><!--link DDI to VTRI--><g class="link" data-entity-1="DDI" data-entity-2="VTRI" data-source-line="23" data-uid="lnk21" id="link_DDI_VTRI"><path d="M2122.8,76.24 C2160.71,63.41 2216.02,46.81 2265.95,39.94 C2331.33,30.95 2497.91,28.73 2562.95,39.94 C2596.88,45.8 2627.7641,56.3346 2656.1641,67.9146" fill="none" id="DDI-to-VTRI" style="stroke:#181818;stroke-width:1;"/><polygon fill="#181818" points="2661.72,70.18,2654.8964,63.078,2657.0901,68.2922,2651.8759,70.4858,2661.72,70.18" style="stroke:#181818;stroke-width:1;"/></g><!--link DDI to VOAS--><g class="link" data-entity-1="DDI" data-entity-2="VOAS" data-source-line="24" data-uid="lnk22" id="link_DDI_VOAS"><path d="M2162.61,93.09 C2193.81,93.09 2224.01,93.09 2259.06,93.09" fill="none" id="DDI-to-VOAS" style="stroke:#181818;stroke-width:1;"/><polygon fill="#181818" points="2265.06,93.09,2256.06,89.09,2260.06,93.09,2256.06,97.09,2265.06,93.09" style="stroke:#181818;stroke-width:1;"/><text fill="#000000" font-family="sans-serif" font-size="13" lengthAdjust="spacing" textLength="67.958" x="2180.48" y="86.1569">&#171;extends&#187;</text></g><!--link VEO to CDV--><g class="link" data-entity-1="VEO" data-entity-2="CDV" data-source-line="26" data-uid="lnk23" id="link_VEO_CDV"><path d="M914.61,72.29 C952.99,54.59 1011.77,30.52 1065.95,20.72 C1147.33,6 1234.6913,41.2613 1286.5113,67.6013" fill="none" id="VEO-to-CDV" style="stroke:#181818;stroke-width:1;"/><polygon fill="#181818" points="1291.86,70.32,1285.6494,62.6761,1287.4028,68.0544,1282.0245,69.8077,1291.86,70.32" style="stroke:#181818;stroke-width:1;"/><text fill="#000000" font-family="sans-serif" font-size="13" lengthAdjust="spacing" textLength="63.0068" x="1066.95" y="21.0069">&#171;include&#187;</text></g><!--link MarketingAnalyst to CDV--><g class="link" data-entity-1="MarketingAnalyst" data-entity-2="CDV" data-source-line="28" data-uid="lnk24" id="link_MarketingAnalyst_CDV"><path d="M1189.39,93.09 C1200.85,93.09 1206.3,93.09 1217.76,93.09" fill="none" id="MarketingAnalyst-to-CDV" style="stroke:#181818;stroke-width:1;"/><polygon fill="#181818" points="1223.76,93.09,1214.76,89.09,1218.76,93.09,1214.76,97.09,1223.76,93.09" style="stroke:#181818;stroke-width:1;"/></g><!--link BusinessAnalyst to URN--><g class="link" data-entity-1="BusinessAnalyst" data-entity-2="URN" data-source-line="30" data-uid="lnk25" id="link_BusinessAnalyst_URN"><path d="M1659.73,93.09 C1671.14,93.09 1676.54,93.09 1687.95,93.09" fill="none" id="BusinessAnalyst-to-URN" style="stroke:#181818;stroke-width:1;"/><polygon fill="#181818" points="1693.95,93.09,1684.95,89.09,1688.95,93.09,1684.95,97.09,1693.95,93.09" style="stroke:#181818;stroke-width:1;"/></g><!--link URN to DDI--><g class="link" data-entity-1="URN" data-entity-2="DDI" data-source-line="31" data-uid="lnk26" id="link_URN_DDI"><path d="M1890.98,93.09 C1923.18,93.09 1952.68,93.09 1983.93,93.09" fill="none" id="URN-to-DDI" style="stroke:#181818;stroke-width:1;"/><polygon fill="#181818" points="1989.93,93.09,1980.93,89.09,1984.93,93.09,1980.93,97.09,1989.93,93.09" style="stroke:#181818;stroke-width:1;"/><text fill="#000000" font-family="sans-serif" font-size="13" lengthAdjust="spacing" textLength="63.0068" x="1908.97" y="86.1569">&#171;include&#187;</text></g><!--SRC=[PPBFQjj04CRlUeh5zv1x2GOxyi67nC5AV5-l9ibIPMNsZsCV6-9W_1gbc9gMD8Iq-4rstwOpaenavR1YDVFfjzzyAovihbd7RyDpMFdNiF5lZ5xyBho4R_Zw9snE_Tx_3Mk6Wb_OUIy5F_oht_et_xF3k6631GXdvHmYNX9H_1kPpnNDluTrs8Gd5jP5OOzh6vwGi2iLUtokAjW5rr_1IdNNKpnR6lkPkVF_Y7Sm-nrvAzgTbeE4bmB-GVY2s7T6AZ3c08oS0S4DiCv4mcFjdetceETOAhwQ34QrCDOoorYSFofcSpPKgHHW2baS3slPO37BjMqG4_VmmFMoJ6cGrCh4JOtGSWh4IyGzf2w3b8s102KvISOjfttDLOgdtsOEb03o0OlIR7yuR8dB7DbLRgILkMgABwxQucl0hiRZULf4rLHVZzlgqOnSEYNjalM4W9dbPASvx6JKQqnxdgjRUUSqi9YR-sdETSg8L0vw7azgwSqivHOQJYvpMqLzCxwCeZhRasvnHqS5kesZ0eL-LA1K8vGLdrDgXps5SjZJo8Sz3iA-iBCpM5WCoNIxKOJ7KWjz5nsfHEPIe4xxvwraKTJw1wbEu-2gRBT8_m40]--></g></svg>