<svg xmlns="http://www.w3.org/2000/svg" xmlns:xlink="http://www.w3.org/1999/xlink" contentStyleType="text/css" data-diagram-type="ACTIVITY" height="362px" preserveAspectRatio="none" style="width:288px;height:362px;background:#FFFFFF;" version="1.1" viewBox="0 0 288 362" width="288px" zoomAndPan="magnify"><defs/><g><ellipse cx="143.1729" cy="20" fill="#222222" rx="10" ry="10" style="stroke:#222222;stroke-width:1;"/><rect fill="#F1F1F1" height="33.9688" rx="12.5" ry="12.5" style="stroke:#181818;stroke-width:0.5;" width="160.9824" x="62.6816" y="50"/><text fill="#000000" font-family="sans-serif" font-size="12" lengthAdjust="spacing" textLength="140.9824" x="72.6816" y="71.1387">Fetch Etimad deadlines</text><rect fill="#F1F1F1" height="33.9688" rx="12.5" ry="12.5" style="stroke:#181818;stroke-width:0.5;" width="236.5566" x="24.8945" y="103.9688"/><text fill="#000000" font-family="sans-serif" font-size="12" lengthAdjust="spacing" textLength="216.5566" x="34.8945" y="125.1074">Merge internal events into Calendar</text><rect fill="#F1F1F1" height="33.9688" rx="12.5" ry="12.5" style="stroke:#181818;stroke-width:0.5;" width="113.7734" x="86.2861" y="157.9375"/><text fill="#000000" font-family="sans-serif" font-size="12" lengthAdjust="spacing" textLength="93.7734" x="96.2861" y="179.0762">Schedule Alerts</text><polygon fill="#F1F1F1" points="101.5872,211.9063,184.7585,211.9063,196.7585,223.9063,184.7585,235.9063,101.5872,235.9063,89.5872,223.9063,101.5872,211.9063" style="stroke:#181818;stroke-width:0.5;"/><text fill="#000000" font-family="sans-serif" font-size="11" lengthAdjust="spacing" textLength="83.1714" x="101.5872" y="227.7144">Conflicts exist?</text><text fill="#000000" font-family="sans-serif" font-size="11" lengthAdjust="spacing" textLength="19.0083" x="70.5789" y="221.312">yes</text><text fill="#000000" font-family="sans-serif" font-size="11" lengthAdjust="spacing" textLength="13.7017" x="196.7585" y="221.312">no</text><rect fill="#F1F1F1" height="33.9688" rx="12.5" ry="12.5" style="stroke:#181818;stroke-width:0.5;" width="120.9395" x="11" y="245.9063"/><text fill="#000000" font-family="sans-serif" font-size="12" lengthAdjust="spacing" textLength="100.9395" x="21" y="267.0449">Resolve conflicts</text><rect fill="#F1F1F1" height="33.9688" rx="12.5" ry="12.5" style="stroke:#181818;stroke-width:0.5;" width="125.873" x="151.9395" y="245.9063"/><text fill="#000000" font-family="sans-serif" font-size="12" lengthAdjust="spacing" textLength="105.873" x="161.9395" y="267.0449">No action needed</text><polygon fill="#F1F1F1" points="143.1729,285.875,155.1729,297.875,143.1729,309.875,131.1729,297.875,143.1729,285.875" style="stroke:#181818;stroke-width:0.5;"/><ellipse cx="143.1729" cy="340.875" fill="none" rx="11" ry="11" style="stroke:#222222;stroke-width:1;"/><ellipse cx="143.1729" cy="340.875" fill="#222222" rx="6" ry="6" style="stroke:#222222;stroke-width:1;"/><line style="stroke:#181818;stroke-width:1;" x1="143.1729" x2="143.1729" y1="30" y2="50"/><polygon fill="#181818" points="139.1729,40,143.1729,50,147.1729,40,143.1729,44" style="stroke:#181818;stroke-width:1;"/><line style="stroke:#181818;stroke-width:1;" x1="143.1729" x2="143.1729" y1="83.9688" y2="103.9688"/><polygon fill="#181818" points="139.1729,93.9688,143.1729,103.9688,147.1729,93.9688,143.1729,97.9688" style="stroke:#181818;stroke-width:1;"/><line style="stroke:#181818;stroke-width:1;" x1="143.1729" x2="143.1729" y1="137.9375" y2="157.9375"/><polygon fill="#181818" points="139.1729,147.9375,143.1729,157.9375,147.1729,147.9375,143.1729,151.9375" style="stroke:#181818;stroke-width:1;"/><line style="stroke:#181818;stroke-width:1;" x1="89.5872" x2="71.4697" y1="223.9063" y2="223.9063"/><line style="stroke:#181818;stroke-width:1;" x1="71.4697" x2="71.4697" y1="223.9063" y2="245.9063"/><polygon fill="#181818" points="67.4697,235.9063,71.4697,245.9063,75.4697,235.9063,71.4697,239.9063" style="stroke:#181818;stroke-width:1;"/><line style="stroke:#181818;stroke-width:1;" x1="196.7585" x2="214.876" y1="223.9063" y2="223.9063"/><line style="stroke:#181818;stroke-width:1;" x1="214.876" x2="214.876" y1="223.9063" y2="245.9063"/><polygon fill="#181818" points="210.876,235.9063,214.876,245.9063,218.876,235.9063,214.876,239.9063" style="stroke:#181818;stroke-width:1;"/><line style="stroke:#181818;stroke-width:1;" x1="71.4697" x2="71.4697" y1="279.875" y2="297.875"/><line style="stroke:#181818;stroke-width:1;" x1="71.4697" x2="131.1729" y1="297.875" y2="297.875"/><polygon fill="#181818" points="121.1729,293.875,131.1729,297.875,121.1729,301.875,125.1729,297.875" style="stroke:#181818;stroke-width:1;"/><line style="stroke:#181818;stroke-width:1;" x1="214.876" x2="214.876" y1="279.875" y2="297.875"/><line style="stroke:#181818;stroke-width:1;" x1="214.876" x2="155.1729" y1="297.875" y2="297.875"/><polygon fill="#181818" points="165.1729,293.875,155.1729,297.875,165.1729,301.875,161.1729,297.875" style="stroke:#181818;stroke-width:1;"/><line style="stroke:#181818;stroke-width:1;" x1="143.1729" x2="143.1729" y1="191.9063" y2="211.9063"/><polygon fill="#181818" points="139.1729,201.9063,143.1729,211.9063,147.1729,201.9063,143.1729,205.9063" style="stroke:#181818;stroke-width:1;"/><line style="stroke:#181818;stroke-width:1;" x1="143.1729" x2="143.1729" y1="309.875" y2="329.875"/><polygon fill="#181818" points="139.1729,319.875,143.1729,329.875,147.1729,319.875,143.1729,323.875" style="stroke:#181818;stroke-width:1;"/><!--SRC=[DSin3i9034JHtgTmcLmXAH2Ae8C2Jh1QJuWbuqMx9eBR4v0eH_zDYrI3Q3WYyiA7q7iI5YGnTRIHXXFg3QmUg9wCiSAZVNVXAHbSKjtKDI-Gfu7tXXhRZtJcRYe-c-RDuwKjTZt70kVkZTOJyt11AxQ2yz-D16lWpikldmkd75gS7H38bbrq9cfH7Xy0]--></g></svg>