<svg xmlns="http://www.w3.org/2000/svg" xmlns:xlink="http://www.w3.org/1999/xlink" contentStyleType="text/css" data-diagram-type="SEQUENCE" height="298px" preserveAspectRatio="none" style="width:514px;height:298px;background:#FFFFFF;" version="1.1" viewBox="0 0 514 298" width="514px" zoomAndPan="magnify"><defs/><g><g><title>User</title><rect fill="#000000" fill-opacity="0.00000" height="136.5313" width="8" x="19.9551" y="81.2969"/><line style="stroke:#181818;stroke-width:0.5;stroke-dasharray:5,5;" x1="23" x2="23" y1="81.2969" y2="217.8281"/></g><g><title>Conflict Data</title><rect fill="#000000" fill-opacity="0.00000" height="136.5313" width="8" x="130.7593" y="81.2969"/><line style="stroke:#181818;stroke-width:0.5;stroke-dasharray:5,5;" x1="134.2661" x2="134.2661" y1="81.2969" y2="217.8281"/></g><g><title>Analysis</title><rect fill="#000000" fill-opacity="0.00000" height="136.5313" width="8" x="299.689" y="81.2969"/><line style="stroke:#181818;stroke-width:0.5;stroke-dasharray:5,5;" x1="302.8481" x2="302.8481" y1="81.2969" y2="217.8281"/></g><g><title>HR Reports</title><rect fill="#000000" fill-opacity="0.00000" height="136.5313" width="8" x="458.2402" y="81.2969"/><line style="stroke:#181818;stroke-width:0.5;stroke-dasharray:5,5;" x1="461.7217" x2="461.7217" y1="81.2969" y2="217.8281"/></g><g class="participant participant-head" data-participant="User"><text fill="#000000" font-family="sans-serif" font-size="14" lengthAdjust="spacing" textLength="31.9102" x="5" y="77.9951">User</text><ellipse cx="23.9551" cy="13.5" fill="#E2E2F0" rx="8" ry="8" style="stroke:#181818;stroke-width:0.5;"/><path d="M23.9551,21.5 L23.9551,48.5 M10.9551,29.5 L36.9551,29.5 M23.9551,48.5 L10.9551,63.5 M23.9551,48.5 L36.9551,63.5" fill="none" style="stroke:#181818;stroke-width:0.5;"/></g><g class="participant participant-tail" data-participant="User"><text fill="#000000" font-family="sans-serif" font-size="14" lengthAdjust="spacing" textLength="31.9102" x="5" y="229.8232">User</text><ellipse cx="23.9551" cy="241.625" fill="#E2E2F0" rx="8" ry="8" style="stroke:#181818;stroke-width:0.5;"/><path d="M23.9551,249.625 L23.9551,276.625 M10.9551,257.625 L36.9551,257.625 M23.9551,276.625 L10.9551,291.625 M23.9551,276.625 L36.9551,291.625" fill="none" style="stroke:#181818;stroke-width:0.5;"/></g><g class="participant participant-head" data-participant="CD"><rect fill="#E2E2F0" height="30.2969" rx="2.5" ry="2.5" style="stroke:#181818;stroke-width:0.5;" width="104.9863" x="82.2661" y="50"/><text fill="#000000" font-family="sans-serif" font-size="14" lengthAdjust="spacing" textLength="90.9863" x="89.2661" y="69.9951">Conflict Data</text></g><g class="participant participant-tail" data-participant="CD"><rect fill="#E2E2F0" height="30.2969" rx="2.5" ry="2.5" style="stroke:#181818;stroke-width:0.5;" width="104.9863" x="82.2661" y="216.8281"/><text fill="#000000" font-family="sans-serif" font-size="14" lengthAdjust="spacing" textLength="90.9863" x="89.2661" y="236.8232">Conflict Data</text></g><g class="participant participant-head" data-participant="A"><rect fill="#E2E2F0" height="30.2969" rx="2.5" ry="2.5" style="stroke:#181818;stroke-width:0.5;" width="71.6816" x="267.8481" y="50"/><text fill="#000000" font-family="sans-serif" font-size="14" lengthAdjust="spacing" textLength="57.6816" x="274.8481" y="69.9951">Analysis</text></g><g class="participant participant-tail" data-participant="A"><rect fill="#E2E2F0" height="30.2969" rx="2.5" ry="2.5" style="stroke:#181818;stroke-width:0.5;" width="71.6816" x="267.8481" y="216.8281"/><text fill="#000000" font-family="sans-serif" font-size="14" lengthAdjust="spacing" textLength="57.6816" x="274.8481" y="236.8232">Analysis</text></g><g class="participant participant-head" data-participant="HR"><rect fill="#E2E2F0" height="30.2969" rx="2.5" ry="2.5" style="stroke:#181818;stroke-width:0.5;" width="93.0371" x="415.7217" y="50"/><text fill="#000000" font-family="sans-serif" font-size="14" lengthAdjust="spacing" textLength="79.0371" x="422.7217" y="69.9951">HR Reports</text></g><g class="participant participant-tail" data-participant="HR"><rect fill="#E2E2F0" height="30.2969" rx="2.5" ry="2.5" style="stroke:#181818;stroke-width:0.5;" width="93.0371" x="415.7217" y="216.8281"/><text fill="#000000" font-family="sans-serif" font-size="14" lengthAdjust="spacing" textLength="79.0371" x="422.7217" y="236.8232">HR Reports</text></g><g class="message" data-participant-1="User" data-participant-2="CD"><polygon fill="#181818" points="122.7593,108.4297,132.7593,112.4297,122.7593,116.4297,126.7593,112.4297" style="stroke:#181818;stroke-width:1;"/><line style="stroke:#181818;stroke-width:1;" x1="23.9551" x2="128.7593" y1="112.4297" y2="112.4297"/><text fill="#000000" font-family="sans-serif" font-size="13" lengthAdjust="spacing" textLength="86.8042" x="30.9551" y="107.3638">Request data</text></g><g class="message" data-participant-1="CD" data-participant-2="A"><polygon fill="#181818" points="291.689,137.5625,301.689,141.5625,291.689,145.5625,295.689,141.5625" style="stroke:#181818;stroke-width:1;"/><line style="stroke:#181818;stroke-width:1;" x1="134.7593" x2="297.689" y1="141.5625" y2="141.5625"/><text fill="#000000" font-family="sans-serif" font-size="13" lengthAdjust="spacing" textLength="144.9297" x="141.7593" y="136.4966">Send data for analysis</text></g><g class="message" data-participant-1="A" data-participant-2="HR"><polygon fill="#181818" points="450.2402,166.6953,460.2402,170.6953,450.2402,174.6953,454.2402,170.6953" style="stroke:#181818;stroke-width:1;"/><line style="stroke:#181818;stroke-width:1;" x1="303.689" x2="456.2402" y1="170.6953" y2="170.6953"/><text fill="#000000" font-family="sans-serif" font-size="13" lengthAdjust="spacing" textLength="134.5513" x="310.689" y="165.6294">Generate HR reports</text></g><g class="message" data-participant-1="HR" data-participant-2="User"><polygon fill="#181818" points="34.9551,195.8281,24.9551,199.8281,34.9551,203.8281,30.9551,199.8281" style="stroke:#181818;stroke-width:1;"/><line style="stroke:#181818;stroke-width:1;" x1="28.9551" x2="461.2402" y1="199.8281" y2="199.8281"/><text fill="#000000" font-family="sans-serif" font-size="13" lengthAdjust="spacing" textLength="122.5288" x="40.9551" y="194.7622">Provide HR reports</text></g><!--SRC=[LOun2iCm34Ltd-AJlHVmK309D6DnwG54ee0XsAci5dhxoacNRD9_ukdJf4Nmh2nk8z4qfOsoekjBNjOqAGPIwa0L_N2-29dMRqrrX-7CneZ8Mn4zw1YTQozmkPh66tkzkIfcSxj-Q77mU72UzmYBLQA_teM6n-Xnuyn2ohP03hkpqMXpUzobVD9ymZy0]--></g></svg>