<svg xmlns="http://www.w3.org/2000/svg" xmlns:xlink="http://www.w3.org/1999/xlink" contentStyleType="text/css" data-diagram-type="ACTIVITY" height="406px" preserveAspectRatio="none" style="width:334px;height:406px;background:#FFFFFF;" version="1.1" viewBox="0 0 334 406" width="334px" zoomAndPan="magnify"><defs/><g><ellipse cx="167.2588" cy="20" fill="#222222" rx="10" ry="10" style="stroke:#222222;stroke-width:1;"/><rect fill="#F1F1F1" height="33.9688" rx="12.5" ry="12.5" style="stroke:#181818;stroke-width:0.5;" width="49.3145" x="142.6016" y="50"/><text fill="#000000" font-family="sans-serif" font-size="12" lengthAdjust="spacing" textLength="29.3145" x="152.6016" y="71.1387">Start</text><rect fill="#F1F1F1" height="33.9688" rx="12.5" ry="12.5" style="stroke:#181818;stroke-width:0.5;" width="104.5977" x="114.96" y="103.9688"/><text fill="#000000" font-family="sans-serif" font-size="12" lengthAdjust="spacing" textLength="84.5977" x="124.96" y="125.1074">Add New User</text><rect fill="#F1F1F1" height="33.9688" rx="12.5" ry="12.5" style="stroke:#181818;stroke-width:0.5;" width="240.5352" x="46.9912" y="157.9375"/><text fill="#000000" font-family="sans-serif" font-size="12" lengthAdjust="spacing" textLength="220.5352" x="56.9912" y="179.0762">Assign Roles and Define Permissions</text><rect fill="#F1F1F1" height="33.9688" rx="12.5" ry="12.5" style="stroke:#181818;stroke-width:0.5;" width="168.0313" x="83.2432" y="211.9063"/><text fill="#000000" font-family="sans-serif" font-size="12" lengthAdjust="spacing" textLength="148.0313" x="93.2432" y="233.0449">Link User to Department</text><rect fill="#F1F1F1" height="33.9688" rx="12.5" ry="12.5" style="stroke:#181818;stroke-width:0.5;" width="149.873" x="92.3223" y="265.875"/><text fill="#000000" font-family="sans-serif" font-size="12" lengthAdjust="spacing" textLength="129.873" x="102.3223" y="287.0137">Store Account Details</text><rect fill="#F1F1F1" height="33.9688" rx="12.5" ry="12.5" style="stroke:#181818;stroke-width:0.5;" width="312.5176" x="11" y="319.8438"/><text fill="#000000" font-family="sans-serif" font-size="12" lengthAdjust="spacing" textLength="292.5176" x="21" y="340.9824">Periodic Review for Governance and Compliance</text><ellipse cx="167.2588" cy="384.8125" fill="none" rx="11" ry="11" style="stroke:#222222;stroke-width:1;"/><ellipse cx="167.2588" cy="384.8125" fill="#222222" rx="6" ry="6" style="stroke:#222222;stroke-width:1;"/><line style="stroke:#181818;stroke-width:1;" x1="167.2588" x2="167.2588" y1="30" y2="50"/><polygon fill="#181818" points="163.2588,40,167.2588,50,171.2588,40,167.2588,44" style="stroke:#181818;stroke-width:1;"/><line style="stroke:#181818;stroke-width:1;" x1="167.2588" x2="167.2588" y1="83.9688" y2="103.9688"/><polygon fill="#181818" points="163.2588,93.9688,167.2588,103.9688,171.2588,93.9688,167.2588,97.9688" style="stroke:#181818;stroke-width:1;"/><line style="stroke:#181818;stroke-width:1;" x1="167.2588" x2="167.2588" y1="137.9375" y2="157.9375"/><polygon fill="#181818" points="163.2588,147.9375,167.2588,157.9375,171.2588,147.9375,167.2588,151.9375" style="stroke:#181818;stroke-width:1;"/><line style="stroke:#181818;stroke-width:1;" x1="167.2588" x2="167.2588" y1="191.9063" y2="211.9063"/><polygon fill="#181818" points="163.2588,201.9063,167.2588,211.9063,171.2588,201.9063,167.2588,205.9063" style="stroke:#181818;stroke-width:1;"/><line style="stroke:#181818;stroke-width:1;" x1="167.2588" x2="167.2588" y1="245.875" y2="265.875"/><polygon fill="#181818" points="163.2588,255.875,167.2588,265.875,171.2588,255.875,167.2588,259.875" style="stroke:#181818;stroke-width:1;"/><line style="stroke:#181818;stroke-width:1;" x1="167.2588" x2="167.2588" y1="299.8438" y2="319.8438"/><polygon fill="#181818" points="163.2588,309.8438,167.2588,319.8438,171.2588,309.8438,167.2588,313.8438" style="stroke:#181818;stroke-width:1;"/><line style="stroke:#181818;stroke-width:1;" x1="167.2588" x2="167.2588" y1="353.8125" y2="373.8125"/><polygon fill="#181818" points="163.2588,363.8125,167.2588,373.8125,171.2588,363.8125,167.2588,367.8125" style="stroke:#181818;stroke-width:1;"/><!--SRC=[7Ot12iCm34Fl-Gf_Htig6-moncZP1uJ47MQ97MAl-_qvFGaXFKajTWjXseREOLfoXWV-uANOXrMbDyCg1HKYPxZYJepmn5x9Cs7rrftuSn9WuetcKnLvp6qc7M59IRvi7bcaCWZdIJ8bMF4WlzkbmqqEx1mvuVbqaTeA3Jk7e2Rj3m00]--></g></svg>