<svg xmlns="http://www.w3.org/2000/svg" xmlns:xlink="http://www.w3.org/1999/xlink" contentStyleType="text/css" data-diagram-type="DESCRIPTION" height="217px" preserveAspectRatio="none" style="width:2407px;height:217px;background:#FFFFFF;" version="1.1" viewBox="0 0 2407 217" width="2407px" zoomAndPan="magnify"><defs/><g><!--entity BusinessAnalyst--><g class="entity" data-entity="BusinessAnalyst" data-source-line="1" data-uid="ent0002" id="entity_BusinessAnalyst"><ellipse cx="383.6841" cy="14" fill="#F1F1F1" rx="8" ry="8" style="stroke:#181818;stroke-width:0.5;"/><path d="M383.6841,22 L383.6841,49 M370.6841,30 L396.6841,30 M383.6841,49 L370.6841,64 M383.6841,49 L396.6841,64" fill="none" style="stroke:#181818;stroke-width:0.5;"/><text fill="#000000" font-family="sans-serif" font-size="14" lengthAdjust="spacing" textLength="183.9482" x="291.71" y="78.4951">&#1605;&#1581;&#1604;&#1604; &#1578;&#1591;&#1608;&#1610;&#1585; &#1575;&#1604;&#1571;&#1593;&#1605;&#1575;&#1604;/&#1575;&#1604;&#1605;&#1606;&#1575;&#1602;&#1589;&#1575;&#1578;</text></g><!--entity SystemAdmin--><g class="entity" data-entity="SystemAdmin" data-source-line="2" data-uid="ent0003" id="entity_SystemAdmin"><ellipse cx="1664.6907" cy="14" fill="#F1F1F1" rx="8" ry="8" style="stroke:#181818;stroke-width:0.5;"/><path d="M1664.6907,22 L1664.6907,49 M1651.6907,30 L1677.6907,30 M1664.6907,49 L1651.6907,64 M1664.6907,49 L1677.6907,64" fill="none" style="stroke:#181818;stroke-width:0.5;"/><text fill="#000000" font-family="sans-serif" font-size="14" lengthAdjust="spacing" textLength="85.4014" x="1621.99" y="78.4951">&#1605;&#1587;&#1572;&#1608;&#1604; &#1575;&#1604;&#1606;&#1592;&#1575;&#1605;</text></g><!--entity EtimadPlatform--><g class="entity" data-entity="EtimadPlatform" data-source-line="3" data-uid="ent0004" id="entity_EtimadPlatform"><ellipse cx="2154.692" cy="14" fill="#F1F1F1" rx="8" ry="8" style="stroke:#181818;stroke-width:0.5;"/><path d="M2154.692,22 L2154.692,49 M2141.692,30 L2167.692,30 M2154.692,49 L2141.692,64 M2154.692,49 L2167.692,64" fill="none" style="stroke:#181818;stroke-width:0.5;"/><text fill="#000000" font-family="sans-serif" font-size="14" lengthAdjust="spacing" textLength="135.584" x="2086.9" y="78.4951">&#1605;&#1606;&#1589;&#1577; &#1575;&#1593;&#1578;&#1605;&#1575;&#1583; (Etimad)</text></g><!--entity UC_SyncProfile--><g class="entity" data-entity="UC_SyncProfile" data-source-line="5" data-uid="ent0005" id="entity_UC_SyncProfile"><ellipse cx="480.6851" cy="185.249" fill="#F1F1F1" rx="82.2951" ry="18.859" style="stroke:#181818;stroke-width:0.5;"/><text fill="#000000" font-family="sans-serif" font-size="14" lengthAdjust="spacing" textLength="136.0557" x="412.6573" y="189.8975">Sync Etimad Profile</text></g><!--entity UC_FetchTenders--><g class="entity" data-entity="UC_FetchTenders" data-source-line="6" data-uid="ent0006" id="entity_UC_FetchTenders"><ellipse cx="90.6886" cy="185.2477" fill="#F1F1F1" rx="84.6886" ry="19.3377" style="stroke:#181818;stroke-width:0.5;"/><text fill="#000000" font-family="sans-serif" font-size="14" lengthAdjust="spacing" textLength="141.6064" x="19.8853" y="189.8962">Fetch Open Tenders</text></g><!--entity UC_ViewReadiness--><g class="entity" data-entity="UC_ViewReadiness" data-source-line="7" data-uid="ent0007" id="entity_UC_ViewReadiness"><ellipse cx="711.6858" cy="185.2512" fill="#F1F1F1" rx="114.1058" ry="25.2212" style="stroke:#181818;stroke-width:0.5;"/><text fill="#000000" font-family="sans-serif" font-size="14" lengthAdjust="spacing" textLength="206.7324" x="608.3196" y="189.8996">View Tender Readiness Index</text></g><!--entity UC_RunGapAnalysis--><g class="entity" data-entity="UC_RunGapAnalysis" data-source-line="8" data-uid="ent0008" id="entity_UC_RunGapAnalysis"><ellipse cx="286.6888" cy="185.2518" fill="#F1F1F1" rx="76.5088" ry="17.7018" style="stroke:#181818;stroke-width:0.5;"/><text fill="#000000" font-family="sans-serif" font-size="14" lengthAdjust="spacing" textLength="122.3701" x="225.5037" y="189.9002">Run Gap Analysis</text></g><!--entity UC_ConfigureCredentials--><g class="entity" data-entity="UC_ConfigureCredentials" data-source-line="9" data-uid="ent0009" id="entity_UC_ConfigureCredentials"><ellipse cx="1558.6879" cy="185.2476" fill="#F1F1F1" rx="113.7879" ry="25.1576" style="stroke:#181818;stroke-width:0.5;"/><text fill="#000000" font-family="sans-serif" font-size="14" lengthAdjust="spacing" textLength="206.0488" x="1455.6635" y="189.896">Configure Etimad Credentials</text></g><!--entity UC_ManageAccess--><g class="entity" data-entity="UC_ManageAccess" data-source-line="10" data-uid="ent0010" id="entity_UC_ManageAccess"><ellipse cx="1801.6895" cy="185.2499" fill="#F1F1F1" rx="93.9495" ry="21.1899" style="stroke:#181818;stroke-width:0.5;"/><text fill="#000000" font-family="sans-serif" font-size="14" lengthAdjust="spacing" textLength="162.627" x="1720.376" y="189.8983">Manage Access Scopes</text></g><!--entity UC_ProvideProfile--><g class="entity" data-entity="UC_ProvideProfile" data-source-line="11" data-uid="ent0011" id="entity_UC_ProvideProfile"><ellipse cx="2028.6945" cy="185.2549" fill="#F1F1F1" rx="98.1745" ry="22.0349" style="stroke:#181818;stroke-width:0.5;"/><text fill="#000000" font-family="sans-serif" font-size="14" lengthAdjust="spacing" textLength="172.0264" x="1942.6814" y="189.9033">Provide Company Profile</text></g><!--entity UC_ProvideTenders--><g class="entity" data-entity="UC_ProvideTenders" data-source-line="12" data-uid="ent0012" id="entity_UC_ProvideTenders"><ellipse cx="2281.6883" cy="185.2517" fill="#F1F1F1" rx="120.2583" ry="26.4517" style="stroke:#181818;stroke-width:0.5;"/><text fill="#000000" font-family="sans-serif" font-size="14" lengthAdjust="spacing" textLength="219.9053" x="2171.7357" y="189.9001">Provide Tenders and Outcomes</text></g><!--entity UC_ViewCalendar--><g class="entity" data-entity="UC_ViewCalendar" data-source-line="13" data-uid="ent0013" id="entity_UC_ViewCalendar"><ellipse cx="1296.695" cy="185.245" fill="#F1F1F1" rx="113.575" ry="25.115" style="stroke:#181818;stroke-width:0.5;"/><text fill="#000000" font-family="sans-serif" font-size="14" lengthAdjust="spacing" textLength="205.5908" x="1193.8996" y="189.8934">View Calendar and Deadlines</text></g><!--entity UC_GenerateRecommendations--><g class="entity" data-entity="UC_GenerateRecommendations" data-source-line="14" data-uid="ent0014" id="entity_UC_GenerateRecommendations"><ellipse cx="1036.6916" cy="185.2483" fill="#F1F1F1" rx="111.3416" ry="24.6683" style="stroke:#181818;stroke-width:0.5;"/><text fill="#000000" font-family="sans-serif" font-size="14" lengthAdjust="spacing" textLength="200.7783" x="936.3025" y="189.8968">Generate Recommendations</text></g><!--link BusinessAnalyst to UC_SyncProfile--><g class="link" data-entity-1="BusinessAnalyst" data-entity-2="UC_SyncProfile" data-source-line="16" data-uid="lnk15" id="link_BusinessAnalyst_UC_SyncProfile"><path d="M409.68,82.06 C428.65,109.36 450.0963,140.2227 464.8063,161.3927" fill="none" id="BusinessAnalyst-to-UC_SyncProfile" style="stroke:#181818;stroke-width:1;"/><polygon fill="#181818" points="468.23,166.32,466.3793,156.6466,465.3769,162.2139,459.8096,161.2116,468.23,166.32" style="stroke:#181818;stroke-width:1;"/></g><!--link BusinessAnalyst to UC_FetchTenders--><g class="link" data-entity-1="BusinessAnalyst" data-entity-2="UC_FetchTenders" data-source-line="17" data-uid="lnk16" id="link_BusinessAnalyst_UC_FetchTenders"><path d="M304.78,82.24 C246.65,109.94 175.7365,143.729 131.6865,164.719" fill="none" id="BusinessAnalyst-to-UC_FetchTenders" style="stroke:#181818;stroke-width:1;"/><polygon fill="#181818" points="126.27,167.3,136.1154,167.0395,130.7838,165.1492,132.6741,159.8175,126.27,167.3" style="stroke:#181818;stroke-width:1;"/></g><!--link BusinessAnalyst to UC_ViewReadiness--><g class="link" data-entity-1="BusinessAnalyst" data-entity-2="UC_ViewReadiness" data-source-line="18" data-uid="lnk17" id="link_BusinessAnalyst_UC_ViewReadiness"><path d="M472.02,82.24 C532.36,107.92 604.6794,138.7 654.9994,160.12" fill="none" id="BusinessAnalyst-to-UC_ViewReadiness" style="stroke:#181818;stroke-width:1;"/><polygon fill="#181818" points="660.52,162.47,653.8057,155.2646,655.9195,160.5117,650.6724,162.6254,660.52,162.47" style="stroke:#181818;stroke-width:1;"/></g><!--link BusinessAnalyst to UC_RunGapAnalysis--><g class="link" data-entity-1="BusinessAnalyst" data-entity-2="UC_RunGapAnalysis" data-source-line="19" data-uid="lnk18" id="link_BusinessAnalyst_UC_RunGapAnalysis"><path d="M357.69,82.06 C338.39,109.84 316.3928,141.4921 301.7928,162.5121" fill="none" id="BusinessAnalyst-to-UC_RunGapAnalysis" style="stroke:#181818;stroke-width:1;"/><polygon fill="#181818" points="298.37,167.44,306.7895,162.33,301.2223,163.3334,300.2189,157.7663,298.37,167.44" style="stroke:#181818;stroke-width:1;"/></g><!--link SystemAdmin to UC_ConfigureCredentials--><g class="link" data-entity-1="SystemAdmin" data-entity-2="UC_ConfigureCredentials" data-source-line="21" data-uid="lnk19" id="link_SystemAdmin_UC_ConfigureCredentials"><path d="M1636.28,82.06 C1617.52,106.77 1597.0998,133.6725 1580.7798,155.1525" fill="none" id="SystemAdmin-to-UC_ConfigureCredentials" style="stroke:#181818;stroke-width:1;"/><polygon fill="#181818" points="1577.15,159.93,1585.7797,155.1837,1580.1749,155.9488,1579.4097,150.3439,1577.15,159.93" style="stroke:#181818;stroke-width:1;"/></g><!--link SystemAdmin to UC_ManageAccess--><g class="link" data-entity-1="SystemAdmin" data-entity-2="UC_ManageAccess" data-source-line="22" data-uid="lnk20" id="link_SystemAdmin_UC_ManageAccess"><path d="M1701.4,82.06 C1727.4,108.55 1757.0476,138.7575 1778.0076,160.1175" fill="none" id="SystemAdmin-to-UC_ManageAccess" style="stroke:#181818;stroke-width:1;"/><polygon fill="#181818" points="1782.21,164.4,1778.7615,155.1746,1778.708,160.8312,1773.0514,160.7777,1782.21,164.4" style="stroke:#181818;stroke-width:1;"/></g><!--link EtimadPlatform to UC_ProvideProfile--><g class="link" data-entity-1="EtimadPlatform" data-entity-2="UC_ProvideProfile" data-source-line="24" data-uid="lnk21" id="link_EtimadPlatform_UC_ProvideProfile"><path d="M2120.92,82.06 C2097.45,108.06 2071.04,137.3258 2051.69,158.7658" fill="none" id="EtimadPlatform-to-UC_ProvideProfile" style="stroke:#181818;stroke-width:1;"/><polygon fill="#181818" points="2047.67,163.22,2056.6694,159.2187,2051.02,159.5082,2050.7305,153.8587,2047.67,163.22" style="stroke:#181818;stroke-width:1;"/></g><!--link EtimadPlatform to UC_ProvideTenders--><g class="link" data-entity-1="EtimadPlatform" data-entity-2="UC_ProvideTenders" data-source-line="25" data-uid="lnk22" id="link_EtimadPlatform_UC_ProvideTenders"><path d="M2188.72,82.06 C2210.91,106.45 2235.2326,133.1816 2254.7626,154.6516" fill="none" id="EtimadPlatform-to-UC_ProvideTenders" style="stroke:#181818;stroke-width:1;"/><polygon fill="#181818" points="2258.8,159.09,2255.7029,149.7408,2255.4355,155.3913,2249.785,155.1239,2258.8,159.09" style="stroke:#181818;stroke-width:1;"/></g><!--link UC_SyncProfile to UC_ConfigureCredentials--><g class="link" data-entity-1="UC_SyncProfile" data-entity-2="UC_ConfigureCredentials" data-source-line="27" data-uid="lnk23" id="link_UC_SyncProfile_UC_ConfigureCredentials"><path d="M530.37,169.84 C546.01,165.57 563.44,161.4 579.69,158.8 C735.36,133.89 1131.56,104.73 1288.19,122.62 C1357.87,130.58 1429.9483,148.1262 1484.1683,163.1662" fill="none" id="UC_SyncProfile-to-UC_ConfigureCredentials" style="stroke:#181818;stroke-width:1;stroke-dasharray:7,7;"/><polygon fill="#181818" points="1489.95,164.77,1482.3467,158.5099,1485.1319,163.4335,1480.2083,166.2188,1489.95,164.77" style="stroke:#181818;stroke-width:1;"/><text fill="#000000" font-family="sans-serif" font-size="13" lengthAdjust="spacing" textLength="63.0068" x="1224.19" y="124.8669">&#171;include&#187;</text></g><!--link UC_SyncProfile to UC_ManageAccess--><g class="link" data-entity-1="UC_SyncProfile" data-entity-2="UC_ManageAccess" data-source-line="28" data-uid="lnk24" id="link_UC_SyncProfile_UC_ManageAccess"><path d="M532.85,170.24 C547.89,166.2 564.38,162.06 579.69,158.8 C679.4,137.57 704.57,130.69 806.19,122.62 C1002.07,107.08 1495.06,131.76 1689.69,158.8 C1706.51,161.13 1718.6709,163.4497 1735.2109,167.3597" fill="none" id="UC_SyncProfile-to-UC_ManageAccess" style="stroke:#181818;stroke-width:1;stroke-dasharray:7,7;"/><polygon fill="#181818" points="1741.05,168.74,1733.2116,162.7768,1736.1841,167.5897,1731.3712,170.5622,1741.05,168.74" style="stroke:#181818;stroke-width:1;"/><text fill="#000000" font-family="sans-serif" font-size="13" lengthAdjust="spacing" textLength="63.0068" x="807.19" y="124.8669">&#171;include&#187;</text></g><!--link UC_ViewReadiness to UC_ViewCalendar--><g class="link" data-entity-1="UC_ViewReadiness" data-entity-2="UC_ViewCalendar" data-source-line="30" data-uid="lnk25" id="link_UC_ViewReadiness_UC_ViewCalendar"><path d="M771.1,163.28 C840.43,140.27 958.65,109.22 1061.19,122.62 C1120.97,130.43 1181.4407,147.1362 1228.3907,162.0262" fill="none" id="UC_ViewReadiness-to-UC_ViewCalendar" style="stroke:#181818;stroke-width:1;stroke-dasharray:7,7;"/><polygon fill="#181818" points="1234.11,163.84,1226.7403,157.3064,1229.3439,162.3285,1224.3219,164.9321,1234.11,163.84" style="stroke:#181818;stroke-width:1;"/><text fill="#000000" font-family="sans-serif" font-size="13" lengthAdjust="spacing" textLength="61.1851" x="999.19" y="124.8669">&#171;extend&#187;</text></g><!--link UC_ViewReadiness to UC_GenerateRecommendations--><g class="link" data-entity-1="UC_ViewReadiness" data-entity-2="UC_GenerateRecommendations" data-source-line="31" data-uid="lnk26" id="link_UC_ViewReadiness_UC_GenerateRecommendations"><path d="M826.27,185.25 C858.34,185.25 887.15,185.25 919.05,185.25" fill="none" id="UC_ViewReadiness-to-UC_GenerateRecommendations" style="stroke:#181818;stroke-width:1;stroke-dasharray:7,7;"/><polygon fill="#181818" points="925.05,185.25,916.05,181.25,920.05,185.25,916.05,189.25,925.05,185.25" style="stroke:#181818;stroke-width:1;"/><text fill="#000000" font-family="sans-serif" font-size="13" lengthAdjust="spacing" textLength="63.0068" x="844.07" y="178.3169">&#171;include&#187;</text></g><!--SRC=[VPFFQjmm4CRlUefXJ-qXwRs4XQtJXXvAGhRDjGpoR2gmvSMMs-orx9QIrsWXP264K4ARDv7VfkC_icpNxiL_vljz6kaR6wL9KfWLEtjNR8ijsBtzNNmlhkq3s9jYQt_O9zRuwKLvANR5Dxv_jO_snkvdW1cyoZEbASiM6gDDPWIs2_woFtcbRRKEs_xmVLTPbinHl0XZfJtEnAEzPTW-sNtPqjx3izT6nHW-hrpryrc4PfMaiH1vHX8pWjboesMZmbcQh5H4bU53yB6KcfBdtv2Hd-1qJHhUamufpHnUAKtDynUAlZGad1E6rN7XBRzVEME9j99tdkSQJd0DTJQgxSDrBhkgvuD4hzHbdf8xJf1IIDeeZ5flotGqly8xr7X9i92otEDI9cjgdRLMIzx1yNnM8K6Gn6lKcs62ZVnFYCxMf0MeGpZDZKnYtx1XnWCDCE8wffNpcBEBol2wWJh26qz8Kug6U0pSA2vLenBTkfm-a8KOVAHmS30VVXuJIE-Jc63wqv-01ZCNdP_08QEZ7U5wWnJz_y8nWxdz5tB74_r8u71oL_0IZewKbb4Uqdm-xklkSi2BOMYDfJlroa9NXb_g3cE6YO7ts_q5]--></g></svg>