<svg xmlns="http://www.w3.org/2000/svg" xmlns:xlink="http://www.w3.org/1999/xlink" contentStyleType="text/css" data-diagram-type="DESCRIPTION" height="393px" preserveAspectRatio="none" style="width:1542px;height:393px;background:#FFFFFF;" version="1.1" viewBox="0 0 1542 393" width="1542px" zoomAndPan="magnify"><defs/><g><!--entity DevOps--><g class="entity" data-entity="DevOps" data-source-line="1" data-uid="ent0002" id="entity_DevOps"><ellipse cx="79.3906" cy="167.3" fill="#F1F1F1" rx="8" ry="8" style="stroke:#181818;stroke-width:0.5;"/><path d="M79.3906,175.3 L79.3906,202.3 M66.3906,183.3 L92.3906,183.3 M79.3906,202.3 L66.3906,217.3 M79.3906,202.3 L92.3906,217.3" fill="none" style="stroke:#181818;stroke-width:0.5;"/><text fill="#000000" font-family="sans-serif" font-size="14" lengthAdjust="spacing" textLength="146.7813" x="6" y="231.7951">&#1605;&#1607;&#1606;&#1583;&#1587; &#1575;&#1604;&#1605;&#1606;&#1589;&#1617;&#1577;/DevOps</text></g><!--entity SysAdmin--><g class="entity" data-entity="SysAdmin" data-source-line="2" data-uid="ent0003" id="entity_SysAdmin"><ellipse cx="1235.3907" cy="14" fill="#F1F1F1" rx="8" ry="8" style="stroke:#181818;stroke-width:0.5;"/><path d="M1235.3907,22 L1235.3907,49 M1222.3907,30 L1248.3907,30 M1235.3907,49 L1222.3907,64 M1235.3907,49 L1248.3907,64" fill="none" style="stroke:#181818;stroke-width:0.5;"/><text fill="#000000" font-family="sans-serif" font-size="14" lengthAdjust="spacing" textLength="85.4014" x="1192.69" y="78.4951">&#1605;&#1587;&#1572;&#1608;&#1604; &#1575;&#1604;&#1606;&#1592;&#1575;&#1605;</text></g><!--entity DataScientist--><g class="entity" data-entity="DataScientist" data-source-line="3" data-uid="ent0004" id="entity_DataScientist"><ellipse cx="1259.3883" cy="320.59" fill="#F1F1F1" rx="8" ry="8" style="stroke:#181818;stroke-width:0.5;"/><path d="M1259.3883,328.59 L1259.3883,355.59 M1246.3883,336.59 L1272.3883,336.59 M1259.3883,355.59 L1246.3883,370.59 M1259.3883,355.59 L1272.3883,370.59" fill="none" style="stroke:#181818;stroke-width:0.5;"/><text fill="#000000" font-family="sans-serif" font-size="14" lengthAdjust="spacing" textLength="156.0166" x="1181.38" y="385.0851">&#1593;&#1575;&#1604;&#1605; &#1575;&#1604;&#1576;&#1610;&#1575;&#1606;&#1575;&#1578;/&#1605;&#1581;&#1604;&#1604; &#1575;&#1604;&#1576;&#1610;&#1575;&#1606;&#1575;&#1578;</text></g><!--entity U1--><g class="entity" data-entity="U1" data-source-line="5" data-uid="ent0005" id="entity_U1"><ellipse cx="1278.39" cy="196.938" fill="#F1F1F1" rx="142.29" ry="30.858" style="stroke:#181818;stroke-width:0.5;"/><text fill="#000000" font-family="sans-serif" font-size="14" lengthAdjust="spacing" textLength="266.3965" x="1145.1917" y="201.5864">Monitor Ingestion and Model Pipelines</text></g><!--entity U2--><g class="entity" data-entity="U2" data-source-line="6" data-uid="ent0006" id="entity_U2"><ellipse cx="992.3887" cy="196.9357" fill="#F1F1F1" rx="108.4787" ry="24.0957" style="stroke:#181818;stroke-width:0.5;"/><text fill="#000000" font-family="sans-serif" font-size="14" lengthAdjust="spacing" textLength="194.585" x="895.0962" y="201.5842">Handle Third-Party Outages</text></g><!--entity U3--><g class="entity" data-entity="U3" data-source-line="7" data-uid="ent0007" id="entity_U3"><ellipse cx="747.3943" cy="196.9369" fill="#F1F1F1" rx="101.9343" ry="22.7869" style="stroke:#181818;stroke-width:0.5;"/><text fill="#000000" font-family="sans-serif" font-size="14" lengthAdjust="spacing" textLength="180.3115" x="657.2385" y="201.5853">Trigger Retry and Backoff</text></g><!--entity U4--><g class="entity" data-entity="U4" data-source-line="8" data-uid="ent0008" id="entity_U4"><ellipse cx="504.3879" cy="196.9356" fill="#F1F1F1" rx="106.0279" ry="23.6056" style="stroke:#181818;stroke-width:0.5;"/><text fill="#000000" font-family="sans-serif" font-size="14" lengthAdjust="spacing" textLength="189.2598" x="409.758" y="201.584">Scale Services Horizontally</text></g><!--entity U5--><g class="entity" data-entity="U5" data-source-line="9" data-uid="ent0009" id="entity_U5"><ellipse cx="275.39" cy="196.94" fill="#F1F1F1" rx="88.1" ry="20.02" style="stroke:#181818;stroke-width:0.5;"/><text fill="#000000" font-family="sans-serif" font-size="14" lengthAdjust="spacing" textLength="149.4268" x="200.6766" y="201.5884">Rollback Deployment</text></g><!--entity U6--><g class="entity" data-entity="U6" data-source-line="10" data-uid="ent0010" id="entity_U6"><ellipse cx="1415.3867" cy="43.6533" fill="#F1F1F1" rx="102.7167" ry="22.9433" style="stroke:#181818;stroke-width:0.5;"/><text fill="#000000" font-family="sans-serif" font-size="14" lengthAdjust="spacing" textLength="182.0273" x="1324.373" y="48.3018">Configure Alerts and SLAs</text></g><!--entity U7--><g class="entity" data-entity="U7" data-source-line="11" data-uid="ent0011" id="entity_U7"><ellipse cx="1454.3911" cy="350.2382" fill="#F1F1F1" rx="81.8411" ry="18.7682" style="stroke:#181818;stroke-width:0.5;"/><text fill="#000000" font-family="sans-serif" font-size="14" lengthAdjust="spacing" textLength="134.9961" x="1386.893" y="354.8866">Monitor Model Drift</text></g><!--entity U8--><g class="entity" data-entity="U8" data-source-line="12" data-uid="ent0012" id="entity_U8"><ellipse cx="992.3924" cy="350.2385" fill="#F1F1F1" rx="116.8424" ry="25.7685" style="stroke:#181818;stroke-width:0.5;"/><text fill="#000000" font-family="sans-serif" font-size="14" lengthAdjust="spacing" textLength="212.6045" x="886.0902" y="354.8869">Activate Graceful Degradation</text></g><!--link DevOps to U1--><g class="link" data-entity-1="DevOps" data-entity-2="U1" data-source-line="14" data-uid="lnk13" id="link_DevOps_U1"><path d="M120.46,158.49 C139.23,143.49 162.66,128.05 186.89,120.3 C283.61,89.34 1001.44,99.74 1100.89,120.3 C1145.27,129.47 1186.8585,147.5472 1221.3185,165.1772" fill="none" id="DevOps-to-U1" style="stroke:#181818;stroke-width:1;"/><polygon fill="#181818" points="1226.66,167.91,1220.4695,160.2498,1222.2087,165.6327,1216.8259,167.3719,1226.66,167.91" style="stroke:#181818;stroke-width:1;"/></g><!--link DevOps to U2--><g class="link" data-entity-1="DevOps" data-entity-2="U2" data-source-line="15" data-uid="lnk14" id="link_DevOps_U2"><path d="M120.46,158.49 C139.23,143.49 162.66,128.05 186.89,120.3 C327,75.46 706.18,84.57 848.89,120.3 C889.85,130.55 926.9122,151.6501 954.8222,170.1901" fill="none" id="DevOps-to-U2" style="stroke:#181818;stroke-width:1;"/><polygon fill="#181818" points="959.82,173.51,954.5366,165.1982,955.6552,170.7434,950.11,171.862,959.82,173.51" style="stroke:#181818;stroke-width:1;"/></g><!--link DevOps to U3--><g class="link" data-entity-1="DevOps" data-entity-2="U3" data-source-line="16" data-uid="lnk15" id="link_DevOps_U3"><path d="M120.46,158.49 C139.23,143.49 162.66,128.05 186.89,120.3 C276.63,91.58 519.73,96.45 610.89,120.3 C650.99,130.78 686.8489,152.519 713.2589,171.169" fill="none" id="DevOps-to-U3" style="stroke:#181818;stroke-width:1;"/><polygon fill="#181818" points="718.16,174.63,713.1157,166.171,714.0757,171.7458,708.5009,172.7059,718.16,174.63" style="stroke:#181818;stroke-width:1;"/></g><!--link DevOps to U4--><g class="link" data-entity-1="DevOps" data-entity-2="U4" data-source-line="17" data-uid="lnk16" id="link_DevOps_U4"><path d="M120.46,158.49 C139.23,143.49 162.66,128.05 186.89,120.3 C261.81,96.32 287.66,100.86 363.89,120.3 C404.55,130.66 441.1632,152.0891 468.4332,170.6891" fill="none" id="DevOps-to-U4" style="stroke:#181818;stroke-width:1;"/><polygon fill="#181818" points="473.39,174.07,468.2087,165.6942,469.2593,171.2526,463.7009,172.3032,473.39,174.07" style="stroke:#181818;stroke-width:1;"/></g><!--link DevOps to U5--><g class="link" data-entity-1="DevOps" data-entity-2="U5" data-source-line="18" data-uid="lnk17" id="link_DevOps_U5"><path d="M153.27,196.94 C164.56,196.94 169.85,196.94 181.14,196.94" fill="none" id="DevOps-to-U5" style="stroke:#181818;stroke-width:1;"/><polygon fill="#181818" points="187.14,196.94,178.14,192.94,182.14,196.94,178.14,200.94,187.14,196.94" style="stroke:#181818;stroke-width:1;"/></g><!--link SysAdmin to U6--><g class="link" data-entity-1="SysAdmin" data-entity-2="U6" data-source-line="20" data-uid="lnk18" id="link_SysAdmin_U6"><path d="M1278.28,43.65 C1289.62,43.65 1294.95,43.65 1306.29,43.65" fill="none" id="SysAdmin-to-U6" style="stroke:#181818;stroke-width:1;"/><polygon fill="#181818" points="1312.29,43.65,1303.29,39.65,1307.29,43.65,1303.29,47.65,1312.29,43.65" style="stroke:#181818;stroke-width:1;"/></g><!--link DataScientist to U7--><g class="link" data-entity-1="DataScientist" data-entity-2="U7" data-source-line="22" data-uid="lnk19" id="link_DataScientist_U7"><path d="M1337.85,350.24 C1349.38,350.24 1354.91,350.24 1366.45,350.24" fill="none" id="DataScientist-to-U7" style="stroke:#181818;stroke-width:1;"/><polygon fill="#181818" points="1372.45,350.24,1363.45,346.24,1367.45,350.24,1363.45,354.24,1372.45,350.24" style="stroke:#181818;stroke-width:1;"/></g><!--reverse link U1 to U7--><g class="link" data-entity-1="U1" data-entity-2="U7" data-source-line="24" data-uid="lnk20" id="link_U1_U7"><path d="M1325.9806,238.8529 C1362.1406,269.9329 1404.53,306.38 1434.27,331.94" fill="none" id="U1-backto-U7" style="stroke:#181818;stroke-width:1;"/><polygon fill="none" points="1312.33,227.12,1322.0697,243.4031,1329.8916,234.3027,1312.33,227.12" style="stroke:#181818;stroke-width:1;"/><text fill="#000000" font-family="sans-serif" font-size="13" lengthAdjust="spacing" textLength="63.0068" x="1372.67" y="278.1569">&#171;include&#187;</text></g><!--reverse link U2 to U8--><g class="link" data-entity-1="U2" data-entity-2="U8" data-source-line="25" data-uid="lnk21" id="link_U2_U8"><path d="M992.39,239.25 C992.39,267.1 992.39,295.52 992.39,324.14" fill="none" id="U2-backto-U8" style="stroke:#181818;stroke-width:1;"/><polygon fill="none" points="992.39,221.25,986.39,239.25,998.39,239.25,992.39,221.25" style="stroke:#181818;stroke-width:1;"/><text fill="#000000" font-family="sans-serif" font-size="13" lengthAdjust="spacing" textLength="61.1851" x="993.39" y="278.1569">&#171;extend&#187;</text></g><!--reverse link U6 to U1--><g class="link" data-entity-1="U6" data-entity-2="U1" data-source-line="27" data-uid="lnk22" id="link_U6_U1"><path d="M1383.3892,79.9937 C1359.5692,106.3037 1331.68,137.1 1305.17,166.37" fill="none" id="U6-backto-U1" style="stroke:#181818;stroke-width:1;"/><polygon fill="none" points="1395.47,66.65,1378.9413,75.9667,1387.8371,84.0206,1395.47,66.65" style="stroke:#181818;stroke-width:1;"/><text fill="#000000" font-family="sans-serif" font-size="13" lengthAdjust="spacing" textLength="63.0068" x="1352" y="124.8669">&#171;include&#187;</text></g><!--reverse link U6 to U7--><g class="link" data-entity-1="U6" data-entity-2="U7" data-source-line="28" data-uid="lnk23" id="link_U6_U7"><path d="M1424.665,84.3765 C1429.905,107.2765 1433.81,126.57 1438.39,158.8 C1447.34,221.7 1451.85,297.06 1453.56,331.04" fill="none" id="U6-backto-U7" style="stroke:#181818;stroke-width:1;"/><polygon fill="none" points="1420.65,66.83,1418.8162,85.7148,1430.5138,83.0382,1420.65,66.83" style="stroke:#181818;stroke-width:1;"/><text fill="#000000" font-family="sans-serif" font-size="13" lengthAdjust="spacing" textLength="63.0068" x="1447.87" y="201.5069">&#171;include&#187;</text></g><!--SRC=[RP7DIWCn58NtUOfBzqLQRHKfXMf11KLnx0F4p9qn69EIP8eZBciLTxw3u0-82n7qJJ9lOpffcK5T9IVdkoV9lPHPfQ5Ht1ItnSozkmzmJyNKovdxB1xSoyeG9uTZqm1g86m9NPQu3_TOt1NJK39pNtwzASaeDuFuWiibwxv3Qacwv-BUhpFtv5vNVCgRTwP_d70ZjJHY7ANbnXAI6MJK83GEbEJpu3sPeh5SIQ0oXWCLeu0ZFaR19OOtZrfLrQw71CB96TTnyuXgcyDXPccwHDiLUg9vcgA6OxGwByEtA3jNIHB8rOgC6FMP4Ue9PsXWLsb-fQIbGkI1NQlOOoN4gS_ndHmBbL_uVmMcKp7RIYOypJJ2GA2sfhmysXyitjZzsuJmxQ7coI9jlM86pF89jGWxcZ9CCizXgcbCvqqBz0OXOR3GxC_RLHFjkbYjYxMww12o77YfkpwnFhZoS9sGKGjwrysctyCcz7fSCf75sE-JKNjXR9G6NbgKiJyde-x2QFskwFuVzGC0]--></g></svg>