<svg xmlns="http://www.w3.org/2000/svg" xmlns:xlink="http://www.w3.org/1999/xlink" contentStyleType="text/css" data-diagram-type="DESCRIPTION" height="507px" preserveAspectRatio="none" style="width:180px;height:507px;background:#FFFFFF;" version="1.1" viewBox="0 0 180 507" width="180px" zoomAndPan="magnify"><defs/><g><!--entity User--><g class="entity" data-entity="User" data-source-line="1" data-uid="ent0002" id="entity_User"><ellipse cx="90.1051" cy="14" fill="#F1F1F1" rx="8" ry="8" style="stroke:#181818;stroke-width:0.5;"/><path d="M90.1051,22 L90.1051,49 M77.1051,30 L103.1051,30 M90.1051,49 L77.1051,64 M90.1051,49 L103.1051,64" fill="none" style="stroke:#181818;stroke-width:0.5;"/><text fill="#000000" font-family="sans-serif" font-size="14" lengthAdjust="spacing" textLength="31.9102" x="74.15" y="78.4951">User</text></g><!--entity PaymentGateway--><g class="entity" data-entity="PaymentGateway" data-source-line="2" data-uid="ent0003" id="entity_PaymentGateway"><ellipse cx="90.1074" cy="242.68" fill="#F1F1F1" rx="8" ry="8" style="stroke:#181818;stroke-width:0.5;"/><path d="M90.1074,250.68 L90.1074,277.68 M77.1074,258.68 L103.1074,258.68 M90.1074,277.68 L77.1074,292.68 M90.1074,277.68 L103.1074,292.68" fill="none" style="stroke:#181818;stroke-width:0.5;"/><text fill="#000000" font-family="sans-serif" font-size="14" lengthAdjust="spacing" textLength="128.2148" x="26" y="307.1751">Payment Gateway</text></g><!--entity MakePayment--><g class="entity" data-entity="MakePayment" data-source-line="4" data-uid="ent0004" id="entity_MakePayment"><ellipse cx="90.1113" cy="157.9923" fill="#F1F1F1" rx="68.9613" ry="16.1923" style="stroke:#181818;stroke-width:0.5;"/><text fill="#000000" font-family="sans-serif" font-size="14" lengthAdjust="spacing" textLength="103.749" x="38.2368" y="162.6407">Make Payment</text></g><!--entity ProcessTransaction--><g class="entity" data-entity="ProcessTransaction" data-source-line="5" data-uid="ent0005" id="entity_ProcessTransaction"><ellipse cx="90.1056" cy="389.7011" fill="#F1F1F1" rx="84.1056" ry="19.2211" style="stroke:#181818;stroke-width:0.5;"/><text fill="#000000" font-family="sans-serif" font-size="14" lengthAdjust="spacing" textLength="140.2598" x="19.9758" y="394.3496">Process Transaction</text></g><!--entity ConfirmStatus--><g class="entity" data-entity="ConfirmStatus" data-source-line="6" data-uid="ent0006" id="entity_ConfirmStatus"><ellipse cx="90.112" cy="485.1704" fill="#F1F1F1" rx="69.252" ry="16.2504" style="stroke:#181818;stroke-width:0.5;"/><text fill="#000000" font-family="sans-serif" font-size="14" lengthAdjust="spacing" textLength="104.4873" x="37.8683" y="489.8188">Confirm Status</text></g><!--link User to MakePayment--><g class="link" data-entity-1="User" data-entity-2="MakePayment" data-source-line="8" data-uid="lnk7" id="link_User_MakePayment"><path d="M90.11,82.05 C90.11,102.22 90.11,120.04 90.11,135.32" fill="none" id="User-to-MakePayment" style="stroke:#181818;stroke-width:1;"/><polygon fill="#181818" points="90.11,141.32,94.11,132.32,90.11,136.32,86.11,132.32,90.11,141.32" style="stroke:#181818;stroke-width:1;"/></g><!--link MakePayment to PaymentGateway--><g class="link" data-entity-1="MakePayment" data-entity-2="PaymentGateway" data-source-line="9" data-uid="lnk8" id="link_MakePayment_PaymentGateway"><path d="M90.11,174.61 C90.11,189.92 90.11,207.85 90.11,228.07" fill="none" id="MakePayment-to-PaymentGateway" style="stroke:#181818;stroke-width:1;"/><polygon fill="#181818" points="90.11,234.07,94.11,225.07,90.11,229.07,86.11,225.07,90.11,234.07" style="stroke:#181818;stroke-width:1;"/></g><!--link PaymentGateway to ProcessTransaction--><g class="link" data-entity-1="PaymentGateway" data-entity-2="ProcessTransaction" data-source-line="10" data-uid="lnk9" id="link_PaymentGateway_ProcessTransaction"><path d="M90.11,310.79 C90.11,330.66 90.11,348.19 90.11,364.16" fill="none" id="PaymentGateway-to-ProcessTransaction" style="stroke:#181818;stroke-width:1;"/><polygon fill="#181818" points="90.11,370.16,94.11,361.16,90.11,365.16,86.11,361.16,90.11,370.16" style="stroke:#181818;stroke-width:1;"/></g><!--link ProcessTransaction to ConfirmStatus--><g class="link" data-entity-1="ProcessTransaction" data-entity-2="ConfirmStatus" data-source-line="11" data-uid="lnk10" id="link_ProcessTransaction_ConfirmStatus"><path d="M90.11,409.17 C90.11,426.51 90.11,446.17 90.11,462.53" fill="none" id="ProcessTransaction-to-ConfirmStatus" style="stroke:#181818;stroke-width:1;"/><polygon fill="#181818" points="90.11,468.53,94.11,459.53,90.11,463.53,86.11,459.53,90.11,468.53" style="stroke:#181818;stroke-width:1;"/></g><!--SRC=[POun2iCm34LtdK9upnMwTEXK2AGzW30gX18R98MIsxUHNH8dc_JqxFyfMXPyAWkGZw6dPU9aU2FZ3oq1IR6oYW1cvKZA6Exqvl_LpHNKVRDwoP5LyI6Kz1SpvbI-BNo7jpVNd5wZJ3WOsQokLrG8m5eQk-xIPEvclnsQjsinpYNEoCqc_mi0]--></g></svg>