<svg xmlns="http://www.w3.org/2000/svg" xmlns:xlink="http://www.w3.org/1999/xlink" contentStyleType="text/css" data-diagram-type="DESCRIPTION" height="618px" preserveAspectRatio="none" style="width:618px;height:618px;background:#FFFFFF;" version="1.1" viewBox="0 0 618 618" width="618px" zoomAndPan="magnify"><defs/><g><!--cluster Custom Report Generation--><g class="cluster" data-entity="Custom Report Generation" data-source-line="3" data-uid="ent0003" id="cluster_Custom Report Generation"><path d="M8.5,144.79 L220.1084,144.79 A3.75,3.75 0 0 1 222.6084,147.29 L229.6084,167.0869 L382.5,167.0869 A2.5,2.5 0 0 1 385,169.5869 L385,609.48 A2.5,2.5 0 0 1 382.5,611.98 L8.5,611.98 A2.5,2.5 0 0 1 6,609.48 L6,147.29 A2.5,2.5 0 0 1 8.5,144.79" fill="none" style="stroke:#000000;stroke-width:1.5;"/><line style="stroke:#000000;stroke-width:1.5;" x1="6" x2="229.6084" y1="167.0869" y2="167.0869"/><text fill="#000000" font-family="sans-serif" font-size="14" font-weight="bold" lengthAdjust="spacing" textLength="210.6084" x="10" y="159.7851">Custom Report Generation</text></g><!--entity TicketSystem--><g class="entity" data-entity="TicketSystem" data-source-line="4" data-uid="ent0004" id="entity_TicketSystem"><rect fill="#F1F1F1" height="46.2969" rx="2.5" ry="2.5" style="stroke:#181818;stroke-width:0.5;" width="139.0049" x="22.5" y="179.79"/><rect fill="#F1F1F1" height="10" style="stroke:#181818;stroke-width:0.5;" width="15" x="141.5049" y="184.79"/><rect fill="#F1F1F1" height="2" style="stroke:#181818;stroke-width:0.5;" width="4" x="139.5049" y="186.79"/><rect fill="#F1F1F1" height="2" style="stroke:#181818;stroke-width:0.5;" width="4" x="139.5049" y="190.79"/><text fill="#000000" font-family="sans-serif" font-size="14" lengthAdjust="spacing" textLength="99.0049" x="37.5" y="212.7851">Ticket System</text></g><!--entity ReportingEngine--><g class="entity" data-entity="ReportingEngine" data-source-line="5" data-uid="ent0005" id="entity_ReportingEngine"><rect fill="#F1F1F1" height="46.2969" rx="2.5" ry="2.5" style="stroke:#181818;stroke-width:0.5;" width="161.1191" x="175.44" y="303.09"/><rect fill="#F1F1F1" height="10" style="stroke:#181818;stroke-width:0.5;" width="15" x="316.5591" y="308.09"/><rect fill="#F1F1F1" height="2" style="stroke:#181818;stroke-width:0.5;" width="4" x="314.5591" y="310.09"/><rect fill="#F1F1F1" height="2" style="stroke:#181818;stroke-width:0.5;" width="4" x="314.5591" y="314.09"/><text fill="#000000" font-family="sans-serif" font-size="14" lengthAdjust="spacing" textLength="121.1191" x="190.44" y="336.0851">Reporting Engine</text></g><!--entity ReportParameters--><g class="entity" data-entity="ReportParameters" data-source-line="6" data-uid="ent0006" id="entity_ReportParameters"><rect fill="#F1F1F1" height="46.2969" rx="2.5" ry="2.5" style="stroke:#181818;stroke-width:0.5;" width="172.248" x="196.88" y="179.79"/><rect fill="#F1F1F1" height="10" style="stroke:#181818;stroke-width:0.5;" width="15" x="349.128" y="184.79"/><rect fill="#F1F1F1" height="2" style="stroke:#181818;stroke-width:0.5;" width="4" x="347.128" y="186.79"/><rect fill="#F1F1F1" height="2" style="stroke:#181818;stroke-width:0.5;" width="4" x="347.128" y="190.79"/><text fill="#000000" font-family="sans-serif" font-size="14" lengthAdjust="spacing" textLength="132.248" x="211.88" y="212.7851">Report Parameters</text></g><!--entity ReportGeneration--><g class="entity" data-entity="ReportGeneration" data-source-line="7" data-uid="ent0007" id="entity_ReportGeneration"><rect fill="#F1F1F1" height="46.2969" rx="2.5" ry="2.5" style="stroke:#181818;stroke-width:0.5;" width="169.5889" x="173.21" y="426.39"/><rect fill="#F1F1F1" height="10" style="stroke:#181818;stroke-width:0.5;" width="15" x="322.7989" y="431.39"/><rect fill="#F1F1F1" height="2" style="stroke:#181818;stroke-width:0.5;" width="4" x="320.7989" y="433.39"/><rect fill="#F1F1F1" height="2" style="stroke:#181818;stroke-width:0.5;" width="4" x="320.7989" y="437.39"/><text fill="#000000" font-family="sans-serif" font-size="14" lengthAdjust="spacing" textLength="129.5889" x="188.21" y="459.3851">Report Generation</text></g><!--entity ReportViewerExporter--><g class="entity" data-entity="ReportViewerExporter" data-source-line="8" data-uid="ent0008" id="entity_ReportViewerExporter"><rect fill="#F1F1F1" height="46.2969" rx="2.5" ry="2.5" style="stroke:#181818;stroke-width:0.5;" width="204.3018" x="159.85" y="549.68"/><rect fill="#F1F1F1" height="10" style="stroke:#181818;stroke-width:0.5;" width="15" x="344.1518" y="554.68"/><rect fill="#F1F1F1" height="2" style="stroke:#181818;stroke-width:0.5;" width="4" x="342.1518" y="556.68"/><rect fill="#F1F1F1" height="2" style="stroke:#181818;stroke-width:0.5;" width="4" x="342.1518" y="560.68"/><text fill="#000000" font-family="sans-serif" font-size="14" lengthAdjust="spacing" textLength="164.3018" x="174.85" y="582.6751">Report Viewer/Exporter</text></g><!--entity User--><g class="entity" data-entity="User" data-source-line="1" data-uid="ent0002" id="entity_User"><ellipse cx="351.9951" cy="14" fill="#F1F1F1" rx="8" ry="8" style="stroke:#181818;stroke-width:0.5;"/><path d="M351.9951,22 L351.9951,49 M338.9951,30 L364.9951,30 M351.9951,49 L338.9951,64 M351.9951,49 L364.9951,64" fill="none" style="stroke:#181818;stroke-width:0.5;"/><text fill="#000000" font-family="sans-serif" font-size="14" lengthAdjust="spacing" textLength="31.9102" x="336.04" y="78.4951">User</text></g><!--link User to ReportParameters--><g class="link" data-entity-1="User" data-entity-2="ReportParameters" data-source-line="11" data-uid="lnk9" id="link_User_ReportParameters"><path d="M335.8,49.67 C311.76,58.11 267.51,77.63 249,111.79 C237.13,133.71 247.106,155.7651 260.436,174.4551" fill="none" id="User-to-ReportParameters" style="stroke:#181818;stroke-width:1;"/><polygon fill="#181818" points="263.92,179.34,261.9506,169.69,261.0167,175.2693,255.4375,174.3353,263.92,179.34" style="stroke:#181818;stroke-width:1;"/><text fill="#000000" font-family="sans-serif" font-size="13" lengthAdjust="spacing" textLength="176.1411" x="250" y="124.8569">Defines Report Parameters</text></g><!--link ReportParameters to ReportingEngine--><g class="link" data-entity-1="ReportParameters" data-entity-2="ReportingEngine" data-source-line="12" data-uid="lnk10" id="link_ReportParameters_ReportingEngine"><path d="M277.98,226.47 C273.14,248.26 267.1333,275.2233 262.2933,296.9733" fill="none" id="ReportParameters-to-ReportingEngine" style="stroke:#181818;stroke-width:1;"/><polygon fill="#181818" points="260.99,302.83,266.8494,294.9137,262.0761,297.9494,259.0404,293.176,260.99,302.83" style="stroke:#181818;stroke-width:1;"/><text fill="#000000" font-family="sans-serif" font-size="13" lengthAdjust="spacing" textLength="111.8647" x="272.12" y="269.1569">Send Parameters</text></g><!--link TicketSystem to ReportingEngine--><g class="link" data-entity-1="TicketSystem" data-entity-2="ReportingEngine" data-source-line="13" data-uid="lnk11" id="link_TicketSystem_ReportingEngine"><path d="M109.7,226.33 C121.94,240.85 139.17,259.52 157,273.09 C171.76,284.33 183.9468,291.7106 200.1168,299.9706" fill="none" id="TicketSystem-to-ReportingEngine" style="stroke:#181818;stroke-width:1;"/><polygon fill="#181818" points="205.46,302.7,199.2648,295.0437,201.0073,300.4255,195.6255,302.168,205.46,302.7" style="stroke:#181818;stroke-width:1;"/><text fill="#000000" font-family="sans-serif" font-size="13" lengthAdjust="spacing" textLength="101.5371" x="158" y="269.1569">Data Extraction</text></g><!--link ReportingEngine to ReportGeneration--><g class="link" data-entity-1="ReportingEngine" data-entity-2="ReportGeneration" data-source-line="14" data-uid="lnk12" id="link_ReportingEngine_ReportGeneration"><path d="M256.37,349.77 C256.73,371.56 257.1707,398.3808 257.5307,420.1208" fill="none" id="ReportingEngine-to-ReportGeneration" style="stroke:#181818;stroke-width:1;"/><polygon fill="#181818" points="257.63,426.12,261.4804,417.055,257.5472,421.1207,253.4815,417.1875,257.63,426.12" style="stroke:#181818;stroke-width:1;"/><text fill="#000000" font-family="sans-serif" font-size="13" lengthAdjust="spacing" textLength="85.0015" x="258.12" y="392.4569">Process Data</text></g><!--link ReportGeneration to ReportViewerExporter--><g class="link" data-entity-1="ReportGeneration" data-entity-2="ReportViewerExporter" data-source-line="15" data-uid="lnk13" id="link_ReportGeneration_ReportViewerExporter"><path d="M258.74,473.07 C259.46,494.85 260.3414,521.6833 261.0614,543.4233" fill="none" id="ReportGeneration-to-ReportViewerExporter" style="stroke:#181818;stroke-width:1;"/><polygon fill="#181818" points="261.26,549.42,264.9599,540.2925,261.0945,544.4227,256.9643,540.5573,261.26,549.42" style="stroke:#181818;stroke-width:1;"/><text fill="#000000" font-family="sans-serif" font-size="13" lengthAdjust="spacing" textLength="108.5259" x="261.24" y="515.7469">Generate Report</text></g><!--link User to ReportViewerExporter--><g class="link" data-entity-1="User" data-entity-2="ReportViewerExporter" data-source-line="16" data-uid="lnk14" id="link_User_ReportViewerExporter"><path d="M368.28,54.07 C386.41,65.43 415.22,86.21 431,111.79 C452.66,146.89 453,160.7 453,201.94 C453,201.94 453,201.94 453,450.53 C453,501.11 410.3195,529.4142 362.2895,547.1242" fill="none" id="User-to-ReportViewerExporter" style="stroke:#181818;stroke-width:1;"/><polygon fill="#181818" points="356.66,549.2,366.4881,549.8394,361.3512,547.4702,363.7204,542.3334,356.66,549.2" style="stroke:#181818;stroke-width:1;"/><text fill="#000000" font-family="sans-serif" font-size="13" lengthAdjust="spacing" textLength="156.6094" x="454" y="330.8069">Views or Exports Report</text></g><!--SRC=[TPAnRiCm34HtVWNXFUZUeKjZT0sQjZkXC8OGM38e1aqGzDyhMx6bsB4stTqZn8F8g1Vy3Ym07PaJDOpL-pceR_6JEo-A7-nOIArt5Tu0up6-xRnZfrXzMNDYnVqrABSLKi2a966UJXEjQx1sZNKy09EOjESCxaYePMK91PJ55Qfy-qHbSONwiVpByb9V-XjBWIPdDE0FeAyEDvktnOlm5RTyZ0kDRB42BC9vmbH47B1dToYnijiLP4jAM5zKo0mRpXEPoZL4R2VUS0W33Wi_Guy5HF2Uuhi_xsEHxuM0ySybRIm7_W40]--></g></svg>