<svg xmlns="http://www.w3.org/2000/svg" xmlns:xlink="http://www.w3.org/1999/xlink" contentStyleType="text/css" data-diagram-type="SEQUENCE" height="324px" preserveAspectRatio="none" style="width:258px;height:324px;background:#FFFFFF;" version="1.1" viewBox="0 0 258 324" width="258px" zoomAndPan="magnify"><defs/><g><g><title>App</title><rect fill="#000000" fill-opacity="0.00000" height="162.5313" width="8" x="17.6753" y="81.2969"/><line style="stroke:#181818;stroke-width:0.5;stroke-dasharray:5,5;" x1="21" x2="21" y1="81.2969" y2="243.8281"/></g><g><title>Engine</title><rect fill="#000000" fill-opacity="0.00000" height="162.5313" width="8" x="217.0991" y="81.2969"/><line style="stroke:#181818;stroke-width:0.5;stroke-dasharray:5,5;" x1="220.1084" x2="220.1084" y1="81.2969" y2="243.8281"/></g><g class="participant participant-head" data-participant="App"><text fill="#000000" font-family="sans-serif" font-size="14" lengthAdjust="spacing" textLength="27.3506" x="5" y="77.9951">App</text><ellipse cx="21.6753" cy="13.5" fill="#E2E2F0" rx="8" ry="8" style="stroke:#181818;stroke-width:0.5;"/><path d="M21.6753,21.5 L21.6753,48.5 M8.6753,29.5 L34.6753,29.5 M21.6753,48.5 L8.6753,63.5 M21.6753,48.5 L34.6753,63.5" fill="none" style="stroke:#181818;stroke-width:0.5;"/></g><g class="participant participant-tail" data-participant="App"><text fill="#000000" font-family="sans-serif" font-size="14" lengthAdjust="spacing" textLength="27.3506" x="5" y="255.8232">App</text><ellipse cx="21.6753" cy="267.625" fill="#E2E2F0" rx="8" ry="8" style="stroke:#181818;stroke-width:0.5;"/><path d="M21.6753,275.625 L21.6753,302.625 M8.6753,283.625 L34.6753,283.625 M21.6753,302.625 L8.6753,317.625 M21.6753,302.625 L34.6753,317.625" fill="none" style="stroke:#181818;stroke-width:0.5;"/></g><g class="participant participant-head" data-participant="Engine"><rect fill="#E2E2F0" height="30.2969" rx="2.5" ry="2.5" style="stroke:#181818;stroke-width:0.5;" width="61.9814" x="190.1084" y="50"/><text fill="#000000" font-family="sans-serif" font-size="14" lengthAdjust="spacing" textLength="47.9814" x="197.1084" y="69.9951">Engine</text></g><g class="participant participant-tail" data-participant="Engine"><rect fill="#E2E2F0" height="30.2969" rx="2.5" ry="2.5" style="stroke:#181818;stroke-width:0.5;" width="61.9814" x="190.1084" y="242.8281"/><text fill="#000000" font-family="sans-serif" font-size="14" lengthAdjust="spacing" textLength="47.9814" x="197.1084" y="262.8232">Engine</text></g><g class="message" data-participant-1="App" data-participant-2="Engine"><polygon fill="#181818" points="209.0991,108.4297,219.0991,112.4297,209.0991,116.4297,213.0991,112.4297" style="stroke:#181818;stroke-width:1;"/><line style="stroke:#181818;stroke-width:1;" x1="21.6753" x2="215.0991" y1="112.4297" y2="112.4297"/><text fill="#000000" font-family="sans-serif" font-size="13" lengthAdjust="spacing" textLength="175.4238" x="28.6753" y="107.3638">Request recommendations</text></g><g class="message" data-participant-1="Engine" data-participant-2="App"><polygon fill="#181818" points="32.6753,137.5625,22.6753,141.5625,32.6753,145.5625,28.6753,141.5625" style="stroke:#181818;stroke-width:1;"/><line style="stroke:#181818;stroke-width:1;" x1="26.6753" x2="220.0991" y1="141.5625" y2="141.5625"/><text fill="#000000" font-family="sans-serif" font-size="13" lengthAdjust="spacing" textLength="133.688" x="38.6753" y="136.4966">Return ranked items</text></g><g class="message" data-participant-1="App" data-participant-2="App"><line style="stroke:#181818;stroke-width:1;" x1="21.6753" x2="63.6753" y1="170.6953" y2="170.6953"/><line style="stroke:#181818;stroke-width:1;" x1="63.6753" x2="63.6753" y1="170.6953" y2="183.6953"/><line style="stroke:#181818;stroke-width:1;" x1="22.6753" x2="63.6753" y1="183.6953" y2="183.6953"/><polygon fill="#181818" points="32.6753,179.6953,22.6753,183.6953,32.6753,187.6953,28.6753,183.6953" style="stroke:#181818;stroke-width:1;"/><text fill="#000000" font-family="sans-serif" font-size="13" lengthAdjust="spacing" textLength="169.6221" x="28.6753" y="165.6294">Explain recommendations</text></g><g class="message" data-participant-1="App" data-participant-2="App"><line style="stroke:#181818;stroke-width:1;" x1="21.6753" x2="63.6753" y1="212.8281" y2="212.8281"/><line style="stroke:#181818;stroke-width:1;" x1="63.6753" x2="63.6753" y1="212.8281" y2="225.8281"/><line style="stroke:#181818;stroke-width:1;" x1="22.6753" x2="63.6753" y1="225.8281" y2="225.8281"/><polygon fill="#181818" points="32.6753,221.8281,22.6753,225.8281,32.6753,229.8281,28.6753,225.8281" style="stroke:#181818;stroke-width:1;"/><text fill="#000000" font-family="sans-serif" font-size="13" lengthAdjust="spacing" textLength="76.8638" x="28.6753" y="207.7622">Render lists</text></g><!--SRC=[POp12SD030J_ga8Df84y0dcu0NSWpYA8-7IA94FApzcEmU3dxiuEbMoEJpCmyfGYHfeuw4kK0NgFjyS_td7apyAHw5nQhQmJfJGDsFULx8SLoyKLdVJD4qfoZSEqxSFNPXAzQCxCs6jsd2Kou0S0]--></g></svg>