<svg xmlns="http://www.w3.org/2000/svg" xmlns:xlink="http://www.w3.org/1999/xlink" contentStyleType="text/css" data-diagram-type="ACTIVITY" height="263px" preserveAspectRatio="none" style="width:237px;height:263px;background:#FFFFFF;" version="1.1" viewBox="0 0 237 263" width="237px" zoomAndPan="magnify"><defs/><g><ellipse cx="94.4502" cy="20" fill="#222222" rx="10" ry="10" style="stroke:#222222;stroke-width:1;"/><rect fill="#F1F1F1" height="33.9688" rx="12.5" ry="12.5" style="stroke:#181818;stroke-width:0.5;" width="118.3672" x="35.2666" y="50"/><text fill="#000000" font-family="sans-serif" font-size="12" lengthAdjust="spacing" textLength="98.3672" x="45.2666" y="71.1387">Admin edits role</text><rect fill="#F1F1F1" height="33.9688" rx="12.5" ry="12.5" style="stroke:#181818;stroke-width:0.5;" width="166.9004" x="11" y="173.77"/><text fill="#000000" font-family="sans-serif" font-size="12" lengthAdjust="spacing" textLength="146.9004" x="21" y="194.9087">&gt; [Validation failed] end</text><polygon fill="#F1F1F1" points="33.7327,125.3677,155.1677,125.3677,167.1677,137.3677,155.1677,149.3677,33.7327,149.3677,21.7327,137.3677,33.7327,125.3677" style="stroke:#181818;stroke-width:0.5;"/><text fill="#000000" font-family="sans-serif" font-size="11" lengthAdjust="spacing" textLength="13.7017" x="98.4502" y="159.5781">no</text><text fill="#000000" font-family="sans-serif" font-size="11" lengthAdjust="spacing" textLength="121.4351" x="33.7327" y="141.1758">Validation successful?</text><text fill="#000000" font-family="sans-serif" font-size="11" lengthAdjust="spacing" textLength="19.0083" x="167.1677" y="134.7734">yes</text><polygon fill="#F1F1F1" points="94.4502,227.7388,106.4502,239.7388,94.4502,251.7388,82.4502,239.7388,94.4502,227.7388" style="stroke:#181818;stroke-width:0.5;"/><text fill="#000000" font-family="sans-serif" font-size="11" lengthAdjust="spacing" textLength="69.8457" x="106.4502" y="237.1445">Audit logged</text><line style="stroke:#181818;stroke-width:1;" x1="94.4502" x2="94.4502" y1="30" y2="50"/><polygon fill="#181818" points="90.4502,40,94.4502,50,98.4502,40,94.4502,44" style="stroke:#181818;stroke-width:1;"/><line style="stroke:#181818;stroke-width:1;" x1="94.4502" x2="94.4502" y1="149.3677" y2="173.77"/><polygon fill="#181818" points="90.4502,163.77,94.4502,173.77,98.4502,163.77,94.4502,167.77" style="stroke:#181818;stroke-width:1;"/><line style="stroke:#181818;stroke-width:1;" x1="167.1677" x2="187.9004" y1="137.3677" y2="137.3677"/><polygon fill="#181818" points="183.9004,180.7544,187.9004,190.7544,191.9004,180.7544,187.9004,184.7544" style="stroke:#181818;stroke-width:1;"/><line style="stroke:#181818;stroke-width:1;" x1="187.9004" x2="187.9004" y1="137.3677" y2="239.7388"/><line style="stroke:#181818;stroke-width:1;" x1="187.9004" x2="106.4502" y1="239.7388" y2="239.7388"/><polygon fill="#181818" points="116.4502,235.7388,106.4502,239.7388,116.4502,243.7388,112.4502,239.7388" style="stroke:#181818;stroke-width:1;"/><line style="stroke:#181818;stroke-width:1;" x1="94.4502" x2="94.4502" y1="207.7388" y2="227.7388"/><polygon fill="#181818" points="90.4502,217.7388,94.4502,227.7388,98.4502,217.7388,94.4502,221.7388" style="stroke:#181818;stroke-width:1;"/><line style="stroke:#181818;stroke-width:1;" x1="94.4502" x2="94.4502" y1="83.9688" y2="125.3677"/><polygon fill="#181818" points="90.4502,115.3677,94.4502,125.3677,98.4502,115.3677,94.4502,119.3677" style="stroke:#181818;stroke-width:1;"/><text fill="#000000" font-family="sans-serif" font-size="11" lengthAdjust="spacing" textLength="126.6235" x="98.4502" y="105.2734">Policy Engine validates</text><!--SRC=[JOqn3i8m40HxlsBBfE03H0AbeAUYGHHMV3Od7MShvqJAxp6GWcAB7MbdhVgvEdSSmuiL5BWQvYmqkCC9romyRRXeOYMiNZZuIZOuZkXklyfPOSiqaLbSvDoZFadHRMIz0vfaB6NEAyqmJjgsNxYRVId257OuBkqUabFw818ZT9ftpVtlBteM2W-G1jV2qRq1]--></g></svg>