<svg xmlns="http://www.w3.org/2000/svg" xmlns:xlink="http://www.w3.org/1999/xlink" contentStyleType="text/css" data-diagram-type="DESCRIPTION" height="619px" preserveAspectRatio="none" style="width:2015px;height:619px;background:#FFFFFF;" version="1.1" viewBox="0 0 2015 619" width="2015px" zoomAndPan="magnify"><defs/><g><!--cluster Order Lifecycle--><g class="cluster" data-entity="Order Lifecycle" data-source-line="1" data-uid="ent0002" id="cluster_Order Lifecycle"><path d="M160.1,6 L280.5238,6 A3.75,3.75 0 0 1 283.0238,8.5 L290.0238,28.2969 L2006.1,28.2969 A2.5,2.5 0 0 1 2008.6,30.7969 L2008.6,610.28 A2.5,2.5 0 0 1 2006.1,612.78 L160.1,612.78 A2.5,2.5 0 0 1 157.6,610.28 L157.6,8.5 A2.5,2.5 0 0 1 160.1,6" fill="none" style="stroke:#000000;stroke-width:1.5;"/><line style="stroke:#000000;stroke-width:1.5;" x1="157.6" x2="290.0238" y1="28.2969" y2="28.2969"/><text fill="#000000" font-family="sans-serif" font-size="14" font-weight="bold" lengthAdjust="spacing" textLength="119.4238" x="161.6" y="20.9951">Order Lifecycle</text></g><!--entity Cart Service--><g class="entity" data-entity="Cart Service" data-source-line="2" data-uid="ent0003" id="entity_Cart Service"><rect fill="#F1F1F1" height="46.2969" rx="2.5" ry="2.5" style="stroke:#181818;stroke-width:0.5;" width="125.791" x="735.71" y="41"/><rect fill="#F1F1F1" height="10" style="stroke:#181818;stroke-width:0.5;" width="15" x="841.501" y="46"/><rect fill="#F1F1F1" height="2" style="stroke:#181818;stroke-width:0.5;" width="4" x="839.501" y="48"/><rect fill="#F1F1F1" height="2" style="stroke:#181818;stroke-width:0.5;" width="4" x="839.501" y="52"/><text fill="#000000" font-family="sans-serif" font-size="14" lengthAdjust="spacing" textLength="85.791" x="750.71" y="73.9951">Cart Service</text></g><!--entity Message Broker--><g class="entity" data-entity="Message Broker" data-source-line="2" data-uid="ent0004" id="entity_Message Broker"><rect fill="#F1F1F1" height="46.2969" rx="2.5" ry="2.5" style="stroke:#181818;stroke-width:0.5;" width="152.2119" x="722.5" y="164.3"/><rect fill="#F1F1F1" height="10" style="stroke:#181818;stroke-width:0.5;" width="15" x="854.7119" y="169.3"/><rect fill="#F1F1F1" height="2" style="stroke:#181818;stroke-width:0.5;" width="4" x="852.7119" y="171.3"/><rect fill="#F1F1F1" height="2" style="stroke:#181818;stroke-width:0.5;" width="4" x="852.7119" y="175.3"/><text fill="#000000" font-family="sans-serif" font-size="14" lengthAdjust="spacing" textLength="112.2119" x="737.5" y="197.2951">Message Broker</text></g><!--entity Order Service--><g class="entity" data-entity="Order Service" data-source-line="4" data-uid="ent0006" id="entity_Order Service"><rect fill="#F1F1F1" height="46.2969" rx="2.5" ry="2.5" style="stroke:#181818;stroke-width:0.5;" width="136.2227" x="897.49" y="287.59"/><rect fill="#F1F1F1" height="10" style="stroke:#181818;stroke-width:0.5;" width="15" x="1013.7127" y="292.59"/><rect fill="#F1F1F1" height="2" style="stroke:#181818;stroke-width:0.5;" width="4" x="1011.7127" y="294.59"/><rect fill="#F1F1F1" height="2" style="stroke:#181818;stroke-width:0.5;" width="4" x="1011.7127" y="298.59"/><text fill="#000000" font-family="sans-serif" font-size="14" lengthAdjust="spacing" textLength="96.2227" x="912.49" y="320.5851">Order Service</text></g><!--entity Catalog--><g class="entity" data-entity="Catalog" data-source-line="6" data-uid="ent0008" id="entity_Catalog"><rect fill="#F1F1F1" height="46.2969" rx="2.5" ry="2.5" style="stroke:#181818;stroke-width:0.5;" width="93.7646" x="1577.72" y="419.04"/><rect fill="#F1F1F1" height="10" style="stroke:#181818;stroke-width:0.5;" width="15" x="1651.4846" y="424.04"/><rect fill="#F1F1F1" height="2" style="stroke:#181818;stroke-width:0.5;" width="4" x="1649.4846" y="426.04"/><rect fill="#F1F1F1" height="2" style="stroke:#181818;stroke-width:0.5;" width="4" x="1649.4846" y="430.04"/><text fill="#000000" font-family="sans-serif" font-size="14" lengthAdjust="spacing" textLength="53.7646" x="1592.72" y="452.0351">Catalog</text></g><!--entity Payment Orchestrator--><g class="entity" data-entity="Payment Orchestrator" data-source-line="7" data-uid="ent0010" id="entity_Payment Orchestrator"><rect fill="#F1F1F1" height="46.2969" rx="2.5" ry="2.5" style="stroke:#181818;stroke-width:0.5;" width="195.2578" x="1114.98" y="419.04"/><rect fill="#F1F1F1" height="10" style="stroke:#181818;stroke-width:0.5;" width="15" x="1290.2378" y="424.04"/><rect fill="#F1F1F1" height="2" style="stroke:#181818;stroke-width:0.5;" width="4" x="1288.2378" y="426.04"/><rect fill="#F1F1F1" height="2" style="stroke:#181818;stroke-width:0.5;" width="4" x="1288.2378" y="430.04"/><text fill="#000000" font-family="sans-serif" font-size="14" lengthAdjust="spacing" textLength="155.2578" x="1129.98" y="452.0351">Payment Orchestrator</text></g><!--entity Payment Gateway Adapter--><g class="entity" data-entity="Payment Gateway Adapter" data-source-line="9" data-uid="ent0012" id="entity_Payment Gateway Adapter"><rect fill="#F1F1F1" height="46.2969" rx="2.5" ry="2.5" style="stroke:#181818;stroke-width:0.5;" width="228.4531" x="1098.38" y="550.48"/><rect fill="#F1F1F1" height="10" style="stroke:#181818;stroke-width:0.5;" width="15" x="1306.8331" y="555.48"/><rect fill="#F1F1F1" height="2" style="stroke:#181818;stroke-width:0.5;" width="4" x="1304.8331" y="557.48"/><rect fill="#F1F1F1" height="2" style="stroke:#181818;stroke-width:0.5;" width="4" x="1304.8331" y="561.48"/><text fill="#000000" font-family="sans-serif" font-size="14" lengthAdjust="spacing" textLength="188.4531" x="1113.38" y="583.4751">Payment Gateway Adapter</text></g><!--entity Orders DB--><g class="entity" data-entity="Orders DB" data-source-line="15" data-uid="ent0017" id="entity_Orders DB"><rect fill="#F1F1F1" height="62.5938" rx="2.5" ry="2.5" style="stroke:#181818;stroke-width:0.5;" width="125.9316" x="289.64" y="410.89"/><rect fill="#F1F1F1" height="10" style="stroke:#181818;stroke-width:0.5;" width="15" x="395.5716" y="415.89"/><rect fill="#F1F1F1" height="2" style="stroke:#181818;stroke-width:0.5;" width="4" x="393.5716" y="417.89"/><rect fill="#F1F1F1" height="2" style="stroke:#181818;stroke-width:0.5;" width="4" x="393.5716" y="421.89"/><text fill="#000000" font-family="sans-serif" font-size="14" font-style="italic" lengthAdjust="spacing" textLength="83.9316" x="305.64" y="443.8851">&#171;Database&#187;</text><text fill="#000000" font-family="sans-serif" font-size="14" lengthAdjust="spacing" textLength="72.1602" x="311.5257" y="460.182">Orders DB</text></g><!--entity Cache--><g class="entity" data-entity="Cache" data-source-line="16" data-uid="ent0019" id="entity_Cache"><rect fill="#F1F1F1" height="62.5938" rx="2.5" ry="2.5" style="stroke:#181818;stroke-width:0.5;" width="125.9316" x="565.64" y="410.89"/><rect fill="#F1F1F1" height="10" style="stroke:#181818;stroke-width:0.5;" width="15" x="671.5716" y="415.89"/><rect fill="#F1F1F1" height="2" style="stroke:#181818;stroke-width:0.5;" width="4" x="669.5716" y="417.89"/><rect fill="#F1F1F1" height="2" style="stroke:#181818;stroke-width:0.5;" width="4" x="669.5716" y="421.89"/><text fill="#000000" font-family="sans-serif" font-size="14" font-style="italic" lengthAdjust="spacing" textLength="83.9316" x="581.64" y="443.8851">&#171;Database&#187;</text><text fill="#000000" font-family="sans-serif" font-size="14" lengthAdjust="spacing" textLength="43.5381" x="601.8368" y="460.182">Cache</text></g><!--entity Restaurant/Kitchen Integration--><g class="entity" data-entity="Restaurant.Kitchen Integration" data-source-line="18" data-uid="ent0021" id="entity_Restaurant.Kitchen Integration"><rect fill="#F1F1F1" height="46.2969" rx="2.5" ry="2.5" style="stroke:#181818;stroke-width:0.5;" width="256.2002" x="1038.5" y="164.3"/><rect fill="#F1F1F1" height="10" style="stroke:#181818;stroke-width:0.5;" width="15" x="1274.7002" y="169.3"/><rect fill="#F1F1F1" height="2" style="stroke:#181818;stroke-width:0.5;" width="4" x="1272.7002" y="171.3"/><rect fill="#F1F1F1" height="2" style="stroke:#181818;stroke-width:0.5;" width="4" x="1272.7002" y="175.3"/><text fill="#000000" font-family="sans-serif" font-size="14" lengthAdjust="spacing" textLength="216.2002" x="1053.5" y="197.2951">Restaurant/Kitchen Integration</text></g><!--entity Delivery Partner Adapter--><g class="entity" data-entity="Delivery Partner Adapter" data-source-line="20" data-uid="ent0023" id="entity_Delivery Partner Adapter"><rect fill="#F1F1F1" height="46.2969" rx="2.5" ry="2.5" style="stroke:#181818;stroke-width:0.5;" width="214.3096" x="1412.45" y="164.3"/><rect fill="#F1F1F1" height="10" style="stroke:#181818;stroke-width:0.5;" width="15" x="1606.7596" y="169.3"/><rect fill="#F1F1F1" height="2" style="stroke:#181818;stroke-width:0.5;" width="4" x="1604.7596" y="171.3"/><rect fill="#F1F1F1" height="2" style="stroke:#181818;stroke-width:0.5;" width="4" x="1604.7596" y="175.3"/><text fill="#000000" font-family="sans-serif" font-size="14" lengthAdjust="spacing" textLength="174.3096" x="1427.45" y="197.2951">Delivery Partner Adapter</text></g><!--entity Courier Service--><g class="entity" data-entity="Courier Service" data-source-line="21" data-uid="ent0025" id="entity_Courier Service"><rect fill="#F1F1F1" height="46.2969" rx="2.5" ry="2.5" style="stroke:#181818;stroke-width:0.5;" width="147.4199" x="1628.89" y="287.59"/><rect fill="#F1F1F1" height="10" style="stroke:#181818;stroke-width:0.5;" width="15" x="1756.3099" y="292.59"/><rect fill="#F1F1F1" height="2" style="stroke:#181818;stroke-width:0.5;" width="4" x="1754.3099" y="294.59"/><rect fill="#F1F1F1" height="2" style="stroke:#181818;stroke-width:0.5;" width="4" x="1754.3099" y="298.59"/><text fill="#000000" font-family="sans-serif" font-size="14" lengthAdjust="spacing" textLength="107.4199" x="1643.89" y="320.5851">Courier Service</text></g><!--entity Webhook Receiver--><g class="entity" data-entity="Webhook Receiver" data-source-line="23" data-uid="ent0027" id="entity_Webhook Receiver"><rect fill="#F1F1F1" height="46.2969" rx="2.5" ry="2.5" style="stroke:#181818;stroke-width:0.5;" width="171.0996" x="1709.05" y="419.04"/><rect fill="#F1F1F1" height="10" style="stroke:#181818;stroke-width:0.5;" width="15" x="1860.1496" y="424.04"/><rect fill="#F1F1F1" height="2" style="stroke:#181818;stroke-width:0.5;" width="4" x="1858.1496" y="426.04"/><rect fill="#F1F1F1" height="2" style="stroke:#181818;stroke-width:0.5;" width="4" x="1858.1496" y="430.04"/><text fill="#000000" font-family="sans-serif" font-size="14" lengthAdjust="spacing" textLength="131.0996" x="1724.05" y="452.0351">Webhook Receiver</text></g><!--entity Realtime Gateway--><g class="entity" data-entity="Realtime Gateway" data-source-line="24" data-uid="ent0029" id="entity_Realtime Gateway"><rect fill="#F1F1F1" height="46.2969" rx="2.5" ry="2.5" style="stroke:#181818;stroke-width:0.5;" width="168.7344" x="1710.24" y="550.48"/><rect fill="#F1F1F1" height="10" style="stroke:#181818;stroke-width:0.5;" width="15" x="1858.9744" y="555.48"/><rect fill="#F1F1F1" height="2" style="stroke:#181818;stroke-width:0.5;" width="4" x="1856.9744" y="557.48"/><rect fill="#F1F1F1" height="2" style="stroke:#181818;stroke-width:0.5;" width="4" x="1856.9744" y="561.48"/><text fill="#000000" font-family="sans-serif" font-size="14" lengthAdjust="spacing" textLength="128.7344" x="1725.24" y="583.4751">Realtime Gateway</text></g><!--entity Notification Service--><g class="entity" data-entity="Notification Service" data-source-line="26" data-uid="ent0031" id="entity_Notification Service"><rect fill="#F1F1F1" height="46.2969" rx="2.5" ry="2.5" style="stroke:#181818;stroke-width:0.5;" width="176.5205" x="1680.34" y="41"/><rect fill="#F1F1F1" height="10" style="stroke:#181818;stroke-width:0.5;" width="15" x="1836.8605" y="46"/><rect fill="#F1F1F1" height="2" style="stroke:#181818;stroke-width:0.5;" width="4" x="1834.8605" y="48"/><rect fill="#F1F1F1" height="2" style="stroke:#181818;stroke-width:0.5;" width="4" x="1834.8605" y="52"/><text fill="#000000" font-family="sans-serif" font-size="14" lengthAdjust="spacing" textLength="136.5205" x="1695.34" y="73.9951">Notification Service</text></g><!--entity User Devices--><g class="entity" data-entity="User Devices" data-source-line="26" data-uid="ent0032" id="entity_User Devices"><rect fill="#F1F1F1" height="46.2969" rx="2.5" ry="2.5" style="stroke:#181818;stroke-width:0.5;" width="131.5332" x="1702.84" y="164.3"/><rect fill="#F1F1F1" height="10" style="stroke:#181818;stroke-width:0.5;" width="15" x="1814.3732" y="169.3"/><rect fill="#F1F1F1" height="2" style="stroke:#181818;stroke-width:0.5;" width="4" x="1812.3732" y="171.3"/><rect fill="#F1F1F1" height="2" style="stroke:#181818;stroke-width:0.5;" width="4" x="1812.3732" y="175.3"/><text fill="#000000" font-family="sans-serif" font-size="14" lengthAdjust="spacing" textLength="91.5332" x="1717.84" y="197.2951">User Devices</text></g><!--entity Audit Log--><g class="entity" data-entity="Audit Log" data-source-line="28" data-uid="ent0034" id="entity_Audit Log"><rect fill="#F1F1F1" height="62.5938" rx="2.5" ry="2.5" style="stroke:#181818;stroke-width:0.5;" width="125.9316" x="736.64" y="410.89"/><rect fill="#F1F1F1" height="10" style="stroke:#181818;stroke-width:0.5;" width="15" x="842.5716" y="415.89"/><rect fill="#F1F1F1" height="2" style="stroke:#181818;stroke-width:0.5;" width="4" x="840.5716" y="417.89"/><rect fill="#F1F1F1" height="2" style="stroke:#181818;stroke-width:0.5;" width="4" x="840.5716" y="421.89"/><text fill="#000000" font-family="sans-serif" font-size="14" font-style="italic" lengthAdjust="spacing" textLength="83.9316" x="752.64" y="443.8851">&#171;Database&#187;</text><text fill="#000000" font-family="sans-serif" font-size="14" lengthAdjust="spacing" textLength="66.418" x="761.3968" y="460.182">Audit Log</text></g><!--entity Data Stores--><g class="entity" data-entity="Data Stores" data-source-line="36" data-uid="ent0040" id="entity_Data Stores"><path d="M8.5,44.5 L114.708,44.5 A3.75,3.75 0 0 1 117.208,47 L124.208,66.7969 L138.708,66.7969 A2.5,2.5 0 0 1 141.208,69.2969 L141.208,81.2969 A2.5,2.5 0 0 1 138.708,83.7969 L8.5,83.7969 A2.5,2.5 0 0 1 6,81.2969 L6,47 A2.5,2.5 0 0 1 8.5,44.5" fill="#F1F1F1" style="stroke:#181818;stroke-width:0.5;"/><line style="stroke:#181818;stroke-width:0.5;" x1="6" x2="124.208" y1="66.7969" y2="66.7969"/><text fill="#000000" font-family="sans-serif" font-size="14" font-weight="bold" lengthAdjust="spacing" textLength="93.208" x="16" y="60.4951">Data Stores</text></g><!--link Cart Service to Message Broker--><g class="link" data-entity-1="Cart Service" data-entity-2="Message Broker" data-source-line="2" data-uid="lnk5" id="link_Cart Service_Message Broker"><path d="M798.6,87.68 C798.6,109.46 798.6,136.29 798.6,158.03" fill="none" id="Cart Service-to-Message Broker" style="stroke:#181818;stroke-width:1;"/><polygon fill="#181818" points="798.6,164.03,802.6,155.03,798.6,159.03,794.6,155.03,798.6,164.03" style="stroke:#181818;stroke-width:1;"/><text fill="#000000" font-family="sans-serif" font-size="13" lengthAdjust="spacing" textLength="172.0786" x="799.6" y="130.3669">CheckoutRequested event</text></g><!--link Message Broker to Order Service--><g class="link" data-entity-1="Message Broker" data-entity-2="Order Service" data-source-line="4" data-uid="lnk7" id="link_Message Broker_Order Service"><path d="M722.05,189.69 C643.43,193.63 538.23,207.93 581.6,257.59 C602.02,280.97 786.4755,297.3094 891.2655,304.8494" fill="none" id="Message Broker-to-Order Service" style="stroke:#181818;stroke-width:1;"/><polygon fill="#181818" points="897.25,305.28,888.5603,300.6444,892.2629,304.9212,887.9861,308.6238,897.25,305.28" style="stroke:#181818;stroke-width:1;"/><text fill="#000000" font-family="sans-serif" font-size="13" lengthAdjust="spacing" textLength="172.0786" x="582.6" y="253.6569">CheckoutRequested event</text></g><!--link Order Service to Message Broker--><g class="link" data-entity-1="Order Service" data-entity-2="Message Broker" data-source-line="13" data-uid="lnk16" id="link_Order Service_Message Broker"><path d="M897.36,307.38 C860.93,302.2 818.91,289.12 795.6,257.59 C785.82,244.35 785.9597,231.3119 789.5097,216.6319" fill="none" id="Order Service-to-Message Broker" style="stroke:#181818;stroke-width:1;"/><polygon fill="#181818" points="790.92,210.8,784.9166,218.6076,789.7447,215.6599,792.6925,220.4881,790.92,210.8" style="stroke:#181818;stroke-width:1;"/><text fill="#000000" font-family="sans-serif" font-size="13" lengthAdjust="spacing" textLength="146.0469" x="796.6" y="253.6569">OrderConfirmed event</text></g><!--link Order Service to Message Broker--><g class="link" data-entity-1="Order Service" data-entity-2="Message Broker" data-source-line="31" data-uid="lnk37" id="link_Order Service_Message Broker"><path d="M965.05,287.24 C963.53,272.29 959.2,253.18 947.6,240.59 C928.66,220.03 906.9259,209.2396 880.6959,201.6896" fill="none" id="Order Service-to-Message Broker-1" style="stroke:#181818;stroke-width:1;"/><polygon fill="#181818" points="874.93,200.03,882.4724,206.3634,879.7349,201.413,884.6853,198.6755,874.93,200.03" style="stroke:#181818;stroke-width:1;"/><text fill="#000000" font-family="sans-serif" font-size="13" lengthAdjust="spacing" textLength="138.6201" x="958.74" y="253.6569">OrderCanceled event</text></g><!--link Order Service to Catalog--><g class="link" data-entity-1="Order Service" data-entity-2="Catalog" data-source-line="6" data-uid="lnk9" id="link_Order Service_Catalog"><path d="M1034.06,312.37 C1166.68,314.49 1453.41,323.74 1542.6,363.89 C1569.36,375.94 1589.1177,395.7586 1604.0277,413.9586" fill="none" id="Order Service-to-Catalog" style="stroke:#181818;stroke-width:1;"/><polygon fill="#181818" points="1607.83,418.6,1605.2207,409.1031,1604.6614,414.7322,1599.0322,414.1729,1607.83,418.6" style="stroke:#181818;stroke-width:1;"/><text fill="#000000" font-family="sans-serif" font-size="13" lengthAdjust="spacing" textLength="128.2227" x="1569.67" y="376.9569">Validate availability</text></g><!--link Order Service to Payment Orchestrator--><g class="link" data-entity-1="Order Service" data-entity-2="Payment Orchestrator" data-source-line="7" data-uid="lnk11" id="link_Order Service_Payment Orchestrator"><path d="M957.66,334.29 C953.99,349.06 952.42,367.96 962.6,380.89 C981.7,405.14 1047.1466,419.8885 1108.7766,429.1485" fill="none" id="Order Service-to-Payment Orchestrator" style="stroke:#181818;stroke-width:1;"/><polygon fill="#181818" points="1114.71,430.04,1106.4042,424.7471,1109.7655,429.2971,1105.2156,432.6583,1114.71,430.04" style="stroke:#181818;stroke-width:1;"/><text fill="#000000" font-family="sans-serif" font-size="13" lengthAdjust="spacing" textLength="205.7085" x="963.6" y="376.9569">Request payment authorization</text></g><!--link Payment Orchestrator to Order Service--><g class="link" data-entity-1="Payment Orchestrator" data-entity-2="Order Service" data-source-line="12" data-uid="lnk15" id="link_Payment Orchestrator_Order Service"><path d="M1206.8,418.59 C1201.16,401.13 1190.86,377.69 1173.6,363.89 C1134.06,332.27 1083.7917,320.207 1039.7617,315.207" fill="none" id="Payment Orchestrator-to-Order Service" style="stroke:#181818;stroke-width:1;"/><polygon fill="#181818" points="1033.8,314.53,1042.2912,319.52,1038.7681,315.0942,1043.1939,311.571,1033.8,314.53" style="stroke:#181818;stroke-width:1;"/><text fill="#000000" font-family="sans-serif" font-size="13" lengthAdjust="spacing" textLength="131.1553" x="1188.85" y="376.9569">Payment authorized</text></g><!--link Payment Orchestrator to Order Service--><g class="link" data-entity-1="Payment Orchestrator" data-entity-2="Order Service" data-source-line="30" data-uid="lnk36" id="link_Payment Orchestrator_Order Service"><path d="M1289.39,418.65 C1321.87,405.26 1348.18,386.48 1328.6,363.89 C1291.23,320.77 1134.2296,312.5406 1039.8496,311.4306" fill="none" id="Payment Orchestrator-to-Order Service-1" style="stroke:#181818;stroke-width:1;"/><polygon fill="#181818" points="1033.85,311.36,1042.8023,315.4656,1038.8497,311.4188,1042.8964,307.4661,1033.85,311.36" style="stroke:#181818;stroke-width:1;"/><text fill="#000000" font-family="sans-serif" font-size="13" lengthAdjust="spacing" textLength="197.7993" x="1336.3" y="376.9569">Payment failed or cancellation</text></g><!--link Payment Orchestrator to Payment Gateway Adapter--><g class="link" data-entity-1="Payment Orchestrator" data-entity-2="Payment Gateway Adapter" data-source-line="9" data-uid="lnk13" id="link_Payment Orchestrator_Payment Gateway Adapter"><path d="M1310.51,451.45 C1372.07,460.68 1434.49,480.04 1403.6,520.48 C1393.17,534.14 1367.5841,543.6887 1333.1541,551.9587" fill="none" id="Payment Orchestrator-to-Payment Gateway Adapter" style="stroke:#181818;stroke-width:1;"/><polygon fill="#181818" points="1327.32,553.36,1337.0053,555.1474,1332.1817,552.1922,1335.1369,547.3686,1327.32,553.36" style="stroke:#181818;stroke-width:1;"/><text fill="#000000" font-family="sans-serif" font-size="13" lengthAdjust="spacing" textLength="124.2427" x="1412.42" y="516.5469">Authorize payment</text></g><!--link Payment Gateway Adapter to Payment Orchestrator--><g class="link" data-entity-1="Payment Gateway Adapter" data-entity-2="Payment Orchestrator" data-source-line="10" data-uid="lnk14" id="link_Payment Gateway Adapter_Payment Orchestrator"><path d="M1208.91,550.11 C1207.59,540.95 1206.26,530.24 1205.6,520.48 C1204.37,502.06 1205.6071,487.1591 1207.8171,471.7691" fill="none" id="Payment Gateway Adapter-to-Payment Orchestrator" style="stroke:#181818;stroke-width:1;"/><polygon fill="#181818" points="1208.67,465.83,1203.4313,474.1701,1207.9593,470.7792,1211.3501,475.3072,1208.67,465.83" style="stroke:#181818;stroke-width:1;"/><text fill="#000000" font-family="sans-serif" font-size="13" lengthAdjust="spacing" textLength="188.9697" x="1206.6" y="516.5469">Payment authorization result</text></g><!--link Payment Orchestrator to Payment Gateway Adapter--><g class="link" data-entity-1="Payment Orchestrator" data-entity-2="Payment Gateway Adapter" data-source-line="33" data-uid="lnk39" id="link_Payment Orchestrator_Payment Gateway Adapter"><path d="M1114.93,463.3 C1079.38,475.41 1051.97,493.78 1070.6,520.48 C1079.47,533.19 1086.5008,539.9961 1100.2108,547.2761" fill="none" id="Payment Orchestrator-to-Payment Gateway Adapter-1" style="stroke:#181818;stroke-width:1;"/><polygon fill="#181818" points="1105.51,550.09,1099.4371,542.3363,1101.094,547.7451,1095.6852,549.402,1105.51,550.09" style="stroke:#181818;stroke-width:1;"/><text fill="#000000" font-family="sans-serif" font-size="13" lengthAdjust="spacing" textLength="125.417" x="1071.6" y="516.5469">Trigger void/refund</text></g><!--link Order Service to Orders DB--><g class="link" data-entity-1="Order Service" data-entity-2="Orders DB" data-source-line="15" data-uid="lnk18" id="link_Order Service_Orders DB"><path d="M897.22,311.24 C719.26,310.65 252.26,313.93 205.6,363.89 C174.81,396.87 230.7441,417.113 283.4341,428.873" fill="none" id="Order Service-to-Orders DB" style="stroke:#181818;stroke-width:1;"/><polygon fill="#181818" points="289.29,430.18,281.3775,424.3156,284.4101,429.0908,279.6348,432.1235,289.29,430.18" style="stroke:#181818;stroke-width:1;"/><text fill="#000000" font-family="sans-serif" font-size="13" lengthAdjust="spacing" textLength="217.2866" x="206.6" y="376.9569">Update order status to confirmed</text></g><!--link Order Service to Orders DB--><g class="link" data-entity-1="Order Service" data-entity-2="Orders DB" data-source-line="32" data-uid="lnk38" id="link_Order Service_Orders DB"><path d="M897.33,312.31 C806.89,314.68 643.21,324.65 509.6,363.89 C472.44,374.81 438.5994,391.1142 408.7194,407.6542" fill="none" id="Order Service-to-Orders DB-1" style="stroke:#181818;stroke-width:1;"/><polygon fill="#181818" points="403.47,410.56,413.2813,409.7009,407.8445,408.1385,409.4069,402.7017,403.47,410.56" style="stroke:#181818;stroke-width:1;"/><text fill="#000000" font-family="sans-serif" font-size="13" lengthAdjust="spacing" textLength="119.082" x="510.6" y="376.9569">Compensate state</text></g><!--link Order Service to Cache--><g class="link" data-entity-1="Order Service" data-entity-2="Cache" data-source-line="16" data-uid="lnk20" id="link_Order Service_Cache"><path d="M897.25,314.67 C815.76,319.55 686.11,332.19 650.6,363.89 C637.49,375.6 632.7828,388.5667 630.5428,404.7467" fill="none" id="Order Service-to-Cache" style="stroke:#181818;stroke-width:1;"/><polygon fill="#181818" points="629.72,410.69,634.9164,402.3236,630.4057,405.7372,626.992,401.2265,629.72,410.69" style="stroke:#181818;stroke-width:1;"/><text fill="#000000" font-family="sans-serif" font-size="13" lengthAdjust="spacing" textLength="129.7524" x="651.6" y="376.9569">Update active order</text></g><!--link Restaurant/Kitchen Integration to Order Service--><g class="link" data-entity-1="Restaurant.Kitchen Integration" data-entity-2="Order Service" data-source-line="18" data-uid="lnk22" id="link_Restaurant.Kitchen Integration_Order Service"><path d="M1151.27,211 C1140.11,225.96 1123.81,245.08 1105.6,257.59 C1084.12,272.36 1063.6072,281.6285 1039.7172,289.7985" fill="none" id="Restaurant/Kitchen Integration-to-Order Service" style="stroke:#181818;stroke-width:1;"/><polygon fill="#181818" points="1034.04,291.74,1043.8501,292.6125,1038.771,290.1221,1041.2615,285.0429,1034.04,291.74" style="stroke:#181818;stroke-width:1;"/><text fill="#000000" font-family="sans-serif" font-size="13" lengthAdjust="spacing" textLength="166.6641" x="1125.92" y="253.6569">Acknowledge preparation</text></g><!--link Delivery Partner Adapter to Order Service--><g class="link" data-entity-1="Delivery Partner Adapter" data-entity-2="Order Service" data-source-line="20" data-uid="lnk24" id="link_Delivery Partner Adapter_Order Service"><path d="M1457.06,210.98 C1413.63,225.93 1354.18,245.04 1300.6,257.59 C1209.48,278.94 1108.2764,293.1678 1040.1564,301.4278" fill="none" id="Delivery Partner Adapter-to-Order Service" style="stroke:#181818;stroke-width:1;"/><polygon fill="#181818" points="1034.2,302.15,1043.6161,305.0375,1039.1636,301.5481,1042.6531,297.0957,1034.2,302.15" style="stroke:#181818;stroke-width:1;"/><text fill="#000000" font-family="sans-serif" font-size="13" lengthAdjust="spacing" textLength="134.3926" x="1362.54" y="253.6569">Register delivery job</text></g><!--link Delivery Partner Adapter to Courier Service--><g class="link" data-entity-1="Delivery Partner Adapter" data-entity-2="Courier Service" data-source-line="21" data-uid="lnk26" id="link_Delivery Partner Adapter_Courier Service"><path d="M1553.6,210.97 C1586.36,232.69 1630.669,262.0648 1663.479,283.8148" fill="none" id="Delivery Partner Adapter-to-Courier Service" style="stroke:#181818;stroke-width:1;"/><polygon fill="#181818" points="1668.48,287.13,1663.1887,278.8233,1664.3125,284.3674,1658.7684,285.4912,1668.48,287.13" style="stroke:#181818;stroke-width:1;"/><text fill="#000000" font-family="sans-serif" font-size="13" lengthAdjust="spacing" textLength="193.4766" x="1623.06" y="253.6569">Subscribe to location updates</text></g><!--link Courier Service to Webhook Receiver--><g class="link" data-entity-1="Courier Service" data-entity-2="Webhook Receiver" data-source-line="23" data-uid="lnk28" id="link_Courier Service_Webhook Receiver"><path d="M1728.91,334.36 C1738.05,343.02 1747.92,353.36 1755.6,363.89 C1768.1,381.01 1776.27,397.2165 1783.24,413.2665" fill="none" id="Courier Service-to-Webhook Receiver" style="stroke:#181818;stroke-width:1;"/><polygon fill="#181818" points="1785.63,418.77,1785.714,408.9215,1783.6384,414.1838,1778.3761,412.1081,1785.63,418.77" style="stroke:#181818;stroke-width:1;"/><text fill="#000000" font-family="sans-serif" font-size="13" lengthAdjust="spacing" textLength="196.187" x="1766.96" y="376.9569">Delivery status and GPS pings</text></g><!--link Webhook Receiver to Realtime Gateway--><g class="link" data-entity-1="Webhook Receiver" data-entity-2="Realtime Gateway" data-source-line="24" data-uid="lnk30" id="link_Webhook Receiver_Realtime Gateway"><path d="M1794.6,465.73 C1794.6,489.49 1794.6,520.68 1794.6,544.34" fill="none" id="Webhook Receiver-to-Realtime Gateway" style="stroke:#181818;stroke-width:1;"/><polygon fill="#181818" points="1794.6,550.34,1798.6,541.34,1794.6,545.34,1790.6,541.34,1794.6,550.34" style="stroke:#181818;stroke-width:1;"/><text fill="#000000" font-family="sans-serif" font-size="13" lengthAdjust="spacing" textLength="87.8008" x="1795.6" y="516.5469">Push updates</text></g><!--link Notification Service to User Devices--><g class="link" data-entity-1="Notification Service" data-entity-2="User Devices" data-source-line="26" data-uid="lnk33" id="link_Notification Service_User Devices"><path d="M1768.6,87.68 C1768.6,109.46 1768.6,136.29 1768.6,158.03" fill="none" id="Notification Service-to-User Devices" style="stroke:#181818;stroke-width:1;"/><polygon fill="#181818" points="1768.6,164.03,1772.6,155.03,1768.6,159.03,1764.6,155.03,1768.6,164.03" style="stroke:#181818;stroke-width:1;"/><text fill="#000000" font-family="sans-serif" font-size="13" lengthAdjust="spacing" textLength="201.1445" x="1769.6" y="130.3669">Stage-based push notifications</text></g><!--link Order Service to Audit Log--><g class="link" data-entity-1="Order Service" data-entity-2="Audit Log" data-source-line="28" data-uid="lnk35" id="link_Order Service_Audit Log"><path d="M897.32,314.28 C861.2,319.54 819.67,332.64 796.6,363.89 C786.88,377.07 785.9903,389.3535 788.8903,404.7635" fill="none" id="Order Service-to-Audit Log" style="stroke:#181818;stroke-width:1;"/><polygon fill="#181818" points="790,410.66,792.2665,401.0755,789.0753,405.7463,784.4045,402.555,790,410.66" style="stroke:#181818;stroke-width:1;"/><text fill="#000000" font-family="sans-serif" font-size="13" lengthAdjust="spacing" textLength="124.1792" x="797.6" y="376.9569">Log for compliance</text></g><!--SRC=[fPLDRzf048Rl_8fHxYZtAa8YHeggfWs2fZr4EOpNOxDbsNNtWuXM-U-TNTi8uq2emWN9tlUPTpvsNADOOqLmzM0Bid0lIn8xeUWA_ew0VqyPMWzBibifw1d6umayVINdekRMcZNPP_W4sOh4sWI_eD-1dAS2Q4lQZnh4yVa4QUBjmUynZeudH8OUbQcY-0SgMQ0dm2rAXRbKqkzEA-Uusp0R7gnOSIoBtgGysjXGj-yn-9MnyWzwQNJhv6rj3tl7Jbvm1zC2QzzKQDgIg6FtOGF5MPlpj-o19HUKVz_beFB7E2fELsxO-tGgCxgKTdD1qz8p1xFRg7siKzDCEkSy-k306n0TxLplEQy310eljosfZRxWl35OrFxwY_HyNCDdxQcogLodYZ4LQsrU51MSP6sfHdlO_1af3cDtN3FhDIlx3HlG5bH9dcKBHIVyPVABK9a9LlPXov0xOMLEiKRAYARj8HN0jGO7iWJxIVdAc3NR4HI3Hje-Vbjtr0NSpPTGIrsv1ZQK9Tg2K7cveMvgqmm5jpgoyiruMShMPT_FesEBCufFNChCyqoDStGyG7KawGEjEpDDqr183_VD4k0_A8tbyTdKIg8Mz87BKF8UOJSH5qbADMFmtnSZYVVtuh9haN42f5sSwzWS-iZY-MvbLN6uhP75jQKow6BqEXhLtTwVyHBb-XlU7lkTVs3cvYOUY9sPJBeFGhfvmnS7lUYzVFq7]--></g></svg>