<svg xmlns="http://www.w3.org/2000/svg" xmlns:xlink="http://www.w3.org/1999/xlink" contentStyleType="text/css" data-diagram-type="DESCRIPTION" height="443px" preserveAspectRatio="none" style="width:424px;height:443px;background:#FFFFFF;" version="1.1" viewBox="0 0 424 443" width="424px" zoomAndPan="magnify"><defs/><g><!--entity ContactAgent--><g class="entity" data-entity="ContactAgent" data-source-line="1" data-uid="ent0002" id="entity_ContactAgent"><ellipse cx="91.0592" cy="14" fill="#F1F1F1" rx="8" ry="8" style="stroke:#181818;stroke-width:0.5;"/><path d="M91.0592,22 L91.0592,49 M78.0592,30 L104.0592,30 M91.0592,49 L78.0592,64 M91.0592,49 L104.0592,64" fill="none" style="stroke:#181818;stroke-width:0.5;"/><text fill="#000000" font-family="sans-serif" font-size="14" lengthAdjust="spacing" textLength="100.3584" x="40.88" y="78.4951">Contact Agent</text></g><!--entity Supervisor--><g class="entity" data-entity="Supervisor" data-source-line="2" data-uid="ent0003" id="entity_Supervisor"><ellipse cx="380.0628" cy="151.3" fill="#F1F1F1" rx="8" ry="8" style="stroke:#181818;stroke-width:0.5;"/><path d="M380.0628,159.3 L380.0628,186.3 M367.0628,167.3 L393.0628,167.3 M380.0628,186.3 L367.0628,201.3 M380.0628,186.3 L393.0628,201.3" fill="none" style="stroke:#181818;stroke-width:0.5;"/><text fill="#000000" font-family="sans-serif" font-size="14" lengthAdjust="spacing" textLength="74.8057" x="342.66" y="215.7951">Supervisor</text></g><!--entity UC_CreateTicket--><g class="entity" data-entity="UC_CreateTicket" data-source-line="4" data-uid="ent0004" id="entity_UC_CreateTicket"><ellipse cx="71.0591" cy="180.9518" fill="#F1F1F1" rx="65.0591" ry="15.4118" style="stroke:#181818;stroke-width:0.5;"/><text fill="#000000" font-family="sans-serif" font-size="14" lengthAdjust="spacing" textLength="93.625" x="24.2466" y="185.6003">Create Ticket</text></g><!--entity UC_ManageTicket--><g class="entity" data-entity="UC_ManageTicket" data-source-line="5" data-uid="ent0005" id="entity_UC_ManageTicket"><ellipse cx="239.0557" cy="180.9471" fill="#F1F1F1" rx="68.4357" ry="16.0871" style="stroke:#181818;stroke-width:0.5;"/><text fill="#000000" font-family="sans-serif" font-size="14" lengthAdjust="spacing" textLength="102.4092" x="187.8511" y="185.5956">Manage Ticket</text></g><!--entity UC_EscalateTicket--><g class="entity" data-entity="UC_EscalateTicket" data-source-line="6" data-uid="ent0006" id="entity_UC_EscalateTicket"><ellipse cx="257.0553" cy="312.4531" fill="#F1F1F1" rx="69.7653" ry="16.3531" style="stroke:#181818;stroke-width:0.5;"/><text fill="#000000" font-family="sans-serif" font-size="14" lengthAdjust="spacing" textLength="105.7861" x="204.1622" y="317.1015">Escalate Ticket</text></g><!--entity UC_ResolveTicket--><g class="entity" data-entity="UC_ResolveTicket" data-source-line="7" data-uid="ent0007" id="entity_UC_ResolveTicket"><ellipse cx="319.0626" cy="421.8385" fill="#F1F1F1" rx="68.1926" ry="16.0385" style="stroke:#181818;stroke-width:0.5;"/><text fill="#000000" font-family="sans-serif" font-size="14" lengthAdjust="spacing" textLength="101.7871" x="268.1691" y="426.487">Resolve Ticket</text></g><!--link ContactAgent to UC_CreateTicket--><g class="link" data-entity-1="ContactAgent" data-entity-2="UC_CreateTicket" data-source-line="9" data-uid="lnk8" id="link_ContactAgent_UC_CreateTicket"><path d="M85.54,81.98 C81.47,109.51 77.0254,139.5542 74.1054,159.3542" fill="none" id="ContactAgent-to-UC_CreateTicket" style="stroke:#181818;stroke-width:1;"/><polygon fill="#181818" points="73.23,165.29,78.5003,156.9699,73.9595,160.3435,70.5859,155.8027,73.23,165.29" style="stroke:#181818;stroke-width:1;"/></g><!--link ContactAgent to UC_ManageTicket--><g class="link" data-entity-1="ContactAgent" data-entity-2="UC_ManageTicket" data-source-line="10" data-uid="lnk9" id="link_ContactAgent_UC_ManageTicket"><path d="M131.89,81.98 C161.84,109.36 196.4912,141.0321 218.2312,160.9021" fill="none" id="ContactAgent-to-UC_ManageTicket" style="stroke:#181818;stroke-width:1;"/><polygon fill="#181818" points="222.66,164.95,218.7153,155.9256,218.9693,161.5768,213.3182,161.8307,222.66,164.95" style="stroke:#181818;stroke-width:1;"/></g><!--link Supervisor to UC_EscalateTicket--><g class="link" data-entity-1="Supervisor" data-entity-2="UC_EscalateTicket" data-source-line="12" data-uid="lnk10" id="link_Supervisor_UC_EscalateTicket"><path d="M353.55,219.54 C342.14,234.67 328.19,251.87 314.06,266.1 C303.01,277.22 294.0957,284.6175 282.8857,292.9975" fill="none" id="Supervisor-to-UC_EscalateTicket" style="stroke:#181818;stroke-width:1;"/><polygon fill="#181818" points="278.08,296.59,287.6834,294.4051,282.0847,293.5963,282.8935,287.9976,278.08,296.59" style="stroke:#181818;stroke-width:1;"/></g><!--link Supervisor to UC_ResolveTicket--><g class="link" data-entity-1="Supervisor" data-entity-2="UC_ResolveTicket" data-source-line="13" data-uid="lnk11" id="link_Supervisor_UC_ResolveTicket"><path d="M382.22,219.35 C383.12,259.68 380.37,324.93 358.06,375.8 C353.07,387.17 348.4247,393.5295 340.3947,401.5895" fill="none" id="Supervisor-to-UC_ResolveTicket" style="stroke:#181818;stroke-width:1;"/><polygon fill="#181818" points="336.16,405.84,345.3458,402.2873,339.6889,402.2979,339.6784,396.641,336.16,405.84" style="stroke:#181818;stroke-width:1;"/></g><!--link UC_ManageTicket to UC_EscalateTicket--><g class="link" data-entity-1="UC_ManageTicket" data-entity-2="UC_EscalateTicket" data-source-line="15" data-uid="lnk12" id="link_UC_ManageTicket_UC_EscalateTicket"><path d="M239.29,197.25 C239.75,214.19 241.09,242.26 245.06,266.1 C246.72,276.06 247.9018,281.2495 250.4218,289.8995" fill="none" id="UC_ManageTicket-to-UC_EscalateTicket" style="stroke:#181818;stroke-width:1;"/><polygon fill="#181818" points="252.1,295.66,253.423,285.9004,250.7015,290.8596,245.7423,288.138,252.1,295.66" style="stroke:#181818;stroke-width:1;"/><text fill="#000000" font-family="sans-serif" font-size="13" lengthAdjust="spacing" textLength="63.0068" x="246.06" y="262.1669">&#171;include&#187;</text></g><!--link UC_EscalateTicket to UC_ResolveTicket--><g class="link" data-entity-1="UC_EscalateTicket" data-entity-2="UC_ResolveTicket" data-source-line="16" data-uid="lnk13" id="link_UC_EscalateTicket_UC_ResolveTicket"><path d="M264.47,329.09 C270.67,341.86 279.94,360.27 289.06,375.8 C295.05,386.01 299.0067,392.1386 304.9367,400.7486" fill="none" id="UC_EscalateTicket-to-UC_ResolveTicket" style="stroke:#181818;stroke-width:1;"/><polygon fill="#181818" points="308.34,405.69,306.5293,396.009,305.5039,401.5722,299.9408,400.5468,308.34,405.69" style="stroke:#181818;stroke-width:1;"/><text fill="#000000" font-family="sans-serif" font-size="13" lengthAdjust="spacing" textLength="63.0068" x="290.06" y="371.8669">&#171;include&#187;</text></g><!--SRC=[RP3B2iCW44NtViMGVNwWX409NNRJnxeCTWXIqU8ZtvyI3JQZopbpvd8LPR0EkicQW3B0UIOJEa0FcMn0OBBkyKjkKTwwJIcZ4D6JH4-_94SO21vAVYWbFQTNWeaLzOe6PwucoDMBbwZht1rp_KRUweNRcMPP_ByG-dwiYhQ4GprHVc3ViqQrm4gmo7OCd60Ob94wlcaSHRrlPH-FLW00]--></g></svg>