<svg xmlns="http://www.w3.org/2000/svg" xmlns:xlink="http://www.w3.org/1999/xlink" contentStyleType="text/css" data-diagram-type="DESCRIPTION" height="159px" preserveAspectRatio="none" style="width:3168px;height:159px;background:#FFFFFF;" version="1.1" viewBox="0 0 3168 159" width="3168px" zoomAndPan="magnify"><defs/><g><!--entity MarketingAnalyst--><g class="entity" data-entity="MarketingAnalyst" data-source-line="1" data-uid="ent0002" id="entity_MarketingAnalyst"><ellipse cx="96.5693" cy="86.04" fill="#F1F1F1" rx="8" ry="8" style="stroke:#181818;stroke-width:0.5;"/><path d="M96.5693,94.04 L96.5693,121.04 M83.5693,102.04 L109.5693,102.04 M96.5693,121.04 L83.5693,136.04 M96.5693,121.04 L109.5693,136.04" fill="none" style="stroke:#181818;stroke-width:0.5;"/><text fill="#000000" font-family="sans-serif" font-size="14" lengthAdjust="spacing" textLength="181.1387" x="6" y="150.5351">&#1605;&#1581;&#1604;&#1604; &#1575;&#1604;&#1578;&#1587;&#1608;&#1610;&#1602; &#1608;&#1575;&#1604;&#1593;&#1604;&#1575;&#1602;&#1575;&#1578; &#1575;&#1604;&#1593;&#1575;&#1605;&#1577;</text></g><!--entity SocialPlatforms--><g class="entity" data-entity="SocialPlatforms" data-source-line="2" data-uid="ent0003" id="entity_SocialPlatforms"><ellipse cx="2960.5729" cy="86.04" fill="#F1F1F1" rx="8" ry="8" style="stroke:#181818;stroke-width:0.5;"/><path d="M2960.5729,94.04 L2960.5729,121.04 M2947.5729,102.04 L2973.5729,102.04 M2960.5729,121.04 L2947.5729,136.04 M2960.5729,121.04 L2973.5729,136.04" fill="none" style="stroke:#181818;stroke-width:0.5;"/><text fill="#000000" font-family="sans-serif" font-size="14" lengthAdjust="spacing" textLength="402.4658" x="2759.34" y="150.5351">&#1605;&#1606;&#1589;&#1575;&#1578; &#1575;&#1604;&#1578;&#1608;&#1575;&#1589;&#1604; &#1575;&#1604;&#1575;&#1580;&#1578;&#1605;&#1575;&#1593;&#1610; (Facebook, X, LinkedIn, Instagram)</text></g><!--entity SystemAdmin--><g class="entity" data-entity="SystemAdmin" data-source-line="3" data-uid="ent0004" id="entity_SystemAdmin"><ellipse cx="1474.5707" cy="86.04" fill="#F1F1F1" rx="8" ry="8" style="stroke:#181818;stroke-width:0.5;"/><path d="M1474.5707,94.04 L1474.5707,121.04 M1461.5707,102.04 L1487.5707,102.04 M1474.5707,121.04 L1461.5707,136.04 M1474.5707,121.04 L1487.5707,136.04" fill="none" style="stroke:#181818;stroke-width:0.5;"/><text fill="#000000" font-family="sans-serif" font-size="14" lengthAdjust="spacing" textLength="85.4014" x="1431.87" y="150.5351">&#1605;&#1587;&#1572;&#1608;&#1604; &#1575;&#1604;&#1606;&#1592;&#1575;&#1605;</text></g><!--entity ConnectAccount--><g class="entity" data-entity="ConnectAccount" data-source-line="5" data-uid="ent0005" id="entity_ConnectAccount"><ellipse cx="671.572" cy="115.6884" fill="#F1F1F1" rx="95.042" ry="21.4084" style="stroke:#181818;stroke-width:0.5;"/><text fill="#000000" font-family="sans-serif" font-size="14" lengthAdjust="spacing" textLength="165.0674" x="589.0383" y="120.3368">Connect Social Account</text></g><!--entity OAuthConsent--><g class="entity" data-entity="OAuthConsent" data-source-line="6" data-uid="ent0006" id="entity_OAuthConsent"><ellipse cx="471.5672" cy="115.6914" fill="#F1F1F1" rx="69.7572" ry="16.3514" style="stroke:#181818;stroke-width:0.5;"/><text fill="#000000" font-family="sans-serif" font-size="14" lengthAdjust="spacing" textLength="105.7656" x="418.6843" y="120.3399">OAuth Consent</text></g><!--entity SelectAccounts--><g class="entity" data-entity="SelectAccounts" data-source-line="7" data-uid="ent0007" id="entity_SelectAccounts"><ellipse cx="294.5738" cy="115.6868" fill="#F1F1F1" rx="72.1338" ry="16.8268" style="stroke:#181818;stroke-width:0.5;"/><text fill="#000000" font-family="sans-serif" font-size="14" lengthAdjust="spacing" textLength="111.7061" x="238.7208" y="120.3352">Select Accounts</text></g><!--entity ScheduleSync--><g class="entity" data-entity="ScheduleSync" data-source-line="8" data-uid="ent0008" id="entity_ScheduleSync"><ellipse cx="1008.5656" cy="115.6871" fill="#F1F1F1" rx="106.8856" ry="23.7771" style="stroke:#181818;stroke-width:0.5;"/><text fill="#000000" font-family="sans-serif" font-size="14" lengthAdjust="spacing" textLength="191.126" x="913.0026" y="120.3356">Schedule Incremental Sync</text></g><!--entity BackfillData--><g class="entity" data-entity="BackfillData" data-source-line="9" data-uid="ent0009" id="entity_BackfillData"><ellipse cx="1304.5655" cy="115.6911" fill="#F1F1F1" rx="92.1055" ry="20.8211" style="stroke:#181818;stroke-width:0.5;"/><text fill="#000000" font-family="sans-serif" font-size="14" lengthAdjust="spacing" textLength="158.4912" x="1225.3199" y="120.3395">Backfill Historical Data</text></g><!--entity FetchMetrics--><g class="entity" data-entity="FetchMetrics" data-source-line="10" data-uid="ent0010" id="entity_FetchMetrics"><ellipse cx="2047.5685" cy="115.6897" fill="#F1F1F1" rx="65.1985" ry="15.4397" style="stroke:#181818;stroke-width:0.5;"/><text fill="#000000" font-family="sans-serif" font-size="14" lengthAdjust="spacing" textLength="93.9941" x="2000.5714" y="120.3381">Fetch Metrics</text></g><!--entity FetchPosts--><g class="entity" data-entity="FetchPosts" data-source-line="11" data-uid="ent0011" id="entity_FetchPosts"><ellipse cx="2664.5729" cy="115.6936" fill="#F1F1F1" rx="59.7529" ry="14.5236" style="stroke:#181818;stroke-width:0.5;"/><text fill="#000000" font-family="sans-serif" font-size="14" lengthAdjust="spacing" textLength="80.2607" x="2624.4425" y="120.3421">Fetch Posts</text></g><!--entity ConfigureVault--><g class="entity" data-entity="ConfigureVault" data-source-line="12" data-uid="ent0012" id="entity_ConfigureVault"><ellipse cx="1839.5675" cy="115.6915" fill="#F1F1F1" rx="107.8075" ry="23.9615" style="stroke:#181818;stroke-width:0.5;"/><text fill="#000000" font-family="sans-serif" font-size="14" lengthAdjust="spacing" textLength="193.1289" x="1743.0031" y="120.3399">Configure Credentials Vault</text></g><!--entity ApproveScopes--><g class="entity" data-entity="ApproveScopes" data-source-line="13" data-uid="ent0013" id="entity_ApproveScopes"><ellipse cx="1624.5729" cy="115.6886" fill="#F1F1F1" rx="72.6429" ry="16.9286" style="stroke:#181818;stroke-width:0.5;"/><text fill="#000000" font-family="sans-serif" font-size="14" lengthAdjust="spacing" textLength="112.9639" x="1568.091" y="120.337">Approve Scopes</text></g><!--entity RateLimitHandling--><g class="entity" data-entity="RateLimitHandling" data-source-line="14" data-uid="ent0014" id="entity_RateLimitHandling"><ellipse cx="2487.5708" cy="115.6882" fill="#F1F1F1" rx="81.8908" ry="18.7782" style="stroke:#181818;stroke-width:0.5;"/><text fill="#000000" font-family="sans-serif" font-size="14" lengthAdjust="spacing" textLength="135.1123" x="2420.0147" y="120.3366">Rate-limit Handling</text></g><!--entity RetriesThrottle--><g class="entity" data-entity="RetriesThrottle" data-source-line="15" data-uid="ent0015" id="entity_RetriesThrottle"><ellipse cx="2290.5658" cy="115.6932" fill="#F1F1F1" rx="80.1158" ry="18.4232" style="stroke:#181818;stroke-width:0.5;"/><text fill="#000000" font-family="sans-serif" font-size="14" lengthAdjust="spacing" textLength="130.9492" x="2225.0912" y="120.3416">Retries on Throttle</text></g><!--link MarketingAnalyst to ConnectAccount--><g class="link" data-entity-1="MarketingAnalyst" data-entity-2="ConnectAccount" data-source-line="17" data-uid="lnk16" id="link_MarketingAnalyst_ConnectAccount"><path d="M174.36,77.11 C189.82,71.07 206.19,65.77 222.07,62.54 C291.54,48.44 471.5,48.92 541.07,62.54 C573.6,68.91 602.8449,80.8253 628.2649,93.0753" fill="none" id="MarketingAnalyst-to-ConnectAccount" style="stroke:#181818;stroke-width:1;"/><polygon fill="#181818" points="633.67,95.68,627.2988,88.1695,629.1657,93.5094,623.8258,95.3763,633.67,95.68" style="stroke:#181818;stroke-width:1;"/></g><!--link MarketingAnalyst to OAuthConsent--><g class="link" data-entity-1="MarketingAnalyst" data-entity-2="OAuthConsent" data-source-line="18" data-uid="lnk17" id="link_MarketingAnalyst_OAuthConsent"><path d="M174.36,77.11 C189.82,71.07 206.19,65.77 222.07,62.54 C285.23,49.72 304.4,47.52 367.07,62.54 C396.96,69.71 422.8707,83.7003 443.2607,96.6103" fill="none" id="MarketingAnalyst-to-OAuthConsent" style="stroke:#181818;stroke-width:1;"/><polygon fill="#181818" points="448.33,99.82,442.8658,91.626,444.1056,97.1453,438.5862,98.3851,448.33,99.82" style="stroke:#181818;stroke-width:1;"/></g><!--link MarketingAnalyst to SelectAccounts--><g class="link" data-entity-1="MarketingAnalyst" data-entity-2="SelectAccounts" data-source-line="19" data-uid="lnk18" id="link_MarketingAnalyst_SelectAccounts"><path d="M187.45,115.69 C199.03,115.69 204.6,115.69 216.18,115.69" fill="none" id="MarketingAnalyst-to-SelectAccounts" style="stroke:#181818;stroke-width:1;"/><polygon fill="#181818" points="222.18,115.69,213.18,111.69,217.18,115.69,213.18,119.69,222.18,115.69" style="stroke:#181818;stroke-width:1;"/></g><!--link ConnectAccount to ScheduleSync--><g class="link" data-entity-1="ConnectAccount" data-entity-2="ScheduleSync" data-source-line="21" data-uid="lnk19" id="link_ConnectAccount_ScheduleSync"><path d="M766.79,115.69 C808.73,115.69 852.2,115.69 895.43,115.69" fill="none" id="ConnectAccount-to-ScheduleSync" style="stroke:#181818;stroke-width:1;stroke-dasharray:7,7;"/><polygon fill="#181818" points="901.43,115.69,892.43,111.69,896.43,115.69,892.43,119.69,901.43,115.69" style="stroke:#181818;stroke-width:1;"/><text fill="#000000" font-family="sans-serif" font-size="13" lengthAdjust="spacing" textLength="63.0068" x="802.65" y="108.7569">&#171;include&#187;</text></g><!--link ConnectAccount to ConfigureVault--><g class="link" data-entity-1="ConnectAccount" data-entity-2="ConfigureVault" data-source-line="22" data-uid="lnk20" id="link_ConnectAccount_ConfigureVault"><path d="M742.8,101.24 C784.06,93.29 837.08,83.8 884.57,77.54 C1250.3,29.35 1352.68,6 1714.57,77.54 C1736.61,81.9 1754.5694,86.7804 1775.3394,93.3504" fill="none" id="ConnectAccount-to-ConfigureVault" style="stroke:#181818;stroke-width:1;stroke-dasharray:7,7;"/><polygon fill="#181818" points="1781.06,95.16,1773.6854,88.6319,1776.2928,93.652,1771.2727,96.2594,1781.06,95.16" style="stroke:#181818;stroke-width:1;"/><text fill="#000000" font-family="sans-serif" font-size="13" lengthAdjust="spacing" textLength="63.0068" x="1288.07" y="43.6069">&#171;include&#187;</text></g><!--link ConnectAccount to ApproveScopes--><g class="link" data-entity-1="ConnectAccount" data-entity-2="ApproveScopes" data-source-line="23" data-uid="lnk21" id="link_ConnectAccount_ApproveScopes"><path d="M691.21,94.55 C709.05,77.02 737.1,53.39 767.07,43.32 C794.45,34.11 803.19,42.61 832.07,43.32 C1144.57,50.93 1229.84,7.86 1534.57,77.54 C1555.41,82.31 1572.1336,89.028 1589.2336,97.258" fill="none" id="ConnectAccount-to-ApproveScopes" style="stroke:#181818;stroke-width:1;stroke-dasharray:7,7;"/><polygon fill="#181818" points="1594.64,99.86,1588.2651,92.3527,1590.1346,97.6916,1584.7957,99.5612,1594.64,99.86" style="stroke:#181818;stroke-width:1;"/><text fill="#000000" font-family="sans-serif" font-size="13" lengthAdjust="spacing" textLength="63.0068" x="768.07" y="43.6069">&#171;include&#187;</text></g><!--reverse link OAuthConsent to SocialPlatforms--><g class="link" data-entity-1="OAuthConsent" data-entity-2="SocialPlatforms" data-source-line="25" data-uid="lnk22" id="link_OAuthConsent_SocialPlatforms"><path d="M499.8693,96.6103 C520.2593,83.7003 546.18,69.71 576.07,62.54 C634.09,48.64 2664.77,55.96 2724.07,62.54 C2752.82,65.73 2783.19,71.04 2812.23,77.11" fill="none" id="OAuthConsent-backto-SocialPlatforms" style="stroke:#181818;stroke-width:1;"/><polygon fill="#181818" points="494.8,99.82,504.5438,98.3851,499.0244,97.1453,500.2642,91.626,494.8,99.82" style="stroke:#181818;stroke-width:1;"/></g><!--reverse link FetchMetrics to SocialPlatforms--><g class="link" data-entity-1="FetchMetrics" data-entity-2="SocialPlatforms" data-source-line="26" data-uid="lnk23" id="link_FetchMetrics_SocialPlatforms"><path d="M2085.0574,99.6484 C2117.2974,86.5284 2163.32,69.99 2210.07,62.54 C2322.87,44.57 2610.54,49.94 2724.07,62.54 C2752.82,65.73 2783.19,71.04 2812.23,77.11" fill="none" id="FetchMetrics-backto-SocialPlatforms" style="stroke:#181818;stroke-width:1;"/><polygon fill="#181818" points="2079.5,101.91,2089.3439,102.2226,2084.1312,100.0253,2086.3284,94.8126,2079.5,101.91" style="stroke:#181818;stroke-width:1;"/></g><!--reverse link FetchPosts to SocialPlatforms--><g class="link" data-entity-1="FetchPosts" data-entity-2="SocialPlatforms" data-source-line="27" data-uid="lnk24" id="link_FetchPosts_SocialPlatforms"><path d="M2730.69,115.69 C2742.21,115.69 2747.73,115.69 2759.25,115.69" fill="none" id="FetchPosts-backto-SocialPlatforms" style="stroke:#181818;stroke-width:1;"/><polygon fill="#181818" points="2724.69,115.69,2733.69,119.69,2729.69,115.69,2733.69,111.69,2724.69,115.69" style="stroke:#181818;stroke-width:1;"/></g><!--link FetchMetrics to RateLimitHandling--><g class="link" data-entity-1="FetchMetrics" data-entity-2="RateLimitHandling" data-source-line="29" data-uid="lnk25" id="link_FetchMetrics_RateLimitHandling"><path d="M2074.24,101.14 C2108.45,83.38 2170.17,54.36 2227.07,43.32 C2311.86,26.87 2404.0787,68.5657 2452.1987,94.9457" fill="none" id="FetchMetrics-to-RateLimitHandling" style="stroke:#181818;stroke-width:1;stroke-dasharray:7,7;"/><polygon fill="#181818" points="2457.46,97.83,2451.491,89.9961,2453.0756,95.4264,2447.6452,97.0111,2457.46,97.83" style="stroke:#181818;stroke-width:1;"/><text fill="#000000" font-family="sans-serif" font-size="13" lengthAdjust="spacing" textLength="63.0068" x="2228.07" y="43.6069">&#171;include&#187;</text></g><!--link FetchMetrics to RetriesThrottle--><g class="link" data-entity-1="FetchMetrics" data-entity-2="RetriesThrottle" data-source-line="30" data-uid="lnk26" id="link_FetchMetrics_RetriesThrottle"><path d="M2113.01,115.69 C2142.95,115.69 2172.71,115.69 2204.26,115.69" fill="none" id="FetchMetrics-to-RetriesThrottle" style="stroke:#181818;stroke-width:1;stroke-dasharray:7,7;"/><polygon fill="#181818" points="2210.26,115.69,2201.26,111.69,2205.26,115.69,2201.26,119.69,2210.26,115.69" style="stroke:#181818;stroke-width:1;"/><text fill="#000000" font-family="sans-serif" font-size="13" lengthAdjust="spacing" textLength="61.1851" x="2131.11" y="108.7569">&#171;extend&#187;</text></g><!--link SelectAccounts to ScheduleSync--><g class="link" data-entity-1="SelectAccounts" data-entity-2="ScheduleSync" data-source-line="32" data-uid="lnk27" id="link_SelectAccounts_ScheduleSync"><path d="M324.55,100.07 C341.66,91.91 363.79,82.59 384.57,77.54 C580.56,29.95 635.53,50.93 837.07,43.32 C865.94,42.23 874.46,34.82 902.07,43.32 C933.26,52.91 958.9591,71.2016 979.1991,88.5016" fill="none" id="SelectAccounts-to-ScheduleSync" style="stroke:#181818;stroke-width:1;stroke-dasharray:7,7;"/><polygon fill="#181818" points="983.76,92.4,979.5175,83.5117,979.9592,89.1513,974.3196,89.593,983.76,92.4" style="stroke:#181818;stroke-width:1;"/><text fill="#000000" font-family="sans-serif" font-size="13" lengthAdjust="spacing" textLength="63.0068" x="838.07" y="43.6069">&#171;include&#187;</text></g><!--link ScheduleSync to BackfillData--><g class="link" data-entity-1="ScheduleSync" data-entity-2="BackfillData" data-source-line="33" data-uid="lnk28" id="link_ScheduleSync_BackfillData"><path d="M1115.85,115.69 C1147.45,115.69 1175.74,115.69 1206.31,115.69" fill="none" id="ScheduleSync-to-BackfillData" style="stroke:#181818;stroke-width:1;stroke-dasharray:7,7;"/><polygon fill="#181818" points="1212.31,115.69,1203.31,111.69,1207.31,115.69,1203.31,119.69,1212.31,115.69" style="stroke:#181818;stroke-width:1;"/><text fill="#000000" font-family="sans-serif" font-size="13" lengthAdjust="spacing" textLength="61.1851" x="1133.46" y="108.7569">&#171;extend&#187;</text></g><!--link SystemAdmin to ConfigureVault--><g class="link" data-entity-1="SystemAdmin" data-entity-2="ConfigureVault" data-source-line="35" data-uid="lnk29" id="link_SystemAdmin_ConfigureVault"><path d="M1517.65,79.53 C1528.28,72.55 1540.07,66.26 1552.07,62.54 C1635.1,36.81 1730.174,66.9527 1787.674,91.2727" fill="none" id="SystemAdmin-to-ConfigureVault" style="stroke:#181818;stroke-width:1;"/><polygon fill="#181818" points="1793.2,93.61,1786.4691,86.4201,1788.595,91.6623,1783.3528,93.7881,1793.2,93.61" style="stroke:#181818;stroke-width:1;"/></g><!--link SystemAdmin to ApproveScopes--><g class="link" data-entity-1="SystemAdmin" data-entity-2="ApproveScopes" data-source-line="36" data-uid="lnk30" id="link_SystemAdmin_ApproveScopes"><path d="M1517.64,115.69 C1528.91,115.69 1534.19,115.69 1545.47,115.69" fill="none" id="SystemAdmin-to-ApproveScopes" style="stroke:#181818;stroke-width:1;"/><polygon fill="#181818" points="1551.47,115.69,1542.47,111.69,1546.47,115.69,1542.47,119.69,1551.47,115.69" style="stroke:#181818;stroke-width:1;"/></g><!--SRC=[XLJ1QXin4BtlLmm-jM3t0uenk2aXWOI6kfHULUtO5jPAPgKjpJNO9UGx2gQcFOL0_2VItrGhQRkhjKiEjl6RzvwUPcQNK2rB6DYj-MCtTWDcPpTcRnxjlNsmTs3lFN1mdvszCpkp3uo3-zwQNmCW2gv9kKBDn68g2BzLEYEDf_rXdbhDlZOpJyqXE_FRGLltUx0FyEgSKFmgvMe8NuPmnSGAyqinX4kXD5cKf7Zjpvf9oWY_uKJFPLcezYZpQ7wwpC7RdVjS1mmI5mcBQLumaMMLGaeKmk1C2e5KHqEOKYeheRqWbYBKIZvCAxsigmeZqoCHQ7apvBLprAiGmcCDrE7I9UOLHtTFMcBXV5oOsQsWGHMhDT1gtX6wcZFEuO8fTtj6dUGzqSHBcc8Dj99pr7G9rwWTEmJoI0Jwl1kfT8Vb_oQTcxD5LIASbPYxnAv_2ZwJYlzhNwXxgDLDr-jIVaDtARd6O1-XWBJCZqJZYBE2QRWW8kTkjJozngzgk44xalecg40A-BGifTOSWoJW3PPb_MM5qQG_y5EKPDAd2Bq1Pwadl9aamuItC1upGNcLusHoWfmsyKLwqiWUE-jcX_7ew1dghi9_wtu9JbLJkSjoDALUdYD-EYBFnkyQHLw7J_lwGX-JagDs7uQ-R_jMY2lGNTfUDMdlNm00]--></g></svg>