<svg xmlns="http://www.w3.org/2000/svg" xmlns:xlink="http://www.w3.org/1999/xlink" contentStyleType="text/css" data-diagram-type="CLASS" height="315px" preserveAspectRatio="none" style="width:464px;height:315px;background:#FFFFFF;" version="1.1" viewBox="0 0 464 315" width="464px" zoomAndPan="magnify"><defs/><g><!--entity Web Server--><g class="entity" data-entity="Web Server" data-source-line="1" data-uid="ent0002" id="entity_Web Server"><polygon fill="#F1F1F1" points="16,16,26,6,137.7031,6,137.7031,42.2969,127.7031,52.2969,16,52.2969,16,16" style="stroke:#181818;stroke-width:0.5;"/><line style="stroke:#181818;stroke-width:0.5;" x1="127.7031" x2="137.7031" y1="16" y2="6"/><line style="stroke:#181818;stroke-width:0.5;" x1="16" x2="127.7031" y1="16" y2="16"/><line style="stroke:#181818;stroke-width:0.5;" x1="127.7031" x2="127.7031" y1="16" y2="52.2969"/><text fill="#000000" font-family="sans-serif" font-size="14" lengthAdjust="spacing" textLength="81.7031" x="31" y="38.9951">Web Server</text></g><!--entity Application Server--><g class="entity" data-entity="Application Server" data-source-line="4" data-uid="ent0003" id="entity_Application Server"><polygon fill="#F1F1F1" points="172.56,16,182.56,6,341.144,6,341.144,42.2969,331.144,52.2969,172.56,52.2969,172.56,16" style="stroke:#181818;stroke-width:0.5;"/><line style="stroke:#181818;stroke-width:0.5;" x1="331.144" x2="341.144" y1="16" y2="6"/><line style="stroke:#181818;stroke-width:0.5;" x1="172.56" x2="331.144" y1="16" y2="16"/><line style="stroke:#181818;stroke-width:0.5;" x1="331.144" x2="331.144" y1="16" y2="52.2969"/><text fill="#000000" font-family="sans-serif" font-size="14" lengthAdjust="spacing" textLength="128.584" x="187.56" y="38.9951">Application Server</text></g><!--entity Etimad Integration Node--><g class="entity" data-entity="Etimad Integration Node" data-source-line="7" data-uid="ent0004" id="entity_Etimad Integration Node"><polygon fill="#F1F1F1" points="150.9,139.3,160.9,129.3,362.8102,129.3,362.8102,165.5969,352.8102,175.5969,150.9,175.5969,150.9,139.3" style="stroke:#181818;stroke-width:0.5;"/><line style="stroke:#181818;stroke-width:0.5;" x1="352.8102" x2="362.8102" y1="139.3" y2="129.3"/><line style="stroke:#181818;stroke-width:0.5;" x1="150.9" x2="352.8102" y1="139.3" y2="139.3"/><line style="stroke:#181818;stroke-width:0.5;" x1="352.8102" x2="352.8102" y1="139.3" y2="175.5969"/><text fill="#000000" font-family="sans-serif" font-size="14" lengthAdjust="spacing" textLength="171.9102" x="165.9" y="162.2951">Etimad Integration Node</text></g><!--entity Etimad Platform--><g class="entity" data-entity="Etimad Platform" data-source-line="10" data-uid="ent0005" id="entity_Etimad Platform"><polygon fill="#F1F1F1" points="180.32,262.59,190.32,252.59,333.3864,252.59,333.3864,288.8869,323.3864,298.8869,180.32,298.8869,180.32,262.59" style="stroke:#181818;stroke-width:0.5;"/><line style="stroke:#181818;stroke-width:0.5;" x1="323.3864" x2="333.3864" y1="262.59" y2="252.59"/><line style="stroke:#181818;stroke-width:0.5;" x1="180.32" x2="323.3864" y1="262.59" y2="262.59"/><line style="stroke:#181818;stroke-width:0.5;" x1="323.3864" x2="323.3864" y1="262.59" y2="298.8869"/><text fill="#000000" font-family="sans-serif" font-size="14" lengthAdjust="spacing" textLength="113.0664" x="195.32" y="285.5851">Etimad Platform</text></g><!--link Application Server to Etimad Integration Node--><g class="link" data-entity-1="Application Server" data-entity-2="Etimad Integration Node" data-source-line="13" data-uid="lnk6" id="link_Application Server_Etimad Integration Node"><path codeLine="13" d="M256.85,52.68 C256.85,74.47 256.85,101.29 256.85,123.03" fill="none" id="Application Server-to-Etimad Integration Node" style="stroke:#181818;stroke-width:1;"/><polygon fill="#181818" points="256.85,129.03,260.85,120.03,256.85,124.03,252.85,120.03,256.85,129.03" style="stroke:#181818;stroke-width:1;"/><text fill="#000000" font-family="sans-serif" font-size="13" lengthAdjust="spacing" textLength="104.8506" x="257.85" y="95.3669">Secure API Calls</text></g><!--link Etimad Integration Node to Etimad Platform--><g class="link" data-entity-1="Etimad Integration Node" data-entity-2="Etimad Platform" data-source-line="14" data-uid="lnk7" id="link_Etimad Integration Node_Etimad Platform"><path codeLine="14" d="M256.85,175.98 C256.85,197.76 256.85,224.59 256.85,246.33" fill="none" id="Etimad Integration Node-to-Etimad Platform" style="stroke:#181818;stroke-width:1;"/><polygon fill="#181818" points="256.85,252.33,260.85,243.33,256.85,247.33,252.85,243.33,256.85,252.33" style="stroke:#181818;stroke-width:1;"/><text fill="#000000" font-family="sans-serif" font-size="13" lengthAdjust="spacing" textLength="198.6626" x="257.85" y="218.6569">Tender Readiness Assessment</text></g><!--SRC=[VOsn2i8m54NtVCMZUt-WWn34eOiK5PnZSvL0yb9UKXVntmrQg4DqUd3FuJoE5jISSQ4Zv0vfwA6UIl5xrjFatMYoYrp3k-o2iTHpnaq-rhw0cZDuawzHmiAgvRRT_6bsnHjd0UcXfwtnFgdVydTgVTtH2MmXT82nZf4IwPJA2U2iNW00]--></g></svg>