<svg xmlns="http://www.w3.org/2000/svg" xmlns:xlink="http://www.w3.org/1999/xlink" contentStyleType="text/css" data-diagram-type="ACTIVITY" height="576px" preserveAspectRatio="none" style="width:412px;height:576px;background:#FFFFFF;" version="1.1" viewBox="0 0 412 576" width="412px" zoomAndPan="magnify"><defs/><g><ellipse cx="206.4023" cy="20" fill="#222222" rx="10" ry="10" style="stroke:#222222;stroke-width:1;"/><rect fill="#F1F1F1" height="33.9688" rx="12.5" ry="12.5" style="stroke:#181818;stroke-width:0.5;" width="257.1113" x="77.8467" y="50"/><text fill="#000000" font-family="sans-serif" font-size="12" lengthAdjust="spacing" textLength="237.1113" x="87.8467" y="71.1387">Receive Data from Marketing Database</text><rect fill="#F1F1F1" height="33.9688" rx="12.5" ry="12.5" style="stroke:#181818;stroke-width:0.5;" width="264.3066" x="74.249" y="103.9688"/><text fill="#000000" font-family="sans-serif" font-size="12" lengthAdjust="spacing" textLength="244.3066" x="84.249" y="125.1074">Receive Data from Competitor Database</text><rect fill="#555555" height="6" rx="2.5" ry="2.5" style="stroke:#555555;stroke-width:1;" width="390.8047" x="11" y="157.9375"/><rect fill="#F1F1F1" height="33.9688" rx="12.5" ry="12.5" style="stroke:#181818;stroke-width:0.5;" width="165.8047" x="23" y="183.9375"/><text fill="#000000" font-family="sans-serif" font-size="12" lengthAdjust="spacing" textLength="145.8047" x="33" y="205.0762">Validate Marketing Data</text><rect fill="#F1F1F1" height="33.9688" rx="12.5" ry="12.5" style="stroke:#181818;stroke-width:0.5;" width="173" x="216.8047" y="183.9375"/><text fill="#000000" font-family="sans-serif" font-size="12" lengthAdjust="spacing" textLength="153" x="226.8047" y="205.0762">Validate Competitor Data</text><rect fill="#555555" height="6" rx="2.5" ry="2.5" style="stroke:#555555;stroke-width:1;" width="390.8047" x="11" y="237.9063"/><rect fill="#F1F1F1" height="33.9688" rx="12.5" ry="12.5" style="stroke:#181818;stroke-width:0.5;" width="150.8574" x="130.9736" y="263.9063"/><text fill="#000000" font-family="sans-serif" font-size="12" lengthAdjust="spacing" textLength="130.8574" x="140.9736" y="285.0449">Merge Validated Data</text><polygon fill="#F1F1F1" points="153.2339,317.875,259.5708,317.875,271.5708,329.875,259.5708,341.875,153.2339,341.875,141.2339,329.875,153.2339,317.875" style="stroke:#181818;stroke-width:0.5;"/><text fill="#000000" font-family="sans-serif" font-size="11" lengthAdjust="spacing" textLength="106.3369" x="153.2339" y="333.6831">Is Data Consistent?</text><text fill="#000000" font-family="sans-serif" font-size="11" lengthAdjust="spacing" textLength="19.0083" x="122.2256" y="327.2808">yes</text><text fill="#000000" font-family="sans-serif" font-size="11" lengthAdjust="spacing" textLength="13.7017" x="271.5708" y="327.2808">no</text><rect fill="#F1F1F1" height="33.9688" rx="12.5" ry="12.5" style="stroke:#181818;stroke-width:0.5;" width="98.4629" x="82.0024" y="351.875"/><text fill="#000000" font-family="sans-serif" font-size="12" lengthAdjust="spacing" textLength="78.4629" x="92.0024" y="373.0137">Process Data</text><rect fill="#F1F1F1" height="33.9688" rx="12.5" ry="12.5" style="stroke:#181818;stroke-width:0.5;" width="137.2461" x="212.9478" y="351.875"/><text fill="#000000" font-family="sans-serif" font-size="12" lengthAdjust="spacing" textLength="117.2461" x="222.9478" y="373.0137">Log Inconsistencies</text><rect fill="#F1F1F1" height="33.9688" rx="12.5" ry="12.5" style="stroke:#181818;stroke-width:0.5;" width="136.5254" x="213.3081" y="405.8438"/><text fill="#000000" font-family="sans-serif" font-size="12" lengthAdjust="spacing" textLength="116.5254" x="223.3081" y="426.9824">Notify Data Analyst</text><polygon fill="#F1F1F1" points="206.4023,445.8125,218.4023,457.8125,206.4023,469.8125,194.4023,457.8125,206.4023,445.8125" style="stroke:#181818;stroke-width:0.5;"/><rect fill="#F1F1F1" height="33.9688" rx="12.5" ry="12.5" style="stroke:#181818;stroke-width:0.5;" width="120.1777" x="146.3135" y="489.8125"/><text fill="#000000" font-family="sans-serif" font-size="12" lengthAdjust="spacing" textLength="100.1777" x="156.3135" y="510.9512">Generate Report</text><ellipse cx="206.4023" cy="554.7813" fill="none" rx="11" ry="11" style="stroke:#222222;stroke-width:1;"/><ellipse cx="206.4023" cy="554.7813" fill="#222222" rx="6" ry="6" style="stroke:#222222;stroke-width:1;"/><line style="stroke:#181818;stroke-width:1;" x1="206.4023" x2="206.4023" y1="30" y2="50"/><polygon fill="#181818" points="202.4023,40,206.4023,50,210.4023,40,206.4023,44" style="stroke:#181818;stroke-width:1;"/><line style="stroke:#181818;stroke-width:1;" x1="206.4023" x2="206.4023" y1="83.9688" y2="103.9688"/><polygon fill="#181818" points="202.4023,93.9688,206.4023,103.9688,210.4023,93.9688,206.4023,97.9688" style="stroke:#181818;stroke-width:1;"/><line style="stroke:#181818;stroke-width:1;" x1="105.9023" x2="105.9023" y1="163.9375" y2="183.9375"/><polygon fill="#181818" points="101.9023,173.9375,105.9023,183.9375,109.9023,173.9375,105.9023,177.9375" style="stroke:#181818;stroke-width:1;"/><line style="stroke:#181818;stroke-width:1;" x1="303.3047" x2="303.3047" y1="163.9375" y2="183.9375"/><polygon fill="#181818" points="299.3047,173.9375,303.3047,183.9375,307.3047,173.9375,303.3047,177.9375" style="stroke:#181818;stroke-width:1;"/><line style="stroke:#181818;stroke-width:1;" x1="105.9023" x2="105.9023" y1="217.9063" y2="237.9063"/><polygon fill="#181818" points="101.9023,227.9063,105.9023,237.9063,109.9023,227.9063,105.9023,231.9063" style="stroke:#181818;stroke-width:1;"/><line style="stroke:#181818;stroke-width:1;" x1="303.3047" x2="303.3047" y1="217.9063" y2="237.9063"/><polygon fill="#181818" points="299.3047,227.9063,303.3047,237.9063,307.3047,227.9063,303.3047,231.9063" style="stroke:#181818;stroke-width:1;"/><line style="stroke:#181818;stroke-width:1;" x1="206.4023" x2="206.4023" y1="137.9375" y2="157.9375"/><polygon fill="#181818" points="202.4023,147.9375,206.4023,157.9375,210.4023,147.9375,206.4023,151.9375" style="stroke:#181818;stroke-width:1;"/><line style="stroke:#181818;stroke-width:1;" x1="206.4023" x2="206.4023" y1="243.9063" y2="263.9063"/><polygon fill="#181818" points="202.4023,253.9063,206.4023,263.9063,210.4023,253.9063,206.4023,257.9063" style="stroke:#181818;stroke-width:1;"/><line style="stroke:#181818;stroke-width:1;" x1="281.5708" x2="281.5708" y1="385.8438" y2="405.8438"/><polygon fill="#181818" points="277.5708,395.8438,281.5708,405.8438,285.5708,395.8438,281.5708,399.8438" style="stroke:#181818;stroke-width:1;"/><line style="stroke:#181818;stroke-width:1;" x1="141.2339" x2="131.2339" y1="329.875" y2="329.875"/><line style="stroke:#181818;stroke-width:1;" x1="131.2339" x2="131.2339" y1="329.875" y2="351.875"/><polygon fill="#181818" points="127.2339,341.875,131.2339,351.875,135.2339,341.875,131.2339,345.875" style="stroke:#181818;stroke-width:1;"/><line style="stroke:#181818;stroke-width:1;" x1="271.5708" x2="281.5708" y1="329.875" y2="329.875"/><line style="stroke:#181818;stroke-width:1;" x1="281.5708" x2="281.5708" y1="329.875" y2="351.875"/><polygon fill="#181818" points="277.5708,341.875,281.5708,351.875,285.5708,341.875,281.5708,345.875" style="stroke:#181818;stroke-width:1;"/><line style="stroke:#181818;stroke-width:1;" x1="131.2339" x2="131.2339" y1="385.8438" y2="457.8125"/><line style="stroke:#181818;stroke-width:1;" x1="131.2339" x2="194.4023" y1="457.8125" y2="457.8125"/><polygon fill="#181818" points="184.4023,453.8125,194.4023,457.8125,184.4023,461.8125,188.4023,457.8125" style="stroke:#181818;stroke-width:1;"/><line style="stroke:#181818;stroke-width:1;" x1="281.5708" x2="281.5708" y1="439.8125" y2="457.8125"/><line style="stroke:#181818;stroke-width:1;" x1="281.5708" x2="218.4023" y1="457.8125" y2="457.8125"/><polygon fill="#181818" points="228.4023,453.8125,218.4023,457.8125,228.4023,461.8125,224.4023,457.8125" style="stroke:#181818;stroke-width:1;"/><line style="stroke:#181818;stroke-width:1;" x1="206.4023" x2="206.4023" y1="297.875" y2="317.875"/><polygon fill="#181818" points="202.4023,307.875,206.4023,317.875,210.4023,307.875,206.4023,311.875" style="stroke:#181818;stroke-width:1;"/><line style="stroke:#181818;stroke-width:1;" x1="206.4023" x2="206.4023" y1="469.8125" y2="489.8125"/><polygon fill="#181818" points="202.4023,479.8125,206.4023,489.8125,210.4023,479.8125,206.4023,483.8125" style="stroke:#181818;stroke-width:1;"/><line style="stroke:#181818;stroke-width:1;" x1="206.4023" x2="206.4023" y1="523.7813" y2="543.7813"/><polygon fill="#181818" points="202.4023,533.7813,206.4023,543.7813,210.4023,533.7813,206.4023,537.7813" style="stroke:#181818;stroke-width:1;"/><!--SRC=[ROv1QiD034NtSmejdIlOYr1IA84ab2owLsoD8-98HX85tpxsf8OsTFl_qzFtG8kKwZErnDy4xnW8sVGEHxGR1KjViWiwDVzXExsFCnPglxYKrMu9eFx2WJiCUh4r1G3iaUKFzc9h4aa7HPRg8rbFiABT3v0uGxNtvwATYhC7IMmt45SIg2RopVBYqxGbzrKxE44bMgg3zh2NThrjcRnPyfC6v-bfVXCS9eyoYFEyveE4R9byfb5jBfA7ZWy0]--></g></svg>