<svg xmlns="http://www.w3.org/2000/svg" xmlns:xlink="http://www.w3.org/1999/xlink" contentStyleType="text/css" data-diagram-type="SEQUENCE" height="356px" preserveAspectRatio="none" style="width:629px;height:356px;background:#FFFFFF;" version="1.1" viewBox="0 0 629 356" width="629px" zoomAndPan="magnify"><defs/><g><g><title>User</title><rect fill="#000000" fill-opacity="0.00000" height="194.7969" width="8" x="19.9551" y="81.2969"/><line style="stroke:#181818;stroke-width:0.5;stroke-dasharray:5,5;" x1="23" x2="23" y1="81.2969" y2="276.0938"/></g><g><title>Scheduler</title><rect fill="#000000" fill-opacity="0.00000" height="194.7969" width="8" x="90.9546" y="81.2969"/><line style="stroke:#181818;stroke-width:0.5;stroke-dasharray:5,5;" x1="94.9102" x2="94.9102" y1="81.2969" y2="276.0938"/></g><g><title>AnomalyEngine</title><rect fill="#000000" fill-opacity="0.00000" height="194.7969" width="8" x="287.4521" y="81.2969"/><line style="stroke:#181818;stroke-width:0.5;stroke-dasharray:5,5;" x1="290.7578" x2="290.7578" y1="81.2969" y2="276.0938"/></g><g><title>MetricsStore</title><rect fill="#000000" fill-opacity="0.00000" height="194.7969" width="8" x="452.4082" y="81.2969"/><line style="stroke:#181818;stroke-width:0.5;stroke-dasharray:5,5;" x1="456.3438" x2="456.3438" y1="81.2969" y2="276.0938"/></g><g><title>AlertsService</title><rect fill="#000000" fill-opacity="0.00000" height="194.7969" width="8" x="566.6528" y="81.2969"/><line style="stroke:#181818;stroke-width:0.5;stroke-dasharray:5,5;" x1="570.4727" x2="570.4727" y1="81.2969" y2="276.0938"/></g><g class="participant participant-head" data-participant="User"><text fill="#000000" font-family="sans-serif" font-size="14" lengthAdjust="spacing" textLength="31.9102" x="5" y="77.9951">User</text><ellipse cx="23.9551" cy="13.5" fill="#E2E2F0" rx="8" ry="8" style="stroke:#181818;stroke-width:0.5;"/><path d="M23.9551,21.5 L23.9551,48.5 M10.9551,29.5 L36.9551,29.5 M23.9551,48.5 L10.9551,63.5 M23.9551,48.5 L36.9551,63.5" fill="none" style="stroke:#181818;stroke-width:0.5;"/></g><g class="participant participant-tail" data-participant="User"><text fill="#000000" font-family="sans-serif" font-size="14" lengthAdjust="spacing" textLength="31.9102" x="5" y="288.0889">User</text><ellipse cx="23.9551" cy="299.8906" fill="#E2E2F0" rx="8" ry="8" style="stroke:#181818;stroke-width:0.5;"/><path d="M23.9551,307.8906 L23.9551,334.8906 M10.9551,315.8906 L36.9551,315.8906 M23.9551,334.8906 L10.9551,349.8906 M23.9551,334.8906 L36.9551,349.8906" fill="none" style="stroke:#181818;stroke-width:0.5;"/></g><g class="participant participant-head" data-participant="Scheduler"><rect fill="#E2E2F0" height="30.2969" rx="2.5" ry="2.5" style="stroke:#181818;stroke-width:0.5;" width="84.0889" x="52.9102" y="50"/><text fill="#000000" font-family="sans-serif" font-size="14" lengthAdjust="spacing" textLength="70.0889" x="59.9102" y="69.9951">Scheduler</text></g><g class="participant participant-tail" data-participant="Scheduler"><rect fill="#E2E2F0" height="30.2969" rx="2.5" ry="2.5" style="stroke:#181818;stroke-width:0.5;" width="84.0889" x="52.9102" y="275.0938"/><text fill="#000000" font-family="sans-serif" font-size="14" lengthAdjust="spacing" textLength="70.0889" x="59.9102" y="295.0889">Scheduler</text></g><g class="participant participant-head" data-participant="AnomalyEngine"><rect fill="#E2E2F0" height="30.2969" rx="2.5" ry="2.5" style="stroke:#181818;stroke-width:0.5;" width="123.3887" x="229.7578" y="50"/><text fill="#000000" font-family="sans-serif" font-size="14" lengthAdjust="spacing" textLength="109.3887" x="236.7578" y="69.9951">AnomalyEngine</text></g><g class="participant participant-tail" data-participant="AnomalyEngine"><rect fill="#E2E2F0" height="30.2969" rx="2.5" ry="2.5" style="stroke:#181818;stroke-width:0.5;" width="123.3887" x="229.7578" y="275.0938"/><text fill="#000000" font-family="sans-serif" font-size="14" lengthAdjust="spacing" textLength="109.3887" x="236.7578" y="295.0889">AnomalyEngine</text></g><g class="participant participant-head" data-participant="MetricsStore"><rect fill="#E2E2F0" height="30.2969" rx="2.5" ry="2.5" style="stroke:#181818;stroke-width:0.5;" width="102.1289" x="405.3438" y="50"/><text fill="#000000" font-family="sans-serif" font-size="14" lengthAdjust="spacing" textLength="88.1289" x="412.3438" y="69.9951">MetricsStore</text></g><g class="participant participant-tail" data-participant="MetricsStore"><rect fill="#E2E2F0" height="30.2969" rx="2.5" ry="2.5" style="stroke:#181818;stroke-width:0.5;" width="102.1289" x="405.3438" y="275.0938"/><text fill="#000000" font-family="sans-serif" font-size="14" lengthAdjust="spacing" textLength="88.1289" x="412.3438" y="295.0889">MetricsStore</text></g><g class="participant participant-head" data-participant="AlertsService"><rect fill="#E2E2F0" height="30.2969" rx="2.5" ry="2.5" style="stroke:#181818;stroke-width:0.5;" width="106.3604" x="517.4727" y="50"/><text fill="#000000" font-family="sans-serif" font-size="14" lengthAdjust="spacing" textLength="92.3604" x="524.4727" y="69.9951">AlertsService</text></g><g class="participant participant-tail" data-participant="AlertsService"><rect fill="#E2E2F0" height="30.2969" rx="2.5" ry="2.5" style="stroke:#181818;stroke-width:0.5;" width="106.3604" x="517.4727" y="275.0938"/><text fill="#000000" font-family="sans-serif" font-size="14" lengthAdjust="spacing" textLength="92.3604" x="524.4727" y="295.0889">AlertsService</text></g><g class="message" data-participant-1="Scheduler" data-participant-2="AnomalyEngine"><polygon fill="#181818" points="279.4521,108.4297,289.4521,112.4297,279.4521,116.4297,283.4521,112.4297" style="stroke:#181818;stroke-width:1;"/><line style="stroke:#181818;stroke-width:1;" x1="94.9546" x2="285.4521" y1="112.4297" y2="112.4297"/><text fill="#000000" font-family="sans-serif" font-size="13" lengthAdjust="spacing" textLength="172.4976" x="101.9546" y="107.3638">Trigger anomaly detection</text></g><g class="message" data-participant-1="AnomalyEngine" data-participant-2="MetricsStore"><polygon fill="#181818" points="444.4082,137.5625,454.4082,141.5625,444.4082,145.5625,448.4082,141.5625" style="stroke:#181818;stroke-width:1;"/><line style="stroke:#181818;stroke-width:1;" x1="291.4521" x2="450.4082" y1="141.5625" y2="141.5625"/><text fill="#000000" font-family="sans-serif" font-size="13" lengthAdjust="spacing" textLength="140.9561" x="298.4521" y="136.4966">Retrieve metrics data</text></g><g class="message" data-participant-1="MetricsStore" data-participant-2="AnomalyEngine"><polygon fill="#181818" points="302.4521,166.6953,292.4521,170.6953,302.4521,174.6953,298.4521,170.6953" style="stroke:#181818;stroke-width:1;"/><line style="stroke:#181818;stroke-width:1;" x1="296.4521" x2="455.4082" y1="170.6953" y2="170.6953"/><text fill="#000000" font-family="sans-serif" font-size="13" lengthAdjust="spacing" textLength="130.1333" x="308.4521" y="165.6294">Return metrics data</text></g><g class="message" data-participant-1="AnomalyEngine" data-participant-2="AlertsService"><polygon fill="#181818" points="558.6528,195.8281,568.6528,199.8281,558.6528,203.8281,562.6528,199.8281" style="stroke:#181818;stroke-width:1;"/><line style="stroke:#181818;stroke-width:1;" x1="291.4521" x2="564.6528" y1="199.8281" y2="199.8281"/><text fill="#000000" font-family="sans-serif" font-size="13" lengthAdjust="spacing" textLength="133.8911" x="298.4521" y="194.7622">Send anomaly alerts</text></g><g class="message" data-participant-1="AlertsService" data-participant-2="User"><polygon fill="#181818" points="34.9551,224.9609,24.9551,228.9609,34.9551,232.9609,30.9551,228.9609" style="stroke:#181818;stroke-width:1;"/><line style="stroke:#181818;stroke-width:1;" x1="28.9551" x2="569.6528" y1="228.9609" y2="228.9609"/><text fill="#000000" font-family="sans-serif" font-size="13" lengthAdjust="spacing" textLength="151.2139" x="40.9551" y="223.895">Notify about anomalies</text></g><g class="message" data-participant-1="User" data-participant-2="AnomalyEngine"><polygon fill="#181818" points="279.4521,254.0938,289.4521,258.0938,279.4521,262.0938,283.4521,258.0938" style="stroke:#181818;stroke-width:1;"/><line style="stroke:#181818;stroke-width:1;" x1="23.9551" x2="285.4521" y1="258.0938" y2="258.0938"/><text fill="#000000" font-family="sans-serif" font-size="13" lengthAdjust="spacing" textLength="112.5439" x="30.9551" y="253.0278">Provide feedback</text></g><!--SRC=[ROz13i8m30JlUOK_m0TwGEg18mWHU42QR8j5cqYkMudVar24gEZHkplssdbDGhSHOeprTuIfXz1kJtLCW-kVXzXnH4LNuQxBZbja2b1uvHJDAbZ88rJOZpOlpk2bJ9X1mo9JSEhCRsRZMeOcYMlaxqwTc-fe8JFxp5Z4yAtdtfvPHGfJ7gteb9JR76hIf1-4CPfYRfGvIvevW5eWDCu_NW00]--></g></svg>