<svg xmlns="http://www.w3.org/2000/svg" xmlns:xlink="http://www.w3.org/1999/xlink" contentStyleType="text/css" data-diagram-type="SEQUENCE" height="415px" preserveAspectRatio="none" style="width:679px;height:415px;background:#FFFFFF;" version="1.1" viewBox="0 0 679 415" width="679px" zoomAndPan="magnify"><defs/><g><g><title>User</title><rect fill="#000000" fill-opacity="0.00000" height="253.0625" width="8" x="19.9551" y="81.2969"/><line style="stroke:#181818;stroke-width:0.5;stroke-dasharray:5,5;" x1="23" x2="23" y1="81.2969" y2="334.3594"/></g><g><title>App</title><rect fill="#000000" fill-opacity="0.00000" height="253.0625" width="8" x="155.6167" y="81.2969"/><line style="stroke:#181818;stroke-width:0.5;stroke-dasharray:5,5;" x1="158.9414" x2="158.9414" y1="81.2969" y2="334.3594"/></g><g><title>GPS</title><rect fill="#000000" fill-opacity="0.00000" height="253.0625" width="8" x="305.9668" y="81.2969"/><line style="stroke:#181818;stroke-width:0.5;stroke-dasharray:5,5;" x1="309.8779" x2="309.8779" y1="81.2969" y2="334.3594"/></g><g><title>Geocoding</title><rect fill="#000000" fill-opacity="0.00000" height="253.0625" width="8" x="381.4688" y="81.2969"/><line style="stroke:#181818;stroke-width:0.5;stroke-dasharray:5,5;" x1="385.0557" x2="385.0557" y1="81.2969" y2="334.3594"/></g><g><title>Database</title><rect fill="#000000" fill-opacity="0.00000" height="253.0625" width="8" x="476.2822" y="81.2969"/><line style="stroke:#181818;stroke-width:0.5;stroke-dasharray:5,5;" x1="479.8818" x2="479.8818" y1="81.2969" y2="334.3594"/></g><g><title>RestaurantService</title><rect fill="#000000" fill-opacity="0.00000" height="253.0625" width="8" x="598.1899" y="81.2969"/><line style="stroke:#181818;stroke-width:0.5;stroke-dasharray:5,5;" x1="601.6826" x2="601.6826" y1="81.2969" y2="334.3594"/></g><g class="participant participant-head" data-participant="User"><text fill="#000000" font-family="sans-serif" font-size="14" lengthAdjust="spacing" textLength="31.9102" x="5" y="77.9951">User</text><ellipse cx="23.9551" cy="13.5" fill="#E2E2F0" rx="8" ry="8" style="stroke:#181818;stroke-width:0.5;"/><path d="M23.9551,21.5 L23.9551,48.5 M10.9551,29.5 L36.9551,29.5 M23.9551,48.5 L10.9551,63.5 M23.9551,48.5 L36.9551,63.5" fill="none" style="stroke:#181818;stroke-width:0.5;"/></g><g class="participant participant-tail" data-participant="User"><text fill="#000000" font-family="sans-serif" font-size="14" lengthAdjust="spacing" textLength="31.9102" x="5" y="346.3545">User</text><ellipse cx="23.9551" cy="358.1563" fill="#E2E2F0" rx="8" ry="8" style="stroke:#181818;stroke-width:0.5;"/><path d="M23.9551,366.1563 L23.9551,393.1563 M10.9551,374.1563 L36.9551,374.1563 M23.9551,393.1563 L10.9551,408.1563 M23.9551,393.1563 L36.9551,408.1563" fill="none" style="stroke:#181818;stroke-width:0.5;"/></g><g class="participant participant-head" data-participant="App"><rect fill="#E2E2F0" height="30.2969" rx="2.5" ry="2.5" style="stroke:#181818;stroke-width:0.5;" width="41.3506" x="138.9414" y="50"/><text fill="#000000" font-family="sans-serif" font-size="14" lengthAdjust="spacing" textLength="27.3506" x="145.9414" y="69.9951">App</text></g><g class="participant participant-tail" data-participant="App"><rect fill="#E2E2F0" height="30.2969" rx="2.5" ry="2.5" style="stroke:#181818;stroke-width:0.5;" width="41.3506" x="138.9414" y="333.3594"/><text fill="#000000" font-family="sans-serif" font-size="14" lengthAdjust="spacing" textLength="27.3506" x="145.9414" y="353.3545">App</text></g><g class="participant participant-head" data-participant="GPS"><rect fill="#E2E2F0" height="30.2969" rx="2.5" ry="2.5" style="stroke:#181818;stroke-width:0.5;" width="42.1777" x="288.8779" y="50"/><text fill="#000000" font-family="sans-serif" font-size="14" lengthAdjust="spacing" textLength="28.1777" x="295.8779" y="69.9951">GPS</text></g><g class="participant participant-tail" data-participant="GPS"><rect fill="#E2E2F0" height="30.2969" rx="2.5" ry="2.5" style="stroke:#181818;stroke-width:0.5;" width="42.1777" x="288.8779" y="333.3594"/><text fill="#000000" font-family="sans-serif" font-size="14" lengthAdjust="spacing" textLength="28.1777" x="295.8779" y="353.3545">GPS</text></g><g class="participant participant-head" data-participant="Geocoding"><rect fill="#E2E2F0" height="30.2969" rx="2.5" ry="2.5" style="stroke:#181818;stroke-width:0.5;" width="88.8262" x="341.0557" y="50"/><text fill="#000000" font-family="sans-serif" font-size="14" lengthAdjust="spacing" textLength="74.8262" x="348.0557" y="69.9951">Geocoding</text></g><g class="participant participant-tail" data-participant="Geocoding"><rect fill="#E2E2F0" height="30.2969" rx="2.5" ry="2.5" style="stroke:#181818;stroke-width:0.5;" width="88.8262" x="341.0557" y="333.3594"/><text fill="#000000" font-family="sans-serif" font-size="14" lengthAdjust="spacing" textLength="74.8262" x="348.0557" y="353.3545">Geocoding</text></g><g class="participant participant-head" data-participant="Database"><rect fill="#E2E2F0" height="30.2969" rx="2.5" ry="2.5" style="stroke:#181818;stroke-width:0.5;" width="80.8008" x="439.8818" y="50"/><text fill="#000000" font-family="sans-serif" font-size="14" lengthAdjust="spacing" textLength="66.8008" x="446.8818" y="69.9951">Database</text></g><g class="participant participant-tail" data-participant="Database"><rect fill="#E2E2F0" height="30.2969" rx="2.5" ry="2.5" style="stroke:#181818;stroke-width:0.5;" width="80.8008" x="439.8818" y="333.3594"/><text fill="#000000" font-family="sans-serif" font-size="14" lengthAdjust="spacing" textLength="66.8008" x="446.8818" y="353.3545">Database</text></g><g class="participant participant-head" data-participant="RestaurantService"><rect fill="#E2E2F0" height="30.2969" rx="2.5" ry="2.5" style="stroke:#181818;stroke-width:0.5;" width="143.0146" x="530.6826" y="50"/><text fill="#000000" font-family="sans-serif" font-size="14" lengthAdjust="spacing" textLength="129.0146" x="537.6826" y="69.9951">RestaurantService</text></g><g class="participant participant-tail" data-participant="RestaurantService"><rect fill="#E2E2F0" height="30.2969" rx="2.5" ry="2.5" style="stroke:#181818;stroke-width:0.5;" width="143.0146" x="530.6826" y="333.3594"/><text fill="#000000" font-family="sans-serif" font-size="14" lengthAdjust="spacing" textLength="129.0146" x="537.6826" y="353.3545">RestaurantService</text></g><g class="message" data-participant-1="User" data-participant-2="App"><polygon fill="#181818" points="147.6167,108.4297,157.6167,112.4297,147.6167,116.4297,151.6167,112.4297" style="stroke:#181818;stroke-width:1;"/><line style="stroke:#181818;stroke-width:1;" x1="23.9551" x2="153.6167" y1="112.4297" y2="112.4297"/><text fill="#000000" font-family="sans-serif" font-size="13" lengthAdjust="spacing" textLength="111.6616" x="30.9551" y="107.3638">Grant Permission</text></g><g class="message" data-participant-1="App" data-participant-2="GPS"><polygon fill="#181818" points="297.9668,137.5625,307.9668,141.5625,297.9668,145.5625,301.9668,141.5625" style="stroke:#181818;stroke-width:1;"/><line style="stroke:#181818;stroke-width:1;" x1="159.6167" x2="303.9668" y1="141.5625" y2="141.5625"/><text fill="#000000" font-family="sans-serif" font-size="13" lengthAdjust="spacing" textLength="98.8521" x="166.6167" y="136.4966">Query Location</text></g><g class="message" data-participant-1="GPS" data-participant-2="App"><polygon fill="#181818" points="170.6167,166.6953,160.6167,170.6953,170.6167,174.6953,166.6167,170.6953" style="stroke:#181818;stroke-width:1;"/><line style="stroke:#181818;stroke-width:1;" x1="164.6167" x2="308.9668" y1="170.6953" y2="170.6953"/><text fill="#000000" font-family="sans-serif" font-size="13" lengthAdjust="spacing" textLength="126.3501" x="176.6167" y="165.6294">Return Coordinates</text></g><g class="message" data-participant-1="App" data-participant-2="Geocoding"><polygon fill="#181818" points="373.4688,195.8281,383.4688,199.8281,373.4688,203.8281,377.4688,199.8281" style="stroke:#181818;stroke-width:1;"/><line style="stroke:#181818;stroke-width:1;" x1="159.6167" x2="379.4688" y1="199.8281" y2="199.8281"/><text fill="#000000" font-family="sans-serif" font-size="13" lengthAdjust="spacing" textLength="196.6567" x="166.6167" y="194.7622">Get Address from Coordinates</text></g><g class="message" data-participant-1="Geocoding" data-participant-2="App"><polygon fill="#181818" points="170.6167,224.9609,160.6167,228.9609,170.6167,232.9609,166.6167,228.9609" style="stroke:#181818;stroke-width:1;"/><line style="stroke:#181818;stroke-width:1;" x1="164.6167" x2="384.4688" y1="228.9609" y2="228.9609"/><text fill="#000000" font-family="sans-serif" font-size="13" lengthAdjust="spacing" textLength="100.3691" x="176.6167" y="223.895">Return Address</text></g><g class="message" data-participant-1="App" data-participant-2="Database"><polygon fill="#181818" points="468.2822,254.0938,478.2822,258.0938,468.2822,262.0938,472.2822,258.0938" style="stroke:#181818;stroke-width:1;"/><line style="stroke:#181818;stroke-width:1;" x1="159.6167" x2="474.2822" y1="258.0938" y2="258.0938"/><text fill="#000000" font-family="sans-serif" font-size="13" lengthAdjust="spacing" textLength="199.3164" x="166.6167" y="253.0278">Save Coordinates and Address</text></g><g class="message" data-participant-1="App" data-participant-2="RestaurantService"><polygon fill="#181818" points="590.1899,283.2266,600.1899,287.2266,590.1899,291.2266,594.1899,287.2266" style="stroke:#181818;stroke-width:1;"/><line style="stroke:#181818;stroke-width:1;" x1="159.6167" x2="596.1899" y1="287.2266" y2="287.2266"/><text fill="#000000" font-family="sans-serif" font-size="13" lengthAdjust="spacing" textLength="183.7329" x="166.6167" y="282.1606">Refresh Nearby Restaurants</text></g><g class="message" data-participant-1="RestaurantService" data-participant-2="App"><polygon fill="#181818" points="170.6167,312.3594,160.6167,316.3594,170.6167,320.3594,166.6167,316.3594" style="stroke:#181818;stroke-width:1;"/><line style="stroke:#181818;stroke-width:1;" x1="164.6167" x2="601.1899" y1="316.3594" y2="316.3594"/><text fill="#000000" font-family="sans-serif" font-size="13" lengthAdjust="spacing" textLength="130.2729" x="176.6167" y="311.2935">Return Updated List</text></g><!--SRC=[PKzB2W8n3Dtt5Bc05vY580fkHDHX3X3Rg5tObYGZU7jJS0OxxfANzmjwpGo34Bk2hD77WabXKqgpxqzzkrFsESHqRz0TAbvHg04l98eZszWJlw8dvseShDOrfODzFS69-1b5OaxEq7gqo0xE8_4R3jcZrfDXi-v2EdA2RSviHL19PkLKpip9VWc1IGHkd9yDVUOjFR-AoMzwguCUN_Hh0PZ2alttRxMz6UC1HqA-ldyOulxOoov32POKu115Fm00]--></g></svg>