<svg xmlns="http://www.w3.org/2000/svg" xmlns:xlink="http://www.w3.org/1999/xlink" contentStyleType="text/css" data-diagram-type="SEQUENCE" height="648px" preserveAspectRatio="none" style="width:751px;height:648px;background:#FFFFFF;" version="1.1" viewBox="0 0 751 648" width="751px" zoomAndPan="magnify"><defs/><g><g><title>User</title><rect fill="#000000" fill-opacity="0.00000" height="486.125" width="8" x="19.9551" y="81.2969"/><line style="stroke:#181818;stroke-width:0.5;stroke-dasharray:5,5;" x1="23" x2="23" y1="81.2969" y2="567.4219"/></g><g><title>Shopping Cart</title><rect fill="#000000" fill-opacity="0.00000" height="486.125" width="8" x="198.6538" y="81.2969"/><line style="stroke:#181818;stroke-width:0.5;stroke-dasharray:5,5;" x1="201.7549" x2="201.7549" y1="81.2969" y2="567.4219"/></g><g><title>Product Catalog</title><rect fill="#000000" fill-opacity="0.00000" height="486.125" width="8" x="361.5659" y="81.2969"/><line style="stroke:#181818;stroke-width:0.5;stroke-dasharray:5,5;" x1="364.6035" x2="364.6035" y1="81.2969" y2="567.4219"/></g><g><title>Checkout System</title><rect fill="#000000" fill-opacity="0.00000" height="486.125" width="8" x="502.8535" y="81.2969"/><line style="stroke:#181818;stroke-width:0.5;stroke-dasharray:5,5;" x1="506.5283" x2="506.5283" y1="81.2969" y2="567.4219"/></g><g><title>Payment Gateway</title><rect fill="#000000" fill-opacity="0.00000" height="486.125" width="8" x="670.8882" y="81.2969"/><line style="stroke:#181818;stroke-width:0.5;stroke-dasharray:5,5;" x1="674.7808" x2="674.7808" y1="81.2969" y2="567.4219"/></g><g class="participant participant-head" data-participant="User"><text fill="#000000" font-family="sans-serif" font-size="14" lengthAdjust="spacing" textLength="31.9102" x="5" y="77.9951">User</text><ellipse cx="23.9551" cy="13.5" fill="#E2E2F0" rx="8" ry="8" style="stroke:#181818;stroke-width:0.5;"/><path d="M23.9551,21.5 L23.9551,48.5 M10.9551,29.5 L36.9551,29.5 M23.9551,48.5 L10.9551,63.5 M23.9551,48.5 L36.9551,63.5" fill="none" style="stroke:#181818;stroke-width:0.5;"/></g><g class="participant participant-tail" data-participant="User"><text fill="#000000" font-family="sans-serif" font-size="14" lengthAdjust="spacing" textLength="31.9102" x="5" y="579.417">User</text><ellipse cx="23.9551" cy="591.2188" fill="#E2E2F0" rx="8" ry="8" style="stroke:#181818;stroke-width:0.5;"/><path d="M23.9551,599.2188 L23.9551,626.2188 M10.9551,607.2188 L36.9551,607.2188 M23.9551,626.2188 L10.9551,641.2188 M23.9551,626.2188 L36.9551,641.2188" fill="none" style="stroke:#181818;stroke-width:0.5;"/></g><g class="participant participant-head" data-participant="Cart"><rect fill="#E2E2F0" height="30.2969" rx="2.5" ry="2.5" style="stroke:#181818;stroke-width:0.5;" width="113.7979" x="145.7549" y="50"/><text fill="#000000" font-family="sans-serif" font-size="14" lengthAdjust="spacing" textLength="99.7979" x="152.7549" y="69.9951">Shopping Cart</text></g><g class="participant participant-tail" data-participant="Cart"><rect fill="#E2E2F0" height="30.2969" rx="2.5" ry="2.5" style="stroke:#181818;stroke-width:0.5;" width="113.7979" x="145.7549" y="566.4219"/><text fill="#000000" font-family="sans-serif" font-size="14" lengthAdjust="spacing" textLength="99.7979" x="152.7549" y="586.417">Shopping Cart</text></g><g class="participant participant-head" data-participant="Catalog"><rect fill="#E2E2F0" height="30.2969" rx="2.5" ry="2.5" style="stroke:#181818;stroke-width:0.5;" width="125.9248" x="302.6035" y="50"/><text fill="#000000" font-family="sans-serif" font-size="14" lengthAdjust="spacing" textLength="111.9248" x="309.6035" y="69.9951">Product Catalog</text></g><g class="participant participant-tail" data-participant="Catalog"><rect fill="#E2E2F0" height="30.2969" rx="2.5" ry="2.5" style="stroke:#181818;stroke-width:0.5;" width="125.9248" x="302.6035" y="566.4219"/><text fill="#000000" font-family="sans-serif" font-size="14" lengthAdjust="spacing" textLength="111.9248" x="309.6035" y="586.417">Product Catalog</text></g><g class="participant participant-head" data-participant="Checkout"><rect fill="#E2E2F0" height="30.2969" rx="2.5" ry="2.5" style="stroke:#181818;stroke-width:0.5;" width="136.6504" x="438.5283" y="50"/><text fill="#000000" font-family="sans-serif" font-size="14" lengthAdjust="spacing" textLength="122.6504" x="445.5283" y="69.9951">Checkout System</text></g><g class="participant participant-tail" data-participant="Checkout"><rect fill="#E2E2F0" height="30.2969" rx="2.5" ry="2.5" style="stroke:#181818;stroke-width:0.5;" width="136.6504" x="438.5283" y="566.4219"/><text fill="#000000" font-family="sans-serif" font-size="14" lengthAdjust="spacing" textLength="122.6504" x="445.5283" y="586.417">Checkout System</text></g><g class="participant participant-head" data-participant="Payment"><rect fill="#E2E2F0" height="30.2969" rx="2.5" ry="2.5" style="stroke:#181818;stroke-width:0.5;" width="142.2148" x="603.7808" y="50"/><text fill="#000000" font-family="sans-serif" font-size="14" lengthAdjust="spacing" textLength="128.2148" x="610.7808" y="69.9951">Payment Gateway</text></g><g class="participant participant-tail" data-participant="Payment"><rect fill="#E2E2F0" height="30.2969" rx="2.5" ry="2.5" style="stroke:#181818;stroke-width:0.5;" width="142.2148" x="603.7808" y="566.4219"/><text fill="#000000" font-family="sans-serif" font-size="14" lengthAdjust="spacing" textLength="128.2148" x="610.7808" y="586.417">Payment Gateway</text></g><g class="message" data-participant-1="User" data-participant-2="Catalog"><polygon fill="#181818" points="353.5659,108.4297,363.5659,112.4297,353.5659,116.4297,357.5659,112.4297" style="stroke:#181818;stroke-width:1;"/><line style="stroke:#181818;stroke-width:1;" x1="23.9551" x2="359.5659" y1="112.4297" y2="112.4297"/><text fill="#000000" font-family="sans-serif" font-size="13" lengthAdjust="spacing" textLength="71.4111" x="30.9551" y="107.3638">View items</text></g><g class="message" data-participant-1="User" data-participant-2="Cart"><polygon fill="#181818" points="190.6538,137.5625,200.6538,141.5625,190.6538,145.5625,194.6538,141.5625" style="stroke:#181818;stroke-width:1;"/><line style="stroke:#181818;stroke-width:1;" x1="23.9551" x2="196.6538" y1="141.5625" y2="141.5625"/><text fill="#000000" font-family="sans-serif" font-size="13" lengthAdjust="spacing" textLength="105.771" x="30.9551" y="136.4966">Add item to cart</text></g><g class="message" data-participant-1="Cart" data-participant-2="Catalog"><polygon fill="#181818" points="353.5659,166.6953,363.5659,170.6953,353.5659,174.6953,357.5659,170.6953" style="stroke:#181818;stroke-width:1;"/><line style="stroke:#181818;stroke-width:1;" x1="202.6538" x2="359.5659" y1="170.6953" y2="170.6953"/><text fill="#000000" font-family="sans-serif" font-size="13" lengthAdjust="spacing" textLength="104.1143" x="209.6538" y="165.6294">Get item details</text></g><g class="message" data-participant-1="Catalog" data-participant-2="Cart"><polygon fill="#181818" points="213.6538,195.8281,203.6538,199.8281,213.6538,203.8281,209.6538,199.8281" style="stroke:#181818;stroke-width:1;"/><line style="stroke:#181818;stroke-width:1;stroke-dasharray:2,2;" x1="207.6538" x2="364.5659" y1="199.8281" y2="199.8281"/><text fill="#000000" font-family="sans-serif" font-size="13" lengthAdjust="spacing" textLength="77.0352" x="219.6538" y="194.7622">Item details</text></g><g class="message" data-participant-1="User" data-participant-2="Cart"><polygon fill="#181818" points="190.6538,224.9609,200.6538,228.9609,190.6538,232.9609,194.6538,228.9609" style="stroke:#181818;stroke-width:1;"/><line style="stroke:#181818;stroke-width:1;" x1="23.9551" x2="196.6538" y1="228.9609" y2="228.9609"/><text fill="#000000" font-family="sans-serif" font-size="13" lengthAdjust="spacing" textLength="135.1353" x="30.9551" y="223.895">Modify item quantity</text></g><g class="message" data-participant-1="Cart" data-participant-2="Catalog"><polygon fill="#181818" points="353.5659,254.0938,363.5659,258.0938,353.5659,262.0938,357.5659,258.0938" style="stroke:#181818;stroke-width:1;"/><line style="stroke:#181818;stroke-width:1;" x1="202.6538" x2="359.5659" y1="258.0938" y2="258.0938"/><text fill="#000000" font-family="sans-serif" font-size="13" lengthAdjust="spacing" textLength="138.9121" x="209.6538" y="253.0278">Update item quantity</text></g><g class="message" data-participant-1="Catalog" data-participant-2="Cart"><polygon fill="#181818" points="213.6538,283.2266,203.6538,287.2266,213.6538,291.2266,209.6538,287.2266" style="stroke:#181818;stroke-width:1;"/><line style="stroke:#181818;stroke-width:1;stroke-dasharray:2,2;" x1="207.6538" x2="364.5659" y1="287.2266" y2="287.2266"/><text fill="#000000" font-family="sans-serif" font-size="13" lengthAdjust="spacing" textLength="136.2778" x="219.6538" y="282.1606">Updated item details</text></g><g class="message" data-participant-1="User" data-participant-2="Cart"><polygon fill="#181818" points="190.6538,312.3594,200.6538,316.3594,190.6538,320.3594,194.6538,316.3594" style="stroke:#181818;stroke-width:1;"/><line style="stroke:#181818;stroke-width:1;" x1="23.9551" x2="196.6538" y1="316.3594" y2="316.3594"/><text fill="#000000" font-family="sans-serif" font-size="13" lengthAdjust="spacing" textLength="137.9155" x="30.9551" y="311.2935">View updated pricing</text></g><g class="message" data-participant-1="Cart" data-participant-2="User"><polygon fill="#181818" points="34.9551,341.4922,24.9551,345.4922,34.9551,349.4922,30.9551,345.4922" style="stroke:#181818;stroke-width:1;"/><line style="stroke:#181818;stroke-width:1;stroke-dasharray:2,2;" x1="28.9551" x2="201.6538" y1="345.4922" y2="345.4922"/><text fill="#000000" font-family="sans-serif" font-size="13" lengthAdjust="spacing" textLength="154.6987" x="40.9551" y="340.4263">Display updated pricing</text></g><g class="message" data-participant-1="User" data-participant-2="Checkout"><polygon fill="#181818" points="494.8535,370.625,504.8535,374.625,494.8535,378.625,498.8535,374.625" style="stroke:#181818;stroke-width:1;"/><line style="stroke:#181818;stroke-width:1;" x1="23.9551" x2="500.8535" y1="374.625" y2="374.625"/><text fill="#000000" font-family="sans-serif" font-size="13" lengthAdjust="spacing" textLength="133.1992" x="30.9551" y="369.5591">Proceed to checkout</text></g><g class="message" data-participant-1="Checkout" data-participant-2="Cart"><polygon fill="#181818" points="213.6538,399.7578,203.6538,403.7578,213.6538,407.7578,209.6538,403.7578" style="stroke:#181818;stroke-width:1;"/><line style="stroke:#181818;stroke-width:1;" x1="207.6538" x2="505.8535" y1="403.7578" y2="403.7578"/><text fill="#000000" font-family="sans-serif" font-size="13" lengthAdjust="spacing" textLength="131.9043" x="219.6538" y="398.6919">Retrieve cart details</text></g><g class="message" data-participant-1="Cart" data-participant-2="Checkout"><polygon fill="#181818" points="494.8535,428.8906,504.8535,432.8906,494.8535,436.8906,498.8535,432.8906" style="stroke:#181818;stroke-width:1;"/><line style="stroke:#181818;stroke-width:1;stroke-dasharray:2,2;" x1="202.6538" x2="500.8535" y1="432.8906" y2="432.8906"/><text fill="#000000" font-family="sans-serif" font-size="13" lengthAdjust="spacing" textLength="74.9277" x="209.6538" y="427.8247">Cart details</text></g><g class="message" data-participant-1="User" data-participant-2="Checkout"><polygon fill="#181818" points="494.8535,458.0234,504.8535,462.0234,494.8535,466.0234,498.8535,462.0234" style="stroke:#181818;stroke-width:1;"/><line style="stroke:#181818;stroke-width:1;" x1="23.9551" x2="500.8535" y1="462.0234" y2="462.0234"/><text fill="#000000" font-family="sans-serif" font-size="13" lengthAdjust="spacing" textLength="156.4824" x="30.9551" y="456.9575">Select payment method</text></g><g class="message" data-participant-1="Checkout" data-participant-2="Payment"><polygon fill="#181818" points="662.8882,487.1563,672.8882,491.1563,662.8882,495.1563,666.8882,491.1563" style="stroke:#181818;stroke-width:1;"/><line style="stroke:#181818;stroke-width:1;" x1="506.8535" x2="668.8882" y1="491.1563" y2="491.1563"/><text fill="#000000" font-family="sans-serif" font-size="13" lengthAdjust="spacing" textLength="111.8711" x="513.8535" y="486.0903">Process payment</text></g><g class="message" data-participant-1="Payment" data-participant-2="Checkout"><polygon fill="#181818" points="517.8535,516.2891,507.8535,520.2891,517.8535,524.2891,513.8535,520.2891" style="stroke:#181818;stroke-width:1;"/><line style="stroke:#181818;stroke-width:1;stroke-dasharray:2,2;" x1="511.8535" x2="673.8882" y1="520.2891" y2="520.2891"/><text fill="#000000" font-family="sans-serif" font-size="13" lengthAdjust="spacing" textLength="144.0347" x="523.8535" y="515.2231">Payment confirmation</text></g><g class="message" data-participant-1="Checkout" data-participant-2="User"><polygon fill="#181818" points="34.9551,545.4219,24.9551,549.4219,34.9551,553.4219,30.9551,549.4219" style="stroke:#181818;stroke-width:1;"/><line style="stroke:#181818;stroke-width:1;stroke-dasharray:2,2;" x1="28.9551" x2="505.8535" y1="549.4219" y2="549.4219"/><text fill="#000000" font-family="sans-serif" font-size="13" lengthAdjust="spacing" textLength="123.7095" x="40.9551" y="544.356">Order confirmation</text></g><!--SRC=[PP91RiGW34NtEOKr-xb05fMgL1frKRLgDDqZy2HMaq31wOZRbn2ImcI7xCV_7niXMLkuEhIL4PP9aX4JmwdjjJ4qTT24wWc4YuUI-R1QpP93XyMWkqJ5SmasFSflFJEqtZ6EAvXg3vB2ZnWE5y5u5pwIgLPLIqeuFsqUDNmHte62eijwbcjuLYhMWJN89VTIBgvUa5T28GiQN9KwSDv5NlDsgV-c5TtyAl0pX-J4_kXnDIeyuq0z-goOAkEKVl6XS-AC3UEQkkGNc8MjuOMS6OG_OBjI6dWDOMyI0x4CPzl2lgBTynFP4lvY760sfcJwBzVa_QDRYmE6JsBIPaVaNgl2Boqu1NDkOwljDvH-MrNgwKPs54nwolJsWRnR5RBar1y0]--></g></svg>