<svg xmlns="http://www.w3.org/2000/svg" xmlns:xlink="http://www.w3.org/1999/xlink" contentStyleType="text/css" data-diagram-type="SEQUENCE" height="415px" preserveAspectRatio="none" style="width:589px;height:415px;background:#FFFFFF;" version="1.1" viewBox="0 0 589 415" width="589px" zoomAndPan="magnify"><defs/><g><g><title>Admin</title><rect fill="#000000" fill-opacity="0.00000" height="253.0625" width="8" x="26.4321" y="81.2969"/><line style="stroke:#181818;stroke-width:0.5;stroke-dasharray:5,5;" x1="30" x2="30" y1="81.2969" y2="334.3594"/></g><g><title>Web App</title><rect fill="#000000" fill-opacity="0.00000" height="253.0625" width="8" x="151.2837" y="81.2969"/><line style="stroke:#181818;stroke-width:0.5;stroke-dasharray:5,5;" x1="154.7119" x2="154.7119" y1="81.2969" y2="334.3594"/></g><g><title>Secrets Manager</title><rect fill="#000000" fill-opacity="0.00000" height="253.0625" width="8" x="328.6875" y="81.2969"/><line style="stroke:#181818;stroke-width:0.5;stroke-dasharray:5,5;" x1="332.6045" x2="332.6045" y1="81.2969" y2="334.3594"/></g><g><title>Audit Log</title><rect fill="#000000" fill-opacity="0.00000" height="253.0625" width="8" x="444.9795" y="81.2969"/><line style="stroke:#181818;stroke-width:0.5;stroke-dasharray:5,5;" x1="448.7705" x2="448.7705" y1="81.2969" y2="334.3594"/></g><g><title>Scheduler</title><rect fill="#000000" fill-opacity="0.00000" height="253.0625" width="8" x="537.2329" y="81.2969"/><line style="stroke:#181818;stroke-width:0.5;stroke-dasharray:5,5;" x1="541.1885" x2="541.1885" y1="81.2969" y2="334.3594"/></g><g class="participant participant-head" data-participant="Admin"><text fill="#000000" font-family="sans-serif" font-size="14" lengthAdjust="spacing" textLength="44.8643" x="5" y="77.9951">Admin</text><ellipse cx="30.4321" cy="13.5" fill="#E2E2F0" rx="8" ry="8" style="stroke:#181818;stroke-width:0.5;"/><path d="M30.4321,21.5 L30.4321,48.5 M17.4321,29.5 L43.4321,29.5 M30.4321,48.5 L17.4321,63.5 M30.4321,48.5 L43.4321,63.5" fill="none" style="stroke:#181818;stroke-width:0.5;"/></g><g class="participant participant-tail" data-participant="Admin"><text fill="#000000" font-family="sans-serif" font-size="14" lengthAdjust="spacing" textLength="44.8643" x="5" y="346.3545">Admin</text><ellipse cx="30.4321" cy="358.1563" fill="#E2E2F0" rx="8" ry="8" style="stroke:#181818;stroke-width:0.5;"/><path d="M30.4321,366.1563 L30.4321,393.1563 M17.4321,374.1563 L43.4321,374.1563 M30.4321,393.1563 L17.4321,408.1563 M30.4321,393.1563 L43.4321,408.1563" fill="none" style="stroke:#181818;stroke-width:0.5;"/></g><g class="participant participant-head" data-participant="WebApp"><rect fill="#E2E2F0" height="30.2969" rx="2.5" ry="2.5" style="stroke:#181818;stroke-width:0.5;" width="77.1436" x="116.7119" y="50"/><text fill="#000000" font-family="sans-serif" font-size="14" lengthAdjust="spacing" textLength="63.1436" x="123.7119" y="69.9951">Web App</text></g><g class="participant participant-tail" data-participant="WebApp"><rect fill="#E2E2F0" height="30.2969" rx="2.5" ry="2.5" style="stroke:#181818;stroke-width:0.5;" width="77.1436" x="116.7119" y="333.3594"/><text fill="#000000" font-family="sans-serif" font-size="14" lengthAdjust="spacing" textLength="63.1436" x="123.7119" y="353.3545">Web App</text></g><g class="participant participant-head" data-participant="SecretsManager"><rect fill="#E2E2F0" height="30.2969" rx="2.5" ry="2.5" style="stroke:#181818;stroke-width:0.5;" width="132.166" x="266.6045" y="50"/><text fill="#000000" font-family="sans-serif" font-size="14" lengthAdjust="spacing" textLength="118.166" x="273.6045" y="69.9951">Secrets Manager</text></g><g class="participant participant-tail" data-participant="SecretsManager"><rect fill="#E2E2F0" height="30.2969" rx="2.5" ry="2.5" style="stroke:#181818;stroke-width:0.5;" width="132.166" x="266.6045" y="333.3594"/><text fill="#000000" font-family="sans-serif" font-size="14" lengthAdjust="spacing" textLength="118.166" x="273.6045" y="353.3545">Secrets Manager</text></g><g class="participant participant-head" data-participant="AuditLog"><rect fill="#E2E2F0" height="30.2969" rx="2.5" ry="2.5" style="stroke:#181818;stroke-width:0.5;" width="80.418" x="408.7705" y="50"/><text fill="#000000" font-family="sans-serif" font-size="14" lengthAdjust="spacing" textLength="66.418" x="415.7705" y="69.9951">Audit Log</text></g><g class="participant participant-tail" data-participant="AuditLog"><rect fill="#E2E2F0" height="30.2969" rx="2.5" ry="2.5" style="stroke:#181818;stroke-width:0.5;" width="80.418" x="408.7705" y="333.3594"/><text fill="#000000" font-family="sans-serif" font-size="14" lengthAdjust="spacing" textLength="66.418" x="415.7705" y="353.3545">Audit Log</text></g><g class="participant participant-head" data-participant="Scheduler"><rect fill="#E2E2F0" height="30.2969" rx="2.5" ry="2.5" style="stroke:#181818;stroke-width:0.5;" width="84.0889" x="499.1885" y="50"/><text fill="#000000" font-family="sans-serif" font-size="14" lengthAdjust="spacing" textLength="70.0889" x="506.1885" y="69.9951">Scheduler</text></g><g class="participant participant-tail" data-participant="Scheduler"><rect fill="#E2E2F0" height="30.2969" rx="2.5" ry="2.5" style="stroke:#181818;stroke-width:0.5;" width="84.0889" x="499.1885" y="333.3594"/><text fill="#000000" font-family="sans-serif" font-size="14" lengthAdjust="spacing" textLength="70.0889" x="506.1885" y="353.3545">Scheduler</text></g><g class="message" data-participant-1="Admin" data-participant-2="WebApp"><polygon fill="#181818" points="143.2837,108.4297,153.2837,112.4297,143.2837,116.4297,147.2837,112.4297" style="stroke:#181818;stroke-width:1;"/><line style="stroke:#181818;stroke-width:1;" x1="30.4321" x2="149.2837" y1="112.4297" y2="112.4297"/><text fill="#000000" font-family="sans-serif" font-size="13" lengthAdjust="spacing" textLength="100.8516" x="37.4321" y="107.3638">Initiate rotation</text></g><g class="message" data-participant-1="WebApp" data-participant-2="SecretsManager"><polygon fill="#181818" points="320.6875,137.5625,330.6875,141.5625,320.6875,145.5625,324.6875,141.5625" style="stroke:#181818;stroke-width:1;"/><line style="stroke:#181818;stroke-width:1;" x1="155.2837" x2="326.6875" y1="141.5625" y2="141.5625"/><text fill="#000000" font-family="sans-serif" font-size="13" lengthAdjust="spacing" textLength="153.2769" x="162.2837" y="136.4966">Request secret rotation</text></g><g class="message" data-participant-1="SecretsManager" data-participant-2="WebApp"><polygon fill="#181818" points="166.2837,166.6953,156.2837,170.6953,166.2837,174.6953,162.2837,170.6953" style="stroke:#181818;stroke-width:1;"/><line style="stroke:#181818;stroke-width:1;" x1="160.2837" x2="331.6875" y1="170.6953" y2="170.6953"/><text fill="#000000" font-family="sans-serif" font-size="13" lengthAdjust="spacing" textLength="106.8628" x="172.2837" y="165.6294">Confirm rotation</text></g><g class="message" data-participant-1="WebApp" data-participant-2="AuditLog"><polygon fill="#181818" points="436.9795,195.8281,446.9795,199.8281,436.9795,203.8281,440.9795,199.8281" style="stroke:#181818;stroke-width:1;"/><line style="stroke:#181818;stroke-width:1;" x1="155.2837" x2="442.9795" y1="199.8281" y2="199.8281"/><text fill="#000000" font-family="sans-serif" font-size="13" lengthAdjust="spacing" textLength="120.0024" x="162.2837" y="194.7622">Log rotation event</text></g><g class="message" data-participant-1="Scheduler" data-participant-2="WebApp"><polygon fill="#181818" points="166.2837,224.9609,156.2837,228.9609,166.2837,232.9609,162.2837,228.9609" style="stroke:#181818;stroke-width:1;"/><line style="stroke:#181818;stroke-width:1;" x1="160.2837" x2="540.2329" y1="228.9609" y2="228.9609"/><text fill="#000000" font-family="sans-serif" font-size="13" lengthAdjust="spacing" textLength="123.1064" x="172.2837" y="223.895">Update connectors</text></g><g class="message" data-participant-1="WebApp" data-participant-2="SecretsManager"><polygon fill="#181818" points="320.6875,254.0938,330.6875,258.0938,320.6875,262.0938,324.6875,258.0938" style="stroke:#181818;stroke-width:1;"/><line style="stroke:#181818;stroke-width:1;" x1="155.2837" x2="326.6875" y1="258.0938" y2="258.0938"/><text fill="#000000" font-family="sans-serif" font-size="13" lengthAdjust="spacing" textLength="145.4121" x="162.2837" y="253.0278">Fetch updated secrets</text></g><g class="message" data-participant-1="SecretsManager" data-participant-2="WebApp"><polygon fill="#181818" points="166.2837,283.2266,156.2837,287.2266,166.2837,291.2266,162.2837,287.2266" style="stroke:#181818;stroke-width:1;"/><line style="stroke:#181818;stroke-width:1;" x1="160.2837" x2="331.6875" y1="287.2266" y2="287.2266"/><text fill="#000000" font-family="sans-serif" font-size="13" lengthAdjust="spacing" textLength="153.4038" x="172.2837" y="282.1606">Return updated secrets</text></g><g class="message" data-participant-1="WebApp" data-participant-2="AuditLog"><polygon fill="#181818" points="436.9795,312.3594,446.9795,316.3594,436.9795,320.3594,440.9795,316.3594" style="stroke:#181818;stroke-width:1;"/><line style="stroke:#181818;stroke-width:1;" x1="155.2837" x2="442.9795" y1="316.3594" y2="316.3594"/><text fill="#000000" font-family="sans-serif" font-size="13" lengthAdjust="spacing" textLength="142.6382" x="162.2837" y="311.2935">Log connector update</text></g><!--SRC=[VP3D2i8m48JlUOgbTr-W1w48Wg0NHJp7P6q3ked9nkUtZMbj_UbjPtTc-1Afs7gezCsGSDApKSP9OYXEU8RAkG9aW7Pkn-dzWCeZ1zX9aZNwvCkxl9hwgwWDmzRMoPbKApuwLOCwNlksNWcH-62np2GbRCYmaOpWBKisbiJhqdcc52NiyHunC8IqVoUcld7xojB5-DklyXwyx9uo600VI2p4W3nkEphTaIfBXDrlXndMDR9g8AQ4piHXXdIF73rz1Vxn3Wmv8Pu0]--></g></svg>