<svg xmlns="http://www.w3.org/2000/svg" xmlns:xlink="http://www.w3.org/1999/xlink" contentStyleType="text/css" data-diagram-type="ACTIVITY" height="438px" preserveAspectRatio="none" style="width:233px;height:438px;background:#FFFFFF;" version="1.1" viewBox="0 0 233 438" width="233px" zoomAndPan="magnify"><defs/><g><ellipse cx="116.5547" cy="20" fill="#222222" rx="10" ry="10" style="stroke:#222222;stroke-width:1;"/><rect fill="#F1F1F1" height="33.9688" rx="12.5" ry="12.5" style="stroke:#181818;stroke-width:0.5;" width="134.2637" x="49.4229" y="50"/><text fill="#000000" font-family="sans-serif" font-size="12" lengthAdjust="spacing" textLength="114.2637" x="59.4229" y="71.1387">User triggers score</text><rect fill="#F1F1F1" height="33.9688" rx="12.5" ry="12.5" style="stroke:#181818;stroke-width:0.5;" width="211.1094" x="11" y="125.3677"/><text fill="#000000" font-family="sans-serif" font-size="12" lengthAdjust="spacing" textLength="191.1094" x="21" y="146.5063">Feature Store provides features</text><rect fill="#F1F1F1" height="33.9688" rx="12.5" ry="12.5" style="stroke:#181818;stroke-width:0.5;" width="127.7773" x="52.666" y="200.7354"/><text fill="#000000" font-family="sans-serif" font-size="12" lengthAdjust="spacing" textLength="107.7773" x="62.666" y="221.874">ML Service scores</text><rect fill="#F1F1F1" height="33.9688" rx="12.5" ry="12.5" style="stroke:#181818;stroke-width:0.5;" width="117.9395" x="57.585" y="276.103"/><text fill="#000000" font-family="sans-serif" font-size="12" lengthAdjust="spacing" textLength="97.9395" x="67.585" y="297.2417">Database stores</text><rect fill="#F1F1F1" height="33.9688" rx="12.5" ry="12.5" style="stroke:#181818;stroke-width:0.5;" width="137.9902" x="47.5596" y="351.4707"/><text fill="#000000" font-family="sans-serif" font-size="12" lengthAdjust="spacing" textLength="117.9902" x="57.5596" y="372.6094">Dashboard displays</text><ellipse cx="116.5547" cy="416.4395" fill="none" rx="11" ry="11" style="stroke:#222222;stroke-width:1;"/><ellipse cx="116.5547" cy="416.4395" fill="#222222" rx="6" ry="6" style="stroke:#222222;stroke-width:1;"/><line style="stroke:#181818;stroke-width:1;" x1="116.5547" x2="116.5547" y1="30" y2="50"/><polygon fill="#181818" points="112.5547,40,116.5547,50,120.5547,40,116.5547,44" style="stroke:#181818;stroke-width:1;"/><line style="stroke:#181818;stroke-width:1;" x1="116.5547" x2="116.5547" y1="83.9688" y2="125.3677"/><polygon fill="#181818" points="112.5547,115.3677,116.5547,125.3677,120.5547,115.3677,116.5547,119.3677" style="stroke:#181818;stroke-width:1;"/><text fill="#000000" font-family="sans-serif" font-size="11" lengthAdjust="spacing" textLength="75.2222" x="120.5547" y="105.2734">Feature Store</text><line style="stroke:#181818;stroke-width:1;" x1="116.5547" x2="116.5547" y1="159.3364" y2="200.7354"/><polygon fill="#181818" points="112.5547,190.7354,116.5547,200.7354,120.5547,190.7354,116.5547,194.7354" style="stroke:#181818;stroke-width:1;"/><text fill="#000000" font-family="sans-serif" font-size="11" lengthAdjust="spacing" textLength="59.7695" x="120.5547" y="180.6411">ML Service</text><line style="stroke:#181818;stroke-width:1;" x1="116.5547" x2="116.5547" y1="234.7041" y2="276.103"/><polygon fill="#181818" points="112.5547,266.103,116.5547,276.103,120.5547,266.103,116.5547,270.103" style="stroke:#181818;stroke-width:1;"/><text fill="#000000" font-family="sans-serif" font-size="11" lengthAdjust="spacing" textLength="52.4863" x="120.5547" y="256.0088">Database</text><line style="stroke:#181818;stroke-width:1;" x1="116.5547" x2="116.5547" y1="310.0718" y2="351.4707"/><polygon fill="#181818" points="112.5547,341.4707,116.5547,351.4707,120.5547,341.4707,116.5547,345.4707" style="stroke:#181818;stroke-width:1;"/><text fill="#000000" font-family="sans-serif" font-size="11" lengthAdjust="spacing" textLength="59.8716" x="120.5547" y="331.3765">Dashboard</text><line style="stroke:#181818;stroke-width:1;" x1="116.5547" x2="116.5547" y1="385.4395" y2="405.4395"/><polygon fill="#181818" points="112.5547,395.4395,116.5547,405.4395,120.5547,395.4395,116.5547,399.4395" style="stroke:#181818;stroke-width:1;"/><!--SRC=[LOnD2i8m58JtESMxW1Ueu4gwqbNn0A_DimQ4X9bdmTlR9egwcvzlXgxm4BeB3U98ysoWSCgmVTWTf3Vr1qm6hqdtvwKWBoaQvTfYritv98DXITCs-9hssf2ZkexA3VX8eV_Kl8rP4Ml_rX8JorsVAn9Mjhm0]--></g></svg>