<svg xmlns="http://www.w3.org/2000/svg" xmlns:xlink="http://www.w3.org/1999/xlink" contentStyleType="text/css" data-diagram-type="DESCRIPTION" height="242px" preserveAspectRatio="none" style="width:1544px;height:242px;background:#FFFFFF;" version="1.1" viewBox="0 0 1544 242" width="1544px" zoomAndPan="magnify"><defs/><g><!--cluster Dashboard Management--><g class="cluster" data-entity="Dashboard Management" data-source-line="5" data-uid="ent0005" id="cluster_Dashboard Management"><path d="M600.04,144.8 L794.3466,144.8 A3.75,3.75 0 0 1 796.8466,147.3 L803.8466,167.0969 L804.04,167.0969 A2.5,2.5 0 0 1 806.54,169.5969 L806.54,232.31 A2.5,2.5 0 0 1 804.04,234.81 L600.04,234.81 A2.5,2.5 0 0 1 597.54,232.31 L597.54,147.3 A2.5,2.5 0 0 1 600.04,144.8" fill="none" style="stroke:#000000;stroke-width:1.5;"/><line style="stroke:#000000;stroke-width:1.5;" x1="597.54" x2="803.8466" y1="167.0969" y2="167.0969"/><text fill="#000000" font-family="sans-serif" font-size="14" font-weight="bold" lengthAdjust="spacing" textLength="193.3066" x="601.54" y="159.7951">Dashboard Management</text></g><!--cluster Performance Reports--><g class="cluster" data-entity="Performance Reports" data-source-line="9" data-uid="ent0007" id="cluster_Performance Reports"><path d="M333.04,146.45 L501.8281,146.45 A3.75,3.75 0 0 1 504.3281,148.95 L511.3281,168.7469 L514.04,168.7469 A2.5,2.5 0 0 1 516.54,171.2469 L516.54,230.65 A2.5,2.5 0 0 1 514.04,233.15 L333.04,233.15 A2.5,2.5 0 0 1 330.54,230.65 L330.54,148.95 A2.5,2.5 0 0 1 333.04,146.45" fill="none" style="stroke:#000000;stroke-width:1.5;"/><line style="stroke:#000000;stroke-width:1.5;" x1="330.54" x2="511.3281" y1="168.7469" y2="168.7469"/><text fill="#000000" font-family="sans-serif" font-size="14" font-weight="bold" lengthAdjust="spacing" textLength="167.7881" x="334.54" y="161.4451">Performance Reports</text></g><!--cluster Strategic Indicator Generation--><g class="cluster" data-entity="Strategic Indicator Generation" data-source-line="13" data-uid="ent0009" id="cluster_Strategic Indicator Generation"><path d="M1023.04,145.19 L1265.0546,145.19 A3.75,3.75 0 0 1 1267.5546,147.69 L1274.5546,167.4869 L1275.04,167.4869 A2.5,2.5 0 0 1 1277.54,169.9869 L1277.54,231.92 A2.5,2.5 0 0 1 1275.04,234.42 L1023.04,234.42 A2.5,2.5 0 0 1 1020.54,231.92 L1020.54,147.69 A2.5,2.5 0 0 1 1023.04,145.19" fill="none" style="stroke:#000000;stroke-width:1.5;"/><line style="stroke:#000000;stroke-width:1.5;" x1="1020.54" x2="1274.5546" y1="167.4869" y2="167.4869"/><text fill="#000000" font-family="sans-serif" font-size="14" font-weight="bold" lengthAdjust="spacing" textLength="241.0146" x="1024.54" y="160.1851">Strategic Indicator Generation</text></g><!--entity MD--><g class="entity" data-entity="MD" data-source-line="6" data-uid="ent0006" id="entity_MD"><ellipse cx="701.5443" cy="199.2969" fill="#F1F1F1" rx="85.5343" ry="19.5069" style="stroke:#181818;stroke-width:0.5;"/><text fill="#000000" font-family="sans-serif" font-size="14" lengthAdjust="spacing" textLength="143.5547" x="629.767" y="203.9453">Manage Dashboards</text></g><!--entity GR--><g class="entity" data-entity="GR" data-source-line="10" data-uid="ent0008" id="entity_GR"><ellipse cx="423.5386" cy="199.3017" fill="#F1F1F1" rx="77.2586" ry="17.8517" style="stroke:#181818;stroke-width:0.5;"/><text fill="#000000" font-family="sans-serif" font-size="14" lengthAdjust="spacing" textLength="124.168" x="361.4547" y="203.9502">Generate Reports</text></g><!--entity GI--><g class="entity" data-entity="GI" data-source-line="14" data-uid="ent0010" id="entity_GI"><ellipse cx="1148.5395" cy="199.3019" fill="#F1F1F1" rx="83.5595" ry="19.1119" style="stroke:#181818;stroke-width:0.5;"/><text fill="#000000" font-family="sans-serif" font-size="14" lengthAdjust="spacing" textLength="138.9951" x="1079.042" y="203.9503">Generate Indicators</text></g><!--entity SA--><g class="entity" data-entity="SA" data-source-line="1" data-uid="ent0002" id="entity_SA"><ellipse cx="1271.5464" cy="14" fill="#F1F1F1" rx="8" ry="8" style="stroke:#181818;stroke-width:0.5;"/><path d="M1271.5464,22 L1271.5464,49 M1258.5464,30 L1284.5464,30 M1271.5464,49 L1258.5464,64 M1271.5464,49 L1284.5464,64" fill="none" style="stroke:#181818;stroke-width:0.5;"/><text fill="#000000" font-family="sans-serif" font-size="14" lengthAdjust="spacing" textLength="159.6328" x="1191.73" y="78.4951">System Administrators</text></g><!--entity UM--><g class="entity" data-entity="UM" data-source-line="2" data-uid="ent0003" id="entity_UM"><ellipse cx="373.5417" cy="14" fill="#F1F1F1" rx="8" ry="8" style="stroke:#181818;stroke-width:0.5;"/><path d="M373.5417,22 L373.5417,49 M360.5417,30 L386.5417,30 M373.5417,49 L360.5417,64 M373.5417,49 L386.5417,64" fill="none" style="stroke:#181818;stroke-width:0.5;"/><text fill="#000000" font-family="sans-serif" font-size="14" lengthAdjust="spacing" textLength="139.0635" x="304.01" y="78.4951">Upper Management</text></g><!--entity EIS--><g class="entity" data-entity="EIS" data-source-line="3" data-uid="ent0004" id="entity_EIS"><ellipse cx="701.5475" cy="14" fill="#F1F1F1" rx="8" ry="8" style="stroke:#181818;stroke-width:0.5;"/><path d="M701.5475,22 L701.5475,49 M688.5475,30 L714.5475,30 M701.5475,49 L688.5475,64 M701.5475,49 L714.5475,64" fill="none" style="stroke:#181818;stroke-width:0.5;"/><text fill="#000000" font-family="sans-serif" font-size="14" lengthAdjust="spacing" textLength="203.875" x="599.61" y="78.4951">External Integration Systems</text></g><!--entity Executive Strategic Planning--><g class="entity" data-entity="Executive Strategic Planning" data-source-line="29" data-uid="ent0020" id="entity_Executive Strategic Planning"><ellipse cx="106.543" cy="169.65" fill="#F1F1F1" rx="8" ry="8" style="stroke:#181818;stroke-width:0.5;"/><path d="M106.543,177.65 L106.543,204.65 M93.543,185.65 L119.543,185.65 M106.543,204.65 L93.543,219.65 M106.543,204.65 L119.543,219.65" fill="none" style="stroke:#181818;stroke-width:0.5;"/><text fill="#000000" font-family="sans-serif" font-size="14" lengthAdjust="spacing" textLength="201.0859" x="6" y="234.1451">Executive Strategic Planning</text></g><!--link SA to MD--><g class="link" data-entity-1="SA" data-entity-2="MD" data-source-line="17" data-uid="lnk11" id="link_SA_MD"><path d="M1256.43,81.87 C1247.31,99.27 1233.86,118.41 1215.54,128.8 C1199.38,137.96 1067,134.73 1048.54,136.8 C947.31,148.15 836.843,169.5221 767.873,183.9421" fill="none" id="SA-to-MD" style="stroke:#181818;stroke-width:1;"/><polygon fill="#181818" points="762,185.17,771.6281,187.2435,766.8942,184.1467,769.9909,179.4128,762,185.17" style="stroke:#181818;stroke-width:1;"/><text fill="#000000" font-family="sans-serif" font-size="13" lengthAdjust="spacing" textLength="131.4409" x="1235.52" y="124.8669">Manage and Update</text></g><!--link UM to MD--><g class="link" data-entity-1="UM" data-entity-2="MD" data-source-line="18" data-uid="lnk12" id="link_UM_MD"><path d="M443.5,77.42 C511.43,109.24 606.4171,153.7337 659.7371,178.7237" fill="none" id="UM-to-MD" style="stroke:#181818;stroke-width:1;"/><polygon fill="#181818" points="665.17,181.27,658.7182,173.8286,660.6426,179.1481,655.3231,181.0725,665.17,181.27" style="stroke:#181818;stroke-width:1;"/><text fill="#000000" font-family="sans-serif" font-size="13" lengthAdjust="spacing" textLength="115.083" x="548.38" y="124.8669">View and Analyze</text></g><!--link EIS to MD--><g class="link" data-entity-1="EIS" data-entity-2="MD" data-source-line="19" data-uid="lnk13" id="link_EIS_MD"><path d="M699.57,82.28 C699.14,91.9 698.76,102.23 698.54,111.8 C698.02,135.08 698.8747,155.8905 699.9147,173.4205" fill="none" id="EIS-to-MD" style="stroke:#181818;stroke-width:1;"/><polygon fill="#181818" points="700.27,179.41,703.73,170.1889,699.9739,174.4188,695.744,170.6627,700.27,179.41" style="stroke:#181818;stroke-width:1;"/><text fill="#000000" font-family="sans-serif" font-size="13" lengthAdjust="spacing" textLength="83.8652" x="699.54" y="124.8669">Provide Data</text></g><!--link SA to GR--><g class="link" data-entity-1="SA" data-entity-2="GR" data-source-line="21" data-uid="lnk14" id="link_SA_GR"><path d="M1191.27,48.34 C1099.4,54.43 945.39,70.38 819.54,111.8 C804.25,116.83 803.08,124.57 787.54,128.8 C747.19,139.77 640.61,128.93 599.54,136.8 C548.68,146.54 498.1722,165.7837 463.2922,180.6037" fill="none" id="SA-to-GR" style="stroke:#181818;stroke-width:1;"/><polygon fill="#181818" points="457.77,182.95,467.6175,183.112,462.3718,180.9947,464.4891,175.7491,457.77,182.95" style="stroke:#181818;stroke-width:1;"/><text fill="#000000" font-family="sans-serif" font-size="13" lengthAdjust="spacing" textLength="121.5259" x="820.54" y="124.8669">Configure and Run</text></g><!--link UM to GR--><g class="link" data-entity-1="UM" data-entity-2="GR" data-source-line="22" data-uid="lnk15" id="link_UM_GR"><path d="M303.72,63.38 C265.09,77.45 228.56,99.36 248.54,128.8 C272.59,164.23 312.0017,180.3037 350.4617,188.8137" fill="none" id="UM-to-GR" style="stroke:#181818;stroke-width:1;"/><polygon fill="#181818" points="356.32,190.11,348.3967,184.2601,351.4381,189.0298,346.6684,192.0711,356.32,190.11" style="stroke:#181818;stroke-width:1;"/><text fill="#000000" font-family="sans-serif" font-size="13" lengthAdjust="spacing" textLength="130.9141" x="249.54" y="124.8669">Review and Analyze</text></g><!--link EIS to GR--><g class="link" data-entity-1="EIS" data-entity-2="GR" data-source-line="23" data-uid="lnk16" id="link_EIS_GR"><path d="M599.36,55.79 C528.43,65.87 442.84,83.55 420.54,111.8 C405,131.5 409.1903,156.5926 415.2503,175.6326" fill="none" id="EIS-to-GR" style="stroke:#181818;stroke-width:1;"/><polygon fill="#181818" points="417.07,181.35,418.152,171.5608,415.5536,176.5855,410.5288,173.987,417.07,181.35" style="stroke:#181818;stroke-width:1;"/><text fill="#000000" font-family="sans-serif" font-size="13" lengthAdjust="spacing" textLength="79.4727" x="421.54" y="124.8669">Supply Data</text></g><!--link SA to GI--><g class="link" data-entity-1="SA" data-entity-2="GI" data-source-line="25" data-uid="lnk17" id="link_SA_GI"><path d="M1351.83,64.8 C1391.82,78.86 1427.42,100.22 1405.54,128.8 C1382.96,158.3 1293.3371,177.2172 1225.3471,187.9172" fill="none" id="SA-to-GI" style="stroke:#181818;stroke-width:1;"/><polygon fill="#181818" points="1219.42,188.85,1228.9324,191.4022,1224.3592,188.0727,1227.6887,183.4995,1219.42,188.85" style="stroke:#181818;stroke-width:1;"/><text fill="#000000" font-family="sans-serif" font-size="13" lengthAdjust="spacing" textLength="122.9478" x="1413.18" y="124.8669">Setup and Execute</text></g><!--link UM to GI--><g class="link" data-entity-1="UM" data-entity-2="GI" data-source-line="26" data-uid="lnk18" id="link_UM_GI"><path d="M443.43,58.78 C483.92,66.53 535.94,75.77 582.54,81.8 C745.29,102.85 793.06,65.68 950.54,111.8 C966,116.32 967.99,121.9 982.54,128.8 C1024.47,148.66 1068.0345,166.6533 1101.9145,180.1233" fill="none" id="UM-to-GI" style="stroke:#181818;stroke-width:1;"/><polygon fill="#181818" points="1107.49,182.34,1100.6046,175.2979,1102.8437,180.4927,1097.6489,182.7319,1107.49,182.34" style="stroke:#181818;stroke-width:1;"/><text fill="#000000" font-family="sans-serif" font-size="13" lengthAdjust="spacing" textLength="117.165" x="983.54" y="124.8669">Evaluate and Plan</text></g><!--link EIS to GI--><g class="link" data-entity-1="EIS" data-entity-2="GI" data-source-line="27" data-uid="lnk19" id="link_EIS_GI"><path d="M803.67,50.53 C908.55,58.46 1062.87,75.93 1109.54,111.8 C1131.23,128.46 1139.925,154.0249 1144.245,174.0549" fill="none" id="EIS-to-GI" style="stroke:#181818;stroke-width:1;"/><polygon fill="#181818" points="1145.51,179.92,1147.5226,170.279,1144.4559,175.0324,1139.7024,171.9656,1145.51,179.92" style="stroke:#181818;stroke-width:1;"/><text fill="#000000" font-family="sans-serif" font-size="13" lengthAdjust="spacing" textLength="81.4404" x="1126.02" y="124.8669">Deliver Data</text></g><!--link UM to Executive Strategic Planning--><g class="link" data-entity-1="UM" data-entity-2="Executive Strategic Planning" data-source-line="29" data-uid="lnk21" id="link_UM_Executive Strategic Planning"><path d="M303.52,45.83 C248.97,50.54 175.09,65.85 129.54,111.8 C116.74,124.71 111.7597,137.9609 109.1197,154.9809" fill="none" id="UM-to-Executive Strategic Planning" style="stroke:#181818;stroke-width:1;"/><polygon fill="#181818" points="108.2,160.91,113.5322,152.6295,108.9664,155.9691,105.6268,151.4032,108.2,160.91" style="stroke:#181818;stroke-width:1;"/><text fill="#000000" font-family="sans-serif" font-size="13" lengthAdjust="spacing" textLength="103.8984" x="130.54" y="124.8669">Use Information</text></g><!--SRC=[TP91ReCm44NtFiM8VIxGHILKKCG2AGBH_THCg5KmbcreqgftxnYJa4JAbZV_QVuOb7wqaDHdvsc0j1sKLivRvAyk0NHGfmBZJ6CCMIXHOqS3QR_WfhpW_EJ9QkoXq9uwDgXHG_H6KrxKGXYKNvo794Ft-J6YRU-Clm9WSYJHyKW4S9sCcZ8JVpUU0zdZQ0VKag0YCrhl7ZHxqiJht62sxAixInqgKwSaRzyg6Uh3ckCQpuJNsTLP16UTmcxtocl2oreDKBVGc9OZeYat-gxeUs4fd-tyGu8ljD637MVLXleUhzPznUHjr4VLJJQAgqbVh0kjQ7xcNNWz6TEV7xH50EGdi-Jo4ybfMtQX-Opz54g7WKEFUhC6d56lPluzedOD9b740BO3XwnMkaiurRXmnENzmft_0G00]--></g></svg>