<svg xmlns="http://www.w3.org/2000/svg" xmlns:xlink="http://www.w3.org/1999/xlink" contentStyleType="text/css" data-diagram-type="ACTIVITY" height="586px" preserveAspectRatio="none" style="width:571px;height:586px;background:#FFFFFF;" version="1.1" viewBox="0 0 571 586" width="571px" zoomAndPan="magnify"><defs/><g><ellipse cx="341.8228" cy="20" fill="#222222" rx="10" ry="10" style="stroke:#222222;stroke-width:1;"/><rect fill="#F1F1F1" height="33.9688" rx="12.5" ry="12.5" style="stroke:#181818;stroke-width:0.5;" width="121.7656" x="280.9399" y="50"/><text fill="#000000" font-family="sans-serif" font-size="12" lengthAdjust="spacing" textLength="101.7656" x="290.9399" y="71.1387">Validate Account</text><polygon fill="#F1F1F1" points="301.1716,103.9688,382.4739,103.9688,394.4739,115.9688,382.4739,127.9688,301.1716,127.9688,289.1716,115.9688,301.1716,103.9688" style="stroke:#181818;stroke-width:0.5;"/><text fill="#000000" font-family="sans-serif" font-size="11" lengthAdjust="spacing" textLength="81.3022" x="301.1716" y="119.7769">Account Valid?</text><text fill="#000000" font-family="sans-serif" font-size="11" lengthAdjust="spacing" textLength="19.0083" x="270.1633" y="113.3745">yes</text><text fill="#000000" font-family="sans-serif" font-size="11" lengthAdjust="spacing" textLength="13.7017" x="394.4739" y="113.3745">no</text><rect fill="#F1F1F1" height="33.9688" rx="12.5" ry="12.5" style="stroke:#181818;stroke-width:0.5;" width="78.0488" x="159.8809" y="137.9688"/><text fill="#000000" font-family="sans-serif" font-size="12" lengthAdjust="spacing" textLength="58.0488" x="169.8809" y="159.1074">Send OTP</text><rect fill="#555555" height="6" rx="2.5" ry="2.5" style="stroke:#555555;stroke-width:1;" width="377.8105" x="11" y="191.9375"/><rect fill="#F1F1F1" height="33.9688" rx="12.5" ry="12.5" style="stroke:#181818;stroke-width:0.5;" width="158.0527" x="23" y="217.9375"/><text fill="#000000" font-family="sans-serif" font-size="12" lengthAdjust="spacing" textLength="138.0527" x="33" y="239.0762">Send via SMS Gateway</text><rect fill="#F1F1F1" height="33.9688" rx="12.5" ry="12.5" style="stroke:#181818;stroke-width:0.5;" width="165.7578" x="209.0527" y="217.9375"/><text fill="#000000" font-family="sans-serif" font-size="12" lengthAdjust="spacing" textLength="145.7578" x="219.0527" y="239.0762">Send via Email Gateway</text><rect fill="#555555" height="6" rx="2.5" ry="2.5" style="stroke:#555555;stroke-width:1;" width="377.8105" x="11" y="271.9063"/><rect fill="#F1F1F1" height="33.9688" rx="12.5" ry="12.5" style="stroke:#181818;stroke-width:0.5;" width="130.2852" x="133.7627" y="297.9063"/><text fill="#000000" font-family="sans-serif" font-size="12" lengthAdjust="spacing" textLength="110.2852" x="143.7627" y="319.0449">Wait for OTP Input</text><polygon fill="#F1F1F1" points="169.5522,351.875,228.2583,351.875,240.2583,363.875,228.2583,375.875,169.5522,375.875,157.5522,363.875,169.5522,351.875" style="stroke:#181818;stroke-width:0.5;"/><text fill="#000000" font-family="sans-serif" font-size="11" lengthAdjust="spacing" textLength="58.7061" x="169.5522" y="367.6831">OTP Valid?</text><text fill="#000000" font-family="sans-serif" font-size="11" lengthAdjust="spacing" textLength="19.0083" x="138.5439" y="361.2808">yes</text><text fill="#000000" font-family="sans-serif" font-size="11" lengthAdjust="spacing" textLength="13.7017" x="240.2583" y="361.2808">no</text><rect fill="#F1F1F1" height="33.9688" rx="12.5" ry="12.5" style="stroke:#181818;stroke-width:0.5;" width="124.0742" x="64.0474" y="385.875"/><text fill="#000000" font-family="sans-serif" font-size="12" lengthAdjust="spacing" textLength="104.0742" x="74.0474" y="407.0137">Update Password</text><rect fill="#F1F1F1" height="33.9688" rx="12.5" ry="12.5" style="stroke:#181818;stroke-width:0.5;" width="86.8496" x="82.6597" y="439.8438"/><text fill="#000000" font-family="sans-serif" font-size="12" lengthAdjust="spacing" textLength="66.8496" x="92.6597" y="460.9824">Notify User</text><rect fill="#F1F1F1" height="33.9688" rx="12.5" ry="12.5" style="stroke:#181818;stroke-width:0.5;" width="127.209" x="208.1216" y="385.875"/><text fill="#000000" font-family="sans-serif" font-size="12" lengthAdjust="spacing" textLength="107.209" x="218.1216" y="407.0137">Notify Invalid OTP</text><polygon fill="#F1F1F1" points="198.9053,479.8125,210.9053,491.8125,198.9053,503.8125,186.9053,491.8125,198.9053,479.8125" style="stroke:#181818;stroke-width:0.5;"/><rect fill="#F1F1F1" height="33.9688" rx="12.5" ry="12.5" style="stroke:#181818;stroke-width:0.5;" width="151.8594" x="408.8105" y="137.9688"/><text fill="#000000" font-family="sans-serif" font-size="12" lengthAdjust="spacing" textLength="131.8594" x="418.8105" y="159.1074">Notify Invalid Account</text><polygon fill="#F1F1F1" points="341.8228,509.8125,353.8228,521.8125,341.8228,533.8125,329.8228,521.8125,341.8228,509.8125" style="stroke:#181818;stroke-width:0.5;"/><ellipse cx="341.8228" cy="564.8125" fill="none" rx="11" ry="11" style="stroke:#222222;stroke-width:1;"/><ellipse cx="341.8228" cy="564.8125" fill="#222222" rx="6" ry="6" style="stroke:#222222;stroke-width:1;"/><line style="stroke:#181818;stroke-width:1;" x1="341.8228" x2="341.8228" y1="30" y2="50"/><polygon fill="#181818" points="337.8228,40,341.8228,50,345.8228,40,341.8228,44" style="stroke:#181818;stroke-width:1;"/><line style="stroke:#181818;stroke-width:1;" x1="102.0264" x2="102.0264" y1="197.9375" y2="217.9375"/><polygon fill="#181818" points="98.0264,207.9375,102.0264,217.9375,106.0264,207.9375,102.0264,211.9375" style="stroke:#181818;stroke-width:1;"/><line style="stroke:#181818;stroke-width:1;" x1="291.9316" x2="291.9316" y1="197.9375" y2="217.9375"/><polygon fill="#181818" points="287.9316,207.9375,291.9316,217.9375,295.9316,207.9375,291.9316,211.9375" style="stroke:#181818;stroke-width:1;"/><line style="stroke:#181818;stroke-width:1;" x1="102.0264" x2="102.0264" y1="251.9063" y2="271.9063"/><polygon fill="#181818" points="98.0264,261.9063,102.0264,271.9063,106.0264,261.9063,102.0264,265.9063" style="stroke:#181818;stroke-width:1;"/><line style="stroke:#181818;stroke-width:1;" x1="291.9316" x2="291.9316" y1="251.9063" y2="271.9063"/><polygon fill="#181818" points="287.9316,261.9063,291.9316,271.9063,295.9316,261.9063,291.9316,265.9063" style="stroke:#181818;stroke-width:1;"/><line style="stroke:#181818;stroke-width:1;" x1="198.9053" x2="198.9053" y1="171.9375" y2="191.9375"/><polygon fill="#181818" points="194.9053,181.9375,198.9053,191.9375,202.9053,181.9375,198.9053,185.9375" style="stroke:#181818;stroke-width:1;"/><line style="stroke:#181818;stroke-width:1;" x1="198.9053" x2="198.9053" y1="277.9063" y2="297.9063"/><polygon fill="#181818" points="194.9053,287.9063,198.9053,297.9063,202.9053,287.9063,198.9053,291.9063" style="stroke:#181818;stroke-width:1;"/><line style="stroke:#181818;stroke-width:1;" x1="126.0845" x2="126.0845" y1="419.8438" y2="439.8438"/><polygon fill="#181818" points="122.0845,429.8438,126.0845,439.8438,130.0845,429.8438,126.0845,433.8438" style="stroke:#181818;stroke-width:1;"/><line style="stroke:#181818;stroke-width:1;" x1="157.5522" x2="126.0845" y1="363.875" y2="363.875"/><line style="stroke:#181818;stroke-width:1;" x1="126.0845" x2="126.0845" y1="363.875" y2="385.875"/><polygon fill="#181818" points="122.0845,375.875,126.0845,385.875,130.0845,375.875,126.0845,379.875" style="stroke:#181818;stroke-width:1;"/><line style="stroke:#181818;stroke-width:1;" x1="240.2583" x2="271.7261" y1="363.875" y2="363.875"/><line style="stroke:#181818;stroke-width:1;" x1="271.7261" x2="271.7261" y1="363.875" y2="385.875"/><polygon fill="#181818" points="267.7261,375.875,271.7261,385.875,275.7261,375.875,271.7261,379.875" style="stroke:#181818;stroke-width:1;"/><line style="stroke:#181818;stroke-width:1;" x1="126.0845" x2="126.0845" y1="473.8125" y2="491.8125"/><line style="stroke:#181818;stroke-width:1;" x1="126.0845" x2="186.9053" y1="491.8125" y2="491.8125"/><polygon fill="#181818" points="176.9053,487.8125,186.9053,491.8125,176.9053,495.8125,180.9053,491.8125" style="stroke:#181818;stroke-width:1;"/><line style="stroke:#181818;stroke-width:1;" x1="271.7261" x2="271.7261" y1="419.8438" y2="491.8125"/><line style="stroke:#181818;stroke-width:1;" x1="271.7261" x2="210.9053" y1="491.8125" y2="491.8125"/><polygon fill="#181818" points="220.9053,487.8125,210.9053,491.8125,220.9053,495.8125,216.9053,491.8125" style="stroke:#181818;stroke-width:1;"/><line style="stroke:#181818;stroke-width:1;" x1="198.9053" x2="198.9053" y1="331.875" y2="351.875"/><polygon fill="#181818" points="194.9053,341.875,198.9053,351.875,202.9053,341.875,198.9053,345.875" style="stroke:#181818;stroke-width:1;"/><line style="stroke:#181818;stroke-width:1;" x1="289.1716" x2="198.9053" y1="115.9688" y2="115.9688"/><line style="stroke:#181818;stroke-width:1;" x1="198.9053" x2="198.9053" y1="115.9688" y2="137.9688"/><polygon fill="#181818" points="194.9053,127.9688,198.9053,137.9688,202.9053,127.9688,198.9053,131.9688" style="stroke:#181818;stroke-width:1;"/><line style="stroke:#181818;stroke-width:1;" x1="394.4739" x2="484.7402" y1="115.9688" y2="115.9688"/><line style="stroke:#181818;stroke-width:1;" x1="484.7402" x2="484.7402" y1="115.9688" y2="137.9688"/><polygon fill="#181818" points="480.7402,127.9688,484.7402,137.9688,488.7402,127.9688,484.7402,131.9688" style="stroke:#181818;stroke-width:1;"/><line style="stroke:#181818;stroke-width:1;" x1="198.9053" x2="198.9053" y1="503.8125" y2="521.8125"/><line style="stroke:#181818;stroke-width:1;" x1="198.9053" x2="329.8228" y1="521.8125" y2="521.8125"/><polygon fill="#181818" points="319.8228,517.8125,329.8228,521.8125,319.8228,525.8125,323.8228,521.8125" style="stroke:#181818;stroke-width:1;"/><line style="stroke:#181818;stroke-width:1;" x1="484.7402" x2="484.7402" y1="171.9375" y2="521.8125"/><line style="stroke:#181818;stroke-width:1;" x1="484.7402" x2="353.8228" y1="521.8125" y2="521.8125"/><polygon fill="#181818" points="363.8228,517.8125,353.8228,521.8125,363.8228,525.8125,359.8228,521.8125" style="stroke:#181818;stroke-width:1;"/><line style="stroke:#181818;stroke-width:1;" x1="341.8228" x2="341.8228" y1="83.9688" y2="103.9688"/><polygon fill="#181818" points="337.8228,93.9688,341.8228,103.9688,345.8228,93.9688,341.8228,97.9688" style="stroke:#181818;stroke-width:1;"/><line style="stroke:#181818;stroke-width:1;" x1="341.8228" x2="341.8228" y1="533.8125" y2="553.8125"/><polygon fill="#181818" points="337.8228,543.8125,341.8228,553.8125,345.8228,543.8125,341.8228,547.8125" style="stroke:#181818;stroke-width:1;"/><!--SRC=[RP313e8m38RlUueUuHNWO3mOmq4bGVJSmD15tCXM8Bozwn23njFI_j_-lwqZj2H4Si5MrKWIjbLbUasfK0r4xmA2kec1xb93D4aN2u2aaBg6qpbFVT4O-_3FqXqKGd4eOEyjHvmM0l26IlzmkoUgTaso4Fmuv8gAkE8Wo7JN4oCy73V-3kP_bLrO9aVdHcFhTEuU3QbcWj996t9Q9o7I9lvICpsmwRAO7qOrOet-Wf-BpQXmPBeN]--></g></svg>