<svg xmlns="http://www.w3.org/2000/svg" xmlns:xlink="http://www.w3.org/1999/xlink" contentStyleType="text/css" data-diagram-type="DESCRIPTION" height="307px" preserveAspectRatio="none" style="width:543px;height:307px;background:#FFFFFF;" version="1.1" viewBox="0 0 543 307" width="543px" zoomAndPan="magnify"><defs/><g><!--cluster External Data System--><g class="cluster" data-entity="External Data System" data-source-line="12" data-uid="ent0010" id="cluster_External Data System"><path d="M199.69,216.31 L371.8619,216.31 A3.75,3.75 0 0 1 374.3619,218.81 L381.3619,238.6069 L533.69,238.6069 A2.5,2.5 0 0 1 536.19,241.1069 L536.19,297.73 A2.5,2.5 0 0 1 533.69,300.23 L199.69,300.23 A2.5,2.5 0 0 1 197.19,297.73 L197.19,218.81 A2.5,2.5 0 0 1 199.69,216.31" fill="none" style="stroke:#000000;stroke-width:1.5;"/><line style="stroke:#000000;stroke-width:1.5;" x1="197.19" x2="381.3619" y1="238.6069" y2="238.6069"/><text fill="#000000" font-family="sans-serif" font-size="14" font-weight="bold" lengthAdjust="spacing" textLength="171.1719" x="201.19" y="231.3051">External Data System</text></g><!--entity DC--><g class="entity" data-entity="DC" data-source-line="13" data-uid="ent0011" id="entity_DC"><ellipse cx="283.1872" cy="267.7694" fill="#F1F1F1" rx="70.2972" ry="16.4594" style="stroke:#181818;stroke-width:0.5;"/><text fill="#000000" font-family="sans-serif" font-size="14" lengthAdjust="spacing" textLength="107.126" x="229.6243" y="272.4179">Data Collection</text></g><!--entity DA--><g class="entity" data-entity="DA" data-source-line="14" data-uid="ent0012" id="entity_DA"><ellipse cx="454.192" cy="267.7684" fill="#F1F1F1" rx="65.792" ry="15.5584" style="stroke:#181818;stroke-width:0.5;"/><text fill="#000000" font-family="sans-serif" font-size="14" lengthAdjust="spacing" textLength="95.5596" x="406.4122" y="272.4168">Data Analysis</text></g><!--entity BDT--><g class="entity" data-entity="BDT" data-source-line="1" data-uid="ent0002" id="entity_BDT"><ellipse cx="272.1923" cy="14" fill="#F1F1F1" rx="8" ry="8" style="stroke:#181818;stroke-width:0.5;"/><path d="M272.1923,22 L272.1923,49 M259.1923,30 L285.1923,30 M272.1923,49 L259.1923,64 M272.1923,49 L285.1923,64" fill="none" style="stroke:#181818;stroke-width:0.5;"/><text fill="#000000" font-family="sans-serif" font-size="14" lengthAdjust="spacing" textLength="204.2646" x="170.06" y="78.4951">Business Development Team</text></g><!--entity CB--><g class="entity" data-entity="CB" data-source-line="3" data-uid="ent0003" id="entity_CB"><ellipse cx="152.1904" cy="164.9601" fill="#F1F1F1" rx="103.8504" ry="23.1701" style="stroke:#181818;stroke-width:0.5;"/><text fill="#000000" font-family="sans-serif" font-size="14" lengthAdjust="spacing" textLength="184.5088" x="59.936" y="169.6085">Competitor Benchmarking</text></g><!--entity MIA--><g class="entity" data-entity="MIA" data-source-line="4" data-uid="ent0004" id="entity_MIA"><ellipse cx="393.194" cy="164.9608" fill="#F1F1F1" rx="101.654" ry="22.7308" style="stroke:#181818;stroke-width:0.5;"/><text fill="#000000" font-family="sans-serif" font-size="14" lengthAdjust="spacing" textLength="179.6963" x="303.3459" y="169.6092">Market Influence Analysis</text></g><!--entity SA--><g class="entity" data-entity="SA" data-source-line="5" data-uid="ent0005" id="entity_SA"><ellipse cx="92.1891" cy="267.7678" fill="#F1F1F1" rx="86.1891" ry="19.6378" style="stroke:#181818;stroke-width:0.5;"/><text fill="#000000" font-family="sans-serif" font-size="14" lengthAdjust="spacing" textLength="145.0586" x="19.6598" y="272.4163">Strategy Adjustment</text></g><!--link BDT to CB--><g class="link" data-entity-1="BDT" data-entity-2="CB" data-source-line="7" data-uid="lnk6" id="link_BDT_CB"><path d="M234.55,82.07 C214.75,101.75 195.424,120.9687 178.574,137.7287" fill="none" id="BDT-to-CB" style="stroke:#181818;stroke-width:1;"/><polygon fill="#181818" points="174.32,141.96,183.5218,138.4491,177.865,138.4339,177.8801,132.7771,174.32,141.96" style="stroke:#181818;stroke-width:1;"/></g><!--link BDT to MIA--><g class="link" data-entity-1="BDT" data-entity-2="MIA" data-source-line="8" data-uid="lnk7" id="link_BDT_MIA"><path d="M310.14,82.07 C330.24,101.89 349.9361,121.3189 366.9561,138.0889" fill="none" id="BDT-to-MIA" style="stroke:#181818;stroke-width:1;"/><polygon fill="#181818" points="371.23,142.3,367.6266,133.134,367.6684,138.7907,362.0117,138.8326,371.23,142.3" style="stroke:#181818;stroke-width:1;"/></g><!--link CB to SA--><g class="link" data-entity-1="CB" data-entity-2="SA" data-source-line="9" data-uid="lnk8" id="link_CB_SA"><path d="M138.87,188.34 C128.24,206.2 116.5804,225.8051 106.5204,242.6951" fill="none" id="CB-to-SA" style="stroke:#181818;stroke-width:1;"/><polygon fill="#181818" points="103.45,247.85,111.4921,242.1646,106.0086,243.5543,104.6189,238.0708,103.45,247.85" style="stroke:#181818;stroke-width:1;"/></g><!--link MIA to SA--><g class="link" data-entity-1="MIA" data-entity-2="SA" data-source-line="10" data-uid="lnk9" id="link_MIA_SA"><path d="M316.19,180.19 C271.1,188.99 218.89,200.13 197.19,208.31 C169.27,218.83 144.8574,232.6432 124.2574,245.6132" fill="none" id="MIA-to-SA" style="stroke:#181818;stroke-width:1;"/><polygon fill="#181818" points="119.18,248.81,128.9274,247.3997,123.4112,246.146,124.6649,240.6298,119.18,248.81" style="stroke:#181818;stroke-width:1;"/></g><!--reverse link CB to DC--><g class="link" data-entity-1="CB" data-entity-2="DC" data-source-line="17" data-uid="lnk13" id="link_CB_DC"><path d="M185.0453,191.2488 C210.1553,210.5688 241.54,234.72 263.63,251.72" fill="none" id="CB-backto-DC" style="stroke:#181818;stroke-width:1;"/><polygon fill="#181818" points="180.29,187.59,184.9838,196.2484,184.2528,190.639,189.8622,189.908,180.29,187.59" style="stroke:#181818;stroke-width:1;"/></g><!--reverse link MIA to DA--><g class="link" data-entity-1="MIA" data-entity-2="DA" data-source-line="18" data-uid="lnk14" id="link_MIA_DA"><path d="M409.5364,192.9733 C421.3064,212.4233 435.09,235.21 445.31,252.1" fill="none" id="MIA-backto-DA" style="stroke:#181818;stroke-width:1;"/><polygon fill="#181818" points="406.43,187.84,407.6674,197.6108,409.0186,192.1177,414.5117,193.469,406.43,187.84" style="stroke:#181818;stroke-width:1;"/></g><!--SRC=[POzDJiGm34RtFeNLVM-0aFB3OXQpwbp02gQ4IPEgTaTKYBkJH1f6YDrdvzdFeQ1bmy7k4ZEBeESRfx8kd1KlJCk096Zz1M0N3YICWolBoXhRdEKStXVQhZ7FdNJsmPrhdnLF-ItjbMCqcT8XKJfvFfa7Ekb6olE1vlLZ5sts3aq6eCfn79_RwdjiiyxsM8bQtIEi5AuqruqldyfRzQ4d9PmEKQv_-GB4Nsb_SIKb3XfBxaBl_X5_hlO6lg6vdyQnmStTeu4V]--></g></svg>