<svg xmlns="http://www.w3.org/2000/svg" xmlns:xlink="http://www.w3.org/1999/xlink" contentStyleType="text/css" data-diagram-type="CLASS" height="268px" preserveAspectRatio="none" style="width:806px;height:268px;background:#FFFFFF;" version="1.1" viewBox="0 0 806 268" width="806px" zoomAndPan="magnify"><defs/><g><!--class SocialMediaAccount--><g class="entity" data-entity="SocialMediaAccount" data-source-line="1" data-uid="ent0002" id="entity_SocialMediaAccount"><rect fill="#F1F1F1" height="80.5938" rx="2.5" ry="2.5" style="stroke:#181818;stroke-width:0.5;" width="173.4238" x="7" y="7"/><ellipse cx="22.4931" cy="23" fill="#ADD1B2" rx="11" ry="11" style="stroke:#181818;stroke-width:1;"/><path d="M25.4618,28.6406 Q24.8837,28.9375 24.2431,29.0781 Q23.6024,29.2344 22.8993,29.2344 Q20.3993,29.2344 19.0712,27.5938 Q17.7587,25.9375 17.7587,22.8125 Q17.7587,19.6875 19.0712,18.0313 Q20.3993,16.375 22.8993,16.375 Q23.6024,16.375 24.2431,16.5313 Q24.8993,16.6875 25.4618,16.9844 L25.4618,19.7031 Q24.8368,19.125 24.2431,18.8594 Q23.6493,18.5781 23.0243,18.5781 Q21.6806,18.5781 20.9931,19.6563 Q20.3056,20.7188 20.3056,22.8125 Q20.3056,24.9063 20.9931,25.9844 Q21.6806,27.0469 23.0243,27.0469 Q23.6493,27.0469 24.2431,26.7813 Q24.8368,26.5 25.4618,25.9219 L25.4618,28.6406 Z " fill="#000000"/><text fill="#000000" font-family="sans-serif" font-size="14" lengthAdjust="spacing" textLength="140.3281" x="36.6026" y="27.8467">SocialMediaAccount</text><line style="stroke:#181818;stroke-width:0.5;" x1="8" x2="179.4238" y1="39" y2="39"/><rect fill="none" height="6" style="stroke:#C82930;stroke-width:1;" width="6" x="15" y="49.6484"/><text fill="#000000" font-family="sans-serif" font-size="14" lengthAdjust="spacing" textLength="145.0176" x="27" y="55.9951">platformType: String</text><rect fill="none" height="6" style="stroke:#C82930;stroke-width:1;" width="6" x="15" y="65.9453"/><text fill="#000000" font-family="sans-serif" font-size="14" lengthAdjust="spacing" textLength="147.4238" x="27" y="72.292">userInteractions: List</text><line style="stroke:#181818;stroke-width:0.5;" x1="8" x2="179.4238" y1="79.5938" y2="79.5938"/></g><!--class AnalysisMetrics--><g class="entity" data-entity="AnalysisMetrics" data-source-line="6" data-uid="ent0003" id="entity_AnalysisMetrics"><rect fill="#F1F1F1" height="96.8906" rx="2.5" ry="2.5" style="stroke:#181818;stroke-width:0.5;" width="248.3047" x="192.56" y="164.59"/><ellipse cx="258.2123" cy="180.59" fill="#ADD1B2" rx="11" ry="11" style="stroke:#181818;stroke-width:1;"/><path d="M261.1811,186.2306 Q260.603,186.5275 259.9623,186.6681 Q259.3217,186.8244 258.6186,186.8244 Q256.1186,186.8244 254.7905,185.1838 Q253.478,183.5275 253.478,180.4025 Q253.478,177.2775 254.7905,175.6213 Q256.1186,173.965 258.6186,173.965 Q259.3217,173.965 259.9623,174.1213 Q260.6186,174.2775 261.1811,174.5744 L261.1811,177.2931 Q260.5561,176.715 259.9623,176.4494 Q259.3686,176.1681 258.7436,176.1681 Q257.3998,176.1681 256.7123,177.2463 Q256.0248,178.3088 256.0248,180.4025 Q256.0248,182.4963 256.7123,183.5744 Q257.3998,184.6369 258.7436,184.6369 Q259.3686,184.6369 259.9623,184.3713 Q260.5561,184.09 261.1811,183.5119 L261.1811,186.2306 Z " fill="#000000"/><text fill="#000000" font-family="sans-serif" font-size="14" lengthAdjust="spacing" textLength="108.5" x="278.7123" y="185.4367">AnalysisMetrics</text><line style="stroke:#181818;stroke-width:0.5;" x1="193.56" x2="439.8647" y1="196.59" y2="196.59"/><rect fill="none" height="6" style="stroke:#C82930;stroke-width:1;" width="6" x="200.56" y="207.2384"/><text fill="#000000" font-family="sans-serif" font-size="14" lengthAdjust="spacing" textLength="187.3594" x="212.56" y="213.5851">engagementScore: Double</text><rect fill="none" height="6" style="stroke:#C82930;stroke-width:1;" width="6" x="200.56" y="223.5353"/><text fill="#000000" font-family="sans-serif" font-size="14" lengthAdjust="spacing" textLength="147.4238" x="212.56" y="229.882">userInteractions: List</text><line style="stroke:#181818;stroke-width:0.5;" x1="193.56" x2="439.8647" y1="237.1838" y2="237.1838"/><ellipse cx="203.56" cy="250.8322" fill="#84BE84" rx="3" ry="3" style="stroke:#038048;stroke-width:1;"/><text fill="#000000" font-family="sans-serif" font-size="14" lengthAdjust="spacing" textLength="222.3047" x="212.56" y="254.1789">calculateEngagement(): Double</text></g><!--class APIHandler--><g class="entity" data-entity="APIHandler" data-source-line="12" data-uid="ent0004" id="entity_APIHandler"><rect fill="#F1F1F1" height="64.2969" rx="2.5" ry="2.5" style="stroke:#181818;stroke-width:0.5;" width="203.0781" x="215.17" y="15.14"/><ellipse cx="273.8223" cy="31.14" fill="#ADD1B2" rx="11" ry="11" style="stroke:#181818;stroke-width:1;"/><path d="M276.7911,36.7806 Q276.213,37.0775 275.5723,37.2181 Q274.9317,37.3744 274.2286,37.3744 Q271.7286,37.3744 270.4005,35.7337 Q269.088,34.0775 269.088,30.9525 Q269.088,27.8275 270.4005,26.1712 Q271.7286,24.515 274.2286,24.515 Q274.9317,24.515 275.5723,24.6712 Q276.2286,24.8275 276.7911,25.1244 L276.7911,27.8431 Q276.1661,27.265 275.5723,26.9994 Q274.9786,26.7181 274.3536,26.7181 Q273.0098,26.7181 272.3223,27.7962 Q271.6348,28.8587 271.6348,30.9525 Q271.6348,33.0462 272.3223,34.1244 Q273.0098,35.1869 274.3536,35.1869 Q274.9786,35.1869 275.5723,34.9212 Q276.1661,34.64 276.7911,34.0619 L276.7911,36.7806 Z " fill="#000000"/><text fill="#000000" font-family="sans-serif" font-size="14" lengthAdjust="spacing" textLength="77.2734" x="294.3223" y="35.9867">APIHandler</text><line style="stroke:#181818;stroke-width:0.5;" x1="216.17" x2="417.2481" y1="47.14" y2="47.14"/><line style="stroke:#181818;stroke-width:0.5;" x1="216.17" x2="417.2481" y1="55.14" y2="55.14"/><ellipse cx="226.17" cy="68.7884" fill="#84BE84" rx="3" ry="3" style="stroke:#038048;stroke-width:1;"/><text fill="#000000" font-family="sans-serif" font-size="14" lengthAdjust="spacing" textLength="177.0781" x="235.17" y="72.1351">handleAPIRequest(): void</text></g><!--class DashboardViewer--><g class="entity" data-entity="DashboardViewer" data-source-line="16" data-uid="ent0005" id="entity_DashboardViewer"><rect fill="#F1F1F1" height="64.2969" rx="2.5" ry="2.5" style="stroke:#181818;stroke-width:0.5;" width="346.291" x="453.57" y="15.14"/><ellipse cx="560.4157" cy="31.14" fill="#ADD1B2" rx="11" ry="11" style="stroke:#181818;stroke-width:1;"/><path d="M563.3845,36.7806 Q562.8063,37.0775 562.1657,37.2181 Q561.5251,37.3744 560.822,37.3744 Q558.322,37.3744 556.9938,35.7337 Q555.6813,34.0775 555.6813,30.9525 Q555.6813,27.8275 556.9938,26.1712 Q558.322,24.515 560.822,24.515 Q561.5251,24.515 562.1657,24.6712 Q562.822,24.8275 563.3845,25.1244 L563.3845,27.8431 Q562.7595,27.265 562.1657,26.9994 Q561.572,26.7181 560.947,26.7181 Q559.6032,26.7181 558.9157,27.7962 Q558.2282,28.8587 558.2282,30.9525 Q558.2282,33.0462 558.9157,34.1244 Q559.6032,35.1869 560.947,35.1869 Q561.572,35.1869 562.1657,34.9212 Q562.7595,34.64 563.3845,34.0619 L563.3845,36.7806 Z " fill="#000000"/><text fill="#000000" font-family="sans-serif" font-size="14" lengthAdjust="spacing" textLength="124.0996" x="580.9157" y="35.9867">DashboardViewer</text><line style="stroke:#181818;stroke-width:0.5;" x1="454.57" x2="798.861" y1="47.14" y2="47.14"/><line style="stroke:#181818;stroke-width:0.5;" x1="454.57" x2="798.861" y1="55.14" y2="55.14"/><ellipse cx="464.57" cy="68.7884" fill="#84BE84" rx="3" ry="3" style="stroke:#038048;stroke-width:1;"/><text fill="#000000" font-family="sans-serif" font-size="14" lengthAdjust="spacing" textLength="320.291" x="473.57" y="72.1351">displayMetrics(metrics: AnalysisMetrics): void</text></g><!--link SocialMediaAccount to AnalysisMetrics--><g class="link" data-entity-1="SocialMediaAccount" data-entity-2="AnalysisMetrics" data-source-line="20" data-uid="lnk6" id="link_SocialMediaAccount_AnalysisMetrics"><path codeLine="20" d="M147.69,87.93 C179.02,110.93 213.8442,136.4982 246.8742,160.7582" fill="none" id="SocialMediaAccount-to-AnalysisMetrics" style="stroke:#181818;stroke-width:1;"/><polygon fill="#181818" points="251.71,164.31,246.8242,155.7585,247.6802,161.3502,242.0885,162.2062,251.71,164.31" style="stroke:#181818;stroke-width:1;"/><text fill="#000000" font-family="sans-serif" font-size="13" lengthAdjust="spacing" textLength="65.6665" x="206.21" y="130.6569">generates</text><text fill="#000000" font-family="sans-serif" font-size="13" lengthAdjust="spacing" textLength="8.271" x="147.6769" y="107.6787">1</text><text fill="#000000" font-family="sans-serif" font-size="13" lengthAdjust="spacing" textLength="23.0356" x="217.9544" y="153.4795">0..*</text></g><!--link APIHandler to AnalysisMetrics--><g class="link" data-entity-1="APIHandler" data-entity-2="AnalysisMetrics" data-source-line="21" data-uid="lnk7" id="link_APIHandler_AnalysisMetrics"><path codeLine="21" d="M316.71,79.86 C316.71,103.75 316.71,130.96 316.71,158.11" fill="none" id="APIHandler-to-AnalysisMetrics" style="stroke:#181818;stroke-width:1;"/><polygon fill="#181818" points="316.71,164.11,320.71,155.11,316.71,159.11,312.71,155.11,316.71,164.11" style="stroke:#181818;stroke-width:1;"/><text fill="#000000" font-family="sans-serif" font-size="13" lengthAdjust="spacing" textLength="103.251" x="317.71" y="130.6569">fetches data for</text><text fill="#000000" font-family="sans-serif" font-size="13" lengthAdjust="spacing" textLength="8.271" x="307.9735" y="99.5782">1</text><text fill="#000000" font-family="sans-serif" font-size="13" lengthAdjust="spacing" textLength="8.271" x="308.1904" y="153.6037">1</text></g><!--link DashboardViewer to AnalysisMetrics--><g class="link" data-entity-1="DashboardViewer" data-entity-2="AnalysisMetrics" data-source-line="22" data-uid="lnk8" id="link_DashboardViewer_AnalysisMetrics"><path codeLine="22" d="M566.94,79.86 C521.72,103.75 464.1556,134.1581 412.7456,161.3081" fill="none" id="DashboardViewer-to-AnalysisMetrics" style="stroke:#181818;stroke-width:1;"/><polygon fill="#181818" points="407.44,164.11,417.2663,163.4442,411.8613,161.7751,413.5304,156.3701,407.44,164.11" style="stroke:#181818;stroke-width:1;"/><text fill="#000000" font-family="sans-serif" font-size="13" lengthAdjust="spacing" textLength="52.9331" x="491.27" y="130.6569">displays</text><text fill="#000000" font-family="sans-serif" font-size="13" lengthAdjust="spacing" textLength="8.271" x="546.8086" y="99.5782">1</text><text fill="#000000" font-family="sans-serif" font-size="13" lengthAdjust="spacing" textLength="8.271" x="411.1122" y="153.6037">1</text></g><!--SRC=[VP71QiCm38RlVWgHKxUIqbvp61GwM665iepTLLbD38xTMSv667ltULb8GrVgYp7Y-wHV9eiYK7eoQ7Ui3Qw9VEiYV2b89uUJnNZqeNdjJbn06ODnrL1gXSFMHGv8qNWd1JmRYUfRAUgjQuUs4oCxJXJ9g6HNOSKDkrYI3ycwyUt1ycthRt4EX9RQD14_ZexPtIWuTzvldz1fos5eEeUwVwV22x-tB3tsuOq-GnkK-k0nw3V3dnDI6qbBw8OKi-RlBYxZJNnNrfcjCiZp1yYMYyLzzcyr1LJiKkJ8eYR3ZzJg6dBaI3KBQ8m8wO_KPOBR-91BVW00]--></g></svg>