<svg xmlns="http://www.w3.org/2000/svg" xmlns:xlink="http://www.w3.org/1999/xlink" contentStyleType="text/css" data-diagram-type="DESCRIPTION" height="320px" preserveAspectRatio="none" style="width:503px;height:320px;background:#FFFFFF;" version="1.1" viewBox="0 0 503 320" width="503px" zoomAndPan="magnify"><defs/><g><!--entity NS--><g class="entity" data-entity="NS" data-source-line="1" data-uid="ent0002" id="entity_NS"><ellipse cx="274.9703" cy="14" fill="#F1F1F1" rx="8" ry="8" style="stroke:#181818;stroke-width:0.5;"/><path d="M274.9703,22 L274.9703,49 M261.9703,30 L287.9703,30 M274.9703,49 L261.9703,64 M274.9703,49 L287.9703,64" fill="none" style="stroke:#181818;stroke-width:0.5;"/><text fill="#000000" font-family="sans-serif" font-size="14" lengthAdjust="spacing" textLength="136.5205" x="206.71" y="78.4951">Notification Service</text></g><!--entity U--><g class="entity" data-entity="U" data-source-line="2" data-uid="ent0003" id="entity_U"><ellipse cx="274.9751" cy="247.88" fill="#F1F1F1" rx="8" ry="8" style="stroke:#181818;stroke-width:0.5;"/><path d="M274.9751,255.88 L274.9751,282.88 M261.9751,263.88 L287.9751,263.88 M274.9751,282.88 L261.9751,297.88 M274.9751,282.88 L287.9751,297.88" fill="none" style="stroke:#181818;stroke-width:0.5;"/><text fill="#000000" font-family="sans-serif" font-size="14" lengthAdjust="spacing" textLength="31.9102" x="259.02" y="312.3751">User</text></g><!--entity OC--><g class="entity" data-entity="OC" data-source-line="4" data-uid="ent0004" id="entity_OC"><ellipse cx="87.9728" cy="160.5946" fill="#F1F1F1" rx="81.9728" ry="18.7946" style="stroke:#181818;stroke-width:0.5;"/><text fill="#000000" font-family="sans-serif" font-size="14" lengthAdjust="spacing" textLength="135.3037" x="20.3209" y="165.243">Order Confirmation</text></g><!--entity SU--><g class="entity" data-entity="SU" data-source-line="5" data-uid="ent0005" id="entity_SU"><ellipse cx="274.97" cy="160.594" fill="#F1F1F1" rx="70.27" ry="16.454" style="stroke:#181818;stroke-width:0.5;"/><text fill="#000000" font-family="sans-serif" font-size="14" lengthAdjust="spacing" textLength="107.0576" x="221.4412" y="165.2424">Status Updates</text></g><!--entity P--><g class="entity" data-entity="P" data-source-line="6" data-uid="ent0006" id="entity_P"><ellipse cx="438.9667" cy="160.5936" fill="#F1F1F1" rx="58.9167" ry="14.5236" style="stroke:#181818;stroke-width:0.5;"/><text fill="#000000" font-family="sans-serif" font-size="14" lengthAdjust="spacing" textLength="79.0781" x="399.4276" y="165.2421">Promotions</text></g><!--link NS to OC--><g class="link" data-entity-1="NS" data-entity-2="OC" data-source-line="8" data-uid="lnk7" id="link_NS_OC"><path d="M213.74,82.28 C180.72,102.58 146.6917,123.4983 120.9517,139.3183" fill="none" id="NS-to-OC" style="stroke:#181818;stroke-width:1;"/><polygon fill="#181818" points="115.84,142.46,125.6021,141.1553,120.0998,139.8419,121.4131,134.3396,115.84,142.46" style="stroke:#181818;stroke-width:1;"/></g><!--link NS to SU--><g class="link" data-entity-1="NS" data-entity-2="SU" data-source-line="9" data-uid="lnk8" id="link_NS_SU"><path d="M274.97,82.28 C274.97,103.1 274.97,121.88 274.97,137.67" fill="none" id="NS-to-SU" style="stroke:#181818;stroke-width:1;"/><polygon fill="#181818" points="274.97,143.67,278.97,134.67,274.97,138.67,270.97,134.67,274.97,143.67" style="stroke:#181818;stroke-width:1;"/></g><!--link NS to P--><g class="link" data-entity-1="NS" data-entity-2="P" data-source-line="10" data-uid="lnk9" id="link_NS_P"><path d="M328.67,82.28 C360.25,104.41 393.2872,127.5655 415.4372,143.0955" fill="none" id="NS-to-P" style="stroke:#181818;stroke-width:1;"/><polygon fill="#181818" points="420.35,146.54,415.2772,138.0981,416.256,143.6696,410.6845,144.6484,420.35,146.54" style="stroke:#181818;stroke-width:1;"/></g><!--link OC to U--><g class="link" data-entity-1="OC" data-entity-2="U" data-source-line="12" data-uid="lnk10" id="link_OC_U"><path d="M115.57,178.55 C155.19,202.9 221.8282,243.8684 253.7682,263.4984" fill="none" id="OC-to-U" style="stroke:#181818;stroke-width:1;"/><polygon fill="#181818" points="258.88,266.64,253.3068,258.5197,254.6202,264.022,249.1179,265.3354,258.88,266.64" style="stroke:#181818;stroke-width:1;"/></g><!--link SU to U--><g class="link" data-entity-1="SU" data-entity-2="U" data-source-line="13" data-uid="lnk11" id="link_SU_U"><path d="M274.97,177.09 C274.97,192.9 274.97,212.03 274.97,233.07" fill="none" id="SU-to-U" style="stroke:#181818;stroke-width:1;"/><polygon fill="#181818" points="274.97,239.07,278.97,230.07,274.97,234.07,270.97,230.07,274.97,239.07" style="stroke:#181818;stroke-width:1;"/></g><!--link P to U--><g class="link" data-entity-1="P" data-entity-2="U" data-source-line="14" data-uid="lnk12" id="link_P_U"><path d="M420.16,174.77 C387.68,197.54 326.5632,240.3661 296.0332,261.7661" fill="none" id="P-to-U" style="stroke:#181818;stroke-width:1;"/><polygon fill="#181818" points="291.12,265.21,300.7857,263.3196,295.2143,262.3401,296.1939,256.7687,291.12,265.21" style="stroke:#181818;stroke-width:1;"/></g><!--SRC=[HOn12iGW34NtdYAuxnLcurw5u062JS55wn3JEVzO5RhoaVU-bBKAM5-r72MJbde1ilnAPWlKmAEXcQJ6Cax9cBjnfiPWW-miuEfr53d7UYJ1lGagwTrNtvsKsz2ONXsbdlKPJXMDyGZRzdd-MDJpHTq6DoWPJ0lYVFy0]--></g></svg>