<svg xmlns="http://www.w3.org/2000/svg" xmlns:xlink="http://www.w3.org/1999/xlink" contentStyleType="text/css" data-diagram-type="CLASS" height="284px" preserveAspectRatio="none" style="width:434px;height:284px;background:#FFFFFF;" version="1.1" viewBox="0 0 434 284" width="434px" zoomAndPan="magnify"><defs/><g><!--class IndicatorManager--><g class="entity" data-entity="IndicatorManager" data-source-line="1" data-uid="ent0002" id="entity_IndicatorManager"><rect fill="#F1F1F1" height="113.1875" rx="2.5" ry="2.5" style="stroke:#181818;stroke-width:0.5;" width="169.3906" x="84.08" y="7"/><ellipse cx="105.4516" cy="23" fill="#ADD1B2" rx="11" ry="11" style="stroke:#181818;stroke-width:1;"/><path d="M108.4204,28.6406 Q107.8423,28.9375 107.2016,29.0781 Q106.561,29.2344 105.8579,29.2344 Q103.3579,29.2344 102.0298,27.5938 Q100.7173,25.9375 100.7173,22.8125 Q100.7173,19.6875 102.0298,18.0313 Q103.3579,16.375 105.8579,16.375 Q106.561,16.375 107.2016,16.5313 Q107.8579,16.6875 108.4204,16.9844 L108.4204,19.7031 Q107.7954,19.125 107.2016,18.8594 Q106.6079,18.5781 105.9829,18.5781 Q104.6391,18.5781 103.9516,19.6563 Q103.2641,20.7188 103.2641,22.8125 Q103.2641,24.9063 103.9516,25.9844 Q104.6391,27.0469 105.9829,27.0469 Q106.6079,27.0469 107.2016,26.7813 Q107.7954,26.5 108.4204,25.9219 L108.4204,28.6406 Z " fill="#000000"/><text fill="#000000" font-family="sans-serif" font-size="14" lengthAdjust="spacing" textLength="123.2314" x="120.8675" y="27.8467">IndicatorManager</text><line style="stroke:#181818;stroke-width:0.5;" x1="85.08" x2="252.4706" y1="39" y2="39"/><rect fill="none" height="6" style="stroke:#C82930;stroke-width:1;" width="6" x="92.08" y="49.6484"/><text fill="#000000" font-family="sans-serif" font-size="14" lengthAdjust="spacing" textLength="101.3975" x="104.08" y="55.9951">IndicatorValue</text><rect fill="none" height="6" style="stroke:#C82930;stroke-width:1;" width="6" x="92.08" y="65.9453"/><text fill="#000000" font-family="sans-serif" font-size="14" lengthAdjust="spacing" textLength="113.5518" x="104.08" y="72.292">SubmissionDate</text><line style="stroke:#181818;stroke-width:0.5;" x1="85.08" x2="252.4706" y1="79.5938" y2="79.5938"/><ellipse cx="95.08" cy="93.2422" fill="#84BE84" rx="3" ry="3" style="stroke:#038048;stroke-width:1;"/><text fill="#000000" font-family="sans-serif" font-size="14" lengthAdjust="spacing" textLength="143.3906" x="104.08" y="96.5889">calculateIndicators()</text><ellipse cx="95.08" cy="109.5391" fill="#84BE84" rx="3" ry="3" style="stroke:#038048;stroke-width:1;"/><text fill="#000000" font-family="sans-serif" font-size="14" lengthAdjust="spacing" textLength="125.4395" x="104.08" y="112.8857">submitToEtimad()</text></g><!--class TenderData--><g class="entity" data-entity="TenderData" data-source-line="8" data-uid="ent0003" id="entity_TenderData"><rect fill="#F1F1F1" height="80.5938" rx="2.5" ry="2.5" style="stroke:#181818;stroke-width:0.5;" width="139.5518" x="7" y="197.19"/><ellipse cx="33.1735" cy="213.19" fill="#ADD1B2" rx="11" ry="11" style="stroke:#181818;stroke-width:1;"/><path d="M36.1423,218.8306 Q35.5642,219.1275 34.9235,219.2681 Q34.2829,219.4244 33.5798,219.4244 Q31.0798,219.4244 29.7517,217.7837 Q28.4392,216.1275 28.4392,213.0025 Q28.4392,209.8775 29.7517,208.2212 Q31.0798,206.565 33.5798,206.565 Q34.2829,206.565 34.9235,206.7212 Q35.5798,206.8775 36.1423,207.1744 L36.1423,209.8931 Q35.5173,209.315 34.9235,209.0494 Q34.3298,208.7681 33.7048,208.7681 Q32.361,208.7681 31.6735,209.8462 Q30.986,210.9087 30.986,213.0025 Q30.986,215.0962 31.6735,216.1744 Q32.361,217.2369 33.7048,217.2369 Q34.3298,217.2369 34.9235,216.9712 Q35.5173,216.69 36.1423,216.1119 L36.1423,218.8306 Z " fill="#000000"/><text fill="#000000" font-family="sans-serif" font-size="14" lengthAdjust="spacing" textLength="82.7217" x="49.6565" y="218.0367">TenderData</text><line style="stroke:#181818;stroke-width:0.5;" x1="8" x2="145.5518" y1="229.19" y2="229.19"/><rect fill="none" height="6" style="stroke:#C82930;stroke-width:1;" width="6" x="15" y="239.8384"/><text fill="#000000" font-family="sans-serif" font-size="14" lengthAdjust="spacing" textLength="101.3975" x="27" y="246.1851">IndicatorValue</text><rect fill="none" height="6" style="stroke:#C82930;stroke-width:1;" width="6" x="15" y="256.1353"/><text fill="#000000" font-family="sans-serif" font-size="14" lengthAdjust="spacing" textLength="113.5518" x="27" y="262.482">SubmissionDate</text><line style="stroke:#181818;stroke-width:0.5;" x1="8" x2="145.5518" y1="269.7837" y2="269.7837"/></g><!--class EtimadIntegration--><g class="entity" data-entity="EtimadIntegration" data-source-line="13" data-uid="ent0004" id="entity_EtimadIntegration"><rect fill="#F1F1F1" height="64.2969" rx="2.5" ry="2.5" style="stroke:#181818;stroke-width:0.5;" width="158.4717" x="181.54" y="205.33"/><ellipse cx="196.54" cy="221.33" fill="#ADD1B2" rx="11" ry="11" style="stroke:#181818;stroke-width:1;"/><path d="M199.5088,226.9706 Q198.9306,227.2675 198.29,227.4081 Q197.6494,227.5644 196.9463,227.5644 Q194.4463,227.5644 193.1181,225.9237 Q191.8056,224.2675 191.8056,221.1425 Q191.8056,218.0175 193.1181,216.3612 Q194.4463,214.705 196.9463,214.705 Q197.6494,214.705 198.29,214.8612 Q198.9463,215.0175 199.5088,215.3144 L199.5088,218.0331 Q198.8838,217.455 198.29,217.1894 Q197.6963,216.9081 197.0713,216.9081 Q195.7275,216.9081 195.04,217.9862 Q194.3525,219.0487 194.3525,221.1425 Q194.3525,223.2362 195.04,224.3144 Q195.7275,225.3769 197.0713,225.3769 Q197.6963,225.3769 198.29,225.1112 Q198.8838,224.83 199.5088,224.2519 L199.5088,226.9706 Z " fill="#000000"/><text fill="#000000" font-family="sans-serif" font-size="14" lengthAdjust="spacing" textLength="126.4717" x="210.54" y="226.1767">EtimadIntegration</text><line style="stroke:#181818;stroke-width:0.5;" x1="182.54" x2="339.0117" y1="237.33" y2="237.33"/><line style="stroke:#181818;stroke-width:0.5;" x1="182.54" x2="339.0117" y1="245.33" y2="245.33"/><ellipse cx="192.54" cy="258.9784" fill="#84BE84" rx="3" ry="3" style="stroke:#038048;stroke-width:1;"/><text fill="#000000" font-family="sans-serif" font-size="14" lengthAdjust="spacing" textLength="125.4395" x="201.54" y="262.3251">submitToEtimad()</text></g><!--class User--><g class="entity" data-entity="User" data-source-line="17" data-uid="ent0005" id="entity_User"><rect fill="#F1F1F1" height="80.5938" rx="2.5" ry="2.5" style="stroke:#181818;stroke-width:0.5;" width="139.5518" x="288" y="23.3"/><ellipse cx="337.5708" cy="39.3" fill="#ADD1B2" rx="11" ry="11" style="stroke:#181818;stroke-width:1;"/><path d="M340.5396,44.9406 Q339.9614,45.2375 339.3208,45.3781 Q338.6802,45.5344 337.9771,45.5344 Q335.4771,45.5344 334.1489,43.8937 Q332.8364,42.2375 332.8364,39.1125 Q332.8364,35.9875 334.1489,34.3312 Q335.4771,32.675 337.9771,32.675 Q338.6802,32.675 339.3208,32.8312 Q339.9771,32.9875 340.5396,33.2844 L340.5396,36.0031 Q339.9146,35.425 339.3208,35.1594 Q338.7271,34.8781 338.1021,34.8781 Q336.7583,34.8781 336.0708,35.9562 Q335.3833,37.0187 335.3833,39.1125 Q335.3833,41.2062 336.0708,42.2844 Q336.7583,43.3469 338.1021,43.3469 Q338.7271,43.3469 339.3208,43.0812 Q339.9146,42.8 340.5396,42.2219 L340.5396,44.9406 Z " fill="#000000"/><text fill="#000000" font-family="sans-serif" font-size="14" lengthAdjust="spacing" textLength="31.9102" x="358.0708" y="44.1467">User</text><line style="stroke:#181818;stroke-width:0.5;" x1="289" x2="426.5518" y1="55.3" y2="55.3"/><rect fill="none" height="6" style="stroke:#C82930;stroke-width:1;" width="6" x="296" y="65.9484"/><text fill="#000000" font-family="sans-serif" font-size="14" lengthAdjust="spacing" textLength="101.3975" x="308" y="72.2951">IndicatorValue</text><rect fill="none" height="6" style="stroke:#C82930;stroke-width:1;" width="6" x="296" y="82.2453"/><text fill="#000000" font-family="sans-serif" font-size="14" lengthAdjust="spacing" textLength="113.5518" x="308" y="88.592">SubmissionDate</text><line style="stroke:#181818;stroke-width:0.5;" x1="289" x2="426.5518" y1="95.8937" y2="95.8937"/></g><!--reverse link IndicatorManager to TenderData--><g class="link" data-entity-1="IndicatorManager" data-entity-2="TenderData" data-source-line="22" data-uid="lnk6" id="link_IndicatorManager_TenderData"><path codeLine="22" d="M109.2646,130.1784 C102.2446,139.5884 102.89,140.01 97.78,150.19 C90.51,164.65 85.67,181.77 82.49,196.93" fill="none" id="IndicatorManager-backto-TenderData" style="stroke:#181818;stroke-width:1;"/><polygon fill="#181818" points="116.44,120.56,109.6462,122.9774,109.2646,130.1784,116.0584,127.761,116.44,120.56" style="stroke:#181818;stroke-width:1;"/><text fill="#000000" font-family="sans-serif" font-size="13" lengthAdjust="spacing" textLength="118.2441" x="98.78" y="163.2569">collates data from</text><text fill="#000000" font-family="sans-serif" font-size="13" lengthAdjust="spacing" textLength="8.271" x="101.9419" y="140.0885">1</text><text fill="#000000" font-family="sans-serif" font-size="13" lengthAdjust="spacing" textLength="36.5625" x="44.5017" y="186.0485">many</text></g><!--link IndicatorManager to EtimadIntegration--><g class="link" data-entity-1="IndicatorManager" data-entity-2="EtimadIntegration" data-source-line="23" data-uid="lnk7" id="link_IndicatorManager_EtimadIntegration"><path codeLine="23" d="M204.9,120.62 C210.76,130.35 216.6,140.47 221.78,150.19 C231.21,167.89 238.128,182.8131 245.278,199.3431" fill="none" id="IndicatorManager-to-EtimadIntegration" style="stroke:#181818;stroke-width:1;stroke-dasharray:7,7;"/><polygon fill="#181818" points="247.66,204.85,247.7583,195.0016,245.675,200.2609,240.4157,198.1776,247.66,204.85" style="stroke:#181818;stroke-width:1;"/><text fill="#000000" font-family="sans-serif" font-size="13" lengthAdjust="spacing" textLength="45.7666" x="231" y="163.2569">utilizes</text><text fill="#000000" font-family="sans-serif" font-size="13" lengthAdjust="spacing" textLength="8.271" x="200.6301" y="140.1554">1</text><text fill="#000000" font-family="sans-serif" font-size="13" lengthAdjust="spacing" textLength="8.271" x="236.4231" y="194.2801">1</text></g><!--SRC=[bL2x2i904Epp5SjLFaZ0DeML5YbI6UtNkpCSt0DkxmeL_ztBWoX4X6opx0mpmopNI0IL5OfZSBv6YwtqyCmWJVuXBgYZ7C5Jl1f5f9mzO1Z0BN3KFEfqJn9QhKUEEa5et34eWoB1hopZVN0ZhP0-sU2Yo4a_E5OsoDPZIFHeyo_pJ0iB9kNiGMp7O9Fdm0pQE_lkKG9tkdi4WUZkctVcjxuezlsUboWX1gNLGz8R]--></g></svg>