<svg xmlns="http://www.w3.org/2000/svg" xmlns:xlink="http://www.w3.org/1999/xlink" contentStyleType="text/css" data-diagram-type="DESCRIPTION" height="222px" preserveAspectRatio="none" style="width:1666px;height:222px;background:#FFFFFF;" version="1.1" viewBox="0 0 1666 222" width="1666px" zoomAndPan="magnify"><defs/><g><!--entity MarketingAnalyst--><g class="entity" data-entity="MarketingAnalyst" data-source-line="1" data-uid="ent0002" id="entity_MarketingAnalyst"><ellipse cx="406.2093" cy="14" fill="#F1F1F1" rx="8" ry="8" style="stroke:#181818;stroke-width:0.5;"/><path d="M406.2093,22 L406.2093,49 M393.2093,30 L419.2093,30 M406.2093,49 L393.2093,64 M406.2093,49 L419.2093,64" fill="none" style="stroke:#181818;stroke-width:0.5;"/><text fill="#000000" font-family="sans-serif" font-size="14" lengthAdjust="spacing" textLength="181.1387" x="315.64" y="78.4951">&#1605;&#1581;&#1604;&#1604; &#1575;&#1604;&#1578;&#1587;&#1608;&#1610;&#1602; &#1608;&#1575;&#1604;&#1593;&#1604;&#1575;&#1602;&#1575;&#1578; &#1575;&#1604;&#1593;&#1575;&#1605;&#1577;</text></g><!--entity SocialMediaPlatforms--><g class="entity" data-entity="SocialMediaPlatforms" data-source-line="2" data-uid="ent0003" id="entity_SocialMediaPlatforms"><ellipse cx="1458.2129" cy="14" fill="#F1F1F1" rx="8" ry="8" style="stroke:#181818;stroke-width:0.5;"/><path d="M1458.2129,22 L1458.2129,49 M1445.2129,30 L1471.2129,30 M1458.2129,49 L1445.2129,64 M1458.2129,49 L1471.2129,64" fill="none" style="stroke:#181818;stroke-width:0.5;"/><text fill="#000000" font-family="sans-serif" font-size="14" lengthAdjust="spacing" textLength="402.4658" x="1256.98" y="78.4951">&#1605;&#1606;&#1589;&#1575;&#1578; &#1575;&#1604;&#1578;&#1608;&#1575;&#1589;&#1604; &#1575;&#1604;&#1575;&#1580;&#1578;&#1605;&#1575;&#1593;&#1610; (Facebook, X, LinkedIn, Instagram)</text></g><!--entity U1--><g class="entity" data-entity="U1" data-source-line="4" data-uid="ent0004" id="entity_U1"><ellipse cx="107.2091" cy="187.8818" fill="#F1F1F1" rx="101.2091" ry="22.6418" style="stroke:#181818;stroke-width:0.5;"/><text fill="#000000" font-family="sans-serif" font-size="14" lengthAdjust="spacing" textLength="178.7188" x="17.8497" y="192.5303">Configure Competitor Set</text></g><!--entity U2--><g class="entity" data-entity="U2" data-source-line="5" data-uid="ent0005" id="entity_U2"><ellipse cx="889.2128" cy="187.8846" fill="#F1F1F1" rx="133.3728" ry="29.0746" style="stroke:#181818;stroke-width:0.5;"/><text fill="#000000" font-family="sans-serif" font-size="14" lengthAdjust="spacing" textLength="247.6865" x="765.3696" y="192.533">Normalize Metrics Across Platforms</text></g><!--entity U3--><g class="entity" data-entity="U3" data-source-line="6" data-uid="ent0006" id="entity_U3"><ellipse cx="340.211" cy="187.8782" fill="#F1F1F1" rx="97.141" ry="21.8282" style="stroke:#181818;stroke-width:0.5;"/><text fill="#000000" font-family="sans-serif" font-size="14" lengthAdjust="spacing" textLength="169.7363" x="255.3429" y="192.5266">Compute Share of Voice</text></g><!--entity U4--><g class="entity" data-entity="U4" data-source-line="7" data-uid="ent0007" id="entity_U4"><ellipse cx="564.2141" cy="187.8848" fill="#F1F1F1" rx="92.2241" ry="20.8448" style="stroke:#181818;stroke-width:0.5;"/><text fill="#000000" font-family="sans-serif" font-size="14" lengthAdjust="spacing" textLength="158.7578" x="484.8352" y="192.5333">Generate Leaderboard</text></g><!--entity U5--><g class="entity" data-entity="U5" data-source-line="8" data-uid="ent0008" id="entity_U5"><ellipse cx="1364.2065" cy="187.8793" fill="#F1F1F1" rx="84.0465" ry="19.2093" style="stroke:#181818;stroke-width:0.5;"/><text fill="#000000" font-family="sans-serif" font-size="14" lengthAdjust="spacing" textLength="140.123" x="1294.145" y="192.5277">Fetch Public Metrics</text></g><!--entity U6--><g class="entity" data-entity="U6" data-source-line="9" data-uid="ent0009" id="entity_U6"><ellipse cx="1553.2085" cy="187.8777" fill="#F1F1F1" rx="70.1885" ry="16.4377" style="stroke:#181818;stroke-width:0.5;"/><text fill="#000000" font-family="sans-serif" font-size="14" lengthAdjust="spacing" textLength="106.8525" x="1499.7822" y="192.5261">Fetch Mentions</text></g><!--entity U7--><g class="entity" data-entity="U7" data-source-line="10" data-uid="ent0010" id="entity_U7"><ellipse cx="1151.2084" cy="187.8837" fill="#F1F1F1" rx="93.6684" ry="21.1337" style="stroke:#181818;stroke-width:0.5;"/><text fill="#000000" font-family="sans-serif" font-size="14" lengthAdjust="spacing" textLength="161.998" x="1070.2094" y="192.5321">Export PDF/CSV Report</text></g><!--link MarketingAnalyst to U1--><g class="link" data-entity-1="MarketingAnalyst" data-entity-2="U1" data-source-line="12" data-uid="lnk11" id="link_MarketingAnalyst_U1"><path d="M327.26,82.21 C270.16,109.36 200.6683,142.4227 154.6283,164.3227" fill="none" id="MarketingAnalyst-to-U1" style="stroke:#181818;stroke-width:1;"/><polygon fill="#181818" points="149.21,166.9,159.0556,166.6462,153.7252,164.7522,155.6192,159.4219,149.21,166.9" style="stroke:#181818;stroke-width:1;"/></g><!--link MarketingAnalyst to U2--><g class="link" data-entity-1="MarketingAnalyst" data-entity-2="U2" data-source-line="13" data-uid="lnk12" id="link_MarketingAnalyst_U2"><path d="M497,47.2 C613.73,52.27 807.87,67.33 862.21,111.8 C876.14,123.21 881.7007,136.5091 884.9607,152.6291" fill="none" id="MarketingAnalyst-to-U2" style="stroke:#181818;stroke-width:1;"/><polygon fill="#181818" points="886.15,158.51,888.2866,148.8957,885.1589,153.6092,880.4454,150.4815,886.15,158.51" style="stroke:#181818;stroke-width:1;"/></g><!--link MarketingAnalyst to U3--><g class="link" data-entity-1="MarketingAnalyst" data-entity-2="U3" data-source-line="14" data-uid="lnk13" id="link_MarketingAnalyst_U3"><path d="M388.87,82.02 C376.42,108.85 362.6259,138.5776 352.4059,160.5976" fill="none" id="MarketingAnalyst-to-U3" style="stroke:#181818;stroke-width:1;"/><polygon fill="#181818" points="349.88,166.04,357.2972,159.5604,351.985,161.5047,350.0407,156.1925,349.88,166.04" style="stroke:#181818;stroke-width:1;"/></g><!--link MarketingAnalyst to U4--><g class="link" data-entity-1="MarketingAnalyst" data-entity-2="U4" data-source-line="15" data-uid="lnk14" id="link_MarketingAnalyst_U4"><path d="M430.83,82.25 C442.04,97.72 456.15,115.17 471.21,128.8 C488.29,144.26 504.7787,155.124 522.9187,165.394" fill="none" id="MarketingAnalyst-to-U4" style="stroke:#181818;stroke-width:1;"/><polygon fill="#181818" points="528.14,168.35,522.2788,160.4351,523.7889,165.8866,518.3374,167.3968,528.14,168.35" style="stroke:#181818;stroke-width:1;"/></g><!--link SocialMediaPlatforms to U5--><g class="link" data-entity-1="SocialMediaPlatforms" data-entity-2="U5" data-source-line="17" data-uid="lnk15" id="link_SocialMediaPlatforms_U5"><path d="M1433.51,82.02 C1415.13,109.84 1394.118,141.6143 1379.718,163.4043" fill="none" id="SocialMediaPlatforms-to-U5" style="stroke:#181818;stroke-width:1;"/><polygon fill="#181818" points="1376.41,168.41,1384.7092,163.1068,1379.1667,164.2386,1378.0349,158.6961,1376.41,168.41" style="stroke:#181818;stroke-width:1;"/></g><!--link SocialMediaPlatforms to U6--><g class="link" data-entity-1="SocialMediaPlatforms" data-entity-2="U6" data-source-line="18" data-uid="lnk16" id="link_SocialMediaPlatforms_U6"><path d="M1483.17,82.02 C1502.63,111.15 1525.3264,145.1413 1539.5464,166.4213" fill="none" id="SocialMediaPlatforms-to-U6" style="stroke:#181818;stroke-width:1;"/><polygon fill="#181818" points="1542.88,171.41,1541.2054,161.7046,1540.102,167.2528,1534.5538,166.1494,1542.88,171.41" style="stroke:#181818;stroke-width:1;"/></g><!--link U3 to U5--><g class="link" data-entity-1="U3" data-entity-2="U5" data-source-line="20" data-uid="lnk17" id="link_U3_U5"><path d="M401.93,170.62 C464.32,154.23 563.82,130.95 651.71,123.06 C741.87,114.97 1012.4,115.52 1262.21,158.8 C1279.9,161.87 1293.1567,165.1073 1309.9167,170.0673" fill="none" id="U3-to-U5" style="stroke:#181818;stroke-width:1;stroke-dasharray:7,7;"/><polygon fill="#181818" points="1315.67,171.77,1308.1751,165.3804,1310.8755,170.3511,1305.9049,173.0516,1315.67,171.77" style="stroke:#181818;stroke-width:1;"/><text fill="#000000" font-family="sans-serif" font-size="13" lengthAdjust="spacing" textLength="63.0068" x="652.71" y="124.8669">&#171;include&#187;</text></g><!--link U3 to U6--><g class="link" data-entity-1="U3" data-entity-2="U6" data-source-line="21" data-uid="lnk18" id="link_U3_U6"><path d="M401.38,170.53 C418.38,166.19 436.92,161.9 454.21,158.8 C603.99,131.99 642.75,131.02 794.71,123.06 C1026.35,110.94 1134.87,94.84 1466.21,158.8 C1483.25,162.09 1495.9135,165.8211 1511.3035,171.3511" fill="none" id="U3-to-U6" style="stroke:#181818;stroke-width:1;stroke-dasharray:7,7;"/><polygon fill="#181818" points="1516.95,173.38,1509.8328,166.5722,1512.2446,171.6892,1507.1276,174.101,1516.95,173.38" style="stroke:#181818;stroke-width:1;"/><text fill="#000000" font-family="sans-serif" font-size="13" lengthAdjust="spacing" textLength="63.0068" x="795.71" y="124.8669">&#171;include&#187;</text></g><!--link U4 to U7--><g class="link" data-entity-1="U4" data-entity-2="U7" data-source-line="23" data-uid="lnk19" id="link_U4_U7"><path d="M600.65,168.32 C632.19,152.57 679.56,131.69 723.71,123.06 C860,96.43 1016.886,140.1891 1096.576,167.5891" fill="none" id="U4-to-U7" style="stroke:#181818;stroke-width:1;stroke-dasharray:7,7;"/><polygon fill="#181818" points="1102.25,169.54,1095.0396,162.831,1097.5217,167.9143,1092.4384,170.3963,1102.25,169.54" style="stroke:#181818;stroke-width:1;"/><text fill="#000000" font-family="sans-serif" font-size="13" lengthAdjust="spacing" textLength="61.1851" x="724.71" y="124.8669">&#171;extend&#187;</text></g><!--link U1 to U2--><g class="link" data-entity-1="U1" data-entity-2="U2" data-source-line="25" data-uid="lnk20" id="link_U1_U2"><path d="M170.68,169.92 C269.92,144.14 467.87,101.95 635.71,123.06 C696.78,130.75 758.4725,146.7278 808.4325,161.6978" fill="none" id="U1-to-U2" style="stroke:#181818;stroke-width:1;stroke-dasharray:7,7;"/><polygon fill="#181818" points="814.18,163.42,806.7068,157.005,809.3904,161.9848,804.4106,164.6684,814.18,163.42" style="stroke:#181818;stroke-width:1;"/><text fill="#000000" font-family="sans-serif" font-size="13" lengthAdjust="spacing" textLength="63.0068" x="571.71" y="124.8669">&#171;include&#187;</text></g><!--link U3 to U2--><g class="link" data-entity-1="U3" data-entity-2="U2" data-source-line="26" data-uid="lnk21" id="link_U3_U2"><path d="M373.98,167.08 C401.34,151.51 441.51,131.5 479.71,123.06 C599.72,96.55 736.1377,132.2844 817.4677,160.3244" fill="none" id="U3-to-U2" style="stroke:#181818;stroke-width:1;stroke-dasharray:7,7;"/><polygon fill="#181818" points="823.14,162.28,815.9352,155.565,818.413,160.6503,813.3277,163.1281,823.14,162.28" style="stroke:#181818;stroke-width:1;"/><text fill="#000000" font-family="sans-serif" font-size="13" lengthAdjust="spacing" textLength="63.0068" x="480.71" y="124.8669">&#171;include&#187;</text></g><!--link U4 to U2--><g class="link" data-entity-1="U4" data-entity-2="U2" data-source-line="27" data-uid="lnk22" id="link_U4_U2"><path d="M656.91,187.88 C687.58,187.88 716.36,187.88 749.48,187.88" fill="none" id="U4-to-U2" style="stroke:#181818;stroke-width:1;stroke-dasharray:7,7;"/><polygon fill="#181818" points="755.48,187.88,746.48,183.88,750.48,187.88,746.48,191.88,755.48,187.88" style="stroke:#181818;stroke-width:1;"/><text fill="#000000" font-family="sans-serif" font-size="13" lengthAdjust="spacing" textLength="63.0068" x="674.63" y="180.9469">&#171;include&#187;</text></g><!--SRC=[VP7FIa9158VtynG7LmLMf6OG8eHb11cI66sFSuysU9sHcRbGBKCZUX59QXKkV9EPj-d-oMwOjRXpcUzyvpU76UHMQIZugNlt4py1D_CJDtSV_jc_-4VmpobOnj_CFxgPcsV6CbwdxhK0QA25UaXMoC6nnF3UM8QhJF_a5ddFF0bpYzKXC_SMesdyN_eNs6eYfvvImoBS5E52o245vx88vz9O76WSRQTdTHGN6BOe4DWEqVQL7Xd68aCS3K6XeMHV329Dq52ZSJnKCaY7RDhRtS_5oxWHG_50q2Ah1JTmpBKo1hvJivRIp-pHEB84dLkCyrKVhfNWb6dbN3iZIHfZxu8m8DrJg8DCgkHIaoo_XNRK2mLVJP191-jIYwGLIdwLgtdvz6wij8NsINElqRc6AqgscNN8sFgZmCvEFRc1pRpq1o__mIkCRNg9h7ZmJwtAMBSCkua5Hr2h2Sd3AA1wVOMhQvXrAoa_J3dTMP91YlTJNDgSyWjNDk9F]--></g></svg>