<svg xmlns="http://www.w3.org/2000/svg" xmlns:xlink="http://www.w3.org/1999/xlink" contentStyleType="text/css" data-diagram-type="DESCRIPTION" height="256px" preserveAspectRatio="none" style="width:685px;height:256px;background:#FFFFFF;" version="1.1" viewBox="0 0 685 256" width="685px" zoomAndPan="magnify"><defs/><g><!--cluster IVR Platform--><g class="cluster" data-entity="IVR Platform" data-source-line="1" data-uid="ent0002" id="cluster_IVR Platform"><path d="M112.66,6 L213.7586,6 A3.75,3.75 0 0 1 216.2586,8.5 L223.2586,28.2969 L259.66,28.2969 A2.5,2.5 0 0 1 262.16,30.7969 L262.16,100.79 A2.5,2.5 0 0 1 259.66,103.29 L112.66,103.29 A2.5,2.5 0 0 1 110.16,100.79 L110.16,8.5 A2.5,2.5 0 0 1 112.66,6" fill="none" style="stroke:#000000;stroke-width:1.5;"/><line style="stroke:#000000;stroke-width:1.5;" x1="110.16" x2="223.2586" y1="28.2969" y2="28.2969"/><text fill="#000000" font-family="sans-serif" font-size="14" font-weight="bold" lengthAdjust="spacing" textLength="100.0986" x="114.16" y="20.9951">IVR Platform</text></g><!--cluster Ticket System--><g class="cluster" data-entity="Ticket System" data-source-line="5" data-uid="ent0004" id="cluster_Ticket System"><path d="M82.66,152.29 L194.9969,152.29 A3.75,3.75 0 0 1 197.4969,154.79 L204.4969,174.5869 L675.66,174.5869 A2.5,2.5 0 0 1 678.16,177.0869 L678.16,247.09 A2.5,2.5 0 0 1 675.66,249.59 L82.66,249.59 A2.5,2.5 0 0 1 80.16,247.09 L80.16,154.79 A2.5,2.5 0 0 1 82.66,152.29" fill="none" style="stroke:#000000;stroke-width:1.5;"/><line style="stroke:#000000;stroke-width:1.5;" x1="80.16" x2="204.4969" y1="174.5869" y2="174.5869"/><text fill="#000000" font-family="sans-serif" font-size="14" font-weight="bold" lengthAdjust="spacing" textLength="111.3369" x="84.16" y="167.2851">Ticket System</text></g><!--entity IVR--><g class="entity" data-entity="IVR" data-source-line="2" data-uid="ent0003" id="entity_IVR"><rect fill="#F1F1F1" height="46.2969" rx="2.5" ry="2.5" style="stroke:#181818;stroke-width:0.5;" width="120.0898" x="126.12" y="41"/><rect fill="#F1F1F1" height="10" style="stroke:#181818;stroke-width:0.5;" width="15" x="226.2098" y="46"/><rect fill="#F1F1F1" height="2" style="stroke:#181818;stroke-width:0.5;" width="4" x="224.2098" y="48"/><rect fill="#F1F1F1" height="2" style="stroke:#181818;stroke-width:0.5;" width="4" x="224.2098" y="52"/><text fill="#000000" font-family="sans-serif" font-size="14" lengthAdjust="spacing" textLength="80.0898" x="141.12" y="73.9951">IVR System</text></g><!--entity TicketSystem--><g class="entity" data-entity="TicketSystem" data-source-line="6" data-uid="ent0005" id="entity_TicketSystem"><rect fill="#F1F1F1" height="46.2969" rx="2.5" ry="2.5" style="stroke:#181818;stroke-width:0.5;" width="179.0225" x="96.65" y="187.29"/><rect fill="#F1F1F1" height="10" style="stroke:#181818;stroke-width:0.5;" width="15" x="255.6725" y="192.29"/><rect fill="#F1F1F1" height="2" style="stroke:#181818;stroke-width:0.5;" width="4" x="253.6725" y="194.29"/><rect fill="#F1F1F1" height="2" style="stroke:#181818;stroke-width:0.5;" width="4" x="253.6725" y="198.29"/><text fill="#000000" font-family="sans-serif" font-size="14" lengthAdjust="spacing" textLength="139.0225" x="111.65" y="220.2851">Ticket Management</text></g><!--link IVR to TicketSystem--><g class="link" data-entity-1="IVR" data-entity-2="TicketSystem" data-source-line="9" data-uid="lnk6" id="link_IVR_TicketSystem"><path d="M125.69,69.51 C91.66,75.44 51.77,88.93 30.16,119.29 C6,153.26 43.5084,174.5482 90.5484,188.8182" fill="none" id="IVR-to-TicketSystem" style="stroke:#181818;stroke-width:1;"/><polygon fill="#181818" points="96.29,190.56,88.8387,184.1196,91.5053,189.1085,86.5164,191.7751,96.29,190.56" style="stroke:#181818;stroke-width:1;"/><text fill="#000000" font-family="sans-serif" font-size="13" lengthAdjust="spacing" textLength="111.6934" x="31.16" y="132.3569">Capture Caller ID</text></g><!--link IVR to TicketSystem--><g class="link" data-entity-1="IVR" data-entity-2="TicketSystem" data-source-line="10" data-uid="lnk7" id="link_IVR_TicketSystem"><path d="M184.63,87.79 C184.04,97.49 183.45,108.94 183.16,119.29 C182.52,142.3 183.2683,162.6197 184.3083,180.8497" fill="none" id="IVR-to-TicketSystem-1" style="stroke:#181818;stroke-width:1;"/><polygon fill="#181818" points="184.65,186.84,188.1309,177.6268,184.3652,181.8481,180.1439,178.0824,184.65,186.84" style="stroke:#181818;stroke-width:1;"/><text fill="#000000" font-family="sans-serif" font-size="13" lengthAdjust="spacing" textLength="119.4248" x="184.16" y="132.3569">Create New Ticket</text></g><!--link IVR to TicketSystem--><g class="link" data-entity-1="IVR" data-entity-2="TicketSystem" data-source-line="14" data-uid="lnk10" id="link_IVR_TicketSystem"><path d="M246.7,77.15 C270.01,85.04 294.33,98.02 308.16,119.29 C327.04,148.33 299.8475,168.9627 263.5675,184.4627" fill="none" id="IVR-to-TicketSystem-2" style="stroke:#181818;stroke-width:1;"/><polygon fill="#181818" points="258.05,186.82,267.8978,186.9625,262.648,184.8556,264.7548,179.6057,258.05,186.82" style="stroke:#181818;stroke-width:1;"/><text fill="#000000" font-family="sans-serif" font-size="13" lengthAdjust="spacing" textLength="64.8477" x="314.68" y="132.3569">Data Flow</text></g><!--link TicketSystem to TicketSystem--><g class="link" data-entity-1="TicketSystem" data-entity-2="TicketSystem" data-source-line="11" data-uid="lnk8" id="link_TicketSystem_TicketSystem"><path d="M275.98,202.89 C296.04,203.59 310.67,206.1 310.67,210.44 C310.67,214.78 302.0365,217.0937 281.9765,217.7837" fill="none" id="TicketSystem-to-TicketSystem" style="stroke:#181818;stroke-width:1;"/><polygon fill="#181818" points="275.98,217.99,285.1122,221.6782,280.977,217.8181,284.8372,213.683,275.98,217.99" style="stroke:#181818;stroke-width:1;"/><text fill="#000000" font-family="sans-serif" font-size="13" lengthAdjust="spacing" textLength="101.0483" x="316.67" y="215.0069">Log Call Details</text></g><!--link TicketSystem to TicketSystem--><g class="link" data-entity-1="TicketSystem" data-entity-2="TicketSystem" data-source-line="12" data-uid="lnk9" id="link_TicketSystem_TicketSystem"><path d="M275.92,196.38 C345.23,192.28 423.67,196.96 423.67,210.44 C423.67,223.92 351.2195,228.9652 281.9095,224.8552" fill="none" id="TicketSystem-to-TicketSystem-1" style="stroke:#181818;stroke-width:1;"/><polygon fill="#181818" points="275.92,224.5,284.6674,229.0257,280.9112,224.796,285.141,221.0398,275.92,224.5" style="stroke:#181818;stroke-width:1;"/><text fill="#000000" font-family="sans-serif" font-size="13" lengthAdjust="spacing" textLength="225.2402" x="429.67" y="215.0069">Specify Type, Department, Priority</text></g><!--SRC=[XO_D2eCm48JlUOh5its17dgf58IsY4hlIrWb64s8MoIKldlZJmjMIa_BpimtorgK3TO4KNhB8TF8bN5j10y184rhJKSTpsRXUwPWOGzX5KyXx9ijbMo8FualU74ls8Lm6wIfOrPdP2mRJ-mEAndsS4JBTqTXQaqEqkHNpX4omPM6nH6hm1OuctegXOGObUx_vGjBKbKUIcyf3f15n-ClCMHE6QVOBoziqGGPuQJDy080]--></g></svg>