<svg xmlns="http://www.w3.org/2000/svg" xmlns:xlink="http://www.w3.org/1999/xlink" contentStyleType="text/css" data-diagram-type="SEQUENCE" height="311px" preserveAspectRatio="none" style="width:371px;height:311px;background:#FFFFFF;" version="1.1" viewBox="0 0 371 311" width="371px" zoomAndPan="magnify"><defs/><g><g><title>MarketingPlans</title><rect fill="#000000" fill-opacity="0.00000" height="149.5313" width="8" x="57.6758" y="81.2969"/><line style="stroke:#181818;stroke-width:0.5;stroke-dasharray:5,5;" x1="61" x2="61" y1="81.2969" y2="230.8281"/></g><g><title>EvaluationSystem</title><rect fill="#000000" fill-opacity="0.00000" height="149.5313" width="8" x="194.3892" y="81.2969"/><line style="stroke:#181818;stroke-width:0.5;stroke-dasharray:5,5;" x1="198.3516" x2="198.3516" y1="81.2969" y2="230.8281"/></g><g><title>Reports</title><rect fill="#000000" fill-opacity="0.00000" height="149.5313" width="8" x="326.915" y="81.2969"/><line style="stroke:#181818;stroke-width:0.5;stroke-dasharray:5,5;" x1="330.749" x2="330.749" y1="81.2969" y2="230.8281"/></g><g class="participant participant-head" data-participant="MarketingPlans"><text fill="#000000" font-family="sans-serif" font-size="14" lengthAdjust="spacing" textLength="107.3516" x="5" y="77.9951">MarketingPlans</text><ellipse cx="61.6758" cy="13.5" fill="#E2E2F0" rx="8" ry="8" style="stroke:#181818;stroke-width:0.5;"/><path d="M61.6758,21.5 L61.6758,48.5 M48.6758,29.5 L74.6758,29.5 M61.6758,48.5 L48.6758,63.5 M61.6758,48.5 L74.6758,63.5" fill="none" style="stroke:#181818;stroke-width:0.5;"/></g><g class="participant participant-tail" data-participant="MarketingPlans"><text fill="#000000" font-family="sans-serif" font-size="14" lengthAdjust="spacing" textLength="107.3516" x="5" y="242.8232">MarketingPlans</text><ellipse cx="61.6758" cy="254.625" fill="#E2E2F0" rx="8" ry="8" style="stroke:#181818;stroke-width:0.5;"/><path d="M61.6758,262.625 L61.6758,289.625 M48.6758,270.625 L74.6758,270.625 M61.6758,289.625 L48.6758,304.625 M61.6758,289.625 L74.6758,304.625" fill="none" style="stroke:#181818;stroke-width:0.5;"/></g><g class="participant participant-head" data-participant="EvaluationSystem"><rect fill="#E2E2F0" height="30.2969" rx="2.5" ry="2.5" style="stroke:#181818;stroke-width:0.5;" width="140.0752" x="128.3516" y="50"/><text fill="#000000" font-family="sans-serif" font-size="14" lengthAdjust="spacing" textLength="126.0752" x="135.3516" y="69.9951">EvaluationSystem</text></g><g class="participant participant-tail" data-participant="EvaluationSystem"><rect fill="#E2E2F0" height="30.2969" rx="2.5" ry="2.5" style="stroke:#181818;stroke-width:0.5;" width="140.0752" x="128.3516" y="229.8281"/><text fill="#000000" font-family="sans-serif" font-size="14" lengthAdjust="spacing" textLength="126.0752" x="135.3516" y="249.8232">EvaluationSystem</text></g><g class="participant participant-head" data-participant="Reports"><rect fill="#E2E2F0" height="30.2969" rx="2.5" ry="2.5" style="stroke:#181818;stroke-width:0.5;" width="68.332" x="296.749" y="50"/><text fill="#000000" font-family="sans-serif" font-size="14" lengthAdjust="spacing" textLength="54.332" x="303.749" y="69.9951">Reports</text></g><g class="participant participant-tail" data-participant="Reports"><rect fill="#E2E2F0" height="30.2969" rx="2.5" ry="2.5" style="stroke:#181818;stroke-width:0.5;" width="68.332" x="296.749" y="229.8281"/><text fill="#000000" font-family="sans-serif" font-size="14" lengthAdjust="spacing" textLength="54.332" x="303.749" y="249.8232">Reports</text></g><g class="message" data-participant-1="MarketingPlans" data-participant-2="EvaluationSystem"><polygon fill="#181818" points="186.3892,108.4297,196.3892,112.4297,186.3892,116.4297,190.3892,112.4297" style="stroke:#181818;stroke-width:1;"/><line style="stroke:#181818;stroke-width:1;" x1="61.6758" x2="192.3892" y1="112.4297" y2="112.4297"/><text fill="#000000" font-family="sans-serif" font-size="13" lengthAdjust="spacing" textLength="77.9048" x="68.6758" y="107.3638">Submit Plan</text></g><g class="message" data-participant-1="EvaluationSystem" data-participant-2="EvaluationSystem"><line style="stroke:#181818;stroke-width:1;" x1="198.3892" x2="240.3892" y1="141.5625" y2="141.5625"/><line style="stroke:#181818;stroke-width:1;" x1="240.3892" x2="240.3892" y1="141.5625" y2="154.5625"/><line style="stroke:#181818;stroke-width:1;" x1="199.3892" x2="240.3892" y1="154.5625" y2="154.5625"/><polygon fill="#181818" points="209.3892,150.5625,199.3892,154.5625,209.3892,158.5625,205.3892,154.5625" style="stroke:#181818;stroke-width:1;"/><text fill="#000000" font-family="sans-serif" font-size="13" lengthAdjust="spacing" textLength="88.5752" x="205.3892" y="136.4966">Evaluate Plan</text></g><g class="message" data-participant-1="EvaluationSystem" data-participant-2="Reports"><polygon fill="#181818" points="318.915,179.6953,328.915,183.6953,318.915,187.6953,322.915,183.6953" style="stroke:#181818;stroke-width:1;"/><line style="stroke:#181818;stroke-width:1;" x1="198.3892" x2="324.915" y1="183.6953" y2="183.6953"/><text fill="#000000" font-family="sans-serif" font-size="13" lengthAdjust="spacing" textLength="108.5259" x="205.3892" y="178.6294">Generate Report</text></g><g class="message" data-participant-1="Reports" data-participant-2="MarketingPlans"><polygon fill="#181818" points="72.6758,208.8281,62.6758,212.8281,72.6758,216.8281,68.6758,212.8281" style="stroke:#181818;stroke-width:1;"/><line style="stroke:#181818;stroke-width:1;" x1="66.6758" x2="329.915" y1="212.8281" y2="212.8281"/><text fill="#000000" font-family="sans-serif" font-size="13" lengthAdjust="spacing" textLength="80.5518" x="78.6758" y="207.7622">Send Report</text></g><!--SRC=[IqmkoIzIy4qioaujoSnB3yX9p2lcAaWiAibCpYn8p2jHS2rBp2bDBCdCpmkkB2v9pKMH34ejo2ygAURYGZL0GTSEGv-LGd1fKcvcYG981HUwB7OTK95Kt7gW3h1IS4_DIoq2AOM8S44bG6fGtGPqHsfU2amP0000]--></g></svg>