<svg xmlns="http://www.w3.org/2000/svg" xmlns:xlink="http://www.w3.org/1999/xlink" contentStyleType="text/css" data-diagram-type="SEQUENCE" height="298px" preserveAspectRatio="none" style="width:442px;height:298px;background:#FFFFFF;" version="1.1" viewBox="0 0 442 298" width="442px" zoomAndPan="magnify"><defs/><g><g><title>User</title><rect fill="#000000" fill-opacity="0.00000" height="136.5313" width="8" x="19.9551" y="81.2969"/><line style="stroke:#181818;stroke-width:0.5;stroke-dasharray:5,5;" x1="23" x2="23" y1="81.2969" y2="217.8281"/></g><g><title>Twitter Data</title><rect fill="#000000" fill-opacity="0.00000" height="136.5313" width="8" x="132.5176" y="81.2969"/><line style="stroke:#181818;stroke-width:0.5;stroke-dasharray:5,5;" x1="135.959" x2="135.959" y1="81.2969" y2="217.8281"/></g><g><title>Monitoring System</title><rect fill="#000000" fill-opacity="0.00000" height="136.5313" width="8" x="265.8379" y="81.2969"/><line style="stroke:#181818;stroke-width:0.5;stroke-dasharray:5,5;" x1="269.0762" x2="269.0762" y1="81.2969" y2="217.8281"/></g><g><title>Reports</title><rect fill="#000000" fill-opacity="0.00000" height="136.5313" width="8" x="398.3638" y="81.2969"/><line style="stroke:#181818;stroke-width:0.5;stroke-dasharray:5,5;" x1="402.1978" x2="402.1978" y1="81.2969" y2="217.8281"/></g><g class="participant participant-head" data-participant="User"><text fill="#000000" font-family="sans-serif" font-size="14" lengthAdjust="spacing" textLength="31.9102" x="5" y="77.9951">User</text><ellipse cx="23.9551" cy="13.5" fill="#E2E2F0" rx="8" ry="8" style="stroke:#181818;stroke-width:0.5;"/><path d="M23.9551,21.5 L23.9551,48.5 M10.9551,29.5 L36.9551,29.5 M23.9551,48.5 L10.9551,63.5 M23.9551,48.5 L36.9551,63.5" fill="none" style="stroke:#181818;stroke-width:0.5;"/></g><g class="participant participant-tail" data-participant="User"><text fill="#000000" font-family="sans-serif" font-size="14" lengthAdjust="spacing" textLength="31.9102" x="5" y="229.8232">User</text><ellipse cx="23.9551" cy="241.625" fill="#E2E2F0" rx="8" ry="8" style="stroke:#181818;stroke-width:0.5;"/><path d="M23.9551,249.625 L23.9551,276.625 M10.9551,257.625 L36.9551,257.625 M23.9551,276.625 L10.9551,291.625 M23.9551,276.625 L36.9551,291.625" fill="none" style="stroke:#181818;stroke-width:0.5;"/></g><g class="participant participant-head" data-participant="Twitter"><rect fill="#E2E2F0" height="30.2969" rx="2.5" ry="2.5" style="stroke:#181818;stroke-width:0.5;" width="101.1172" x="85.959" y="50"/><text fill="#000000" font-family="sans-serif" font-size="14" lengthAdjust="spacing" textLength="87.1172" x="92.959" y="69.9951">Twitter Data</text></g><g class="participant participant-tail" data-participant="Twitter"><rect fill="#E2E2F0" height="30.2969" rx="2.5" ry="2.5" style="stroke:#181818;stroke-width:0.5;" width="101.1172" x="85.959" y="216.8281"/><text fill="#000000" font-family="sans-serif" font-size="14" lengthAdjust="spacing" textLength="87.1172" x="92.959" y="236.8232">Twitter Data</text></g><g class="participant participant-head" data-participant="Monitoring"><rect fill="#E2E2F0" height="30.2969" rx="2.5" ry="2.5" style="stroke:#181818;stroke-width:0.5;" width="145.5234" x="197.0762" y="50"/><text fill="#000000" font-family="sans-serif" font-size="14" lengthAdjust="spacing" textLength="131.5234" x="204.0762" y="69.9951">Monitoring System</text></g><g class="participant participant-tail" data-participant="Monitoring"><rect fill="#E2E2F0" height="30.2969" rx="2.5" ry="2.5" style="stroke:#181818;stroke-width:0.5;" width="145.5234" x="197.0762" y="216.8281"/><text fill="#000000" font-family="sans-serif" font-size="14" lengthAdjust="spacing" textLength="131.5234" x="204.0762" y="236.8232">Monitoring System</text></g><g class="participant participant-head" data-participant="Reports"><rect fill="#E2E2F0" height="30.2969" rx="2.5" ry="2.5" style="stroke:#181818;stroke-width:0.5;" width="68.332" x="368.1978" y="50"/><text fill="#000000" font-family="sans-serif" font-size="14" lengthAdjust="spacing" textLength="54.332" x="375.1978" y="69.9951">Reports</text></g><g class="participant participant-tail" data-participant="Reports"><rect fill="#E2E2F0" height="30.2969" rx="2.5" ry="2.5" style="stroke:#181818;stroke-width:0.5;" width="68.332" x="368.1978" y="216.8281"/><text fill="#000000" font-family="sans-serif" font-size="14" lengthAdjust="spacing" textLength="54.332" x="375.1978" y="236.8232">Reports</text></g><g class="message" data-participant-1="User" data-participant-2="Twitter"><polygon fill="#181818" points="124.5176,108.4297,134.5176,112.4297,124.5176,116.4297,128.5176,112.4297" style="stroke:#181818;stroke-width:1;"/><line style="stroke:#181818;stroke-width:1;" x1="23.9551" x2="130.5176" y1="112.4297" y2="112.4297"/><text fill="#000000" font-family="sans-serif" font-size="13" lengthAdjust="spacing" textLength="88.5625" x="30.9551" y="107.3638">Request Data</text></g><g class="message" data-participant-1="Twitter" data-participant-2="Monitoring"><polygon fill="#181818" points="257.8379,137.5625,267.8379,141.5625,257.8379,145.5625,261.8379,141.5625" style="stroke:#181818;stroke-width:1;"/><line style="stroke:#181818;stroke-width:1;" x1="136.5176" x2="263.8379" y1="141.5625" y2="141.5625"/><text fill="#000000" font-family="sans-serif" font-size="13" lengthAdjust="spacing" textLength="67.9136" x="143.5176" y="136.4966">Send Data</text></g><g class="message" data-participant-1="Monitoring" data-participant-2="Reports"><polygon fill="#181818" points="390.3638,166.6953,400.3638,170.6953,390.3638,174.6953,394.3638,170.6953" style="stroke:#181818;stroke-width:1;"/><line style="stroke:#181818;stroke-width:1;" x1="269.8379" x2="396.3638" y1="170.6953" y2="170.6953"/><text fill="#000000" font-family="sans-serif" font-size="13" lengthAdjust="spacing" textLength="108.5259" x="276.8379" y="165.6294">Generate Report</text></g><g class="message" data-participant-1="Reports" data-participant-2="User"><polygon fill="#181818" points="34.9551,195.8281,24.9551,199.8281,34.9551,203.8281,30.9551,199.8281" style="stroke:#181818;stroke-width:1;"/><line style="stroke:#181818;stroke-width:1;" x1="28.9551" x2="401.3638" y1="199.8281" y2="199.8281"/><text fill="#000000" font-family="sans-serif" font-size="13" lengthAdjust="spacing" textLength="94.0786" x="40.9551" y="194.7622">Deliver Report</text></g><!--SRC=[LOwn3i8m34JtV8NLdH_8m5I9gGk53x2ALLc293W6rByd2QvAD-lk-UvmqYXmpIGkeIXFd30eT9SFgv90ZueTO0OJzjGG0vT_3ZECIrPwD7HJz_IPKXJDZR7RkLeDX-EQxulpV57MrkpM6GNOKZsC56u_u6z1OIpLmua22IgPuioeJ2tqqDETtoNO_2y0]--></g></svg>