<svg xmlns="http://www.w3.org/2000/svg" xmlns:xlink="http://www.w3.org/1999/xlink" contentStyleType="text/css" data-diagram-type="SEQUENCE" height="269px" preserveAspectRatio="none" style="width:475px;height:269px;background:#FFFFFF;" version="1.1" viewBox="0 0 475 269" width="475px" zoomAndPan="magnify"><defs/><g><g><title>Customer</title><rect fill="#000000" fill-opacity="0.00000" height="107.3984" width="8" x="38.002" y="81.2969"/><line style="stroke:#181818;stroke-width:0.5;stroke-dasharray:5,5;" x1="42" x2="42" y1="81.2969" y2="188.6953"/></g><g><title>Reviews</title><rect fill="#000000" fill-opacity="0.00000" height="107.3984" width="8" x="159.2163" y="81.2969"/><line style="stroke:#181818;stroke-width:0.5;stroke-dasharray:5,5;" x1="162.2798" x2="162.2798" y1="81.2969" y2="188.6953"/></g><g><title>Analytics</title><rect fill="#000000" fill-opacity="0.00000" height="107.3984" width="8" x="302.2285" y="81.2969"/><line style="stroke:#181818;stroke-width:0.5;stroke-dasharray:5,5;" x1="305.4414" x2="305.4414" y1="81.2969" y2="188.6953"/></g><g><title>Report</title><rect fill="#000000" fill-opacity="0.00000" height="107.3984" width="8" x="434.7544" y="81.2969"/><line style="stroke:#181818;stroke-width:0.5;stroke-dasharray:5,5;" x1="438.2354" x2="438.2354" y1="81.2969" y2="188.6953"/></g><g class="participant participant-head" data-participant="Customer"><text fill="#000000" font-family="sans-serif" font-size="14" lengthAdjust="spacing" textLength="68.0039" x="5" y="77.9951">Customer</text><ellipse cx="42.002" cy="13.5" fill="#E2E2F0" rx="8" ry="8" style="stroke:#181818;stroke-width:0.5;"/><path d="M42.002,21.5 L42.002,48.5 M29.002,29.5 L55.002,29.5 M42.002,48.5 L29.002,63.5 M42.002,48.5 L55.002,63.5" fill="none" style="stroke:#181818;stroke-width:0.5;"/></g><g class="participant participant-tail" data-participant="Customer"><text fill="#000000" font-family="sans-serif" font-size="14" lengthAdjust="spacing" textLength="68.0039" x="5" y="200.6904">Customer</text><ellipse cx="42.002" cy="212.4922" fill="#E2E2F0" rx="8" ry="8" style="stroke:#181818;stroke-width:0.5;"/><path d="M42.002,220.4922 L42.002,247.4922 M29.002,228.4922 L55.002,228.4922 M42.002,247.4922 L29.002,262.4922 M42.002,247.4922 L55.002,262.4922" fill="none" style="stroke:#181818;stroke-width:0.5;"/></g><g class="participant participant-head" data-participant="Reviews"><rect fill="#E2E2F0" height="30.2969" rx="2.5" ry="2.5" style="stroke:#181818;stroke-width:0.5;" width="71.873" x="127.2798" y="50"/><text fill="#000000" font-family="sans-serif" font-size="14" lengthAdjust="spacing" textLength="57.873" x="134.2798" y="69.9951">Reviews</text></g><g class="participant participant-tail" data-participant="Reviews"><rect fill="#E2E2F0" height="30.2969" rx="2.5" ry="2.5" style="stroke:#181818;stroke-width:0.5;" width="71.873" x="127.2798" y="187.6953"/><text fill="#000000" font-family="sans-serif" font-size="14" lengthAdjust="spacing" textLength="57.873" x="134.2798" y="207.6904">Reviews</text></g><g class="participant participant-head" data-participant="Analytics"><rect fill="#E2E2F0" height="30.2969" rx="2.5" ry="2.5" style="stroke:#181818;stroke-width:0.5;" width="77.5742" x="267.4414" y="50"/><text fill="#000000" font-family="sans-serif" font-size="14" lengthAdjust="spacing" textLength="63.5742" x="274.4414" y="69.9951">Analytics</text></g><g class="participant participant-tail" data-participant="Analytics"><rect fill="#E2E2F0" height="30.2969" rx="2.5" ry="2.5" style="stroke:#181818;stroke-width:0.5;" width="77.5742" x="267.4414" y="187.6953"/><text fill="#000000" font-family="sans-serif" font-size="14" lengthAdjust="spacing" textLength="63.5742" x="274.4414" y="207.6904">Analytics</text></g><g class="participant participant-head" data-participant="Report"><rect fill="#E2E2F0" height="30.2969" rx="2.5" ry="2.5" style="stroke:#181818;stroke-width:0.5;" width="61.0381" x="408.2354" y="50"/><text fill="#000000" font-family="sans-serif" font-size="14" lengthAdjust="spacing" textLength="47.0381" x="415.2354" y="69.9951">Report</text></g><g class="participant participant-tail" data-participant="Report"><rect fill="#E2E2F0" height="30.2969" rx="2.5" ry="2.5" style="stroke:#181818;stroke-width:0.5;" width="61.0381" x="408.2354" y="187.6953"/><text fill="#000000" font-family="sans-serif" font-size="14" lengthAdjust="spacing" textLength="47.0381" x="415.2354" y="207.6904">Report</text></g><g class="message" data-participant-1="Customer" data-participant-2="Reviews"><polygon fill="#181818" points="151.2163,108.4297,161.2163,112.4297,151.2163,116.4297,155.2163,112.4297" style="stroke:#181818;stroke-width:1;"/><line style="stroke:#181818;stroke-width:1;" x1="42.002" x2="157.2163" y1="112.4297" y2="112.4297"/><text fill="#000000" font-family="sans-serif" font-size="13" lengthAdjust="spacing" textLength="97.2144" x="49.002" y="107.3638">Submit Review</text></g><g class="message" data-participant-1="Reviews" data-participant-2="Analytics"><polygon fill="#181818" points="294.2285,137.5625,304.2285,141.5625,294.2285,145.5625,298.2285,141.5625" style="stroke:#181818;stroke-width:1;"/><line style="stroke:#181818;stroke-width:1;" x1="163.2163" x2="300.2285" y1="141.5625" y2="141.5625"/><text fill="#000000" font-family="sans-serif" font-size="13" lengthAdjust="spacing" textLength="119.0122" x="170.2163" y="136.4966">Send Review Data</text></g><g class="message" data-participant-1="Analytics" data-participant-2="Report"><polygon fill="#181818" points="426.7544,166.6953,436.7544,170.6953,426.7544,174.6953,430.7544,170.6953" style="stroke:#181818;stroke-width:1;"/><line style="stroke:#181818;stroke-width:1;" x1="306.2285" x2="432.7544" y1="170.6953" y2="170.6953"/><text fill="#000000" font-family="sans-serif" font-size="13" lengthAdjust="spacing" textLength="108.5259" x="313.2285" y="165.6294">Generate Report</text></g><!--SRC=[NOp12O0m34NlcI8Bk40FWYXurmcYvb3GjgHHSNiLMq6FUNd_qQXUi5wZ-eK50edQqGPoYXrlblVuOPMZ-RYk-3E35mN86IpAl3ROhyDYSmqIlestTJdifcHWGqhm_fxKdJVOicCXvGHE]--></g></svg>