<svg xmlns="http://www.w3.org/2000/svg" xmlns:xlink="http://www.w3.org/1999/xlink" contentStyleType="text/css" data-diagram-type="ACTIVITY" height="493px" preserveAspectRatio="none" style="width:316px;height:493px;background:#FFFFFF;" version="1.1" viewBox="0 0 316 493" width="316px" zoomAndPan="magnify"><defs/><g><ellipse cx="139.2124" cy="20" fill="#222222" rx="10" ry="10" style="stroke:#222222;stroke-width:1;"/><rect fill="#F1F1F1" height="33.9688" rx="12.5" ry="12.5" style="stroke:#181818;stroke-width:0.5;" width="136.8887" x="70.7681" y="50"/><text fill="#000000" font-family="sans-serif" font-size="12" lengthAdjust="spacing" textLength="116.8887" x="80.7681" y="71.1387">Display Home Page</text><rect fill="#F1F1F1" height="33.9688" rx="12.5" ry="12.5" style="stroke:#181818;stroke-width:0.5;" width="151.1387" x="63.6431" y="103.9688"/><text fill="#000000" font-family="sans-serif" font-size="12" lengthAdjust="spacing" textLength="131.1387" x="73.6431" y="125.1074">Show Ongoing Orders</text><rect fill="#F1F1F1" height="33.9688" rx="12.5" ry="12.5" style="stroke:#181818;stroke-width:0.5;" width="179.4805" x="49.4722" y="157.9375"/><text fill="#000000" font-family="sans-serif" font-size="12" lengthAdjust="spacing" textLength="159.4805" x="59.4722" y="179.0762">Show Nearest Restaurants</text><rect fill="#F1F1F1" height="33.9688" rx="12.5" ry="12.5" style="stroke:#181818;stroke-width:0.5;" width="177.5762" x="50.4243" y="260.3086"/><text fill="#000000" font-family="sans-serif" font-size="12" lengthAdjust="spacing" textLength="157.5762" x="60.4243" y="281.4473">Display Trending Products</text><polygon fill="#F1F1F1" points="32,211.9063,246.4248,211.9063,258.4248,223.9063,246.4248,235.9063,32,235.9063,20,223.9063,32,211.9063" style="stroke:#181818;stroke-width:0.5;"/><text fill="#000000" font-family="sans-serif" font-size="11" lengthAdjust="spacing" textLength="19.0083" x="143.2124" y="246.1167">yes</text><text fill="#000000" font-family="sans-serif" font-size="11" lengthAdjust="spacing" textLength="214.4248" x="32" y="227.7144">User wants to view Trending Products?</text><text fill="#000000" font-family="sans-serif" font-size="11" lengthAdjust="spacing" textLength="13.7017" x="258.4248" y="221.312">no</text><ellipse cx="294.1265" cy="223.9063" fill="none" rx="11" ry="11" style="stroke:#222222;stroke-width:1;"/><ellipse cx="294.1265" cy="223.9063" fill="#222222" rx="6" ry="6" style="stroke:#222222;stroke-width:1;"/><rect fill="#F1F1F1" height="33.9688" rx="12.5" ry="12.5" style="stroke:#181818;stroke-width:0.5;" width="168.2773" x="55.0737" y="362.6797"/><text fill="#000000" font-family="sans-serif" font-size="12" lengthAdjust="spacing" textLength="148.2773" x="65.0737" y="383.8184">Add Product to Favorites</text><polygon fill="#F1F1F1" points="51.8945,314.2773,226.5303,314.2773,238.5303,326.2773,226.5303,338.2773,51.8945,338.2773,39.8945,326.2773,51.8945,314.2773" style="stroke:#181818;stroke-width:0.5;"/><text fill="#000000" font-family="sans-serif" font-size="11" lengthAdjust="spacing" textLength="19.0083" x="143.2124" y="348.4878">yes</text><text fill="#000000" font-family="sans-serif" font-size="11" lengthAdjust="spacing" textLength="174.6357" x="51.8945" y="330.0854">User wants to add to Favorites?</text><polygon fill="#F1F1F1" points="139.2124,416.6484,151.2124,428.6484,139.2124,440.6484,127.2124,428.6484,139.2124,416.6484" style="stroke:#181818;stroke-width:0.5;"/><ellipse cx="139.2124" cy="471.6484" fill="none" rx="11" ry="11" style="stroke:#222222;stroke-width:1;"/><ellipse cx="139.2124" cy="471.6484" fill="#222222" rx="6" ry="6" style="stroke:#222222;stroke-width:1;"/><line style="stroke:#181818;stroke-width:1;" x1="139.2124" x2="139.2124" y1="30" y2="50"/><polygon fill="#181818" points="135.2124,40,139.2124,50,143.2124,40,139.2124,44" style="stroke:#181818;stroke-width:1;"/><line style="stroke:#181818;stroke-width:1;" x1="139.2124" x2="139.2124" y1="83.9688" y2="103.9688"/><polygon fill="#181818" points="135.2124,93.9688,139.2124,103.9688,143.2124,93.9688,139.2124,97.9688" style="stroke:#181818;stroke-width:1;"/><line style="stroke:#181818;stroke-width:1;" x1="139.2124" x2="139.2124" y1="137.9375" y2="157.9375"/><polygon fill="#181818" points="135.2124,147.9375,139.2124,157.9375,143.2124,147.9375,139.2124,151.9375" style="stroke:#181818;stroke-width:1;"/><line style="stroke:#181818;stroke-width:1;" x1="139.2124" x2="139.2124" y1="235.9063" y2="260.3086"/><polygon fill="#181818" points="135.2124,250.3086,139.2124,260.3086,143.2124,250.3086,139.2124,254.3086" style="stroke:#181818;stroke-width:1;"/><line style="stroke:#181818;stroke-width:1;" x1="258.4248" x2="283.1265" y1="223.9063" y2="223.9063"/><polygon fill="#181818" points="273.1265,219.9063,283.1265,223.9063,273.1265,227.9063,277.1265,223.9063" style="stroke:#181818;stroke-width:1;"/><line style="stroke:#181818;stroke-width:1;" x1="139.2124" x2="139.2124" y1="294.2773" y2="314.2773"/><polygon fill="#181818" points="135.2124,304.2773,139.2124,314.2773,143.2124,304.2773,139.2124,308.2773" style="stroke:#181818;stroke-width:1;"/><line style="stroke:#181818;stroke-width:1;" x1="139.2124" x2="139.2124" y1="191.9063" y2="211.9063"/><polygon fill="#181818" points="135.2124,201.9063,139.2124,211.9063,143.2124,201.9063,139.2124,205.9063" style="stroke:#181818;stroke-width:1;"/><line style="stroke:#181818;stroke-width:1;" x1="139.2124" x2="139.2124" y1="338.2773" y2="362.6797"/><polygon fill="#181818" points="135.2124,352.6797,139.2124,362.6797,143.2124,352.6797,139.2124,356.6797" style="stroke:#181818;stroke-width:1;"/><line style="stroke:#181818;stroke-width:1;" x1="238.5303" x2="250.5303" y1="326.2773" y2="326.2773"/><polygon fill="#181818" points="246.5303,369.6641,250.5303,379.6641,254.5303,369.6641,250.5303,373.6641" style="stroke:#181818;stroke-width:1;"/><line style="stroke:#181818;stroke-width:1;" x1="250.5303" x2="250.5303" y1="326.2773" y2="428.6484"/><line style="stroke:#181818;stroke-width:1;" x1="250.5303" x2="151.2124" y1="428.6484" y2="428.6484"/><polygon fill="#181818" points="161.2124,424.6484,151.2124,428.6484,161.2124,432.6484,157.2124,428.6484" style="stroke:#181818;stroke-width:1;"/><line style="stroke:#181818;stroke-width:1;" x1="139.2124" x2="139.2124" y1="396.6484" y2="416.6484"/><polygon fill="#181818" points="135.2124,406.6484,139.2124,416.6484,143.2124,406.6484,139.2124,410.6484" style="stroke:#181818;stroke-width:1;"/><line style="stroke:#181818;stroke-width:1;" x1="139.2124" x2="139.2124" y1="440.6484" y2="460.6484"/><polygon fill="#181818" points="135.2124,450.6484,139.2124,460.6484,143.2124,450.6484,139.2124,454.6484" style="stroke:#181818;stroke-width:1;"/><!--SRC=[ROrD2eD038NtSueizGgwA8LIkghIdmE4JjG1Ev4aAjw-3jH2QJS9lFVnFJKKSwuu11rwNE34Ju8QMofTSUruXYgs768BbNWItT8peP0QNDQ3es2qjNAXWUok932d08nX2ZJ3JIZwvAY5_VWmtULW7KN85jBS0NpMVyZIKQy4MUJ4gV7W4j7ysqBlqplYn1ACVbVsA_0MVu7bvap-5m00]--></g></svg>