<svg xmlns="http://www.w3.org/2000/svg" xmlns:xlink="http://www.w3.org/1999/xlink" contentStyleType="text/css" data-diagram-type="SEQUENCE" height="356px" preserveAspectRatio="none" style="width:736px;height:356px;background:#FFFFFF;" version="1.1" viewBox="0 0 736 356" width="736px" zoomAndPan="magnify"><defs/><g><g><title>Analyst</title><rect fill="#000000" fill-opacity="0.00000" height="194.7969" width="8" x="29.9937" y="81.2969"/><line style="stroke:#181818;stroke-width:0.5;stroke-dasharray:5,5;" x1="33" x2="33" y1="81.2969" y2="276.0938"/></g><g><title>Web App</title><rect fill="#000000" fill-opacity="0.00000" height="194.7969" width="8" x="164.1509" y="81.2969"/><line style="stroke:#181818;stroke-width:0.5;stroke-dasharray:5,5;" x1="167.5791" x2="167.5791" y1="81.2969" y2="276.0938"/></g><g><title>NLP Service</title><rect fill="#000000" fill-opacity="0.00000" height="194.7969" width="8" x="379.7295" y="81.2969"/><line style="stroke:#181818;stroke-width:0.5;stroke-dasharray:5,5;" x1="383.2764" x2="383.2764" y1="81.2969" y2="276.0938"/></g><g><title>Model</title><rect fill="#000000" fill-opacity="0.00000" height="194.7969" width="8" x="577.6108" y="81.2969"/><line style="stroke:#181818;stroke-width:0.5;stroke-dasharray:5,5;" x1="581.5938" x2="581.5938" y1="81.2969" y2="276.0938"/></g><g><title>Alerts Service</title><rect fill="#000000" fill-opacity="0.00000" height="194.7969" width="8" x="671.0332" y="81.2969"/><line style="stroke:#181818;stroke-width:0.5;stroke-dasharray:5,5;" x1="674.6279" x2="674.6279" y1="81.2969" y2="276.0938"/></g><g class="participant participant-head" data-participant="Analyst"><text fill="#000000" font-family="sans-serif" font-size="14" lengthAdjust="spacing" textLength="51.9873" x="5" y="77.9951">Analyst</text><ellipse cx="33.9937" cy="13.5" fill="#E2E2F0" rx="8" ry="8" style="stroke:#181818;stroke-width:0.5;"/><path d="M33.9937,21.5 L33.9937,48.5 M20.9937,29.5 L46.9937,29.5 M33.9937,48.5 L20.9937,63.5 M33.9937,48.5 L46.9937,63.5" fill="none" style="stroke:#181818;stroke-width:0.5;"/></g><g class="participant participant-tail" data-participant="Analyst"><text fill="#000000" font-family="sans-serif" font-size="14" lengthAdjust="spacing" textLength="51.9873" x="5" y="288.0889">Analyst</text><ellipse cx="33.9937" cy="299.8906" fill="#E2E2F0" rx="8" ry="8" style="stroke:#181818;stroke-width:0.5;"/><path d="M33.9937,307.8906 L33.9937,334.8906 M20.9937,315.8906 L46.9937,315.8906 M33.9937,334.8906 L20.9937,349.8906 M33.9937,334.8906 L46.9937,349.8906" fill="none" style="stroke:#181818;stroke-width:0.5;"/></g><g class="participant participant-head" data-participant="WebApp"><rect fill="#E2E2F0" height="30.2969" rx="2.5" ry="2.5" style="stroke:#181818;stroke-width:0.5;" width="77.1436" x="129.5791" y="50"/><text fill="#000000" font-family="sans-serif" font-size="14" lengthAdjust="spacing" textLength="63.1436" x="136.5791" y="69.9951">Web App</text></g><g class="participant participant-tail" data-participant="WebApp"><rect fill="#E2E2F0" height="30.2969" rx="2.5" ry="2.5" style="stroke:#181818;stroke-width:0.5;" width="77.1436" x="129.5791" y="275.0938"/><text fill="#000000" font-family="sans-serif" font-size="14" lengthAdjust="spacing" textLength="63.1436" x="136.5791" y="295.0889">Web App</text></g><g class="participant participant-head" data-participant="NLPService"><rect fill="#E2E2F0" height="30.2969" rx="2.5" ry="2.5" style="stroke:#181818;stroke-width:0.5;" width="96.9063" x="335.2764" y="50"/><text fill="#000000" font-family="sans-serif" font-size="14" lengthAdjust="spacing" textLength="82.9063" x="342.2764" y="69.9951">NLP Service</text></g><g class="participant participant-tail" data-participant="NLPService"><rect fill="#E2E2F0" height="30.2969" rx="2.5" ry="2.5" style="stroke:#181818;stroke-width:0.5;" width="96.9063" x="335.2764" y="275.0938"/><text fill="#000000" font-family="sans-serif" font-size="14" lengthAdjust="spacing" textLength="82.9063" x="342.2764" y="295.0889">NLP Service</text></g><g class="participant participant-head" data-participant="Model"><rect fill="#E2E2F0" height="30.2969" rx="2.5" ry="2.5" style="stroke:#181818;stroke-width:0.5;" width="56.0342" x="553.5938" y="50"/><text fill="#000000" font-family="sans-serif" font-size="14" lengthAdjust="spacing" textLength="42.0342" x="560.5938" y="69.9951">Model</text></g><g class="participant participant-tail" data-participant="Model"><rect fill="#E2E2F0" height="30.2969" rx="2.5" ry="2.5" style="stroke:#181818;stroke-width:0.5;" width="56.0342" x="553.5938" y="275.0938"/><text fill="#000000" font-family="sans-serif" font-size="14" lengthAdjust="spacing" textLength="42.0342" x="560.5938" y="295.0889">Model</text></g><g class="participant participant-head" data-participant="AlertsService"><rect fill="#E2E2F0" height="30.2969" rx="2.5" ry="2.5" style="stroke:#181818;stroke-width:0.5;" width="110.8105" x="619.6279" y="50"/><text fill="#000000" font-family="sans-serif" font-size="14" lengthAdjust="spacing" textLength="96.8105" x="626.6279" y="69.9951">Alerts Service</text></g><g class="participant participant-tail" data-participant="AlertsService"><rect fill="#E2E2F0" height="30.2969" rx="2.5" ry="2.5" style="stroke:#181818;stroke-width:0.5;" width="110.8105" x="619.6279" y="275.0938"/><text fill="#000000" font-family="sans-serif" font-size="14" lengthAdjust="spacing" textLength="96.8105" x="626.6279" y="295.0889">Alerts Service</text></g><g class="message" data-participant-1="Analyst" data-participant-2="WebApp"><polygon fill="#181818" points="156.1509,108.4297,166.1509,112.4297,156.1509,116.4297,160.1509,112.4297" style="stroke:#181818;stroke-width:1;"/><line style="stroke:#181818;stroke-width:1;" x1="33.9937" x2="162.1509" y1="112.4297" y2="112.4297"/><text fill="#000000" font-family="sans-serif" font-size="13" lengthAdjust="spacing" textLength="110.1572" x="40.9937" y="107.3638">Request analysis</text></g><g class="message" data-participant-1="WebApp" data-participant-2="NLPService"><polygon fill="#181818" points="371.7295,137.5625,381.7295,141.5625,371.7295,145.5625,375.7295,141.5625" style="stroke:#181818;stroke-width:1;"/><line style="stroke:#181818;stroke-width:1;" x1="168.1509" x2="377.7295" y1="141.5625" y2="141.5625"/><text fill="#000000" font-family="sans-serif" font-size="13" lengthAdjust="spacing" textLength="191.5786" x="175.1509" y="136.4966">Send data for NLP processing</text></g><g class="message" data-participant-1="NLPService" data-participant-2="Model"><polygon fill="#181818" points="569.6108,166.6953,579.6108,170.6953,569.6108,174.6953,573.6108,170.6953" style="stroke:#181818;stroke-width:1;"/><line style="stroke:#181818;stroke-width:1;" x1="383.7295" x2="575.6108" y1="170.6953" y2="170.6953"/><text fill="#000000" font-family="sans-serif" font-size="13" lengthAdjust="spacing" textLength="173.8813" x="390.7295" y="165.6294">Analyze sentiment/entities</text></g><g class="message" data-participant-1="Model" data-participant-2="NLPService"><polygon fill="#181818" points="394.7295,195.8281,384.7295,199.8281,394.7295,203.8281,390.7295,199.8281" style="stroke:#181818;stroke-width:1;"/><line style="stroke:#181818;stroke-width:1;stroke-dasharray:2,2;" x1="388.7295" x2="580.6108" y1="199.8281" y2="199.8281"/><text fill="#000000" font-family="sans-serif" font-size="13" lengthAdjust="spacing" textLength="166.6069" x="400.7295" y="194.7622">Return sentiment/entities</text></g><g class="message" data-participant-1="NLPService" data-participant-2="WebApp"><polygon fill="#181818" points="179.1509,224.9609,169.1509,228.9609,179.1509,232.9609,175.1509,228.9609" style="stroke:#181818;stroke-width:1;"/><line style="stroke:#181818;stroke-width:1;stroke-dasharray:2,2;" x1="173.1509" x2="382.7295" y1="228.9609" y2="228.9609"/><text fill="#000000" font-family="sans-serif" font-size="13" lengthAdjust="spacing" textLength="148.6875" x="185.1509" y="223.895">Return analysis results</text></g><g class="message" data-participant-1="WebApp" data-participant-2="AlertsService"><polygon fill="#181818" points="663.0332,254.0938,673.0332,258.0938,663.0332,262.0938,667.0332,258.0938" style="stroke:#181818;stroke-width:1;"/><line style="stroke:#181818;stroke-width:1;" x1="168.1509" x2="669.0332" y1="258.0938" y2="258.0938"/><text fill="#000000" font-family="sans-serif" font-size="13" lengthAdjust="spacing" textLength="193.2734" x="175.1509" y="253.0278">Create rule based on analysis</text></g><!--SRC=[RL0nRiCm3Dpr2Y9xqDr30ADhMnJ9a9cnBu40LLP8ka3p-iYo0qT15-78EnwFuiu6eJPo-5DpYSLyvnD7eyqH9sfJsX0hPPnXpNzzVDC1ykix54skbxBMVGuzGb4KL9DjW9XMFdFhOUMMRBJTBIaQskCw8hUuK5xTJ4oIDKIJJMDFFHlJETyunKqoT53ryU9MuJHMaZNpFzn0YcZ-9pzl4p0FTKL1svSLUzWeyJ_zityLlGmyafD0ns3F5rJdD_GkO0F9640dLlGqhEFk3W00]--></g></svg>