<svg xmlns="http://www.w3.org/2000/svg" xmlns:xlink="http://www.w3.org/1999/xlink" contentStyleType="text/css" data-diagram-type="SEQUENCE" height="356px" preserveAspectRatio="none" style="width:536px;height:356px;background:#FFFFFF;" version="1.1" viewBox="0 0 536 356" width="536px" zoomAndPan="magnify"><defs/><g><g><title>Admin</title><rect fill="#000000" fill-opacity="0.00000" height="194.7969" width="8" x="26.4321" y="81.2969"/><line style="stroke:#181818;stroke-width:0.5;stroke-dasharray:5,5;" x1="30" x2="30" y1="81.2969" y2="276.0938"/></g><g><title>Web App</title><rect fill="#000000" fill-opacity="0.00000" height="194.7969" width="8" x="201.2144" y="81.2969"/><line style="stroke:#181818;stroke-width:0.5;stroke-dasharray:5,5;" x1="204.6426" x2="204.6426" y1="81.2969" y2="276.0938"/></g><g><title>Audit Store</title><rect fill="#000000" fill-opacity="0.00000" height="194.7969" width="8" x="353.3862" y="81.2969"/><line style="stroke:#181818;stroke-width:0.5;stroke-dasharray:5,5;" x1="357.1479" x2="357.1479" y1="81.2969" y2="276.0938"/></g><g><title>Report Service</title><rect fill="#000000" fill-opacity="0.00000" height="194.7969" width="8" x="468.2393" y="81.2969"/><line style="stroke:#181818;stroke-width:0.5;stroke-dasharray:5,5;" x1="471.6245" x2="471.6245" y1="81.2969" y2="276.0938"/></g><g class="participant participant-head" data-participant="Admin"><text fill="#000000" font-family="sans-serif" font-size="14" lengthAdjust="spacing" textLength="44.8643" x="5" y="77.9951">Admin</text><ellipse cx="30.4321" cy="13.5" fill="#E2E2F0" rx="8" ry="8" style="stroke:#181818;stroke-width:0.5;"/><path d="M30.4321,21.5 L30.4321,48.5 M17.4321,29.5 L43.4321,29.5 M30.4321,48.5 L17.4321,63.5 M30.4321,48.5 L43.4321,63.5" fill="none" style="stroke:#181818;stroke-width:0.5;"/></g><g class="participant participant-tail" data-participant="Admin"><text fill="#000000" font-family="sans-serif" font-size="14" lengthAdjust="spacing" textLength="44.8643" x="5" y="288.0889">Admin</text><ellipse cx="30.4321" cy="299.8906" fill="#E2E2F0" rx="8" ry="8" style="stroke:#181818;stroke-width:0.5;"/><path d="M30.4321,307.8906 L30.4321,334.8906 M17.4321,315.8906 L43.4321,315.8906 M30.4321,334.8906 L17.4321,349.8906 M30.4321,334.8906 L43.4321,349.8906" fill="none" style="stroke:#181818;stroke-width:0.5;"/></g><g class="participant participant-head" data-participant="WebApp"><rect fill="#E2E2F0" height="30.2969" rx="2.5" ry="2.5" style="stroke:#181818;stroke-width:0.5;" width="77.1436" x="166.6426" y="50"/><text fill="#000000" font-family="sans-serif" font-size="14" lengthAdjust="spacing" textLength="63.1436" x="173.6426" y="69.9951">Web App</text></g><g class="participant participant-tail" data-participant="WebApp"><rect fill="#E2E2F0" height="30.2969" rx="2.5" ry="2.5" style="stroke:#181818;stroke-width:0.5;" width="77.1436" x="166.6426" y="275.0938"/><text fill="#000000" font-family="sans-serif" font-size="14" lengthAdjust="spacing" textLength="63.1436" x="173.6426" y="295.0889">Web App</text></g><g class="participant participant-head" data-participant="AuditStore"><rect fill="#E2E2F0" height="30.2969" rx="2.5" ry="2.5" style="stroke:#181818;stroke-width:0.5;" width="92.4766" x="311.1479" y="50"/><text fill="#000000" font-family="sans-serif" font-size="14" lengthAdjust="spacing" textLength="78.4766" x="318.1479" y="69.9951">Audit Store</text></g><g class="participant participant-tail" data-participant="AuditStore"><rect fill="#E2E2F0" height="30.2969" rx="2.5" ry="2.5" style="stroke:#181818;stroke-width:0.5;" width="92.4766" x="311.1479" y="275.0938"/><text fill="#000000" font-family="sans-serif" font-size="14" lengthAdjust="spacing" textLength="78.4766" x="318.1479" y="295.0889">Audit Store</text></g><g class="participant participant-head" data-participant="ReportService"><rect fill="#E2E2F0" height="30.2969" rx="2.5" ry="2.5" style="stroke:#181818;stroke-width:0.5;" width="117.2295" x="413.6245" y="50"/><text fill="#000000" font-family="sans-serif" font-size="14" lengthAdjust="spacing" textLength="103.2295" x="420.6245" y="69.9951">Report Service</text></g><g class="participant participant-tail" data-participant="ReportService"><rect fill="#E2E2F0" height="30.2969" rx="2.5" ry="2.5" style="stroke:#181818;stroke-width:0.5;" width="117.2295" x="413.6245" y="275.0938"/><text fill="#000000" font-family="sans-serif" font-size="14" lengthAdjust="spacing" textLength="103.2295" x="420.6245" y="295.0889">Report Service</text></g><g class="message" data-participant-1="Admin" data-participant-2="WebApp"><polygon fill="#181818" points="193.2144,108.4297,203.2144,112.4297,193.2144,116.4297,197.2144,112.4297" style="stroke:#181818;stroke-width:1;"/><line style="stroke:#181818;stroke-width:1;" x1="30.4321" x2="199.2144" y1="112.4297" y2="112.4297"/><text fill="#000000" font-family="sans-serif" font-size="13" lengthAdjust="spacing" textLength="92.1426" x="37.4321" y="107.3638">Initiate Export</text></g><g class="message" data-participant-1="WebApp" data-participant-2="AuditStore"><polygon fill="#181818" points="345.3862,137.5625,355.3862,141.5625,345.3862,145.5625,349.3862,141.5625" style="stroke:#181818;stroke-width:1;"/><line style="stroke:#181818;stroke-width:1;" x1="205.2144" x2="351.3862" y1="141.5625" y2="141.5625"/><text fill="#000000" font-family="sans-serif" font-size="13" lengthAdjust="spacing" textLength="128.1719" x="212.2144" y="136.4966">Retrieve Audit Data</text></g><g class="message" data-participant-1="AuditStore" data-participant-2="WebApp"><polygon fill="#181818" points="216.2144,166.6953,206.2144,170.6953,216.2144,174.6953,212.2144,170.6953" style="stroke:#181818;stroke-width:1;"/><line style="stroke:#181818;stroke-width:1;" x1="210.2144" x2="356.3862" y1="170.6953" y2="170.6953"/><text fill="#000000" font-family="sans-serif" font-size="13" lengthAdjust="spacing" textLength="117.3491" x="222.2144" y="165.6294">Return Audit Data</text></g><g class="message" data-participant-1="WebApp" data-participant-2="ReportService"><polygon fill="#181818" points="460.2393,195.8281,470.2393,199.8281,460.2393,203.8281,464.2393,199.8281" style="stroke:#181818;stroke-width:1;"/><line style="stroke:#181818;stroke-width:1;" x1="205.2144" x2="466.2393" y1="199.8281" y2="199.8281"/><text fill="#000000" font-family="sans-serif" font-size="13" lengthAdjust="spacing" textLength="214.3857" x="212.2144" y="194.7622">Send Data for Report Generation</text></g><g class="message" data-participant-1="ReportService" data-participant-2="WebApp"><polygon fill="#181818" points="216.2144,224.9609,206.2144,228.9609,216.2144,232.9609,212.2144,228.9609" style="stroke:#181818;stroke-width:1;"/><line style="stroke:#181818;stroke-width:1;" x1="210.2144" x2="471.2393" y1="228.9609" y2="228.9609"/><text fill="#000000" font-family="sans-serif" font-size="13" lengthAdjust="spacing" textLength="164.8613" x="222.2144" y="223.895">Return Generated Report</text></g><g class="message" data-participant-1="WebApp" data-participant-2="Admin"><polygon fill="#181818" points="41.4321,254.0938,31.4321,258.0938,41.4321,262.0938,37.4321,258.0938" style="stroke:#181818;stroke-width:1;"/><line style="stroke:#181818;stroke-width:1;" x1="35.4321" x2="204.2144" y1="258.0938" y2="258.0938"/><text fill="#000000" font-family="sans-serif" font-size="13" lengthAdjust="spacing" textLength="150.7822" x="47.4321" y="253.0278">Export Report Securely</text></g><!--SRC=[RP3F2i8m3CRlVOgmko_GWp1GnAiUFCSsGa2x4ZFHjpThYzl0M_xyakzBCEWWqCS79vTHb0DdJ0hTXQxGvzm1Fi5Y2zVzVeoiSBPfAap9IxhcJfG7CP3anQ6YjTGgpXLns6oRZ8TZOcLKWlrx0bsjJyGiucsB2jEBQX5sgEZc_dAVaQEa9JTlN7dnPZF5Wi3DtjAy7oYHeFAGt0h_ez5GYcrswNqwqxURuFUMC0hTF-uB]--></g></svg>