<svg xmlns="http://www.w3.org/2000/svg" xmlns:xlink="http://www.w3.org/1999/xlink" contentStyleType="text/css" data-diagram-type="DESCRIPTION" height="671px" preserveAspectRatio="none" style="width:730px;height:671px;background:#FFFFFF;" version="1.1" viewBox="0 0 730 671" width="730px" zoomAndPan="magnify"><defs/><g><!--cluster System Architecture for Predictive Analytics--><g class="cluster" data-entity="System Architecture for Predictive Analytics" data-source-line="1" data-uid="ent0002" id="cluster_System Architecture for Predictive Analytics"><path d="M8.5,6 L360.4639,6 A3.75,3.75 0 0 1 362.9639,8.5 L369.9639,28.2969 L720.5,28.2969 A2.5,2.5 0 0 1 723,30.7969 L723,661.98 A2.5,2.5 0 0 1 720.5,664.48 L8.5,664.48 A2.5,2.5 0 0 1 6,661.98 L6,8.5 A2.5,2.5 0 0 1 8.5,6" fill="none" style="stroke:#000000;stroke-width:1.5;"/><line style="stroke:#000000;stroke-width:1.5;" x1="6" x2="369.9639" y1="28.2969" y2="28.2969"/><text fill="#000000" font-family="sans-serif" font-size="14" font-weight="bold" lengthAdjust="spacing" textLength="350.9639" x="10" y="20.9951">System Architecture for Predictive Analytics</text></g><!--cluster Model Training Pipeline--><g class="cluster" data-entity="Model Training Pipeline" data-source-line="13" data-uid="ent0011" id="cluster_Model Training Pipeline"><path d="M299.5,150.29 L487.2031,150.29 A3.75,3.75 0 0 1 489.7031,152.79 L496.7031,172.5869 L570.5,172.5869 A2.5,2.5 0 0 1 573,175.0869 L573,245.09 A2.5,2.5 0 0 1 570.5,247.59 L299.5,247.59 A2.5,2.5 0 0 1 297,245.09 L297,152.79 A2.5,2.5 0 0 1 299.5,150.29" fill="none" style="stroke:#000000;stroke-width:1.5;"/><line style="stroke:#000000;stroke-width:1.5;" x1="297" x2="496.7031" y1="172.5869" y2="172.5869"/><text fill="#000000" font-family="sans-serif" font-size="14" font-weight="bold" lengthAdjust="spacing" textLength="186.7031" x="301" y="165.2851">Model Training Pipeline</text></g><!--cluster Business Foresight Capabilities--><g class="cluster" data-entity="Business Foresight Capabilities" data-source-line="19" data-uid="ent0015" id="cluster_Business Foresight Capabilities"><path d="M32.5,543.18 L281.4668,543.18 A3.75,3.75 0 0 1 283.9668,545.68 L290.9668,565.4769 L458.5,565.4769 A2.5,2.5 0 0 1 461,567.9769 L461,637.98 A2.5,2.5 0 0 1 458.5,640.48 L32.5,640.48 A2.5,2.5 0 0 1 30,637.98 L30,545.68 A2.5,2.5 0 0 1 32.5,543.18" fill="none" style="stroke:#000000;stroke-width:1.5;"/><line style="stroke:#000000;stroke-width:1.5;" x1="30" x2="290.9668" y1="565.4769" y2="565.4769"/><text fill="#000000" font-family="sans-serif" font-size="14" font-weight="bold" lengthAdjust="spacing" textLength="247.9668" x="34" y="558.1751">Business Foresight Capabilities</text></g><!--entity DPM--><g class="entity" data-entity="DPM" data-source-line="3" data-uid="ent0003" id="entity_DPM"><rect fill="#F1F1F1" height="46.2969" rx="2.5" ry="2.5" style="stroke:#181818;stroke-width:0.5;" width="231.8027" x="319.1" y="41"/><rect fill="#F1F1F1" height="10" style="stroke:#181818;stroke-width:0.5;" width="15" x="530.9027" y="46"/><rect fill="#F1F1F1" height="2" style="stroke:#181818;stroke-width:0.5;" width="4" x="528.9027" y="48"/><rect fill="#F1F1F1" height="2" style="stroke:#181818;stroke-width:0.5;" width="4" x="528.9027" y="52"/><text fill="#000000" font-family="sans-serif" font-size="14" lengthAdjust="spacing" textLength="191.8027" x="334.1" y="73.9951">Data Preprocessing Module</text></g><!--entity PME--><g class="entity" data-entity="PME" data-source-line="4" data-uid="ent0004" id="entity_PME"><rect fill="#F1F1F1" height="46.2969" rx="2.5" ry="2.5" style="stroke:#181818;stroke-width:0.5;" width="208.4785" x="268.76" y="310.59"/><rect fill="#F1F1F1" height="10" style="stroke:#181818;stroke-width:0.5;" width="15" x="457.2385" y="315.59"/><rect fill="#F1F1F1" height="2" style="stroke:#181818;stroke-width:0.5;" width="4" x="455.2385" y="317.59"/><rect fill="#F1F1F1" height="2" style="stroke:#181818;stroke-width:0.5;" width="4" x="455.2385" y="321.59"/><text fill="#000000" font-family="sans-serif" font-size="14" lengthAdjust="spacing" textLength="168.4785" x="283.76" y="343.5851">Predictive Model Engine</text></g><!--entity ORP--><g class="entity" data-entity="ORP" data-source-line="5" data-uid="ent0005" id="entity_ORP"><rect fill="#F1F1F1" height="46.2969" rx="2.5" ry="2.5" style="stroke:#181818;stroke-width:0.5;" width="216.6953" x="264.65" y="433.89"/><rect fill="#F1F1F1" height="10" style="stroke:#181818;stroke-width:0.5;" width="15" x="461.3453" y="438.89"/><rect fill="#F1F1F1" height="2" style="stroke:#181818;stroke-width:0.5;" width="4" x="459.3453" y="440.89"/><rect fill="#F1F1F1" height="2" style="stroke:#181818;stroke-width:0.5;" width="4" x="459.3453" y="444.89"/><text fill="#000000" font-family="sans-serif" font-size="14" lengthAdjust="spacing" textLength="176.6953" x="279.65" y="466.8851">Output Results Processor</text></g><!--entity UFM--><g class="entity" data-entity="UFM" data-source-line="6" data-uid="ent0006" id="entity_UFM"><rect fill="#F1F1F1" height="46.2969" rx="2.5" ry="2.5" style="stroke:#181818;stroke-width:0.5;" width="227.7832" x="479.11" y="578.18"/><rect fill="#F1F1F1" height="10" style="stroke:#181818;stroke-width:0.5;" width="15" x="686.8932" y="583.18"/><rect fill="#F1F1F1" height="2" style="stroke:#181818;stroke-width:0.5;" width="4" x="684.8932" y="585.18"/><rect fill="#F1F1F1" height="2" style="stroke:#181818;stroke-width:0.5;" width="4" x="684.8932" y="589.18"/><text fill="#000000" font-family="sans-serif" font-size="14" lengthAdjust="spacing" textLength="187.7832" x="494.11" y="611.1751">User Feedback Mechanism</text></g><!--entity MLA--><g class="entity" data-entity="MLA" data-source-line="14" data-uid="ent0012" id="entity_MLA"><rect fill="#F1F1F1" height="46.2969" rx="2.5" ry="2.5" style="stroke:#181818;stroke-width:0.5;" width="244.6338" x="312.68" y="185.29"/><rect fill="#F1F1F1" height="10" style="stroke:#181818;stroke-width:0.5;" width="15" x="537.3138" y="190.29"/><rect fill="#F1F1F1" height="2" style="stroke:#181818;stroke-width:0.5;" width="4" x="535.3138" y="192.29"/><rect fill="#F1F1F1" height="2" style="stroke:#181818;stroke-width:0.5;" width="4" x="535.3138" y="196.29"/><text fill="#000000" font-family="sans-serif" font-size="14" lengthAdjust="spacing" textLength="204.6338" x="327.68" y="218.2851">Machine Learning Algorithms</text></g><!--entity OI--><g class="entity" data-entity="OI" data-source-line="20" data-uid="ent0016" id="entity_OI"><rect fill="#F1F1F1" height="46.2969" rx="2.5" ry="2.5" style="stroke:#181818;stroke-width:0.5;" width="220.2568" x="45.87" y="578.18"/><rect fill="#F1F1F1" height="10" style="stroke:#181818;stroke-width:0.5;" width="15" x="246.1268" y="583.18"/><rect fill="#F1F1F1" height="2" style="stroke:#181818;stroke-width:0.5;" width="4" x="244.1268" y="585.18"/><rect fill="#F1F1F1" height="2" style="stroke:#181818;stroke-width:0.5;" width="4" x="244.1268" y="589.18"/><text fill="#000000" font-family="sans-serif" font-size="14" lengthAdjust="spacing" textLength="180.2568" x="60.87" y="611.1751">Opportunity Identification</text></g><!--entity RM--><g class="entity" data-entity="RM" data-source-line="21" data-uid="ent0017" id="entity_RM"><rect fill="#F1F1F1" height="46.2969" rx="2.5" ry="2.5" style="stroke:#181818;stroke-width:0.5;" width="143.0996" x="301.45" y="578.18"/><rect fill="#F1F1F1" height="10" style="stroke:#181818;stroke-width:0.5;" width="15" x="424.5496" y="583.18"/><rect fill="#F1F1F1" height="2" style="stroke:#181818;stroke-width:0.5;" width="4" x="422.5496" y="585.18"/><rect fill="#F1F1F1" height="2" style="stroke:#181818;stroke-width:0.5;" width="4" x="422.5496" y="589.18"/><text fill="#000000" font-family="sans-serif" font-size="14" lengthAdjust="spacing" textLength="103.0996" x="316.45" y="611.1751">Risk Mitigation</text></g><!--link DPM to PME--><g class="link" data-entity-1="DPM" data-entity-2="PME" data-source-line="8" data-uid="lnk7" id="link_DPM_PME"><path d="M318.7,85.26 C257.45,98.48 191.28,117.85 173,142.29 C142.84,182.61 144.51,214.07 173,255.59 C194.9,287.5 226.2663,304.485 262.6163,315.465" fill="none" id="DPM-to-PME" style="stroke:#181818;stroke-width:1;"/><polygon fill="#181818" points="268.36,317.2,260.9011,310.7684,263.5736,315.7542,258.5878,318.4267,268.36,317.2" style="stroke:#181818;stroke-width:1;"/><text fill="#000000" font-family="sans-serif" font-size="13" lengthAdjust="spacing" textLength="122.8462" x="174" y="213.0069">Preprocessed Data</text></g><!--link PME to ORP--><g class="link" data-entity-1="PME" data-entity-2="ORP" data-source-line="9" data-uid="lnk8" id="link_PME_ORP"><path d="M373,357.27 C373,379.06 373,405.88 373,427.62" fill="none" id="PME-to-ORP" style="stroke:#181818;stroke-width:1;"/><polygon fill="#181818" points="373,433.62,377,424.62,373,428.62,369,424.62,373,433.62" style="stroke:#181818;stroke-width:1;"/><text fill="#000000" font-family="sans-serif" font-size="13" lengthAdjust="spacing" textLength="119.5454" x="374" y="399.9569">Predictive Insights</text></g><!--link ORP to UFM--><g class="link" data-entity-1="ORP" data-entity-2="UFM" data-source-line="10" data-uid="lnk9" id="link_ORP_UFM"><path d="M400.93,480.47 C418.83,494.48 442.8,512.58 465,527.18 C492.69,545.4 519.8566,561.0196 545.1466,574.8596" fill="none" id="ORP-to-UFM" style="stroke:#181818;stroke-width:1;"/><polygon fill="#181818" points="550.41,577.74,544.4352,569.9105,546.0238,575.3397,540.5946,576.9283,550.41,577.74" style="stroke:#181818;stroke-width:1;"/><text fill="#000000" font-family="sans-serif" font-size="13" lengthAdjust="spacing" textLength="117.7363" x="466" y="523.2469">Processed Results</text></g><!--link UFM to DPM--><g class="link" data-entity-1="UFM" data-entity-2="DPM" data-source-line="11" data-uid="lnk10" id="link_UFM_DPM"><path d="M593,578.15 C593,550.15 593,500.53 593,458.03 C593,207.44 593,207.44 593,207.44 C593,177.15 591.45,166.31 573,142.29 C554.27,117.91 530.9574,102.6366 504.5274,90.3066" fill="none" id="UFM-to-DPM" style="stroke:#181818;stroke-width:1;"/><polygon fill="#181818" points="499.09,87.77,505.555,95.1999,503.6212,89.8839,508.9372,87.95,499.09,87.77" style="stroke:#181818;stroke-width:1;"/><text fill="#000000" font-family="sans-serif" font-size="13" lengthAdjust="spacing" textLength="96.3828" x="594" y="338.3069">User Feedback</text></g><!--link DPM to MLA--><g class="link" data-entity-1="DPM" data-entity-2="MLA" data-source-line="15" data-uid="lnk13" id="link_DPM_MLA"><path d="M435,87.69 C435,114.34 435,152.4 435,179" fill="none" id="DPM-to-MLA" style="stroke:#181818;stroke-width:1;"/><polygon fill="#181818" points="435,185,439,176,435,180,431,176,435,185" style="stroke:#181818;stroke-width:1;"/><text fill="#000000" font-family="sans-serif" font-size="13" lengthAdjust="spacing" textLength="88.3784" x="436" y="130.3569">Training Data</text></g><!--link MLA to PME--><g class="link" data-entity-1="MLA" data-entity-2="PME" data-source-line="16" data-uid="lnk14" id="link_MLA_PME"><path d="M423.63,232.06 C412.44,254.3 398.1549,282.7092 386.9949,304.9092" fill="none" id="MLA-to-PME" style="stroke:#181818;stroke-width:1;"/><polygon fill="#181818" points="384.3,310.27,391.9161,304.0254,386.5457,305.8027,384.7685,300.4323,384.3,310.27" style="stroke:#181818;stroke-width:1;"/><text fill="#000000" font-family="sans-serif" font-size="13" lengthAdjust="spacing" textLength="92.5171" x="408.71" y="276.6569">Trained Model</text></g><!--link ORP to OI--><g class="link" data-entity-1="ORP" data-entity-2="OI" data-source-line="23" data-uid="lnk18" id="link_ORP_OI"><path d="M338.62,480.58 C297.98,507.23 235.8077,548.0001 195.2377,574.6001" fill="none" id="ORP-to-OI" style="stroke:#181818;stroke-width:1;"/><polygon fill="#181818" points="190.22,577.89,199.9397,576.3003,194.4014,575.1485,195.5532,569.6101,190.22,577.89" style="stroke:#181818;stroke-width:1;"/><text fill="#000000" font-family="sans-serif" font-size="13" lengthAdjust="spacing" textLength="50.8193" x="291.32" y="523.2469">Insights</text></g><!--link ORP to RM--><g class="link" data-entity-1="ORP" data-entity-2="RM" data-source-line="24" data-uid="lnk19" id="link_ORP_RM"><path d="M372.47,480.62 C372.28,489.79 372.09,500.49 372,510.18 C371.78,533.19 372.0248,553.5011 372.3748,571.7311" fill="none" id="ORP-to-RM" style="stroke:#181818;stroke-width:1;"/><polygon fill="#181818" points="372.49,577.73,376.3165,568.6549,372.394,572.7309,368.318,568.8084,372.49,577.73" style="stroke:#181818;stroke-width:1;"/><text fill="#000000" font-family="sans-serif" font-size="13" lengthAdjust="spacing" textLength="50.8193" x="373" y="523.2469">Insights</text></g><!--SRC=[RP51QiCm44NtESNWVIwGHS5j4Z14sBZD0HHvOW-r9I79XL1ozuxak8vBmHlhFut-_sEb-fGjGlP-ym47o9tgAA0AeqEu6WULmuPKe2-4NCl-5aZv3But0FmfCrYZKGV8zZB825jd57fFkWLXch773AI7VINM-DDOnh27Wsv9Jt0b3cku78CT0zJenpwmFZrXNABBkbhJPuyEZeZDXRE1GDL9JNv8yFaeDaop7TXkN-9Bi7joZGt474n49H8yVI9cjuNsr7R1CnEroF3GnCmZ7ZwPY4eaudixM1cBDknS_bJ1XvEaOt4LMUnJ6x7dLJWXUJyQuOJI9JRlM-CeT8DF0SKfJrVcXFpFB_zEVgI3TBuqa7HsddomVb-vUnrvdHmDZiPXIWzlqieBzHG8_JykIskD2wEcS8EYuIEwafA1Z9vMLlozK9FdLV6uTg7gjAgbvh9Wfq_rBqejrifzS_y1]--></g></svg>