<svg xmlns="http://www.w3.org/2000/svg" xmlns:xlink="http://www.w3.org/1999/xlink" contentStyleType="text/css" data-diagram-type="CLASS" height="183px" preserveAspectRatio="none" style="width:513px;height:183px;background:#FFFFFF;" version="1.1" viewBox="0 0 513 183" width="513px" zoomAndPan="magnify"><defs/><g><!--class User--><g class="entity" data-entity="User" data-source-line="1" data-uid="ent0002" id="entity_User"><rect fill="#F1F1F1" height="162.0781" rx="2.5" ry="2.5" style="stroke:#181818;stroke-width:0.5;" width="492.416" x="7" y="7"/><ellipse cx="233.0029" cy="23" fill="#ADD1B2" rx="11" ry="11" style="stroke:#181818;stroke-width:1;"/><path d="M235.9717,28.6406 Q235.3936,28.9375 234.7529,29.0781 Q234.1123,29.2344 233.4092,29.2344 Q230.9092,29.2344 229.5811,27.5938 Q228.2686,25.9375 228.2686,22.8125 Q228.2686,19.6875 229.5811,18.0313 Q230.9092,16.375 233.4092,16.375 Q234.1123,16.375 234.7529,16.5313 Q235.4092,16.6875 235.9717,16.9844 L235.9717,19.7031 Q235.3467,19.125 234.7529,18.8594 Q234.1592,18.5781 233.5342,18.5781 Q232.1904,18.5781 231.5029,19.6563 Q230.8154,20.7188 230.8154,22.8125 Q230.8154,24.9063 231.5029,25.9844 Q232.1904,27.0469 233.5342,27.0469 Q234.1592,27.0469 234.7529,26.7813 Q235.3467,26.5 235.9717,25.9219 L235.9717,28.6406 Z " fill="#000000"/><text fill="#000000" font-family="sans-serif" font-size="14" lengthAdjust="spacing" textLength="31.9102" x="253.5029" y="27.8467">User</text><line style="stroke:#181818;stroke-width:0.5;" x1="8" x2="498.416" y1="39" y2="39"/><rect fill="none" height="6" style="stroke:#C82930;stroke-width:1;" width="6" x="15" y="49.6484"/><text fill="#000000" font-family="sans-serif" font-size="14" lengthAdjust="spacing" textLength="74.2383" x="27" y="55.9951">UserID: int</text><rect fill="none" height="6" style="stroke:#C82930;stroke-width:1;" width="6" x="15" y="65.9453"/><text fill="#000000" font-family="sans-serif" font-size="14" lengthAdjust="spacing" textLength="136.9717" x="27" y="72.292">Roles: List&lt;String&gt;</text><rect fill="none" height="6" style="stroke:#C82930;stroke-width:1;" width="6" x="15" y="82.2422"/><text fill="#000000" font-family="sans-serif" font-size="14" lengthAdjust="spacing" textLength="182.4307" x="27" y="88.5889">Permissions: List&lt;String&gt;</text><rect fill="none" height="6" style="stroke:#C82930;stroke-width:1;" width="6" x="15" y="98.5391"/><text fill="#000000" font-family="sans-serif" font-size="14" lengthAdjust="spacing" textLength="135.666" x="27" y="104.8857">Department: String</text><line style="stroke:#181818;stroke-width:0.5;" x1="8" x2="498.416" y1="112.1875" y2="112.1875"/><ellipse cx="18" cy="125.8359" fill="#84BE84" rx="3" ry="3" style="stroke:#038048;stroke-width:1;"/><text fill="#000000" font-family="sans-serif" font-size="14" lengthAdjust="spacing" textLength="466.416" x="27" y="129.1826">AddUser(userID: int, roles: List&lt;String&gt;, department: String): void</text><ellipse cx="18" cy="142.1328" fill="#84BE84" rx="3" ry="3" style="stroke:#038048;stroke-width:1;"/><text fill="#000000" font-family="sans-serif" font-size="14" lengthAdjust="spacing" textLength="443.7207" x="27" y="145.4795">AssignPermissions(userID: int, permissions: List&lt;String&gt;): void</text><ellipse cx="18" cy="158.4297" fill="#84BE84" rx="3" ry="3" style="stroke:#038048;stroke-width:1;"/><text fill="#000000" font-family="sans-serif" font-size="14" lengthAdjust="spacing" textLength="378.6426" x="27" y="161.7764">LinkDepartment(userID: int, department: String): void</text></g><!--SRC=[Iyv9B2vM22rEBLAevb800bqmnzF5IY4phmGg4fIVarfifU2JMLnY4rnIb9cNRWUL2KWjoiqiBixCpyCkxv9Qa5XKafkQLsAb097X0ijeApYcf80iqYX5sAQZK8HfaOv22eOPcbOAPVcPAJ2JWFQdvo6v1DNC0bnEH3N59pCl6-5QL2Dmkw0M0000]--></g></svg>