<svg xmlns="http://www.w3.org/2000/svg" xmlns:xlink="http://www.w3.org/1999/xlink" contentStyleType="text/css" data-diagram-type="DESCRIPTION" height="389px" preserveAspectRatio="none" style="width:686px;height:389px;background:#FFFFFF;" version="1.1" viewBox="0 0 686 389" width="686px" zoomAndPan="magnify"><defs/><g><!--entity MarketingTeam--><g class="entity" data-entity="MarketingTeam" data-source-line="1" data-uid="ent0002" id="entity_MarketingTeam"><ellipse cx="89.7573" cy="167.3" fill="#F1F1F1" rx="8" ry="8" style="stroke:#181818;stroke-width:0.5;"/><path d="M89.7573,175.3 L89.7573,202.3 M76.7573,183.3 L102.7573,183.3 M89.7573,202.3 L76.7573,217.3 M89.7573,202.3 L102.7573,217.3" fill="none" style="stroke:#181818;stroke-width:0.5;"/><text fill="#000000" font-family="sans-serif" font-size="14" lengthAdjust="spacing" textLength="167.5146" x="6" y="231.7951">Marketing and PR Team</text></g><!--entity SocialMediaPlatforms--><g class="entity" data-entity="SocialMediaPlatforms" data-source-line="2" data-uid="ent0003" id="entity_SocialMediaPlatforms"><ellipse cx="416.759" cy="14" fill="#F1F1F1" rx="8" ry="8" style="stroke:#181818;stroke-width:0.5;"/><path d="M416.759,22 L416.759,49 M403.759,30 L429.759,30 M416.759,49 L403.759,64 M416.759,49 L429.759,64" fill="none" style="stroke:#181818;stroke-width:0.5;"/><text fill="#000000" font-family="sans-serif" font-size="14" lengthAdjust="spacing" textLength="159.0381" x="337.24" y="78.4951">Social Media Platforms</text></g><!--entity TrackEngagement--><g class="entity" data-entity="TrackEngagement" data-source-line="4" data-uid="ent0004" id="entity_TrackEngagement"><ellipse cx="308.7629" cy="196.9486" fill="#F1F1F1" rx="100.2429" ry="22.4486" style="stroke:#181818;stroke-width:0.5;"/><text fill="#000000" font-family="sans-serif" font-size="14" lengthAdjust="spacing" textLength="176.5928" x="220.4665" y="201.597">Track Engagement Rates</text></g><!--entity AnalyzeSentiment--><g class="entity" data-entity="AnalyzeSentiment" data-source-line="5" data-uid="ent0005" id="entity_AnalyzeSentiment"><ellipse cx="524.7645" cy="196.9509" fill="#F1F1F1" rx="80.5545" ry="18.5109" style="stroke:#181818;stroke-width:0.5;"/><text fill="#000000" font-family="sans-serif" font-size="14" lengthAdjust="spacing" textLength="131.9814" x="458.7738" y="201.5993">Analyze Sentiment</text></g><!--entity DevisePlans--><g class="entity" data-entity="DevisePlans" data-source-line="6" data-uid="ent0006" id="entity_DevisePlans"><ellipse cx="308.7618" cy="347.3584" fill="#F1F1F1" rx="94.4418" ry="21.2884" style="stroke:#181818;stroke-width:0.5;"/><text fill="#000000" font-family="sans-serif" font-size="14" lengthAdjust="spacing" textLength="163.7275" x="226.898" y="352.0068">Devise Marketing Plans</text></g><g class="entity" data-entity="GMN14" data-source-line="19" data-uid="ent0015" id="entity_GMN14"><path d="M438.18,312.1 L438.18,343.36 L403.48,347.36 L438.18,351.36 L438.18,382.6313 A0,0 0 0 0 438.18,382.6313 L679.3421,382.6313 A0,0 0 0 0 679.3421,382.6313 L679.3421,322.1 L669.3421,312.1 L438.18,312.1 A0,0 0 0 0 438.18,312.1" fill="#FEFFDD" style="stroke:#181818;stroke-width:0.5;"/><path d="M669.3421,312.1 L669.3421,322.1 L679.3421,322.1 L669.3421,312.1" fill="#FEFFDD" style="stroke:#181818;stroke-width:0.5;"/><text fill="#000000" font-family="sans-serif" font-size="13" lengthAdjust="spacing" textLength="220.1621" x="444.18" y="329.1669">Access to real-time data is crucial</text><text fill="#000000" font-family="sans-serif" font-size="13" lengthAdjust="spacing" textLength="195.5713" x="444.18" y="344.2997">for refining social content and</text><text fill="#000000" font-family="sans-serif" font-size="13" lengthAdjust="spacing" textLength="209.0918" x="444.18" y="359.4325">engagement strategies to boost</text><text fill="#000000" font-family="sans-serif" font-size="13" lengthAdjust="spacing" textLength="89.9463" x="444.18" y="374.5653">brand loyalty.</text></g><!--link MarketingTeam to TrackEngagement--><g class="link" data-entity-1="MarketingTeam" data-entity-2="TrackEngagement" data-source-line="8" data-uid="lnk7" id="link_MarketingTeam_TrackEngagement"><path d="M173.59,196.95 C185.12,196.95 190.65,196.95 202.18,196.95" fill="none" id="MarketingTeam-to-TrackEngagement" style="stroke:#181818;stroke-width:1;"/><polygon fill="#181818" points="208.18,196.95,199.18,192.95,203.18,196.95,199.18,200.95,208.18,196.95" style="stroke:#181818;stroke-width:1;"/></g><!--link MarketingTeam to AnalyzeSentiment--><g class="link" data-entity-1="MarketingTeam" data-entity-2="AnalyzeSentiment" data-source-line="9" data-uid="lnk8" id="link_MarketingTeam_AnalyzeSentiment"><path d="M135.64,158.45 C156.43,143.44 182.17,128 208.26,120.3 C293.93,95.01 323.73,94.5 409.26,120.3 C447.04,131.7 479.3018,156.0021 500.8518,174.8321" fill="none" id="MarketingTeam-to-AnalyzeSentiment" style="stroke:#181818;stroke-width:1;"/><polygon fill="#181818" points="505.37,178.78,501.2247,169.846,501.6048,175.4901,495.9608,175.8703,505.37,178.78" style="stroke:#181818;stroke-width:1;"/></g><!--link MarketingTeam to DevisePlans--><g class="link" data-entity-1="MarketingTeam" data-entity-2="DevisePlans" data-source-line="10" data-uid="lnk9" id="link_MarketingTeam_DevisePlans"><path d="M145.3,235.59 C188.13,264.62 240.6829,300.2343 274.8329,323.3743" fill="none" id="MarketingTeam-to-DevisePlans" style="stroke:#181818;stroke-width:1;"/><polygon fill="#181818" points="279.8,326.74,274.5932,318.3801,275.6608,323.9353,270.1056,325.0028,279.8,326.74" style="stroke:#181818;stroke-width:1;"/></g><!--link SocialMediaPlatforms to TrackEngagement--><g class="link" data-entity-1="SocialMediaPlatforms" data-entity-2="TrackEngagement" data-source-line="12" data-uid="lnk10" id="link_SocialMediaPlatforms_TrackEngagement"><path d="M378.28,82.21 C369.71,91.48 361.03,101.67 353.76,111.8 C339.46,131.72 329.2151,151.3112 320.9551,168.8612" fill="none" id="SocialMediaPlatforms-to-TrackEngagement" style="stroke:#181818;stroke-width:1;"/><polygon fill="#181818" points="318.4,174.29,325.8518,167.8502,320.5292,169.766,318.6134,164.4435,318.4,174.29" style="stroke:#181818;stroke-width:1;"/><text fill="#000000" font-family="sans-serif" font-size="13" lengthAdjust="spacing" textLength="110.5952" x="354.76" y="124.8669">provide raw data</text></g><!--link SocialMediaPlatforms to AnalyzeSentiment--><g class="link" data-entity-1="SocialMediaPlatforms" data-entity-2="AnalyzeSentiment" data-source-line="13" data-uid="lnk11" id="link_SocialMediaPlatforms_AnalyzeSentiment"><path d="M447.35,82.2 C454.85,91.73 462.73,102.04 469.76,111.8 C485.86,134.19 499.8568,155.914 510.6468,173.154" fill="none" id="SocialMediaPlatforms-to-AnalyzeSentiment" style="stroke:#181818;stroke-width:1;"/><polygon fill="#181818" points="513.83,178.24,512.4459,168.4889,511.1774,174.0017,505.6646,172.7331,513.83,178.24" style="stroke:#181818;stroke-width:1;"/><text fill="#000000" font-family="sans-serif" font-size="13" lengthAdjust="spacing" textLength="110.5952" x="481.79" y="124.8669">provide raw data</text></g><!--link TrackEngagement to DevisePlans--><g class="link" data-entity-1="TrackEngagement" data-entity-2="DevisePlans" data-source-line="15" data-uid="lnk12" id="link_TrackEngagement_DevisePlans"><path d="M308.76,219.85 C308.76,248.39 308.76,291.95 308.76,319.81" fill="none" id="TrackEngagement-to-DevisePlans" style="stroke:#181818;stroke-width:1;"/><polygon fill="#181818" points="308.76,325.81,312.76,316.81,308.76,320.81,304.76,316.81,308.76,325.81" style="stroke:#181818;stroke-width:1;"/><text fill="#000000" font-family="sans-serif" font-size="13" lengthAdjust="spacing" textLength="106.812" x="309.76" y="278.1669">refine strategies</text></g><!--link AnalyzeSentiment to DevisePlans--><g class="link" data-entity-1="AnalyzeSentiment" data-entity-2="DevisePlans" data-source-line="16" data-uid="lnk13" id="link_AnalyzeSentiment_DevisePlans"><path d="M506.46,215.23 C487.04,233.1 455.04,261.26 424.76,282.1 C400.01,299.13 375.6811,312.7469 352.5411,324.6969" fill="none" id="AnalyzeSentiment-to-DevisePlans" style="stroke:#181818;stroke-width:1;"/><polygon fill="#181818" points="347.21,327.45,357.042,326.8744,351.6526,325.1558,353.3712,319.7663,347.21,327.45" style="stroke:#181818;stroke-width:1;"/><text fill="#000000" font-family="sans-serif" font-size="13" lengthAdjust="spacing" textLength="106.812" x="448.82" y="278.1669">refine strategies</text></g><!--SRC=[ZL91QiCm4Bph5KFkxWDwA0JQOo0a-S16NhiYjbIaJOBx-gwiOkCuXPwCTcPsPYoHbH2nsL6yi3ZVWdoD_G4dfdu3IfYGF35KwCTW7NNOSUq8-uwa2R5F8xz08p81nbmJMqgCpIcIlU33jzHoprvm8E6Y7A4PcJLRJztmpJZgr6LefFzEf-7CV-URq-_SIOFuub6WyMpCeXggjrM25M7bkM8i39xz2rHh8xpYAuQRgncHxgX9w6_jOuPdOlDeK2sZgIPoupmZITGBQ1qdirhy7v7nGTJOjP-2q2pg0rjhEIL8K25rLLuxveDBiF6Q2ofBgvN5-QfIULasUCaHz3KgW-SYitLUUmuXYHBECJ_RBWpKoV1YM0yvrmy0]--></g></svg>