<svg xmlns="http://www.w3.org/2000/svg" xmlns:xlink="http://www.w3.org/1999/xlink" contentStyleType="text/css" data-diagram-type="DESCRIPTION" height="225px" preserveAspectRatio="none" style="width:2564px;height:225px;background:#FFFFFF;" version="1.1" viewBox="0 0 2564 225" width="2564px" zoomAndPan="magnify"><defs/><g><!--entity Admin--><g class="entity" data-entity="Admin" data-source-line="1" data-uid="ent0002" id="entity_Admin"><ellipse cx="1415.4407" cy="14" fill="#F1F1F1" rx="8" ry="8" style="stroke:#181818;stroke-width:0.5;"/><path d="M1415.4407,22 L1415.4407,49 M1402.4407,30 L1428.4407,30 M1415.4407,49 L1402.4407,64 M1415.4407,49 L1428.4407,64" fill="none" style="stroke:#181818;stroke-width:0.5;"/><text fill="#000000" font-family="sans-serif" font-size="14" lengthAdjust="spacing" textLength="85.4014" x="1372.74" y="78.4951">&#1605;&#1587;&#1572;&#1608;&#1604; &#1575;&#1604;&#1606;&#1592;&#1575;&#1605;</text></g><!--entity DevOps--><g class="entity" data-entity="DevOps" data-source-line="2" data-uid="ent0003" id="entity_DevOps"><ellipse cx="2294.4406" cy="14" fill="#F1F1F1" rx="8" ry="8" style="stroke:#181818;stroke-width:0.5;"/><path d="M2294.4406,22 L2294.4406,49 M2281.4406,30 L2307.4406,30 M2294.4406,49 L2281.4406,64 M2294.4406,49 L2307.4406,64" fill="none" style="stroke:#181818;stroke-width:0.5;"/><text fill="#000000" font-family="sans-serif" font-size="14" lengthAdjust="spacing" textLength="146.7813" x="2221.05" y="78.4951">&#1605;&#1607;&#1606;&#1583;&#1587; &#1575;&#1604;&#1605;&#1606;&#1589;&#1617;&#1577;/DevOps</text></g><!--entity Executive--><g class="entity" data-entity="Executive" data-source-line="3" data-uid="ent0004" id="entity_Executive"><ellipse cx="107.4453" cy="14" fill="#F1F1F1" rx="8" ry="8" style="stroke:#181818;stroke-width:0.5;"/><path d="M107.4453,22 L107.4453,49 M94.4453,30 L120.4453,30 M107.4453,49 L94.4453,64 M107.4453,49 L120.4453,64" fill="none" style="stroke:#181818;stroke-width:0.5;"/><text fill="#000000" font-family="sans-serif" font-size="14" lengthAdjust="spacing" textLength="202.8906" x="6" y="78.4951">&#1575;&#1604;&#1605;&#1583;&#1610;&#1585; &#1575;&#1604;&#1578;&#1606;&#1601;&#1610;&#1584;&#1610;/&#1593;&#1590;&#1608; &#1605;&#1580;&#1604;&#1587; &#1575;&#1604;&#1573;&#1583;&#1575;&#1585;&#1577;</text></g><!--entity UC1--><g class="entity" data-entity="UC1" data-source-line="5" data-uid="ent0005" id="entity_UC1"><ellipse cx="1628.451" cy="188.9962" fill="#F1F1F1" rx="98.431" ry="22.0862" style="stroke:#181818;stroke-width:0.5;"/><text fill="#000000" font-family="sans-serif" font-size="14" lengthAdjust="spacing" textLength="172.5938" x="1542.1541" y="193.6446">Manage Users and Roles</text></g><!--entity UC2--><g class="entity" data-entity="UC2" data-source-line="6" data-uid="ent0006" id="entity_UC2"><ellipse cx="920.4487" cy="189.0037" fill="#F1F1F1" rx="95.6187" ry="21.5237" style="stroke:#181818;stroke-width:0.5;"/><text fill="#000000" font-family="sans-serif" font-size="14" lengthAdjust="spacing" textLength="166.3525" x="837.2724" y="193.6522">Configure SSO and MFA</text></g><!--entity UC3--><g class="entity" data-entity="UC3" data-source-line="7" data-uid="ent0007" id="entity_UC3"><ellipse cx="339.4493" cy="189.0039" fill="#F1F1F1" rx="114.5193" ry="25.3039" style="stroke:#181818;stroke-width:0.5;"/><text fill="#000000" font-family="sans-serif" font-size="14" lengthAdjust="spacing" textLength="207.6211" x="235.6388" y="193.6523">Manage API Keys and Secrets</text></g><!--entity UC4--><g class="entity" data-entity="UC4" data-source-line="8" data-uid="ent0008" id="entity_UC4"><ellipse cx="1868.4518" cy="189.0004" fill="#F1F1F1" rx="106.4518" ry="23.6904" style="stroke:#181818;stroke-width:0.5;"/><text fill="#000000" font-family="sans-serif" font-size="14" lengthAdjust="spacing" textLength="190.1826" x="1773.3605" y="193.6488">Set Data Retention Policies</text></g><!--entity UC5--><g class="entity" data-entity="UC5" data-source-line="9" data-uid="ent0009" id="entity_UC5"><ellipse cx="1415.4507" cy="188.9961" fill="#F1F1F1" rx="79.1807" ry="18.2361" style="stroke:#181818;stroke-width:0.5;"/><text fill="#000000" font-family="sans-serif" font-size="14" lengthAdjust="spacing" textLength="128.7412" x="1351.0801" y="193.6446">Review Audit Logs</text></g><!--entity UC6--><g class="entity" data-entity="UC6" data-source-line="10" data-uid="ent0010" id="entity_UC6"><ellipse cx="2148.4458" cy="188.9992" fill="#F1F1F1" rx="138.9958" ry="30.1992" style="stroke:#181818;stroke-width:0.5;"/><text fill="#000000" font-family="sans-serif" font-size="14" lengthAdjust="spacing" textLength="259.499" x="2018.6963" y="193.6476">Monitor Availability and Performance</text></g><!--entity UC7--><g class="entity" data-entity="UC7" data-source-line="11" data-uid="ent0011" id="entity_UC7"><ellipse cx="2440.4495" cy="189.0039" fill="#F1F1F1" rx="118.3695" ry="26.0739" style="stroke:#181818;stroke-width:0.5;"/><text fill="#000000" font-family="sans-serif" font-size="14" lengthAdjust="spacing" textLength="215.8721" x="2332.5134" y="193.6523">Configure Logging and Tracing</text></g><!--entity UC8--><g class="entity" data-entity="UC8" data-source-line="12" data-uid="ent0012" id="entity_UC8"><ellipse cx="107.4482" cy="188.9976" fill="#F1F1F1" rx="82.8882" ry="18.9776" style="stroke:#181818;stroke-width:0.5;"/><text fill="#000000" font-family="sans-serif" font-size="14" lengthAdjust="spacing" textLength="137.4365" x="38.7299" y="193.6461">Compliance Review</text></g><!--entity UC9--><g class="entity" data-entity="UC9" data-source-line="13" data-uid="ent0013" id="entity_UC9"><ellipse cx="1208.4454" cy="188.9951" fill="#F1F1F1" rx="92.8754" ry="20.9751" style="stroke:#181818;stroke-width:0.5;"/><text fill="#000000" font-family="sans-serif" font-size="14" lengthAdjust="spacing" textLength="160.2207" x="1128.3351" y="193.6435">Enforce Least Privilege</text></g><!--entity UC10--><g class="entity" data-entity="UC10" data-source-line="14" data-uid="ent0014" id="entity_UC10"><ellipse cx="671.4499" cy="189.002" fill="#F1F1F1" rx="118.3599" ry="26.072" style="stroke:#181818;stroke-width:0.5;"/><text fill="#000000" font-family="sans-serif" font-size="14" lengthAdjust="spacing" textLength="215.8516" x="563.5241" y="193.6504">Rotate Credentials periodically</text></g><!--link Admin to UC1--><g class="link" data-entity-1="Admin" data-entity-2="UC1" data-source-line="16" data-uid="lnk15" id="link_Admin_UC1"><path d="M1458.55,73.66 C1500,101.56 1556.6224,139.6598 1593.1424,164.2398" fill="none" id="Admin-to-UC1" style="stroke:#181818;stroke-width:1;"/><polygon fill="#181818" points="1598.12,167.59,1592.8871,159.2463,1593.972,164.7982,1588.4202,165.8831,1598.12,167.59" style="stroke:#181818;stroke-width:1;"/></g><!--link Admin to UC2--><g class="link" data-entity-1="Admin" data-entity-2="UC2" data-source-line="17" data-uid="lnk16" id="link_Admin_UC2"><path d="M1372.38,57.12 C1283.12,82.97 1083.6532,140.741 983.4132,169.771" fill="none" id="Admin-to-UC2" style="stroke:#181818;stroke-width:1;"/><polygon fill="#181818" points="977.65,171.44,987.4075,172.7786,982.4527,170.0491,985.1821,165.0943,977.65,171.44" style="stroke:#181818;stroke-width:1;"/></g><!--link Admin to UC3--><g class="link" data-entity-1="Admin" data-entity-2="UC3" data-source-line="18" data-uid="lnk17" id="link_Admin_UC3"><path d="M1372.37,48.67 C1272.98,58.12 1019.99,83.09 809.45,111.8 C675.74,130.04 527.341,154.9703 433.081,171.3903" fill="none" id="Admin-to-UC3" style="stroke:#181818;stroke-width:1;"/><polygon fill="#181818" points="427.17,172.42,436.7229,174.8161,432.0958,171.5619,435.35,166.9348,427.17,172.42" style="stroke:#181818;stroke-width:1;"/></g><!--link Admin to UC4--><g class="link" data-entity-1="Admin" data-entity-2="UC4" data-source-line="19" data-uid="lnk18" id="link_Admin_UC4"><path d="M1458.47,58.27 C1539.74,83.99 1710.2597,137.9395 1802.9597,167.2795" fill="none" id="Admin-to-UC4" style="stroke:#181818;stroke-width:1;"/><polygon fill="#181818" points="1808.68,169.09,1801.3065,162.5607,1803.9131,167.5812,1798.8925,170.1878,1808.68,169.09" style="stroke:#181818;stroke-width:1;"/></g><!--link Admin to UC5--><g class="link" data-entity-1="Admin" data-entity-2="UC5" data-source-line="20" data-uid="lnk19" id="link_Admin_UC5"><path d="M1415.45,81.94 C1415.45,110.48 1415.45,142.55 1415.45,164.45" fill="none" id="Admin-to-UC5" style="stroke:#181818;stroke-width:1;"/><polygon fill="#181818" points="1415.45,170.45,1419.45,161.45,1415.45,165.45,1411.45,161.45,1415.45,170.45" style="stroke:#181818;stroke-width:1;"/></g><!--link DevOps to UC6--><g class="link" data-entity-1="DevOps" data-entity-2="UC6" data-source-line="22" data-uid="lnk20" id="link_DevOps_UC6"><path d="M2256.47,81.94 C2231.96,106 2204.8413,132.6263 2182.2213,154.8363" fill="none" id="DevOps-to-UC6" style="stroke:#181818;stroke-width:1;"/><polygon fill="#181818" points="2177.94,159.04,2187.1643,155.5887,2181.5077,155.5369,2181.5595,149.8803,2177.94,159.04" style="stroke:#181818;stroke-width:1;"/></g><!--link DevOps to UC7--><g class="link" data-entity-1="DevOps" data-entity-2="UC7" data-source-line="23" data-uid="lnk21" id="link_DevOps_UC7"><path d="M2332.42,81.94 C2358.45,107.49 2387.9691,136.476 2410.7791,158.876" fill="none" id="DevOps-to-UC7" style="stroke:#181818;stroke-width:1;"/><polygon fill="#181818" points="2415.06,163.08,2411.4413,153.9201,2411.4925,159.5767,2405.8359,159.628,2415.06,163.08" style="stroke:#181818;stroke-width:1;"/></g><!--link Executive to UC8--><g class="link" data-entity-1="Executive" data-entity-2="UC8" data-source-line="25" data-uid="lnk22" id="link_Executive_UC8"><path d="M107.45,81.94 C107.45,110.15 107.45,141.66 107.45,163.68" fill="none" id="Executive-to-UC8" style="stroke:#181818;stroke-width:1;"/><polygon fill="#181818" points="107.45,169.68,111.45,160.68,107.45,164.68,103.45,160.68,107.45,169.68" style="stroke:#181818;stroke-width:1;"/></g><!--link UC2 to UC9--><g class="link" data-entity-1="UC2" data-entity-2="UC9" data-source-line="27" data-uid="lnk23" id="link_UC2_UC9"><path d="M1016.35,189 C1048.25,189 1077.72,189 1109.41,189" fill="none" id="UC2-to-UC9" style="stroke:#181818;stroke-width:1;stroke-dasharray:7,7;"/><polygon fill="#181818" points="1115.41,189,1106.41,185,1110.41,189,1106.41,193,1115.41,189" style="stroke:#181818;stroke-width:1;"/><text fill="#000000" font-family="sans-serif" font-size="13" lengthAdjust="spacing" textLength="63.0068" x="1034.32" y="182.0669">&#171;include&#187;</text></g><!--link UC3 to UC10--><g class="link" data-entity-1="UC3" data-entity-2="UC10" data-source-line="28" data-uid="lnk24" id="link_UC3_UC10"><path d="M454.17,189 C486.03,189 514.69,189 546.77,189" fill="none" id="UC3-to-UC10" style="stroke:#181818;stroke-width:1;stroke-dasharray:7,7;"/><polygon fill="#181818" points="552.77,189,543.77,185,547.77,189,543.77,193,552.77,189" style="stroke:#181818;stroke-width:1;"/><text fill="#000000" font-family="sans-serif" font-size="13" lengthAdjust="spacing" textLength="63.0068" x="472.03" y="182.0669">&#171;include&#187;</text></g><!--link UC8 to UC5--><g class="link" data-entity-1="UC8" data-entity-2="UC5" data-source-line="29" data-uid="lnk25" id="link_UC8_UC5"><path d="M152.7,172.87 C169.66,167.49 189.23,162.04 207.45,158.8 C502.58,106.4 581.44,111.1 880.95,123.25 C1075.87,131.16 1126.92,121.68 1318.45,158.8 C1336.45,162.29 1350.1391,166.0593 1366.8091,171.5293" fill="none" id="UC8-to-UC5" style="stroke:#181818;stroke-width:1;stroke-dasharray:7,7;"/><polygon fill="#181818" points="1372.51,173.4,1365.2057,166.7934,1367.7592,171.8411,1362.7115,174.3946,1372.51,173.4" style="stroke:#181818;stroke-width:1;"/><text fill="#000000" font-family="sans-serif" font-size="13" lengthAdjust="spacing" textLength="61.1851" x="818.95" y="124.8669">&#171;extend&#187;</text></g><!--SRC=[RPBVQjim5CRlzHI7t7VzawPDHp6Oj8EnbePaVG3DFZK752d8ijTS3fgkz6xli54w1bqf6zkRI6ypHRARXExAvzFtEz-HBF7CA0qTDxTFzgkxSLTWxzoLkxP__7VU0Lv2caz8Cjw2xhDt7-nJ1ETU_79VxFtc4TPdqp9qnB9jYPnzSBVsCJJPx-xQVVBofxlTj7_jRtS37lZXdPXgl_a1T_RHteUuuqlCAaCrCbQLcF4IeNFA9IyGpalK9N2PmqW9ZDFF1zjBRg3a1HMLHXYFpm9u-YPji9qNSUdmBRp3MKmSOwRHj9dT9Jn60qVSS1YXGMb8IHWgGHazRs1t2O-m9lm8QPMJWHDLj4XlPRYIjFXJQSr9y0yaoCp23eQeBvIUS9bXqxNtlvFvr89a4LhUQvxvki7tL_79LD0Y2kAM6gI_H8wbd-Rz4-IbWQ6ccWGMxUY3bJCfmmt2G6E-E3yN9KnHayefuqBCsblOOYoy7TZOICAjhAgTDTLTKxjhgiTOV52DtbkN-umzFv1cgS-O7m2l5lK1l8R3GvAPg79C4czqex6zzSBfHwSN3BpqbvidoJy0]--></g></svg>