<svg xmlns="http://www.w3.org/2000/svg" xmlns:xlink="http://www.w3.org/1999/xlink" contentStyleType="text/css" data-diagram-type="ACTIVITY" height="214px" preserveAspectRatio="none" style="width:220px;height:214px;background:#FFFFFF;" version="1.1" viewBox="0 0 220 214" width="220px" zoomAndPan="magnify"><defs/><g><ellipse cx="87.4863" cy="20" fill="#222222" rx="10" ry="10" style="stroke:#222222;stroke-width:1;"/><rect fill="#F1F1F1" height="33.9688" rx="12.5" ry="12.5" style="stroke:#181818;stroke-width:0.5;" width="152.9727" x="11" y="50"/><text fill="#000000" font-family="sans-serif" font-size="12" lengthAdjust="spacing" textLength="132.9727" x="21" y="71.1387">User toggles consents</text><polygon fill="#F1F1F1" points="37.3901,125.3677,137.5825,125.3677,149.5825,137.3677,137.5825,149.3677,37.3901,149.3677,25.3901,137.3677,37.3901,125.3677" style="stroke:#181818;stroke-width:0.5;"/><text fill="#000000" font-family="sans-serif" font-size="11" lengthAdjust="spacing" textLength="19.0083" x="91.4863" y="159.5781">yes</text><text fill="#000000" font-family="sans-serif" font-size="11" lengthAdjust="spacing" textLength="100.1924" x="37.3901" y="141.1758">Settings updated?</text><text fill="#000000" font-family="sans-serif" font-size="11" lengthAdjust="spacing" textLength="13.7017" x="149.5825" y="134.7734">no</text><ellipse cx="185.2842" cy="137.3677" fill="none" rx="11" ry="11" style="stroke:#222222;stroke-width:1;"/><ellipse cx="185.2842" cy="137.3677" fill="#222222" rx="6" ry="6" style="stroke:#222222;stroke-width:1;"/><ellipse cx="87.4863" cy="192.0781" fill="none" rx="11" ry="11" style="stroke:#222222;stroke-width:1;"/><ellipse cx="87.4863" cy="192.0781" fill="#222222" rx="6" ry="6" style="stroke:#222222;stroke-width:1;"/><line style="stroke:#181818;stroke-width:1;" x1="87.4863" x2="87.4863" y1="30" y2="50"/><polygon fill="#181818" points="83.4863,40,87.4863,50,91.4863,40,87.4863,44" style="stroke:#181818;stroke-width:1;"/><line style="stroke:#181818;stroke-width:1;" x1="87.4863" x2="87.4863" y1="149.3677" y2="181.0781"/><polygon fill="#181818" points="83.4863,171.0781,87.4863,181.0781,91.4863,171.0781,87.4863,175.0781" style="stroke:#181818;stroke-width:1;"/><line style="stroke:#181818;stroke-width:1;" x1="149.5825" x2="174.2842" y1="137.3677" y2="137.3677"/><polygon fill="#181818" points="164.2842,133.3677,174.2842,137.3677,164.2842,141.3677,168.2842,137.3677" style="stroke:#181818;stroke-width:1;"/><line style="stroke:#181818;stroke-width:1;" x1="87.4863" x2="87.4863" y1="83.9688" y2="125.3677"/><polygon fill="#181818" points="83.4863,115.3677,87.4863,125.3677,91.4863,115.3677,87.4863,119.3677" style="stroke:#181818;stroke-width:1;"/><text fill="#000000" font-family="sans-serif" font-size="11" lengthAdjust="spacing" textLength="116.8374" x="91.4863" y="105.2734">App updates settings</text><!--SRC=[FOr12WCX40Jlyue-keTy80i9UKF80ymwQoGoYZCvvFUh87lhfgXkDT-CwFfIRh0IOsR5LaHPJ5UwtF2e5RyQl7MWR9OaTa1fXtlEEdcuBx0F2zoVTI5WsY6fVuzTQtxxSklwoMglIUtyH2vn9SxAS5B6Y5gfn1BIJZJo0G00]--></g></svg>