<svg xmlns="http://www.w3.org/2000/svg" xmlns:xlink="http://www.w3.org/1999/xlink" contentStyleType="text/css" data-diagram-type="DESCRIPTION" height="212px" preserveAspectRatio="none" style="width:1695px;height:212px;background:#FFFFFF;" version="1.1" viewBox="0 0 1695 212" width="1695px" zoomAndPan="magnify"><defs/><g><!--entity Customer--><g class="entity" data-entity="Customer" data-source-line="1" data-uid="ent0002" id="entity_Customer"><ellipse cx="157.3218" cy="14" fill="#F1F1F1" rx="8" ry="8" style="stroke:#181818;stroke-width:0.5;"/><path d="M157.3218,22 L157.3218,49 M144.3218,30 L170.3218,30 M157.3218,49 L144.3218,64 M157.3218,49 L170.3218,64" fill="none" style="stroke:#181818;stroke-width:0.5;"/><text fill="#000000" font-family="sans-serif" font-size="14" lengthAdjust="spacing" textLength="148.2236" x="83.21" y="78.4951">Registered Customer</text></g><!--entity Admin--><g class="entity" data-entity="Admin" data-source-line="2" data-uid="ent0003" id="entity_Admin"><ellipse cx="1165.3236" cy="14" fill="#F1F1F1" rx="8" ry="8" style="stroke:#181818;stroke-width:0.5;"/><path d="M1165.3236,22 L1165.3236,49 M1152.3236,30 L1178.3236,30 M1165.3236,49 L1152.3236,64 M1165.3236,49 L1178.3236,64" fill="none" style="stroke:#181818;stroke-width:0.5;"/><text fill="#000000" font-family="sans-serif" font-size="14" lengthAdjust="spacing" textLength="101.7871" x="1114.43" y="78.4951">System/Admin</text></g><!--entity Operator--><g class="entity" data-entity="Operator" data-source-line="3" data-uid="ent0004" id="entity_Operator"><ellipse cx="1616.3243" cy="14" fill="#F1F1F1" rx="8" ry="8" style="stroke:#181818;stroke-width:0.5;"/><path d="M1616.3243,22 L1616.3243,49 M1603.3243,30 L1629.3243,30 M1616.3243,49 L1603.3243,64 M1616.3243,49 L1629.3243,64" fill="none" style="stroke:#181818;stroke-width:0.5;"/><text fill="#000000" font-family="sans-serif" font-size="14" lengthAdjust="spacing" textLength="144.3887" x="1544.13" y="78.4951">Restaurant Operator</text></g><!--entity UC_SubmitRating--><g class="entity" data-entity="UC_SubmitRating" data-source-line="5" data-uid="ent0005" id="entity_UC_SubmitRating"><ellipse cx="73.3265" cy="182.8253" fill="#F1F1F1" rx="67.3265" ry="15.8653" style="stroke:#181818;stroke-width:0.5;"/><text fill="#000000" font-family="sans-serif" font-size="14" lengthAdjust="spacing" textLength="99.5586" x="23.5472" y="187.4737">Submit Rating</text></g><!--entity UC_WriteReview--><g class="entity" data-entity="UC_WriteReview" data-source-line="6" data-uid="ent0006" id="entity_UC_WriteReview"><ellipse cx="240.331" cy="182.8262" fill="#F1F1F1" rx="64.681" ry="15.3362" style="stroke:#181818;stroke-width:0.5;"/><text fill="#000000" font-family="sans-serif" font-size="14" lengthAdjust="spacing" textLength="92.6201" x="194.021" y="187.4746">Write Review</text></g><!--entity UC_ModerateReview--><g class="entity" data-entity="UC_ModerateReview" data-source-line="7" data-uid="ent0007" id="entity_UC_ModerateReview"><ellipse cx="1432.3333" cy="182.8287" fill="#F1F1F1" rx="76.1933" ry="17.6387" style="stroke:#181818;stroke-width:0.5;"/><text fill="#000000" font-family="sans-serif" font-size="14" lengthAdjust="spacing" textLength="121.6113" x="1371.5276" y="187.4771">Moderate Review</text></g><!--entity UC_ApproveReject--><g class="entity" data-entity="UC_ApproveReject" data-source-line="8" data-uid="ent0008" id="entity_UC_ApproveReject"><ellipse cx="969.3334" cy="182.8347" fill="#F1F1F1" rx="70.3734" ry="16.4747" style="stroke:#181818;stroke-width:0.5;"/><text fill="#000000" font-family="sans-serif" font-size="14" lengthAdjust="spacing" textLength="107.3174" x="915.6748" y="187.4831">Approve/Reject</text></g><!--entity UC_HandleAbuse--><g class="entity" data-entity="UC_HandleAbuse" data-source-line="9" data-uid="ent0009" id="entity_UC_HandleAbuse"><ellipse cx="1165.3312" cy="182.8262" fill="#F1F1F1" rx="90.9312" ry="20.5862" style="stroke:#181818;stroke-width:0.5;"/><text fill="#000000" font-family="sans-serif" font-size="14" lengthAdjust="spacing" textLength="155.8457" x="1087.4084" y="187.4747">Handle Abuse Reports</text></g><!--entity UC_ReplyReview--><g class="entity" data-entity="UC_ReplyReview" data-source-line="10" data-uid="ent0010" id="entity_UC_ReplyReview"><ellipse cx="1616.3318" cy="182.8264" fill="#F1F1F1" rx="72.6318" ry="16.9264" style="stroke:#181818;stroke-width:0.5;"/><text fill="#000000" font-family="sans-serif" font-size="14" lengthAdjust="spacing" textLength="112.9365" x="1559.8636" y="187.4748">Reply to Review</text></g><!--entity UC_PublishRatings--><g class="entity" data-entity="UC_PublishRatings" data-source-line="11" data-uid="ent0011" id="entity_UC_PublishRatings"><ellipse cx="691.3319" cy="182.8284" fill="#F1F1F1" rx="108.1919" ry="24.0384" style="stroke:#181818;stroke-width:0.5;"/><text fill="#000000" font-family="sans-serif" font-size="14" lengthAdjust="spacing" textLength="193.9629" x="594.3504" y="187.4768">Publish Aggregated Ratings</text></g><!--entity UC_OrderDelivered--><g class="entity" data-entity="UC_OrderDelivered" data-source-line="12" data-uid="ent0012" id="entity_UC_OrderDelivered"><ellipse cx="476.3253" cy="182.8251" fill="#F1F1F1" rx="72.1753" ry="16.8351" style="stroke:#181818;stroke-width:0.5;"/><text fill="#000000" font-family="sans-serif" font-size="14" lengthAdjust="spacing" textLength="111.8086" x="420.421" y="187.4735">Order Delivered</text></g><!--link Customer to UC_SubmitRating--><g class="link" data-entity-1="Customer" data-entity-2="UC_SubmitRating" data-source-line="14" data-uid="lnk13" id="link_Customer_UC_SubmitRating"><path d="M134.37,82.13 C117.27,110.06 94.83,146.71 82.48,166.89" fill="none" id="Customer-UC_SubmitRating" style="stroke:#181818;stroke-width:1;"/></g><!--link Customer to UC_WriteReview--><g class="link" data-entity-1="Customer" data-entity-2="UC_WriteReview" data-source-line="15" data-uid="lnk14" id="link_Customer_UC_WriteReview"><path d="M180.01,82.13 C197,110.22 219.33,147.13 231.49,167.23" fill="none" id="Customer-UC_WriteReview" style="stroke:#181818;stroke-width:1;"/></g><!--link UC_SubmitRating to UC_OrderDelivered--><g class="link" data-entity-1="UC_SubmitRating" data-entity-2="UC_OrderDelivered" data-source-line="16" data-uid="lnk15" id="link_UC_SubmitRating_UC_OrderDelivered"><path d="M103.05,168.23 C135.32,153.26 188.84,130.96 237.83,122.22 C314.37,108.56 397.2572,142.2892 441.8772,164.4692" fill="none" id="UC_SubmitRating-to-UC_OrderDelivered" style="stroke:#181818;stroke-width:1;stroke-dasharray:7,7;"/><polygon fill="#181818" points="447.25,167.14,440.9713,159.552,442.7727,164.9144,437.4103,166.7157,447.25,167.14" style="stroke:#181818;stroke-width:1;"/><text fill="#000000" font-family="sans-serif" font-size="13" lengthAdjust="spacing" textLength="63.0068" x="238.83" y="124.8569">&#171;include&#187;</text></g><!--link UC_WriteReview to UC_OrderDelivered--><g class="link" data-entity-1="UC_WriteReview" data-entity-2="UC_OrderDelivered" data-source-line="17" data-uid="lnk16" id="link_UC_WriteReview_UC_OrderDelivered"><path d="M305.44,182.83 C336,182.83 366.53,182.83 397.96,182.83" fill="none" id="UC_WriteReview-to-UC_OrderDelivered" style="stroke:#181818;stroke-width:1;stroke-dasharray:7,7;"/><polygon fill="#181818" points="403.96,182.83,394.96,178.83,398.96,182.83,394.96,186.83,403.96,182.83" style="stroke:#181818;stroke-width:1;"/><text fill="#000000" font-family="sans-serif" font-size="13" lengthAdjust="spacing" textLength="63.0068" x="323.08" y="175.8969">&#171;include&#187;</text></g><!--link Admin to UC_ModerateReview--><g class="link" data-entity-1="Admin" data-entity-2="UC_ModerateReview" data-source-line="19" data-uid="lnk17" id="link_Admin_UC_ModerateReview"><path d="M1216.49,70.93 C1271.46,99.18 1356.97,143.12 1402.09,166.3" fill="none" id="Admin-UC_ModerateReview" style="stroke:#181818;stroke-width:1;"/></g><!--link Admin to UC_ApproveReject--><g class="link" data-entity-1="Admin" data-entity-2="UC_ApproveReject" data-source-line="20" data-uid="lnk18" id="link_Admin_UC_ApproveReject"><path d="M1114.19,72.23 C1094.1,83.71 1071.15,97.65 1051.33,111.79 C1027.24,128.97 1001.65,151.62 985.59,166.45" fill="none" id="Admin-UC_ApproveReject" style="stroke:#181818;stroke-width:1;"/></g><!--link Admin to UC_HandleAbuse--><g class="link" data-entity-1="Admin" data-entity-2="UC_HandleAbuse" data-source-line="21" data-uid="lnk19" id="link_Admin_UC_HandleAbuse"><path d="M1165.33,82.13 C1165.33,107.84 1165.33,140.93 1165.33,161.77" fill="none" id="Admin-UC_HandleAbuse" style="stroke:#181818;stroke-width:1;"/></g><!--link Operator to UC_ReplyReview--><g class="link" data-entity-1="Operator" data-entity-2="UC_ReplyReview" data-source-line="23" data-uid="lnk20" id="link_Operator_UC_ReplyReview"><path d="M1616.33,82.13 C1616.33,109.42 1616.33,145.05 1616.33,165.49" fill="none" id="Operator-UC_ReplyReview" style="stroke:#181818;stroke-width:1;"/></g><!--link UC_ApproveReject to UC_ModerateReview--><g class="link" data-entity-1="UC_ApproveReject" data-entity-2="UC_ModerateReview" data-source-line="25" data-uid="lnk21" id="link_UC_ApproveReject_UC_ModerateReview"><path d="M986.49,166.52 C1003.38,151.7 1030.66,130.86 1058.83,122.22 C1118.49,103.91 1289.5283,144.6401 1376.7483,167.6401" fill="none" id="UC_ApproveReject-to-UC_ModerateReview" style="stroke:#181818;stroke-width:1;stroke-dasharray:7,7;"/><polygon fill="#181818" points="1382.55,169.17,1374.8674,163.0074,1377.7153,167.8951,1372.8276,170.7429,1382.55,169.17" style="stroke:#181818;stroke-width:1;"/><text fill="#000000" font-family="sans-serif" font-size="13" lengthAdjust="spacing" textLength="63.0068" x="1059.83" y="124.8569">&#171;include&#187;</text></g><!--link UC_HandleAbuse to UC_ModerateReview--><g class="link" data-entity-1="UC_HandleAbuse" data-entity-2="UC_ModerateReview" data-source-line="26" data-uid="lnk22" id="link_UC_HandleAbuse_UC_ModerateReview"><path d="M1256.47,182.83 C1288.8,182.83 1318.82,182.83 1349.81,182.83" fill="none" id="UC_HandleAbuse-to-UC_ModerateReview" style="stroke:#181818;stroke-width:1;stroke-dasharray:7,7;"/><polygon fill="#181818" points="1355.81,182.83,1346.81,178.83,1350.81,182.83,1346.81,186.83,1355.81,182.83" style="stroke:#181818;stroke-width:1;"/><text fill="#000000" font-family="sans-serif" font-size="13" lengthAdjust="spacing" textLength="63.0068" x="1274.7" y="175.8969">&#171;include&#187;</text></g><!--link UC_PublishRatings to UC_ApproveReject--><g class="link" data-entity-1="UC_PublishRatings" data-entity-2="UC_ApproveReject" data-source-line="27" data-uid="lnk23" id="link_UC_PublishRatings_UC_ApproveReject"><path d="M800,182.83 C833.2,182.83 862.83,182.83 892.79,182.83" fill="none" id="UC_PublishRatings-to-UC_ApproveReject" style="stroke:#181818;stroke-width:1;stroke-dasharray:7,7;"/><polygon fill="#181818" points="898.79,182.83,889.79,178.83,893.79,182.83,889.79,186.83,898.79,182.83" style="stroke:#181818;stroke-width:1;"/><text fill="#000000" font-family="sans-serif" font-size="13" lengthAdjust="spacing" textLength="63.0068" x="817.74" y="175.8969">&#171;include&#187;</text></g><!--link UC_PublishRatings to UC_HandleAbuse--><g class="link" data-entity-1="UC_PublishRatings" data-entity-2="UC_HandleAbuse" data-source-line="28" data-uid="lnk24" id="link_UC_PublishRatings_UC_HandleAbuse"><path d="M741.75,161.22 C777.79,146.98 827.85,129.65 873.83,122.22 C963.38,107.73 1061.5745,139.3584 1117.9845,162.0784" fill="none" id="UC_PublishRatings-to-UC_HandleAbuse" style="stroke:#181818;stroke-width:1;stroke-dasharray:7,7;"/><polygon fill="#181818" points="1123.55,164.32,1116.6961,157.2472,1118.9121,162.452,1113.7073,164.6679,1123.55,164.32" style="stroke:#181818;stroke-width:1;"/><text fill="#000000" font-family="sans-serif" font-size="13" lengthAdjust="spacing" textLength="63.0068" x="874.83" y="124.8569">&#171;include&#187;</text></g><!--SRC=[ZPAxRiCm34LtVGMHFSrU10QCTEXIf71HT2naYt1Ls9QXXulyVHKzR4bUiacNvv8KATff8U7GOC-LHeaCBaPfCQ8y05NhXL3FVTmiDPvgDlB90UuKemqgJOsaauRhZ99QqK7nGeXHs565Df5fHwwXePfFlOC-BzzUzDg6Vack4HfSEFv5qcbUsi0tmUvrIZRA9LxFinGBdXhynKv7EgXUtE1NEh41eMwjOlFFGceLBJxcGfl1CiCDj2YQSNBPoRjf1wv-eEvxYRrjbON1h2K24TJDUPNsRV220r_koukuarULaBX6E1vtSovYwMGB59wgVN9uXlEPJzrW65OLoJCyuY3k2uNgnQxIKBwOD9BEdyI_5cBfl4cP9RIN5zq_ACd_e2DVLp3bfH_pfALpnpy0]--></g></svg>