<svg xmlns="http://www.w3.org/2000/svg" xmlns:xlink="http://www.w3.org/1999/xlink" contentStyleType="text/css" data-diagram-type="CLASS" height="572px" preserveAspectRatio="none" style="width:487px;height:572px;background:#FFFFFF;" version="1.1" viewBox="0 0 487 572" width="487px" zoomAndPan="magnify"><defs/><g><!--class UserRecord--><g class="entity" data-entity="UserRecord" data-source-line="1" data-uid="ent0002" id="entity_UserRecord"><rect fill="#F1F1F1" height="113.1875" rx="2.5" ry="2.5" style="stroke:#181818;stroke-width:0.5;" width="136.3867" x="244.4" y="7"/><ellipse cx="269.8537" cy="23" fill="#ADD1B2" rx="11" ry="11" style="stroke:#181818;stroke-width:1;"/><path d="M272.8225,28.6406 Q272.2443,28.9375 271.6037,29.0781 Q270.9631,29.2344 270.26,29.2344 Q267.76,29.2344 266.4318,27.5938 Q265.1193,25.9375 265.1193,22.8125 Q265.1193,19.6875 266.4318,18.0313 Q267.76,16.375 270.26,16.375 Q270.9631,16.375 271.6037,16.5313 Q272.26,16.6875 272.8225,16.9844 L272.8225,19.7031 Q272.1975,19.125 271.6037,18.8594 Q271.01,18.5781 270.385,18.5781 Q269.0412,18.5781 268.3537,19.6563 Q267.6662,20.7188 267.6662,22.8125 Q267.6662,24.9063 268.3537,25.9844 Q269.0412,27.0469 270.385,27.0469 Q271.01,27.0469 271.6037,26.7813 Q272.1975,26.5 272.8225,25.9219 L272.8225,28.6406 Z " fill="#000000"/><text fill="#000000" font-family="sans-serif" font-size="14" lengthAdjust="spacing" textLength="81.1563" x="286.1768" y="27.8467">UserRecord</text><line style="stroke:#181818;stroke-width:0.5;" x1="245.4" x2="379.7867" y1="39" y2="39"/><ellipse cx="255.4" cy="52.6484" fill="none" rx="3" ry="3" style="stroke:#038048;stroke-width:1;"/><text fill="#000000" font-family="sans-serif" font-size="14" lengthAdjust="spacing" textLength="110.3867" x="264.4" y="55.9951">String RecordID</text><ellipse cx="255.4" cy="68.9453" fill="none" rx="3" ry="3" style="stroke:#038048;stroke-width:1;"/><text fill="#000000" font-family="sans-serif" font-size="14" lengthAdjust="spacing" textLength="93.0508" x="264.4" y="72.292">String UserID</text><ellipse cx="255.4" cy="85.2422" fill="none" rx="3" ry="3" style="stroke:#038048;stroke-width:1;"/><text fill="#000000" font-family="sans-serif" font-size="14" lengthAdjust="spacing" textLength="79.6592" x="264.4" y="88.5889">String Data</text><line style="stroke:#181818;stroke-width:0.5;" x1="245.4" x2="379.7867" y1="95.8906" y2="95.8906"/><ellipse cx="255.4" cy="109.5391" fill="#84BE84" rx="3" ry="3" style="stroke:#038048;stroke-width:1;"/><text fill="#000000" font-family="sans-serif" font-size="14" lengthAdjust="spacing" textLength="92.9414" x="264.4" y="112.8857">saveRecord()</text></g><!--class AccessLog--><g class="entity" data-entity="AccessLog" data-source-line="8" data-uid="ent0003" id="entity_AccessLog"><rect fill="#F1F1F1" height="145.7813" rx="2.5" ry="2.5" style="stroke:#181818;stroke-width:0.5;" width="177.1836" x="7" y="197.19"/><ellipse cx="54.6294" cy="213.19" fill="#ADD1B2" rx="11" ry="11" style="stroke:#181818;stroke-width:1;"/><path d="M57.5981,218.8306 Q57.02,219.1275 56.3794,219.2681 Q55.7388,219.4244 55.0356,219.4244 Q52.5356,219.4244 51.2075,217.7838 Q49.895,216.1275 49.895,213.0025 Q49.895,209.8775 51.2075,208.2213 Q52.5356,206.565 55.0356,206.565 Q55.7388,206.565 56.3794,206.7213 Q57.0356,206.8775 57.5981,207.1744 L57.5981,209.8931 Q56.9731,209.315 56.3794,209.0494 Q55.7856,208.7681 55.1606,208.7681 Q53.8169,208.7681 53.1294,209.8463 Q52.4419,210.9088 52.4419,213.0025 Q52.4419,215.0963 53.1294,216.1744 Q53.8169,217.2369 55.1606,217.2369 Q55.7856,217.2369 56.3794,216.9713 Q56.9731,216.69 57.5981,216.1119 L57.5981,218.8306 Z " fill="#000000"/><text fill="#000000" font-family="sans-serif" font-size="14" lengthAdjust="spacing" textLength="73.4248" x="75.1294" y="218.0367">AccessLog</text><line style="stroke:#181818;stroke-width:0.5;" x1="8" x2="183.1836" y1="229.19" y2="229.19"/><ellipse cx="18" cy="242.8384" fill="none" rx="3" ry="3" style="stroke:#038048;stroke-width:1;"/><text fill="#000000" font-family="sans-serif" font-size="14" lengthAdjust="spacing" textLength="86.3926" x="27" y="246.1851">String LogID</text><ellipse cx="18" cy="259.1353" fill="none" rx="3" ry="3" style="stroke:#038048;stroke-width:1;"/><text fill="#000000" font-family="sans-serif" font-size="14" lengthAdjust="spacing" textLength="110.3867" x="27" y="262.482">String RecordID</text><ellipse cx="18" cy="275.4322" fill="none" rx="3" ry="3" style="stroke:#038048;stroke-width:1;"/><text fill="#000000" font-family="sans-serif" font-size="14" lengthAdjust="spacing" textLength="93.0508" x="27" y="278.7789">String UserID</text><ellipse cx="18" cy="291.7291" fill="none" rx="3" ry="3" style="stroke:#038048;stroke-width:1;"/><text fill="#000000" font-family="sans-serif" font-size="14" lengthAdjust="spacing" textLength="124.6602" x="27" y="295.0757">String ActionType</text><ellipse cx="18" cy="308.0259" fill="none" rx="3" ry="3" style="stroke:#038048;stroke-width:1;"/><text fill="#000000" font-family="sans-serif" font-size="14" lengthAdjust="spacing" textLength="151.1836" x="27" y="311.3726">DateTime Timestamp</text><line style="stroke:#181818;stroke-width:0.5;" x1="8" x2="183.1836" y1="318.6744" y2="318.6744"/><ellipse cx="18" cy="332.3228" fill="#84BE84" rx="3" ry="3" style="stroke:#038048;stroke-width:1;"/><text fill="#000000" font-family="sans-serif" font-size="14" lengthAdjust="spacing" textLength="80.4385" x="27" y="335.6695">logAccess()</text></g><!--class ChangeHistory--><g class="entity" data-entity="ChangeHistory" data-source-line="17" data-uid="ent0004" id="entity_ChangeHistory"><rect fill="#F1F1F1" height="145.7813" rx="2.5" ry="2.5" style="stroke:#181818;stroke-width:0.5;" width="186.8975" x="219.14" y="197.19"/><ellipse cx="257.3106" cy="213.19" fill="#ADD1B2" rx="11" ry="11" style="stroke:#181818;stroke-width:1;"/><path d="M260.2794,218.8306 Q259.7012,219.1275 259.0606,219.2681 Q258.42,219.4244 257.7169,219.4244 Q255.2169,219.4244 253.8887,217.7838 Q252.5762,216.1275 252.5762,213.0025 Q252.5762,209.8775 253.8887,208.2213 Q255.2169,206.565 257.7169,206.565 Q258.42,206.565 259.0606,206.7213 Q259.7169,206.8775 260.2794,207.1744 L260.2794,209.8931 Q259.6544,209.315 259.0606,209.0494 Q258.4669,208.7681 257.8419,208.7681 Q256.4981,208.7681 255.8106,209.8463 Q255.1231,210.9088 255.1231,213.0025 Q255.1231,215.0963 255.8106,216.1744 Q256.4981,217.2369 257.8419,217.2369 Q258.4669,217.2369 259.0606,216.9713 Q259.6544,216.69 260.2794,216.1119 L260.2794,218.8306 Z " fill="#000000"/><text fill="#000000" font-family="sans-serif" font-size="14" lengthAdjust="spacing" textLength="103.4072" x="276.4596" y="218.0367">ChangeHistory</text><line style="stroke:#181818;stroke-width:0.5;" x1="220.14" x2="405.0375" y1="229.19" y2="229.19"/><ellipse cx="230.14" cy="242.8384" fill="none" rx="3" ry="3" style="stroke:#038048;stroke-width:1;"/><text fill="#000000" font-family="sans-serif" font-size="14" lengthAdjust="spacing" textLength="114.7412" x="239.14" y="246.1851">String ChangeID</text><ellipse cx="230.14" cy="259.1353" fill="none" rx="3" ry="3" style="stroke:#038048;stroke-width:1;"/><text fill="#000000" font-family="sans-serif" font-size="14" lengthAdjust="spacing" textLength="110.3867" x="239.14" y="262.482">String RecordID</text><ellipse cx="230.14" cy="275.4322" fill="none" rx="3" ry="3" style="stroke:#038048;stroke-width:1;"/><text fill="#000000" font-family="sans-serif" font-size="14" lengthAdjust="spacing" textLength="93.0508" x="239.14" y="278.7789">String UserID</text><ellipse cx="230.14" cy="291.7291" fill="none" rx="3" ry="3" style="stroke:#038048;stroke-width:1;"/><text fill="#000000" font-family="sans-serif" font-size="14" lengthAdjust="spacing" textLength="134.1689" x="239.14" y="295.0757">String ChangeType</text><ellipse cx="230.14" cy="308.0259" fill="none" rx="3" ry="3" style="stroke:#038048;stroke-width:1;"/><text fill="#000000" font-family="sans-serif" font-size="14" lengthAdjust="spacing" textLength="160.8975" x="239.14" y="311.3726">DateTime ChangeTime</text><line style="stroke:#181818;stroke-width:0.5;" x1="220.14" x2="405.0375" y1="318.6744" y2="318.6744"/><ellipse cx="230.14" cy="332.3228" fill="#84BE84" rx="3" ry="3" style="stroke:#038048;stroke-width:1;"/><text fill="#000000" font-family="sans-serif" font-size="14" lengthAdjust="spacing" textLength="85.8662" x="239.14" y="335.6695">logChange()</text></g><!--class AuditTrail--><g class="entity" data-entity="AuditTrail" data-source-line="26" data-uid="ent0005" id="entity_AuditTrail"><rect fill="#F1F1F1" height="145.7813" rx="2.5" ry="2.5" style="stroke:#181818;stroke-width:0.5;" width="170.0127" x="227.59" y="419.97"/><ellipse cx="274.6554" cy="435.97" fill="#ADD1B2" rx="11" ry="11" style="stroke:#181818;stroke-width:1;"/><path d="M277.6242,441.6106 Q277.0461,441.9075 276.4054,442.0481 Q275.7648,442.2044 275.0617,442.2044 Q272.5617,442.2044 271.2336,440.5638 Q269.9211,438.9075 269.9211,435.7825 Q269.9211,432.6575 271.2336,431.0013 Q272.5617,429.345 275.0617,429.345 Q275.7648,429.345 276.4054,429.5013 Q277.0617,429.6575 277.6242,429.9544 L277.6242,432.6731 Q276.9992,432.095 276.4054,431.8294 Q275.8117,431.5481 275.1867,431.5481 Q273.8429,431.5481 273.1554,432.6263 Q272.4679,433.6888 272.4679,435.7825 Q272.4679,437.8763 273.1554,438.9544 Q273.8429,440.0169 275.1867,440.0169 Q275.8117,440.0169 276.4054,439.7513 Q276.9992,439.47 277.6242,438.8919 L277.6242,441.6106 Z " fill="#000000"/><text fill="#000000" font-family="sans-serif" font-size="14" lengthAdjust="spacing" textLength="67.3818" x="295.1554" y="440.8167">AuditTrail</text><line style="stroke:#181818;stroke-width:0.5;" x1="228.59" x2="396.6027" y1="451.97" y2="451.97"/><ellipse cx="238.59" cy="465.6184" fill="none" rx="3" ry="3" style="stroke:#038048;stroke-width:1;"/><text fill="#000000" font-family="sans-serif" font-size="14" lengthAdjust="spacing" textLength="97.8564" x="247.59" y="468.9651">String AuditID</text><ellipse cx="238.59" cy="481.9153" fill="none" rx="3" ry="3" style="stroke:#038048;stroke-width:1;"/><text fill="#000000" font-family="sans-serif" font-size="14" lengthAdjust="spacing" textLength="110.3867" x="247.59" y="485.262">String RecordID</text><ellipse cx="238.59" cy="498.2122" fill="none" rx="3" ry="3" style="stroke:#038048;stroke-width:1;"/><text fill="#000000" font-family="sans-serif" font-size="14" lengthAdjust="spacing" textLength="93.0508" x="247.59" y="501.5589">String UserID</text><ellipse cx="238.59" cy="514.5091" fill="none" rx="3" ry="3" style="stroke:#038048;stroke-width:1;"/><text fill="#000000" font-family="sans-serif" font-size="14" lengthAdjust="spacing" textLength="124.6602" x="247.59" y="517.8557">String ActionType</text><ellipse cx="238.59" cy="530.8059" fill="none" rx="3" ry="3" style="stroke:#038048;stroke-width:1;"/><text fill="#000000" font-family="sans-serif" font-size="14" lengthAdjust="spacing" textLength="144.0127" x="247.59" y="534.1526">DateTime AuditTime</text><line style="stroke:#181818;stroke-width:0.5;" x1="228.59" x2="396.6027" y1="541.4544" y2="541.4544"/><ellipse cx="238.59" cy="555.1028" fill="#84BE84" rx="3" ry="3" style="stroke:#038048;stroke-width:1;"/><text fill="#000000" font-family="sans-serif" font-size="14" lengthAdjust="spacing" textLength="90.7334" x="247.59" y="558.4495">auditAction()</text></g><!--link UserRecord to AccessLog--><g class="link" data-entity-1="UserRecord" data-entity-2="AccessLog" data-source-line="35" data-uid="lnk6" id="link_UserRecord_AccessLog"><path codeLine="35" d="M253.3,120.47 C228.32,144 198.94,171.69 172.35,196.75" fill="none" id="UserRecord-AccessLog" style="stroke:#181818;stroke-width:1;"/><text fill="#000000" font-family="sans-serif" font-size="13" lengthAdjust="spacing" textLength="26.5903" x="218.08" y="163.2569">logs</text><text fill="#000000" font-family="sans-serif" font-size="13" lengthAdjust="spacing" textLength="8.271" x="237.6026" y="140.3908">1</text><text fill="#000000" font-family="sans-serif" font-size="13" lengthAdjust="spacing" textLength="23.0356" x="155.5716" y="186.1191">0..*</text></g><!--link UserRecord to ChangeHistory--><g class="link" data-entity-1="UserRecord" data-entity-2="ChangeHistory" data-source-line="36" data-uid="lnk7" id="link_UserRecord_ChangeHistory"><path codeLine="36" d="M312.59,120.47 C312.59,144 312.59,171.69 312.59,196.75" fill="none" id="UserRecord-ChangeHistory" style="stroke:#181818;stroke-width:1;"/><text fill="#000000" font-family="sans-serif" font-size="13" lengthAdjust="spacing" textLength="54.6152" x="313.59" y="163.2569">changes</text><text fill="#000000" font-family="sans-serif" font-size="13" lengthAdjust="spacing" textLength="8.271" x="304.1186" y="140.3908">1</text><text fill="#000000" font-family="sans-serif" font-size="13" lengthAdjust="spacing" textLength="23.0356" x="288.4957" y="186.1191">0..*</text></g><!--link UserRecord to AuditTrail--><g class="link" data-entity-1="UserRecord" data-entity-2="AuditTrail" data-source-line="37" data-uid="lnk8" id="link_UserRecord_AuditTrail"><path codeLine="37" d="M374.3,120.54 C393.97,142.3 413.29,168.83 423.59,197.19 C445.72,258.08 442.67,281.05 423.59,342.97 C415.1,370.55 398.97,397.04 381.59,419.84" fill="none" id="UserRecord-AuditTrail" style="stroke:#181818;stroke-width:1;"/><text fill="#000000" font-family="sans-serif" font-size="13" lengthAdjust="spacing" textLength="39.9395" x="440.06" y="274.6469">audits</text><text fill="#000000" font-family="sans-serif" font-size="13" lengthAdjust="spacing" textLength="8.271" x="372.988" y="140.0662">1</text><text fill="#000000" font-family="sans-serif" font-size="13" lengthAdjust="spacing" textLength="23.0356" x="364.2513" y="408.9872">0..*</text></g><!--link AccessLog to AuditTrail--><g class="link" data-entity-1="AccessLog" data-entity-2="AuditTrail" data-source-line="39" data-uid="lnk9" id="link_AccessLog_AuditTrail"><path codeLine="39" d="M166.65,343.37 C190.75,367.89 217.66,395.28 241.75,419.78" fill="none" id="AccessLog-AuditTrail" style="stroke:#181818;stroke-width:1;"/><text fill="#000000" font-family="sans-serif" font-size="13" lengthAdjust="spacing" textLength="69.4941" x="211.6" y="386.0369">audited by</text><text fill="#000000" font-family="sans-serif" font-size="13" lengthAdjust="spacing" textLength="23.0356" x="149.3283" y="363.1435">0..*</text><text fill="#000000" font-family="sans-serif" font-size="13" lengthAdjust="spacing" textLength="8.271" x="226.3957" y="408.9213">1</text></g><!--link ChangeHistory to AuditTrail--><g class="link" data-entity-1="ChangeHistory" data-entity-2="AuditTrail" data-source-line="40" data-uid="lnk10" id="link_ChangeHistory_AuditTrail"><path codeLine="40" d="M312.59,343.37 C312.59,367.89 312.59,395.28 312.59,419.78" fill="none" id="ChangeHistory-AuditTrail" style="stroke:#181818;stroke-width:1;"/><text fill="#000000" font-family="sans-serif" font-size="13" lengthAdjust="spacing" textLength="69.4941" x="313.59" y="386.0369">audited by</text><text fill="#000000" font-family="sans-serif" font-size="13" lengthAdjust="spacing" textLength="23.0356" x="288.4957" y="363.1435">0..*</text><text fill="#000000" font-family="sans-serif" font-size="13" lengthAdjust="spacing" textLength="8.271" x="304.209" y="408.9213">1</text></g><!--SRC=[hP9D2i8m48NtESNGbJyekkrETA7WIki1OZhKGDj89Wf5lBjfHxGDAY9s4PetR_A-JAjoIGGxGhj1PMmA5m7-6MwTrMK6BAuM7R5s1z92Eia2oJDoLwylhaAe9c2c51AjJHQSxvNWf6yJPyffKoRL4Lds19Ze0g5UoCdYo7fkCWvluymFiinmgSaPMmL8NFkHYfjVKDqB_lM1nL9dIgTKkyHAdGTCJU7VW-Aq1v6ijsncfjPF4KqZ68qWcep7WwZrCMFmzw3tpkwSOr3D_aD3Qm8nD4Gan3FlxghzqrTcJ65VYMxgLpqt]--></g></svg>