<svg xmlns="http://www.w3.org/2000/svg" xmlns:xlink="http://www.w3.org/1999/xlink" contentStyleType="text/css" data-diagram-type="DESCRIPTION" height="735px" preserveAspectRatio="none" style="width:1291px;height:735px;background:#FFFFFF;" version="1.1" viewBox="0 0 1291 735" width="1291px" zoomAndPan="magnify"><defs/><g><!--cluster System Architecture--><g class="cluster" data-entity="System Architecture" data-source-line="1" data-uid="ent0002" id="cluster_System Architecture"><path d="M8.5,6 L171.04,6 A3.75,3.75 0 0 1 173.54,8.5 L180.54,28.2969 L1281.5,28.2969 A2.5,2.5 0 0 1 1284,30.7969 L1284,725.72 A2.5,2.5 0 0 1 1281.5,728.22 L8.5,728.22 A2.5,2.5 0 0 1 6,725.72 L6,8.5 A2.5,2.5 0 0 1 8.5,6" fill="none" style="stroke:#000000;stroke-width:1.5;"/><line style="stroke:#000000;stroke-width:1.5;" x1="6" x2="180.54" y1="28.2969" y2="28.2969"/><text fill="#000000" font-family="sans-serif" font-size="14" font-weight="bold" lengthAdjust="spacing" textLength="161.54" x="10" y="20.9951">System Architecture</text></g><!--cluster Reporting Framework--><g class="cluster" data-entity="Reporting Framework" data-source-line="4" data-uid="ent0006" id="cluster_Reporting Framework"><path d="M561.5,266.48 L734.4375,266.48 A3.75,3.75 0 0 1 736.9375,268.98 L743.9375,288.7769 L898.5,288.7769 A2.5,2.5 0 0 1 901,291.2769 L901,607.87 A2.5,2.5 0 0 1 898.5,610.37 L561.5,610.37 A2.5,2.5 0 0 1 559,607.87 L559,268.98 A2.5,2.5 0 0 1 561.5,266.48" fill="none" style="stroke:#000000;stroke-width:1.5;"/><line style="stroke:#000000;stroke-width:1.5;" x1="559" x2="743.9375" y1="288.7769" y2="288.7769"/><text fill="#000000" font-family="sans-serif" font-size="14" font-weight="bold" lengthAdjust="spacing" textLength="171.9375" x="563" y="281.4751">Reporting Framework</text></g><!--entity User--><g class="entity" data-entity="User" data-source-line="2" data-uid="ent0003" id="entity_User"><rect fill="#F1F1F1" height="46.2969" rx="2.5" ry="2.5" style="stroke:#181818;stroke-width:0.5;" width="71.9102" x="744.04" y="41"/><rect fill="#F1F1F1" height="10" style="stroke:#181818;stroke-width:0.5;" width="15" x="795.9502" y="46"/><rect fill="#F1F1F1" height="2" style="stroke:#181818;stroke-width:0.5;" width="4" x="793.9502" y="48"/><rect fill="#F1F1F1" height="2" style="stroke:#181818;stroke-width:0.5;" width="4" x="793.9502" y="52"/><text fill="#000000" font-family="sans-serif" font-size="14" lengthAdjust="spacing" textLength="31.9102" x="759.04" y="73.9951">User</text></g><!--entity UserRequestHandler--><g class="entity" data-entity="UserRequestHandler" data-source-line="2" data-uid="ent0004" id="entity_UserRequestHandler"><ellipse cx="780.9997" cy="183.8919" fill="#F1F1F1" rx="85.9597" ry="19.5919" style="stroke:#181818;stroke-width:0.5;"/><text fill="#000000" font-family="sans-serif" font-size="14" lengthAdjust="spacing" textLength="144.5322" x="708.7336" y="188.5404">UserRequestHandler</text></g><!--entity AnalyticalModule1--><g class="entity" data-entity="AnalyticalModule1" data-source-line="13" data-uid="ent0013" id="entity_AnalyticalModule1"><ellipse cx="995.9956" cy="447.9311" fill="#F1F1F1" rx="79.1056" ry="18.2211" style="stroke:#181818;stroke-width:0.5;"/><text fill="#000000" font-family="sans-serif" font-size="14" lengthAdjust="spacing" textLength="128.5635" x="931.7139" y="452.5796">AnalyticalModule1</text></g><!--entity AnalyticalModule2--><g class="entity" data-entity="AnalyticalModule2" data-source-line="14" data-uid="ent0015" id="entity_AnalyticalModule2"><ellipse cx="1188.9956" cy="447.9311" fill="#F1F1F1" rx="79.1056" ry="18.2211" style="stroke:#181818;stroke-width:0.5;"/><text fill="#000000" font-family="sans-serif" font-size="14" lengthAdjust="spacing" textLength="128.5635" x="1124.7139" y="452.5796">AnalyticalModule2</text></g><!--entity InternalStakeholder--><g class="entity" data-entity="InternalStakeholder" data-source-line="20" data-uid="ent0020" id="entity_InternalStakeholder"><ellipse cx="629.9996" cy="692.7959" fill="#F1F1F1" rx="83.3296" ry="19.0659" style="stroke:#181818;stroke-width:0.5;"/><text fill="#000000" font-family="sans-serif" font-size="14" lengthAdjust="spacing" textLength="138.4619" x="560.7687" y="697.4444">InternalStakeholder</text></g><!--entity ExternalStakeholder--><g class="entity" data-entity="ExternalStakeholder" data-source-line="21" data-uid="ent0022" id="entity_ExternalStakeholder"><ellipse cx="832.9955" cy="692.8031" fill="#F1F1F1" rx="85.1155" ry="19.4231" style="stroke:#181818;stroke-width:0.5;"/><text fill="#000000" font-family="sans-serif" font-size="14" lengthAdjust="spacing" textLength="142.5908" x="761.7001" y="697.4515">ExternalStakeholder</text></g><g class="entity" data-entity="GMN24" data-source-line="24" data-uid="ent0025" id="entity_GMN24"><path d="M284.78,312.07 L284.78,337.2028 A0,0 0 0 0 284.78,337.2028 L543.2141,337.2028 A0,0 0 0 0 543.2141,337.2028 L543.2141,330.07 L704.42,324.63 L543.2141,322.07 L543.2141,322.07 L533.2141,312.07 L284.78,312.07 A0,0 0 0 0 284.78,312.07" fill="#FEFFDD" style="stroke:#181818;stroke-width:0.5;"/><path d="M533.2141,312.07 L533.2141,322.07 L543.2141,322.07 L533.2141,312.07" fill="#FEFFDD" style="stroke:#181818;stroke-width:0.5;"/><text fill="#000000" font-family="sans-serif" font-size="13" lengthAdjust="spacing" textLength="237.4341" x="290.78" y="329.1369">Handles asynchronous data updates</text></g><g class="entity" data-entity="GMN27" data-source-line="28" data-uid="ent0028" id="entity_GMN27"><path d="M283.01,435.36 L283.01,460.4928 A0,0 0 0 0 283.01,460.4928 L542.9866,460.4928 A0,0 0 0 0 542.9866,460.4928 L542.9866,453.36 L619.7,447.93 L542.9866,445.36 L542.9866,445.36 L532.9866,435.36 L283.01,435.36 A0,0 0 0 0 283.01,435.36" fill="#FEFFDD" style="stroke:#181818;stroke-width:0.5;"/><path d="M532.9866,435.36 L532.9866,445.36 L542.9866,445.36 L532.9866,435.36" fill="#FEFFDD" style="stroke:#181818;stroke-width:0.5;"/><text fill="#000000" font-family="sans-serif" font-size="13" lengthAdjust="spacing" textLength="238.9766" x="289.01" y="452.4269">Processes data for report generation</text></g><g class="entity" data-entity="GMN30" data-source-line="32" data-uid="ent0031" id="entity_GMN30"><path d="M21.78,558.66 L21.78,583.7928 L246.2287,583.7928 L246.2287,568.66 L236.2287,558.66 L21.78,558.66" fill="#FEFFDD" style="stroke:#181818;stroke-width:0.5;"/><path d="M236.2287,558.66 L236.2287,568.66 L246.2287,568.66 L236.2287,558.66" fill="#FEFFDD" style="stroke:#181818;stroke-width:1;"/><text fill="#000000" font-family="sans-serif" font-size="13" lengthAdjust="spacing" textLength="203.4487" x="27.78" y="575.7269">Converts reports to PDF format</text></g><g class="entity" data-entity="GMN33" data-source-line="36" data-uid="ent0034" id="entity_GMN33"><path d="M281.35,558.66 L281.35,583.7928 L542.6596,583.7928 L542.6596,568.66 L532.6596,558.66 L281.35,558.66" fill="#FEFFDD" style="stroke:#181818;stroke-width:0.5;"/><path d="M532.6596,558.66 L532.6596,568.66 L542.6596,568.66 L532.6596,558.66" fill="#FEFFDD" style="stroke:#181818;stroke-width:1;"/><text fill="#000000" font-family="sans-serif" font-size="13" lengthAdjust="spacing" textLength="240.3096" x="287.35" y="575.7269">Converts reports for web distribution</text></g><!--entity ReportGenerator--><g class="entity" data-entity="ReportGenerator" data-source-line="5" data-uid="ent0007" id="entity_ReportGenerator"><rect fill="#F1F1F1" height="46.2969" rx="2.5" ry="2.5" style="stroke:#181818;stroke-width:0.5;" width="158.1318" x="619.93" y="424.78"/><rect fill="#F1F1F1" height="10" style="stroke:#181818;stroke-width:0.5;" width="15" x="758.0618" y="429.78"/><rect fill="#F1F1F1" height="2" style="stroke:#181818;stroke-width:0.5;" width="4" x="756.0618" y="431.78"/><rect fill="#F1F1F1" height="2" style="stroke:#181818;stroke-width:0.5;" width="4" x="756.0618" y="435.78"/><text fill="#000000" font-family="sans-serif" font-size="14" lengthAdjust="spacing" textLength="118.1318" x="634.93" y="457.7751">ReportGenerator</text></g><!--entity DataAggregator--><g class="entity" data-entity="DataAggregator" data-source-line="6" data-uid="ent0008" id="entity_DataAggregator"><rect fill="#F1F1F1" height="46.2969" rx="2.5" ry="2.5" style="stroke:#181818;stroke-width:0.5;" width="152.4238" x="704.79" y="301.48"/><rect fill="#F1F1F1" height="10" style="stroke:#181818;stroke-width:0.5;" width="15" x="837.2138" y="306.48"/><rect fill="#F1F1F1" height="2" style="stroke:#181818;stroke-width:0.5;" width="4" x="835.2138" y="308.48"/><rect fill="#F1F1F1" height="2" style="stroke:#181818;stroke-width:0.5;" width="4" x="835.2138" y="312.48"/><text fill="#000000" font-family="sans-serif" font-size="14" lengthAdjust="spacing" textLength="112.4238" x="719.79" y="334.4751">DataAggregator</text></g><!--entity PDFExporter--><g class="entity" data-entity="PDFExporter" data-source-line="7" data-uid="ent0009" id="entity_PDFExporter"><rect fill="#F1F1F1" height="46.2969" rx="2.5" ry="2.5" style="stroke:#181818;stroke-width:0.5;" width="127.4727" x="577.26" y="548.08"/><rect fill="#F1F1F1" height="10" style="stroke:#181818;stroke-width:0.5;" width="15" x="684.7327" y="553.08"/><rect fill="#F1F1F1" height="2" style="stroke:#181818;stroke-width:0.5;" width="4" x="682.7327" y="555.08"/><rect fill="#F1F1F1" height="2" style="stroke:#181818;stroke-width:0.5;" width="4" x="682.7327" y="559.08"/><text fill="#000000" font-family="sans-serif" font-size="14" lengthAdjust="spacing" textLength="87.4727" x="592.26" y="581.0751">PDFExporter</text></g><!--entity WebOutput--><g class="entity" data-entity="WebOutput" data-source-line="8" data-uid="ent0010" id="entity_WebOutput"><rect fill="#F1F1F1" height="46.2969" rx="2.5" ry="2.5" style="stroke:#181818;stroke-width:0.5;" width="119.9736" x="740.01" y="548.08"/><rect fill="#F1F1F1" height="10" style="stroke:#181818;stroke-width:0.5;" width="15" x="839.9836" y="553.08"/><rect fill="#F1F1F1" height="2" style="stroke:#181818;stroke-width:0.5;" width="4" x="837.9836" y="555.08"/><rect fill="#F1F1F1" height="2" style="stroke:#181818;stroke-width:0.5;" width="4" x="837.9836" y="559.08"/><text fill="#000000" font-family="sans-serif" font-size="14" lengthAdjust="spacing" textLength="79.9736" x="755.01" y="581.0751">WebOutput</text></g><!--link User to UserRequestHandler--><g class="link" data-entity-1="User" data-entity-2="UserRequestHandler" data-source-line="2" data-uid="lnk5" id="link_User_UserRequestHandler"><path d="M770.73,87.77 C766.32,101.22 762.49,118.65 765,134.3 C766.63,144.47 768.0048,149.7666 771.2748,158.6866" fill="none" id="User-to-UserRequestHandler" style="stroke:#181818;stroke-width:1;"/><polygon fill="#181818" points="773.34,164.32,773.9979,154.4931,771.619,159.6255,766.4867,157.2467,773.34,164.32" style="stroke:#181818;stroke-width:1;"/></g><!--link User to UserRequestHandler--><g class="link" data-entity-1="User" data-entity-2="UserRequestHandler" data-source-line="11" data-uid="lnk11" id="link_User_UserRequestHandler"><path d="M780.19,87.57 C780.38,109.73 780.6081,137.2302 780.7881,158.0502" fill="none" id="User-to-UserRequestHandler-1" style="stroke:#181818;stroke-width:1;"/><polygon fill="#181818" points="780.84,164.05,784.762,155.0158,780.7968,159.0502,776.7623,155.0849,780.84,164.05" style="stroke:#181818;stroke-width:1;"/><text fill="#000000" font-family="sans-serif" font-size="13" lengthAdjust="spacing" textLength="101.2007" x="781.56" y="130.3669">Request Report</text></g><!--link UserRequestHandler to DataAggregator--><g class="link" data-entity-1="UserRequestHandler" data-entity-2="DataAggregator" data-source-line="12" data-uid="lnk12" id="link_UserRequestHandler_DataAggregator"><path d="M781,203.89 C781,229.27 781,268.17 781,295.19" fill="none" id="UserRequestHandler-to-DataAggregator" style="stroke:#181818;stroke-width:1;"/><polygon fill="#181818" points="781,301.19,785,292.19,781,296.19,777,292.19,781,301.19" style="stroke:#181818;stroke-width:1;"/><text fill="#000000" font-family="sans-serif" font-size="13" lengthAdjust="spacing" textLength="80.4883" x="782" y="246.5469">Collate Data</text></g><!--link DataAggregator to AnalyticalModule1--><g class="link" data-entity-1="DataAggregator" data-entity-2="AnalyticalModule1" data-source-line="13" data-uid="lnk14" id="link_DataAggregator_AnalyticalModule1"><path d="M820.94,348.16 C863.32,372.07 924.0341,406.3322 961.7241,427.5922" fill="none" id="DataAggregator-to-AnalyticalModule1" style="stroke:#181818;stroke-width:1;"/><polygon fill="#181818" points="966.95,430.54,961.0763,422.6343,962.5951,428.0835,957.1459,429.6022,966.95,430.54" style="stroke:#181818;stroke-width:1;"/><text fill="#000000" font-family="sans-serif" font-size="13" lengthAdjust="spacing" textLength="71.1318" x="902.37" y="390.8469">Fetch Data</text></g><!--link DataAggregator to AnalyticalModule2--><g class="link" data-entity-1="DataAggregator" data-entity-2="AnalyticalModule2" data-source-line="14" data-uid="lnk16" id="link_DataAggregator_AnalyticalModule2"><path d="M857.7,344.22 C895.32,353.67 941.21,365.69 982,377.78 C1039.76,394.9 1099.9587,415.4427 1141.5787,430.0527" fill="none" id="DataAggregator-to-AnalyticalModule2" style="stroke:#181818;stroke-width:1;"/><polygon fill="#181818" points="1147.24,432.04,1140.0729,425.2848,1142.5222,430.3839,1137.4231,432.8332,1147.24,432.04" style="stroke:#181818;stroke-width:1;"/><text fill="#000000" font-family="sans-serif" font-size="13" lengthAdjust="spacing" textLength="71.1318" x="1034.47" y="390.8469">Fetch Data</text></g><!--link DataAggregator to ReportGenerator--><g class="link" data-entity-1="DataAggregator" data-entity-2="ReportGenerator" data-source-line="15" data-uid="lnk17" id="link_DataAggregator_ReportGenerator"><path d="M704.31,348.04 C669.89,358.86 635.85,370.95 631,377.78 C618.9,394.8 629.4765,408.2386 648.7565,420.9986" fill="none" id="DataAggregator-to-ReportGenerator" style="stroke:#181818;stroke-width:1;"/><polygon fill="#181818" points="653.76,424.31,648.4624,416.0072,649.5905,421.5505,644.0472,422.6785,653.76,424.31" style="stroke:#181818;stroke-width:1;"/><text fill="#000000" font-family="sans-serif" font-size="13" lengthAdjust="spacing" textLength="103.2256" x="632" y="390.8469">Aggregate Data</text></g><!--link ReportGenerator to PDFExporter--><g class="link" data-entity-1="ReportGenerator" data-entity-2="PDFExporter" data-source-line="17" data-uid="lnk18" id="link_ReportGenerator_PDFExporter"><path d="M637.87,471.56 C625.57,479.03 614.21,488.7 607,501.08 C598.18,516.22 603.5385,529.2875 614.5385,543.0175" fill="none" id="ReportGenerator-to-PDFExporter" style="stroke:#181818;stroke-width:1;"/><polygon fill="#181818" points="618.29,547.7,615.7845,538.1752,615.1638,543.7979,609.5411,543.1772,618.29,547.7" style="stroke:#181818;stroke-width:1;"/><text fill="#000000" font-family="sans-serif" font-size="13" lengthAdjust="spacing" textLength="90.1748" x="608" y="514.1469">Generate PDF</text></g><!--link ReportGenerator to WebOutput--><g class="link" data-entity-1="ReportGenerator" data-entity-2="WebOutput" data-source-line="18" data-uid="lnk19" id="link_ReportGenerator_WebOutput"><path d="M717.76,471.46 C735.9,493.25 759.3908,521.4591 777.5008,543.2091" fill="none" id="ReportGenerator-to-WebOutput" style="stroke:#181818;stroke-width:1;"/><polygon fill="#181818" points="781.34,547.82,778.6551,538.3442,778.1406,543.9776,772.5072,543.4631,781.34,547.82" style="stroke:#181818;stroke-width:1;"/><text fill="#000000" font-family="sans-serif" font-size="13" lengthAdjust="spacing" textLength="141.7622" x="756.55" y="514.1469">Generate Web Report</text></g><!--link PDFExporter to InternalStakeholder--><g class="link" data-entity-1="PDFExporter" data-entity-2="InternalStakeholder" data-source-line="20" data-uid="lnk21" id="link_PDFExporter_InternalStakeholder"><path d="M638.93,594.72 C636.84,617.45 634.2001,646.1753 632.2501,667.3553" fill="none" id="PDFExporter-to-InternalStakeholder" style="stroke:#181818;stroke-width:1;"/><polygon fill="#181818" points="631.7,673.33,636.5083,664.7346,632.1584,668.3511,628.542,664.0012,631.7,673.33" style="stroke:#181818;stroke-width:1;"/><text fill="#000000" font-family="sans-serif" font-size="13" lengthAdjust="spacing" textLength="62.2007" x="636.83" y="639.4369">Send PDF</text></g><!--link WebOutput to ExternalStakeholder--><g class="link" data-entity-1="WebOutput" data-entity-2="ExternalStakeholder" data-source-line="21" data-uid="lnk23" id="link_WebOutput_ExternalStakeholder"><path d="M806.21,594.72 C812.44,617.31 820.3422,645.9567 826.2022,667.1667" fill="none" id="WebOutput-to-ExternalStakeholder" style="stroke:#181818;stroke-width:1;"/><polygon fill="#181818" points="827.8,672.95,829.2588,663.2098,826.4685,668.1306,821.5477,665.3402,827.8,672.95" style="stroke:#181818;stroke-width:1;"/><text fill="#000000" font-family="sans-serif" font-size="13" lengthAdjust="spacing" textLength="130.7935" x="820.46" y="639.4369">Provide Web Access</text></g><!--link PDFExporter to GMN30--><g class="link" data-entity-1="PDFExporter" data-entity-2="GMN30" data-source-line="32" data-uid="lnk32" id="link_PDFExporter_GMN30"><path d="M617.15,547.7 C601.17,533.65 578.84,517.11 555.5,509.58 C439.61,472.15 400.9,485.63 281.5,509.58 C235.24,518.86 185.37,543 157.09,558.17" fill="none" id="PDFExporter-GMN30" style="stroke:#181818;stroke-width:1;stroke-dasharray:7,7;"/></g><!--link WebOutput to GMN33--><g class="link" data-entity-1="WebOutput" data-entity-2="GMN33" data-source-line="36" data-uid="lnk35" id="link_WebOutput_GMN33"><path d="M772.89,547.66 C754.84,533.59 729.87,517.05 704.5,509.58 C606.43,480.67 486.09,532.76 435.82,558.31" fill="none" id="WebOutput-GMN33" style="stroke:#181818;stroke-width:1;stroke-dasharray:7,7;"/></g><!--SRC=[bLCxJyCm4Dxv5LOd63h0o80KjHGO45Khn80ONEUQM4tiSBxq8TJ_Ziz9QL8IKJ8ublszxcmNKgra0c8mtpc2N4IeKasWg4GOYAyBuR_tLmVu8OR3Et79qnbybk3eKPeu0xmAc30K1x4P51P9cqHCKEQmiRWwYF6dR5vO0uP41Nm00oZ9OWTYB4b6IOAGz02cuydzbbMWQ_SD5Yyb5IM5lVqnwnz5YLkk8YpL8GU1rebbaNPEfezibac2i5EHJp31Ep8osv5MCdksSPd1TR2U0AdqdyoRSvadJMVM0T5C6uPJBFCR7MTklGcyFkWb_Hn4Y-9NM-qDGrC_LFfa_DHNEoUvWjHcSNr0Sp3nqVNe44ZtssxI5ErQnvLrf1Gurx0sreT2dQGaxBBlxbNdxeHqEwDIjCQMJiGUAyh2_y0596TZkJxnlgllyt4eg2MNldyOe2AfiDgQimow7iR8cZKWkLhI2RACOvTSqbcoxHVLASgPDxwziNQ4Ub7-Zhp_1W00]--></g></svg>