<svg xmlns="http://www.w3.org/2000/svg" xmlns:xlink="http://www.w3.org/1999/xlink" contentStyleType="text/css" data-diagram-type="SEQUENCE" height="298px" preserveAspectRatio="none" style="width:491px;height:298px;background:#FFFFFF;" version="1.1" viewBox="0 0 491 298" width="491px" zoomAndPan="magnify"><defs/><g><g><title>Competitor</title><rect fill="#000000" fill-opacity="0.00000" height="136.5313" width="8" x="43.334" y="81.2969"/><line style="stroke:#181818;stroke-width:0.5;stroke-dasharray:5,5;" x1="47" x2="47" y1="81.2969" y2="217.8281"/></g><g><title>Data</title><rect fill="#000000" fill-opacity="0.00000" height="136.5313" width="8" x="149.4409" y="81.2969"/><line style="stroke:#181818;stroke-width:0.5;stroke-dasharray:5,5;" x1="152.7271" x2="152.7271" y1="81.2969" y2="217.8281"/></g><g><title>Analysis Engine</title><rect fill="#000000" fill-opacity="0.00000" height="136.5313" width="8" x="318.3706" y="81.2969"/><line style="stroke:#181818;stroke-width:0.5;stroke-dasharray:5,5;" x1="322.314" x2="322.314" y1="81.2969" y2="217.8281"/></g><g><title>Reports</title><rect fill="#000000" fill-opacity="0.00000" height="136.5313" width="8" x="447.2085" y="81.2969"/><line style="stroke:#181818;stroke-width:0.5;stroke-dasharray:5,5;" x1="451.0425" x2="451.0425" y1="81.2969" y2="217.8281"/></g><g class="participant participant-head" data-participant="Competitor"><text fill="#000000" font-family="sans-serif" font-size="14" lengthAdjust="spacing" textLength="78.668" x="5" y="77.9951">Competitor</text><ellipse cx="47.334" cy="13.5" fill="#E2E2F0" rx="8" ry="8" style="stroke:#181818;stroke-width:0.5;"/><path d="M47.334,21.5 L47.334,48.5 M34.334,29.5 L60.334,29.5 M47.334,48.5 L34.334,63.5 M47.334,48.5 L60.334,63.5" fill="none" style="stroke:#181818;stroke-width:0.5;"/></g><g class="participant participant-tail" data-participant="Competitor"><text fill="#000000" font-family="sans-serif" font-size="14" lengthAdjust="spacing" textLength="78.668" x="5" y="229.8232">Competitor</text><ellipse cx="47.334" cy="241.625" fill="#E2E2F0" rx="8" ry="8" style="stroke:#181818;stroke-width:0.5;"/><path d="M47.334,249.625 L47.334,276.625 M34.334,257.625 L60.334,257.625 M47.334,276.625 L34.334,291.625 M47.334,276.625 L60.334,291.625" fill="none" style="stroke:#181818;stroke-width:0.5;"/></g><g class="participant participant-head" data-participant="Data"><rect fill="#E2E2F0" height="30.2969" rx="2.5" ry="2.5" style="stroke:#181818;stroke-width:0.5;" width="47.4277" x="129.7271" y="50"/><text fill="#000000" font-family="sans-serif" font-size="14" lengthAdjust="spacing" textLength="33.4277" x="136.7271" y="69.9951">Data</text></g><g class="participant participant-tail" data-participant="Data"><rect fill="#E2E2F0" height="30.2969" rx="2.5" ry="2.5" style="stroke:#181818;stroke-width:0.5;" width="47.4277" x="129.7271" y="216.8281"/><text fill="#000000" font-family="sans-serif" font-size="14" lengthAdjust="spacing" textLength="33.4277" x="136.7271" y="236.8232">Data</text></g><g class="participant participant-head" data-participant="AnalysisEngine"><rect fill="#E2E2F0" height="30.2969" rx="2.5" ry="2.5" style="stroke:#181818;stroke-width:0.5;" width="124.1133" x="260.314" y="50"/><text fill="#000000" font-family="sans-serif" font-size="14" lengthAdjust="spacing" textLength="110.1133" x="267.314" y="69.9951">Analysis Engine</text></g><g class="participant participant-tail" data-participant="AnalysisEngine"><rect fill="#E2E2F0" height="30.2969" rx="2.5" ry="2.5" style="stroke:#181818;stroke-width:0.5;" width="124.1133" x="260.314" y="216.8281"/><text fill="#000000" font-family="sans-serif" font-size="14" lengthAdjust="spacing" textLength="110.1133" x="267.314" y="236.8232">Analysis Engine</text></g><g class="participant participant-head" data-participant="Reports"><rect fill="#E2E2F0" height="30.2969" rx="2.5" ry="2.5" style="stroke:#181818;stroke-width:0.5;" width="68.332" x="417.0425" y="50"/><text fill="#000000" font-family="sans-serif" font-size="14" lengthAdjust="spacing" textLength="54.332" x="424.0425" y="69.9951">Reports</text></g><g class="participant participant-tail" data-participant="Reports"><rect fill="#E2E2F0" height="30.2969" rx="2.5" ry="2.5" style="stroke:#181818;stroke-width:0.5;" width="68.332" x="417.0425" y="216.8281"/><text fill="#000000" font-family="sans-serif" font-size="14" lengthAdjust="spacing" textLength="54.332" x="424.0425" y="236.8232">Reports</text></g><g class="message" data-participant-1="Competitor" data-participant-2="Data"><polygon fill="#181818" points="141.4409,108.4297,151.4409,112.4297,141.4409,116.4297,145.4409,112.4297" style="stroke:#181818;stroke-width:1;"/><line style="stroke:#181818;stroke-width:1;" x1="47.334" x2="147.4409" y1="112.4297" y2="112.4297"/><text fill="#000000" font-family="sans-serif" font-size="13" lengthAdjust="spacing" textLength="82.1069" x="54.334" y="107.3638">Provide data</text></g><g class="message" data-participant-1="Data" data-participant-2="AnalysisEngine"><polygon fill="#181818" points="310.3706,137.5625,320.3706,141.5625,310.3706,145.5625,314.3706,141.5625" style="stroke:#181818;stroke-width:1;"/><line style="stroke:#181818;stroke-width:1;" x1="153.4409" x2="316.3706" y1="141.5625" y2="141.5625"/><text fill="#000000" font-family="sans-serif" font-size="13" lengthAdjust="spacing" textLength="144.9297" x="160.4409" y="136.4966">Send data for analysis</text></g><g class="message" data-participant-1="AnalysisEngine" data-participant-2="Reports"><polygon fill="#181818" points="439.2085,166.6953,449.2085,170.6953,439.2085,174.6953,443.2085,170.6953" style="stroke:#181818;stroke-width:1;"/><line style="stroke:#181818;stroke-width:1;" x1="322.3706" x2="445.2085" y1="170.6953" y2="170.6953"/><text fill="#000000" font-family="sans-serif" font-size="13" lengthAdjust="spacing" textLength="104.8379" x="329.3706" y="165.6294">Generate report</text></g><g class="message" data-participant-1="Reports" data-participant-2="Competitor"><polygon fill="#181818" points="58.334,195.8281,48.334,199.8281,58.334,203.8281,54.334,199.8281" style="stroke:#181818;stroke-width:1;"/><line style="stroke:#181818;stroke-width:1;" x1="52.334" x2="450.2085" y1="199.8281" y2="199.8281"/><text fill="#000000" font-family="sans-serif" font-size="13" lengthAdjust="spacing" textLength="90.3906" x="64.334" y="194.7622">Deliver report</text></g><!--SRC=[LOx12i8m44Jl-OgXTtyW1q6iU1NzWgLTPQ4cORCK_7kR62cv3JDlTfOcYufpV2SssQHBf2QJ90g6OIIZ0PHHH1-T0YsVB1cNy9B0bVfxFwldxvoYMgvSqyxjkpWSwuZ7JUCgCsCkayKgKN_Puy5XhWIUMvTQwdgi5DkKnvK3Anb3g-DQK9Zz2u-H5rbP_zGN]--></g></svg>