<svg xmlns="http://www.w3.org/2000/svg" xmlns:xlink="http://www.w3.org/1999/xlink" contentStyleType="text/css" data-diagram-type="ACTIVITY" height="212px" preserveAspectRatio="none" style="width:286px;height:212px;background:#FFFFFF;" version="1.1" viewBox="0 0 286 212" width="286px" zoomAndPan="magnify"><defs/><g><ellipse cx="127.333" cy="20" fill="#222222" rx="10" ry="10" style="stroke:#222222;stroke-width:1;"/><rect fill="#F1F1F1" height="33.9688" rx="12.5" ry="12.5" style="stroke:#181818;stroke-width:0.5;" width="134.0996" x="60.2832" y="50"/><text fill="#000000" font-family="sans-serif" font-size="12" lengthAdjust="spacing" textLength="114.0996" x="70.2832" y="71.1387">User selects sector</text><rect fill="#F1F1F1" height="33.9688" rx="12.5" ry="12.5" style="stroke:#181818;stroke-width:0.5;" width="232.666" x="11" y="103.9688"/><text fill="#000000" font-family="sans-serif" font-size="12" lengthAdjust="spacing" textLength="212.666" x="21" y="125.1074">System fetches SOV and sentiment</text><ellipse cx="127.333" cy="190.3364" fill="none" rx="11" ry="11" style="stroke:#222222;stroke-width:1;"/><ellipse cx="127.333" cy="190.3364" fill="#222222" rx="6" ry="6" style="stroke:#222222;stroke-width:1;"/><line style="stroke:#181818;stroke-width:1;" x1="127.333" x2="127.333" y1="30" y2="50"/><polygon fill="#181818" points="123.333,40,127.333,50,131.333,40,127.333,44" style="stroke:#181818;stroke-width:1;"/><line style="stroke:#181818;stroke-width:1;" x1="127.333" x2="127.333" y1="83.9688" y2="103.9688"/><polygon fill="#181818" points="123.333,93.9688,127.333,103.9688,131.333,93.9688,127.333,97.9688" style="stroke:#181818;stroke-width:1;"/><line style="stroke:#181818;stroke-width:1;" x1="127.333" x2="127.333" y1="137.9375" y2="179.3364"/><polygon fill="#181818" points="123.333,169.3364,127.333,179.3364,131.333,169.3364,127.333,173.3364" style="stroke:#181818;stroke-width:1;"/><text fill="#000000" font-family="sans-serif" font-size="11" lengthAdjust="spacing" textLength="142.9087" x="131.333" y="159.2422">Dashboard plots heatmap</text><!--SRC=[5Omn3W8n30JxlC8Vu0CNYGeAAeeJz2OnvAIB7SMB1B_7DBF5QCV14oajDvT9BhiKU6o1pPoMzUkGJaz1QUAqNk_4MiChjXx8AHsETD4g7phhQrEXOdsy8Px_viJU7iQpqjWjmaqOdKVS73P-]--></g></svg>