<svg xmlns="http://www.w3.org/2000/svg" xmlns:xlink="http://www.w3.org/1999/xlink" contentStyleType="text/css" data-diagram-type="SEQUENCE" height="356px" preserveAspectRatio="none" style="width:435px;height:356px;background:#FFFFFF;" version="1.1" viewBox="0 0 435 356" width="435px" zoomAndPan="magnify"><defs/><g><g><title>User</title><rect fill="#000000" fill-opacity="0.00000" height="194.7969" width="8" x="19.9551" y="81.2969"/><line style="stroke:#181818;stroke-width:0.5;stroke-dasharray:5,5;" x1="23" x2="23" y1="81.2969" y2="276.0938"/></g><g><title>App</title><rect fill="#000000" fill-opacity="0.00000" height="194.7969" width="8" x="160.2378" y="81.2969"/><line style="stroke:#181818;stroke-width:0.5;stroke-dasharray:5,5;" x1="163.5625" x2="163.5625" y1="81.2969" y2="276.0938"/></g><g><title>Notification Service</title><rect fill="#000000" fill-opacity="0.00000" height="194.7969" width="8" x="349.8672" y="81.2969"/><line style="stroke:#181818;stroke-width:0.5;stroke-dasharray:5,5;" x1="353.6069" x2="353.6069" y1="81.2969" y2="276.0938"/></g><g class="participant participant-head" data-participant="User"><text fill="#000000" font-family="sans-serif" font-size="14" lengthAdjust="spacing" textLength="31.9102" x="5" y="77.9951">User</text><ellipse cx="23.9551" cy="13.5" fill="#E2E2F0" rx="8" ry="8" style="stroke:#181818;stroke-width:0.5;"/><path d="M23.9551,21.5 L23.9551,48.5 M10.9551,29.5 L36.9551,29.5 M23.9551,48.5 L10.9551,63.5 M23.9551,48.5 L36.9551,63.5" fill="none" style="stroke:#181818;stroke-width:0.5;"/></g><g class="participant participant-tail" data-participant="User"><text fill="#000000" font-family="sans-serif" font-size="14" lengthAdjust="spacing" textLength="31.9102" x="5" y="288.0889">User</text><ellipse cx="23.9551" cy="299.8906" fill="#E2E2F0" rx="8" ry="8" style="stroke:#181818;stroke-width:0.5;"/><path d="M23.9551,307.8906 L23.9551,334.8906 M10.9551,315.8906 L36.9551,315.8906 M23.9551,334.8906 L10.9551,349.8906 M23.9551,334.8906 L36.9551,349.8906" fill="none" style="stroke:#181818;stroke-width:0.5;"/></g><g class="participant participant-head" data-participant="App"><rect fill="#E2E2F0" height="30.2969" rx="2.5" ry="2.5" style="stroke:#181818;stroke-width:0.5;" width="41.3506" x="143.5625" y="50"/><text fill="#000000" font-family="sans-serif" font-size="14" lengthAdjust="spacing" textLength="27.3506" x="150.5625" y="69.9951">App</text></g><g class="participant participant-tail" data-participant="App"><rect fill="#E2E2F0" height="30.2969" rx="2.5" ry="2.5" style="stroke:#181818;stroke-width:0.5;" width="41.3506" x="143.5625" y="275.0938"/><text fill="#000000" font-family="sans-serif" font-size="14" lengthAdjust="spacing" textLength="27.3506" x="150.5625" y="295.0889">App</text></g><g class="participant participant-head" data-participant="NS"><rect fill="#E2E2F0" height="30.2969" rx="2.5" ry="2.5" style="stroke:#181818;stroke-width:0.5;" width="150.5205" x="278.6069" y="50"/><text fill="#000000" font-family="sans-serif" font-size="14" lengthAdjust="spacing" textLength="136.5205" x="285.6069" y="69.9951">Notification Service</text></g><g class="participant participant-tail" data-participant="NS"><rect fill="#E2E2F0" height="30.2969" rx="2.5" ry="2.5" style="stroke:#181818;stroke-width:0.5;" width="150.5205" x="278.6069" y="275.0938"/><text fill="#000000" font-family="sans-serif" font-size="14" lengthAdjust="spacing" textLength="136.5205" x="285.6069" y="295.0889">Notification Service</text></g><g class="message" data-participant-1="User" data-participant-2="App"><polygon fill="#181818" points="152.2378,108.4297,162.2378,112.4297,152.2378,116.4297,156.2378,112.4297" style="stroke:#181818;stroke-width:1;"/><line style="stroke:#181818;stroke-width:1;" x1="23.9551" x2="158.2378" y1="112.4297" y2="112.4297"/><text fill="#000000" font-family="sans-serif" font-size="13" lengthAdjust="spacing" textLength="116.2827" x="30.9551" y="107.3638">Toggle categories</text></g><g class="message" data-participant-1="App" data-participant-2="NS"><polygon fill="#181818" points="341.8672,137.5625,351.8672,141.5625,341.8672,145.5625,345.8672,141.5625" style="stroke:#181818;stroke-width:1;"/><line style="stroke:#181818;stroke-width:1;" x1="164.2378" x2="347.8672" y1="141.5625" y2="141.5625"/><text fill="#000000" font-family="sans-serif" font-size="13" lengthAdjust="spacing" textLength="103.0542" x="171.2378" y="136.4966">Update settings</text></g><g class="message" data-participant-1="NS" data-participant-2="App"><polygon fill="#181818" points="175.2378,166.6953,165.2378,170.6953,175.2378,174.6953,171.2378,170.6953" style="stroke:#181818;stroke-width:1;"/><line style="stroke:#181818;stroke-width:1;" x1="169.2378" x2="352.8672" y1="170.6953" y2="170.6953"/><text fill="#000000" font-family="sans-serif" font-size="13" lengthAdjust="spacing" textLength="165.6294" x="181.2378" y="165.6294">Confirm settings updated</text></g><g class="message" data-participant-1="App" data-participant-2="NS"><polygon fill="#181818" points="341.8672,195.8281,351.8672,199.8281,341.8672,203.8281,345.8672,199.8281" style="stroke:#181818;stroke-width:1;"/><line style="stroke:#181818;stroke-width:1;" x1="164.2378" x2="347.8672" y1="199.8281" y2="199.8281"/><text fill="#000000" font-family="sans-serif" font-size="13" lengthAdjust="spacing" textLength="84.1445" x="171.2378" y="194.7622">Test delivery</text></g><g class="message" data-participant-1="NS" data-participant-2="App"><polygon fill="#181818" points="175.2378,224.9609,165.2378,228.9609,175.2378,232.9609,171.2378,228.9609" style="stroke:#181818;stroke-width:1;"/><line style="stroke:#181818;stroke-width:1;" x1="169.2378" x2="352.8672" y1="228.9609" y2="228.9609"/><text fill="#000000" font-family="sans-serif" font-size="13" lengthAdjust="spacing" textLength="108.9448" x="181.2378" y="223.895">Delivery success</text></g><g class="message" data-participant-1="App" data-participant-2="User"><polygon fill="#181818" points="34.9551,254.0938,24.9551,258.0938,34.9551,262.0938,30.9551,258.0938" style="stroke:#181818;stroke-width:1;"/><line style="stroke:#181818;stroke-width:1;" x1="28.9551" x2="163.2378" y1="258.0938" y2="258.0938"/><text fill="#000000" font-family="sans-serif" font-size="13" lengthAdjust="spacing" textLength="93.6406" x="40.9551" y="253.0278">Notify success</text></g><!--SRC=[LOun2iCm34Ltdq9axmKo54exUt5o0ECeHf3QHb82lNtiKD9q4lptdoGVD3ECWcoAPwL0nIU5xb5A1rwWpdzWiz9CmIlb10vveu17qpfZsXwutPlLmv1ZN11g5MDcGZ4rRjIw7iOorHm4LIb5CTQTtZEdcVXzCbYFxdJL1nI52HVQa3zN-VNDGDOGKCwRxRCUZkT_R0S0]--></g></svg>