<svg xmlns="http://www.w3.org/2000/svg" xmlns:xlink="http://www.w3.org/1999/xlink" contentStyleType="text/css" data-diagram-type="DESCRIPTION" height="203px" preserveAspectRatio="none" style="width:482px;height:203px;background:#FFFFFF;" version="1.1" viewBox="0 0 482 203" width="482px" zoomAndPan="magnify"><defs/><g><!--entity SMM--><g class="entity" data-entity="SMM" data-source-line="1" data-uid="ent0002" id="entity_SMM"><ellipse cx="135.4511" cy="14" fill="#F1F1F1" rx="8" ry="8" style="stroke:#181818;stroke-width:0.5;"/><path d="M135.4511,22 L135.4511,49 M122.4511,30 L148.4511,30 M135.4511,49 L122.4511,64 M135.4511,49 L148.4511,64" fill="none" style="stroke:#181818;stroke-width:0.5;"/><text fill="#000000" font-family="sans-serif" font-size="14" lengthAdjust="spacing" textLength="153.8223" x="58.54" y="78.4951">Social Media Manager</text></g><!--entity FID--><g class="entity" data-entity="FID" data-source-line="3" data-uid="ent0003" id="entity_FID"><ellipse cx="97.4465" cy="169.4893" fill="#F1F1F1" rx="91.4465" ry="20.6893" style="stroke:#181818;stroke-width:0.5;"/><text fill="#000000" font-family="sans-serif" font-size="14" lengthAdjust="spacing" textLength="157.0078" x="18.9426" y="174.1377">Fetch Interaction Data</text></g><!--entity EMC--><g class="entity" data-entity="EMC" data-source-line="4" data-uid="ent0004" id="entity_EMC"><ellipse cx="350.4459" cy="169.4892" fill="#F1F1F1" rx="126.4459" ry="27.6892" style="stroke:#181818;stroke-width:0.5;"/><text fill="#000000" font-family="sans-serif" font-size="14" lengthAdjust="spacing" textLength="233.0576" x="233.9171" y="174.1376">Engagement Metrics Compilation</text></g><!--entity EP--><g class="entity" data-entity="EP" data-source-line="6" data-uid="ent0005" id="entity_EP"><ellipse cx="331.4416" cy="14" fill="#F1F1F1" rx="8" ry="8" style="stroke:#181818;stroke-width:0.5;"/><path d="M331.4416,22 L331.4416,49 M318.4416,30 L344.4416,30 M331.4416,49 L318.4416,64 M331.4416,49 L344.4416,64" fill="none" style="stroke:#181818;stroke-width:0.5;"/><text fill="#000000" font-family="sans-serif" font-size="14" lengthAdjust="spacing" textLength="129.3633" x="266.76" y="78.4951">External Platforms</text></g><!--link SMM to FID--><g class="link" data-entity-1="SMM" data-entity-2="FID" data-source-line="8" data-uid="lnk6" id="link_SMM_FID"><path d="M123.94,82.14 C117.26,103.93 110.86,124.7839 105.38,142.6439" fill="none" id="SMM-to-FID" style="stroke:#181818;stroke-width:1;"/><polygon fill="#181818" points="103.62,148.38,110.084,140.9492,105.0867,143.5999,102.436,138.6026,103.62,148.38" style="stroke:#181818;stroke-width:1;"/></g><!--link SMM to EMC--><g class="link" data-entity-1="SMM" data-entity-2="EMC" data-source-line="9" data-uid="lnk7" id="link_SMM_EMC"><path d="M200.54,82.14 C234.77,101.86 270.6406,122.5256 301.1306,140.0856" fill="none" id="SMM-to-EMC" style="stroke:#181818;stroke-width:1;"/><polygon fill="#181818" points="306.33,143.08,300.5273,135.1221,301.9972,140.5846,296.5347,142.0546,306.33,143.08" style="stroke:#181818;stroke-width:1;"/></g><!--link EP to FID--><g class="link" data-entity-1="EP" data-entity-2="FID" data-source-line="11" data-uid="lnk8" id="link_EP_FID"><path d="M266.58,78.98 C223.16,101.96 173.003,128.5032 137.673,147.2032" fill="none" id="EP-to-FID" style="stroke:#181818;stroke-width:1;"/><polygon fill="#181818" points="132.37,150.01,142.1957,149.3351,136.7892,147.671,138.4532,142.2644,132.37,150.01" style="stroke:#181818;stroke-width:1;"/></g><!--link EP to EMC--><g class="link" data-entity-1="EP" data-entity-2="EMC" data-source-line="12" data-uid="lnk9" id="link_EP_EMC"><path d="M337.2,82.14 C340.13,101.22 342.7113,118.0592 345.3713,135.4192" fill="none" id="EP-to-EMC" style="stroke:#181818;stroke-width:1;"/><polygon fill="#181818" points="346.28,141.35,348.8707,131.848,345.5227,136.4077,340.963,133.0597,346.28,141.35" style="stroke:#181818;stroke-width:1;"/></g><!--SRC=[HOrB2iCm34JtEeNmFbVe9d4W2uCX9n2kcXfYkTWgzFXrd7vsm_3c3GND1SsQGwGT7LyZeIEXZOj1ghWw1_2i7AWocfart74HvK91OnQSIAc3ypBzEIjRCoGMRKejCLGSSth4dOvHvwqR0UXyjwycbFRl6t3B9TKJyG3j7uVXqlNVtAVM__fFFEet]--></g></svg>