<svg xmlns="http://www.w3.org/2000/svg" xmlns:xlink="http://www.w3.org/1999/xlink" contentStyleType="text/css" data-diagram-type="ACTIVITY" height="362px" preserveAspectRatio="none" style="width:305px;height:362px;background:#FFFFFF;" version="1.1" viewBox="0 0 305 362" width="305px" zoomAndPan="magnify"><defs/><g><ellipse cx="149.3789" cy="20" fill="#222222" rx="10" ry="10" style="stroke:#222222;stroke-width:1;"/><rect fill="#F1F1F1" height="33.9688" rx="12.5" ry="12.5" style="stroke:#181818;stroke-width:0.5;" width="146.5449" x="76.1064" y="50"/><text fill="#000000" font-family="sans-serif" font-size="12" lengthAdjust="spacing" textLength="126.5449" x="86.1064" y="71.1387">User submits coupon</text><rect fill="#F1F1F1" height="33.9688" rx="12.5" ry="12.5" style="stroke:#181818;stroke-width:0.5;" width="276.7578" x="11" y="103.9688"/><text fill="#000000" font-family="sans-serif" font-size="12" lengthAdjust="spacing" textLength="256.7578" x="21" y="125.1074">App validates coupon with Coupon Service</text><polygon fill="#F1F1F1" points="110.5056,157.9375,188.2522,157.9375,200.2522,169.9375,188.2522,181.9375,110.5056,181.9375,98.5056,169.9375,110.5056,157.9375" style="stroke:#181818;stroke-width:0.5;"/><text fill="#000000" font-family="sans-serif" font-size="11" lengthAdjust="spacing" textLength="77.7466" x="110.5056" y="173.7456">Coupon valid?</text><text fill="#000000" font-family="sans-serif" font-size="11" lengthAdjust="spacing" textLength="19.0083" x="79.4973" y="167.3433">yes</text><text fill="#000000" font-family="sans-serif" font-size="11" lengthAdjust="spacing" textLength="13.7017" x="200.2522" y="167.3433">no</text><rect fill="#F1F1F1" height="33.9688" rx="12.5" ry="12.5" style="stroke:#181818;stroke-width:0.5;" width="108.752" x="21.9492" y="191.9375"/><text fill="#000000" font-family="sans-serif" font-size="12" lengthAdjust="spacing" textLength="88.752" x="31.9492" y="213.0762">Apply discount</text><rect fill="#F1F1F1" height="33.9688" rx="12.5" ry="12.5" style="stroke:#181818;stroke-width:0.5;" width="103.625" x="24.5127" y="245.9063"/><text fill="#000000" font-family="sans-serif" font-size="12" lengthAdjust="spacing" textLength="83.625" x="34.5127" y="267.0449">Refresh totals</text><rect fill="#F1F1F1" height="33.9688" rx="12.5" ry="12.5" style="stroke:#181818;stroke-width:0.5;" width="143.4629" x="150.7012" y="191.9375"/><text fill="#000000" font-family="sans-serif" font-size="12" lengthAdjust="spacing" textLength="123.4629" x="160.7012" y="213.0762">Show error message</text><polygon fill="#F1F1F1" points="149.3789,285.875,161.3789,297.875,149.3789,309.875,137.3789,297.875,149.3789,285.875" style="stroke:#181818;stroke-width:0.5;"/><ellipse cx="149.3789" cy="340.875" fill="none" rx="11" ry="11" style="stroke:#222222;stroke-width:1;"/><ellipse cx="149.3789" cy="340.875" fill="#222222" rx="6" ry="6" style="stroke:#222222;stroke-width:1;"/><line style="stroke:#181818;stroke-width:1;" x1="149.3789" x2="149.3789" y1="30" y2="50"/><polygon fill="#181818" points="145.3789,40,149.3789,50,153.3789,40,149.3789,44" style="stroke:#181818;stroke-width:1;"/><line style="stroke:#181818;stroke-width:1;" x1="149.3789" x2="149.3789" y1="83.9688" y2="103.9688"/><polygon fill="#181818" points="145.3789,93.9688,149.3789,103.9688,153.3789,93.9688,149.3789,97.9688" style="stroke:#181818;stroke-width:1;"/><line style="stroke:#181818;stroke-width:1;" x1="76.3252" x2="76.3252" y1="225.9063" y2="245.9063"/><polygon fill="#181818" points="72.3252,235.9063,76.3252,245.9063,80.3252,235.9063,76.3252,239.9063" style="stroke:#181818;stroke-width:1;"/><line style="stroke:#181818;stroke-width:1;" x1="98.5056" x2="76.3252" y1="169.9375" y2="169.9375"/><line style="stroke:#181818;stroke-width:1;" x1="76.3252" x2="76.3252" y1="169.9375" y2="191.9375"/><polygon fill="#181818" points="72.3252,181.9375,76.3252,191.9375,80.3252,181.9375,76.3252,185.9375" style="stroke:#181818;stroke-width:1;"/><line style="stroke:#181818;stroke-width:1;" x1="200.2522" x2="222.4326" y1="169.9375" y2="169.9375"/><line style="stroke:#181818;stroke-width:1;" x1="222.4326" x2="222.4326" y1="169.9375" y2="191.9375"/><polygon fill="#181818" points="218.4326,181.9375,222.4326,191.9375,226.4326,181.9375,222.4326,185.9375" style="stroke:#181818;stroke-width:1;"/><line style="stroke:#181818;stroke-width:1;" x1="76.3252" x2="76.3252" y1="279.875" y2="297.875"/><line style="stroke:#181818;stroke-width:1;" x1="76.3252" x2="137.3789" y1="297.875" y2="297.875"/><polygon fill="#181818" points="127.3789,293.875,137.3789,297.875,127.3789,301.875,131.3789,297.875" style="stroke:#181818;stroke-width:1;"/><line style="stroke:#181818;stroke-width:1;" x1="222.4326" x2="222.4326" y1="225.9063" y2="297.875"/><line style="stroke:#181818;stroke-width:1;" x1="222.4326" x2="161.3789" y1="297.875" y2="297.875"/><polygon fill="#181818" points="171.3789,293.875,161.3789,297.875,171.3789,301.875,167.3789,297.875" style="stroke:#181818;stroke-width:1;"/><line style="stroke:#181818;stroke-width:1;" x1="149.3789" x2="149.3789" y1="137.9375" y2="157.9375"/><polygon fill="#181818" points="145.3789,147.9375,149.3789,157.9375,153.3789,147.9375,149.3789,151.9375" style="stroke:#181818;stroke-width:1;"/><line style="stroke:#181818;stroke-width:1;" x1="149.3789" x2="149.3789" y1="309.875" y2="329.875"/><polygon fill="#181818" points="145.3789,319.875,149.3789,329.875,153.3789,319.875,149.3789,323.875" style="stroke:#181818;stroke-width:1;"/><!--SRC=[DOrH3e8m44J_znJp2LUW7yPu0ua7gBBOJKhRT1S8jnTG_oOlCs_KV3MYxg5SeVDp4bEyybnoSjHTIy7YempU-8-nYWNSlhddkiYB7P6CQ7xmN5nQME24PcDj2JXSSSCWkckIkGFTUQoi0PRDHtN4KHbDocU_3ta5rveh9bRrx_s5qo0ZaLek7m00]--></g></svg>