<svg xmlns="http://www.w3.org/2000/svg" xmlns:xlink="http://www.w3.org/1999/xlink" contentStyleType="text/css" data-diagram-type="CLASS" height="474px" preserveAspectRatio="none" style="width:643px;height:474px;background:#FFFFFF;" version="1.1" viewBox="0 0 643 474" width="643px" zoomAndPan="magnify"><defs/><g><!--class SocialMediaPost--><g class="entity" data-entity="SocialMediaPost" data-source-line="1" data-uid="ent0002" id="entity_SocialMediaPost"><rect fill="#F1F1F1" height="113.1875" rx="2.5" ry="2.5" style="stroke:#181818;stroke-width:0.5;" width="196.3311" x="179.04" y="7"/><ellipse cx="216.983" cy="23" fill="#ADD1B2" rx="11" ry="11" style="stroke:#181818;stroke-width:1;"/><path d="M219.9517,28.6406 Q219.3736,28.9375 218.733,29.0781 Q218.0923,29.2344 217.3892,29.2344 Q214.8892,29.2344 213.5611,27.5938 Q212.2486,25.9375 212.2486,22.8125 Q212.2486,19.6875 213.5611,18.0313 Q214.8892,16.375 217.3892,16.375 Q218.0923,16.375 218.733,16.5313 Q219.3892,16.6875 219.9517,16.9844 L219.9517,19.7031 Q219.3267,19.125 218.733,18.8594 Q218.1392,18.5781 217.5142,18.5781 Q216.1705,18.5781 215.483,19.6563 Q214.7955,20.7188 214.7955,22.8125 Q214.7955,24.9063 215.483,25.9844 Q216.1705,27.0469 217.5142,27.0469 Q218.1392,27.0469 218.733,26.7813 Q219.3267,26.5 219.9517,25.9219 L219.9517,28.6406 Z " fill="#000000"/><text fill="#000000" font-family="sans-serif" font-size="14" lengthAdjust="spacing" textLength="113.3467" x="236.0814" y="27.8467">SocialMediaPost</text><line style="stroke:#181818;stroke-width:0.5;" x1="180.04" x2="374.3711" y1="39" y2="39"/><rect fill="none" height="6" style="stroke:#C82930;stroke-width:1;" width="6" x="187.04" y="49.6484"/><text fill="#000000" font-family="sans-serif" font-size="14" lengthAdjust="spacing" textLength="136.418" x="199.04" y="55.9951">PostContent: String</text><rect fill="none" height="6" style="stroke:#C82930;stroke-width:1;" width="6" x="187.04" y="65.9453"/><text fill="#000000" font-family="sans-serif" font-size="14" lengthAdjust="spacing" textLength="105.8818" x="199.04" y="72.292">PostDate: Date</text><line style="stroke:#181818;stroke-width:0.5;" x1="180.04" x2="374.3711" y1="79.5938" y2="79.5938"/><ellipse cx="190.04" cy="93.2422" fill="#84BE84" rx="3" ry="3" style="stroke:#038048;stroke-width:1;"/><text fill="#000000" font-family="sans-serif" font-size="14" lengthAdjust="spacing" textLength="170.3311" x="199.04" y="96.5889">getPostContent(): String</text><ellipse cx="190.04" cy="109.5391" fill="#84BE84" rx="3" ry="3" style="stroke:#038048;stroke-width:1;"/><text fill="#000000" font-family="sans-serif" font-size="14" lengthAdjust="spacing" textLength="139.7949" x="199.04" y="112.8857">getPostDate(): Date</text></g><!--class SentimentScore--><g class="entity" data-entity="SentimentScore" data-source-line="8" data-uid="ent0003" id="entity_SentimentScore"><rect fill="#F1F1F1" height="113.1875" rx="2.5" ry="2.5" style="stroke:#181818;stroke-width:0.5;" width="197.7393" x="14.34" y="354.78"/><ellipse cx="53.575" cy="370.78" fill="#ADD1B2" rx="11" ry="11" style="stroke:#181818;stroke-width:1;"/><path d="M56.5437,376.4206 Q55.9656,376.7175 55.325,376.8581 Q54.6843,377.0144 53.9812,377.0144 Q51.4812,377.0144 50.1531,375.3738 Q48.8406,373.7175 48.8406,370.5925 Q48.8406,367.4675 50.1531,365.8113 Q51.4812,364.155 53.9812,364.155 Q54.6843,364.155 55.325,364.3113 Q55.9812,364.4675 56.5437,364.7644 L56.5437,367.4831 Q55.9187,366.905 55.325,366.6394 Q54.7312,366.3581 54.1062,366.3581 Q52.7625,366.3581 52.075,367.4363 Q51.3875,368.4988 51.3875,370.5925 Q51.3875,372.6863 52.075,373.7644 Q52.7625,374.8269 54.1062,374.8269 Q54.7312,374.8269 55.325,374.5613 Q55.9187,374.28 56.5437,373.7019 L56.5437,376.4206 Z " fill="#000000"/><text fill="#000000" font-family="sans-serif" font-size="14" lengthAdjust="spacing" textLength="111.8838" x="72.9605" y="375.6267">SentimentScore</text><line style="stroke:#181818;stroke-width:0.5;" x1="15.34" x2="211.0793" y1="386.78" y2="386.78"/><rect fill="none" height="6" style="stroke:#C82930;stroke-width:1;" width="6" x="22.34" y="397.4284"/><text fill="#000000" font-family="sans-serif" font-size="14" lengthAdjust="spacing" textLength="137.8262" x="34.34" y="403.7751">ScoreValue: Double</text><rect fill="none" height="6" style="stroke:#C82930;stroke-width:1;" width="6" x="22.34" y="413.7253"/><text fill="#000000" font-family="sans-serif" font-size="14" lengthAdjust="spacing" textLength="133.7725" x="34.34" y="420.072">AnalysisDate: Date</text><line style="stroke:#181818;stroke-width:0.5;" x1="15.34" x2="211.0793" y1="427.3738" y2="427.3738"/><ellipse cx="25.34" cy="441.0222" fill="#84BE84" rx="3" ry="3" style="stroke:#038048;stroke-width:1;"/><text fill="#000000" font-family="sans-serif" font-size="14" lengthAdjust="spacing" textLength="171.7393" x="34.34" y="444.3689">getScoreValue(): Double</text><ellipse cx="25.34" cy="457.3191" fill="#84BE84" rx="3" ry="3" style="stroke:#038048;stroke-width:1;"/><text fill="#000000" font-family="sans-serif" font-size="14" lengthAdjust="spacing" textLength="167.6855" x="34.34" y="460.6657">getAnalysisDate(): Date</text></g><!--class SentimentAnalyzer--><g class="entity" data-entity="SentimentAnalyzer" data-source-line="15" data-uid="ent0004" id="entity_SentimentAnalyzer"><rect fill="#F1F1F1" height="80.5938" rx="2.5" ry="2.5" style="stroke:#181818;stroke-width:0.5;" width="540.418" x="7" y="197.19"/><ellipse cx="206.3154" cy="213.19" fill="#ADD1B2" rx="11" ry="11" style="stroke:#181818;stroke-width:1;"/><path d="M209.2842,218.8306 Q208.7061,219.1275 208.0654,219.2681 Q207.4248,219.4244 206.7217,219.4244 Q204.2217,219.4244 202.8936,217.7838 Q201.5811,216.1275 201.5811,213.0025 Q201.5811,209.8775 202.8936,208.2213 Q204.2217,206.565 206.7217,206.565 Q207.4248,206.565 208.0654,206.7213 Q208.7217,206.8775 209.2842,207.1744 L209.2842,209.8931 Q208.6592,209.315 208.0654,209.0494 Q207.4717,208.7681 206.8467,208.7681 Q205.5029,208.7681 204.8154,209.8463 Q204.1279,210.9088 204.1279,213.0025 Q204.1279,215.0963 204.8154,216.1744 Q205.5029,217.2369 206.8467,217.2369 Q207.4717,217.2369 208.0654,216.9713 Q208.6592,216.69 209.2842,216.1119 L209.2842,218.8306 Z " fill="#000000"/><text fill="#000000" font-family="sans-serif" font-size="14" lengthAdjust="spacing" textLength="133.2871" x="226.8154" y="218.0367">SentimentAnalyzer</text><line style="stroke:#181818;stroke-width:0.5;" x1="8" x2="546.418" y1="229.19" y2="229.19"/><line style="stroke:#181818;stroke-width:0.5;" x1="8" x2="546.418" y1="237.19" y2="237.19"/><ellipse cx="18" cy="250.8384" fill="#84BE84" rx="3" ry="3" style="stroke:#038048;stroke-width:1;"/><text fill="#000000" font-family="sans-serif" font-size="14" lengthAdjust="spacing" textLength="514.418" x="27" y="254.1851">analyzeSentiment(posts: List&lt;SocialMediaPost&gt;): List&lt;SentimentScore&gt;</text><ellipse cx="18" cy="267.1353" fill="#84BE84" rx="3" ry="3" style="stroke:#038048;stroke-width:1;"/><text fill="#000000" font-family="sans-serif" font-size="14" lengthAdjust="spacing" textLength="387.5498" x="27" y="270.482">calculateScore(post: SocialMediaPost): SentimentScore</text></g><!--class NLPProcessor--><g class="entity" data-entity="NLPProcessor" data-source-line="20" data-uid="ent0005" id="entity_NLPProcessor"><rect fill="#F1F1F1" height="80.5938" rx="2.5" ry="2.5" style="stroke:#181818;stroke-width:0.5;" width="389.3916" x="247.51" y="371.08"/><ellipse cx="390.6067" cy="387.08" fill="#ADD1B2" rx="11" ry="11" style="stroke:#181818;stroke-width:1;"/><path d="M393.5754,392.7206 Q392.9973,393.0175 392.3567,393.1581 Q391.7161,393.3144 391.0129,393.3144 Q388.5129,393.3144 387.1848,391.6738 Q385.8723,390.0175 385.8723,386.8925 Q385.8723,383.7675 387.1848,382.1113 Q388.5129,380.455 391.0129,380.455 Q391.7161,380.455 392.3567,380.6113 Q393.0129,380.7675 393.5754,381.0644 L393.5754,383.7831 Q392.9504,383.205 392.3567,382.9394 Q391.7629,382.6581 391.1379,382.6581 Q389.7942,382.6581 389.1067,383.7363 Q388.4192,384.7988 388.4192,386.8925 Q388.4192,388.9863 389.1067,390.0644 Q389.7942,391.1269 391.1379,391.1269 Q391.7629,391.1269 392.3567,390.8613 Q392.9504,390.58 393.5754,390.0019 L393.5754,392.7206 Z " fill="#000000"/><text fill="#000000" font-family="sans-serif" font-size="14" lengthAdjust="spacing" textLength="94.6982" x="411.1067" y="391.9267">NLPProcessor</text><line style="stroke:#181818;stroke-width:0.5;" x1="248.51" x2="635.9016" y1="403.08" y2="403.08"/><line style="stroke:#181818;stroke-width:0.5;" x1="248.51" x2="635.9016" y1="411.08" y2="411.08"/><ellipse cx="258.51" cy="424.7284" fill="#84BE84" rx="3" ry="3" style="stroke:#038048;stroke-width:1;"/><text fill="#000000" font-family="sans-serif" font-size="14" lengthAdjust="spacing" textLength="273.6768" x="267.51" y="428.0751">processText(text: String): List&lt;String&gt;</text><ellipse cx="258.51" cy="441.0253" fill="#84BE84" rx="3" ry="3" style="stroke:#038048;stroke-width:1;"/><text fill="#000000" font-family="sans-serif" font-size="14" lengthAdjust="spacing" textLength="363.3916" x="267.51" y="444.372">extractFeatures(text: String): Map&lt;String, Double&gt;</text></g><!--link SocialMediaPost to SentimentAnalyzer--><g class="link" data-entity-1="SocialMediaPost" data-entity-2="SentimentAnalyzer" data-source-line="25" data-uid="lnk6" id="link_SocialMediaPost_SentimentAnalyzer"><path codeLine="25" d="M277.21,120.4 C277.21,145.3 277.21,174.07 277.21,196.73" fill="none" id="SocialMediaPost-SentimentAnalyzer" style="stroke:#181818;stroke-width:1;"/><text fill="#000000" font-family="sans-serif" font-size="13" lengthAdjust="spacing" textLength="65.0127" x="278.21" y="163.2569">processes</text><text fill="#000000" font-family="sans-serif" font-size="13" lengthAdjust="spacing" textLength="8.271" x="268.7396" y="140.3123">1</text><text fill="#000000" font-family="sans-serif" font-size="13" lengthAdjust="spacing" textLength="23.0356" x="252.3802" y="186.1165">0..*</text></g><!--link SentimentAnalyzer to NLPProcessor--><g class="link" data-entity-1="SentimentAnalyzer" data-entity-2="NLPProcessor" data-source-line="26" data-uid="lnk7" id="link_SentimentAnalyzer_NLPProcessor"><path codeLine="26" d="M315.06,277.92 C341.8,305.77 377.49,342.95 404.25,370.83" fill="none" id="SentimentAnalyzer-NLPProcessor" style="stroke:#181818;stroke-width:1;"/><text fill="#000000" font-family="sans-serif" font-size="13" lengthAdjust="spacing" textLength="29.7832" x="360.71" y="320.8469">uses</text><text fill="#000000" font-family="sans-serif" font-size="13" lengthAdjust="spacing" textLength="8.271" x="312.689" y="297.9368">1</text><text fill="#000000" font-family="sans-serif" font-size="13" lengthAdjust="spacing" textLength="8.271" x="389.3235" y="359.9501">1</text></g><!--link SentimentAnalyzer to SentimentScore--><g class="link" data-entity-1="SentimentAnalyzer" data-entity-2="SentimentScore" data-source-line="27" data-uid="lnk8" id="link_SentimentAnalyzer_SentimentScore"><path codeLine="27" d="M239.58,277.92 C217.93,300.62 190.36,329.51 166.51,354.51" fill="none" id="SentimentAnalyzer-SentimentScore" style="stroke:#181818;stroke-width:1;"/><text fill="#000000" font-family="sans-serif" font-size="13" lengthAdjust="spacing" textLength="65.6665" x="210.9" y="320.8469">generates</text><text fill="#000000" font-family="sans-serif" font-size="13" lengthAdjust="spacing" textLength="8.271" x="224.7076" y="297.9368">1</text><text fill="#000000" font-family="sans-serif" font-size="13" lengthAdjust="spacing" textLength="23.0356" x="148.6066" y="343.7407">0..*</text></g><!--SRC=[VP9BQyCm3CVl-HGYftHTodOr8p1MUcf786DtpnF5uCN1Kc0FzjrdE- -iD0S5FNxMNxALaKHGMQMbEU6xbgKbXfy4_9T3S9vipLYpW8gThi-pp5uo2WWs1hTmHfuHsMR1ZEa0X5m4VvD4TH8yeJ-ygPHrE2g8tgiqRUXaspU3VUAnbkQBD5qICK6npuJ5x9oyeYEMVQFhfMn1Te6n86lyC2JWg8aVLXiiDaDyCLRH7wMaKQtnVMCq7YJMbn2sju0dZS_7idHM8P6Tv3LTv0K_EMDlXkMFIg8tAF05JYe-eEJM8Qs9asnwuBRVNn7Qhzz9Ufz2daDwjzlTf1TM9mPLICd_x43xts8Y0UrrODMkUp72tssDpY-L_W00]--></g></svg>