<svg xmlns="http://www.w3.org/2000/svg" xmlns:xlink="http://www.w3.org/1999/xlink" contentStyleType="text/css" data-diagram-type="ACTIVITY" height="330px" preserveAspectRatio="none" style="width:308px;height:330px;background:#FFFFFF;" version="1.1" viewBox="0 0 308 330" width="308px" zoomAndPan="magnify"><defs/><g><ellipse cx="149.98" cy="20" fill="#222222" rx="10" ry="10" style="stroke:#222222;stroke-width:1;"/><rect fill="#F1F1F1" height="33.9688" rx="12.5" ry="12.5" style="stroke:#181818;stroke-width:0.5;" width="136.2969" x="81.8315" y="50"/><text fill="#000000" font-family="sans-serif" font-size="12" lengthAdjust="spacing" textLength="116.2969" x="91.8315" y="71.1387">Access Profile Page</text><rect fill="#F1F1F1" height="33.9688" rx="12.5" ry="12.5" style="stroke:#181818;stroke-width:0.5;" width="160.6426" x="69.6587" y="103.9688"/><text fill="#000000" font-family="sans-serif" font-size="12" lengthAdjust="spacing" textLength="140.6426" x="79.6587" y="125.1074">Modify Personal Details</text><polygon fill="#F1F1F1" points="112.5649,179.3364,187.395,179.3364,199.395,191.3364,187.395,203.3364,112.5649,203.3364,100.5649,191.3364,112.5649,179.3364" style="stroke:#181818;stroke-width:0.5;"/><text fill="#000000" font-family="sans-serif" font-size="11" lengthAdjust="spacing" textLength="74.8301" x="112.5649" y="195.1445">Details Valid?</text><text fill="#000000" font-family="sans-serif" font-size="11" lengthAdjust="spacing" textLength="68.6318" x="31.9331" y="188.7422">Save Details</text><text fill="#000000" font-family="sans-serif" font-size="11" lengthAdjust="spacing" textLength="13.7017" x="199.395" y="188.7422">no</text><rect fill="#F1F1F1" height="33.9688" rx="12.5" ry="12.5" style="stroke:#181818;stroke-width:0.5;" width="124.5313" x="11" y="213.3364"/><text fill="#000000" font-family="sans-serif" font-size="12" lengthAdjust="spacing" textLength="104.5313" x="21" y="234.4751">Update Database</text><rect fill="#F1F1F1" height="33.9688" rx="12.5" ry="12.5" style="stroke:#181818;stroke-width:0.5;" width="142.3262" x="155.5313" y="213.3364"/><text fill="#000000" font-family="sans-serif" font-size="12" lengthAdjust="spacing" textLength="122.3262" x="165.5313" y="234.4751">Show Error Message</text><polygon fill="#F1F1F1" points="149.98,253.3052,161.98,265.3052,149.98,277.3052,137.98,265.3052,149.98,253.3052" style="stroke:#181818;stroke-width:0.5;"/><ellipse cx="149.98" cy="308.3052" fill="none" rx="11" ry="11" style="stroke:#222222;stroke-width:1;"/><ellipse cx="149.98" cy="308.3052" fill="#222222" rx="6" ry="6" style="stroke:#222222;stroke-width:1;"/><line style="stroke:#181818;stroke-width:1;" x1="149.98" x2="149.98" y1="30" y2="50"/><polygon fill="#181818" points="145.98,40,149.98,50,153.98,40,149.98,44" style="stroke:#181818;stroke-width:1;"/><line style="stroke:#181818;stroke-width:1;" x1="149.98" x2="149.98" y1="83.9688" y2="103.9688"/><polygon fill="#181818" points="145.98,93.9688,149.98,103.9688,153.98,93.9688,149.98,97.9688" style="stroke:#181818;stroke-width:1;"/><line style="stroke:#181818;stroke-width:1;" x1="100.5649" x2="73.2656" y1="191.3364" y2="191.3364"/><line style="stroke:#181818;stroke-width:1;" x1="73.2656" x2="73.2656" y1="191.3364" y2="213.3364"/><polygon fill="#181818" points="69.2656,203.3364,73.2656,213.3364,77.2656,203.3364,73.2656,207.3364" style="stroke:#181818;stroke-width:1;"/><line style="stroke:#181818;stroke-width:1;" x1="199.395" x2="226.6943" y1="191.3364" y2="191.3364"/><line style="stroke:#181818;stroke-width:1;" x1="226.6943" x2="226.6943" y1="191.3364" y2="213.3364"/><polygon fill="#181818" points="222.6943,203.3364,226.6943,213.3364,230.6943,203.3364,226.6943,207.3364" style="stroke:#181818;stroke-width:1;"/><line style="stroke:#181818;stroke-width:1;" x1="73.2656" x2="73.2656" y1="247.3052" y2="265.3052"/><line style="stroke:#181818;stroke-width:1;" x1="73.2656" x2="137.98" y1="265.3052" y2="265.3052"/><polygon fill="#181818" points="127.98,261.3052,137.98,265.3052,127.98,269.3052,131.98,265.3052" style="stroke:#181818;stroke-width:1;"/><line style="stroke:#181818;stroke-width:1;" x1="226.6943" x2="226.6943" y1="247.3052" y2="265.3052"/><line style="stroke:#181818;stroke-width:1;" x1="226.6943" x2="161.98" y1="265.3052" y2="265.3052"/><polygon fill="#181818" points="171.98,261.3052,161.98,265.3052,171.98,269.3052,167.98,265.3052" style="stroke:#181818;stroke-width:1;"/><line style="stroke:#181818;stroke-width:1;" x1="149.98" x2="149.98" y1="137.9375" y2="179.3364"/><polygon fill="#181818" points="145.98,169.3364,149.98,179.3364,153.98,169.3364,149.98,173.3364" style="stroke:#181818;stroke-width:1;"/><text fill="#000000" font-family="sans-serif" font-size="11" lengthAdjust="spacing" textLength="86.813" x="153.98" y="159.2422">Validate Details</text><line style="stroke:#181818;stroke-width:1;" x1="149.98" x2="149.98" y1="277.3052" y2="297.3052"/><polygon fill="#181818" points="145.98,287.3052,149.98,297.3052,153.98,287.3052,149.98,291.3052" style="stroke:#181818;stroke-width:1;"/><!--SRC=[JOx12i9034Jl-OevjWT_O0kAeCT2eUWzjgbTM3PbioZzUrShw34Jtiopp2aJkUCmY1cwf9CFWexlqf1hTVJJYawIQUI0asJsmHgYtHvN3dxaBB_KJwY-n_OzrCYpH5IhM4r0eNf-_160konR2MU-iPLL2IQeehu1ry_wn3abJMYBu4TBOh4YigpB2m00]--></g></svg>