<svg xmlns="http://www.w3.org/2000/svg" xmlns:xlink="http://www.w3.org/1999/xlink" contentStyleType="text/css" data-diagram-type="ACTIVITY" height="458px" preserveAspectRatio="none" style="width:651px;height:458px;background:#FFFFFF;" version="1.1" viewBox="0 0 651 458" width="651px" zoomAndPan="magnify"><defs/><g><ellipse cx="422.2046" cy="20" fill="#222222" rx="10" ry="10" style="stroke:#222222;stroke-width:1;"/><rect fill="#F1F1F1" height="33.9688" rx="12.5" ry="12.5" style="stroke:#181818;stroke-width:0.5;" width="116.416" x="363.9966" y="50"/><text fill="#000000" font-family="sans-serif" font-size="12" lengthAdjust="spacing" textLength="96.416" x="373.9966" y="71.1387">User edits fields</text><polygon fill="#F1F1F1" points="388.4043,125.3677,456.0049,125.3677,468.0049,137.3677,456.0049,149.3677,388.4043,149.3677,376.4043,137.3677,388.4043,125.3677" style="stroke:#181818;stroke-width:0.5;"/><text fill="#000000" font-family="sans-serif" font-size="11" lengthAdjust="spacing" textLength="67.6006" x="388.4043" y="141.1758">Fields valid?</text><text fill="#000000" font-family="sans-serif" font-size="11" lengthAdjust="spacing" textLength="69.9316" x="306.4727" y="134.7734">Auth Service</text><text fill="#000000" font-family="sans-serif" font-size="11" lengthAdjust="spacing" textLength="13.7017" x="468.0049" y="134.7734">no</text><polygon fill="#F1F1F1" points="228.1885,159.3677,333.8916,159.3677,345.8916,171.3677,333.8916,183.3677,228.1885,183.3677,216.1885,171.3677,228.1885,159.3677" style="stroke:#181818;stroke-width:0.5;"/><text fill="#000000" font-family="sans-serif" font-size="11" lengthAdjust="spacing" textLength="105.7031" x="228.1885" y="175.1758">Sensitive changes?</text><text fill="#000000" font-family="sans-serif" font-size="11" lengthAdjust="spacing" textLength="19.0083" x="197.1802" y="168.7734">yes</text><text fill="#000000" font-family="sans-serif" font-size="11" lengthAdjust="spacing" textLength="21.4897" x="345.8916" y="168.7734">App</text><rect fill="#F1F1F1" height="33.9688" rx="12.5" ry="12.5" style="stroke:#181818;stroke-width:0.5;" width="128.3574" x="98.1865" y="193.3677"/><text fill="#000000" font-family="sans-serif" font-size="12" lengthAdjust="spacing" textLength="108.3574" x="108.1865" y="214.5063">Re-verify changes</text><polygon fill="#F1F1F1" points="89.2217,247.3364,235.5088,247.3364,247.5088,259.3364,235.5088,271.3364,89.2217,271.3364,77.2217,259.3364,89.2217,247.3364" style="stroke:#181818;stroke-width:0.5;"/><text fill="#000000" font-family="sans-serif" font-size="11" lengthAdjust="spacing" textLength="146.2871" x="89.2217" y="263.1445">Re-verification successful?</text><text fill="#000000" font-family="sans-serif" font-size="11" lengthAdjust="spacing" textLength="21.4897" x="55.7319" y="256.7422">App</text><text fill="#000000" font-family="sans-serif" font-size="11" lengthAdjust="spacing" textLength="13.7017" x="247.5088" y="256.7422">no</text><rect fill="#F1F1F1" height="33.9688" rx="12.5" ry="12.5" style="stroke:#181818;stroke-width:0.5;" width="112.4434" x="11" y="281.3364"/><text fill="#000000" font-family="sans-serif" font-size="12" lengthAdjust="spacing" textLength="92.4434" x="21" y="302.4751">Persist updates</text><rect fill="#F1F1F1" height="33.9688" rx="12.5" ry="12.5" style="stroke:#181818;stroke-width:0.5;" width="111.9688" x="201.5244" y="281.3364"/><text fill="#000000" font-family="sans-serif" font-size="12" lengthAdjust="spacing" textLength="91.9688" x="211.5244" y="302.4751">Reject changes</text><polygon fill="#F1F1F1" points="162.3652,321.3052,174.3652,333.3052,162.3652,345.3052,150.3652,333.3052,162.3652,321.3052" style="stroke:#181818;stroke-width:0.5;"/><rect fill="#F1F1F1" height="33.9688" rx="12.5" ry="12.5" style="stroke:#181818;stroke-width:0.5;" width="112.4434" x="343.4932" y="193.3677"/><text fill="#000000" font-family="sans-serif" font-size="12" lengthAdjust="spacing" textLength="92.4434" x="353.4932" y="214.5063">Persist updates</text><polygon fill="#F1F1F1" points="281.04,351.3052,293.04,363.3052,281.04,375.3052,269.04,363.3052,281.04,351.3052" style="stroke:#181818;stroke-width:0.5;"/><rect fill="#F1F1F1" height="33.9688" rx="12.5" ry="12.5" style="stroke:#181818;stroke-width:0.5;" width="154.8652" x="485.9365" y="159.3677"/><text fill="#000000" font-family="sans-serif" font-size="12" lengthAdjust="spacing" textLength="134.8652" x="495.9365" y="180.5063">Show validation errors</text><polygon fill="#F1F1F1" points="422.2046,381.3052,434.2046,393.3052,422.2046,405.3052,410.2046,393.3052,422.2046,381.3052" style="stroke:#181818;stroke-width:0.5;"/><ellipse cx="422.2046" cy="436.3052" fill="none" rx="11" ry="11" style="stroke:#222222;stroke-width:1;"/><ellipse cx="422.2046" cy="436.3052" fill="#222222" rx="6" ry="6" style="stroke:#222222;stroke-width:1;"/><line style="stroke:#181818;stroke-width:1;" x1="422.2046" x2="422.2046" y1="30" y2="50"/><polygon fill="#181818" points="418.2046,40,422.2046,50,426.2046,40,422.2046,44" style="stroke:#181818;stroke-width:1;"/><line style="stroke:#181818;stroke-width:1;" x1="77.2217" x2="67.2217" y1="259.3364" y2="259.3364"/><line style="stroke:#181818;stroke-width:1;" x1="67.2217" x2="67.2217" y1="259.3364" y2="281.3364"/><polygon fill="#181818" points="63.2217,271.3364,67.2217,281.3364,71.2217,271.3364,67.2217,275.3364" style="stroke:#181818;stroke-width:1;"/><line style="stroke:#181818;stroke-width:1;" x1="247.5088" x2="257.5088" y1="259.3364" y2="259.3364"/><line style="stroke:#181818;stroke-width:1;" x1="257.5088" x2="257.5088" y1="259.3364" y2="281.3364"/><polygon fill="#181818" points="253.5088,271.3364,257.5088,281.3364,261.5088,271.3364,257.5088,275.3364" style="stroke:#181818;stroke-width:1;"/><line style="stroke:#181818;stroke-width:1;" x1="67.2217" x2="67.2217" y1="315.3052" y2="333.3052"/><line style="stroke:#181818;stroke-width:1;" x1="67.2217" x2="150.3652" y1="333.3052" y2="333.3052"/><polygon fill="#181818" points="140.3652,329.3052,150.3652,333.3052,140.3652,337.3052,144.3652,333.3052" style="stroke:#181818;stroke-width:1;"/><line style="stroke:#181818;stroke-width:1;" x1="257.5088" x2="257.5088" y1="315.3052" y2="333.3052"/><line style="stroke:#181818;stroke-width:1;" x1="257.5088" x2="174.3652" y1="333.3052" y2="333.3052"/><polygon fill="#181818" points="184.3652,329.3052,174.3652,333.3052,184.3652,337.3052,180.3652,333.3052" style="stroke:#181818;stroke-width:1;"/><line style="stroke:#181818;stroke-width:1;" x1="162.3652" x2="162.3652" y1="227.3364" y2="247.3364"/><polygon fill="#181818" points="158.3652,237.3364,162.3652,247.3364,166.3652,237.3364,162.3652,241.3364" style="stroke:#181818;stroke-width:1;"/><line style="stroke:#181818;stroke-width:1;" x1="216.1885" x2="162.3652" y1="171.3677" y2="171.3677"/><line style="stroke:#181818;stroke-width:1;" x1="162.3652" x2="162.3652" y1="171.3677" y2="193.3677"/><polygon fill="#181818" points="158.3652,183.3677,162.3652,193.3677,166.3652,183.3677,162.3652,187.3677" style="stroke:#181818;stroke-width:1;"/><line style="stroke:#181818;stroke-width:1;" x1="345.8916" x2="399.7148" y1="171.3677" y2="171.3677"/><line style="stroke:#181818;stroke-width:1;" x1="399.7148" x2="399.7148" y1="171.3677" y2="193.3677"/><polygon fill="#181818" points="395.7148,183.3677,399.7148,193.3677,403.7148,183.3677,399.7148,187.3677" style="stroke:#181818;stroke-width:1;"/><line style="stroke:#181818;stroke-width:1;" x1="162.3652" x2="162.3652" y1="345.3052" y2="363.3052"/><line style="stroke:#181818;stroke-width:1;" x1="162.3652" x2="269.04" y1="363.3052" y2="363.3052"/><polygon fill="#181818" points="259.04,359.3052,269.04,363.3052,259.04,367.3052,263.04,363.3052" style="stroke:#181818;stroke-width:1;"/><line style="stroke:#181818;stroke-width:1;" x1="399.7148" x2="399.7148" y1="227.3364" y2="363.3052"/><line style="stroke:#181818;stroke-width:1;" x1="399.7148" x2="293.04" y1="363.3052" y2="363.3052"/><polygon fill="#181818" points="303.04,359.3052,293.04,363.3052,303.04,367.3052,299.04,363.3052" style="stroke:#181818;stroke-width:1;"/><line style="stroke:#181818;stroke-width:1;" x1="376.4043" x2="281.04" y1="137.3677" y2="137.3677"/><line style="stroke:#181818;stroke-width:1;" x1="281.04" x2="281.04" y1="137.3677" y2="159.3677"/><polygon fill="#181818" points="277.04,149.3677,281.04,159.3677,285.04,149.3677,281.04,153.3677" style="stroke:#181818;stroke-width:1;"/><line style="stroke:#181818;stroke-width:1;" x1="468.0049" x2="563.3691" y1="137.3677" y2="137.3677"/><line style="stroke:#181818;stroke-width:1;" x1="563.3691" x2="563.3691" y1="137.3677" y2="159.3677"/><polygon fill="#181818" points="559.3691,149.3677,563.3691,159.3677,567.3691,149.3677,563.3691,153.3677" style="stroke:#181818;stroke-width:1;"/><line style="stroke:#181818;stroke-width:1;" x1="281.04" x2="281.04" y1="375.3052" y2="393.3052"/><line style="stroke:#181818;stroke-width:1;" x1="281.04" x2="410.2046" y1="393.3052" y2="393.3052"/><polygon fill="#181818" points="400.2046,389.3052,410.2046,393.3052,400.2046,397.3052,404.2046,393.3052" style="stroke:#181818;stroke-width:1;"/><line style="stroke:#181818;stroke-width:1;" x1="563.3691" x2="563.3691" y1="193.3364" y2="393.3052"/><line style="stroke:#181818;stroke-width:1;" x1="563.3691" x2="434.2046" y1="393.3052" y2="393.3052"/><polygon fill="#181818" points="444.2046,389.3052,434.2046,393.3052,444.2046,397.3052,440.2046,393.3052" style="stroke:#181818;stroke-width:1;"/><line style="stroke:#181818;stroke-width:1;" x1="422.2046" x2="422.2046" y1="83.9688" y2="125.3677"/><polygon fill="#181818" points="418.2046,115.3677,422.2046,125.3677,426.2046,115.3677,422.2046,119.3677" style="stroke:#181818;stroke-width:1;"/><text fill="#000000" font-family="sans-serif" font-size="11" lengthAdjust="spacing" textLength="21.4897" x="426.2046" y="105.2734">App</text><line style="stroke:#181818;stroke-width:1;" x1="422.2046" x2="422.2046" y1="405.3052" y2="425.3052"/><polygon fill="#181818" points="418.2046,415.3052,422.2046,425.3052,426.2046,415.3052,422.2046,419.3052" style="stroke:#181818;stroke-width:1;"/><!--SRC=[RP1B3i8m34JtEOMNPS45MWd4XZMYuW1HCg56LLB5RX6tfoMgn6_fyRpnoA8sgp7rHP09dbKeC7elZTdkw30CZJ4Sg3g-H9fiptw_8UqGgNf0DePeCOxQKOiyiKCpImlI8WehJo3NsNY5V7D4zHdR2Pd3O_KqBtt1rnKxgvmYoUWSHCBO_-QK3alPCjKdP65H6WTlTKr5Bw0gffMPhz_WzFCqekTWlitlyV_22_NEr6sNxkLVfJzoJdas5wiHJSCJ]--></g></svg>