<svg xmlns="http://www.w3.org/2000/svg" xmlns:xlink="http://www.w3.org/1999/xlink" contentStyleType="text/css" data-diagram-type="SEQUENCE" height="269px" preserveAspectRatio="none" style="width:480px;height:269px;background:#FFFFFF;" version="1.1" viewBox="0 0 480 269" width="480px" zoomAndPan="magnify"><defs/><g><g><title>Customer</title><rect fill="#000000" fill-opacity="0.00000" height="107.3984" width="8" x="38.002" y="81.2969"/><line style="stroke:#181818;stroke-width:0.5;stroke-dasharray:5,5;" x1="42" x2="42" y1="81.2969" y2="188.6953"/></g><g><title>Feedback Processor</title><rect fill="#000000" fill-opacity="0.00000" height="107.3984" width="8" x="174.8696" y="81.2969"/><line style="stroke:#181818;stroke-width:0.5;stroke-dasharray:5,5;" x1="177.9346" x2="177.9346" y1="81.2969" y2="188.6953"/></g><g><title>Summary Report Generator</title><rect fill="#000000" fill-opacity="0.00000" height="107.3984" width="8" x="366.1484" y="81.2969"/><line style="stroke:#181818;stroke-width:0.5;stroke-dasharray:5,5;" x1="369.8047" x2="369.8047" y1="81.2969" y2="188.6953"/></g><g class="participant participant-head" data-participant="Customer"><text fill="#000000" font-family="sans-serif" font-size="14" lengthAdjust="spacing" textLength="68.0039" x="5" y="77.9951">Customer</text><ellipse cx="42.002" cy="13.5" fill="#E2E2F0" rx="8" ry="8" style="stroke:#181818;stroke-width:0.5;"/><path d="M42.002,21.5 L42.002,48.5 M29.002,29.5 L55.002,29.5 M42.002,48.5 L29.002,63.5 M42.002,48.5 L55.002,63.5" fill="none" style="stroke:#181818;stroke-width:0.5;"/></g><g class="participant participant-tail" data-participant="Customer"><text fill="#000000" font-family="sans-serif" font-size="14" lengthAdjust="spacing" textLength="68.0039" x="5" y="200.6904">Customer</text><ellipse cx="42.002" cy="212.4922" fill="#E2E2F0" rx="8" ry="8" style="stroke:#181818;stroke-width:0.5;"/><path d="M42.002,220.4922 L42.002,247.4922 M29.002,228.4922 L55.002,228.4922 M42.002,247.4922 L29.002,262.4922 M42.002,247.4922 L55.002,262.4922" fill="none" style="stroke:#181818;stroke-width:0.5;"/></g><g class="participant participant-head" data-participant="Processor"><rect fill="#E2E2F0" height="30.2969" rx="2.5" ry="2.5" style="stroke:#181818;stroke-width:0.5;" width="153.8701" x="101.9346" y="50"/><text fill="#000000" font-family="sans-serif" font-size="14" lengthAdjust="spacing" textLength="139.8701" x="108.9346" y="69.9951">Feedback Processor</text></g><g class="participant participant-tail" data-participant="Processor"><rect fill="#E2E2F0" height="30.2969" rx="2.5" ry="2.5" style="stroke:#181818;stroke-width:0.5;" width="153.8701" x="101.9346" y="187.6953"/><text fill="#000000" font-family="sans-serif" font-size="14" lengthAdjust="spacing" textLength="139.8701" x="108.9346" y="207.6904">Feedback Processor</text></g><g class="participant participant-head" data-participant="SummaryReport"><rect fill="#E2E2F0" height="30.2969" rx="2.5" ry="2.5" style="stroke:#181818;stroke-width:0.5;" width="208.6875" x="265.8047" y="50"/><text fill="#000000" font-family="sans-serif" font-size="14" lengthAdjust="spacing" textLength="194.6875" x="272.8047" y="69.9951">Summary Report Generator</text></g><g class="participant participant-tail" data-participant="SummaryReport"><rect fill="#E2E2F0" height="30.2969" rx="2.5" ry="2.5" style="stroke:#181818;stroke-width:0.5;" width="208.6875" x="265.8047" y="187.6953"/><text fill="#000000" font-family="sans-serif" font-size="14" lengthAdjust="spacing" textLength="194.6875" x="272.8047" y="207.6904">Summary Report Generator</text></g><g class="message" data-participant-1="Customer" data-participant-2="Processor"><polygon fill="#181818" points="166.8696,108.4297,176.8696,112.4297,166.8696,116.4297,170.8696,112.4297" style="stroke:#181818;stroke-width:1;"/><line style="stroke:#181818;stroke-width:1;" x1="42.002" x2="172.8696" y1="112.4297" y2="112.4297"/><text fill="#000000" font-family="sans-serif" font-size="13" lengthAdjust="spacing" textLength="112.8677" x="49.002" y="107.3638">Submit Feedback</text></g><g class="message" data-participant-1="Processor" data-participant-2="SummaryReport"><polygon fill="#181818" points="358.1484,137.5625,368.1484,141.5625,358.1484,145.5625,362.1484,141.5625" style="stroke:#181818;stroke-width:1;"/><line style="stroke:#181818;stroke-width:1;" x1="178.8696" x2="364.1484" y1="141.5625" y2="141.5625"/><text fill="#000000" font-family="sans-serif" font-size="13" lengthAdjust="spacing" textLength="116.5811" x="185.8696" y="136.4966">Process Feedback</text></g><g class="message" data-participant-1="SummaryReport" data-participant-2="Customer"><polygon fill="#181818" points="53.002,166.6953,43.002,170.6953,53.002,174.6953,49.002,170.6953" style="stroke:#181818;stroke-width:1;"/><line style="stroke:#181818;stroke-width:1;" x1="47.002" x2="369.1484" y1="170.6953" y2="170.6953"/><text fill="#000000" font-family="sans-serif" font-size="13" lengthAdjust="spacing" textLength="175.481" x="59.002" y="165.6294">Generate Summary Report</text></g><!--SRC=[LOun3i8m34NtdEAhEnV8m884Au8JkC53X597ZZjmUwXQ4sMqtll_cvA9uh8say8QAgdbb2ijXkdA_9eflN5NIToQw0Hg_HhjvreAwGSFhgA66o-iP4VcW3iBmVTmElUw-BFcaWs-6_veyuQAwB4k3tmB-4ZqNnZZZry0]--></g></svg>