<svg xmlns="http://www.w3.org/2000/svg" xmlns:xlink="http://www.w3.org/1999/xlink" contentStyleType="text/css" data-diagram-type="SEQUENCE" height="340px" preserveAspectRatio="none" style="width:475px;height:340px;background:#FFFFFF;" version="1.1" viewBox="0 0 475 340" width="475px" zoomAndPan="magnify"><defs/><g><g><title>User</title><rect fill="#000000" fill-opacity="0.00000" height="178.6641" width="8" x="19.9551" y="81.2969"/><line style="stroke:#181818;stroke-width:0.5;stroke-dasharray:5,5;" x1="23" x2="23" y1="81.2969" y2="259.9609"/></g><g><title>Input Handler</title><rect fill="#000000" fill-opacity="0.00000" height="178.6641" width="8" x="116.6421" y="81.2969"/><line style="stroke:#181818;stroke-width:0.5;stroke-dasharray:5,5;" x1="119.729" x2="119.729" y1="81.2969" y2="259.9609"/></g><g><title>System Evaluator</title><rect fill="#000000" fill-opacity="0.00000" height="178.6641" width="8" x="250.3145" y="81.2969"/><line style="stroke:#181818;stroke-width:0.5;stroke-dasharray:5,5;" x1="253.5552" x2="253.5552" y1="81.2969" y2="259.9609"/></g><g><title>Report Generator</title><rect fill="#000000" fill-opacity="0.00000" height="178.6641" width="8" x="397.3647" y="81.2969"/><line style="stroke:#181818;stroke-width:0.5;stroke-dasharray:5,5;" x1="401.0737" x2="401.0737" y1="81.2969" y2="259.9609"/></g><g class="participant participant-head" data-participant="User"><text fill="#000000" font-family="sans-serif" font-size="14" lengthAdjust="spacing" textLength="31.9102" x="5" y="77.9951">User</text><ellipse cx="23.9551" cy="13.5" fill="#E2E2F0" rx="8" ry="8" style="stroke:#181818;stroke-width:0.5;"/><path d="M23.9551,21.5 L23.9551,48.5 M10.9551,29.5 L36.9551,29.5 M23.9551,48.5 L10.9551,63.5 M23.9551,48.5 L36.9551,63.5" fill="none" style="stroke:#181818;stroke-width:0.5;"/></g><g class="participant participant-tail" data-participant="User"><text fill="#000000" font-family="sans-serif" font-size="14" lengthAdjust="spacing" textLength="31.9102" x="5" y="271.9561">User</text><ellipse cx="23.9551" cy="283.7578" fill="#E2E2F0" rx="8" ry="8" style="stroke:#181818;stroke-width:0.5;"/><path d="M23.9551,291.7578 L23.9551,318.7578 M10.9551,299.7578 L36.9551,299.7578 M23.9551,318.7578 L10.9551,333.7578 M23.9551,318.7578 L36.9551,333.7578" fill="none" style="stroke:#181818;stroke-width:0.5;"/></g><g class="participant participant-head" data-participant="IH"><rect fill="#E2E2F0" height="30.2969" rx="2.5" ry="2.5" style="stroke:#181818;stroke-width:0.5;" width="109.8262" x="65.729" y="50"/><text fill="#000000" font-family="sans-serif" font-size="14" lengthAdjust="spacing" textLength="95.8262" x="72.729" y="69.9951">Input Handler</text></g><g class="participant participant-tail" data-participant="IH"><rect fill="#E2E2F0" height="30.2969" rx="2.5" ry="2.5" style="stroke:#181818;stroke-width:0.5;" width="109.8262" x="65.729" y="258.9609"/><text fill="#000000" font-family="sans-serif" font-size="14" lengthAdjust="spacing" textLength="95.8262" x="72.729" y="278.9561">Input Handler</text></g><g class="participant participant-head" data-participant="SE"><rect fill="#E2E2F0" height="30.2969" rx="2.5" ry="2.5" style="stroke:#181818;stroke-width:0.5;" width="137.5186" x="185.5552" y="50"/><text fill="#000000" font-family="sans-serif" font-size="14" lengthAdjust="spacing" textLength="123.5186" x="192.5552" y="69.9951">System Evaluator</text></g><g class="participant participant-tail" data-participant="SE"><rect fill="#E2E2F0" height="30.2969" rx="2.5" ry="2.5" style="stroke:#181818;stroke-width:0.5;" width="137.5186" x="185.5552" y="258.9609"/><text fill="#000000" font-family="sans-serif" font-size="14" lengthAdjust="spacing" textLength="123.5186" x="192.5552" y="278.9561">System Evaluator</text></g><g class="participant participant-head" data-participant="RG"><rect fill="#E2E2F0" height="30.2969" rx="2.5" ry="2.5" style="stroke:#181818;stroke-width:0.5;" width="136.582" x="333.0737" y="50"/><text fill="#000000" font-family="sans-serif" font-size="14" lengthAdjust="spacing" textLength="122.582" x="340.0737" y="69.9951">Report Generator</text></g><g class="participant participant-tail" data-participant="RG"><rect fill="#E2E2F0" height="30.2969" rx="2.5" ry="2.5" style="stroke:#181818;stroke-width:0.5;" width="136.582" x="333.0737" y="258.9609"/><text fill="#000000" font-family="sans-serif" font-size="14" lengthAdjust="spacing" textLength="122.582" x="340.0737" y="278.9561">Report Generator</text></g><g class="message" data-participant-1="User" data-participant-2="IH"><polygon fill="#181818" points="108.6421,108.4297,118.6421,112.4297,108.6421,116.4297,112.6421,112.4297" style="stroke:#181818;stroke-width:1;"/><line style="stroke:#181818;stroke-width:1;" x1="23.9551" x2="114.6421" y1="112.4297" y2="112.4297"/><text fill="#000000" font-family="sans-serif" font-size="13" lengthAdjust="spacing" textLength="72.687" x="30.9551" y="107.3638">Enter Input</text></g><g class="message" data-participant-1="IH" data-participant-2="SE"><polygon fill="#181818" points="242.3145,137.5625,252.3145,141.5625,242.3145,145.5625,246.3145,141.5625" style="stroke:#181818;stroke-width:1;"/><line style="stroke:#181818;stroke-width:1;" x1="120.6421" x2="248.3145" y1="141.5625" y2="141.5625"/><text fill="#000000" font-family="sans-serif" font-size="13" lengthAdjust="spacing" textLength="87.623" x="127.6421" y="136.4966">Process Input</text></g><g class="message" data-participant-1="SE" data-participant-2="SE"><line style="stroke:#181818;stroke-width:1;" x1="254.3145" x2="296.3145" y1="170.6953" y2="170.6953"/><line style="stroke:#181818;stroke-width:1;" x1="296.3145" x2="296.3145" y1="170.6953" y2="183.6953"/><line style="stroke:#181818;stroke-width:1;" x1="255.3145" x2="296.3145" y1="183.6953" y2="183.6953"/><polygon fill="#181818" points="265.3145,179.6953,255.3145,183.6953,265.3145,187.6953,261.3145,183.6953" style="stroke:#181818;stroke-width:1;"/><text fill="#000000" font-family="sans-serif" font-size="13" lengthAdjust="spacing" textLength="91.9585" x="261.3145" y="165.6294">Evaluate Data</text></g><g class="message" data-participant-1="SE" data-participant-2="RG"><polygon fill="#181818" points="389.3647,208.8281,399.3647,212.8281,389.3647,216.8281,393.3647,212.8281" style="stroke:#181818;stroke-width:1;"/><line style="stroke:#181818;stroke-width:1;" x1="254.3145" x2="395.3647" y1="212.8281" y2="212.8281"/><text fill="#000000" font-family="sans-serif" font-size="13" lengthAdjust="spacing" textLength="108.5259" x="261.3145" y="207.7622">Generate Report</text></g><g class="message" data-participant-1="RG" data-participant-2="User"><polygon fill="#181818" points="34.9551,237.9609,24.9551,241.9609,34.9551,245.9609,30.9551,241.9609" style="stroke:#181818;stroke-width:1;"/><line style="stroke:#181818;stroke-width:1;" x1="28.9551" x2="400.3647" y1="241.9609" y2="241.9609"/><text fill="#000000" font-family="sans-serif" font-size="13" lengthAdjust="spacing" textLength="95.729" x="40.9551" y="236.895">Display Report</text></g><!--SRC=[LOqn3iCW34LtJc5bxmKOEWKHjWhK0rYfXqYK8EDKokqBAQcKqSzF_-4iAyEp4AkCBCkyP4m2Wqjv4vWmlIBn05Z0JLSZx4Ne3UQ3SSCwSaZ1N2LFUMK1IuduBtchL2l2xLvNDPWazJYAoasD1gFXmUjCfNGUpCbxa614mSwzrMU3uDTKthPFwsWObv8Zxltr1G00]--></g></svg>