<svg xmlns="http://www.w3.org/2000/svg" xmlns:xlink="http://www.w3.org/1999/xlink" contentStyleType="text/css" data-diagram-type="CLASS" height="852px" preserveAspectRatio="none" style="width:1379px;height:852px;background:#FFFFFF;" version="1.1" viewBox="0 0 1379 852" width="1379px" zoomAndPan="magnify"><defs/><g><!--class Order--><g class="entity" data-entity="Order" data-source-line="1" data-uid="ent0002" id="entity_Order"><rect fill="#F1F1F1" height="178.375" rx="2.5" ry="2.5" style="stroke:#181818;stroke-width:0.5;" width="311.5234" x="630.76" y="147.59"/><ellipse cx="762.2561" cy="163.59" fill="#ADD1B2" rx="11" ry="11" style="stroke:#181818;stroke-width:1;"/><path d="M765.2248,169.2306 Q764.6467,169.5275 764.0061,169.6681 Q763.3655,169.8244 762.6623,169.8244 Q760.1623,169.8244 758.8342,168.1837 Q757.5217,166.5275 757.5217,163.4025 Q757.5217,160.2775 758.8342,158.6212 Q760.1623,156.965 762.6623,156.965 Q763.3655,156.965 764.0061,157.1212 Q764.6623,157.2775 765.2248,157.5744 L765.2248,160.2931 Q764.5998,159.715 764.0061,159.4494 Q763.4123,159.1681 762.7873,159.1681 Q761.4436,159.1681 760.7561,160.2462 Q760.0686,161.3087 760.0686,163.4025 Q760.0686,165.4962 760.7561,166.5744 Q761.4436,167.6369 762.7873,167.6369 Q763.4123,167.6369 764.0061,167.3712 Q764.5998,167.09 765.2248,166.5119 L765.2248,169.2306 Z " fill="#000000"/><text fill="#000000" font-family="sans-serif" font-size="14" lengthAdjust="spacing" textLength="40.0313" x="782.7561" y="168.4367">Order</text><line style="stroke:#181818;stroke-width:0.5;" x1="631.76" x2="941.2834" y1="179.59" y2="179.59"/><rect fill="none" height="6" style="stroke:#C82930;stroke-width:1;" width="6" x="638.76" y="190.2384"/><text fill="#000000" font-family="sans-serif" font-size="14" lengthAdjust="spacing" textLength="101.541" x="650.76" y="196.5851">orderId: String</text><rect fill="none" height="6" style="stroke:#C82930;stroke-width:1;" width="6" x="638.76" y="206.5353"/><text fill="#000000" font-family="sans-serif" font-size="14" lengthAdjust="spacing" textLength="93.9668" x="650.76" y="212.882">status: String</text><rect fill="none" height="6" style="stroke:#C82930;stroke-width:1;" width="6" x="638.76" y="222.8322"/><text fill="#000000" font-family="sans-serif" font-size="14" lengthAdjust="spacing" textLength="145.8037" x="650.76" y="229.1789">totalAmount: Double</text><rect fill="none" height="6" style="stroke:#C82930;stroke-width:1;" width="6" x="638.76" y="239.1291"/><text fill="#000000" font-family="sans-serif" font-size="14" lengthAdjust="spacing" textLength="111.3301" x="650.76" y="245.4757">createdAt: Date</text><rect fill="none" height="6" style="stroke:#C82930;stroke-width:1;" width="6" x="638.76" y="255.4259"/><text fill="#000000" font-family="sans-serif" font-size="14" lengthAdjust="spacing" textLength="115.9102" x="650.76" y="261.7726">updatedAt: Date</text><line style="stroke:#181818;stroke-width:0.5;" x1="631.76" x2="941.2834" y1="269.0744" y2="269.0744"/><ellipse cx="641.76" cy="282.7228" fill="#84BE84" rx="3" ry="3" style="stroke:#038048;stroke-width:1;"/><text fill="#000000" font-family="sans-serif" font-size="14" lengthAdjust="spacing" textLength="175.376" x="650.76" y="286.0695">calculateTotals(): Double</text><ellipse cx="641.76" cy="299.0197" fill="#84BE84" rx="3" ry="3" style="stroke:#038048;stroke-width:1;"/><text fill="#000000" font-family="sans-serif" font-size="14" lengthAdjust="spacing" textLength="149.3584" x="650.76" y="302.3664">canCancel(): Boolean</text><ellipse cx="641.76" cy="315.3166" fill="#84BE84" rx="3" ry="3" style="stroke:#038048;stroke-width:1;"/><text fill="#000000" font-family="sans-serif" font-size="14" lengthAdjust="spacing" textLength="285.5234" x="650.76" y="318.6632">transitionStatus(newStatus: String): void</text></g><!--class OrderItem--><g class="entity" data-entity="OrderItem" data-source-line="12" data-uid="ent0003" id="entity_OrderItem"><rect fill="#F1F1F1" height="113.1875" rx="2.5" ry="2.5" style="stroke:#181818;stroke-width:0.5;" width="171.4141" x="417.82" y="394.12"/><ellipse cx="463.3268" cy="410.12" fill="#ADD1B2" rx="11" ry="11" style="stroke:#181818;stroke-width:1;"/><path d="M466.2956,415.7606 Q465.7175,416.0575 465.0768,416.1981 Q464.4362,416.3544 463.7331,416.3544 Q461.2331,416.3544 459.905,414.7137 Q458.5925,413.0575 458.5925,409.9325 Q458.5925,406.8075 459.905,405.1512 Q461.2331,403.495 463.7331,403.495 Q464.4362,403.495 465.0768,403.6512 Q465.7331,403.8075 466.2956,404.1044 L466.2956,406.8231 Q465.6706,406.245 465.0768,405.9794 Q464.4831,405.6981 463.8581,405.6981 Q462.5143,405.6981 461.8268,406.7762 Q461.1393,407.8387 461.1393,409.9325 Q461.1393,412.0262 461.8268,413.1044 Q462.5143,414.1669 463.8581,414.1669 Q464.4831,414.1669 465.0768,413.9012 Q465.6706,413.62 466.2956,413.0419 L466.2956,415.7606 Z " fill="#000000"/><text fill="#000000" font-family="sans-serif" font-size="14" lengthAdjust="spacing" textLength="71.9004" x="483.8268" y="414.9667">OrderItem</text><line style="stroke:#181818;stroke-width:0.5;" x1="418.82" x2="588.2341" y1="426.12" y2="426.12"/><rect fill="none" height="6" style="stroke:#C82930;stroke-width:1;" width="6" x="425.82" y="436.7684"/><text fill="#000000" font-family="sans-serif" font-size="14" lengthAdjust="spacing" textLength="118.1182" x="437.82" y="443.1151">productId: String</text><rect fill="none" height="6" style="stroke:#C82930;stroke-width:1;" width="6" x="425.82" y="453.0653"/><text fill="#000000" font-family="sans-serif" font-size="14" lengthAdjust="spacing" textLength="117.8926" x="437.82" y="459.412">quantity: Integer</text><rect fill="none" height="6" style="stroke:#C82930;stroke-width:1;" width="6" x="425.82" y="469.3622"/><text fill="#000000" font-family="sans-serif" font-size="14" lengthAdjust="spacing" textLength="120.2988" x="437.82" y="475.7089">unitPrice: Double</text><rect fill="none" height="6" style="stroke:#C82930;stroke-width:1;" width="6" x="425.82" y="485.6591"/><text fill="#000000" font-family="sans-serif" font-size="14" lengthAdjust="spacing" textLength="145.4141" x="437.82" y="492.0057">optionTotals: Double</text><line style="stroke:#181818;stroke-width:0.5;" x1="418.82" x2="588.2341" y1="499.3075" y2="499.3075"/></g><!--class OptionSelection--><g class="entity" data-entity="OptionSelection" data-source-line="19" data-uid="ent0004" id="entity_OptionSelection"><rect fill="#F1F1F1" height="80.5938" rx="2.5" ry="2.5" style="stroke:#181818;stroke-width:0.5;" width="190.8418" x="408.1" y="591.75"/><ellipse cx="444.5203" cy="607.75" fill="#ADD1B2" rx="11" ry="11" style="stroke:#181818;stroke-width:1;"/><path d="M447.489,613.3906 Q446.9109,613.6875 446.2703,613.8281 Q445.6296,613.9844 444.9265,613.9844 Q442.4265,613.9844 441.0984,612.3438 Q439.7859,610.6875 439.7859,607.5625 Q439.7859,604.4375 441.0984,602.7813 Q442.4265,601.125 444.9265,601.125 Q445.6296,601.125 446.2703,601.2813 Q446.9265,601.4375 447.489,601.7344 L447.489,604.4531 Q446.864,603.875 446.2703,603.6094 Q445.6765,603.3281 445.0515,603.3281 Q443.7078,603.3281 443.0203,604.4063 Q442.3328,605.4688 442.3328,607.5625 Q442.3328,609.6563 443.0203,610.7344 Q443.7078,611.7969 445.0515,611.7969 Q445.6765,611.7969 446.2703,611.5313 Q446.864,611.25 447.489,610.6719 L447.489,613.3906 Z " fill="#000000"/><text fill="#000000" font-family="sans-serif" font-size="14" lengthAdjust="spacing" textLength="111.2412" x="463.2803" y="612.5967">OptionSelection</text><line style="stroke:#181818;stroke-width:0.5;" x1="409.1" x2="597.9418" y1="623.75" y2="623.75"/><rect fill="none" height="6" style="stroke:#C82930;stroke-width:1;" width="6" x="416.1" y="634.3984"/><text fill="#000000" font-family="sans-serif" font-size="14" lengthAdjust="spacing" textLength="164.8418" x="428.1" y="640.7451">productOptionId: String</text><rect fill="none" height="6" style="stroke:#C82930;stroke-width:1;" width="6" x="416.1" y="650.6953"/><text fill="#000000" font-family="sans-serif" font-size="14" lengthAdjust="spacing" textLength="155.0732" x="428.1" y="657.042">pricingImpact: Double</text><line style="stroke:#181818;stroke-width:0.5;" x1="409.1" x2="597.9418" y1="664.3438" y2="664.3438"/></g><!--class ProductOption--><g class="entity" data-entity="ProductOption" data-source-line="24" data-uid="ent0005" id="entity_ProductOption"><rect fill="#F1F1F1" height="96.8906" rx="2.5" ry="2.5" style="stroke:#181818;stroke-width:0.5;" width="154.7891" x="426.13" y="748.64"/><ellipse cx="451.19" cy="764.64" fill="#ADD1B2" rx="11" ry="11" style="stroke:#181818;stroke-width:1;"/><path d="M454.1587,770.2806 Q453.5806,770.5775 452.94,770.7181 Q452.2993,770.8744 451.5962,770.8744 Q449.0962,770.8744 447.7681,769.2338 Q446.4556,767.5775 446.4556,764.4525 Q446.4556,761.3275 447.7681,759.6713 Q449.0962,758.015 451.5962,758.015 Q452.2993,758.015 452.94,758.1713 Q453.5962,758.3275 454.1587,758.6244 L454.1587,761.3431 Q453.5337,760.765 452.94,760.4994 Q452.3462,760.2181 451.7212,760.2181 Q450.3775,760.2181 449.69,761.2963 Q449.0025,762.3588 449.0025,764.4525 Q449.0025,766.5463 449.69,767.6244 Q450.3775,768.6869 451.7212,768.6869 Q452.3462,768.6869 452.94,768.4213 Q453.5337,768.14 454.1587,767.5619 L454.1587,770.2806 Z " fill="#000000"/><text fill="#000000" font-family="sans-serif" font-size="14" lengthAdjust="spacing" textLength="100.4336" x="467.4255" y="769.4867">ProductOption</text><line style="stroke:#181818;stroke-width:0.5;" x1="427.13" x2="579.9191" y1="780.64" y2="780.64"/><rect fill="none" height="6" style="stroke:#C82930;stroke-width:1;" width="6" x="434.13" y="791.2884"/><text fill="#000000" font-family="sans-serif" font-size="14" lengthAdjust="spacing" textLength="108.2334" x="446.13" y="797.6351">optionId: String</text><rect fill="none" height="6" style="stroke:#C82930;stroke-width:1;" width="6" x="434.13" y="807.5853"/><text fill="#000000" font-family="sans-serif" font-size="14" lengthAdjust="spacing" textLength="90.6514" x="446.13" y="813.932">name: String</text><rect fill="none" height="6" style="stroke:#C82930;stroke-width:1;" width="6" x="434.13" y="823.8822"/><text fill="#000000" font-family="sans-serif" font-size="14" lengthAdjust="spacing" textLength="128.7891" x="446.13" y="830.2289">description: String</text><line style="stroke:#181818;stroke-width:0.5;" x1="427.13" x2="579.9191" y1="837.5306" y2="837.5306"/></g><!--class Payment--><g class="entity" data-entity="Payment" data-source-line="30" data-uid="ent0006" id="entity_Payment"><rect fill="#F1F1F1" height="113.1875" rx="2.5" ry="2.5" style="stroke:#181818;stroke-width:0.5;" width="204.6982" x="178.18" y="394.12"/><ellipse cx="245.3192" cy="410.12" fill="#ADD1B2" rx="11" ry="11" style="stroke:#181818;stroke-width:1;"/><path d="M248.2879,415.7606 Q247.7098,416.0575 247.0692,416.1981 Q246.4285,416.3544 245.7254,416.3544 Q243.2254,416.3544 241.8973,414.7137 Q240.5848,413.0575 240.5848,409.9325 Q240.5848,406.8075 241.8973,405.1512 Q243.2254,403.495 245.7254,403.495 Q246.4285,403.495 247.0692,403.6512 Q247.7254,403.8075 248.2879,404.1044 L248.2879,406.8231 Q247.6629,406.245 247.0692,405.9794 Q246.4754,405.6981 245.8504,405.6981 Q244.5067,405.6981 243.8192,406.7762 Q243.1317,407.8387 243.1317,409.9325 Q243.1317,412.0262 243.8192,413.1044 Q244.5067,414.1669 245.8504,414.1669 Q246.4754,414.1669 247.0692,413.9012 Q247.6629,413.62 248.2879,413.0419 L248.2879,415.7606 Z " fill="#000000"/><text fill="#000000" font-family="sans-serif" font-size="14" lengthAdjust="spacing" textLength="61.9199" x="265.8192" y="414.9667">Payment</text><line style="stroke:#181818;stroke-width:0.5;" x1="179.18" x2="381.8782" y1="426.12" y2="426.12"/><rect fill="none" height="6" style="stroke:#C82930;stroke-width:1;" width="6" x="186.18" y="436.7684"/><text fill="#000000" font-family="sans-serif" font-size="14" lengthAdjust="spacing" textLength="126.3281" x="198.18" y="443.1151">paymentId: String</text><rect fill="none" height="6" style="stroke:#C82930;stroke-width:1;" width="6" x="186.18" y="453.0653"/><text fill="#000000" font-family="sans-serif" font-size="14" lengthAdjust="spacing" textLength="112.793" x="198.18" y="459.412">amount: Double</text><rect fill="none" height="6" style="stroke:#C82930;stroke-width:1;" width="6" x="186.18" y="469.3622"/><text fill="#000000" font-family="sans-serif" font-size="14" lengthAdjust="spacing" textLength="178.6982" x="198.18" y="475.7089">gatewayResponse: String</text><rect fill="none" height="6" style="stroke:#C82930;stroke-width:1;" width="6" x="186.18" y="485.6591"/><text fill="#000000" font-family="sans-serif" font-size="14" lengthAdjust="spacing" textLength="168.4648" x="198.18" y="492.0057">idempotencyKey: String</text><line style="stroke:#181818;stroke-width:0.5;" x1="179.18" x2="381.8782" y1="499.3075" y2="499.3075"/></g><!--class Transaction--><g class="entity" data-entity="Transaction" data-source-line="37" data-uid="ent0007" id="entity_Transaction"><rect fill="#F1F1F1" height="113.1875" rx="2.5" ry="2.5" style="stroke:#181818;stroke-width:0.5;" width="169.0488" x="7" y="575.45"/><ellipse cx="46.7056" cy="591.45" fill="#ADD1B2" rx="11" ry="11" style="stroke:#181818;stroke-width:1;"/><path d="M49.6744,597.0906 Q49.0962,597.3875 48.4556,597.5281 Q47.815,597.6844 47.1119,597.6844 Q44.6119,597.6844 43.2837,596.0438 Q41.9712,594.3875 41.9712,591.2625 Q41.9712,588.1375 43.2837,586.4813 Q44.6119,584.825 47.1119,584.825 Q47.815,584.825 48.4556,584.9813 Q49.1119,585.1375 49.6744,585.4344 L49.6744,588.1531 Q49.0494,587.575 48.4556,587.3094 Q47.8619,587.0281 47.2369,587.0281 Q45.8931,587.0281 45.2056,588.1063 Q44.5181,589.1688 44.5181,591.2625 Q44.5181,593.3563 45.2056,594.4344 Q45.8931,595.4969 47.2369,595.4969 Q47.8619,595.4969 48.4556,595.2313 Q49.0494,594.95 49.6744,594.3719 L49.6744,597.0906 Z " fill="#000000"/><text fill="#000000" font-family="sans-serif" font-size="14" lengthAdjust="spacing" textLength="82.1475" x="66.1958" y="596.2967">Transaction</text><line style="stroke:#181818;stroke-width:0.5;" x1="8" x2="175.0488" y1="607.45" y2="607.45"/><rect fill="none" height="6" style="stroke:#C82930;stroke-width:1;" width="6" x="15" y="618.0984"/><text fill="#000000" font-family="sans-serif" font-size="14" lengthAdjust="spacing" textLength="143.0488" x="27" y="624.4451">transactionId: String</text><rect fill="none" height="6" style="stroke:#C82930;stroke-width:1;" width="6" x="15" y="634.3953"/><text fill="#000000" font-family="sans-serif" font-size="14" lengthAdjust="spacing" textLength="82.2227" x="27" y="640.742">type: String</text><rect fill="none" height="6" style="stroke:#C82930;stroke-width:1;" width="6" x="15" y="650.6922"/><text fill="#000000" font-family="sans-serif" font-size="14" lengthAdjust="spacing" textLength="112.793" x="27" y="657.0389">amount: Double</text><rect fill="none" height="6" style="stroke:#C82930;stroke-width:1;" width="6" x="15" y="666.9891"/><text fill="#000000" font-family="sans-serif" font-size="14" lengthAdjust="spacing" textLength="93.9668" x="27" y="673.3357">status: String</text><line style="stroke:#181818;stroke-width:0.5;" x1="8" x2="175.0488" y1="680.6375" y2="680.6375"/></g><!--class Refund--><g class="entity" data-entity="Refund" data-source-line="44" data-uid="ent0008" id="entity_Refund"><rect fill="#F1F1F1" height="113.1875" rx="2.5" ry="2.5" style="stroke:#181818;stroke-width:0.5;" width="155.3018" x="210.87" y="575.45"/><ellipse cx="259.3197" cy="591.45" fill="#ADD1B2" rx="11" ry="11" style="stroke:#181818;stroke-width:1;"/><path d="M262.2885,597.0906 Q261.7103,597.3875 261.0697,597.5281 Q260.4291,597.6844 259.726,597.6844 Q257.226,597.6844 255.8978,596.0438 Q254.5853,594.3875 254.5853,591.2625 Q254.5853,588.1375 255.8978,586.4813 Q257.226,584.825 259.726,584.825 Q260.4291,584.825 261.0697,584.9813 Q261.726,585.1375 262.2885,585.4344 L262.2885,588.1531 Q261.6635,587.575 261.0697,587.3094 Q260.476,587.0281 259.851,587.0281 Q258.5072,587.0281 257.8197,588.1063 Q257.1322,589.1688 257.1322,591.2625 Q257.1322,593.3563 257.8197,594.4344 Q258.5072,595.4969 259.851,595.4969 Q260.476,595.4969 261.0697,595.2313 Q261.6635,594.95 262.2885,594.3719 L262.2885,597.0906 Z " fill="#000000"/><text fill="#000000" font-family="sans-serif" font-size="14" lengthAdjust="spacing" textLength="49.9023" x="279.8197" y="596.2967">Refund</text><line style="stroke:#181818;stroke-width:0.5;" x1="211.87" x2="365.1718" y1="607.45" y2="607.45"/><rect fill="none" height="6" style="stroke:#C82930;stroke-width:1;" width="6" x="218.87" y="618.0984"/><text fill="#000000" font-family="sans-serif" font-size="14" lengthAdjust="spacing" textLength="109.8945" x="230.87" y="624.4451">refundId: String</text><rect fill="none" height="6" style="stroke:#C82930;stroke-width:1;" width="6" x="218.87" y="634.3953"/><text fill="#000000" font-family="sans-serif" font-size="14" lengthAdjust="spacing" textLength="98.6289" x="230.87" y="640.742">reason: String</text><rect fill="none" height="6" style="stroke:#C82930;stroke-width:1;" width="6" x="218.87" y="650.6922"/><text fill="#000000" font-family="sans-serif" font-size="14" lengthAdjust="spacing" textLength="93.9668" x="230.87" y="657.0389">status: String</text><rect fill="none" height="6" style="stroke:#C82930;stroke-width:1;" width="6" x="218.87" y="666.9891"/><text fill="#000000" font-family="sans-serif" font-size="14" lengthAdjust="spacing" textLength="129.3018" x="230.87" y="673.3357">processedAt: Date</text><line style="stroke:#181818;stroke-width:0.5;" x1="211.87" x2="365.1718" y1="680.6375" y2="680.6375"/></g><!--class Delivery--><g class="entity" data-entity="Delivery" data-source-line="51" data-uid="ent0009" id="entity_Delivery"><rect fill="#F1F1F1" height="129.4844" rx="2.5" ry="2.5" style="stroke:#181818;stroke-width:0.5;" width="323.8486" x="624.6" y="385.97"/><ellipse cx="753.2182" cy="401.97" fill="#ADD1B2" rx="11" ry="11" style="stroke:#181818;stroke-width:1;"/><path d="M756.1869,407.6106 Q755.6088,407.9075 754.9682,408.0481 Q754.3275,408.2044 753.6244,408.2044 Q751.1244,408.2044 749.7963,406.5637 Q748.4838,404.9075 748.4838,401.7825 Q748.4838,398.6575 749.7963,397.0012 Q751.1244,395.345 753.6244,395.345 Q754.3275,395.345 754.9682,395.5012 Q755.6244,395.6575 756.1869,395.9544 L756.1869,398.6731 Q755.5619,398.095 754.9682,397.8294 Q754.3744,397.5481 753.7494,397.5481 Q752.4057,397.5481 751.7182,398.6262 Q751.0307,399.6887 751.0307,401.7825 Q751.0307,403.8762 751.7182,404.9544 Q752.4057,406.0169 753.7494,406.0169 Q754.3744,406.0169 754.9682,405.7512 Q755.5619,405.47 756.1869,404.8919 L756.1869,407.6106 Z " fill="#000000"/><text fill="#000000" font-family="sans-serif" font-size="14" lengthAdjust="spacing" textLength="58.1123" x="773.7182" y="406.8167">Delivery</text><line style="stroke:#181818;stroke-width:0.5;" x1="625.6" x2="947.4486" y1="417.97" y2="417.97"/><rect fill="none" height="6" style="stroke:#C82930;stroke-width:1;" width="6" x="632.6" y="428.6184"/><text fill="#000000" font-family="sans-serif" font-size="14" lengthAdjust="spacing" textLength="106.2578" x="644.6" y="434.9651">address: String</text><rect fill="none" height="6" style="stroke:#C82930;stroke-width:1;" width="6" x="632.6" y="444.9153"/><text fill="#000000" font-family="sans-serif" font-size="14" lengthAdjust="spacing" textLength="69.6035" x="644.6" y="451.262">ETA: Date</text><rect fill="none" height="6" style="stroke:#C82930;stroke-width:1;" width="6" x="632.6" y="461.2122"/><text fill="#000000" font-family="sans-serif" font-size="14" lengthAdjust="spacing" textLength="80.9307" x="644.6" y="467.5589">fee: Double</text><line style="stroke:#181818;stroke-width:0.5;" x1="625.6" x2="947.4486" y1="474.8606" y2="474.8606"/><ellipse cx="635.6" cy="488.5091" fill="#84BE84" rx="3" ry="3" style="stroke:#038048;stroke-width:1;"/><text fill="#000000" font-family="sans-serif" font-size="14" lengthAdjust="spacing" textLength="297.8486" x="644.6" y="491.8557">updateLocation(newLocation: String): void</text><ellipse cx="635.6" cy="504.8059" fill="#84BE84" rx="3" ry="3" style="stroke:#038048;stroke-width:1;"/><text fill="#000000" font-family="sans-serif" font-size="14" lengthAdjust="spacing" textLength="115.1104" x="644.6" y="508.1526">complete(): void</text></g><!--class Courier--><g class="entity" data-entity="Courier" data-source-line="59" data-uid="ent0010" id="entity_Courier"><rect fill="#F1F1F1" height="96.8906" rx="2.5" ry="2.5" style="stroke:#181818;stroke-width:0.5;" width="148.6025" x="712.22" y="583.6"/><ellipse cx="756.657" cy="599.6" fill="#ADD1B2" rx="11" ry="11" style="stroke:#181818;stroke-width:1;"/><path d="M759.6258,605.2406 Q759.0476,605.5375 758.407,605.6781 Q757.7664,605.8344 757.0633,605.8344 Q754.5633,605.8344 753.2351,604.1937 Q751.9226,602.5375 751.9226,599.4125 Q751.9226,596.2875 753.2351,594.6312 Q754.5633,592.975 757.0633,592.975 Q757.7664,592.975 758.407,593.1312 Q759.0633,593.2875 759.6258,593.5844 L759.6258,596.3031 Q759.0008,595.725 758.407,595.4594 Q757.8133,595.1781 757.1883,595.1781 Q755.8445,595.1781 755.157,596.2562 Q754.4695,597.3187 754.4695,599.4125 Q754.4695,601.5062 755.157,602.5844 Q755.8445,603.6469 757.1883,603.6469 Q757.8133,603.6469 758.407,603.3812 Q759.0008,603.1 759.6258,602.5219 L759.6258,605.2406 Z " fill="#000000"/><text fill="#000000" font-family="sans-serif" font-size="14" lengthAdjust="spacing" textLength="51.2285" x="777.157" y="604.4467">Courier</text><line style="stroke:#181818;stroke-width:0.5;" x1="713.22" x2="859.8225" y1="615.6" y2="615.6"/><rect fill="none" height="6" style="stroke:#C82930;stroke-width:1;" width="6" x="720.22" y="626.2484"/><text fill="#000000" font-family="sans-serif" font-size="14" lengthAdjust="spacing" textLength="90.6514" x="732.22" y="632.5951">name: String</text><rect fill="none" height="6" style="stroke:#C82930;stroke-width:1;" width="6" x="720.22" y="642.5453"/><text fill="#000000" font-family="sans-serif" font-size="14" lengthAdjust="spacing" textLength="94.7598" x="732.22" y="648.892">phone: String</text><rect fill="none" height="6" style="stroke:#C82930;stroke-width:1;" width="6" x="720.22" y="658.8422"/><text fill="#000000" font-family="sans-serif" font-size="14" lengthAdjust="spacing" textLength="122.6025" x="732.22" y="665.1889">providerId: String</text><line style="stroke:#181818;stroke-width:0.5;" x1="713.22" x2="859.8225" y1="672.4906" y2="672.4906"/></g><!--class TimelineEvent--><g class="entity" data-entity="TimelineEvent" data-source-line="65" data-uid="ent0011" id="entity_TimelineEvent"><rect fill="#F1F1F1" height="113.1875" rx="2.5" ry="2.5" style="stroke:#181818;stroke-width:0.5;" width="144.8018" x="983.12" y="394.12"/><ellipse cx="1003.8518" cy="410.12" fill="#ADD1B2" rx="11" ry="11" style="stroke:#181818;stroke-width:1;"/><path d="M1006.8205,415.7606 Q1006.2424,416.0575 1005.6018,416.1981 Q1004.9612,416.3544 1004.258,416.3544 Q1001.758,416.3544 1000.4299,414.7137 Q999.1174,413.0575 999.1174,409.9325 Q999.1174,406.8075 1000.4299,405.1512 Q1001.758,403.495 1004.258,403.495 Q1004.9612,403.495 1005.6018,403.6512 Q1006.258,403.8075 1006.8205,404.1044 L1006.8205,406.8231 Q1006.1955,406.245 1005.6018,405.9794 Q1005.008,405.6981 1004.383,405.6981 Q1003.0393,405.6981 1002.3518,406.7762 Q1001.6643,407.8387 1001.6643,409.9325 Q1001.6643,412.0262 1002.3518,413.1044 Q1003.0393,414.1669 1004.383,414.1669 Q1005.008,414.1669 1005.6018,413.9012 Q1006.1955,413.62 1006.8205,413.0419 L1006.8205,415.7606 Z " fill="#000000"/><text fill="#000000" font-family="sans-serif" font-size="14" lengthAdjust="spacing" textLength="100.0645" x="1019.1255" y="414.9667">TimelineEvent</text><line style="stroke:#181818;stroke-width:0.5;" x1="984.12" x2="1126.9218" y1="426.12" y2="426.12"/><rect fill="none" height="6" style="stroke:#C82930;stroke-width:1;" width="6" x="991.12" y="436.7684"/><text fill="#000000" font-family="sans-serif" font-size="14" lengthAdjust="spacing" textLength="103.8379" x="1003.12" y="443.1151">eventId: String</text><rect fill="none" height="6" style="stroke:#C82930;stroke-width:1;" width="6" x="991.12" y="453.0653"/><text fill="#000000" font-family="sans-serif" font-size="14" lengthAdjust="spacing" textLength="93.9668" x="1003.12" y="459.412">status: String</text><rect fill="none" height="6" style="stroke:#C82930;stroke-width:1;" width="6" x="991.12" y="469.3622"/><text fill="#000000" font-family="sans-serif" font-size="14" lengthAdjust="spacing" textLength="87.0352" x="1003.12" y="475.7089">actor: String</text><rect fill="none" height="6" style="stroke:#C82930;stroke-width:1;" width="6" x="991.12" y="485.6591"/><text fill="#000000" font-family="sans-serif" font-size="14" lengthAdjust="spacing" textLength="118.8018" x="1003.12" y="492.0057">metadata: String</text><line style="stroke:#181818;stroke-width:0.5;" x1="984.12" x2="1126.9218" y1="499.3075" y2="499.3075"/></g><!--class AppliedCoupon--><g class="entity" data-entity="AppliedCoupon" data-source-line="72" data-uid="ent0012" id="entity_AppliedCoupon"><rect fill="#F1F1F1" height="96.8906" rx="2.5" ry="2.5" style="stroke:#181818;stroke-width:0.5;" width="209.1895" x="1162.93" y="402.26"/><ellipse cx="1210.1903" cy="418.26" fill="#ADD1B2" rx="11" ry="11" style="stroke:#181818;stroke-width:1;"/><path d="M1213.159,423.9006 Q1212.5809,424.1975 1211.9403,424.3381 Q1211.2996,424.4944 1210.5965,424.4944 Q1208.0965,424.4944 1206.7684,422.8538 Q1205.4559,421.1975 1205.4559,418.0725 Q1205.4559,414.9475 1206.7684,413.2913 Q1208.0965,411.635 1210.5965,411.635 Q1211.2996,411.635 1211.9403,411.7913 Q1212.5965,411.9475 1213.159,412.2444 L1213.159,414.9631 Q1212.534,414.385 1211.9403,414.1194 Q1211.3465,413.8381 1210.7215,413.8381 Q1209.3778,413.8381 1208.6903,414.9163 Q1208.0028,415.9788 1208.0028,418.0725 Q1208.0028,420.1663 1208.6903,421.2444 Q1209.3778,422.3069 1210.7215,422.3069 Q1211.3465,422.3069 1211.9403,422.0413 Q1212.534,421.76 1213.159,421.1819 L1213.159,423.9006 Z " fill="#000000"/><text fill="#000000" font-family="sans-serif" font-size="14" lengthAdjust="spacing" textLength="106.1689" x="1230.6903" y="423.1067">AppliedCoupon</text><line style="stroke:#181818;stroke-width:0.5;" x1="1163.93" x2="1371.1195" y1="434.26" y2="434.26"/><rect fill="none" height="6" style="stroke:#C82930;stroke-width:1;" width="6" x="1170.93" y="444.9084"/><text fill="#000000" font-family="sans-serif" font-size="14" lengthAdjust="spacing" textLength="115.4248" x="1182.93" y="451.2551">couponId: String</text><rect fill="none" height="6" style="stroke:#C82930;stroke-width:1;" width="6" x="1170.93" y="461.2053"/><text fill="#000000" font-family="sans-serif" font-size="14" lengthAdjust="spacing" textLength="157.876" x="1182.93" y="467.552">discountValue: Double</text><rect fill="none" height="6" style="stroke:#C82930;stroke-width:1;" width="6" x="1170.93" y="477.5022"/><text fill="#000000" font-family="sans-serif" font-size="14" lengthAdjust="spacing" textLength="183.1895" x="1182.93" y="483.8489">conditionsMatched: String</text><line style="stroke:#181818;stroke-width:0.5;" x1="1163.93" x2="1371.1195" y1="491.1506" y2="491.1506"/></g><!--class OrderRepository--><g class="entity" data-entity="OrderRepository" data-source-line="78" data-uid="ent0013" id="entity_OrderRepository"><rect fill="#F1F1F1" height="80.5938" rx="2.5" ry="2.5" style="stroke:#181818;stroke-width:0.5;" width="245.1465" x="663.95" y="7"/><ellipse cx="724.7215" cy="23" fill="#ADD1B2" rx="11" ry="11" style="stroke:#181818;stroke-width:1;"/><path d="M727.6902,28.6406 Q727.1121,28.9375 726.4715,29.0781 Q725.8309,29.2344 725.1277,29.2344 Q722.6277,29.2344 721.2996,27.5938 Q719.9871,25.9375 719.9871,22.8125 Q719.9871,19.6875 721.2996,18.0313 Q722.6277,16.375 725.1277,16.375 Q725.8309,16.375 726.4715,16.5313 Q727.1277,16.6875 727.6902,16.9844 L727.6902,19.7031 Q727.0652,19.125 726.4715,18.8594 Q725.8777,18.5781 725.2527,18.5781 Q723.909,18.5781 723.2215,19.6563 Q722.534,20.7188 722.534,22.8125 Q722.534,24.9063 723.2215,25.9844 Q723.909,27.0469 725.2527,27.0469 Q725.8777,27.0469 726.4715,26.7813 Q727.0652,26.5 727.6902,25.9219 L727.6902,28.6406 Z " fill="#000000"/><text fill="#000000" font-family="sans-serif" font-size="14" lengthAdjust="spacing" textLength="115.1035" x="745.2215" y="27.8467">OrderRepository</text><line style="stroke:#181818;stroke-width:0.5;" x1="664.95" x2="908.0965" y1="39" y2="39"/><line style="stroke:#181818;stroke-width:0.5;" x1="664.95" x2="908.0965" y1="47" y2="47"/><ellipse cx="674.95" cy="60.6484" fill="#84BE84" rx="3" ry="3" style="stroke:#038048;stroke-width:1;"/><text fill="#000000" font-family="sans-serif" font-size="14" lengthAdjust="spacing" textLength="169.2646" x="683.95" y="63.9951">save(order: Order): void</text><ellipse cx="674.95" cy="76.9453" fill="#84BE84" rx="3" ry="3" style="stroke:#038048;stroke-width:1;"/><text fill="#000000" font-family="sans-serif" font-size="14" lengthAdjust="spacing" textLength="219.1465" x="683.95" y="80.292">findById(orderId: String): Order</text></g><!--class PaymentRepository--><g class="entity" data-entity="PaymentRepository" data-source-line="83" data-uid="ent0014" id="entity_PaymentRepository"><rect fill="#F1F1F1" height="80.5938" rx="2.5" ry="2.5" style="stroke:#181818;stroke-width:0.5;" width="291.8223" x="134.61" y="196.48"/><ellipse cx="207.775" cy="212.48" fill="#ADD1B2" rx="11" ry="11" style="stroke:#181818;stroke-width:1;"/><path d="M210.7438,218.1206 Q210.1657,218.4175 209.525,218.5581 Q208.8844,218.7144 208.1813,218.7144 Q205.6813,218.7144 204.3532,217.0738 Q203.0407,215.4175 203.0407,212.2925 Q203.0407,209.1675 204.3532,207.5113 Q205.6813,205.855 208.1813,205.855 Q208.8844,205.855 209.525,206.0113 Q210.1813,206.1675 210.7438,206.4644 L210.7438,209.1831 Q210.1188,208.605 209.525,208.3394 Q208.9313,208.0581 208.3063,208.0581 Q206.9625,208.0581 206.275,209.1363 Q205.5875,210.1988 205.5875,212.2925 Q205.5875,214.3863 206.275,215.4644 Q206.9625,216.5269 208.3063,216.5269 Q208.9313,216.5269 209.525,216.2613 Q210.1188,215.98 210.7438,215.4019 L210.7438,218.1206 Z " fill="#000000"/><text fill="#000000" font-family="sans-serif" font-size="14" lengthAdjust="spacing" textLength="136.9922" x="228.275" y="217.3267">PaymentRepository</text><line style="stroke:#181818;stroke-width:0.5;" x1="135.61" x2="425.4323" y1="228.48" y2="228.48"/><line style="stroke:#181818;stroke-width:0.5;" x1="135.61" x2="425.4323" y1="236.48" y2="236.48"/><ellipse cx="145.61" cy="250.1284" fill="#84BE84" rx="3" ry="3" style="stroke:#038048;stroke-width:1;"/><text fill="#000000" font-family="sans-serif" font-size="14" lengthAdjust="spacing" textLength="215.9404" x="154.61" y="253.4751">save(payment: Payment): void</text><ellipse cx="145.61" cy="266.4253" fill="#84BE84" rx="3" ry="3" style="stroke:#038048;stroke-width:1;"/><text fill="#000000" font-family="sans-serif" font-size="14" lengthAdjust="spacing" textLength="265.8223" x="154.61" y="269.772">findById(paymentId: String): Payment</text></g><!--reverse link Order to OrderItem--><g class="link" data-entity-1="Order" data-entity-2="OrderItem" data-source-line="88" data-uid="lnk15" id="link_Order_OrderItem"><path codeLine="88" d="M658.5443,333.6224 C628.0943,356.4224 605.79,373.13 578.26,393.75" fill="none" id="Order-backto-OrderItem" style="stroke:#181818;stroke-width:1;"/><polygon fill="none" points="668.15,326.43,660.9497,326.8243,658.5443,333.6224,665.7446,333.2281,668.15,326.43" style="stroke:#181818;stroke-width:1;"/></g><!--reverse link OrderItem to OptionSelection--><g class="link" data-entity-1="OrderItem" data-entity-2="OptionSelection" data-source-line="89" data-uid="lnk16" id="link_OrderItem_OptionSelection"><path codeLine="89" d="M503.52,519.47 C503.52,546.61 503.52,566.62 503.52,591.26" fill="none" id="OrderItem-backto-OptionSelection" style="stroke:#181818;stroke-width:1;"/><polygon fill="none" points="503.52,507.47,499.52,513.47,503.52,519.47,507.52,513.47,503.52,507.47" style="stroke:#181818;stroke-width:1;"/></g><!--link OptionSelection to ProductOption--><g class="link" data-entity-1="OptionSelection" data-entity-2="ProductOption" data-source-line="90" data-uid="lnk17" id="link_OptionSelection_ProductOption"><path codeLine="90" d="M503.52,672.51 C503.52,695.32 503.52,718.17 503.52,742.26" fill="none" id="OptionSelection-to-ProductOption" style="stroke:#181818;stroke-width:1;"/><polygon fill="#181818" points="503.52,748.26,507.52,739.26,503.52,743.26,499.52,739.26,503.52,748.26" style="stroke:#181818;stroke-width:1;"/></g><!--reverse link Order to AppliedCoupon--><g class="link" data-entity-1="Order" data-entity-2="AppliedCoupon" data-source-line="91" data-uid="lnk18" id="link_Order_AppliedCoupon"><path codeLine="91" d="M953.5945,303.0895 C1017.1345,328.7895 1079.84,355.33 1145.52,385.97 C1156.14,390.92 1167.16,396.31 1178.04,401.79" fill="none" id="Order-backto-AppliedCoupon" style="stroke:#181818;stroke-width:1;"/><polygon fill="none" points="942.47,298.59,946.5324,304.5479,953.5945,303.0895,949.5321,297.1316,942.47,298.59" style="stroke:#181818;stroke-width:1;"/></g><!--reverse link Order to Payment--><g class="link" data-entity-1="Order" data-entity-2="Payment" data-source-line="92" data-uid="lnk19" id="link_Order_Payment"><path codeLine="92" d="M619.4754,296.8334 C548.4354,323.1134 474.99,352.05 400.52,385.97 C394.84,388.56 389.04,391.3 383.22,394.12" fill="none" id="Order-backto-Payment" style="stroke:#181818;stroke-width:1;"/><polygon fill="none" points="630.73,292.67,623.7149,291.0002,619.4754,296.8334,626.4905,298.5032,630.73,292.67" style="stroke:#181818;stroke-width:1;"/></g><!--reverse link Payment to Transaction--><g class="link" data-entity-1="Payment" data-entity-2="Transaction" data-source-line="93" data-uid="lnk20" id="link_Payment_Transaction"><path codeLine="93" d="M212.7927,515.9773 C190.1527,537.4473 173.05,553.69 150.42,575.16" fill="none" id="Payment-backto-Transaction" style="stroke:#181818;stroke-width:1;"/><polygon fill="none" points="221.5,507.72,214.3939,508.9462,212.7927,515.9773,219.8988,514.7511,221.5,507.72" style="stroke:#181818;stroke-width:1;"/></g><!--reverse link Payment to Refund--><g class="link" data-entity-1="Payment" data-entity-2="Refund" data-source-line="94" data-uid="lnk21" id="link_Payment_Refund"><path codeLine="94" d="M283.5455,519.458 C284.5055,540.948 285.06,553.5 286.02,575.01" fill="none" id="Payment-backto-Refund" style="stroke:#181818;stroke-width:1;"/><polygon fill="none" points="283.01,507.47,279.2817,513.6425,283.5455,519.458,287.2738,513.2855,283.01,507.47" style="stroke:#181818;stroke-width:1;"/></g><!--reverse link Order to Delivery--><g class="link" data-entity-1="Order" data-entity-2="Delivery" data-source-line="95" data-uid="lnk22" id="link_Order_Delivery"><path codeLine="95" d="M786.52,338.43 C786.52,358.28 786.52,366.96 786.52,385.59" fill="none" id="Order-backto-Delivery" style="stroke:#181818;stroke-width:1;"/><polygon fill="none" points="786.52,326.43,782.52,332.43,786.52,338.43,790.52,332.43,786.52,326.43" style="stroke:#181818;stroke-width:1;"/></g><!--reverse link Delivery to Courier--><g class="link" data-entity-1="Delivery" data-entity-2="Courier" data-source-line="96" data-uid="lnk23" id="link_Delivery_Courier"><path codeLine="96" d="M786.52,527.95 C786.52,550.16 786.52,562.64 786.52,583.29" fill="none" id="Delivery-backto-Courier" style="stroke:#181818;stroke-width:1;"/><polygon fill="none" points="786.52,515.95,782.52,521.95,786.52,527.95,790.52,521.95,786.52,515.95" style="stroke:#181818;stroke-width:1;"/></g><!--reverse link Order to TimelineEvent--><g class="link" data-entity-1="Order" data-entity-2="TimelineEvent" data-source-line="97" data-uid="lnk24" id="link_Order_TimelineEvent"><path codeLine="97" d="M908.4748,333.8578 C937.4048,356.6578 958.32,373.13 984.49,393.75" fill="none" id="Order-backto-TimelineEvent" style="stroke:#181818;stroke-width:1;"/><polygon fill="none" points="899.05,326.43,901.2865,333.2855,908.4748,333.8578,906.2384,327.0023,899.05,326.43" style="stroke:#181818;stroke-width:1;"/></g><!--link OrderRepository to Order--><g class="link" data-entity-1="OrderRepository" data-entity-2="Order" data-source-line="98" data-uid="lnk25" id="link_OrderRepository_Order"><path codeLine="98" d="M786.52,88.06 C786.52,105.47 786.52,120.65 786.52,141.48" fill="none" id="OrderRepository-to-Order" style="stroke:#181818;stroke-width:1;"/><polygon fill="#181818" points="786.52,147.48,790.52,138.48,786.52,142.48,782.52,138.48,786.52,147.48" style="stroke:#181818;stroke-width:1;"/></g><!--link PaymentRepository to Payment--><g class="link" data-entity-1="PaymentRepository" data-entity-2="Payment" data-source-line="99" data-uid="lnk26" id="link_PaymentRepository_Payment"><path codeLine="99" d="M280.52,277.15 C280.52,309.94 280.52,351.06 280.52,387.77" fill="none" id="PaymentRepository-to-Payment" style="stroke:#181818;stroke-width:1;"/><polygon fill="#181818" points="280.52,393.77,284.52,384.77,280.52,388.77,276.52,384.77,280.52,393.77" style="stroke:#181818;stroke-width:1;"/></g><!--SRC=[XLJBZXiX4BpFLypHrie_u4Cax-DWPQEiR2lt3hIzI0mGw9dLQBN_7c1Um3ZA3GhewgQhcabmhlvfEThwiwhhNQt3-iZtzPciKBU8EG9gNGQH9f27HhUAzlMpRdzBZ3Yp28Jy452_Y5XhU84zr0maQwNVNK8WjzacKSAfUWB5K0RyKMk9eE81ML1EaD3g77FQAFmuPzdv1vqMlFggAhOKToHinWADrRnbL9JufmL5WlfzVLI4DxH3vahGcnKCingr2GaCYSy72ryyFQD45XOvwt1OS1lFuDV7nW2ZTS2tzEdKfNjn53IO0HmTio9UdV4bBFGDAfho6tP5H5Wt-EPxzW7z2PtHokLyWcDZDA5Y_NVirvINq3r8luKMfA2ctk3_SYbqEVESyDegFbBOk2cYUvMwv5F-8NBVD8RE9TATAPvHYWvjFv80vzRVp5w_N0w92Qw8cSG7Kxng1g7ueEDfNIev6a8tHYBXPYNl9zrQCRjt9G7phXMMHNKYz_ZI8D7ukXI-T8ioi5lhuivV-IPgco4D4lWQOKrpC4OAv3vrCok1nKt1muLZeUk_GBQv1vbMFCu1zmE8lUETOgBnJsYq7nXwxDH3xQ33JHno- -56-irNeVXZV-IROWfknxihzzmFFvffFzswIx5ot7Q-7sY6cQntksM0LSieYtW-QAfoyEnst_BPaSJCEf3WKmBJS0XOujeC7roMF9uyKStc2EWeqEHUfhAgR5D8U_ZizH_7aiOK_m80]--></g></svg>