<svg xmlns="http://www.w3.org/2000/svg" xmlns:xlink="http://www.w3.org/1999/xlink" contentStyleType="text/css" data-diagram-type="SEQUENCE" height="340px" preserveAspectRatio="none" style="width:613px;height:340px;background:#FFFFFF;" version="1.1" viewBox="0 0 613 340" width="613px" zoomAndPan="magnify"><defs/><g><g><title>User</title><rect fill="#000000" fill-opacity="0.00000" height="178.6641" width="8" x="19.9551" y="81.2969"/><line style="stroke:#181818;stroke-width:0.5;stroke-dasharray:5,5;" x1="23" x2="23" y1="81.2969" y2="259.9609"/></g><g><title>Experience Data</title><rect fill="#000000" fill-opacity="0.00000" height="178.6641" width="8" x="126.062" y="81.2969"/><line style="stroke:#181818;stroke-width:0.5;stroke-dasharray:5,5;" x1="129.0864" x2="129.0864" y1="81.2969" y2="259.9609"/></g><g><title>Analysis</title><rect fill="#000000" fill-opacity="0.00000" height="178.6641" width="8" x="294.9917" y="81.2969"/><line style="stroke:#181818;stroke-width:0.5;stroke-dasharray:5,5;" x1="298.1509" x2="298.1509" y1="81.2969" y2="259.9609"/></g><g><title>Positive Recommendations</title><rect fill="#000000" fill-opacity="0.00000" height="178.6641" width="8" x="501.7407" y="81.2969"/><line style="stroke:#181818;stroke-width:0.5;stroke-dasharray:5,5;" x1="504.8101" x2="504.8101" y1="81.2969" y2="259.9609"/></g><g class="participant participant-head" data-participant="User"><text fill="#000000" font-family="sans-serif" font-size="14" lengthAdjust="spacing" textLength="31.9102" x="5" y="77.9951">User</text><ellipse cx="23.9551" cy="13.5" fill="#E2E2F0" rx="8" ry="8" style="stroke:#181818;stroke-width:0.5;"/><path d="M23.9551,21.5 L23.9551,48.5 M10.9551,29.5 L36.9551,29.5 M23.9551,48.5 L10.9551,63.5 M23.9551,48.5 L36.9551,63.5" fill="none" style="stroke:#181818;stroke-width:0.5;"/></g><g class="participant participant-tail" data-participant="User"><text fill="#000000" font-family="sans-serif" font-size="14" lengthAdjust="spacing" textLength="31.9102" x="5" y="271.9561">User</text><ellipse cx="23.9551" cy="283.7578" fill="#E2E2F0" rx="8" ry="8" style="stroke:#181818;stroke-width:0.5;"/><path d="M23.9551,291.7578 L23.9551,318.7578 M10.9551,299.7578 L36.9551,299.7578 M23.9551,318.7578 L10.9551,333.7578 M23.9551,318.7578 L36.9551,333.7578" fill="none" style="stroke:#181818;stroke-width:0.5;"/></g><g class="participant participant-head" data-participant="ExperienceData"><rect fill="#E2E2F0" height="30.2969" rx="2.5" ry="2.5" style="stroke:#181818;stroke-width:0.5;" width="129.9512" x="65.0864" y="50"/><text fill="#000000" font-family="sans-serif" font-size="14" lengthAdjust="spacing" textLength="115.9512" x="72.0864" y="69.9951">Experience Data</text></g><g class="participant participant-tail" data-participant="ExperienceData"><rect fill="#E2E2F0" height="30.2969" rx="2.5" ry="2.5" style="stroke:#181818;stroke-width:0.5;" width="129.9512" x="65.0864" y="258.9609"/><text fill="#000000" font-family="sans-serif" font-size="14" lengthAdjust="spacing" textLength="115.9512" x="72.0864" y="278.9561">Experience Data</text></g><g class="participant participant-head" data-participant="Analysis"><rect fill="#E2E2F0" height="30.2969" rx="2.5" ry="2.5" style="stroke:#181818;stroke-width:0.5;" width="71.6816" x="263.1509" y="50"/><text fill="#000000" font-family="sans-serif" font-size="14" lengthAdjust="spacing" textLength="57.6816" x="270.1509" y="69.9951">Analysis</text></g><g class="participant participant-tail" data-participant="Analysis"><rect fill="#E2E2F0" height="30.2969" rx="2.5" ry="2.5" style="stroke:#181818;stroke-width:0.5;" width="71.6816" x="263.1509" y="258.9609"/><text fill="#000000" font-family="sans-serif" font-size="14" lengthAdjust="spacing" textLength="57.6816" x="270.1509" y="278.9561">Analysis</text></g><g class="participant participant-head" data-participant="PositiveRecommendations"><rect fill="#E2E2F0" height="30.2969" rx="2.5" ry="2.5" style="stroke:#181818;stroke-width:0.5;" width="203.8613" x="403.8101" y="50"/><text fill="#000000" font-family="sans-serif" font-size="14" lengthAdjust="spacing" textLength="189.8613" x="410.8101" y="69.9951">Positive Recommendations</text></g><g class="participant participant-tail" data-participant="PositiveRecommendations"><rect fill="#E2E2F0" height="30.2969" rx="2.5" ry="2.5" style="stroke:#181818;stroke-width:0.5;" width="203.8613" x="403.8101" y="258.9609"/><text fill="#000000" font-family="sans-serif" font-size="14" lengthAdjust="spacing" textLength="189.8613" x="410.8101" y="278.9561">Positive Recommendations</text></g><g class="message" data-participant-1="User" data-participant-2="ExperienceData"><polygon fill="#181818" points="118.062,108.4297,128.062,112.4297,118.062,116.4297,122.062,112.4297" style="stroke:#181818;stroke-width:1;"/><line style="stroke:#181818;stroke-width:1;" x1="23.9551" x2="124.062" y1="112.4297" y2="112.4297"/><text fill="#000000" font-family="sans-serif" font-size="13" lengthAdjust="spacing" textLength="82.1069" x="30.9551" y="107.3638">Provide data</text></g><g class="message" data-participant-1="ExperienceData" data-participant-2="Analysis"><polygon fill="#181818" points="286.9917,137.5625,296.9917,141.5625,286.9917,145.5625,290.9917,141.5625" style="stroke:#181818;stroke-width:1;"/><line style="stroke:#181818;stroke-width:1;" x1="130.062" x2="292.9917" y1="141.5625" y2="141.5625"/><text fill="#000000" font-family="sans-serif" font-size="13" lengthAdjust="spacing" textLength="144.9297" x="137.062" y="136.4966">Send data for analysis</text></g><g class="message" data-participant-1="Analysis" data-participant-2="Analysis"><line style="stroke:#181818;stroke-width:1;" x1="298.9917" x2="340.9917" y1="170.6953" y2="170.6953"/><line style="stroke:#181818;stroke-width:1;" x1="340.9917" x2="340.9917" y1="170.6953" y2="183.6953"/><line style="stroke:#181818;stroke-width:1;" x1="299.9917" x2="340.9917" y1="183.6953" y2="183.6953"/><polygon fill="#181818" points="309.9917,179.6953,299.9917,183.6953,309.9917,187.6953,305.9917,183.6953" style="stroke:#181818;stroke-width:1;"/><text fill="#000000" font-family="sans-serif" font-size="13" lengthAdjust="spacing" textLength="83.2432" x="305.9917" y="165.6294">Process data</text></g><g class="message" data-participant-1="Analysis" data-participant-2="PositiveRecommendations"><polygon fill="#181818" points="493.7407,208.8281,503.7407,212.8281,493.7407,216.8281,497.7407,212.8281" style="stroke:#181818;stroke-width:1;"/><line style="stroke:#181818;stroke-width:1;" x1="298.9917" x2="499.7407" y1="212.8281" y2="212.8281"/><text fill="#000000" font-family="sans-serif" font-size="13" lengthAdjust="spacing" textLength="182.749" x="305.9917" y="207.7622">Generate recommendations</text></g><g class="message" data-participant-1="PositiveRecommendations" data-participant-2="User"><polygon fill="#181818" points="34.9551,237.9609,24.9551,241.9609,34.9551,245.9609,30.9551,241.9609" style="stroke:#181818;stroke-width:1;"/><line style="stroke:#181818;stroke-width:1;" x1="28.9551" x2="504.7407" y1="241.9609" y2="241.9609"/><text fill="#000000" font-family="sans-serif" font-size="13" lengthAdjust="spacing" textLength="168.3018" x="40.9551" y="236.895">Deliver recommendations</text></g><!--SRC=[TO_12i8m38RlUuhWtHVeGH0cNeVY0uGkGc1hHnA6lhtjHj5ETcp-Bt-_eBSey52IPa8nzZnXC3XSNXC9K_04BHeU01M-ipog-NF0uQsi2rWUDT95PUEPu4O-ZYE57erZM5TAkCcQ9gl1yRJvt44dSUQUeCygTPZnek3WdieM2fxfKYng1QZXrEf9TMtzHNRy75mfaA0HoCPyPoENvPiSj3IaMFuMFm00]--></g></svg>