<svg xmlns="http://www.w3.org/2000/svg" xmlns:xlink="http://www.w3.org/1999/xlink" contentStyleType="text/css" data-diagram-type="CLASS" height="648px" preserveAspectRatio="none" style="width:473px;height:648px;background:#FFFFFF;" version="1.1" viewBox="0 0 473 648" width="473px" zoomAndPan="magnify"><defs/><g><!--class APIConnector--><g class="entity" data-entity="APIConnector" data-source-line="1" data-uid="ent0002" id="entity_APIConnector"><rect fill="#F1F1F1" height="113.1875" rx="2.5" ry="2.5" style="stroke:#181818;stroke-width:0.5;" width="158.5898" x="203.01" y="7"/><ellipse cx="232.515" cy="23" fill="#ADD1B2" rx="11" ry="11" style="stroke:#181818;stroke-width:1;"/><path d="M235.4838,28.6406 Q234.9057,28.9375 234.265,29.0781 Q233.6244,29.2344 232.9213,29.2344 Q230.4213,29.2344 229.0932,27.5938 Q227.7807,25.9375 227.7807,22.8125 Q227.7807,19.6875 229.0932,18.0313 Q230.4213,16.375 232.9213,16.375 Q233.6244,16.375 234.265,16.5313 Q234.9213,16.6875 235.4838,16.9844 L235.4838,19.7031 Q234.8588,19.125 234.265,18.8594 Q233.6713,18.5781 233.0463,18.5781 Q231.7025,18.5781 231.015,19.6563 Q230.3275,20.7188 230.3275,22.8125 Q230.3275,24.9063 231.015,25.9844 Q231.7025,27.0469 233.0463,27.0469 Q233.6713,27.0469 234.265,26.7813 Q234.8588,26.5 235.4838,25.9219 L235.4838,28.6406 Z " fill="#000000"/><text fill="#000000" font-family="sans-serif" font-size="14" lengthAdjust="spacing" textLength="94.3564" x="249.7384" y="27.8467">APIConnector</text><line style="stroke:#181818;stroke-width:0.5;" x1="204.01" x2="360.5998" y1="39" y2="39"/><rect fill="none" height="6" style="stroke:#C82930;stroke-width:1;" width="6" x="211.01" y="49.6484"/><text fill="#000000" font-family="sans-serif" font-size="14" lengthAdjust="spacing" textLength="99.1758" x="223.01" y="55.9951">APIKey: String</text><rect fill="none" height="6" style="stroke:#C82930;stroke-width:1;" width="6" x="211.01" y="65.9453"/><text fill="#000000" font-family="sans-serif" font-size="14" lengthAdjust="spacing" textLength="113.2578" x="223.01" y="72.292">Endpoint: String</text><line style="stroke:#181818;stroke-width:0.5;" x1="204.01" x2="360.5998" y1="79.5938" y2="79.5938"/><ellipse cx="214.01" cy="93.2422" fill="#84BE84" rx="3" ry="3" style="stroke:#038048;stroke-width:1;"/><text fill="#000000" font-family="sans-serif" font-size="14" lengthAdjust="spacing" textLength="132.5898" x="223.01" y="96.5889">connect(): Boolean</text><ellipse cx="214.01" cy="109.5391" fill="#84BE84" rx="3" ry="3" style="stroke:#038048;stroke-width:1;"/><text fill="#000000" font-family="sans-serif" font-size="14" lengthAdjust="spacing" textLength="130.9014" x="223.01" y="112.8857">fetchData(): String</text></g><!--class DataCollector--><g class="entity" data-entity="DataCollector" data-source-line="8" data-uid="ent0003" id="entity_DataCollector"><rect fill="#F1F1F1" height="113.1875" rx="2.5" ry="2.5" style="stroke:#181818;stroke-width:0.5;" width="207.7061" x="88.45" y="197.19"/><ellipse cx="140.2186" cy="213.19" fill="#ADD1B2" rx="11" ry="11" style="stroke:#181818;stroke-width:1;"/><path d="M143.1873,218.8306 Q142.6092,219.1275 141.9686,219.2681 Q141.3279,219.4244 140.6248,219.4244 Q138.1248,219.4244 136.7967,217.7838 Q135.4842,216.1275 135.4842,213.0025 Q135.4842,209.8775 136.7967,208.2213 Q138.1248,206.565 140.6248,206.565 Q141.3279,206.565 141.9686,206.7213 Q142.6248,206.8775 143.1873,207.1744 L143.1873,209.8931 Q142.5623,209.315 141.9686,209.0494 Q141.3748,208.7681 140.7498,208.7681 Q139.4061,208.7681 138.7186,209.8463 Q138.0311,210.9088 138.0311,213.0025 Q138.0311,215.0963 138.7186,216.1744 Q139.4061,217.2369 140.7498,217.2369 Q141.3748,217.2369 141.9686,216.9713 Q142.5623,216.69 143.1873,216.1119 L143.1873,218.8306 Z " fill="#000000"/><text fill="#000000" font-family="sans-serif" font-size="14" lengthAdjust="spacing" textLength="95.6689" x="160.7186" y="218.0367">DataCollector</text><line style="stroke:#181818;stroke-width:0.5;" x1="89.45" x2="295.1561" y1="229.19" y2="229.19"/><rect fill="none" height="6" style="stroke:#C82930;stroke-width:1;" width="6" x="96.45" y="239.8384"/><text fill="#000000" font-family="sans-serif" font-size="14" lengthAdjust="spacing" textLength="170.3174" x="108.45" y="246.1851">CollectionFrequency: int</text><rect fill="none" height="6" style="stroke:#C82930;stroke-width:1;" width="6" x="96.45" y="256.1353"/><text fill="#000000" font-family="sans-serif" font-size="14" lengthAdjust="spacing" textLength="134.4561" x="108.45" y="262.482">DataFormat: String</text><line style="stroke:#181818;stroke-width:0.5;" x1="89.45" x2="295.1561" y1="269.7838" y2="269.7838"/><ellipse cx="99.45" cy="283.4322" fill="#84BE84" rx="3" ry="3" style="stroke:#038048;stroke-width:1;"/><text fill="#000000" font-family="sans-serif" font-size="14" lengthAdjust="spacing" textLength="128.9873" x="108.45" y="286.7789">collectData(): void</text><ellipse cx="99.45" cy="299.7291" fill="#84BE84" rx="3" ry="3" style="stroke:#038048;stroke-width:1;"/><text fill="#000000" font-family="sans-serif" font-size="14" lengthAdjust="spacing" textLength="181.7061" x="108.45" y="303.0757">scheduleCollection(): void</text></g><!--class DataNormalizer--><g class="entity" data-entity="DataNormalizer" data-source-line="15" data-uid="ent0004" id="entity_DataNormalizer"><rect fill="#F1F1F1" height="80.5938" rx="2.5" ry="2.5" style="stroke:#181818;stroke-width:0.5;" width="300.6133" x="7" y="387.38"/><ellipse cx="98.0889" cy="403.38" fill="#ADD1B2" rx="11" ry="11" style="stroke:#181818;stroke-width:1;"/><path d="M101.0576,409.0206 Q100.4795,409.3175 99.8389,409.4581 Q99.1982,409.6144 98.4951,409.6144 Q95.9951,409.6144 94.667,407.9738 Q93.3545,406.3175 93.3545,403.1925 Q93.3545,400.0675 94.667,398.4113 Q95.9951,396.755 98.4951,396.755 Q99.1982,396.755 99.8389,396.9113 Q100.4951,397.0675 101.0576,397.3644 L101.0576,400.0831 Q100.4326,399.505 99.8389,399.2394 Q99.2451,398.9581 98.6201,398.9581 Q97.2764,398.9581 96.5889,400.0363 Q95.9014,401.0988 95.9014,403.1925 Q95.9014,405.2863 96.5889,406.3644 Q97.2764,407.4269 98.6201,407.4269 Q99.2451,407.4269 99.8389,407.1613 Q100.4326,406.88 101.0576,406.3019 L101.0576,409.0206 Z " fill="#000000"/><text fill="#000000" font-family="sans-serif" font-size="14" lengthAdjust="spacing" textLength="109.9355" x="118.5889" y="408.2267">DataNormalizer</text><line style="stroke:#181818;stroke-width:0.5;" x1="8" x2="306.6133" y1="419.38" y2="419.38"/><rect fill="none" height="6" style="stroke:#C82930;stroke-width:1;" width="6" x="15" y="430.0284"/><text fill="#000000" font-family="sans-serif" font-size="14" lengthAdjust="spacing" textLength="186.8809" x="27" y="436.3751">NormalizationRules: String</text><line style="stroke:#181818;stroke-width:0.5;" x1="8" x2="306.6133" y1="443.6769" y2="443.6769"/><ellipse cx="18" cy="457.3253" fill="#84BE84" rx="3" ry="3" style="stroke:#038048;stroke-width:1;"/><text fill="#000000" font-family="sans-serif" font-size="14" lengthAdjust="spacing" textLength="274.6133" x="27" y="460.672">normalizeData(rawData: String): String</text></g><!--class LogManager--><g class="entity" data-entity="LogManager" data-source-line="20" data-uid="ent0005" id="entity_LogManager"><rect fill="#F1F1F1" height="96.8906" rx="2.5" ry="2.5" style="stroke:#181818;stroke-width:0.5;" width="272.2852" x="123.16" y="544.97"/><ellipse cx="211.7435" cy="560.97" fill="#ADD1B2" rx="11" ry="11" style="stroke:#181818;stroke-width:1;"/><path d="M214.7122,566.6106 Q214.1341,566.9075 213.4935,567.0481 Q212.8529,567.2044 212.1497,567.2044 Q209.6497,567.2044 208.3216,565.5638 Q207.0091,563.9075 207.0091,560.7825 Q207.0091,557.6575 208.3216,556.0013 Q209.6497,554.345 212.1497,554.345 Q212.8529,554.345 213.4935,554.5013 Q214.1497,554.6575 214.7122,554.9544 L214.7122,557.6731 Q214.0872,557.095 213.4935,556.8294 Q212.8997,556.5481 212.2747,556.5481 Q210.931,556.5481 210.2435,557.6263 Q209.556,558.6888 209.556,560.7825 Q209.556,562.8763 210.2435,563.9544 Q210.931,565.0169 212.2747,565.0169 Q212.8997,565.0169 213.4935,564.7513 Q214.0872,564.47 214.7122,563.8919 L214.7122,566.6106 Z " fill="#000000"/><text fill="#000000" font-family="sans-serif" font-size="14" lengthAdjust="spacing" textLength="86.6182" x="232.2435" y="565.8167">LogManager</text><line style="stroke:#181818;stroke-width:0.5;" x1="124.16" x2="394.4452" y1="576.97" y2="576.97"/><rect fill="none" height="6" style="stroke:#C82930;stroke-width:1;" width="6" x="131.16" y="587.6184"/><text fill="#000000" font-family="sans-serif" font-size="14" lengthAdjust="spacing" textLength="113.4014" x="143.16" y="593.9651">LogLevel: String</text><line style="stroke:#181818;stroke-width:0.5;" x1="124.16" x2="394.4452" y1="601.2669" y2="601.2669"/><ellipse cx="134.16" cy="614.9153" fill="#84BE84" rx="3" ry="3" style="stroke:#038048;stroke-width:1;"/><text fill="#000000" font-family="sans-serif" font-size="14" lengthAdjust="spacing" textLength="246.2852" x="143.16" y="618.262">logMessage(message: String): void</text><ellipse cx="134.16" cy="631.2122" fill="#84BE84" rx="3" ry="3" style="stroke:#038048;stroke-width:1;"/><text fill="#000000" font-family="sans-serif" font-size="14" lengthAdjust="spacing" textLength="149.4336" x="143.16" y="634.5589">retrieveLogs(): String</text></g><!--link APIConnector to DataCollector--><g class="link" data-entity-1="APIConnector" data-entity-2="DataCollector" data-source-line="26" data-uid="lnk6" id="link_APIConnector_DataCollector"><path codeLine="26" d="M255.55,120.55 C244.04,144.6 233.2184,167.237 221.7084,191.307" fill="none" id="APIConnector-to-DataCollector" style="stroke:#181818;stroke-width:1;"/><polygon fill="#181818" points="219.12,196.72,226.6113,190.3262,221.277,192.2092,219.394,186.875,219.12,196.72" style="stroke:#181818;stroke-width:1;"/><text fill="#000000" font-family="sans-serif" font-size="13" lengthAdjust="spacing" textLength="29.7832" x="241.01" y="163.2569">uses</text><text fill="#000000" font-family="sans-serif" font-size="13" lengthAdjust="spacing" textLength="8.271" x="244.0096" y="140.0773">1</text><text fill="#000000" font-family="sans-serif" font-size="13" lengthAdjust="spacing" textLength="8.271" x="213.9173" y="185.9263">1</text></g><!--link DataCollector to DataNormalizer--><g class="link" data-entity-1="DataCollector" data-entity-2="DataNormalizer" data-source-line="27" data-uid="lnk7" id="link_DataCollector_DataNormalizer"><path codeLine="27" d="M180.94,310.59 C175.87,335.49 171.2181,358.3708 166.5981,381.0408" fill="none" id="DataCollector-to-DataNormalizer" style="stroke:#181818;stroke-width:1;"/><polygon fill="#181818" points="165.4,386.92,171.1166,378.9,166.3984,382.0207,163.2778,377.3025,165.4,386.92" style="stroke:#181818;stroke-width:1;"/><text fill="#000000" font-family="sans-serif" font-size="13" lengthAdjust="spacing" textLength="88.6323" x="175.81" y="353.4469">sends data to</text><text fill="#000000" font-family="sans-serif" font-size="13" lengthAdjust="spacing" textLength="8.271" x="171.0841" y="330.5023">1</text><text fill="#000000" font-family="sans-serif" font-size="13" lengthAdjust="spacing" textLength="8.271" x="158.074" y="376.3065">1</text></g><!--link DataNormalizer to LogManager--><g class="link" data-entity-1="DataNormalizer" data-entity-2="LogManager" data-source-line="28" data-uid="lnk8" id="link_DataNormalizer_LogManager"><path codeLine="28" d="M182,468.31 C196.33,491.31 211.2994,515.3361 226.3994,539.5961" fill="none" id="DataNormalizer-to-LogManager" style="stroke:#181818;stroke-width:1;"/><polygon fill="#181818" points="229.57,544.69,228.2101,534.9355,226.9279,540.4451,221.4183,539.1629,229.57,544.69" style="stroke:#181818;stroke-width:1;"/><text fill="#000000" font-family="sans-serif" font-size="13" lengthAdjust="spacing" textLength="119.8057" x="209.31" y="511.0369">logs normalization</text><text fill="#000000" font-family="sans-serif" font-size="13" lengthAdjust="spacing" textLength="8.271" x="177.3196" y="488.0587">1</text><text fill="#000000" font-family="sans-serif" font-size="13" lengthAdjust="spacing" textLength="8.271" x="216.8454" y="533.8595">1</text></g><!--link LogManager to APIConnector--><g class="link" data-entity-1="LogManager" data-entity-2="APIConnector" data-source-line="29" data-uid="lnk9" id="link_LogManager_APIConnector"><path codeLine="29" d="M318.34,544.77 C326.06,535.74 332.83,525.72 337.31,514.97 C392.86,381.53 342.6867,213.5712 308.5867,125.9812" fill="none" id="LogManager-to-APIConnector" style="stroke:#181818;stroke-width:1;"/><polygon fill="#181818" points="306.41,120.39,305.9476,130.228,308.224,125.0494,313.4026,127.3257,306.41,120.39" style="stroke:#181818;stroke-width:1;"/><text fill="#000000" font-family="sans-serif" font-size="13" lengthAdjust="spacing" textLength="103.3398" x="361.92" y="353.4469">logs API activity</text><text fill="#000000" font-family="sans-serif" font-size="13" lengthAdjust="spacing" textLength="8.271" x="318.0987" y="533.9508">1</text><text fill="#000000" font-family="sans-serif" font-size="13" lengthAdjust="spacing" textLength="8.271" x="300.8768" y="140.3011">1</text></g><!--SRC=[RL51JWCn3Bpd5LPFHMWFNFU018LA5GKXU46KDTj8QG9nTb51_1qdpRR9GYwMPZmpjgEC98ARvytAMOigE0_V0lWr4Np0GmklmMlRP_3UTkzEsr31bw2EwkL52xVE6PGs4syOrEvE1XcfBFaHGgNOYA-SCNLkHhIpQuyV0rh5Gt1afgDexVnU_fqXwQQmqUakCwHss0q6pywdXcgMfsXhz1UUXvaW6LKlx46pL3jfKgwNdx5EFV_il7NzexIoBp8OskA8PkPik1E9k7MvFzR2jjZE8uEiPnkghrnzw-9g0KrpdMfz-1O6GX8rE6ylRjC2eUq8EeOXE36ZIsMnRHiNejEzqa55mPUoQl0iP0maVzwemq7y0W00]--></g></svg>