<svg xmlns="http://www.w3.org/2000/svg" xmlns:xlink="http://www.w3.org/1999/xlink" contentStyleType="text/css" data-diagram-type="DESCRIPTION" height="699px" preserveAspectRatio="none" style="width:4267px;height:699px;background:#FFFFFF;" version="1.1" viewBox="0 0 4267 699" width="4267px" zoomAndPan="magnify"><defs/><g><!--cluster Client Browsers--><g class="cluster" data-entity="Client Browsers" data-source-line="1" data-uid="ent0002" id="cluster_Client Browsers"><polygon fill="none" points="168,16,178,6,704,6,704,98.3,694,108.3,168,108.3,168,16" style="stroke:#181818;stroke-width:1;"/><line style="stroke:#181818;stroke-width:1;" x1="694" x2="704" y1="16" y2="6"/><line style="stroke:#181818;stroke-width:1;" x1="168" x2="694" y1="16" y2="16"/><line style="stroke:#181818;stroke-width:1;" x1="694" x2="694" y1="16" y2="108.3"/><text fill="#000000" font-family="sans-serif" font-size="14" font-weight="bold" lengthAdjust="spacing" textLength="124.0928" x="369.9536" y="31.9951">Client Browsers</text></g><!--cluster CDN/Static Hosting--><g class="cluster" data-entity="CDN.Static Hosting" data-source-line="8" data-uid="ent0007" id="cluster_CDN.Static Hosting"><polygon fill="none" points="16,175.3,26,165.3,242,165.3,242,273.6,232,283.6,16,283.6,16,175.3" style="stroke:#181818;stroke-width:1;"/><line style="stroke:#181818;stroke-width:1;" x1="232" x2="242" y1="175.3" y2="165.3"/><line style="stroke:#181818;stroke-width:1;" x1="16" x2="232" y1="175.3" y2="175.3"/><line style="stroke:#181818;stroke-width:1;" x1="232" x2="232" y1="175.3" y2="283.6"/><text fill="#000000" font-family="sans-serif" font-size="14" font-weight="bold" lengthAdjust="spacing" textLength="150.7598" x="49.6201" y="191.2951">CDN/Static Hosting</text></g><!--cluster WAF/Load Balancer--><g class="cluster" data-entity="WAF.Load Balancer" data-source-line="12" data-uid="ent0009" id="cluster_WAF.Load Balancer"><polygon fill="none" points="2418,16,2428,6,2787,6,2787,98.3,2777,108.3,2418,108.3,2418,16" style="stroke:#181818;stroke-width:1;"/><line style="stroke:#181818;stroke-width:1;" x1="2777" x2="2787" y1="16" y2="6"/><line style="stroke:#181818;stroke-width:1;" x1="2418" x2="2777" y1="16" y2="16"/><line style="stroke:#181818;stroke-width:1;" x1="2777" x2="2777" y1="16" y2="108.3"/><text fill="#000000" font-family="sans-serif" font-size="14" font-weight="bold" lengthAdjust="spacing" textLength="152.8652" x="2522.0674" y="31.9951">WAF/Load Balancer</text></g><!--cluster API Gateway Node--><g class="cluster" data-entity="API Gateway Node" data-source-line="17" data-uid="ent0012" id="cluster_API Gateway Node"><polygon fill="none" points="282,175.3,292,165.3,659,165.3,659,273.6,649,283.6,282,283.6,282,175.3" style="stroke:#181818;stroke-width:1;"/><line style="stroke:#181818;stroke-width:1;" x1="649" x2="659" y1="175.3" y2="165.3"/><line style="stroke:#181818;stroke-width:1;" x1="282" x2="649" y1="175.3" y2="175.3"/><line style="stroke:#181818;stroke-width:1;" x1="649" x2="649" y1="175.3" y2="283.6"/><text fill="#000000" font-family="sans-serif" font-size="14" font-weight="bold" lengthAdjust="spacing" textLength="145.5371" x="393.7314" y="191.2951">API Gateway Node</text></g><!--cluster Kubernetes Cluster--><g class="cluster" data-entity="Kubernetes Cluster" data-source-line="22" data-uid="ent0015" id="cluster_Kubernetes Cluster"><polygon fill="none" points="3069,342.6,3079,332.6,4250,332.6,4250,672.19,4240,682.19,3069,682.19,3069,342.6" style="stroke:#181818;stroke-width:1;"/><line style="stroke:#181818;stroke-width:1;" x1="4240" x2="4250" y1="342.6" y2="332.6"/><line style="stroke:#181818;stroke-width:1;" x1="3069" x2="4240" y1="342.6" y2="342.6"/><line style="stroke:#181818;stroke-width:1;" x1="4240" x2="4240" y1="342.6" y2="682.19"/><text fill="#000000" font-family="sans-serif" font-size="14" font-weight="bold" lengthAdjust="spacing" textLength="152.5576" x="3579.2212" y="358.5951">Kubernetes Cluster</text></g><!--cluster Ingestion Workers--><g class="cluster" data-entity="Ingestion Workers" data-source-line="24" data-uid="ent0017" id="cluster_Ingestion Workers"><polygon fill="none" points="3577,406.6,3587,396.6,3850,396.6,3850,504.89,3840,514.89,3577,514.89,3577,406.6" style="stroke:#181818;stroke-width:1;"/><line style="stroke:#181818;stroke-width:1;" x1="3840" x2="3850" y1="406.6" y2="396.6"/><line style="stroke:#181818;stroke-width:1;" x1="3577" x2="3840" y1="406.6" y2="406.6"/><line style="stroke:#181818;stroke-width:1;" x1="3840" x2="3840" y1="406.6" y2="514.89"/><text fill="#000000" font-family="sans-serif" font-size="14" font-weight="bold" lengthAdjust="spacing" textLength="144.9834" x="3637.0083" y="422.5951">Ingestion Workers</text></g><!--cluster Managed Services--><g class="cluster" data-entity="Managed Services" data-source-line="35" data-uid="ent0025" id="cluster_Managed Services"><polygon fill="none" points="96,581.89,106,571.89,2378,571.89,2378,664.19,2368,674.19,96,674.19,96,581.89" style="stroke:#181818;stroke-width:1;"/><line style="stroke:#181818;stroke-width:1;" x1="2368" x2="2378" y1="581.89" y2="571.89"/><line style="stroke:#181818;stroke-width:1;" x1="96" x2="2368" y1="581.89" y2="581.89"/><line style="stroke:#181818;stroke-width:1;" x1="2368" x2="2368" y1="581.89" y2="674.19"/><text fill="#000000" font-family="sans-serif" font-size="14" font-weight="bold" lengthAdjust="spacing" textLength="143.7393" x="1161.1304" y="597.8851">Managed Services</text></g><!--cluster External Systems--><g class="cluster" data-entity="External Systems" data-source-line="46" data-uid="ent0034" id="cluster_External Systems"><polygon fill="none" points="2402,581.89,2412,571.89,3037,571.89,3037,664.19,3027,674.19,2402,674.19,2402,581.89" style="stroke:#181818;stroke-width:1;"/><line style="stroke:#181818;stroke-width:1;" x1="3027" x2="3037" y1="581.89" y2="571.89"/><line style="stroke:#181818;stroke-width:1;" x1="2402" x2="3027" y1="581.89" y2="581.89"/><line style="stroke:#181818;stroke-width:1;" x1="3027" x2="3027" y1="581.89" y2="674.19"/><text fill="#000000" font-family="sans-serif" font-size="14" font-weight="bold" lengthAdjust="spacing" textLength="137.4229" x="2646.7886" y="597.8851">External Systems</text></g><!--entity Executive--><g class="entity" data-entity="Executive" data-source-line="2" data-uid="ent0003" id="entity_Executive"><rect fill="#F1F1F1" height="46.2969" rx="2.5" ry="2.5" style="stroke:#181818;stroke-width:0.5;" width="108.5918" x="183.7" y="46"/><rect fill="#F1F1F1" height="10" style="stroke:#181818;stroke-width:0.5;" width="15" x="272.2918" y="51"/><rect fill="#F1F1F1" height="2" style="stroke:#181818;stroke-width:0.5;" width="4" x="270.2918" y="53"/><rect fill="#F1F1F1" height="2" style="stroke:#181818;stroke-width:0.5;" width="4" x="270.2918" y="57"/><text fill="#000000" font-family="sans-serif" font-size="14" lengthAdjust="spacing" textLength="68.5918" x="198.7" y="78.9951">Executive</text></g><!--entity Marketing--><g class="entity" data-entity="Marketing" data-source-line="3" data-uid="ent0004" id="entity_Marketing"><rect fill="#F1F1F1" height="46.2969" rx="2.5" ry="2.5" style="stroke:#181818;stroke-width:0.5;" width="110.2734" x="326.86" y="46"/><rect fill="#F1F1F1" height="10" style="stroke:#181818;stroke-width:0.5;" width="15" x="417.1334" y="51"/><rect fill="#F1F1F1" height="2" style="stroke:#181818;stroke-width:0.5;" width="4" x="415.1334" y="53"/><rect fill="#F1F1F1" height="2" style="stroke:#181818;stroke-width:0.5;" width="4" x="415.1334" y="57"/><text fill="#000000" font-family="sans-serif" font-size="14" lengthAdjust="spacing" textLength="70.2734" x="341.86" y="78.9951">Marketing</text></g><!--entity Tenders--><g class="entity" data-entity="Tenders" data-source-line="4" data-uid="ent0005" id="entity_Tenders"><rect fill="#F1F1F1" height="46.2969" rx="2.5" ry="2.5" style="stroke:#181818;stroke-width:0.5;" width="96.5879" x="471.71" y="46"/><rect fill="#F1F1F1" height="10" style="stroke:#181818;stroke-width:0.5;" width="15" x="548.2979" y="51"/><rect fill="#F1F1F1" height="2" style="stroke:#181818;stroke-width:0.5;" width="4" x="546.2979" y="53"/><rect fill="#F1F1F1" height="2" style="stroke:#181818;stroke-width:0.5;" width="4" x="546.2979" y="57"/><text fill="#000000" font-family="sans-serif" font-size="14" lengthAdjust="spacing" textLength="56.5879" x="486.71" y="78.9951">Tenders</text></g><!--entity Admin--><g class="entity" data-entity="Admin" data-source-line="5" data-uid="ent0006" id="entity_Admin"><rect fill="#F1F1F1" height="46.2969" rx="2.5" ry="2.5" style="stroke:#181818;stroke-width:0.5;" width="84.8643" x="603.57" y="46"/><rect fill="#F1F1F1" height="10" style="stroke:#181818;stroke-width:0.5;" width="15" x="668.4343" y="51"/><rect fill="#F1F1F1" height="2" style="stroke:#181818;stroke-width:0.5;" width="4" x="666.4343" y="53"/><rect fill="#F1F1F1" height="2" style="stroke:#181818;stroke-width:0.5;" width="4" x="666.4343" y="57"/><text fill="#000000" font-family="sans-serif" font-size="14" lengthAdjust="spacing" textLength="44.8643" x="618.57" y="78.9951">Admin</text></g><!--entity SPA Assets--><g class="entity" data-entity="SPA Assets" data-source-line="9" data-uid="ent0008" id="entity_SPA Assets"><rect fill="#F1F1F1" height="46.2969" rx="2.5" ry="2.5" style="stroke:#181818;stroke-width:0.5;" width="116.918" x="60.54" y="213.3"/><rect fill="#F1F1F1" height="10" style="stroke:#181818;stroke-width:0.5;" width="15" x="157.458" y="218.3"/><rect fill="#F1F1F1" height="2" style="stroke:#181818;stroke-width:0.5;" width="4" x="155.458" y="220.3"/><rect fill="#F1F1F1" height="2" style="stroke:#181818;stroke-width:0.5;" width="4" x="155.458" y="224.3"/><text fill="#000000" font-family="sans-serif" font-size="14" lengthAdjust="spacing" textLength="76.918" x="75.54" y="246.2951">SPA Assets</text></g><!--entity TLS Termination--><g class="entity" data-entity="TLS Termination" data-source-line="13" data-uid="ent0010" id="entity_TLS Termination"><rect fill="#F1F1F1" height="46.2969" rx="2.5" ry="2.5" style="stroke:#181818;stroke-width:0.5;" width="154.4063" x="2433.8" y="46"/><rect fill="#F1F1F1" height="10" style="stroke:#181818;stroke-width:0.5;" width="15" x="2568.2063" y="51"/><rect fill="#F1F1F1" height="2" style="stroke:#181818;stroke-width:0.5;" width="4" x="2566.2063" y="53"/><rect fill="#F1F1F1" height="2" style="stroke:#181818;stroke-width:0.5;" width="4" x="2566.2063" y="57"/><text fill="#000000" font-family="sans-serif" font-size="14" lengthAdjust="spacing" textLength="114.4063" x="2448.8" y="78.9951">TLS Termination</text></g><!--entity Threat Filtering--><g class="entity" data-entity="Threat Filtering" data-source-line="14" data-uid="ent0011" id="entity_Threat Filtering"><rect fill="#F1F1F1" height="46.2969" rx="2.5" ry="2.5" style="stroke:#181818;stroke-width:0.5;" width="147.6523" x="2623.17" y="46"/><rect fill="#F1F1F1" height="10" style="stroke:#181818;stroke-width:0.5;" width="15" x="2750.8223" y="51"/><rect fill="#F1F1F1" height="2" style="stroke:#181818;stroke-width:0.5;" width="4" x="2748.8223" y="53"/><rect fill="#F1F1F1" height="2" style="stroke:#181818;stroke-width:0.5;" width="4" x="2748.8223" y="57"/><text fill="#000000" font-family="sans-serif" font-size="14" lengthAdjust="spacing" textLength="107.6523" x="2638.17" y="78.9951">Threat Filtering</text></g><!--entity Rate Limiting--><g class="entity" data-entity="Rate Limiting" data-source-line="18" data-uid="ent0013" id="entity_Rate Limiting"><rect fill="#F1F1F1" height="46.2969" rx="2.5" ry="2.5" style="stroke:#181818;stroke-width:0.5;" width="133.2148" x="306.39" y="213.3"/><rect fill="#F1F1F1" height="10" style="stroke:#181818;stroke-width:0.5;" width="15" x="419.6048" y="218.3"/><rect fill="#F1F1F1" height="2" style="stroke:#181818;stroke-width:0.5;" width="4" x="417.6048" y="220.3"/><rect fill="#F1F1F1" height="2" style="stroke:#181818;stroke-width:0.5;" width="4" x="417.6048" y="224.3"/><text fill="#000000" font-family="sans-serif" font-size="14" lengthAdjust="spacing" textLength="93.2148" x="321.39" y="246.2951">Rate Limiting</text></g><!--entity JWT Validation--><g class="entity" data-entity="JWT Validation" data-source-line="19" data-uid="ent0014" id="entity_JWT Validation"><rect fill="#F1F1F1" height="46.2969" rx="2.5" ry="2.5" style="stroke:#181818;stroke-width:0.5;" width="141.1924" x="474.4" y="213.3"/><rect fill="#F1F1F1" height="10" style="stroke:#181818;stroke-width:0.5;" width="15" x="595.5924" y="218.3"/><rect fill="#F1F1F1" height="2" style="stroke:#181818;stroke-width:0.5;" width="4" x="593.5924" y="220.3"/><rect fill="#F1F1F1" height="2" style="stroke:#181818;stroke-width:0.5;" width="4" x="593.5924" y="224.3"/><text fill="#000000" font-family="sans-serif" font-size="14" lengthAdjust="spacing" textLength="101.1924" x="489.4" y="246.2951">JWT Validation</text></g><!--entity namespace: analytics--><g class="entity" data-entity="namespace. analytics" data-source-line="23" data-uid="ent0016" id="entity_namespace. analytics"><rect fill="#F1F1F1" height="46.2969" rx="2.5" ry="2.5" style="stroke:#181818;stroke-width:0.5;" width="192.5166" x="3360.74" y="444.6"/><rect fill="#F1F1F1" height="10" style="stroke:#181818;stroke-width:0.5;" width="15" x="3533.2566" y="449.6"/><rect fill="#F1F1F1" height="2" style="stroke:#181818;stroke-width:0.5;" width="4" x="3531.2566" y="451.6"/><rect fill="#F1F1F1" height="2" style="stroke:#181818;stroke-width:0.5;" width="4" x="3531.2566" y="455.6"/><text fill="#000000" font-family="sans-serif" font-size="14" lengthAdjust="spacing" textLength="152.5166" x="3375.74" y="477.5951">namespace: analytics</text></g><!--entity NLP Service Pods--><g class="entity" data-entity="NLP Service Pods" data-source-line="28" data-uid="ent0020" id="entity_NLP Service Pods"><polygon fill="#F1F1F1" points="4065.73,454.6,4075.73,444.6,4226.2749,444.6,4226.2749,480.8969,4216.2749,490.8969,4065.73,490.8969,4065.73,454.6" style="stroke:#181818;stroke-width:0.5;"/><line style="stroke:#181818;stroke-width:0.5;" x1="4216.2749" x2="4226.2749" y1="454.6" y2="444.6"/><line style="stroke:#181818;stroke-width:0.5;" x1="4065.73" x2="4216.2749" y1="454.6" y2="454.6"/><line style="stroke:#181818;stroke-width:0.5;" x1="4216.2749" x2="4216.2749" y1="454.6" y2="490.8969"/><text fill="#000000" font-family="sans-serif" font-size="14" lengthAdjust="spacing" textLength="120.5449" x="4080.73" y="477.5951">NLP Service Pods</text></g><!--entity ML Service Pods--><g class="entity" data-entity="ML Service Pods" data-source-line="29" data-uid="ent0021" id="entity_ML Service Pods"><polygon fill="#F1F1F1" points="3877.15,454.6,3887.15,444.6,4030.859,444.6,4030.859,480.8969,4020.859,490.8969,3877.15,490.8969,3877.15,454.6" style="stroke:#181818;stroke-width:0.5;"/><line style="stroke:#181818;stroke-width:0.5;" x1="4020.859" x2="4030.859" y1="454.6" y2="444.6"/><line style="stroke:#181818;stroke-width:0.5;" x1="3877.15" x2="4020.859" y1="454.6" y2="454.6"/><line style="stroke:#181818;stroke-width:0.5;" x1="4020.859" x2="4020.859" y1="454.6" y2="490.8969"/><text fill="#000000" font-family="sans-serif" font-size="14" lengthAdjust="spacing" textLength="113.709" x="3892.15" y="477.5951">ML Service Pods</text></g><!--entity ETL/Transformer Pods--><g class="entity" data-entity="ETL.Transformer Pods" data-source-line="30" data-uid="ent0022" id="entity_ETL.Transformer Pods"><polygon fill="#F1F1F1" points="3315.07,621.89,3325.07,611.89,3508.9333,611.89,3508.9333,648.1869,3498.9333,658.1869,3315.07,658.1869,3315.07,621.89" style="stroke:#181818;stroke-width:0.5;"/><line style="stroke:#181818;stroke-width:0.5;" x1="3498.9333" x2="3508.9333" y1="621.89" y2="611.89"/><line style="stroke:#181818;stroke-width:0.5;" x1="3315.07" x2="3498.9333" y1="621.89" y2="621.89"/><line style="stroke:#181818;stroke-width:0.5;" x1="3498.9333" x2="3498.9333" y1="621.89" y2="658.1869"/><text fill="#000000" font-family="sans-serif" font-size="14" lengthAdjust="spacing" textLength="153.8633" x="3330.07" y="644.8851">ETL/Transformer Pods</text></g><!--entity Analytics API Pods--><g class="entity" data-entity="Analytics API Pods" data-source-line="31" data-uid="ent0023" id="entity_Analytics API Pods"><polygon fill="#F1F1F1" points="3112.09,621.89,3122.09,611.89,3279.9015,611.89,3279.9015,648.1869,3269.9015,658.1869,3112.09,658.1869,3112.09,621.89" style="stroke:#181818;stroke-width:0.5;"/><line style="stroke:#181818;stroke-width:0.5;" x1="3269.9015" x2="3279.9015" y1="621.89" y2="611.89"/><line style="stroke:#181818;stroke-width:0.5;" x1="3112.09" x2="3269.9015" y1="621.89" y2="621.89"/><line style="stroke:#181818;stroke-width:0.5;" x1="3269.9015" x2="3269.9015" y1="621.89" y2="658.1869"/><text fill="#000000" font-family="sans-serif" font-size="14" lengthAdjust="spacing" textLength="127.8115" x="3127.09" y="644.8851">Analytics API Pods</text></g><!--entity Notification Worker Pods--><g class="entity" data-entity="Notification Worker Pods" data-source-line="32" data-uid="ent0024" id="entity_Notification Worker Pods"><polygon fill="#F1F1F1" points="3112.47,454.6,3122.47,444.6,3325.5286,444.6,3325.5286,480.8969,3315.5286,490.8969,3112.47,490.8969,3112.47,454.6" style="stroke:#181818;stroke-width:0.5;"/><line style="stroke:#181818;stroke-width:0.5;" x1="3315.5286" x2="3325.5286" y1="454.6" y2="444.6"/><line style="stroke:#181818;stroke-width:0.5;" x1="3112.47" x2="3315.5286" y1="454.6" y2="454.6"/><line style="stroke:#181818;stroke-width:0.5;" x1="3315.5286" x2="3315.5286" y1="454.6" y2="490.8969"/><text fill="#000000" font-family="sans-serif" font-size="14" lengthAdjust="spacing" textLength="173.0586" x="3127.47" y="477.5951">Notification Worker Pods</text></g><!--entity Social--><g class="entity" data-entity="Social" data-source-line="25" data-uid="ent0018" id="entity_Social"><rect fill="#F1F1F1" height="46.2969" rx="2.5" ry="2.5" style="stroke:#181818;stroke-width:0.5;" width="81.5078" x="3601.25" y="444.6"/><rect fill="#F1F1F1" height="10" style="stroke:#181818;stroke-width:0.5;" width="15" x="3662.7578" y="449.6"/><rect fill="#F1F1F1" height="2" style="stroke:#181818;stroke-width:0.5;" width="4" x="3660.7578" y="451.6"/><rect fill="#F1F1F1" height="2" style="stroke:#181818;stroke-width:0.5;" width="4" x="3660.7578" y="455.6"/><text fill="#000000" font-family="sans-serif" font-size="14" lengthAdjust="spacing" textLength="41.5078" x="3616.25" y="477.5951">Social</text></g><!--entity Etimad--><g class="entity" data-entity="Etimad" data-source-line="26" data-uid="ent0019" id="entity_Etimad"><rect fill="#F1F1F1" height="46.2969" rx="2.5" ry="2.5" style="stroke:#181818;stroke-width:0.5;" width="89.3281" x="3717.34" y="444.6"/><rect fill="#F1F1F1" height="10" style="stroke:#181818;stroke-width:0.5;" width="15" x="3786.6681" y="449.6"/><rect fill="#F1F1F1" height="2" style="stroke:#181818;stroke-width:0.5;" width="4" x="3784.6681" y="451.6"/><rect fill="#F1F1F1" height="2" style="stroke:#181818;stroke-width:0.5;" width="4" x="3784.6681" y="455.6"/><text fill="#000000" font-family="sans-serif" font-size="14" lengthAdjust="spacing" textLength="49.3281" x="3732.34" y="477.5951">Etimad</text></g><!--entity Object Storage (Data Lake)--><g class="entity" data-entity="Object Storage .Data Lake." data-source-line="36" data-uid="ent0026" id="entity_Object Storage .Data Lake."><rect fill="#F1F1F1" height="46.2969" rx="2.5" ry="2.5" style="stroke:#181818;stroke-width:0.5;" width="231.1738" x="1536.41" y="611.89"/><rect fill="#F1F1F1" height="10" style="stroke:#181818;stroke-width:0.5;" width="15" x="1747.5838" y="616.89"/><rect fill="#F1F1F1" height="2" style="stroke:#181818;stroke-width:0.5;" width="4" x="1745.5838" y="618.89"/><rect fill="#F1F1F1" height="2" style="stroke:#181818;stroke-width:0.5;" width="4" x="1745.5838" y="622.89"/><text fill="#000000" font-family="sans-serif" font-size="14" lengthAdjust="spacing" textLength="191.1738" x="1551.41" y="644.8851">Object Storage (Data Lake)</text></g><!--entity Managed Data Warehouse--><g class="entity" data-entity="Managed Data Warehouse" data-source-line="37" data-uid="ent0027" id="entity_Managed Data Warehouse"><rect fill="#F1F1F1" height="46.2969" rx="2.5" ry="2.5" style="stroke:#181818;stroke-width:0.5;" width="225.835" x="2136.08" y="611.89"/><rect fill="#F1F1F1" height="10" style="stroke:#181818;stroke-width:0.5;" width="15" x="2341.915" y="616.89"/><rect fill="#F1F1F1" height="2" style="stroke:#181818;stroke-width:0.5;" width="4" x="2339.915" y="618.89"/><rect fill="#F1F1F1" height="2" style="stroke:#181818;stroke-width:0.5;" width="4" x="2339.915" y="622.89"/><text fill="#000000" font-family="sans-serif" font-size="14" lengthAdjust="spacing" textLength="185.835" x="2151.08" y="644.8851">Managed Data Warehouse</text></g><!--entity Feature Store DB (NoSQL/Key-Value)--><g class="entity" data-entity="Feature Store DB .NoSQL.Key-Value." data-source-line="38" data-uid="ent0028" id="entity_Feature Store DB .NoSQL.Key-Value."><rect fill="#F1F1F1" height="46.2969" rx="2.5" ry="2.5" style="stroke:#181818;stroke-width:0.5;" width="298.0703" x="1802.96" y="611.89"/><rect fill="#F1F1F1" height="10" style="stroke:#181818;stroke-width:0.5;" width="15" x="2081.0303" y="616.89"/><rect fill="#F1F1F1" height="2" style="stroke:#181818;stroke-width:0.5;" width="4" x="2079.0303" y="618.89"/><rect fill="#F1F1F1" height="2" style="stroke:#181818;stroke-width:0.5;" width="4" x="2079.0303" y="622.89"/><text fill="#000000" font-family="sans-serif" font-size="14" lengthAdjust="spacing" textLength="258.0703" x="1817.96" y="644.8851">Feature Store DB (NoSQL/Key-Value)</text></g><!--entity Message Queue/Stream--><g class="entity" data-entity="Message Queue.Stream" data-source-line="39" data-uid="ent0029" id="entity_Message Queue.Stream"><rect fill="#F1F1F1" height="46.2969" rx="2.5" ry="2.5" style="stroke:#181818;stroke-width:0.5;" width="207.4805" x="1294.26" y="611.89"/><rect fill="#F1F1F1" height="10" style="stroke:#181818;stroke-width:0.5;" width="15" x="1481.7405" y="616.89"/><rect fill="#F1F1F1" height="2" style="stroke:#181818;stroke-width:0.5;" width="4" x="1479.7405" y="618.89"/><rect fill="#F1F1F1" height="2" style="stroke:#181818;stroke-width:0.5;" width="4" x="1479.7405" y="622.89"/><text fill="#000000" font-family="sans-serif" font-size="14" lengthAdjust="spacing" textLength="167.4805" x="1309.26" y="644.8851">Message Queue/Stream</text></g><!--entity Secrets Manager/KMS--><g class="entity" data-entity="Secrets Manager.KMS" data-source-line="40" data-uid="ent0030" id="entity_Secrets Manager.KMS"><rect fill="#F1F1F1" height="46.2969" rx="2.5" ry="2.5" style="stroke:#181818;stroke-width:0.5;" width="193.0293" x="430.49" y="611.89"/><rect fill="#F1F1F1" height="10" style="stroke:#181818;stroke-width:0.5;" width="15" x="603.5193" y="616.89"/><rect fill="#F1F1F1" height="2" style="stroke:#181818;stroke-width:0.5;" width="4" x="601.5193" y="618.89"/><rect fill="#F1F1F1" height="2" style="stroke:#181818;stroke-width:0.5;" width="4" x="601.5193" y="622.89"/><text fill="#000000" font-family="sans-serif" font-size="14" lengthAdjust="spacing" textLength="153.0293" x="445.49" y="644.8851">Secrets Manager/KMS</text></g><!--entity Observability Stack (Metrics/Logs/Tracing)--><g class="entity" data-entity="Observability Stack .Metrics.Logs.Tracing." data-source-line="41" data-uid="ent0031" id="entity_Observability Stack .Metrics.Logs.Tracing."><rect fill="#F1F1F1" height="46.2969" rx="2.5" ry="2.5" style="stroke:#181818;stroke-width:0.5;" width="336.3789" x="658.81" y="611.89"/><rect fill="#F1F1F1" height="10" style="stroke:#181818;stroke-width:0.5;" width="15" x="975.1889" y="616.89"/><rect fill="#F1F1F1" height="2" style="stroke:#181818;stroke-width:0.5;" width="4" x="973.1889" y="618.89"/><rect fill="#F1F1F1" height="2" style="stroke:#181818;stroke-width:0.5;" width="4" x="973.1889" y="622.89"/><text fill="#000000" font-family="sans-serif" font-size="14" lengthAdjust="spacing" textLength="296.3789" x="673.81" y="644.8851">Observability Stack (Metrics/Logs/Tracing)</text></g><!--entity Email Service (SMTP/REST)--><g class="entity" data-entity="Email Service .SMTP.REST." data-source-line="42" data-uid="ent0032" id="entity_Email Service .SMTP.REST."><rect fill="#F1F1F1" height="46.2969" rx="2.5" ry="2.5" style="stroke:#181818;stroke-width:0.5;" width="229.0957" x="1030.45" y="611.89"/><rect fill="#F1F1F1" height="10" style="stroke:#181818;stroke-width:0.5;" width="15" x="1239.5457" y="616.89"/><rect fill="#F1F1F1" height="2" style="stroke:#181818;stroke-width:0.5;" width="4" x="1237.5457" y="618.89"/><rect fill="#F1F1F1" height="2" style="stroke:#181818;stroke-width:0.5;" width="4" x="1237.5457" y="622.89"/><text fill="#000000" font-family="sans-serif" font-size="14" lengthAdjust="spacing" textLength="189.0957" x="1045.45" y="644.8851">Email Service (SMTP/REST)</text></g><!--entity Identity Provider (SSO/OIDC/SAML)--><g class="entity" data-entity="Identity Provider .SSO.OIDC.SAML." data-source-line="43" data-uid="ent0033" id="entity_Identity Provider .SSO.OIDC.SAML."><rect fill="#F1F1F1" height="46.2969" rx="2.5" ry="2.5" style="stroke:#181818;stroke-width:0.5;" width="283.9473" x="112.03" y="611.89"/><rect fill="#F1F1F1" height="10" style="stroke:#181818;stroke-width:0.5;" width="15" x="375.9773" y="616.89"/><rect fill="#F1F1F1" height="2" style="stroke:#181818;stroke-width:0.5;" width="4" x="373.9773" y="618.89"/><rect fill="#F1F1F1" height="2" style="stroke:#181818;stroke-width:0.5;" width="4" x="373.9773" y="622.89"/><text fill="#000000" font-family="sans-serif" font-size="14" lengthAdjust="spacing" textLength="243.9473" x="127.03" y="644.8851">Identity Provider (SSO/OIDC/SAML)</text></g><!--entity Social Platforms (Facebook/Instagram, Twitter/X, LinkedIn)--><g class="entity" data-entity="Social Platforms .Facebook.Instagram. Twitter.X. LinkedIn." data-source-line="47" data-uid="ent0035" id="entity_Social Platforms .Facebook.Instagram. Twitter.X. LinkedIn."><rect fill="#F1F1F1" height="46.2969" rx="2.5" ry="2.5" style="stroke:#181818;stroke-width:0.5;" width="451.4414" x="2418.28" y="611.89"/><rect fill="#F1F1F1" height="10" style="stroke:#181818;stroke-width:0.5;" width="15" x="2849.7214" y="616.89"/><rect fill="#F1F1F1" height="2" style="stroke:#181818;stroke-width:0.5;" width="4" x="2847.7214" y="618.89"/><rect fill="#F1F1F1" height="2" style="stroke:#181818;stroke-width:0.5;" width="4" x="2847.7214" y="622.89"/><text fill="#000000" font-family="sans-serif" font-size="14" lengthAdjust="spacing" textLength="411.4414" x="2433.28" y="644.8851">Social Platforms (Facebook/Instagram, Twitter/X, LinkedIn)</text></g><!--entity Etimad API--><g class="entity" data-entity="Etimad API" data-source-line="48" data-uid="ent0036" id="entity_Etimad API"><rect fill="#F1F1F1" height="46.2969" rx="2.5" ry="2.5" style="stroke:#181818;stroke-width:0.5;" width="115.9268" x="2905.04" y="611.89"/><rect fill="#F1F1F1" height="10" style="stroke:#181818;stroke-width:0.5;" width="15" x="3000.9668" y="616.89"/><rect fill="#F1F1F1" height="2" style="stroke:#181818;stroke-width:0.5;" width="4" x="2998.9668" y="618.89"/><rect fill="#F1F1F1" height="2" style="stroke:#181818;stroke-width:0.5;" width="4" x="2998.9668" y="622.89"/><text fill="#000000" font-family="sans-serif" font-size="14" lengthAdjust="spacing" textLength="75.9268" x="2920.04" y="644.8851">Etimad API</text></g><!--link Executive to CDN/Static Hosting--><g class="link" data-entity-1="Executive" data-entity-2="CDN.Static Hosting" data-source-line="51" data-uid="lnk37" id="link_Executive_CDN.Static Hosting"><path d="M183.4,91.58 C169.75,99.69 156.8,110.43 149,124.3 C145.3,130.89 144.16,135.5 149,141.3 C161.74,156.56 177.22,137.22 193,149.3 C197.1438,152.4713 200.8884,156.1664 204.2695,160.2085 C205.1148,161.219 205.9374,162.2513 206.7377,163.3024 C207.1379,163.828 207.5326,164.3582 207.9217,164.8929 C208.019,165.0266 204.6107,160.2909 204.7073,160.4252" fill="none" id="Executive-to-CDN/Static Hosting" style="stroke:#181818;stroke-width:1;"/><polygon fill="#181818" points="208.2126,165.2948,206.2011,155.6535,205.2915,161.2368,199.7083,160.3272,208.2126,165.2948" style="stroke:#181818;stroke-width:1;"/><text fill="#000000" font-family="sans-serif" font-size="13" lengthAdjust="spacing" textLength="41.7485" x="150" y="137.3669">HTTPS</text></g><!--link Marketing to CDN/Static Hosting--><g class="link" data-entity-1="Marketing" data-entity-2="CDN.Static Hosting" data-source-line="52" data-uid="lnk38" id="link_Marketing_CDN.Static Hosting"><path d="M352.75,92.69 C340.81,102.17 327.01,113.5 315,124.3 C303.32,134.81 299.89,137.09 290,149.3 C276.075,166.485 262.5,187.235 252.2038,204.0638 C249.6297,208.2709 247.2605,212.233 245.1421,215.8331 C244.0829,217.6331 246.0909,214.1491 245.1627,215.7535" fill="none" id="Marketing-to-CDN/Static Hosting" style="stroke:#181818;stroke-width:1;"/><polygon fill="#181818" points="242.1581,220.947,250.1273,215.1598,244.6619,216.6191,243.2026,211.1537,242.1581,220.947" style="stroke:#181818;stroke-width:1;"/><text fill="#000000" font-family="sans-serif" font-size="13" lengthAdjust="spacing" textLength="41.7485" x="316" y="137.3669">HTTPS</text></g><!--link Tenders to CDN/Static Hosting--><g class="link" data-entity-1="Tenders" data-entity-2="CDN.Static Hosting" data-source-line="53" data-uid="lnk39" id="link_Tenders_CDN.Static Hosting"><path d="M503.7,92.55 C490.09,109.28 469.08,130.97 445,141.3 C413.3,154.9 319.88,132.07 290,149.3 C270.53,160.525 256.66,181.57 247.5938,200.0488 C246.4605,202.3586 245.4022,204.6283 244.4175,206.8338 C243.9252,207.9365 243.4512,209.0232 242.9954,210.0907 C242.7675,210.6245 242.5441,211.1535 242.3253,211.6774 C242.2159,211.9393 244.3992,206.6548 244.292,206.9141" fill="none" id="Tenders-to-CDN/Static Hosting" style="stroke:#181818;stroke-width:1;"/><polygon fill="#181818" points="242.0004,212.4592,249.1346,205.6693,243.9101,207.8383,241.741,202.6138,242.0004,212.4592" style="stroke:#181818;stroke-width:1;"/><text fill="#000000" font-family="sans-serif" font-size="13" lengthAdjust="spacing" textLength="41.7485" x="472.25" y="137.3669">HTTPS</text></g><!--link Admin to CDN/Static Hosting--><g class="link" data-entity-1="Admin" data-entity-2="CDN.Static Hosting" data-source-line="54" data-uid="lnk40" id="link_Admin_CDN.Static Hosting"><path d="M641.45,92.61 C636.81,109.14 627.81,130.54 611,141.3 C580.95,160.53 321.14,131.89 290,149.3 C270.38,160.265 256.5075,181.305 247.4775,199.8463 C246.3488,202.1639 245.2957,204.4425 244.3165,206.6575 C243.8269,207.765 243.3558,208.8566 242.9029,209.9293 C242.6765,210.4656 242.4546,210.9972 242.2373,211.5236 C242.1829,211.6552 244.4076,206.2361 244.3538,206.367" fill="none" id="Admin-to-CDN/Static Hosting" style="stroke:#181818;stroke-width:1;"/><polygon fill="#181818" points="242.0751,211.9175,249.1935,205.111,243.974,207.2921,241.7929,202.0727,242.0751,211.9175" style="stroke:#181818;stroke-width:1;"/><text fill="#000000" font-family="sans-serif" font-size="13" lengthAdjust="spacing" textLength="41.7485" x="628.26" y="137.3669">HTTPS</text></g><!--link Executive to API Gateway Node--><g class="link" data-entity-1="Executive" data-entity-2="API Gateway Node" data-source-line="56" data-uid="lnk41" id="link_Executive_API Gateway Node"><path d="M233.63,92.5 C231.91,108.52 232.87,129.32 246,141.3 C261.84,155.76 615.42,135.69 632,149.3 C635.7288,152.36 638.8275,155.9713 641.3948,159.9518 C642.0367,160.9469 642.6453,161.9651 643.2223,163.0035 C643.5107,163.5228 643.7913,164.047 644.0641,164.576 C644.1323,164.7083 641.49,159.4877 641.5572,159.6205" fill="none" id="Executive-to-API Gateway Node" style="stroke:#181818;stroke-width:1;"/><polygon fill="#181818" points="644.2673,164.9736,643.771,155.1373,642.0089,160.5127,636.6335,158.7507,644.2673,164.9736" style="stroke:#181818;stroke-width:1;"/><text fill="#000000" font-family="sans-serif" font-size="13" lengthAdjust="spacing" textLength="41.7485" x="247" y="137.3669">HTTPS</text></g><!--link Marketing to API Gateway Node--><g class="link" data-entity-1="Marketing" data-entity-2="API Gateway Node" data-source-line="57" data-uid="lnk42" id="link_Marketing_API Gateway Node"><path d="M380.45,92.75 C380.7,108.9 384.06,129.75 398,141.3 C418.03,157.9 612,132.66 632,149.3 C635.7088,152.385 638.7925,156.0152 641.3489,160.0096 C641.988,161.0082 642.5942,162.0296 643.1689,163.0709 C643.4562,163.5915 643.7357,164.1172 644.0075,164.6475 C644.0755,164.78 641.4458,159.5533 641.5128,159.6864" fill="none" id="Marketing-to-API Gateway Node" style="stroke:#181818;stroke-width:1;"/><polygon fill="#181818" points="644.21,165.046,643.7373,155.2085,641.9624,160.5797,636.5912,158.8047,644.21,165.046" style="stroke:#181818;stroke-width:1;"/><text fill="#000000" font-family="sans-serif" font-size="13" lengthAdjust="spacing" textLength="41.7485" x="399" y="137.3669">HTTPS</text></g><!--link Tenders to API Gateway Node--><g class="link" data-entity-1="Tenders" data-entity-2="API Gateway Node" data-source-line="58" data-uid="lnk43" id="link_Tenders_API Gateway Node"><path d="M527.77,92.64 C534.64,108.96 546.36,130.07 564,141.3 C589.67,157.64 609.43,128.88 632,149.3 C635.5775,152.5363 638.5623,156.2805 641.0462,160.3586 C641.6672,161.3782 642.2568,162.4186 642.8166,163.4772 C643.0965,164.0064 640.7167,159.1583 640.9819,159.6963" fill="none" id="Tenders-to-API Gateway Node" style="stroke:#181818;stroke-width:1;"/><polygon fill="#181818" points="643.634,165.0783,643.2438,155.2372,641.4239,160.5933,636.0678,158.7734,643.634,165.0783" style="stroke:#181818;stroke-width:1;"/><text fill="#000000" font-family="sans-serif" font-size="13" lengthAdjust="spacing" textLength="41.7485" x="565" y="137.3669">HTTPS</text></g><!--link Admin to API Gateway Node--><g class="link" data-entity-1="Admin" data-entity-2="API Gateway Node" data-source-line="59" data-uid="lnk44" id="link_Admin_API Gateway Node"><path d="M672.53,92.62 C681.08,101.51 689.5,112.44 694,124.3 C703.25,148.675 692.9775,175.98 680.1587,197.4263 C673.7494,208.1494 666.7034,217.4078 661.143,224.103 C660.4479,224.9399 663.6726,221.1742 663.0281,221.9288" fill="none" id="Admin-to-API Gateway Node" style="stroke:#181818;stroke-width:1;"/><polygon fill="#181818" points="659.1316,226.4914,668.0181,222.2452,662.3787,222.6892,661.9347,217.0498,659.1316,226.4914" style="stroke:#181818;stroke-width:1;"/><text fill="#000000" font-family="sans-serif" font-size="13" lengthAdjust="spacing" textLength="41.7485" x="698.36" y="137.3669">HTTPS</text></g><!--link API Gateway Node to Kubernetes Cluster--><g class="link" data-entity-1="API Gateway Node" data-entity-2="Kubernetes Cluster" data-source-line="61" data-uid="lnk45" id="link_API Gateway Node_Kubernetes Cluster"><path d="M659.6637,238.2684 C664.7326,238.7475 671.971,239.4316 681.2343,240.3072 C699.7608,242.0582 726.3867,244.5747 759.9549,247.7474 C827.0914,254.0929 921.9973,263.0629 1035.4158,273.7827 C1262.2528,295.2222 1563.1406,323.6606 1864.0263,352.0988 C2164.9119,380.5369 2465.7953,408.9747 2692.6236,430.413 C2806.0377,441.1321 2900.9381,450.1014 2968.068,456.4458 C3001.633,459.6181 3028.2554,462.1341 3046.7781,463.8846 C3056.0394,464.7598 3057.3024,464.8792 3062.3693,465.358" fill="none" id="API Gateway Node-to-Kubernetes Cluster" style="stroke:#181818;stroke-width:1;"/><polygon fill="#181818" points="3068.3427,465.9225,3059.7589,461.0935,3063.3649,465.4521,3059.0063,469.0581,3068.3427,465.9225" style="stroke:#181818;stroke-width:1;"/></g><!--link Ingestion Workers to Social Platforms (Facebook/Instagram, Twitter/X, LinkedIn)--><g class="link" data-entity-1="Ingestion Workers" data-entity-2="Social Platforms .Facebook.Instagram. Twitter.X. LinkedIn." data-source-line="63" data-uid="lnk46" id="link_Ingestion Workers_Social Platforms .Facebook.Instagram. Twitter.X. LinkedIn."><path d="M3835.1849,515.1032 C3835.0936,515.3018 3835.0011,515.4997 3834.9075,515.6971 C3834.7203,516.0918 3834.5284,516.4839 3834.3318,516.8732 C3833.9387,517.6519 3833.5267,518.4194 3833.0949,519.1737 C3832.2313,520.6822 3831.2886,522.1379 3830.26,523.5247 C3828.2027,526.2983 3825.8013,528.7963 3823,530.89 C3813.57,537.94 2986.66,537.2 2975,538.89 C2935.19,544.69 2926.67,552.78 2888,563.89 C2832.72,579.78 2776.1564,596.042 2728.3364,609.792" fill="none" id="Ingestion Workers-to-Social Platforms (Facebook/Instagram, Twitter/X, LinkedIn)" style="stroke:#181818;stroke-width:1;"/><polygon fill="#181818" points="2722.57,611.45,2732.3249,612.8072,2727.3753,610.0683,2730.1142,605.1187,2722.57,611.45" style="stroke:#181818;stroke-width:1;"/><text fill="#000000" font-family="sans-serif" font-size="13" lengthAdjust="spacing" textLength="41.7485" x="2976" y="551.9569">HTTPS</text></g><!--link Ingestion Workers to Etimad API--><g class="link" data-entity-1="Ingestion Workers" data-entity-2="Etimad API" data-source-line="64" data-uid="lnk47" id="link_Ingestion Workers_Etimad API"><path d="M3835.1849,515.099 C3835.0936,515.2976 3835.0011,515.4956 3834.9075,515.693 C3834.7203,516.0877 3834.5284,516.4799 3834.3318,516.8692 C3833.9387,517.648 3833.5267,518.4156 3833.0949,519.1699 C3832.2313,520.6787 3831.2886,522.1347 3830.26,523.5218 C3828.2027,526.2961 3825.8013,528.795 3823,530.89 C3805.87,543.71 3072.6,530.33 3053,538.89 C3018.83,553.82 2994.7991,583.6584 2979.5791,606.7784" fill="none" id="Ingestion Workers-to-Etimad API" style="stroke:#181818;stroke-width:1;"/><polygon fill="#181818" points="2976.28,611.79,2984.5697,606.4721,2979.0293,607.6137,2977.8877,602.0732,2976.28,611.79" style="stroke:#181818;stroke-width:1;"/><text fill="#000000" font-family="sans-serif" font-size="13" lengthAdjust="spacing" textLength="41.7485" x="3054" y="551.9569">HTTPS</text></g><!--link Ingestion Workers to Object Storage (Data Lake)--><g class="link" data-entity-1="Ingestion Workers" data-entity-2="Object Storage .Data Lake." data-source-line="66" data-uid="lnk48" id="link_Ingestion Workers_Object Storage .Data Lake."><path d="M3835.1891,515.1073 C3835.0977,515.3059 3835.0053,515.5039 3834.9116,515.7012 C3834.7244,516.0958 3834.5325,516.4879 3834.3359,516.8772 C3833.9426,517.6558 3833.5305,518.4232 3833.0986,519.1774 C3832.2348,520.6857 3831.2919,522.1411 3830.2629,523.5276 C3828.2048,526.3005 3825.8025,528.7975 3823,530.89 C3812.78,538.52 2917.75,538.7 2905,538.89 C2780.54,540.82 1905.49,532.64 1785,563.89 C1748.23,573.43 1715.3462,591.5441 1689.4462,608.2041" fill="none" id="Ingestion Workers-to-Object Storage (Data Lake)" style="stroke:#181818;stroke-width:1;"/><polygon fill="#181818" points="1684.4,611.45,1694.1332,609.9452,1688.6052,608.7451,1689.8053,603.217,1684.4,611.45" style="stroke:#181818;stroke-width:1;"/></g><!--link Ingestion Workers to Message Queue/Stream--><g class="link" data-entity-1="Ingestion Workers" data-entity-2="Message Queue.Stream" data-source-line="67" data-uid="lnk49" id="link_Ingestion Workers_Message Queue.Stream"><path d="M3835.2058,515.1295 C3835.1144,515.328 3835.0218,515.5259 3834.9281,515.7231 C3834.7407,516.1175 3834.5487,516.5093 3834.3519,516.8984 C3833.9583,517.6765 3833.5458,518.4433 3833.1134,519.1968 C3832.2487,520.7038 3831.3047,522.1577 3830.2743,523.5423 C3828.2136,526.3116 3825.8075,528.8038 3823,530.89 C3811.91,539.13 1847.8,538.32 1834,538.89 C1693.68,544.74 1653.07,522.08 1519,563.89 C1485.62,574.3 1456.4384,591.7779 1432.9784,608.0679" fill="none" id="Ingestion Workers-to-Message Queue/Stream" style="stroke:#181818;stroke-width:1;"/><polygon fill="#181818" points="1428.05,611.49,1437.724,609.6424,1432.157,608.6382,1433.1611,603.0712,1428.05,611.49" style="stroke:#181818;stroke-width:1;"/></g><!--link ETL/Transformer Pods to Object Storage (Data Lake)--><g class="link" data-entity-1="ETL.Transformer Pods" data-entity-2="Object Storage .Data Lake." data-source-line="69" data-uid="lnk50" id="link_ETL.Transformer Pods_Object Storage .Data Lake."><path d="M3386.48,611.45 C3361.41,590.01 3320.97,559.87 3279.5,547.39 C3240.21,535.57 1842.11,536.7 1802.5,547.39 C1756.67,559.77 1715.2656,586.3508 1686.3656,607.8308" fill="none" id="ETL/Transformer Pods-to-Object Storage (Data Lake)" style="stroke:#181818;stroke-width:1;"/><polygon fill="#181818" points="1681.55,611.41,1691.1594,609.2516,1685.563,608.4274,1686.3872,602.8309,1681.55,611.41" style="stroke:#181818;stroke-width:1;"/></g><!--link ETL/Transformer Pods to Message Queue/Stream--><g class="link" data-entity-1="ETL.Transformer Pods" data-entity-2="Message Queue.Stream" data-source-line="70" data-uid="lnk51" id="link_ETL.Transformer Pods_Message Queue.Stream"><path d="M3386.48,611.45 C3361.41,590.01 3320.97,559.87 3279.5,547.39 C3233.14,533.45 1583,533.91 1536.5,547.39 C1493.59,559.83 1455.8723,586.1911 1429.5223,607.6511" fill="none" id="ETL/Transformer Pods-to-Message Queue/Stream" style="stroke:#181818;stroke-width:1;"/><polygon fill="#181818" points="1424.87,611.44,1434.3744,608.8581,1428.7469,608.2826,1429.3225,602.6551,1424.87,611.44" style="stroke:#181818;stroke-width:1;"/></g><!--link ETL/Transformer Pods to Managed Data Warehouse--><g class="link" data-entity-1="ETL.Transformer Pods" data-entity-2="Managed Data Warehouse" data-source-line="71" data-uid="lnk52" id="link_ETL.Transformer Pods_Managed Data Warehouse"><path d="M3386.48,611.45 C3361.41,590.01 3320.97,559.87 3279.5,547.39 C3233.75,533.63 2465.94,536.16 2419.5,547.39 C2368.55,559.72 2320.7899,586.7888 2287.6999,608.3088" fill="none" id="ETL/Transformer Pods-to-Managed Data Warehouse" style="stroke:#181818;stroke-width:1;"/><polygon fill="#181818" points="2282.67,611.58,2292.3956,610.0265,2286.8616,608.854,2288.034,603.32,2282.67,611.58" style="stroke:#181818;stroke-width:1;"/></g><!--link NLP Service Pods to ETL/Transformer Pods--><g class="link" data-entity-1="NLP Service Pods" data-entity-2="ETL.Transformer Pods" data-source-line="73" data-uid="lnk53" id="link_NLP Service Pods_ETL.Transformer Pods"><path d="M4117.64,491.1 C4098.91,504.73 4073.24,521.31 4048,530.89 C3865.78,600.1 3642.9497,622.5278 3515.3897,630.0278" fill="none" id="NLP Service Pods-to-ETL/Transformer Pods" style="stroke:#181818;stroke-width:1;"/><polygon fill="#181818" points="3509.4,630.38,3518.6193,633.8449,3514.3914,630.0865,3518.1497,625.8586,3509.4,630.38" style="stroke:#181818;stroke-width:1;"/></g><!--link ML Service Pods to Feature Store DB (NoSQL/Key-Value)--><g class="link" data-entity-1="ML Service Pods" data-entity-2="Feature Store DB .NoSQL.Key-Value." data-source-line="75" data-uid="lnk54" id="link_ML Service Pods_Feature Store DB .NoSQL.Key-Value."><path d="M3928.32,491.11 C3910.07,505.5 3884.22,522.94 3858,530.89 C3829.29,539.61 3347.97,537.48 3318,538.89 C3222.69,543.38 3199.32,551.73 3104,555.89 C3049.33,558.28 2172.6,552.87 2119,563.89 C2074.03,573.14 2031.3866,591.9372 1998.4366,608.7172" fill="none" id="ML Service Pods-to-Feature Store DB (NoSQL/Key-Value)" style="stroke:#181818;stroke-width:1;"/><polygon fill="#181818" points="1993.09,611.44,2002.9251,610.9202,1997.5455,609.171,1999.2947,603.7914,1993.09,611.44" style="stroke:#181818;stroke-width:1;"/></g><!--link ML Service Pods to Analytics API Pods--><g class="link" data-entity-1="ML Service Pods" data-entity-2="Analytics API Pods" data-source-line="76" data-uid="lnk55" id="link_ML Service Pods_Analytics API Pods"><path d="M3927.41,491.37 C3909.15,505.47 3883.66,522.48 3858,530.89 C3621.08,608.54 3533.82,482.95 3298,563.89 C3268.52,574.01 3244.3002,591.2942 3224.8602,607.7442" fill="none" id="ML Service Pods-to-Analytics API Pods" style="stroke:#181818;stroke-width:1;"/><polygon fill="#181818" points="3220.28,611.62,3229.7342,608.8598,3224.0969,608.3902,3224.5665,602.7529,3220.28,611.62" style="stroke:#181818;stroke-width:1;"/></g><!--link Notification Worker Pods to Email Service (SMTP/REST)--><g class="link" data-entity-1="Notification Worker Pods" data-entity-2="Email Service .SMTP.REST." data-source-line="78" data-uid="lnk56" id="link_Notification Worker Pods_Email Service .SMTP.REST."><path d="M3188.77,491.23 C3167.42,505.66 3137.47,523.11 3108,530.89 C3070.51,540.79 1750.76,537.67 1712,538.89 C1518.44,545.01 1463.48,511.69 1277,563.89 C1240.89,574 1208.5487,591.8237 1182.8187,608.2337" fill="none" id="Notification Worker Pods-to-Email Service (SMTP/REST)" style="stroke:#181818;stroke-width:1;"/><polygon fill="#181818" points="1177.76,611.46,1187.499,609.993,1181.9756,608.7714,1183.1972,603.248,1177.76,611.46" style="stroke:#181818;stroke-width:1;"/></g><!--link Secrets Manager/KMS to Kubernetes Cluster--><g class="link" data-entity-1="Secrets Manager.KMS" data-entity-2="Kubernetes Cluster" data-source-line="80" data-uid="lnk57" id="link_Secrets Manager.KMS_Kubernetes Cluster"><path d="M554.59,611.65 C576.57,595.22 608.88,574.06 641,563.89 C812.93,509.46 865.87,547.56 1046,538.89 C1495.32,517.27 2000.865,499.785 2395.1763,487.68 C2592.3319,481.6275 2761.6791,476.92 2882.2855,473.7131 C2942.5887,472.1097 2990.7067,470.8814 3024.0229,470.0477 C3040.6811,469.6309 3053.6388,469.3127 3062.569,469.0956 C3064.8015,469.0413 3060.7841,469.1381 3062.5081,469.0965" fill="none" id="Secrets Manager/KMS-to-Kubernetes Cluster" style="stroke:#181818;stroke-width:1;"/><polygon fill="#181818" points="3068.5064,468.9518,3059.4125,465.1701,3063.5078,469.0724,3059.6055,473.1677,3068.5064,468.9518" style="stroke:#181818;stroke-width:1;"/></g><!--link Observability Stack (Metrics/Logs/Tracing) to Kubernetes Cluster--><g class="link" data-entity-1="Observability Stack .Metrics.Logs.Tracing." data-entity-2="Kubernetes Cluster" data-source-line="82" data-uid="lnk58" id="link_Observability Stack .Metrics.Logs.Tracing._Kubernetes Cluster"><path d="M875.6,611.5 C912.48,595.44 964.88,574.84 1013,563.89 C1138.28,535.4 1172.77,546.99 1301,538.89 C1693.65,514.11 2135.7225,496.6125 2480.59,485.2913 C2653.0238,479.6306 2801.1563,475.5141 2906.6591,472.8033 C2959.4105,471.4479 3001.5045,470.4439 3030.65,469.7742 C3045.2227,469.4393 3056.5583,469.1879 3064.3705,469.0179 C3065.347,468.9967 3066.2685,468.9767 3067.1343,468.958 C3067.5672,468.9487 3061.9876,469.0688 3062.3927,469.0601" fill="none" id="Observability Stack (Metrics/Logs/Tracing)-to-Kubernetes Cluster" style="stroke:#181818;stroke-width:1;"/><polygon fill="#181818" points="3068.3913,468.9309,3059.3073,465.1256,3063.3925,469.0385,3059.4795,473.1237,3068.3913,468.9309" style="stroke:#181818;stroke-width:1;"/></g><!--link Identity Provider (SSO/OIDC/SAML) to API Gateway Node--><g class="link" data-entity-1="Identity Provider .SSO.OIDC.SAML." data-entity-2="API Gateway Node" data-source-line="84" data-uid="lnk59" id="link_Identity Provider .SSO.OIDC.SAML._API Gateway Node"><path d="M290.96,611.53 C366.43,563.65 538.98,444.23 632,299.6 C633.8925,296.6575 635.6053,293.5163 637.1542,290.2675 C637.9286,288.6432 638.6621,286.992 639.3566,285.3253 C639.5302,284.9086 639.7013,284.491 639.8701,284.0726 C639.9123,283.968 637.7255,289.434 637.7674,289.3293" fill="none" id="Identity Provider (SSO/OIDC/SAML)-to-API Gateway Node" style="stroke:#181818;stroke-width:1;"/><polygon fill="#181818" points="639.9962,283.7586,632.9392,290.6287,638.1389,288.4008,640.3667,293.6005,639.9962,283.7586" style="stroke:#181818;stroke-width:1;"/></g><!--SRC=[fLHDRzim3BtxLn0zfK0BttiOu3R9cjLEtSfO1XGvA3QRQh6bGPBJ1aF_- -ZFkKdiPjZDCX-VdiX7IfKWdDsa0gM5QwrU3Mfp1hyTWAV96yQv5LjS5gU0wmrQ8TVbAKAP4BByzf9CoANpxZYoOXlFNMQv5J7SAbEar8GizC0p1gtfe1VUrFKLJ-2Qfrp6g6jmv3E8K1CrCIbPtVgYaLkOYjIYBgMqD5uuWw_SuYlVmPp-r2oFz0jyaObM-RT51DzvAfAQjcMuorUe9LeqS9FcnhPA9C_G_E8nNW6NFDtHmyg7LsapkKPJKC52KOMQwXNFLR7WwR8wJAp8U58StjlKkHy2GxqLCKAe4dFMHWA_9p29V3VIN9fdfJFKUr6laGT5EJx6vigAPn7pZjGQqLOWeEUjCMckRdnml_g9iGLcbQOmZCRSSl3v1izhOrHPvUy5r_YYSbDvPahToZMMgGZZQnZD5NlmtJlSNL8FyeO1ZIcO7tBCaQn3JSxA0CDOarkWkaAxTm5RLeh8fbk-4gcmEsBdyGP60LfDJoSphKrHevWwNl5FCYxIjg0Z5aIX-pXXKHMT9UJzWYVKQYl8rOHWz-xzR7pZCY_mppiUcRoHBQZ8m7PaaAofKDLf25DkYxuO64t9BYkbDkvC6ilNccSN4BqAI-dkZmjofDnWCfErlj8RHS_Agpg31vUNN-3fSA2MS0MtKHGofpEN9u2RiJq1Matrvy13kVkZE21s0FfHwW2mAxGVvXo9bIc7OxyayC5Kr-Z_wFHVnNta7HzqTFUXXyQoD-dug54FZ-oLK-uPo3j-rM16poPndlOtPLEmOrm4trkVDVgKRTIJUhXOIrKzAxLHrxzsdAEhRSYG_x3o1dtzwRBh6QG_]--></g></svg>