<svg xmlns="http://www.w3.org/2000/svg" xmlns:xlink="http://www.w3.org/1999/xlink" contentStyleType="text/css" data-diagram-type="DESCRIPTION" height="1051px" preserveAspectRatio="none" style="width:2349px;height:1051px;background:#FFFFFF;" version="1.1" viewBox="0 0 2349 1051" width="2349px" zoomAndPan="magnify"><defs/><g><!--cluster Security Architecture--><g class="cluster" data-entity="Security Architecture" data-source-line="1" data-uid="ent0002" id="cluster_Security Architecture"><path d="M211.32,6 L380.9079,6 A3.75,3.75 0 0 1 383.4079,8.5 L390.4079,28.2969 L2340.32,28.2969 A2.5,2.5 0 0 1 2342.82,30.7969 L2342.82,1042.28 A2.5,2.5 0 0 1 2340.32,1044.78 L211.32,1044.78 A2.5,2.5 0 0 1 208.82,1042.28 L208.82,8.5 A2.5,2.5 0 0 1 211.32,6" fill="none" style="stroke:#000000;stroke-width:1.5;"/><line style="stroke:#000000;stroke-width:1.5;" x1="208.82" x2="390.4079" y1="28.2969" y2="28.2969"/><text fill="#000000" font-family="sans-serif" font-size="14" font-weight="bold" lengthAdjust="spacing" textLength="168.5879" x="212.82" y="20.9951">Security Architecture</text></g><!--cluster Edge Layer--><g class="cluster" data-entity="Edge Layer" data-source-line="2" data-uid="ent0003" id="cluster_Edge Layer"><path d="M235.32,49 L324.1891,49 A3.75,3.75 0 0 1 326.6891,51.5 L333.6891,71.2969 L532.32,71.2969 A2.5,2.5 0 0 1 534.82,73.7969 L534.82,449.39 A2.5,2.5 0 0 1 532.32,451.89 L235.32,451.89 A2.5,2.5 0 0 1 232.82,449.39 L232.82,51.5 A2.5,2.5 0 0 1 235.32,49" fill="none" style="stroke:#000000;stroke-width:1.5;"/><line style="stroke:#000000;stroke-width:1.5;" x1="232.82" x2="333.6891" y1="71.2969" y2="71.2969"/><text fill="#000000" font-family="sans-serif" font-size="14" font-weight="bold" lengthAdjust="spacing" textLength="87.8691" x="236.82" y="63.9951">Edge Layer</text></g><!--cluster Services Layer--><g class="cluster" data-entity="Services Layer" data-source-line="8" data-uid="ent0007" id="cluster_Services Layer"><path d="M561.32,335.59 L677.6218,335.59 A3.75,3.75 0 0 1 680.1218,338.09 L687.1218,357.8869 L1254.32,357.8869 A2.5,2.5 0 0 1 1256.82,360.3869 L1256.82,614.69 A2.5,2.5 0 0 1 1254.32,617.19 L561.32,617.19 A2.5,2.5 0 0 1 558.82,614.69 L558.82,338.09 A2.5,2.5 0 0 1 561.32,335.59" fill="none" style="stroke:#000000;stroke-width:1.5;"/><line style="stroke:#000000;stroke-width:1.5;" x1="558.82" x2="687.1218" y1="357.8869" y2="357.8869"/><text fill="#000000" font-family="sans-serif" font-size="14" font-weight="bold" lengthAdjust="spacing" textLength="115.3018" x="562.82" y="350.5851">Services Layer</text></g><!--cluster Data Layer--><g class="cluster" data-entity="Data Layer" data-source-line="15" data-uid="ent0012" id="cluster_Data Layer"><path d="M1283.32,500.89 L1370.2956,500.89 A3.75,3.75 0 0 1 1372.7956,503.39 L1379.7956,523.1869 L1722.32,523.1869 A2.5,2.5 0 0 1 1724.82,525.6869 L1724.82,779.98 A2.5,2.5 0 0 1 1722.32,782.48 L1283.32,782.48 A2.5,2.5 0 0 1 1280.82,779.98 L1280.82,503.39 A2.5,2.5 0 0 1 1283.32,500.89" fill="none" style="stroke:#000000;stroke-width:1.5;"/><line style="stroke:#000000;stroke-width:1.5;" x1="1280.82" x2="1379.7956" y1="523.1869" y2="523.1869"/><text fill="#000000" font-family="sans-serif" font-size="14" font-weight="bold" lengthAdjust="spacing" textLength="85.9756" x="1284.82" y="515.8851">Data Layer</text></g><!--cluster External Layer--><g class="cluster" data-entity="External Layer" data-source-line="23" data-uid="ent0018" id="cluster_External Layer"><path d="M1751.32,666.19 L1866.986,666.19 A3.75,3.75 0 0 1 1869.486,668.69 L1876.486,688.4869 L2316.32,688.4869 A2.5,2.5 0 0 1 2318.82,690.9869 L2318.82,905.28 A2.5,2.5 0 0 1 2316.32,907.78 L1751.32,907.78 A2.5,2.5 0 0 1 1748.82,905.28 L1748.82,668.69 A2.5,2.5 0 0 1 1751.32,666.19" fill="none" style="stroke:#000000;stroke-width:1.5;"/><line style="stroke:#000000;stroke-width:1.5;" x1="1748.82" x2="1876.486" y1="688.4869" y2="688.4869"/><text fill="#000000" font-family="sans-serif" font-size="14" font-weight="bold" lengthAdjust="spacing" textLength="114.666" x="1752.82" y="681.1851">External Layer</text></g><!--entity On-Call--><g class="entity" data-entity="On-Call" data-source-line="43" data-uid="ent0036" id="entity_On-Call"><ellipse cx="2011.82" cy="999.78" fill="#F1F1F1" rx="8" ry="8" style="stroke:#181818;stroke-width:0.5;"/><text fill="#000000" font-family="sans-serif" font-size="14" lengthAdjust="spacing" textLength="51.0781" x="1986.2809" y="1029.7751">On-Call</text></g><!--entity Dashboards--><g class="entity" data-entity="Dashboards" data-source-line="44" data-uid="ent0038" id="entity_Dashboards"><ellipse cx="2128.82" cy="999.78" fill="#F1F1F1" rx="8" ry="8" style="stroke:#181818;stroke-width:0.5;"/><text fill="#000000" font-family="sans-serif" font-size="14" lengthAdjust="spacing" textLength="83.4941" x="2087.0729" y="1029.7751">Dashboards</text></g><!--entity Decision Points--><g class="entity" data-entity="Decision Points" data-source-line="46" data-uid="ent0040" id="entity_Decision Points"><rect fill="#F1F1F1" height="46.2969" rx="2.5" ry="2.5" style="stroke:#181818;stroke-width:0.5;" width="146.6064" x="988.51" y="103"/><rect fill="#F1F1F1" height="10" style="stroke:#181818;stroke-width:0.5;" width="15" x="1115.1164" y="108"/><rect fill="#F1F1F1" height="2" style="stroke:#181818;stroke-width:0.5;" width="4" x="1113.1164" y="110"/><rect fill="#F1F1F1" height="2" style="stroke:#181818;stroke-width:0.5;" width="4" x="1113.1164" y="114"/><text fill="#000000" font-family="sans-serif" font-size="14" lengthAdjust="spacing" textLength="106.6064" x="1003.51" y="135.9951">Decision Points</text></g><!--entity PII Minimization--><g class="entity" data-entity="PII Minimization" data-source-line="46" data-uid="ent0041" id="entity_PII Minimization"><rect fill="#F1F1F1" height="46.2969" rx="2.5" ry="2.5" style="stroke:#181818;stroke-width:0.5;" width="150.1543" x="687.74" y="226.3"/><rect fill="#F1F1F1" height="10" style="stroke:#181818;stroke-width:0.5;" width="15" x="817.8943" y="231.3"/><rect fill="#F1F1F1" height="2" style="stroke:#181818;stroke-width:0.5;" width="4" x="815.8943" y="233.3"/><rect fill="#F1F1F1" height="2" style="stroke:#181818;stroke-width:0.5;" width="4" x="815.8943" y="237.3"/><text fill="#000000" font-family="sans-serif" font-size="14" lengthAdjust="spacing" textLength="110.1543" x="702.74" y="259.2951">PII Minimization</text></g><!--entity Data Retention Windows--><g class="entity" data-entity="Data Retention Windows" data-source-line="47" data-uid="ent0043" id="entity_Data Retention Windows"><rect fill="#F1F1F1" height="46.2969" rx="2.5" ry="2.5" style="stroke:#181818;stroke-width:0.5;" width="213.2637" x="873.18" y="226.3"/><rect fill="#F1F1F1" height="10" style="stroke:#181818;stroke-width:0.5;" width="15" x="1066.4437" y="231.3"/><rect fill="#F1F1F1" height="2" style="stroke:#181818;stroke-width:0.5;" width="4" x="1064.4437" y="233.3"/><rect fill="#F1F1F1" height="2" style="stroke:#181818;stroke-width:0.5;" width="4" x="1064.4437" y="237.3"/><text fill="#000000" font-family="sans-serif" font-size="14" lengthAdjust="spacing" textLength="173.2637" x="888.18" y="259.2951">Data Retention Windows</text></g><!--entity Access Reviews--><g class="entity" data-entity="Access Reviews" data-source-line="48" data-uid="ent0045" id="entity_Access Reviews"><rect fill="#F1F1F1" height="46.2969" rx="2.5" ry="2.5" style="stroke:#181818;stroke-width:0.5;" width="150.4961" x="1121.57" y="226.3"/><rect fill="#F1F1F1" height="10" style="stroke:#181818;stroke-width:0.5;" width="15" x="1252.0661" y="231.3"/><rect fill="#F1F1F1" height="2" style="stroke:#181818;stroke-width:0.5;" width="4" x="1250.0661" y="233.3"/><rect fill="#F1F1F1" height="2" style="stroke:#181818;stroke-width:0.5;" width="4" x="1250.0661" y="237.3"/><text fill="#000000" font-family="sans-serif" font-size="14" lengthAdjust="spacing" textLength="110.4961" x="1136.57" y="259.2951">Access Reviews</text></g><!--entity Break-Glass Procedures--><g class="entity" data-entity="Break-Glass Procedures" data-source-line="49" data-uid="ent0047" id="entity_Break-Glass Procedures"><rect fill="#F1F1F1" height="46.2969" rx="2.5" ry="2.5" style="stroke:#181818;stroke-width:0.5;" width="206.5645" x="1307.53" y="226.3"/><rect fill="#F1F1F1" height="10" style="stroke:#181818;stroke-width:0.5;" width="15" x="1494.0945" y="231.3"/><rect fill="#F1F1F1" height="2" style="stroke:#181818;stroke-width:0.5;" width="4" x="1492.0945" y="233.3"/><rect fill="#F1F1F1" height="2" style="stroke:#181818;stroke-width:0.5;" width="4" x="1492.0945" y="237.3"/><text fill="#000000" font-family="sans-serif" font-size="14" lengthAdjust="spacing" textLength="166.5645" x="1322.53" y="259.2951">Break-Glass Procedures</text></g><!--entity Business Purpose--><g class="entity" data-entity="Business Purpose" data-source-line="51" data-uid="ent0049" id="entity_Business Purpose"><rect fill="#F1F1F1" height="46.2969" rx="2.5" ry="2.5" style="stroke:#181818;stroke-width:0.5;" width="162.6162" x="1873.51" y="103"/><rect fill="#F1F1F1" height="10" style="stroke:#181818;stroke-width:0.5;" width="15" x="2016.1262" y="108"/><rect fill="#F1F1F1" height="2" style="stroke:#181818;stroke-width:0.5;" width="4" x="2014.1262" y="110"/><rect fill="#F1F1F1" height="2" style="stroke:#181818;stroke-width:0.5;" width="4" x="2014.1262" y="114"/><text fill="#000000" font-family="sans-serif" font-size="14" lengthAdjust="spacing" textLength="122.6162" x="1888.51" y="135.9951">Business Purpose</text></g><!--entity Reduce Breach Risk--><g class="entity" data-entity="Reduce Breach Risk" data-source-line="51" data-uid="ent0050" id="entity_Reduce Breach Risk"><rect fill="#F1F1F1" height="46.2969" rx="2.5" ry="2.5" style="stroke:#181818;stroke-width:0.5;" width="179.4531" x="2078.09" y="226.3"/><rect fill="#F1F1F1" height="10" style="stroke:#181818;stroke-width:0.5;" width="15" x="2237.5431" y="231.3"/><rect fill="#F1F1F1" height="2" style="stroke:#181818;stroke-width:0.5;" width="4" x="2235.5431" y="233.3"/><rect fill="#F1F1F1" height="2" style="stroke:#181818;stroke-width:0.5;" width="4" x="2235.5431" y="237.3"/><text fill="#000000" font-family="sans-serif" font-size="14" lengthAdjust="spacing" textLength="139.4531" x="2093.09" y="259.2951">Reduce Breach Risk</text></g><!--entity Comply with Regulations--><g class="entity" data-entity="Comply with Regulations" data-source-line="52" data-uid="ent0052" id="entity_Comply with Regulations"><rect fill="#F1F1F1" height="46.2969" rx="2.5" ry="2.5" style="stroke:#181818;stroke-width:0.5;" width="214.3232" x="1616.66" y="226.3"/><rect fill="#F1F1F1" height="10" style="stroke:#181818;stroke-width:0.5;" width="15" x="1810.9832" y="231.3"/><rect fill="#F1F1F1" height="2" style="stroke:#181818;stroke-width:0.5;" width="4" x="1808.9832" y="233.3"/><rect fill="#F1F1F1" height="2" style="stroke:#181818;stroke-width:0.5;" width="4" x="1808.9832" y="237.3"/><text fill="#000000" font-family="sans-serif" font-size="14" lengthAdjust="spacing" textLength="174.3232" x="1631.66" y="259.2951">Comply with Regulations</text></g><!--entity Actionable Visibility--><g class="entity" data-entity="Actionable Visibility" data-source-line="53" data-uid="ent0054" id="entity_Actionable Visibility"><rect fill="#F1F1F1" height="46.2969" rx="2.5" ry="2.5" style="stroke:#181818;stroke-width:0.5;" width="177.4912" x="1866.07" y="226.3"/><rect fill="#F1F1F1" height="10" style="stroke:#181818;stroke-width:0.5;" width="15" x="2023.5612" y="231.3"/><rect fill="#F1F1F1" height="2" style="stroke:#181818;stroke-width:0.5;" width="4" x="2021.5612" y="233.3"/><rect fill="#F1F1F1" height="2" style="stroke:#181818;stroke-width:0.5;" width="4" x="2021.5612" y="237.3"/><text fill="#000000" font-family="sans-serif" font-size="14" lengthAdjust="spacing" textLength="137.4912" x="1881.07" y="259.2951">Actionable Visibility</text></g><!--entity waf--><g class="entity" data-entity="waf" data-source-line="3" data-uid="ent0004" id="entity_waf"><rect fill="#F1F1F1" height="46.2969" rx="2.5" ry="2.5" style="stroke:#181818;stroke-width:0.5;" width="71.4727" x="249.08" y="103"/><rect fill="#F1F1F1" height="10" style="stroke:#181818;stroke-width:0.5;" width="15" x="300.5527" y="108"/><rect fill="#F1F1F1" height="2" style="stroke:#181818;stroke-width:0.5;" width="4" x="298.5527" y="110"/><rect fill="#F1F1F1" height="2" style="stroke:#181818;stroke-width:0.5;" width="4" x="298.5527" y="114"/><text fill="#000000" font-family="sans-serif" font-size="14" lengthAdjust="spacing" textLength="31.4727" x="264.08" y="135.9951">WAF</text></g><!--entity apiGateway--><g class="entity" data-entity="apiGateway" data-source-line="4" data-uid="ent0005" id="entity_apiGateway"><rect fill="#F1F1F1" height="46.2969" rx="2.5" ry="2.5" style="stroke:#181818;stroke-width:0.5;" width="128.4434" x="305.59" y="226.3"/><rect fill="#F1F1F1" height="10" style="stroke:#181818;stroke-width:0.5;" width="15" x="414.0334" y="231.3"/><rect fill="#F1F1F1" height="2" style="stroke:#181818;stroke-width:0.5;" width="4" x="412.0334" y="233.3"/><rect fill="#F1F1F1" height="2" style="stroke:#181818;stroke-width:0.5;" width="4" x="412.0334" y="237.3"/><text fill="#000000" font-family="sans-serif" font-size="14" lengthAdjust="spacing" textLength="88.4434" x="320.59" y="259.2951">API Gateway</text></g><!--entity oauth2--><g class="entity" data-entity="oauth2" data-source-line="5" data-uid="ent0006" id="entity_oauth2"><rect fill="#F1F1F1" height="46.2969" rx="2.5" ry="2.5" style="stroke:#181818;stroke-width:0.5;" width="147.1328" x="296.25" y="389.59"/><rect fill="#F1F1F1" height="10" style="stroke:#181818;stroke-width:0.5;" width="15" x="423.3828" y="394.59"/><rect fill="#F1F1F1" height="2" style="stroke:#181818;stroke-width:0.5;" width="4" x="421.3828" y="396.59"/><rect fill="#F1F1F1" height="2" style="stroke:#181818;stroke-width:0.5;" width="4" x="421.3828" y="400.59"/><text fill="#000000" font-family="sans-serif" font-size="14" lengthAdjust="spacing" textLength="107.1328" x="311.25" y="422.5851">OAuth2 Scopes</text></g><!--entity authzMiddleware--><g class="entity" data-entity="authzMiddleware" data-source-line="9" data-uid="ent0008" id="entity_authzMiddleware"><rect fill="#F1F1F1" height="46.2969" rx="2.5" ry="2.5" style="stroke:#181818;stroke-width:0.5;" width="218.8623" x="613.39" y="389.59"/><rect fill="#F1F1F1" height="10" style="stroke:#181818;stroke-width:0.5;" width="15" x="812.2523" y="394.59"/><rect fill="#F1F1F1" height="2" style="stroke:#181818;stroke-width:0.5;" width="4" x="810.2523" y="396.59"/><rect fill="#F1F1F1" height="2" style="stroke:#181818;stroke-width:0.5;" width="4" x="810.2523" y="400.59"/><text fill="#000000" font-family="sans-serif" font-size="14" lengthAdjust="spacing" textLength="178.8623" x="628.39" y="422.5851">Authorization Middleware</text></g><!--entity dataAccess--><g class="entity" data-entity="dataAccess" data-source-line="10" data-uid="ent0009" id="entity_dataAccess"><rect fill="#F1F1F1" height="46.2969" rx="2.5" ry="2.5" style="stroke:#181818;stroke-width:0.5;" width="126.0508" x="761.79" y="554.89"/><rect fill="#F1F1F1" height="10" style="stroke:#181818;stroke-width:0.5;" width="15" x="867.8408" y="559.89"/><rect fill="#F1F1F1" height="2" style="stroke:#181818;stroke-width:0.5;" width="4" x="865.8408" y="561.89"/><rect fill="#F1F1F1" height="2" style="stroke:#181818;stroke-width:0.5;" width="4" x="865.8408" y="565.89"/><text fill="#000000" font-family="sans-serif" font-size="14" lengthAdjust="spacing" textLength="86.0508" x="776.79" y="587.8851">Data Access</text></g><!--entity iam--><g class="entity" data-entity="iam" data-source-line="11" data-uid="ent0010" id="entity_iam"><rect fill="#F1F1F1" height="46.2969" rx="2.5" ry="2.5" style="stroke:#181818;stroke-width:0.5;" width="65.7852" x="922.92" y="554.89"/><rect fill="#F1F1F1" height="10" style="stroke:#181818;stroke-width:0.5;" width="15" x="968.7052" y="559.89"/><rect fill="#F1F1F1" height="2" style="stroke:#181818;stroke-width:0.5;" width="4" x="966.7052" y="561.89"/><rect fill="#F1F1F1" height="2" style="stroke:#181818;stroke-width:0.5;" width="4" x="966.7052" y="565.89"/><text fill="#000000" font-family="sans-serif" font-size="14" lengthAdjust="spacing" textLength="25.7852" x="937.92" y="587.8851">IAM</text></g><!--entity tokenIntrospection--><g class="entity" data-entity="tokenIntrospection" data-source-line="12" data-uid="ent0011" id="entity_tokenIntrospection"><rect fill="#F1F1F1" height="46.2969" rx="2.5" ry="2.5" style="stroke:#181818;stroke-width:0.5;" width="179.2822" x="1024.18" y="554.89"/><rect fill="#F1F1F1" height="10" style="stroke:#181818;stroke-width:0.5;" width="15" x="1183.4622" y="559.89"/><rect fill="#F1F1F1" height="2" style="stroke:#181818;stroke-width:0.5;" width="4" x="1181.4622" y="561.89"/><rect fill="#F1F1F1" height="2" style="stroke:#181818;stroke-width:0.5;" width="4" x="1181.4622" y="565.89"/><text fill="#000000" font-family="sans-serif" font-size="14" lengthAdjust="spacing" textLength="139.2822" x="1039.18" y="587.8851">Token Introspection</text></g><!--entity postgres--><g class="entity" data-entity="postgres" data-source-line="16" data-uid="ent0013" id="entity_postgres"><rect fill="#F1F1F1" height="46.2969" rx="2.5" ry="2.5" style="stroke:#181818;stroke-width:0.5;" width="100.3408" x="1296.65" y="720.19"/><rect fill="#F1F1F1" height="10" style="stroke:#181818;stroke-width:0.5;" width="15" x="1376.9908" y="725.19"/><rect fill="#F1F1F1" height="2" style="stroke:#181818;stroke-width:0.5;" width="4" x="1374.9908" y="727.19"/><rect fill="#F1F1F1" height="2" style="stroke:#181818;stroke-width:0.5;" width="4" x="1374.9908" y="731.19"/><text fill="#000000" font-family="sans-serif" font-size="14" lengthAdjust="spacing" textLength="60.3408" x="1311.65" y="753.1851">Postgres</text></g><!--entity objectStorage--><g class="entity" data-entity="objectStorage" data-source-line="17" data-uid="ent0014" id="entity_objectStorage"><rect fill="#F1F1F1" height="46.2969" rx="2.5" ry="2.5" style="stroke:#181818;stroke-width:0.5;" width="144.8223" x="1441.41" y="720.19"/><rect fill="#F1F1F1" height="10" style="stroke:#181818;stroke-width:0.5;" width="15" x="1566.2323" y="725.19"/><rect fill="#F1F1F1" height="2" style="stroke:#181818;stroke-width:0.5;" width="4" x="1564.2323" y="727.19"/><rect fill="#F1F1F1" height="2" style="stroke:#181818;stroke-width:0.5;" width="4" x="1564.2323" y="731.19"/><text fill="#000000" font-family="sans-serif" font-size="14" lengthAdjust="spacing" textLength="104.8223" x="1456.41" y="753.1851">Object Storage</text></g><!--entity secretsManager--><g class="entity" data-entity="secretsManager" data-source-line="18" data-uid="ent0015" id="entity_secretsManager"><rect fill="#F1F1F1" height="46.2969" rx="2.5" ry="2.5" style="stroke:#181818;stroke-width:0.5;" width="158.166" x="1296.73" y="554.89"/><rect fill="#F1F1F1" height="10" style="stroke:#181818;stroke-width:0.5;" width="15" x="1434.896" y="559.89"/><rect fill="#F1F1F1" height="2" style="stroke:#181818;stroke-width:0.5;" width="4" x="1432.896" y="561.89"/><rect fill="#F1F1F1" height="2" style="stroke:#181818;stroke-width:0.5;" width="4" x="1432.896" y="565.89"/><text fill="#000000" font-family="sans-serif" font-size="14" lengthAdjust="spacing" textLength="118.166" x="1311.73" y="587.8851">Secrets Manager</text></g><!--entity kms--><g class="entity" data-entity="kms" data-source-line="19" data-uid="ent0016" id="entity_kms"><rect fill="#F1F1F1" height="46.2969" rx="2.5" ry="2.5" style="stroke:#181818;stroke-width:0.5;" width="70.1465" x="1489.74" y="554.89"/><rect fill="#F1F1F1" height="10" style="stroke:#181818;stroke-width:0.5;" width="15" x="1539.8865" y="559.89"/><rect fill="#F1F1F1" height="2" style="stroke:#181818;stroke-width:0.5;" width="4" x="1537.8865" y="561.89"/><rect fill="#F1F1F1" height="2" style="stroke:#181818;stroke-width:0.5;" width="4" x="1537.8865" y="565.89"/><text fill="#000000" font-family="sans-serif" font-size="14" lengthAdjust="spacing" textLength="30.1465" x="1504.74" y="587.8851">KMS</text></g><!--entity auditLogs--><g class="entity" data-entity="auditLogs" data-source-line="20" data-uid="ent0017" id="entity_auditLogs"><rect fill="#F1F1F1" height="46.2969" rx="2.5" ry="2.5" style="stroke:#181818;stroke-width:0.5;" width="113.7119" x="1594.96" y="554.89"/><rect fill="#F1F1F1" height="10" style="stroke:#181818;stroke-width:0.5;" width="15" x="1688.6719" y="559.89"/><rect fill="#F1F1F1" height="2" style="stroke:#181818;stroke-width:0.5;" width="4" x="1686.6719" y="561.89"/><rect fill="#F1F1F1" height="2" style="stroke:#181818;stroke-width:0.5;" width="4" x="1686.6719" y="565.89"/><text fill="#000000" font-family="sans-serif" font-size="14" lengthAdjust="spacing" textLength="73.7119" x="1609.96" y="587.8851">Audit Logs</text></g><!--entity pci--><g class="entity" data-entity="pci" data-source-line="24" data-uid="ent0019" id="entity_pci"><rect fill="#F1F1F1" height="46.2969" rx="2.5" ry="2.5" style="stroke:#181818;stroke-width:0.5;" width="222.8682" x="1764.38" y="720.19"/><rect fill="#F1F1F1" height="10" style="stroke:#181818;stroke-width:0.5;" width="15" x="1967.2482" y="725.19"/><rect fill="#F1F1F1" height="2" style="stroke:#181818;stroke-width:0.5;" width="4" x="1965.2482" y="727.19"/><rect fill="#F1F1F1" height="2" style="stroke:#181818;stroke-width:0.5;" width="4" x="1965.2482" y="731.19"/><text fill="#000000" font-family="sans-serif" font-size="14" lengthAdjust="spacing" textLength="182.8682" x="1779.38" y="753.1851">Payment PCI Environment</text></g><!--entity threatIntel--><g class="entity" data-entity="threatIntel" data-source-line="25" data-uid="ent0020" id="entity_threatIntel"><rect fill="#F1F1F1" height="46.2969" rx="2.5" ry="2.5" style="stroke:#181818;stroke-width:0.5;" width="171.7695" x="2021.93" y="720.19"/><rect fill="#F1F1F1" height="10" style="stroke:#181818;stroke-width:0.5;" width="15" x="2173.6995" y="725.19"/><rect fill="#F1F1F1" height="2" style="stroke:#181818;stroke-width:0.5;" width="4" x="2171.6995" y="727.19"/><rect fill="#F1F1F1" height="2" style="stroke:#181818;stroke-width:0.5;" width="4" x="2171.6995" y="731.19"/><text fill="#000000" font-family="sans-serif" font-size="14" lengthAdjust="spacing" textLength="131.7695" x="2036.93" y="753.1851">Threat Intelligence</text></g><!--entity siem--><g class="entity" data-entity="siem" data-source-line="26" data-uid="ent0021" id="entity_siem"><rect fill="#F1F1F1" height="46.2969" rx="2.5" ry="2.5" style="stroke:#181818;stroke-width:0.5;" width="73.9404" x="2228.85" y="720.19"/><rect fill="#F1F1F1" height="10" style="stroke:#181818;stroke-width:0.5;" width="15" x="2282.7904" y="725.19"/><rect fill="#F1F1F1" height="2" style="stroke:#181818;stroke-width:0.5;" width="4" x="2280.7904" y="727.19"/><rect fill="#F1F1F1" height="2" style="stroke:#181818;stroke-width:0.5;" width="4" x="2280.7904" y="731.19"/><text fill="#000000" font-family="sans-serif" font-size="14" lengthAdjust="spacing" textLength="33.9404" x="2243.85" y="753.1851">SIEM</text></g><!--entity observability--><g class="entity" data-entity="observability" data-source-line="27" data-uid="ent0022" id="entity_observability"><rect fill="#F1F1F1" height="46.2969" rx="2.5" ry="2.5" style="stroke:#181818;stroke-width:0.5;" width="175.9736" x="2021.83" y="845.48"/><rect fill="#F1F1F1" height="10" style="stroke:#181818;stroke-width:0.5;" width="15" x="2177.8036" y="850.48"/><rect fill="#F1F1F1" height="2" style="stroke:#181818;stroke-width:0.5;" width="4" x="2175.8036" y="852.48"/><rect fill="#F1F1F1" height="2" style="stroke:#181818;stroke-width:0.5;" width="4" x="2175.8036" y="856.48"/><text fill="#000000" font-family="sans-serif" font-size="14" lengthAdjust="spacing" textLength="135.9736" x="2036.83" y="878.4751">Observability Stack</text></g><!--link waf to apiGateway--><g class="link" data-entity-1="waf" data-entity-2="apiGateway" data-source-line="30" data-uid="lnk23" id="link_waf_apiGateway"><path d="M248.64,126.63 C172.31,126.74 6,133.89 58.82,196.3 C89.76,232.86 217.7348,243.56 299.4148,246.83" fill="none" id="waf-to-apiGateway" style="stroke:#181818;stroke-width:1;"/><polygon fill="#181818" points="305.41,247.07,296.5772,242.7132,300.414,246.87,296.2572,250.7068,305.41,247.07" style="stroke:#181818;stroke-width:1;"/><text fill="#000000" font-family="sans-serif" font-size="13" lengthAdjust="spacing" textLength="233.0098" x="59.82" y="192.3669">Rate Limiting, IP Reputation Checks</text></g><!--link apiGateway to oauth2--><g class="link" data-entity-1="apiGateway" data-entity-2="oauth2" data-source-line="31" data-uid="lnk24" id="link_apiGateway_oauth2"><path d="M369.82,272.87 C369.82,303.6 369.82,352.48 369.82,383.24" fill="none" id="apiGateway-to-oauth2" style="stroke:#181818;stroke-width:1;"/><polygon fill="#181818" points="369.82,389.24,373.82,380.24,369.82,384.24,365.82,380.24,369.82,389.24" style="stroke:#181818;stroke-width:1;"/><text fill="#000000" font-family="sans-serif" font-size="13" lengthAdjust="spacing" textLength="99.4805" x="370.82" y="315.6569">OAuth2 Scopes</text></g><!--link apiGateway to authzMiddleware--><g class="link" data-entity-1="apiGateway" data-entity-2="authzMiddleware" data-source-line="32" data-uid="lnk25" id="link_apiGateway_authzMiddleware"><path d="M419.27,273.04 C486.54,303.78 600.7129,355.946 667.9529,386.676" fill="none" id="apiGateway-to-authzMiddleware" style="stroke:#181818;stroke-width:1;"/><polygon fill="#181818" points="673.41,389.17,666.887,381.7909,668.8624,387.0917,663.5617,389.0671,673.41,389.17" style="stroke:#181818;stroke-width:1;"/><text fill="#000000" font-family="sans-serif" font-size="13" lengthAdjust="spacing" textLength="117.2666" x="515.7" y="315.6569">Forward Requests</text></g><!--link authzMiddleware to dataAccess--><g class="link" data-entity-1="authzMiddleware" data-entity-2="dataAccess" data-source-line="33" data-uid="lnk26" id="link_authzMiddleware_dataAccess"><path d="M637.2,436.26 C611.16,447.64 592.72,463.62 606.82,484.89 C640.93,536.35 704.2021,557.9858 755.5221,568.0458" fill="none" id="authzMiddleware-to-dataAccess" style="stroke:#181818;stroke-width:1;"/><polygon fill="#181818" points="761.41,569.2,753.3475,563.5434,756.5034,568.2382,751.8086,571.394,761.41,569.2" style="stroke:#181818;stroke-width:1;"/><text fill="#000000" font-family="sans-serif" font-size="13" lengthAdjust="spacing" textLength="111.0649" x="607.82" y="480.9569">Authorize Access</text></g><!--link dataAccess to postgres--><g class="link" data-entity-1="dataAccess" data-entity-2="postgres" data-source-line="34" data-uid="lnk27" id="link_dataAccess_postgres"><path d="M850.19,601.51 C869.41,617.39 897.15,637.94 924.82,650.19 C1051.51,706.26 1209.1528,728.7637 1290.4228,737.2937" fill="none" id="dataAccess-to-postgres" style="stroke:#181818;stroke-width:1;"/><polygon fill="#181818" points="1296.39,737.92,1287.8567,733.0024,1291.4173,737.3981,1287.0216,740.9587,1296.39,737.92" style="stroke:#181818;stroke-width:1;"/><text fill="#000000" font-family="sans-serif" font-size="13" lengthAdjust="spacing" textLength="150.2744" x="925.82" y="646.2569">Encrypted Data Access</text></g><!--link dataAccess to objectStorage--><g class="link" data-entity-1="dataAccess" data-entity-2="objectStorage" data-source-line="35" data-uid="lnk28" id="link_dataAccess_objectStorage"><path d="M856.34,601.63 C870.72,610.68 888.4,620.15 905.82,625.19 C943.21,636.01 1042.05,629.59 1080.82,633.19 C1134.89,638.21 1147.72,645.38 1201.82,650.19 C1225.41,652.28 1392.74,649.6 1414.82,658.19 C1447.82,671.03 1473.5905,695.2885 1491.6705,715.5985" fill="none" id="dataAccess-to-objectStorage" style="stroke:#181818;stroke-width:1;"/><polygon fill="#181818" points="1495.66,720.08,1492.6635,710.6981,1492.3354,716.3454,1486.6881,716.0173,1495.66,720.08" style="stroke:#181818;stroke-width:1;"/><text fill="#000000" font-family="sans-serif" font-size="13" lengthAdjust="spacing" textLength="150.2744" x="1202.82" y="646.2569">Encrypted Data Access</text></g><!--link authzMiddleware to tokenIntrospection--><g class="link" data-entity-1="authzMiddleware" data-entity-2="tokenIntrospection" data-source-line="36" data-uid="lnk29" id="link_authzMiddleware_tokenIntrospection"><path d="M832.47,424.91 C906.07,433.96 995.29,448.41 1027.82,467.89 C1062.59,488.71 1085.8811,523.9458 1099.7611,549.3258" fill="none" id="authzMiddleware-to-tokenIntrospection" style="stroke:#181818;stroke-width:1;"/><polygon fill="#181818" points="1102.64,554.59,1101.8311,544.7744,1100.2409,550.2032,1094.8121,548.613,1102.64,554.59" style="stroke:#181818;stroke-width:1;"/><text fill="#000000" font-family="sans-serif" font-size="13" lengthAdjust="spacing" textLength="172.1611" x="1049.86" y="480.9569">Sensitive Endpoint Checks</text></g><!--link authzMiddleware to iam--><g class="link" data-entity-1="authzMiddleware" data-entity-2="iam" data-source-line="37" data-uid="lnk30" id="link_authzMiddleware_iam"><path d="M728.4,436.11 C733.78,452.6 743.7,473.97 760.82,484.89 C788.03,502.24 878.22,476.16 905.82,492.89 C928.34,506.54 939.8798,528.8675 947.0898,548.8075" fill="none" id="authzMiddleware-to-iam" style="stroke:#181818;stroke-width:1;"/><polygon fill="#181818" points="949.13,554.45,949.8313,544.6261,947.4298,549.7479,942.308,547.3465,949.13,554.45" style="stroke:#181818;stroke-width:1;"/><text fill="#000000" font-family="sans-serif" font-size="13" lengthAdjust="spacing" textLength="153.1245" x="761.82" y="480.9569">Service-to-Service Auth</text></g><!--link secretsManager to dataAccess--><g class="link" data-entity-1="secretsManager" data-entity-2="dataAccess" data-source-line="38" data-uid="lnk31" id="link_secretsManager_dataAccess"><path d="M1352.35,554.42 C1329.99,533.71 1294.26,505.06 1256.82,492.89 C1201.35,474.86 955,468.87 905.82,492.89 C877.77,506.59 857.7931,529.4445 843.4631,549.5445" fill="none" id="secretsManager-to-dataAccess" style="stroke:#181818;stroke-width:1;"/><polygon fill="#181818" points="839.98,554.43,848.4616,549.4238,842.8825,550.3587,841.9476,544.7797,839.98,554.43" style="stroke:#181818;stroke-width:1;"/><text fill="#000000" font-family="sans-serif" font-size="13" lengthAdjust="spacing" textLength="101.4355" x="924.32" y="480.9569">Provide Secrets</text></g><!--link kms to postgres--><g class="link" data-entity-1="kms" data-entity-2="postgres" data-source-line="39" data-uid="lnk32" id="link_kms_postgres"><path d="M1505.77,601.38 C1496.76,610.38 1485.25,619.88 1472.82,625.19 C1452.72,633.77 1391.52,619.1 1374.82,633.19 C1349.69,654.37 1345.461,688.76 1345.541,714.02" fill="none" id="kms-to-postgres" style="stroke:#181818;stroke-width:1;"/><polygon fill="#181818" points="1345.56,720.02,1349.5315,711.0074,1345.5442,715.02,1341.5315,711.0327,1345.56,720.02" style="stroke:#181818;stroke-width:1;"/><text fill="#000000" font-family="sans-serif" font-size="13" lengthAdjust="spacing" textLength="135.3892" x="1375.82" y="646.2569">Encrypt Data at Rest</text></g><!--link kms to objectStorage--><g class="link" data-entity-1="kms" data-entity-2="objectStorage" data-source-line="40" data-uid="lnk33" id="link_kms_objectStorage"><path d="M1523.31,601.4 C1521.22,632.5 1517.8425,682.5035 1515.7425,713.7335" fill="none" id="kms-to-objectStorage" style="stroke:#181818;stroke-width:1;"/><polygon fill="#181818" points="1515.34,719.72,1519.9348,711.0086,1515.6755,714.7313,1511.9528,710.4719,1515.34,719.72" style="stroke:#181818;stroke-width:1;"/><text fill="#000000" font-family="sans-serif" font-size="13" lengthAdjust="spacing" textLength="135.3892" x="1521.94" y="646.2569">Encrypt Data at Rest</text></g><!--link auditLogs to siem--><g class="link" data-entity-1="auditLogs" data-entity-2="siem" data-source-line="41" data-uid="lnk34" id="link_auditLogs_siem"><path d="M1708.96,581.22 C1834.18,586.92 2128.2,605.67 2210.82,658.19 C2233.5,672.61 2246.3857,694.6328 2254.9757,714.2728" fill="none" id="auditLogs-to-siem" style="stroke:#181818;stroke-width:1;"/><polygon fill="#181818" points="2257.38,719.77,2257.4383,709.9213,2255.3764,715.189,2250.1087,713.1271,2257.38,719.77" style="stroke:#181818;stroke-width:1;"/><text fill="#000000" font-family="sans-serif" font-size="13" lengthAdjust="spacing" textLength="99.2139" x="2189.18" y="646.2569">Log Integration</text></g><!--link siem to observability--><g class="link" data-entity-1="siem" data-entity-2="observability" data-source-line="42" data-uid="lnk35" id="link_siem_observability"><path d="M2239.44,766.88 C2230.44,774.47 2220.25,782.93 2210.82,790.48 C2187.39,809.24 2165.1454,826.2339 2144.9454,841.4239" fill="none" id="siem-to-observability" style="stroke:#181818;stroke-width:1;"/><polygon fill="#181818" points="2140.15,845.03,2149.7472,842.8178,2144.1462,842.0249,2144.9391,836.4239,2140.15,845.03" style="stroke:#181818;stroke-width:1;"/><text fill="#000000" font-family="sans-serif" font-size="13" lengthAdjust="spacing" textLength="112.6074" x="2201.02" y="811.5469">Alert Dashboards</text></g><!--link observability to On-Call--><g class="link" data-entity-1="observability" data-entity-2="On-Call" data-source-line="43" data-uid="lnk37" id="link_observability_On-Call"><path d="M2092.75,892.13 C2070.37,921.61 2035.8966,967.0501 2021.3366,986.2401" fill="none" id="observability-to-On-Call" style="stroke:#181818;stroke-width:1;"/><polygon fill="#181818" points="2017.71,991.02,2026.3366,986.2679,2020.7322,987.0368,2019.9634,981.4324,2017.71,991.02" style="stroke:#181818;stroke-width:1;"/><text fill="#000000" font-family="sans-serif" font-size="13" lengthAdjust="spacing" textLength="37.7178" x="2067.68" y="936.8469">Alerts</text></g><!--link observability to Dashboards--><g class="link" data-entity-1="observability" data-entity-2="Dashboards" data-source-line="44" data-uid="lnk39" id="link_observability_Dashboards"><path d="M2113.13,892.13 C2117.46,921.61 2123.9777,965.8938 2126.7977,985.0838" fill="none" id="observability-to-Dashboards" style="stroke:#181818;stroke-width:1;"/><polygon fill="#181818" points="2127.67,991.02,2130.319,981.5341,2126.943,986.0731,2122.404,982.6972,2127.67,991.02" style="stroke:#181818;stroke-width:1;"/><text fill="#000000" font-family="sans-serif" font-size="13" lengthAdjust="spacing" textLength="215.23" x="2120.89" y="936.8469">System Health &amp; Security Events</text></g><!--link Decision Points to PII Minimization--><g class="link" data-entity-1="Decision Points" data-entity-2="PII Minimization" data-source-line="46" data-uid="lnk42" id="link_Decision Points_PII Minimization"><path d="M1006.28,149.68 C952.74,171.4 877.7298,201.8243 824.1198,223.5743" fill="none" id="Decision Points-to-PII Minimization" style="stroke:#181818;stroke-width:1;"/><polygon fill="#181818" points="818.56,225.83,828.4036,226.1531,823.1932,223.9503,825.396,218.7399,818.56,225.83" style="stroke:#181818;stroke-width:1;"/></g><!--link Decision Points to Data Retention Windows--><g class="link" data-entity-1="Decision Points" data-entity-2="Data Retention Windows" data-source-line="47" data-uid="lnk44" id="link_Decision Points_Data Retention Windows"><path d="M1046.59,149.68 C1031.86,171.46 1013.0308,199.3196 998.3308,221.0596" fill="none" id="Decision Points-to-Data Retention Windows" style="stroke:#181818;stroke-width:1;"/><polygon fill="#181818" points="994.97,226.03,1003.3249,220.815,997.7707,221.888,996.6977,216.3339,994.97,226.03" style="stroke:#181818;stroke-width:1;"/></g><!--link Decision Points to Access Reviews--><g class="link" data-entity-1="Decision Points" data-entity-2="Access Reviews" data-source-line="48" data-uid="lnk46" id="link_Decision Points_Access Reviews"><path d="M1086.89,149.68 C1111.14,171.46 1143.2066,200.2803 1167.4066,222.0203" fill="none" id="Decision Points-to-Access Reviews" style="stroke:#181818;stroke-width:1;"/><polygon fill="#181818" points="1171.87,226.03,1167.848,217.0398,1168.1505,222.6886,1162.5017,222.9911,1171.87,226.03" style="stroke:#181818;stroke-width:1;"/></g><!--link Decision Points to Break-Glass Procedures--><g class="link" data-entity-1="Decision Points" data-entity-2="Break-Glass Procedures" data-source-line="49" data-uid="lnk48" id="link_Decision Points_Break-Glass Procedures"><path d="M1126.64,149.68 C1189.13,171.4 1277.5126,202.11 1340.0826,223.86" fill="none" id="Decision Points-to-Break-Glass Procedures" style="stroke:#181818;stroke-width:1;"/><polygon fill="#181818" points="1345.75,225.83,1338.5623,219.0967,1341.0272,224.1883,1335.9356,226.6532,1345.75,225.83" style="stroke:#181818;stroke-width:1;"/></g><!--link Business Purpose to Reduce Breach Risk--><g class="link" data-entity-1="Business Purpose" data-entity-2="Reduce Breach Risk" data-source-line="51" data-uid="lnk51" id="link_Business Purpose_Reduce Breach Risk"><path d="M1994.38,149.68 C2032.52,171.4 2084.7066,201.1101 2122.8866,222.8601" fill="none" id="Business Purpose-to-Reduce Breach Risk" style="stroke:#181818;stroke-width:1;"/><polygon fill="#181818" points="2128.1,225.83,2122.2598,217.8995,2123.7555,223.3551,2118.2999,224.8507,2128.1,225.83" style="stroke:#181818;stroke-width:1;"/></g><!--link Business Purpose to Comply with Regulations--><g class="link" data-entity-1="Business Purpose" data-entity-2="Comply with Regulations" data-source-line="52" data-uid="lnk53" id="link_Business Purpose_Comply with Regulations"><path d="M1911.91,149.68 C1870.55,171.4 1813.6119,201.29 1772.2019,223.04" fill="none" id="Business Purpose-to-Comply with Regulations" style="stroke:#181818;stroke-width:1;"/><polygon fill="#181818" points="1766.89,225.83,1776.7178,225.1863,1771.3166,223.505,1772.9978,218.1038,1766.89,225.83" style="stroke:#181818;stroke-width:1;"/></g><!--link Business Purpose to Actionable Visibility--><g class="link" data-entity-1="Business Purpose" data-entity-2="Actionable Visibility" data-source-line="53" data-uid="lnk55" id="link_Business Purpose_Actionable Visibility"><path d="M1954.82,149.68 C1954.82,171.46 1954.82,198.29 1954.82,220.03" fill="none" id="Business Purpose-to-Actionable Visibility" style="stroke:#181818;stroke-width:1;"/><polygon fill="#181818" points="1954.82,226.03,1958.82,217.03,1954.82,221.03,1950.82,217.03,1954.82,226.03" style="stroke:#181818;stroke-width:1;"/></g><!--SRC=[XLKzRzim4DtpAmuQEjLBnmu57CT9XSQ881VD47YWgQl5MYPLahBh5FdllIFbH4ePnuD17jyxtjUZMY6tOeEGBL5sLlaZJAsibKVfEuiP_Bq0-hKdrBoY_rjnH7iwufyqkzPer1wo- -br1iB1GVnC7K-B76w4nuCu1fXeLRzDeU-cdQy_mLAQ5bt06y6MW7sw68UsHBjN4jtPyDYXiUfHU6KqB5HLDNGv9yh1qE7ZYot5ln9Um5JIDJ6UYlPncqBdqqL0AR5B7NytMzIGQs-DQwdW55A0UxQFpCc4GopdaYsCynlRLwxjDyawht_HFR3qnfBdMEXWwYqf3isBHUzW8JGXR22vQEjDATQtnJ8WjpkNRa-bFDoQZUiRGblU9VEV__5ejMZErq0STxmePZdCzLvPetaVIo9LiYsrHU6vBzWqQeDQnfBuO0_cP47oUUosKxXBLzdHY8grQbXcIqzvzAKUs8UPaePWClao40byXgoa9TogdV9ARpv2Na29RUVZHCzgb5kN1Vg0nbwYTDZ3M5Ofx2ibCEdQM5fMTDdl3fq_yLu1cVoY2UQT58SdsGJU0CEKqt0oOQwbFROUAnYABSKQpUWxr5IW_-kCdInHEwhj7cbUgjOeQjsegWb7fE_832_Gn9j9lmJEFlB6saWKgh1chog4NbYHHJfvgq0nHnhKajenHhzLc0JbMMA1oAFBU3A4-T_OC5Pz1dmOtGy7cNlSe6NdhbuRcf4-zZ6CYTcTdin4qsJFfBUX0s-XjaVdwVglA1fVmmTu_bpDzoGkSXFyF5oXL8uRMN3Zt2huUYZodDvwJPg93__g73ZKg4HFRldiNkdA7DnPIj_44lSAtu5UqXkodTmqWl3KSOaLVMQ94ZcNdLEQNHMTfPPZJoe9HSF4N5b3gTnsTHO_eqUdES91KQbAt7HDoDgT9qs30iIwGVX1WSTUh2wU_W40]--></g></svg>