<svg xmlns="http://www.w3.org/2000/svg" xmlns:xlink="http://www.w3.org/1999/xlink" contentStyleType="text/css" data-diagram-type="DESCRIPTION" height="745px" preserveAspectRatio="none" style="width:2376px;height:745px;background:#FFFFFF;" version="1.1" viewBox="0 0 2376 745" width="2376px" zoomAndPan="magnify"><defs/><g><!--cluster Etimad Connector Architecture--><g class="cluster" data-entity="Etimad Connector Architecture" data-source-line="1" data-uid="ent0002" id="cluster_Etimad Connector Architecture"><path d="M8.5,6 L253.543,6 A3.75,3.75 0 0 1 256.043,8.5 L263.043,28.2969 L2366.5,28.2969 A2.5,2.5 0 0 1 2369,30.7969 L2369,736.37 A2.5,2.5 0 0 1 2366.5,738.87 L8.5,738.87 A2.5,2.5 0 0 1 6,736.37 L6,8.5 A2.5,2.5 0 0 1 8.5,6" fill="none" style="stroke:#000000;stroke-width:1.5;"/><line style="stroke:#000000;stroke-width:1.5;" x1="6" x2="263.043" y1="28.2969" y2="28.2969"/><text fill="#000000" font-family="sans-serif" font-size="14" font-weight="bold" lengthAdjust="spacing" textLength="244.043" x="10" y="20.9951">Etimad Connector Architecture</text></g><!--cluster Etimad Connector--><g class="cluster" data-entity="Etimad Connector" data-source-line="3" data-uid="ent0003" id="cluster_Etimad Connector"><rect fill="none" height="113.29" rx="2.5" ry="2.5" style="stroke:#181818;stroke-width:1;" width="502" x="820" y="235.3"/><rect fill="none" height="10" style="stroke:#181818;stroke-width:1;" width="15" x="1302" y="240.3"/><rect fill="none" height="2" style="stroke:#181818;stroke-width:1;" width="4" x="1300" y="242.3"/><rect fill="none" height="2" style="stroke:#181818;stroke-width:1;" width="4" x="1300" y="246.3"/><text fill="#000000" font-family="sans-serif" font-size="14" font-weight="bold" lengthAdjust="spacing" textLength="140.8203" x="1000.5898" y="261.2951">Etimad Connector</text></g><!--cluster API Gateway--><g class="cluster" data-entity="API Gateway" data-source-line="8" data-uid="ent0006" id="cluster_API Gateway"><rect fill="none" height="113.29" rx="2.5" ry="2.5" style="stroke:#181818;stroke-width:1;" width="215" x="1183" y="415.28"/><rect fill="none" height="10" style="stroke:#181818;stroke-width:1;" width="15" x="1378" y="420.28"/><rect fill="none" height="2" style="stroke:#181818;stroke-width:1;" width="4" x="1376" y="422.28"/><rect fill="none" height="2" style="stroke:#181818;stroke-width:1;" width="4" x="1376" y="426.28"/><text fill="#000000" font-family="sans-serif" font-size="14" font-weight="bold" lengthAdjust="spacing" textLength="99.8115" x="1240.5942" y="441.2751">API Gateway</text></g><!--cluster Data Lake--><g class="cluster" data-entity="Data Lake" data-source-line="12" data-uid="ent0008" id="cluster_Data Lake"><rect fill="none" height="113.29" rx="2.5" ry="2.5" style="stroke:#181818;stroke-width:1;" width="256" x="887" y="415.28"/><rect fill="none" height="10" style="stroke:#181818;stroke-width:1;" width="15" x="1123" y="420.28"/><rect fill="none" height="2" style="stroke:#181818;stroke-width:1;" width="4" x="1121" y="422.28"/><rect fill="none" height="2" style="stroke:#181818;stroke-width:1;" width="4" x="1121" y="426.28"/><text fill="#000000" font-family="sans-serif" font-size="14" font-weight="bold" lengthAdjust="spacing" textLength="79.2559" x="975.3721" y="441.2751">Data Lake</text></g><!--cluster Data Warehouse--><g class="cluster" data-entity="Data Warehouse" data-source-line="16" data-uid="ent0010" id="cluster_Data Warehouse"><rect fill="none" height="113.29" rx="2.5" ry="2.5" style="stroke:#181818;stroke-width:1;" width="276" x="1438" y="415.28"/><rect fill="none" height="10" style="stroke:#181818;stroke-width:1;" width="15" x="1694" y="420.28"/><rect fill="none" height="2" style="stroke:#181818;stroke-width:1;" width="4" x="1692" y="422.28"/><rect fill="none" height="2" style="stroke:#181818;stroke-width:1;" width="4" x="1692" y="426.28"/><text fill="#000000" font-family="sans-serif" font-size="14" font-weight="bold" lengthAdjust="spacing" textLength="130.751" x="1510.6245" y="441.2751">Data Warehouse</text></g><!--cluster Orchestration Job--><g class="cluster" data-entity="Orchestration Job" data-source-line="20" data-uid="ent0012" id="cluster_Orchestration Job"><rect fill="none" height="113.3" rx="2.5" ry="2.5" style="stroke:#181818;stroke-width:1;" width="495" x="691" y="57"/><rect fill="none" height="10" style="stroke:#181818;stroke-width:1;" width="15" x="1166" y="62"/><rect fill="none" height="2" style="stroke:#181818;stroke-width:1;" width="4" x="1164" y="64"/><rect fill="none" height="2" style="stroke:#181818;stroke-width:1;" width="4" x="1164" y="68"/><text fill="#000000" font-family="sans-serif" font-size="14" font-weight="bold" lengthAdjust="spacing" textLength="138.7422" x="869.1289" y="82.9951">Orchestration Job</text></g><!--cluster On-Demand Sync--><g class="cluster" data-entity="On-Demand Sync" data-source-line="25" data-uid="ent0015" id="cluster_On-Demand Sync"><rect fill="none" height="113.3" rx="2.5" ry="2.5" style="stroke:#181818;stroke-width:1;" width="275" x="1226" y="57"/><rect fill="none" height="10" style="stroke:#181818;stroke-width:1;" width="15" x="1481" y="62"/><rect fill="none" height="2" style="stroke:#181818;stroke-width:1;" width="4" x="1479" y="64"/><rect fill="none" height="2" style="stroke:#181818;stroke-width:1;" width="4" x="1479" y="68"/><text fill="#000000" font-family="sans-serif" font-size="14" font-weight="bold" lengthAdjust="spacing" textLength="135.167" x="1295.9165" y="82.9951">On-Demand Sync</text></g><!--cluster Error Handling--><g class="cluster" data-entity="Error Handling" data-source-line="29" data-uid="ent0017" id="cluster_Error Handling"><rect fill="none" height="291.59" rx="2.5" ry="2.5" style="stroke:#181818;stroke-width:1;" width="443" x="404" y="415.28"/><rect fill="none" height="10" style="stroke:#181818;stroke-width:1;" width="15" x="827" y="420.28"/><rect fill="none" height="2" style="stroke:#181818;stroke-width:1;" width="4" x="825" y="422.28"/><rect fill="none" height="2" style="stroke:#181818;stroke-width:1;" width="4" x="825" y="426.28"/><text fill="#000000" font-family="sans-serif" font-size="14" font-weight="bold" lengthAdjust="spacing" textLength="115.5068" x="567.7466" y="441.2751">Error Handling</text></g><!--cluster Recovery Jobs--><g class="cluster" data-entity="Recovery Jobs" data-source-line="35" data-uid="ent0021" id="cluster_Recovery Jobs"><rect fill="none" height="113.3" rx="2.5" ry="2.5" style="stroke:#181818;stroke-width:1;" width="391" x="887" y="593.57"/><rect fill="none" height="10" style="stroke:#181818;stroke-width:1;" width="15" x="1258" y="598.57"/><rect fill="none" height="2" style="stroke:#181818;stroke-width:1;" width="4" x="1256" y="600.57"/><rect fill="none" height="2" style="stroke:#181818;stroke-width:1;" width="4" x="1256" y="604.57"/><text fill="#000000" font-family="sans-serif" font-size="14" font-weight="bold" lengthAdjust="spacing" textLength="110.8994" x="1027.0503" y="619.5651">Recovery Jobs</text></g><!--cluster Secrets Vault--><g class="cluster" data-entity="Secrets Vault" data-source-line="40" data-uid="ent0024" id="cluster_Secrets Vault"><rect fill="none" height="113.29" rx="2.5" ry="2.5" style="stroke:#181818;stroke-width:1;" width="219" x="1754" y="415.28"/><rect fill="none" height="10" style="stroke:#181818;stroke-width:1;" width="15" x="1953" y="420.28"/><rect fill="none" height="2" style="stroke:#181818;stroke-width:1;" width="4" x="1951" y="422.28"/><rect fill="none" height="2" style="stroke:#181818;stroke-width:1;" width="4" x="1951" y="426.28"/><text fill="#000000" font-family="sans-serif" font-size="14" font-weight="bold" lengthAdjust="spacing" textLength="105.916" x="1810.542" y="441.2751">Secrets Vault</text></g><!--cluster Audit Logs--><g class="cluster" data-entity="Audit Logs" data-source-line="44" data-uid="ent0026" id="cluster_Audit Logs"><rect fill="none" height="113.29" rx="2.5" ry="2.5" style="stroke:#181818;stroke-width:1;" width="326" x="38" y="415.28"/><rect fill="none" height="10" style="stroke:#181818;stroke-width:1;" width="15" x="344" y="420.28"/><rect fill="none" height="2" style="stroke:#181818;stroke-width:1;" width="4" x="342" y="422.28"/><rect fill="none" height="2" style="stroke:#181818;stroke-width:1;" width="4" x="342" y="426.28"/><text fill="#000000" font-family="sans-serif" font-size="14" font-weight="bold" lengthAdjust="spacing" textLength="84.082" x="158.959" y="441.2751">Audit Logs</text></g><g class="entity" data-entity="GMN38" data-source-line="60" data-uid="ent0039" id="entity_GMN38"><path d="M1349.53,258.61 L1349.53,344.2741 L1520.4743,344.2741 L1520.4743,268.61 L1510.4743,258.61 L1349.53,258.61" fill="#FEFFDD" style="stroke:#181818;stroke-width:0.5;"/><path d="M1510.4743,258.61 L1510.4743,268.61 L1520.4743,268.61 L1510.4743,258.61" fill="#FEFFDD" style="stroke:#181818;stroke-width:1;"/><text fill="#000000" font-family="sans-serif" font-size="13" lengthAdjust="spacing" textLength="149.9443" x="1355.53" y="275.6769">- Pulls Company Profile</text><text fill="#000000" font-family="sans-serif" font-size="13" lengthAdjust="spacing" textLength="135.8208" x="1355.53" y="290.8097">- Pulls Classifications</text><text fill="#000000" font-family="sans-serif" font-size="13" lengthAdjust="spacing" textLength="138.4106" x="1355.53" y="305.9425">- Pulls Eligibility Caps</text><text fill="#000000" font-family="sans-serif" font-size="13" lengthAdjust="spacing" textLength="149.0239" x="1355.53" y="321.0753">- Pulls Historic Tenders</text><text fill="#000000" font-family="sans-serif" font-size="13" lengthAdjust="spacing" textLength="134.4307" x="1355.53" y="336.2081">- Pulls Open Tenders</text></g><g class="entity" data-entity="GMN41" data-source-line="68" data-uid="ent0042" id="entity_GMN41"><path d="M1999.97,468.86 L1999.97,493.9928 L2162.0276,493.9928 L2162.0276,478.86 L2152.0276,468.86 L1999.97,468.86" fill="#FEFFDD" style="stroke:#181818;stroke-width:0.5;"/><path d="M2152.0276,468.86 L2152.0276,478.86 L2162.0276,478.86 L2152.0276,468.86" fill="#FEFFDD" style="stroke:#181818;stroke-width:1;"/><text fill="#000000" font-family="sans-serif" font-size="13" lengthAdjust="spacing" textLength="141.0576" x="2005.97" y="485.9269">- Ensures Compliance</text></g><g class="entity" data-entity="GMN44" data-source-line="72" data-uid="ent0045" id="entity_GMN44"><path d="M2196.59,468.86 L2196.59,493.9928 L2353.4108,493.9928 L2353.4108,478.86 L2343.4108,468.86 L2196.59,468.86" fill="#FEFFDD" style="stroke:#181818;stroke-width:0.5;"/><path d="M2343.4108,468.86 L2343.4108,478.86 L2353.4108,478.86 L2343.4108,468.86" fill="#FEFFDD" style="stroke:#181818;stroke-width:1;"/><text fill="#000000" font-family="sans-serif" font-size="13" lengthAdjust="spacing" textLength="135.8208" x="2202.59" y="485.9269">- Validates Contracts</text></g><!--entity OAuth2 Authentication--><g class="entity" data-entity="OAuth2 Authentication" data-source-line="4" data-uid="ent0004" id="entity_OAuth2 Authentication"><rect fill="#F1F1F1" height="46.2969" rx="2.5" ry="2.5" style="stroke:#181818;stroke-width:0.5;" width="199.9609" x="844.02" y="278.3"/><rect fill="#F1F1F1" height="10" style="stroke:#181818;stroke-width:0.5;" width="15" x="1023.9809" y="283.3"/><rect fill="#F1F1F1" height="2" style="stroke:#181818;stroke-width:0.5;" width="4" x="1021.9809" y="285.3"/><rect fill="#F1F1F1" height="2" style="stroke:#181818;stroke-width:0.5;" width="4" x="1021.9809" y="289.3"/><text fill="#000000" font-family="sans-serif" font-size="14" lengthAdjust="spacing" textLength="159.9609" x="859.02" y="311.2951">OAuth2 Authentication</text></g><!--entity API Key Authentication--><g class="entity" data-entity="API Key Authentication" data-source-line="5" data-uid="ent0005" id="entity_API Key Authentication"><rect fill="#F1F1F1" height="46.2969" rx="2.5" ry="2.5" style="stroke:#181818;stroke-width:0.5;" width="199.8994" x="1079.05" y="278.3"/><rect fill="#F1F1F1" height="10" style="stroke:#181818;stroke-width:0.5;" width="15" x="1258.9494" y="283.3"/><rect fill="#F1F1F1" height="2" style="stroke:#181818;stroke-width:0.5;" width="4" x="1256.9494" y="285.3"/><rect fill="#F1F1F1" height="2" style="stroke:#181818;stroke-width:0.5;" width="4" x="1256.9494" y="289.3"/><text fill="#000000" font-family="sans-serif" font-size="14" lengthAdjust="spacing" textLength="159.8994" x="1094.05" y="311.2951">API Key Authentication</text></g><!--entity IP/VPN Allowlist--><g class="entity" data-entity="IP.VPN Allowlist" data-source-line="9" data-uid="ent0007" id="entity_IP.VPN Allowlist"><rect fill="#F1F1F1" height="46.2969" rx="2.5" ry="2.5" style="stroke:#181818;stroke-width:0.5;" width="148.165" x="1206.92" y="458.28"/><rect fill="#F1F1F1" height="10" style="stroke:#181818;stroke-width:0.5;" width="15" x="1335.085" y="463.28"/><rect fill="#F1F1F1" height="2" style="stroke:#181818;stroke-width:0.5;" width="4" x="1333.085" y="465.28"/><rect fill="#F1F1F1" height="2" style="stroke:#181818;stroke-width:0.5;" width="4" x="1333.085" y="469.28"/><text fill="#000000" font-family="sans-serif" font-size="14" lengthAdjust="spacing" textLength="108.165" x="1221.92" y="491.2751">IP/VPN Allowlist</text></g><!--entity Raw Payload Storage--><g class="entity" data-entity="Raw Payload Storage" data-source-line="13" data-uid="ent0009" id="entity_Raw Payload Storage"><rect fill="#F1F1F1" height="46.2969" rx="2.5" ry="2.5" style="stroke:#181818;stroke-width:0.5;" width="188.6611" x="910.67" y="458.28"/><rect fill="#F1F1F1" height="10" style="stroke:#181818;stroke-width:0.5;" width="15" x="1079.3311" y="463.28"/><rect fill="#F1F1F1" height="2" style="stroke:#181818;stroke-width:0.5;" width="4" x="1077.3311" y="465.28"/><rect fill="#F1F1F1" height="2" style="stroke:#181818;stroke-width:0.5;" width="4" x="1077.3311" y="469.28"/><text fill="#000000" font-family="sans-serif" font-size="14" lengthAdjust="spacing" textLength="148.6611" x="925.67" y="491.2751">Raw Payload Storage</text></g><!--entity Curated Record Storage--><g class="entity" data-entity="Curated Record Storage" data-source-line="17" data-uid="ent0011" id="entity_Curated Record Storage"><rect fill="#F1F1F1" height="46.2969" rx="2.5" ry="2.5" style="stroke:#181818;stroke-width:0.5;" width="208.8955" x="1461.55" y="458.28"/><rect fill="#F1F1F1" height="10" style="stroke:#181818;stroke-width:0.5;" width="15" x="1650.4455" y="463.28"/><rect fill="#F1F1F1" height="2" style="stroke:#181818;stroke-width:0.5;" width="4" x="1648.4455" y="465.28"/><rect fill="#F1F1F1" height="2" style="stroke:#181818;stroke-width:0.5;" width="4" x="1648.4455" y="469.28"/><text fill="#000000" font-family="sans-serif" font-size="14" lengthAdjust="spacing" textLength="168.8955" x="1476.55" y="491.2751">Curated Record Storage</text></g><!--entity Nightly Full Sync--><g class="entity" data-entity="Nightly Full Sync" data-source-line="21" data-uid="ent0013" id="entity_Nightly Full Sync"><rect fill="#F1F1F1" height="46.2969" rx="2.5" ry="2.5" style="stroke:#181818;stroke-width:0.5;" width="157.1338" x="715.43" y="100"/><rect fill="#F1F1F1" height="10" style="stroke:#181818;stroke-width:0.5;" width="15" x="852.5638" y="105"/><rect fill="#F1F1F1" height="2" style="stroke:#181818;stroke-width:0.5;" width="4" x="850.5638" y="107"/><rect fill="#F1F1F1" height="2" style="stroke:#181818;stroke-width:0.5;" width="4" x="850.5638" y="111"/><text fill="#000000" font-family="sans-serif" font-size="14" lengthAdjust="spacing" textLength="117.1338" x="730.43" y="132.9951">Nightly Full Sync</text></g><!--entity Pagination & Checkpointing--><g class="entity" data-entity="Pagination . Checkpointing" data-source-line="22" data-uid="ent0014" id="entity_Pagination . Checkpointing"><rect fill="#F1F1F1" height="46.2969" rx="2.5" ry="2.5" style="stroke:#181818;stroke-width:0.5;" width="234.3047" x="907.85" y="100"/><rect fill="#F1F1F1" height="10" style="stroke:#181818;stroke-width:0.5;" width="15" x="1122.1547" y="105"/><rect fill="#F1F1F1" height="2" style="stroke:#181818;stroke-width:0.5;" width="4" x="1120.1547" y="107"/><rect fill="#F1F1F1" height="2" style="stroke:#181818;stroke-width:0.5;" width="4" x="1120.1547" y="111"/><text fill="#000000" font-family="sans-serif" font-size="14" lengthAdjust="spacing" textLength="194.3047" x="922.85" y="132.9951">Pagination &amp; Checkpointing</text></g><!--entity Authorized User Trigger--><g class="entity" data-entity="Authorized User Trigger" data-source-line="26" data-uid="ent0016" id="entity_Authorized User Trigger"><rect fill="#F1F1F1" height="46.2969" rx="2.5" ry="2.5" style="stroke:#181818;stroke-width:0.5;" width="207.0225" x="1250.49" y="100"/><rect fill="#F1F1F1" height="10" style="stroke:#181818;stroke-width:0.5;" width="15" x="1437.5125" y="105"/><rect fill="#F1F1F1" height="2" style="stroke:#181818;stroke-width:0.5;" width="4" x="1435.5125" y="107"/><rect fill="#F1F1F1" height="2" style="stroke:#181818;stroke-width:0.5;" width="4" x="1435.5125" y="111"/><text fill="#000000" font-family="sans-serif" font-size="14" lengthAdjust="spacing" textLength="167.0225" x="1265.49" y="132.9951">Authorized User Trigger</text></g><!--entity Dead-Letter Store--><g class="entity" data-entity="Dead-Letter Store" data-source-line="30" data-uid="ent0018" id="entity_Dead-Letter Store"><rect fill="#F1F1F1" height="46.2969" rx="2.5" ry="2.5" style="stroke:#181818;stroke-width:0.5;" width="165.4326" x="428.28" y="458.28"/><rect fill="#F1F1F1" height="10" style="stroke:#181818;stroke-width:0.5;" width="15" x="573.7126" y="463.28"/><rect fill="#F1F1F1" height="2" style="stroke:#181818;stroke-width:0.5;" width="4" x="571.7126" y="465.28"/><rect fill="#F1F1F1" height="2" style="stroke:#181818;stroke-width:0.5;" width="4" x="571.7126" y="469.28"/><text fill="#000000" font-family="sans-serif" font-size="14" lengthAdjust="spacing" textLength="125.4326" x="443.28" y="491.2751">Dead-Letter Store</text></g><!--entity Contract Validation--><g class="entity" data-entity="Contract Validation" data-source-line="31" data-uid="ent0019" id="entity_Contract Validation"><rect fill="#F1F1F1" height="46.2969" rx="2.5" ry="2.5" style="stroke:#181818;stroke-width:0.5;" width="174.8936" x="628.55" y="458.28"/><rect fill="#F1F1F1" height="10" style="stroke:#181818;stroke-width:0.5;" width="15" x="783.4436" y="463.28"/><rect fill="#F1F1F1" height="2" style="stroke:#181818;stroke-width:0.5;" width="4" x="781.4436" y="465.28"/><rect fill="#F1F1F1" height="2" style="stroke:#181818;stroke-width:0.5;" width="4" x="781.4436" y="469.28"/><text fill="#000000" font-family="sans-serif" font-size="14" lengthAdjust="spacing" textLength="134.8936" x="643.55" y="491.2751">Contract Validation</text></g><!--entity Schema Registry--><g class="entity" data-entity="Schema Registry" data-source-line="32" data-uid="ent0020" id="entity_Schema Registry"><rect fill="#F1F1F1" height="46.2969" rx="2.5" ry="2.5" style="stroke:#181818;stroke-width:0.5;" width="158.6787" x="431.66" y="636.57"/><rect fill="#F1F1F1" height="10" style="stroke:#181818;stroke-width:0.5;" width="15" x="570.3387" y="641.57"/><rect fill="#F1F1F1" height="2" style="stroke:#181818;stroke-width:0.5;" width="4" x="568.3387" y="643.57"/><rect fill="#F1F1F1" height="2" style="stroke:#181818;stroke-width:0.5;" width="4" x="568.3387" y="647.57"/><text fill="#000000" font-family="sans-serif" font-size="14" lengthAdjust="spacing" textLength="118.6787" x="446.66" y="669.5651">Schema Registry</text></g><!--entity Replay Records--><g class="entity" data-entity="Replay Records" data-source-line="36" data-uid="ent0022" id="entity_Replay Records"><rect fill="#F1F1F1" height="46.2969" rx="2.5" ry="2.5" style="stroke:#181818;stroke-width:0.5;" width="148.9717" x="910.51" y="636.57"/><rect fill="#F1F1F1" height="10" style="stroke:#181818;stroke-width:0.5;" width="15" x="1039.4817" y="641.57"/><rect fill="#F1F1F1" height="2" style="stroke:#181818;stroke-width:0.5;" width="4" x="1037.4817" y="643.57"/><rect fill="#F1F1F1" height="2" style="stroke:#181818;stroke-width:0.5;" width="4" x="1037.4817" y="647.57"/><text fill="#000000" font-family="sans-serif" font-size="14" lengthAdjust="spacing" textLength="108.9717" x="925.51" y="669.5651">Replay Records</text></g><!--entity Patch Records--><g class="entity" data-entity="Patch Records" data-source-line="37" data-uid="ent0023" id="entity_Patch Records"><rect fill="#F1F1F1" height="46.2969" rx="2.5" ry="2.5" style="stroke:#181818;stroke-width:0.5;" width="140.0713" x="1094.96" y="636.57"/><rect fill="#F1F1F1" height="10" style="stroke:#181818;stroke-width:0.5;" width="15" x="1215.0313" y="641.57"/><rect fill="#F1F1F1" height="2" style="stroke:#181818;stroke-width:0.5;" width="4" x="1213.0313" y="643.57"/><rect fill="#F1F1F1" height="2" style="stroke:#181818;stroke-width:0.5;" width="4" x="1213.0313" y="647.57"/><text fill="#000000" font-family="sans-serif" font-size="14" lengthAdjust="spacing" textLength="100.0713" x="1109.96" y="669.5651">Patch Records</text></g><!--entity Secrets Storage--><g class="entity" data-entity="Secrets Storage" data-source-line="41" data-uid="ent0025" id="entity_Secrets Storage"><rect fill="#F1F1F1" height="46.2969" rx="2.5" ry="2.5" style="stroke:#181818;stroke-width:0.5;" width="151.5762" x="1778.21" y="458.28"/><rect fill="#F1F1F1" height="10" style="stroke:#181818;stroke-width:0.5;" width="15" x="1909.7862" y="463.28"/><rect fill="#F1F1F1" height="2" style="stroke:#181818;stroke-width:0.5;" width="4" x="1907.7862" y="465.28"/><rect fill="#F1F1F1" height="2" style="stroke:#181818;stroke-width:0.5;" width="4" x="1907.7862" y="469.28"/><text fill="#000000" font-family="sans-serif" font-size="14" lengthAdjust="spacing" textLength="111.5762" x="1793.21" y="491.2751">Secrets Storage</text></g><!--entity Request/Response Fingerprints--><g class="entity" data-entity="Request.Response Fingerprints" data-source-line="45" data-uid="ent0027" id="entity_Request.Response Fingerprints"><rect fill="#F1F1F1" height="46.2969" rx="2.5" ry="2.5" style="stroke:#181818;stroke-width:0.5;" width="258.791" x="61.6" y="458.28"/><rect fill="#F1F1F1" height="10" style="stroke:#181818;stroke-width:0.5;" width="15" x="300.391" y="463.28"/><rect fill="#F1F1F1" height="2" style="stroke:#181818;stroke-width:0.5;" width="4" x="298.391" y="465.28"/><rect fill="#F1F1F1" height="2" style="stroke:#181818;stroke-width:0.5;" width="4" x="298.391" y="469.28"/><text fill="#000000" font-family="sans-serif" font-size="14" lengthAdjust="spacing" textLength="218.791" x="76.6" y="491.2751">Request/Response Fingerprints</text></g><!--link Etimad Connector to API Gateway--><g class="link" data-entity-1="Etimad Connector" data-entity-2="API Gateway" data-source-line="48" data-uid="lnk28" id="link_Etimad Connector_API Gateway"><path d="M1300.6174,348.9862 C1300.5577,349.5898 1300.5033,350.1944 1300.4547,350.7999 C1300.0656,355.6432 1300.0401,360.5363 1300.5348,365.3142 C1301.5244,374.87 1304.595,383.965 1311,391.28 C1328.72,411.52 1351.07,381.2 1371,399.28 C1374.3225,402.2925 1377.1189,405.7653 1379.4679,409.5428 C1380.0552,410.4871 1380.6144,411.4505 1381.147,412.4306 C1381.4133,412.9206 1381.6729,413.4147 1381.9259,413.9127 C1382.0525,414.1617 1382.1774,414.4117 1382.3007,414.6626 C1382.3623,414.788 1379.813,409.5114 1379.8738,409.6373" fill="none" id="Etimad Connector-to-API Gateway" style="stroke:#181818;stroke-width:1;"/><polygon fill="#181818" points="1382.4844,415.0396,1382.1701,405.1958,1380.3089,410.5377,1374.967,408.6765,1382.4844,415.0396" style="stroke:#181818;stroke-width:1;"/><text fill="#000000" font-family="sans-serif" font-size="13" lengthAdjust="spacing" textLength="152.9277" x="1312" y="387.3469">Communicates through</text></g><!--link API Gateway to Etimad Connector--><g class="link" data-entity-1="API Gateway" data-entity-2="Etimad Connector" data-source-line="49" data-uid="lnk29" id="link_API Gateway_Etimad Connector"><path d="M1398.0515,462.6857 C1398.4878,461.8134 1398.9411,460.9187 1399.411,460.0038 C1401.2909,456.3444 1403.4378,452.3625 1405.8388,448.205 C1415.4425,431.575 1429.11,412.135 1446,399.28 C1454.61,392.72 1462.73,400.1 1469,391.28 C1473.38,385.12 1474.17,379.79 1469,374.28 C1446,349.75 1341.78,388.37 1318,364.59 C1315.63,362.22 1313.7753,359.5127 1312.3459,356.5844 C1311.6312,355.1203 1311.0228,353.601 1310.5095,352.041 C1310.2528,351.261 1310.0199,350.4708 1309.8094,349.6723 C1309.7567,349.4727 1309.7055,349.2726 1309.6556,349.0719 C1309.6307,348.9716 1311.0124,354.704 1310.9882,354.6035" fill="none" id="API Gateway-to-Etimad Connector" style="stroke:#181818;stroke-width:1;"/><polygon fill="#181818" points="1309.5819,348.7706,1307.8027,358.4574,1310.7538,353.6313,1315.5799,356.5824,1309.5819,348.7706" style="stroke:#181818;stroke-width:1;"/><text fill="#000000" font-family="sans-serif" font-size="13" lengthAdjust="spacing" textLength="136.7666" x="1473.59" y="387.3469">Allowlisted by IP/VPN</text></g><!--link Etimad Connector to Data Lake--><g class="link" data-entity-1="Etimad Connector" data-entity-2="Data Lake" data-source-line="50" data-uid="lnk30" id="link_Etimad Connector_Data Lake"><path d="M1306.8316,348.8217 C1306.7859,348.9212 1306.7398,349.0207 1306.6935,349.12 C1306.5082,349.5172 1306.3185,349.9121 1306.1242,350.3044 C1305.7356,351.089 1305.3288,351.8632 1304.9029,352.6251 C1304.0512,354.149 1303.1232,355.6237 1302.1123,357.0336 C1300.0906,359.8533 1297.7375,362.4138 1295,364.59 C1270.59,384 1178.3,353.55 1155,374.28 C1146.17,382.13 1140.475,392.5444 1136.9067,403.7856 C1136.0146,406.5959 1135.2555,409.4579 1134.6135,412.3445 C1134.453,413.0661 1134.2998,413.7892 1134.1537,414.5135 C1134.1172,414.6946 1135.2392,408.9885 1135.2035,409.1697" fill="none" id="Etimad Connector-to-Data Lake" style="stroke:#181818;stroke-width:1;"/><polygon fill="#181818" points="1134.0455,415.0569,1139.7074,406.9982,1135.0105,410.1509,1131.8578,405.4541,1134.0455,415.0569" style="stroke:#181818;stroke-width:1;"/><text fill="#000000" font-family="sans-serif" font-size="13" lengthAdjust="spacing" textLength="137.3887" x="1156" y="387.3469">Persist Raw Payloads</text></g><!--link Etimad Connector to Data Warehouse--><g class="link" data-entity-1="Etimad Connector" data-entity-2="Data Warehouse" data-source-line="51" data-uid="lnk31" id="link_Etimad Connector_Data Warehouse"><path d="M1309.384,348.5988 C1309.4794,349.0008 1309.5804,349.4009 1309.687,349.7987 C1309.9002,350.5945 1310.1362,351.3814 1310.3964,352.1578 C1310.9167,353.7106 1311.5337,355.221 1312.2589,356.6743 C1313.7094,359.5808 1315.5925,362.2588 1318,364.59 C1330.02,376.23 1602.59,371.04 1619,374.28 C1650.18,380.42 1664.86,375.54 1686,399.28 C1688.9913,402.6388 1691.5514,406.3739 1693.741,410.3451 C1694.2884,411.3378 1694.8126,412.3454 1695.3147,413.3655 C1695.5657,413.8755 1693.2807,408.9484 1693.5208,409.4644" fill="none" id="Etimad Connector-to-Data Warehouse" style="stroke:#181818;stroke-width:1;"/><polygon fill="#181818" points="1696.0511,414.9048,1695.8825,405.0573,1693.9425,410.3712,1688.6287,408.4312,1696.0511,414.9048" style="stroke:#181818;stroke-width:1;"/><text fill="#000000" font-family="sans-serif" font-size="13" lengthAdjust="spacing" textLength="156.1777" x="1678.44" y="387.3469">Persist Curated Records</text></g><!--link Orchestration Job to Etimad Connector--><g class="link" data-entity-1="Orchestration Job" data-entity-2="Etimad Connector" data-source-line="52" data-uid="lnk32" id="link_Orchestration Job_Etimad Connector"><path d="M1186.1451,136.9539 C1186.2866,137.1638 1186.4299,137.3758 1186.5748,137.5898 C1187.1546,138.4456 1187.7614,139.3327 1188.3947,140.2482 C1189.6613,142.0792 1191.0335,144.024 1192.5058,146.0595 C1195.4502,150.1304 1198.7947,154.5641 1202.4937,159.1763 C1217.29,177.625 1237.76,198.93 1261,211.3 C1274.7,218.59 1284.03,208.31 1295,219.3 C1298.17,222.4725 1300.8509,226.0666 1303.1148,229.9336 C1303.6807,230.9003 1304.2206,231.8841 1304.7356,232.8827 C1304.993,233.382 1305.2443,233.8849 1305.4894,234.3913 C1305.612,234.6445 1303.1849,229.4664 1303.3045,229.7213" fill="none" id="Orchestration Job-to-Etimad Connector" style="stroke:#181818;stroke-width:1;"/><polygon fill="#181818" points="1305.8526,235.1533,1305.6518,225.3065,1303.7292,230.6266,1298.4091,228.7039,1305.8526,235.1533" style="stroke:#181818;stroke-width:1;"/><text fill="#000000" font-family="sans-serif" font-size="13" lengthAdjust="spacing" textLength="101.5942" x="1262" y="207.3669">Runs Full Syncs</text></g><!--link On-Demand Sync to Etimad Connector--><g class="link" data-entity-1="On-Demand Sync" data-entity-2="Etimad Connector" data-source-line="53" data-uid="lnk33" id="link_On-Demand Sync_Etimad Connector"><path d="M1484.9367,170.4055 C1484.8913,170.5063 1484.8457,170.6069 1484.7998,170.7074 C1484.708,170.9084 1484.6151,171.109 1484.5213,171.309 C1484.146,172.1091 1483.7543,172.9011 1483.3456,173.6832 C1482.5283,175.2474 1481.6428,176.7719 1480.6837,178.2423 C1478.7655,181.1831 1476.5525,183.9075 1474,186.3 C1438.68,219.39 1415.49,201.91 1368,211.3 C1356.96,213.48 1325.51,210.92 1318,219.3 C1315.0813,222.5562 1312.8108,226.2137 1311.0744,230.1276 C1310.6403,231.106 1310.2396,232.1005 1309.8704,233.1087 C1309.6859,233.6129 1309.5092,234.1204 1309.3402,234.6311 C1309.298,234.7588 1311.0974,229.1762 1311.0561,229.3042" fill="none" id="On-Demand Sync-to-Etimad Connector" style="stroke:#181818;stroke-width:1;"/><polygon fill="#181818" points="1309.2149,235.0148,1315.7837,227.6764,1310.7492,230.256,1308.1697,225.2215,1309.2149,235.0148" style="stroke:#181818;stroke-width:1;"/><text fill="#000000" font-family="sans-serif" font-size="13" lengthAdjust="spacing" textLength="95.7544" x="1464.73" y="207.3669">Triggers Syncs</text></g><!--link Etimad Connector to Error Handling--><g class="link" data-entity-1="Etimad Connector" data-entity-2="Error Handling" data-source-line="54" data-uid="lnk34" id="link_Etimad Connector_Error Handling"><path d="M1307.1085,348.7017 C1307.0175,348.9007 1306.9253,349.0991 1306.832,349.2969 C1306.6455,349.6925 1306.4544,350.0856 1306.2586,350.476 C1305.8671,351.2568 1305.4569,352.0267 1305.0272,352.7837 C1304.1678,354.2977 1303.2303,355.7602 1302.2079,357.1554 C1300.1631,359.9456 1297.7788,362.4663 1295,364.59 C1281.44,374.96 1004.88,371.78 988,374.28 C945.66,380.55 929.97,374.59 895,399.28 C877.66,411.52 863.98,430.94 854.4825,447.7125 C852.1081,451.9056 849.9952,455.9333 848.1518,459.6419 C847.9213,460.1055 847.6951,460.5641 847.4731,461.0174 C847.3621,461.2441 849.8754,456.0732 849.7665,456.2972" fill="none" id="Etimad Connector-to-Error Handling" style="stroke:#181818;stroke-width:1;"/><polygon fill="#181818" points="847.1433,461.6934,854.6755,455.3478,849.3293,457.1965,847.4806,451.8503,847.1433,461.6934" style="stroke:#181818;stroke-width:1;"/><text fill="#000000" font-family="sans-serif" font-size="13" lengthAdjust="spacing" textLength="145.8184" x="989" y="387.3469">Routes Partial Failures</text></g><!--link Error Handling to Recovery Jobs--><g class="link" data-entity-1="Error Handling" data-entity-2="Recovery Jobs" data-source-line="55" data-uid="lnk35" id="link_Error Handling_Recovery Jobs"><path d="M847.13,496.4125 C847.241,496.5865 847.3531,496.7616 847.4663,496.9377 C847.9189,497.6422 848.3882,498.3636 848.874,499.0998 C850.8172,502.0446 853.0231,505.2266 855.47,508.5137 C865.2575,521.6625 878.9,536.495 895,544.57 C966.02,580.19 1191.09,525.39 1251,577.57 C1254.3825,580.5163 1257.2244,583.9389 1259.607,587.6794 C1260.7982,589.5496 1259.2623,586.0979 1260.2341,588.1072" fill="none" id="Error Handling-to-Recovery Jobs" style="stroke:#181818;stroke-width:1;"/><polygon fill="#181818" points="1262.8465,593.5087,1262.5289,583.6649,1260.6695,589.0075,1255.327,587.1481,1262.8465,593.5087" style="stroke:#181818;stroke-width:1;"/><text fill="#000000" font-family="sans-serif" font-size="13" lengthAdjust="spacing" textLength="180.5845" x="1239.5" y="565.6369">Replays or Patches Records</text></g><!--link Etimad Connector to Secrets Vault--><g class="link" data-entity-1="Etimad Connector" data-entity-2="Secrets Vault" data-source-line="56" data-uid="lnk36" id="link_Etimad Connector_Secrets Vault"><path d="M1309.329,348.6537 C1309.425,349.0552 1309.5265,349.4547 1309.6337,349.8519 C1309.8481,350.6465 1310.0855,351.4321 1310.3472,352.207 C1310.8706,353.7567 1311.4914,355.2633 1312.2212,356.712 C1313.6808,359.6094 1315.5763,362.275 1318,364.59 C1328.55,374.67 1828.53,372.41 1843,374.28 C1889.72,380.3 1912.83,365.83 1946,399.28 C1949.1588,402.4638 1951.8311,406.0663 1954.0885,409.9394 C1954.6529,410.9077 1955.1913,411.8929 1955.7049,412.8927 C1955.9617,413.3926 1956.2123,413.8962 1956.4568,414.4031 C1956.5791,414.6566 1954.159,409.4754 1954.2782,409.7305" fill="none" id="Etimad Connector-to-Secrets Vault" style="stroke:#181818;stroke-width:1;"/><polygon fill="#181818" points="1956.8191,415.166,1956.6314,405.3189,1954.7017,410.6364,1949.3842,408.7068,1956.8191,415.166" style="stroke:#181818;stroke-width:1;"/><text fill="#000000" font-family="sans-serif" font-size="13" lengthAdjust="spacing" textLength="94.1611" x="1937.32" y="387.3469">Stores Secrets</text></g><!--link Etimad Connector to Audit Logs--><g class="link" data-entity-1="Etimad Connector" data-entity-2="Audit Logs" data-source-line="57" data-uid="lnk37" id="link_Etimad Connector_Audit Logs"><path d="M1307.1557,348.7601 C1307.0645,348.9589 1306.9721,349.1571 1306.8786,349.3546 C1306.6917,349.7497 1306.5001,350.1423 1306.3038,350.5321 C1305.9113,351.3117 1305.4999,352.0802 1305.0689,352.8357 C1304.2068,354.3466 1303.2662,355.8052 1302.2399,357.1956 C1300.1873,359.9763 1297.7925,362.4838 1295,364.59 C1283.31,373.41 782.63,373.63 768,374.28 C688.77,377.78 480.89,359.98 412,399.28 C393.265,409.965 379.4075,429.79 370.1637,447.1688 C367.8528,451.5134 368.2951,450.2349 366.5568,454.0928" fill="none" id="Etimad Connector-to-Audit Logs" style="stroke:#181818;stroke-width:1;"/><polygon fill="#181818" points="364.0919,459.5631,371.4361,453.0009,366.146,455.0045,364.1424,449.7144,364.0919,459.5631" style="stroke:#181818;stroke-width:1;"/><text fill="#000000" font-family="sans-serif" font-size="13" lengthAdjust="spacing" textLength="131.3267" x="769" y="387.3469">Captures Audit Logs</text></g><!--link Etimad Connector to GMN38--><g class="link" data-entity-1="Etimad Connector" data-entity-2="GMN38" data-source-line="60" data-uid="lnk40" id="link_Etimad Connector_GMN38"><path d="M1322.0943,301.44 C1322.4573,301.44 1322.8203,301.44 1323.1833,301.44 C1326.0872,301.44 1328.9906,301.44 1331.8938,301.44 C1337.7,301.44 1343.505,301.44 1349.31,301.44" fill="none" id="Etimad Connector-GMN38" style="stroke:#181818;stroke-width:1;stroke-dasharray:7,7;"/></g><!--link Audit Logs to GMN41--><g class="link" data-entity-1="Audit Logs" data-entity-2="GMN41" data-source-line="68" data-uid="lnk43" id="link_Audit Logs_GMN41"><path d="M364.1249,459.4199 C364.1848,459.2794 364.2451,459.1384 364.3057,458.997 C365.2754,456.7345 366.3322,454.3598 367.4773,451.9017 C369.7677,446.9855 372.4113,441.7356 375.4175,436.3825 C387.4425,414.97 405.27,391.905 429.5,381.93 C468.9,365.72 1923.49,367.27 1963.5,381.93 C2011.18,399.41 2052.81,445.75 2071.11,468.48" fill="none" id="Audit Logs-GMN41" style="stroke:#181818;stroke-width:1;stroke-dasharray:7,7;"/></g><!--link Error Handling to GMN44--><g class="link" data-entity-1="Error Handling" data-entity-2="GMN44" data-source-line="72" data-uid="lnk46" id="link_Error Handling_GMN44"><path d="M847.1249,459.4199 C847.1848,459.2794 847.2451,459.1384 847.3057,458.997 C848.2754,456.7345 849.3322,454.3598 850.4773,451.9017 C852.7677,446.9855 855.4113,441.7356 858.4175,436.3825 C870.4425,414.97 888.27,391.905 912.5,381.93 C944.61,368.72 2130.03,369.64 2162.5,381.93 C2208.83,399.48 2248.36,445.79 2265.66,468.49" fill="none" id="Error Handling-GMN44" style="stroke:#181818;stroke-width:1;stroke-dasharray:7,7;"/></g><!--SRC=[XLHDRzim3BtdLn0zx1OKsB670K6Rhjs2raYwxb3amCgiBKIMF4bUuGtzxwDapn-9wm9148XyZu_a2qiK1ym8pjPU5fZ2fT6QX3SMLbRaqlFloj8P_5q0y4UOeZIQj3y5D3a0J_UhokUV8NnpeXJefT7x9hPARk4xrHF1jvC28VShUdh5kkE-JSuVapjOAMLUbNH-6dc57c631-fmMto516jbMF6EnNBBCz2VQ2atbUlnbvLb9IbiIHZx0SKz3uwSjx4r-6QUEvOxcULUrN1TAGMxMejsAWbcKZVfd-0o9t4eZUJfwEoT2dfvHGNgD99qz66enie_hFE78miFLcOPsMcEjRMyv1icKLoduxWYJ9SRyfxneKjg9VAQkIFXuH6LJ8ShtN6t1V9aCjw7hQUhXRdz9bk7SRX-ArGghDkXkcuONkJ3jrEs7GbBth6MIlcExV_hx79MLIezR4msLF6hudsTRybnbYEuve6GBIslO2ZWwTZnUrWklpIURdswXmiE5qMbWxF9WS-jgR9y0KTf4NZATz4xcvVuN4FZzvdYdTK3E27h60e3jxkFi9tNXmHZkqUE4rVFDB6jjEjDti17bft1jgPrFVGTzMC3nxAc2ZDFq7g92gvHAhvT3STHScGOcJ8IH3ywuDJeGYORJE0T7ICp1fRujs7zpVkSSJelHjzW6KwjW_vvmM1jF84DXmFComHLzF0I4fws2zuhKTUGMFCY5OrZ2fsJB-t9TQFOMibCFaibVHrqZ8Ctx0W-Am8UIAUycL7mlYGz2F2Fg7X2-Q3Rbc6jNMmug5OIjQ1vXgCbjYpjGOeypOqQ2tdx1m00]--></g></svg>