<svg xmlns="http://www.w3.org/2000/svg" xmlns:xlink="http://www.w3.org/1999/xlink" contentStyleType="text/css" data-diagram-type="SEQUENCE" height="240px" preserveAspectRatio="none" style="width:331px;height:240px;background:#FFFFFF;" version="1.1" viewBox="0 0 331 240" width="331px" zoomAndPan="magnify"><defs/><g><g><title>Alerts</title><rect fill="#000000" fill-opacity="0.00000" height="78.2656" width="8" x="24.3096" y="81.2969"/><line style="stroke:#181818;stroke-width:0.5;stroke-dasharray:5,5;" x1="28" x2="28" y1="81.2969" y2="159.5625"/></g><g><title>Processing System</title><rect fill="#000000" fill-opacity="0.00000" height="78.2656" width="8" x="130.603" y="81.2969"/><line style="stroke:#181818;stroke-width:0.5;stroke-dasharray:5,5;" x1="133.6191" x2="133.6191" y1="81.2969" y2="159.5625"/></g><g><title>Notification</title><rect fill="#000000" fill-opacity="0.00000" height="78.2656" width="8" x="274.3262" y="81.2969"/><line style="stroke:#181818;stroke-width:0.5;stroke-dasharray:5,5;" x1="278.1616" x2="278.1616" y1="81.2969" y2="159.5625"/></g><g class="participant participant-head" data-participant="Alerts"><text fill="#000000" font-family="sans-serif" font-size="14" lengthAdjust="spacing" textLength="40.6191" x="5" y="77.9951">Alerts</text><ellipse cx="28.3096" cy="13.5" fill="#E2E2F0" rx="8" ry="8" style="stroke:#181818;stroke-width:0.5;"/><path d="M28.3096,21.5 L28.3096,48.5 M15.3096,29.5 L41.3096,29.5 M28.3096,48.5 L15.3096,63.5 M28.3096,48.5 L41.3096,63.5" fill="none" style="stroke:#181818;stroke-width:0.5;"/></g><g class="participant participant-tail" data-participant="Alerts"><text fill="#000000" font-family="sans-serif" font-size="14" lengthAdjust="spacing" textLength="40.6191" x="5" y="171.5576">Alerts</text><ellipse cx="28.3096" cy="183.3594" fill="#E2E2F0" rx="8" ry="8" style="stroke:#181818;stroke-width:0.5;"/><path d="M28.3096,191.3594 L28.3096,218.3594 M15.3096,199.3594 L41.3096,199.3594 M28.3096,218.3594 L15.3096,233.3594 M28.3096,218.3594 L41.3096,233.3594" fill="none" style="stroke:#181818;stroke-width:0.5;"/></g><g class="participant participant-head" data-participant="PS"><rect fill="#E2E2F0" height="30.2969" rx="2.5" ry="2.5" style="stroke:#181818;stroke-width:0.5;" width="145.9678" x="61.6191" y="50"/><text fill="#000000" font-family="sans-serif" font-size="14" lengthAdjust="spacing" textLength="131.9678" x="68.6191" y="69.9951">Processing System</text></g><g class="participant participant-tail" data-participant="PS"><rect fill="#E2E2F0" height="30.2969" rx="2.5" ry="2.5" style="stroke:#181818;stroke-width:0.5;" width="145.9678" x="61.6191" y="158.5625"/><text fill="#000000" font-family="sans-serif" font-size="14" lengthAdjust="spacing" textLength="131.9678" x="68.6191" y="178.5576">Processing System</text></g><g class="participant participant-head" data-participant="Notification"><rect fill="#E2E2F0" height="30.2969" rx="2.5" ry="2.5" style="stroke:#181818;stroke-width:0.5;" width="94.3291" x="231.1616" y="50"/><text fill="#000000" font-family="sans-serif" font-size="14" lengthAdjust="spacing" textLength="80.3291" x="238.1616" y="69.9951">Notification</text></g><g class="participant participant-tail" data-participant="Notification"><rect fill="#E2E2F0" height="30.2969" rx="2.5" ry="2.5" style="stroke:#181818;stroke-width:0.5;" width="94.3291" x="231.1616" y="158.5625"/><text fill="#000000" font-family="sans-serif" font-size="14" lengthAdjust="spacing" textLength="80.3291" x="238.1616" y="178.5576">Notification</text></g><g class="message" data-participant-1="Alerts" data-participant-2="PS"><polygon fill="#181818" points="122.603,108.4297,132.603,112.4297,122.603,116.4297,126.603,112.4297" style="stroke:#181818;stroke-width:1;"/><line style="stroke:#181818;stroke-width:1;" x1="28.3096" x2="128.603" y1="112.4297" y2="112.4297"/><text fill="#000000" font-family="sans-serif" font-size="13" lengthAdjust="spacing" textLength="66.8916" x="35.3096" y="107.3638">Send alert</text></g><g class="message" data-participant-1="PS" data-participant-2="Notification"><polygon fill="#181818" points="266.3262,137.5625,276.3262,141.5625,266.3262,145.5625,270.3262,141.5625" style="stroke:#181818;stroke-width:1;"/><line style="stroke:#181818;stroke-width:1;" x1="134.603" x2="272.3262" y1="141.5625" y2="141.5625"/><text fill="#000000" font-family="sans-serif" font-size="13" lengthAdjust="spacing" textLength="119.7231" x="141.603" y="136.4966">Process and notify</text></g><!--SRC=[LSmn2e0m44JHFgSOxBs0XU05990JB37AWcv2TXjlhq4BRVyyXgBbYcbFrTGLgiQH2ucXypN7fCgo8PngwUX02Xz-Qix6AqSopkBSSuD-lDc0a6G1jUHyQF6B1xp_e5j9MyuB]--></g></svg>