<svg xmlns="http://www.w3.org/2000/svg" xmlns:xlink="http://www.w3.org/1999/xlink" contentStyleType="text/css" data-diagram-type="ACTIVITY" height="350px" preserveAspectRatio="none" style="width:222px;height:350px;background:#FFFFFF;" version="1.1" viewBox="0 0 222 350" width="222px" zoomAndPan="magnify"><defs/><g><ellipse cx="111.0908" cy="20" fill="#222222" rx="10" ry="10" style="stroke:#222222;stroke-width:1;"/><rect fill="#F1F1F1" height="33.9688" rx="12.5" ry="12.5" style="stroke:#181818;stroke-width:0.5;" width="137.8613" x="42.1602" y="50"/><text fill="#000000" font-family="sans-serif" font-size="12" lengthAdjust="spacing" textLength="117.8613" x="52.1602" y="71.1387">User defines export</text><rect fill="#F1F1F1" height="33.9688" rx="12.5" ry="12.5" style="stroke:#181818;stroke-width:0.5;" width="182.5566" x="19.8125" y="103.9688"/><text fill="#000000" font-family="sans-serif" font-size="12" lengthAdjust="spacing" textLength="162.5566" x="29.8125" y="125.1074">System queries warehouse</text><rect fill="#F1F1F1" height="33.9688" rx="12.5" ry="12.5" style="stroke:#181818;stroke-width:0.5;" width="200.1816" x="11" y="157.9375"/><text fill="#000000" font-family="sans-serif" font-size="12" lengthAdjust="spacing" textLength="180.1816" x="21" y="179.0762">System masks sensitive fields</text><rect fill="#F1F1F1" height="33.9688" rx="12.5" ry="12.5" style="stroke:#181818;stroke-width:0.5;" width="151.2676" x="35.457" y="211.9063"/><text fill="#000000" font-family="sans-serif" font-size="12" lengthAdjust="spacing" textLength="131.2676" x="45.457" y="233.0449">System generates file</text><rect fill="#F1F1F1" height="33.9688" rx="12.5" ry="12.5" style="stroke:#181818;stroke-width:0.5;" width="115.4434" x="53.3691" y="265.875"/><text fill="#000000" font-family="sans-serif" font-size="12" lengthAdjust="spacing" textLength="95.4434" x="63.3691" y="287.0137">User downloads</text><ellipse cx="111.0908" cy="329.8438" fill="none" rx="10" ry="10" style="stroke:#222222;stroke-width:1.5;"/><line style="stroke:#222222;stroke-width:2.5;" x1="104.9036" x2="117.278" y1="323.6566" y2="336.0309"/><line style="stroke:#222222;stroke-width:2.5;" x1="117.278" x2="104.9036" y1="323.6566" y2="336.0309"/><line style="stroke:#181818;stroke-width:1;" x1="111.0908" x2="111.0908" y1="30" y2="50"/><polygon fill="#181818" points="107.0908,40,111.0908,50,115.0908,40,111.0908,44" style="stroke:#181818;stroke-width:1;"/><line style="stroke:#181818;stroke-width:1;" x1="111.0908" x2="111.0908" y1="83.9688" y2="103.9688"/><polygon fill="#181818" points="107.0908,93.9688,111.0908,103.9688,115.0908,93.9688,111.0908,97.9688" style="stroke:#181818;stroke-width:1;"/><line style="stroke:#181818;stroke-width:1;" x1="111.0908" x2="111.0908" y1="137.9375" y2="157.9375"/><polygon fill="#181818" points="107.0908,147.9375,111.0908,157.9375,115.0908,147.9375,111.0908,151.9375" style="stroke:#181818;stroke-width:1;"/><line style="stroke:#181818;stroke-width:1;" x1="111.0908" x2="111.0908" y1="191.9063" y2="211.9063"/><polygon fill="#181818" points="107.0908,201.9063,111.0908,211.9063,115.0908,201.9063,111.0908,205.9063" style="stroke:#181818;stroke-width:1;"/><line style="stroke:#181818;stroke-width:1;" x1="111.0908" x2="111.0908" y1="245.875" y2="265.875"/><polygon fill="#181818" points="107.0908,255.875,111.0908,265.875,115.0908,255.875,111.0908,259.875" style="stroke:#181818;stroke-width:1;"/><line style="stroke:#181818;stroke-width:1;" x1="111.0908" x2="111.0908" y1="299.8438" y2="319.8438"/><polygon fill="#181818" points="107.0908,309.8438,111.0908,319.8438,115.0908,309.8438,111.0908,313.8438" style="stroke:#181818;stroke-width:1;"/><!--SRC=[LOt13S8m40J_hk8Qe04YqGIY04jUmmddJ6ul1Bh74ieZxzcPPMIFbCutmgMWge62pwjxJEbq6UJwPM2MPONhO5jsFFfA7F6S-QGGHWrzGwgY5HutTnWynuXKRRl_F-wRjPvt0LP-]--></g></svg>