<svg xmlns="http://www.w3.org/2000/svg" xmlns:xlink="http://www.w3.org/1999/xlink" contentStyleType="text/css" data-diagram-type="ACTIVITY" height="509px" preserveAspectRatio="none" style="width:360px;height:509px;background:#FFFFFF;" version="1.1" viewBox="0 0 360 509" width="360px" zoomAndPan="magnify"><defs/><g><ellipse cx="207.9839" cy="20" fill="#222222" rx="10" ry="10" style="stroke:#222222;stroke-width:1;"/><rect fill="#F1F1F1" height="33.9688" rx="12.5" ry="12.5" style="stroke:#181818;stroke-width:0.5;" width="107.8672" x="154.0503" y="50"/><text fill="#000000" font-family="sans-serif" font-size="12" lengthAdjust="spacing" textLength="87.8672" x="164.0503" y="71.1387">Ticket Created</text><rect fill="#F1F1F1" height="33.9688" rx="12.5" ry="12.5" style="stroke:#181818;stroke-width:0.5;" width="112.3262" x="151.8208" y="103.9688"/><text fill="#000000" font-family="sans-serif" font-size="12" lengthAdjust="spacing" textLength="92.3262" x="161.8208" y="125.1074">Rules Assessed</text><polygon fill="#F1F1F1" points="174.5515,157.9375,241.4163,157.9375,253.4163,169.9375,241.4163,181.9375,174.5515,181.9375,162.5515,169.9375,174.5515,157.9375" style="stroke:#181818;stroke-width:0.5;"/><text fill="#000000" font-family="sans-serif" font-size="11" lengthAdjust="spacing" textLength="66.8647" x="174.5515" y="173.7456">Rules Valid?</text><text fill="#000000" font-family="sans-serif" font-size="11" lengthAdjust="spacing" textLength="19.0083" x="143.5432" y="167.3433">yes</text><text fill="#000000" font-family="sans-serif" font-size="11" lengthAdjust="spacing" textLength="13.7017" x="253.4163" y="167.3433">no</text><rect fill="#F1F1F1" height="33.9688" rx="12.5" ry="12.5" style="stroke:#181818;stroke-width:0.5;" width="169.5781" x="28.0977" y="191.9375"/><text fill="#000000" font-family="sans-serif" font-size="12" lengthAdjust="spacing" textLength="149.5781" x="38.0977" y="213.0762">Ticket Assigned to Agent</text><rect fill="#F1F1F1" height="33.9688" rx="12.5" ry="12.5" style="stroke:#181818;stroke-width:0.5;" width="159.8398" x="32.9668" y="245.9063"/><text fill="#000000" font-family="sans-serif" font-size="12" lengthAdjust="spacing" textLength="139.8398" x="42.9668" y="267.0449">Status Updates Logged</text><rect fill="#F1F1F1" height="33.9688" rx="12.5" ry="12.5" style="stroke:#181818;stroke-width:0.5;" width="203.7734" x="11" y="348.2773"/><text fill="#000000" font-family="sans-serif" font-size="12" lengthAdjust="spacing" textLength="183.7734" x="21" y="369.416">Notification Sent to Supervisor</text><polygon fill="#F1F1F1" points="83.3027,299.875,142.4707,299.875,154.4707,311.875,142.4707,323.875,83.3027,323.875,71.3027,311.875,83.3027,299.875" style="stroke:#181818;stroke-width:0.5;"/><text fill="#000000" font-family="sans-serif" font-size="11" lengthAdjust="spacing" textLength="19.0083" x="116.8867" y="334.0854">yes</text><text fill="#000000" font-family="sans-serif" font-size="11" lengthAdjust="spacing" textLength="59.168" x="83.3027" y="315.6831">Escalated?</text><polygon fill="#F1F1F1" points="112.8867,402.2461,124.8867,414.2461,112.8867,426.2461,100.8867,414.2461,112.8867,402.2461" style="stroke:#181818;stroke-width:0.5;"/><rect fill="#F1F1F1" height="33.9688" rx="12.5" ry="12.5" style="stroke:#181818;stroke-width:0.5;" width="92.6152" x="256.7734" y="191.9375"/><text fill="#000000" font-family="sans-serif" font-size="12" lengthAdjust="spacing" textLength="72.6152" x="266.7734" y="213.0762">End Process</text><polygon fill="#F1F1F1" points="207.9839,432.2461,219.9839,444.2461,207.9839,456.2461,195.9839,444.2461,207.9839,432.2461" style="stroke:#181818;stroke-width:0.5;"/><ellipse cx="207.9839" cy="487.2461" fill="none" rx="11" ry="11" style="stroke:#222222;stroke-width:1;"/><ellipse cx="207.9839" cy="487.2461" fill="#222222" rx="6" ry="6" style="stroke:#222222;stroke-width:1;"/><line style="stroke:#181818;stroke-width:1;" x1="207.9839" x2="207.9839" y1="30" y2="50"/><polygon fill="#181818" points="203.9839,40,207.9839,50,211.9839,40,207.9839,44" style="stroke:#181818;stroke-width:1;"/><line style="stroke:#181818;stroke-width:1;" x1="207.9839" x2="207.9839" y1="83.9688" y2="103.9688"/><polygon fill="#181818" points="203.9839,93.9688,207.9839,103.9688,211.9839,93.9688,207.9839,97.9688" style="stroke:#181818;stroke-width:1;"/><line style="stroke:#181818;stroke-width:1;" x1="112.8867" x2="112.8867" y1="225.9063" y2="245.9063"/><polygon fill="#181818" points="108.8867,235.9063,112.8867,245.9063,116.8867,235.9063,112.8867,239.9063" style="stroke:#181818;stroke-width:1;"/><line style="stroke:#181818;stroke-width:1;" x1="112.8867" x2="112.8867" y1="323.875" y2="348.2773"/><polygon fill="#181818" points="108.8867,338.2773,112.8867,348.2773,116.8867,338.2773,112.8867,342.2773" style="stroke:#181818;stroke-width:1;"/><line style="stroke:#181818;stroke-width:1;" x1="154.4707" x2="224.7734" y1="311.875" y2="311.875"/><polygon fill="#181818" points="220.7734,355.2617,224.7734,365.2617,228.7734,355.2617,224.7734,359.2617" style="stroke:#181818;stroke-width:1;"/><line style="stroke:#181818;stroke-width:1;" x1="224.7734" x2="224.7734" y1="311.875" y2="414.2461"/><line style="stroke:#181818;stroke-width:1;" x1="224.7734" x2="124.8867" y1="414.2461" y2="414.2461"/><polygon fill="#181818" points="134.8867,410.2461,124.8867,414.2461,134.8867,418.2461,130.8867,414.2461" style="stroke:#181818;stroke-width:1;"/><line style="stroke:#181818;stroke-width:1;" x1="112.8867" x2="112.8867" y1="382.2461" y2="402.2461"/><polygon fill="#181818" points="108.8867,392.2461,112.8867,402.2461,116.8867,392.2461,112.8867,396.2461" style="stroke:#181818;stroke-width:1;"/><line style="stroke:#181818;stroke-width:1;" x1="112.8867" x2="112.8867" y1="279.875" y2="299.875"/><polygon fill="#181818" points="108.8867,289.875,112.8867,299.875,116.8867,289.875,112.8867,293.875" style="stroke:#181818;stroke-width:1;"/><line style="stroke:#181818;stroke-width:1;" x1="162.5515" x2="112.8867" y1="169.9375" y2="169.9375"/><line style="stroke:#181818;stroke-width:1;" x1="112.8867" x2="112.8867" y1="169.9375" y2="191.9375"/><polygon fill="#181818" points="108.8867,181.9375,112.8867,191.9375,116.8867,181.9375,112.8867,185.9375" style="stroke:#181818;stroke-width:1;"/><line style="stroke:#181818;stroke-width:1;" x1="253.4163" x2="303.0811" y1="169.9375" y2="169.9375"/><line style="stroke:#181818;stroke-width:1;" x1="303.0811" x2="303.0811" y1="169.9375" y2="191.9375"/><polygon fill="#181818" points="299.0811,181.9375,303.0811,191.9375,307.0811,181.9375,303.0811,185.9375" style="stroke:#181818;stroke-width:1;"/><line style="stroke:#181818;stroke-width:1;" x1="112.8867" x2="112.8867" y1="426.2461" y2="444.2461"/><line style="stroke:#181818;stroke-width:1;" x1="112.8867" x2="195.9839" y1="444.2461" y2="444.2461"/><polygon fill="#181818" points="185.9839,440.2461,195.9839,444.2461,185.9839,448.2461,189.9839,444.2461" style="stroke:#181818;stroke-width:1;"/><line style="stroke:#181818;stroke-width:1;" x1="303.0811" x2="303.0811" y1="225.9063" y2="444.2461"/><line style="stroke:#181818;stroke-width:1;" x1="303.0811" x2="219.9839" y1="444.2461" y2="444.2461"/><polygon fill="#181818" points="229.9839,440.2461,219.9839,444.2461,229.9839,448.2461,225.9839,444.2461" style="stroke:#181818;stroke-width:1;"/><line style="stroke:#181818;stroke-width:1;" x1="207.9839" x2="207.9839" y1="137.9375" y2="157.9375"/><polygon fill="#181818" points="203.9839,147.9375,207.9839,157.9375,211.9839,147.9375,207.9839,151.9375" style="stroke:#181818;stroke-width:1;"/><line style="stroke:#181818;stroke-width:1;" x1="207.9839" x2="207.9839" y1="456.2461" y2="476.2461"/><polygon fill="#181818" points="203.9839,466.2461,207.9839,476.2461,211.9839,466.2461,207.9839,470.2461" style="stroke:#181818;stroke-width:1;"/><!--SRC=[NSx12i8m30RWUvuYn-qLjeCCsKr4d7elRLQ3enbD9lZsjeeN8QVyvCklvh81T1Vs3pBSPt96eOVkl2saEAXIcR80dh7vBczkuR1hqUwKi7cHje3u4ye5nqG1JN28bAoluMJEDiNh6WglU90OAufOrL6zM-hRVxCS7iLuPk-C9U5KkEfEsqhvoIgv4fG2pq2B4ZP9Fbt65F2KnPVkFNnpK9Fr3G00]--></g></svg>