<svg xmlns="http://www.w3.org/2000/svg" xmlns:xlink="http://www.w3.org/1999/xlink" contentStyleType="text/css" data-diagram-type="ACTIVITY" height="540px" preserveAspectRatio="none" style="width:267px;height:540px;background:#FFFFFF;" version="1.1" viewBox="0 0 267 540" width="267px" zoomAndPan="magnify"><defs/><g><ellipse cx="119.4785" cy="20" fill="#222222" rx="10" ry="10" style="stroke:#222222;stroke-width:1;"/><rect fill="#F1F1F1" height="33.9688" rx="12.5" ry="12.5" style="stroke:#181818;stroke-width:0.5;" width="134.5156" x="52.2207" y="50"/><text fill="#000000" font-family="sans-serif" font-size="12" lengthAdjust="spacing" textLength="114.5156" x="62.2207" y="71.1387">Select Competitors</text><rect fill="#F1F1F1" height="33.9688" rx="12.5" ry="12.5" style="stroke:#181818;stroke-width:0.5;" width="131.1699" x="53.8936" y="147.9688"/><text fill="#000000" font-family="sans-serif" font-size="12" lengthAdjust="spacing" textLength="111.1699" x="63.8936" y="169.1074">Fetch Data Via API</text><rect fill="#F1F1F1" height="33.9688" rx="12.5" ry="12.5" style="stroke:#181818;stroke-width:0.5;" width="202.5898" x="18.1836" y="201.9375"/><text fill="#000000" font-family="sans-serif" font-size="12" lengthAdjust="spacing" textLength="182.5898" x="28.1836" y="223.0762">Compute Performance Metrics</text><rect fill="#F1F1F1" height="33.9688" rx="12.5" ry="12.5" style="stroke:#181818;stroke-width:0.5;" width="216.957" x="11" y="255.9063"/><text fill="#000000" font-family="sans-serif" font-size="12" lengthAdjust="spacing" textLength="196.957" x="21" y="277.0449">Compare Against Company Data</text><rect fill="#F1F1F1" height="33.9688" rx="12.5" ry="12.5" style="stroke:#181818;stroke-width:0.5;" width="183.9453" x="27.5059" y="365.2109"/><text fill="#000000" font-family="sans-serif" font-size="12" lengthAdjust="spacing" textLength="163.9453" x="37.5059" y="386.3496">Show Results in Dashboard</text><polygon fill="#F1F1F1" points="53.2852,316.8086,185.6719,316.8086,197.6719,328.8086,185.6719,340.8086,53.2852,340.8086,41.2852,328.8086,53.2852,316.8086" style="stroke:#181818;stroke-width:0.5;"/><text fill="#000000" font-family="sans-serif" font-size="11" lengthAdjust="spacing" textLength="19.0083" x="123.4785" y="351.019">yes</text><text fill="#000000" font-family="sans-serif" font-size="11" lengthAdjust="spacing" textLength="132.3867" x="53.2852" y="332.6167">Is Competitor Relevant?</text><polygon fill="#F1F1F1" points="119.4785,419.1797,131.4785,431.1797,119.4785,443.1797,107.4785,431.1797,119.4785,419.1797" style="stroke:#181818;stroke-width:0.5;"/><polygon fill="#F1F1F1" points="119.4785,103.9688,131.4785,115.9688,119.4785,127.9688,107.4785,115.9688,119.4785,103.9688" style="stroke:#181818;stroke-width:0.5;"/><polygon fill="#F1F1F1" points="67.2849,463.1797,171.6721,463.1797,183.6721,475.1797,171.6721,487.1797,67.2849,487.1797,55.2849,475.1797,67.2849,463.1797" style="stroke:#181818;stroke-width:0.5;"/><text fill="#000000" font-family="sans-serif" font-size="11" lengthAdjust="spacing" textLength="104.3872" x="67.2849" y="478.9878">More Competitors?</text><text fill="#000000" font-family="sans-serif" font-size="11" lengthAdjust="spacing" textLength="19.0083" x="183.6721" y="472.5854">yes</text><ellipse cx="119.4785" cy="518.1797" fill="none" rx="11" ry="11" style="stroke:#222222;stroke-width:1;"/><ellipse cx="119.4785" cy="518.1797" fill="#222222" rx="6" ry="6" style="stroke:#222222;stroke-width:1;"/><line style="stroke:#181818;stroke-width:1;" x1="119.4785" x2="119.4785" y1="30" y2="50"/><polygon fill="#181818" points="115.4785,40,119.4785,50,123.4785,40,119.4785,44" style="stroke:#181818;stroke-width:1;"/><line style="stroke:#181818;stroke-width:1;" x1="119.4785" x2="119.4785" y1="181.9375" y2="201.9375"/><polygon fill="#181818" points="115.4785,191.9375,119.4785,201.9375,123.4785,191.9375,119.4785,195.9375" style="stroke:#181818;stroke-width:1;"/><line style="stroke:#181818;stroke-width:1;" x1="119.4785" x2="119.4785" y1="235.9063" y2="255.9063"/><polygon fill="#181818" points="115.4785,245.9063,119.4785,255.9063,123.4785,245.9063,119.4785,249.9063" style="stroke:#181818;stroke-width:1;"/><line style="stroke:#181818;stroke-width:1;" x1="119.4785" x2="119.4785" y1="340.8086" y2="365.2109"/><polygon fill="#181818" points="115.4785,355.2109,119.4785,365.2109,123.4785,355.2109,119.4785,359.2109" style="stroke:#181818;stroke-width:1;"/><line style="stroke:#181818;stroke-width:1;" x1="197.6719" x2="221.4512" y1="328.8086" y2="328.8086"/><polygon fill="#181818" points="217.4512,372.1953,221.4512,382.1953,225.4512,372.1953,221.4512,376.1953" style="stroke:#181818;stroke-width:1;"/><line style="stroke:#181818;stroke-width:1;" x1="221.4512" x2="221.4512" y1="328.8086" y2="431.1797"/><line style="stroke:#181818;stroke-width:1;" x1="221.4512" x2="131.4785" y1="431.1797" y2="431.1797"/><polygon fill="#181818" points="141.4785,427.1797,131.4785,431.1797,141.4785,435.1797,137.4785,431.1797" style="stroke:#181818;stroke-width:1;"/><line style="stroke:#181818;stroke-width:1;" x1="119.4785" x2="119.4785" y1="399.1797" y2="419.1797"/><polygon fill="#181818" points="115.4785,409.1797,119.4785,419.1797,123.4785,409.1797,119.4785,413.1797" style="stroke:#181818;stroke-width:1;"/><line style="stroke:#181818;stroke-width:1;" x1="119.4785" x2="119.4785" y1="289.875" y2="316.8086"/><polygon fill="#181818" points="115.4785,306.8086,119.4785,316.8086,123.4785,306.8086,119.4785,310.8086" style="stroke:#181818;stroke-width:1;"/><line style="stroke:#181818;stroke-width:1;" x1="119.4785" x2="119.4785" y1="127.9688" y2="147.9688"/><polygon fill="#181818" points="115.4785,137.9688,119.4785,147.9688,123.4785,137.9688,119.4785,141.9688" style="stroke:#181818;stroke-width:1;"/><line style="stroke:#181818;stroke-width:1;" x1="183.6721" x2="241.957" y1="475.1797" y2="475.1797"/><polygon fill="#181818" points="237.957,296.8086,241.957,286.8086,245.957,296.8086,241.957,292.8086" style="stroke:#181818;stroke-width:1;"/><line style="stroke:#181818;stroke-width:1;" x1="241.957" x2="241.957" y1="115.9688" y2="475.1797"/><line style="stroke:#181818;stroke-width:1;" x1="241.957" x2="131.4785" y1="115.9688" y2="115.9688"/><polygon fill="#181818" points="141.4785,111.9688,131.4785,115.9688,141.4785,119.9688,137.4785,115.9688" style="stroke:#181818;stroke-width:1;"/><line style="stroke:#181818;stroke-width:1;" x1="119.4785" x2="119.4785" y1="443.1797" y2="463.1797"/><polygon fill="#181818" points="115.4785,453.1797,119.4785,463.1797,123.4785,453.1797,119.4785,457.1797" style="stroke:#181818;stroke-width:1;"/><line style="stroke:#181818;stroke-width:1;" x1="119.4785" x2="119.4785" y1="83.9688" y2="103.9688"/><polygon fill="#181818" points="115.4785,93.9688,119.4785,103.9688,123.4785,93.9688,119.4785,97.9688" style="stroke:#181818;stroke-width:1;"/><line style="stroke:#181818;stroke-width:1;" x1="119.4785" x2="119.4785" y1="487.1797" y2="507.1797"/><polygon fill="#181818" points="115.4785,497.1797,119.4785,507.1797,123.4785,497.1797,119.4785,501.1797" style="stroke:#181818;stroke-width:1;"/><!--SRC=[JOz12eD034NtdY9BlO8kYhGKN0YbGlVf63i1dP59h7ZxphHItEO_tlyHnQ1PsT58Hk7ifvcKrGUfia0peMO0vPNKMBYW8ZmOeRurLJedUb626uN1XmcT8MX90nlvvnW8wXUoavyTtVOL9O07o1ivbC8zpdYZqrC1Qib1lf4KaOooplervhACAi0kIiG-FOO-cSZrFEo3ORKy4kIjZzM7XwAJPJUA-la3]--></g></svg>