<svg xmlns="http://www.w3.org/2000/svg" xmlns:xlink="http://www.w3.org/1999/xlink" contentStyleType="text/css" data-diagram-type="SEQUENCE" height="298px" preserveAspectRatio="none" style="width:566px;height:298px;background:#FFFFFF;" version="1.1" viewBox="0 0 566 298" width="566px" zoomAndPan="magnify"><defs/><g><g><title>User</title><rect fill="#000000" fill-opacity="0.00000" height="136.5313" width="8" x="19.9551" y="81.2969"/><line style="stroke:#181818;stroke-width:0.5;stroke-dasharray:5,5;" x1="23" x2="23" y1="81.2969" y2="217.8281"/></g><g><title>Social Networks</title><rect fill="#000000" fill-opacity="0.00000" height="136.5313" width="8" x="196.5464" y="81.2969"/><line style="stroke:#181818;stroke-width:0.5;stroke-dasharray:5,5;" x1="199.6934" x2="199.6934" y1="81.2969" y2="217.8281"/></g><g><title>Evaluation</title><rect fill="#000000" fill-opacity="0.00000" height="136.5313" width="8" x="383.1924" y="81.2969"/><line style="stroke:#181818;stroke-width:0.5;stroke-dasharray:5,5;" x1="386.2578" x2="386.2578" y1="81.2969" y2="217.8281"/></g><g><title>Reports</title><rect fill="#000000" fill-opacity="0.00000" height="136.5313" width="8" x="522.4912" y="81.2969"/><line style="stroke:#181818;stroke-width:0.5;stroke-dasharray:5,5;" x1="526.3252" x2="526.3252" y1="81.2969" y2="217.8281"/></g><g class="participant participant-head" data-participant="User"><text fill="#000000" font-family="sans-serif" font-size="14" lengthAdjust="spacing" textLength="31.9102" x="5" y="77.9951">User</text><ellipse cx="23.9551" cy="13.5" fill="#E2E2F0" rx="8" ry="8" style="stroke:#181818;stroke-width:0.5;"/><path d="M23.9551,21.5 L23.9551,48.5 M10.9551,29.5 L36.9551,29.5 M23.9551,48.5 L10.9551,63.5 M23.9551,48.5 L36.9551,63.5" fill="none" style="stroke:#181818;stroke-width:0.5;"/></g><g class="participant participant-tail" data-participant="User"><text fill="#000000" font-family="sans-serif" font-size="14" lengthAdjust="spacing" textLength="31.9102" x="5" y="229.8232">User</text><ellipse cx="23.9551" cy="241.625" fill="#E2E2F0" rx="8" ry="8" style="stroke:#181818;stroke-width:0.5;"/><path d="M23.9551,249.625 L23.9551,276.625 M10.9551,257.625 L36.9551,257.625 M23.9551,276.625 L10.9551,291.625 M23.9551,276.625 L36.9551,291.625" fill="none" style="stroke:#181818;stroke-width:0.5;"/></g><g class="participant participant-head" data-participant="SN"><rect fill="#E2E2F0" height="30.2969" rx="2.5" ry="2.5" style="stroke:#181818;stroke-width:0.5;" width="125.7061" x="137.6934" y="50"/><text fill="#000000" font-family="sans-serif" font-size="14" lengthAdjust="spacing" textLength="111.7061" x="144.6934" y="69.9951">Social Networks</text></g><g class="participant participant-tail" data-participant="SN"><rect fill="#E2E2F0" height="30.2969" rx="2.5" ry="2.5" style="stroke:#181818;stroke-width:0.5;" width="125.7061" x="137.6934" y="216.8281"/><text fill="#000000" font-family="sans-serif" font-size="14" lengthAdjust="spacing" textLength="111.7061" x="144.6934" y="236.8232">Social Networks</text></g><g class="participant participant-head" data-participant="Eval"><rect fill="#E2E2F0" height="30.2969" rx="2.5" ry="2.5" style="stroke:#181818;stroke-width:0.5;" width="87.8691" x="343.2578" y="50"/><text fill="#000000" font-family="sans-serif" font-size="14" lengthAdjust="spacing" textLength="73.8691" x="350.2578" y="69.9951">Evaluation</text></g><g class="participant participant-tail" data-participant="Eval"><rect fill="#E2E2F0" height="30.2969" rx="2.5" ry="2.5" style="stroke:#181818;stroke-width:0.5;" width="87.8691" x="343.2578" y="216.8281"/><text fill="#000000" font-family="sans-serif" font-size="14" lengthAdjust="spacing" textLength="73.8691" x="350.2578" y="236.8232">Evaluation</text></g><g class="participant participant-head" data-participant="Rep"><rect fill="#E2E2F0" height="30.2969" rx="2.5" ry="2.5" style="stroke:#181818;stroke-width:0.5;" width="68.332" x="492.3252" y="50"/><text fill="#000000" font-family="sans-serif" font-size="14" lengthAdjust="spacing" textLength="54.332" x="499.3252" y="69.9951">Reports</text></g><g class="participant participant-tail" data-participant="Rep"><rect fill="#E2E2F0" height="30.2969" rx="2.5" ry="2.5" style="stroke:#181818;stroke-width:0.5;" width="68.332" x="492.3252" y="216.8281"/><text fill="#000000" font-family="sans-serif" font-size="14" lengthAdjust="spacing" textLength="54.332" x="499.3252" y="236.8232">Reports</text></g><g class="message" data-participant-1="User" data-participant-2="SN"><polygon fill="#181818" points="188.5464,108.4297,198.5464,112.4297,188.5464,116.4297,192.5464,112.4297" style="stroke:#181818;stroke-width:1;"/><line style="stroke:#181818;stroke-width:1;" x1="23.9551" x2="194.5464" y1="112.4297" y2="112.4297"/><text fill="#000000" font-family="sans-serif" font-size="13" lengthAdjust="spacing" textLength="152.5913" x="30.9551" y="107.3638">Access Social Networks</text></g><g class="message" data-participant-1="SN" data-participant-2="Eval"><polygon fill="#181818" points="375.1924,137.5625,385.1924,141.5625,375.1924,145.5625,379.1924,141.5625" style="stroke:#181818;stroke-width:1;"/><line style="stroke:#181818;stroke-width:1;" x1="200.5464" x2="381.1924" y1="141.5625" y2="141.5625"/><text fill="#000000" font-family="sans-serif" font-size="13" lengthAdjust="spacing" textLength="162.646" x="207.5464" y="136.4966">Send Data for Evaluation</text></g><g class="message" data-participant-1="Eval" data-participant-2="Rep"><polygon fill="#181818" points="514.4912,166.6953,524.4912,170.6953,514.4912,174.6953,518.4912,170.6953" style="stroke:#181818;stroke-width:1;"/><line style="stroke:#181818;stroke-width:1;" x1="387.1924" x2="520.4912" y1="170.6953" y2="170.6953"/><text fill="#000000" font-family="sans-serif" font-size="13" lengthAdjust="spacing" textLength="115.2988" x="394.1924" y="165.6294">Generate Reports</text></g><g class="message" data-participant-1="Rep" data-participant-2="User"><polygon fill="#181818" points="34.9551,195.8281,24.9551,199.8281,34.9551,203.8281,30.9551,199.8281" style="stroke:#181818;stroke-width:1;"/><line style="stroke:#181818;stroke-width:1;" x1="28.9551" x2="525.4912" y1="199.8281" y2="199.8281"/><text fill="#000000" font-family="sans-serif" font-size="13" lengthAdjust="spacing" textLength="102.502" x="40.9551" y="194.7622">Display Reports</text></g><!--SRC=[LOvD2a8n38JtFSNmzbwW2q5uuguBYmS8DKAnjAMDYhUtyGVfAXDcCbyeI6auTMwcKfCOOgKiM7m9aH8SowEqQrz07TxDcVsTqeqablosTPq3HwwboUTuQ6EKWyrsD5diGk0-IcUGyKu3scNXEP-naX0kuya_pgZKs2YrE73cHiBuuioOQYhCOesz9dh-p1S0]--></g></svg>