<svg xmlns="http://www.w3.org/2000/svg" xmlns:xlink="http://www.w3.org/1999/xlink" contentStyleType="text/css" data-diagram-type="CLASS" height="439px" preserveAspectRatio="none" style="width:556px;height:439px;background:#FFFFFF;" version="1.1" viewBox="0 0 556 439" width="556px" zoomAndPan="magnify"><defs/><g><!--entity Client Web Browsers--><g class="entity" data-entity="Client Web Browsers" data-source-line="1" data-uid="ent0002" id="entity_Client Web Browsers"><polygon fill="#F1F1F1" points="187.07,16,197.07,6,372.1764,6,372.1764,42.2969,362.1764,52.2969,187.07,52.2969,187.07,16" style="stroke:#181818;stroke-width:0.5;"/><line style="stroke:#181818;stroke-width:0.5;" x1="362.1764" x2="372.1764" y1="16" y2="6"/><line style="stroke:#181818;stroke-width:0.5;" x1="187.07" x2="362.1764" y1="16" y2="16"/><line style="stroke:#181818;stroke-width:0.5;" x1="362.1764" x2="362.1764" y1="16" y2="52.2969"/><text fill="#000000" font-family="sans-serif" font-size="14" lengthAdjust="spacing" textLength="145.1064" x="202.07" y="38.9951">Client Web Browsers</text></g><!--entity Web Server--><g class="entity" data-entity="Web Server" data-source-line="4" data-uid="ent0003" id="entity_Web Server"><polygon fill="#F1F1F1" points="218.77,139.3,228.77,129.3,340.4731,129.3,340.4731,165.5969,330.4731,175.5969,218.77,175.5969,218.77,139.3" style="stroke:#181818;stroke-width:0.5;"/><line style="stroke:#181818;stroke-width:0.5;" x1="330.4731" x2="340.4731" y1="139.3" y2="129.3"/><line style="stroke:#181818;stroke-width:0.5;" x1="218.77" x2="330.4731" y1="139.3" y2="139.3"/><line style="stroke:#181818;stroke-width:0.5;" x1="330.4731" x2="330.4731" y1="139.3" y2="175.5969"/><text fill="#000000" font-family="sans-serif" font-size="14" lengthAdjust="spacing" textLength="81.7031" x="233.77" y="162.2951">Web Server</text></g><!--entity Application Server--><g class="entity" data-entity="Application Server" data-source-line="7" data-uid="ent0004" id="entity_Application Server"><polygon fill="#F1F1F1" points="195.33,262.6,205.33,252.6,363.914,252.6,363.914,288.8969,353.914,298.8969,195.33,298.8969,195.33,262.6" style="stroke:#181818;stroke-width:0.5;"/><line style="stroke:#181818;stroke-width:0.5;" x1="353.914" x2="363.914" y1="262.6" y2="252.6"/><line style="stroke:#181818;stroke-width:0.5;" x1="195.33" x2="353.914" y1="262.6" y2="262.6"/><line style="stroke:#181818;stroke-width:0.5;" x1="353.914" x2="353.914" y1="262.6" y2="298.8969"/><text fill="#000000" font-family="sans-serif" font-size="14" lengthAdjust="spacing" textLength="128.584" x="210.33" y="285.5951">Application Server</text></g><!--entity Cloud Database--><g class="entity" data-entity="Cloud Database" data-source-line="10" data-uid="ent0005" id="entity_Cloud Database"><polygon fill="#F1F1F1" points="16,385.89,26,375.89,167.2412,375.89,167.2412,412.1869,157.2412,422.1869,16,422.1869,16,385.89" style="stroke:#181818;stroke-width:0.5;"/><line style="stroke:#181818;stroke-width:0.5;" x1="157.2412" x2="167.2412" y1="385.89" y2="375.89"/><line style="stroke:#181818;stroke-width:0.5;" x1="16" x2="157.2412" y1="385.89" y2="385.89"/><line style="stroke:#181818;stroke-width:0.5;" x1="157.2412" x2="157.2412" y1="385.89" y2="422.1869"/><text fill="#000000" font-family="sans-serif" font-size="14" lengthAdjust="spacing" textLength="111.2412" x="31" y="408.8851">Cloud Database</text></g><!--entity Social Media API--><g class="entity" data-entity="Social Media API" data-source-line="13" data-uid="ent0006" id="entity_Social Media API"><polygon fill="#F1F1F1" points="202.32,385.89,212.32,375.89,356.9245,375.89,356.9245,412.1869,346.9245,422.1869,202.32,422.1869,202.32,385.89" style="stroke:#181818;stroke-width:0.5;"/><line style="stroke:#181818;stroke-width:0.5;" x1="346.9245" x2="356.9245" y1="385.89" y2="375.89"/><line style="stroke:#181818;stroke-width:0.5;" x1="202.32" x2="346.9245" y1="385.89" y2="385.89"/><line style="stroke:#181818;stroke-width:0.5;" x1="346.9245" x2="346.9245" y1="385.89" y2="422.1869"/><text fill="#000000" font-family="sans-serif" font-size="14" lengthAdjust="spacing" textLength="114.6045" x="217.32" y="408.8851">Social Media API</text></g><!--entity Etimad API--><g class="entity" data-entity="Etimad API" data-source-line="16" data-uid="ent0007" id="entity_Etimad API"><polygon fill="#F1F1F1" points="391.66,385.89,401.66,375.89,507.5868,375.89,507.5868,412.1869,497.5868,422.1869,391.66,422.1869,391.66,385.89" style="stroke:#181818;stroke-width:0.5;"/><line style="stroke:#181818;stroke-width:0.5;" x1="497.5868" x2="507.5868" y1="385.89" y2="375.89"/><line style="stroke:#181818;stroke-width:0.5;" x1="391.66" x2="497.5868" y1="385.89" y2="385.89"/><line style="stroke:#181818;stroke-width:0.5;" x1="497.5868" x2="497.5868" y1="385.89" y2="422.1869"/><text fill="#000000" font-family="sans-serif" font-size="14" lengthAdjust="spacing" textLength="75.9268" x="406.66" y="408.8851">Etimad API</text></g><!--link Client Web Browsers to Web Server--><g class="link" data-entity-1="Client Web Browsers" data-entity-2="Web Server" data-source-line="19" data-uid="lnk8" id="link_Client Web Browsers_Web Server"><path codeLine="19" d="M279.62,52.68 C279.62,74.47 279.62,101.29 279.62,123.04" fill="none" id="Client Web Browsers-to-Web Server" style="stroke:#181818;stroke-width:1;"/><polygon fill="#181818" points="279.62,129.04,283.62,120.04,279.62,124.04,275.62,120.04,279.62,129.04" style="stroke:#181818;stroke-width:1;"/><text fill="#000000" font-family="sans-serif" font-size="13" lengthAdjust="spacing" textLength="97.792" x="280.62" y="95.3669">HTTP Requests</text></g><!--link Web Server to Application Server--><g class="link" data-entity-1="Web Server" data-entity-2="Application Server" data-source-line="20" data-uid="lnk9" id="link_Web Server_Application Server"><path codeLine="20" d="M236.48,175.95 C225.75,183.79 215.6,193.68 209.62,205.6 C200.5,223.76 209.9979,236.6366 228.1179,248.7966" fill="none" id="Web Server-to-Application Server" style="stroke:#181818;stroke-width:1;"/><polygon fill="#181818" points="233.1,252.14,227.8558,243.8035,228.9482,249.3538,223.3979,250.4463,233.1,252.14" style="stroke:#181818;stroke-width:1;"/><text fill="#000000" font-family="sans-serif" font-size="13" lengthAdjust="spacing" textLength="93.9263" x="210.62" y="218.6669">User Requests</text></g><!--link Web Server to Application Server--><g class="link" data-entity-1="Web Server" data-entity-2="Application Server" data-source-line="24" data-uid="lnk13" id="link_Web Server_Application Server"><path codeLine="24" d="M295.44,176 C300.72,184.81 305.94,195.27 308.62,205.6 C312.8,221.73 308.7307,233.9224 300.4407,247.1824" fill="none" id="Web Server-to-Application Server-1" style="stroke:#181818;stroke-width:1;"/><polygon fill="#181818" points="297.26,252.27,305.4227,246.7591,299.9106,248.0304,298.6393,242.5182,297.26,252.27" style="stroke:#181818;stroke-width:1;"/><text fill="#000000" font-family="sans-serif" font-size="13" lengthAdjust="spacing" textLength="195.5459" x="310.84" y="218.6669">Real-time Dashboard Updates</text></g><!--link Application Server to Cloud Database--><g class="link" data-entity-1="Application Server" data-entity-2="Cloud Database" data-source-line="21" data-uid="lnk10" id="link_Application Server_Cloud Database"><path codeLine="21" d="M209.36,299.36 C190.37,307.16 170.43,316.99 153.62,328.89 C135.46,341.75 122.5186,356.0845 111.0786,370.9545" fill="none" id="Application Server-to-Cloud Database" style="stroke:#181818;stroke-width:1;"/><polygon fill="#181818" points="107.42,375.71,116.0782,371.0158,110.4688,371.7471,109.7375,366.1377,107.42,375.71" style="stroke:#181818;stroke-width:1;"/><text fill="#000000" font-family="sans-serif" font-size="13" lengthAdjust="spacing" textLength="116.3589" x="154.62" y="341.9569">Database Queries</text></g><!--link Application Server to Social Media API--><g class="link" data-entity-1="Application Server" data-entity-2="Social Media API" data-source-line="22" data-uid="lnk11" id="link_Application Server_Social Media API"><path codeLine="22" d="M279.62,299.28 C279.62,321.06 279.62,347.89 279.62,369.63" fill="none" id="Application Server-to-Social Media API" style="stroke:#181818;stroke-width:1;"/><polygon fill="#181818" points="279.62,375.63,283.62,366.63,279.62,370.63,275.62,366.63,279.62,375.63" style="stroke:#181818;stroke-width:1;"/><text fill="#000000" font-family="sans-serif" font-size="13" lengthAdjust="spacing" textLength="122.6685" x="280.62" y="341.9569">Secure Connection</text></g><!--link Application Server to Etimad API--><g class="link" data-entity-1="Application Server" data-entity-2="Etimad API" data-source-line="23" data-uid="lnk12" id="link_Application Server_Etimad API"><path codeLine="23" d="M361.38,299.39 C378.92,306.83 396.43,316.49 410.62,328.89 C424.94,341.41 432.8107,354.999 439.1807,369.969" fill="none" id="Application Server-to-Etimad API" style="stroke:#181818;stroke-width:1;"/><polygon fill="#181818" points="441.53,375.49,441.6867,365.6424,439.5723,370.8892,434.3255,368.7747,441.53,375.49" style="stroke:#181818;stroke-width:1;"/><text fill="#000000" font-family="sans-serif" font-size="13" lengthAdjust="spacing" textLength="122.6685" x="425.88" y="341.9569">Secure Connection</text></g><!--SRC=[ZP3B2i8m44Nt_Oh1VN-W2q6he0l1HulhQNF1G4ngakf2_7VRBgJHKDo5EVSCTwAD0Cro9Q4zdL7Hqfg7WtKpUYQl9D43xy49zWuRZ1TDesJDNXeTmxaohQ0LUwxO8K0dKqjMj8EGJ8lzDe1hBwyiHkDulpITXyqosXJ5dewujN3U9G4Sqh726PNTlf4L2mtszptPvqs75bPYIlwzEEi2TMj1kT4QTQzC-EDFYPf_7di4gxJRXQwykrI6hQ2o4UpXtW00]--></g></svg>