<svg xmlns="http://www.w3.org/2000/svg" xmlns:xlink="http://www.w3.org/1999/xlink" contentStyleType="text/css" data-diagram-type="DESCRIPTION" height="326px" preserveAspectRatio="none" style="width:570px;height:326px;background:#FFFFFF;" version="1.1" viewBox="0 0 570 326" width="570px" zoomAndPan="magnify"><defs/><g><!--entity SM--><g class="entity" data-entity="SM" data-source-line="1" data-uid="ent0002" id="entity_SM"><ellipse cx="76.6289" cy="253.79" fill="#F1F1F1" rx="8" ry="8" style="stroke:#181818;stroke-width:0.5;"/><path d="M76.6289,261.79 L76.6289,288.79 M63.6289,269.79 L89.6289,269.79 M76.6289,288.79 L63.6289,303.79 M76.6289,288.79 L89.6289,303.79" fill="none" style="stroke:#181818;stroke-width:0.5;"/><text fill="#000000" font-family="sans-serif" font-size="14" lengthAdjust="spacing" textLength="141.2578" x="6" y="318.2851">Senior Management</text></g><!--entity DM--><g class="entity" data-entity="DM" data-source-line="2" data-uid="ent0003" id="entity_DM"><ellipse cx="376.6321" cy="14" fill="#F1F1F1" rx="8" ry="8" style="stroke:#181818;stroke-width:0.5;"/><path d="M376.6321,22 L376.6321,49 M363.6321,30 L389.6321,30 M376.6321,49 L363.6321,64 M376.6321,49 L389.6321,64" fill="none" style="stroke:#181818;stroke-width:0.5;"/><text fill="#000000" font-family="sans-serif" font-size="14" lengthAdjust="spacing" textLength="99.2441" x="327.01" y="78.4951">Data Manager</text></g><!--entity RD--><g class="entity" data-entity="RD" data-source-line="4" data-uid="ent0004" id="entity_RD"><ellipse cx="481.6262" cy="283.4412" fill="#F1F1F1" rx="83.3562" ry="19.0712" style="stroke:#181818;stroke-width:0.5;"/><text fill="#000000" font-family="sans-serif" font-size="14" lengthAdjust="spacing" textLength="138.5234" x="412.3644" y="288.0897">Review Dashboards</text></g><!--entity DKPI--><g class="entity" data-entity="DKPI" data-source-line="5" data-uid="ent0005" id="entity_DKPI"><ellipse cx="272.6283" cy="283.4437" fill="#F1F1F1" rx="90.3683" ry="20.4737" style="stroke:#181818;stroke-width:0.5;"/><text fill="#000000" font-family="sans-serif" font-size="14" lengthAdjust="spacing" textLength="154.5742" x="195.3412" y="288.0921">Download KPI Reports</text></g><!--entity CI--><g class="entity" data-entity="CI" data-source-line="6" data-uid="ent0006" id="entity_CI"><ellipse cx="376.6337" cy="163.5387" fill="#F1F1F1" rx="96.7437" ry="21.7487" style="stroke:#181818;stroke-width:0.5;"/><text fill="#000000" font-family="sans-serif" font-size="14" lengthAdjust="spacing" textLength="168.8545" x="292.2065" y="168.1872">Comprehensive Insights</text></g><!--link SM to RD--><g class="link" data-entity-1="SM" data-entity-2="RD" data-source-line="8" data-uid="lnk7" id="link_SM_RD"><path d="M123.64,244.88 C140.95,232.97 161.42,221.4 182.13,215.29 C259.29,192.54 285.41,194.54 363.13,215.29 C398.9,224.84 430.2375,244.5173 453.0375,261.1973" fill="none" id="SM-to-RD" style="stroke:#181818;stroke-width:1;"/><polygon fill="#181818" points="457.88,264.74,452.9781,256.1977,453.8446,261.7878,448.2545,262.6543,457.88,264.74" style="stroke:#181818;stroke-width:1;"/></g><!--link SM to DKPI--><g class="link" data-entity-1="SM" data-entity-2="DKPI" data-source-line="9" data-uid="lnk8" id="link_SM_DKPI"><path d="M147.45,283.44 C159.02,283.44 164.59,283.44 176.17,283.44" fill="none" id="SM-to-DKPI" style="stroke:#181818;stroke-width:1;"/><polygon fill="#181818" points="182.17,283.44,173.17,279.44,177.17,283.44,173.17,287.44,182.17,283.44" style="stroke:#181818;stroke-width:1;"/></g><!--link DM to CI--><g class="link" data-entity-1="DM" data-entity-2="CI" data-source-line="10" data-uid="lnk9" id="link_DM_CI"><path d="M376.63,82.27 C376.63,101.82 376.63,118.97 376.63,135.38" fill="none" id="DM-to-CI" style="stroke:#181818;stroke-width:1;"/><polygon fill="#181818" points="376.63,141.38,380.63,132.38,376.63,136.38,372.63,132.38,376.63,141.38" style="stroke:#181818;stroke-width:1;"/></g><!--link CI to RD--><g class="link" data-entity-1="CI" data-entity-2="RD" data-source-line="11" data-uid="lnk10" id="link_CI_RD"><path d="M395.16,185.35 C415.18,207.83 442.7487,238.7901 461.6987,260.0601" fill="none" id="CI-to-RD" style="stroke:#181818;stroke-width:1;"/><polygon fill="#181818" points="465.69,264.54,462.6897,255.1593,462.3639,260.8067,456.7165,260.481,465.69,264.54" style="stroke:#181818;stroke-width:1;"/></g><!--link CI to DKPI--><g class="link" data-entity-1="CI" data-entity-2="DKPI" data-source-line="12" data-uid="lnk11" id="link_CI_DKPI"><path d="M358.28,185.35 C338.92,207.3 312.6196,237.1109 293.7296,258.5209" fill="none" id="CI-to-DKPI" style="stroke:#181818;stroke-width:1;"/><polygon fill="#181818" points="289.76,263.02,298.7138,258.9177,293.068,259.2707,292.715,253.6249,289.76,263.02" style="stroke:#181818;stroke-width:1;"/></g><!--SRC=[HOp12iCW343lVaNeVR-mYxd844RzWgmDLLYrg6j_lvaMUieZxoKqrPHXS1o3J4kH5buvrW6eWBEAkaUgTDdS55gbVeKdAWp3o7lW0v2A_oJASsd9Y7U1wOZVH3EytWP6tbAkFK9Pt9bEwvRPSonXPp0o5d-5sYZbB3oU_xyTsYqA2elMff7eYve_0G00]--></g></svg>