<svg xmlns="http://www.w3.org/2000/svg" xmlns:xlink="http://www.w3.org/1999/xlink" contentStyleType="text/css" data-diagram-type="ACTIVITY" height="416px" preserveAspectRatio="none" style="width:273px;height:416px;background:#FFFFFF;" version="1.1" viewBox="0 0 273 416" width="273px" zoomAndPan="magnify"><defs/><g><ellipse cx="145.8337" cy="20" fill="#222222" rx="10" ry="10" style="stroke:#222222;stroke-width:1;"/><rect fill="#F1F1F1" height="33.9688" rx="12.5" ry="12.5" style="stroke:#181818;stroke-width:0.5;" width="162.4063" x="64.6306" y="50"/><text fill="#000000" font-family="sans-serif" font-size="12" lengthAdjust="spacing" textLength="142.4063" x="74.6306" y="71.1387">Fetch Restaurant Detail</text><rect fill="#F1F1F1" height="33.9688" rx="12.5" ry="12.5" style="stroke:#181818;stroke-width:0.5;" width="170.8906" x="60.3884" y="103.9688"/><text fill="#000000" font-family="sans-serif" font-size="12" lengthAdjust="spacing" textLength="150.8906" x="70.3884" y="125.1074">Fetch Restaurant Images</text><rect fill="#F1F1F1" height="33.9688" rx="12.5" ry="12.5" style="stroke:#181818;stroke-width:0.5;" width="176.6621" x="57.5027" y="157.9375"/><text fill="#000000" font-family="sans-serif" font-size="12" lengthAdjust="spacing" textLength="156.6621" x="67.5027" y="179.0762">Fetch Restaurant Reviews</text><rect fill="#F1F1F1" height="33.9688" rx="12.5" ry="12.5" style="stroke:#181818;stroke-width:0.5;" width="147.1777" x="72.2449" y="211.9063"/><text fill="#000000" font-family="sans-serif" font-size="12" lengthAdjust="spacing" textLength="127.1777" x="82.2449" y="233.0449">Render Map Location</text><polygon fill="#F1F1F1" points="99.3496,265.875,192.3179,265.875,204.3179,277.875,192.3179,289.875,99.3496,289.875,87.3496,277.875,99.3496,265.875" style="stroke:#181818;stroke-width:0.5;"/><text fill="#000000" font-family="sans-serif" font-size="11" lengthAdjust="spacing" textLength="92.9683" x="99.3496" y="281.6831">All data fetched?</text><text fill="#000000" font-family="sans-serif" font-size="11" lengthAdjust="spacing" textLength="19.0083" x="68.3413" y="275.2808">yes</text><text fill="#000000" font-family="sans-serif" font-size="11" lengthAdjust="spacing" textLength="13.7017" x="204.3179" y="275.2808">no</text><rect fill="#F1F1F1" height="33.9688" rx="12.5" ry="12.5" style="stroke:#181818;stroke-width:0.5;" width="132.6992" x="11" y="299.875"/><text fill="#000000" font-family="sans-serif" font-size="12" lengthAdjust="spacing" textLength="112.6992" x="21" y="321.0137">Navigate to Menus</text><rect fill="#F1F1F1" height="33.9688" rx="12.5" ry="12.5" style="stroke:#181818;stroke-width:0.5;" width="95.8555" x="166.3901" y="299.875"/><text fill="#000000" font-family="sans-serif" font-size="12" lengthAdjust="spacing" textLength="75.8555" x="176.3901" y="321.0137">Handle Error</text><polygon fill="#F1F1F1" points="145.8337,339.8438,157.8337,351.8438,145.8337,363.8438,133.8337,351.8438,145.8337,339.8438" style="stroke:#181818;stroke-width:0.5;"/><ellipse cx="145.8337" cy="394.8438" fill="none" rx="11" ry="11" style="stroke:#222222;stroke-width:1;"/><ellipse cx="145.8337" cy="394.8438" fill="#222222" rx="6" ry="6" style="stroke:#222222;stroke-width:1;"/><line style="stroke:#181818;stroke-width:1;" x1="145.8337" x2="145.8337" y1="30" y2="50"/><polygon fill="#181818" points="141.8337,40,145.8337,50,149.8337,40,145.8337,44" style="stroke:#181818;stroke-width:1;"/><line style="stroke:#181818;stroke-width:1;" x1="145.8337" x2="145.8337" y1="83.9688" y2="103.9688"/><polygon fill="#181818" points="141.8337,93.9688,145.8337,103.9688,149.8337,93.9688,145.8337,97.9688" style="stroke:#181818;stroke-width:1;"/><line style="stroke:#181818;stroke-width:1;" x1="145.8337" x2="145.8337" y1="137.9375" y2="157.9375"/><polygon fill="#181818" points="141.8337,147.9375,145.8337,157.9375,149.8337,147.9375,145.8337,151.9375" style="stroke:#181818;stroke-width:1;"/><line style="stroke:#181818;stroke-width:1;" x1="145.8337" x2="145.8337" y1="191.9063" y2="211.9063"/><polygon fill="#181818" points="141.8337,201.9063,145.8337,211.9063,149.8337,201.9063,145.8337,205.9063" style="stroke:#181818;stroke-width:1;"/><line style="stroke:#181818;stroke-width:1;" x1="87.3496" x2="77.3496" y1="277.875" y2="277.875"/><line style="stroke:#181818;stroke-width:1;" x1="77.3496" x2="77.3496" y1="277.875" y2="299.875"/><polygon fill="#181818" points="73.3496,289.875,77.3496,299.875,81.3496,289.875,77.3496,293.875" style="stroke:#181818;stroke-width:1;"/><line style="stroke:#181818;stroke-width:1;" x1="204.3179" x2="214.3179" y1="277.875" y2="277.875"/><line style="stroke:#181818;stroke-width:1;" x1="214.3179" x2="214.3179" y1="277.875" y2="299.875"/><polygon fill="#181818" points="210.3179,289.875,214.3179,299.875,218.3179,289.875,214.3179,293.875" style="stroke:#181818;stroke-width:1;"/><line style="stroke:#181818;stroke-width:1;" x1="77.3496" x2="77.3496" y1="333.8438" y2="351.8438"/><line style="stroke:#181818;stroke-width:1;" x1="77.3496" x2="133.8337" y1="351.8438" y2="351.8438"/><polygon fill="#181818" points="123.8337,347.8438,133.8337,351.8438,123.8337,355.8438,127.8337,351.8438" style="stroke:#181818;stroke-width:1;"/><line style="stroke:#181818;stroke-width:1;" x1="214.3179" x2="214.3179" y1="333.8438" y2="351.8438"/><line style="stroke:#181818;stroke-width:1;" x1="214.3179" x2="157.8337" y1="351.8438" y2="351.8438"/><polygon fill="#181818" points="167.8337,347.8438,157.8337,351.8438,167.8337,355.8438,163.8337,351.8438" style="stroke:#181818;stroke-width:1;"/><line style="stroke:#181818;stroke-width:1;" x1="145.8337" x2="145.8337" y1="245.875" y2="265.875"/><polygon fill="#181818" points="141.8337,255.875,145.8337,265.875,149.8337,255.875,145.8337,259.875" style="stroke:#181818;stroke-width:1;"/><line style="stroke:#181818;stroke-width:1;" x1="145.8337" x2="145.8337" y1="363.8438" y2="383.8438"/><polygon fill="#181818" points="141.8337,373.8438,145.8337,383.8438,149.8337,373.8438,145.8337,377.8438" style="stroke:#181818;stroke-width:1;"/><!--SRC=[RSn13e8m54NHULVnXh0561WJDPge0tRmGn_GfFwQzeDnzu9ZnYVt5fDipZKNMZ-XOp6PiwZXH9CGsnsvlMHasPEEI-1deuxgcV6GD-wf5mj9M-V2WEeO8xoOODXg-aCDcwYelYor0vgdB64K8opXGPtN7MCXAar_luhwI9npJdabzM5mhbXw_m00]--></g></svg>