<svg xmlns="http://www.w3.org/2000/svg" xmlns:xlink="http://www.w3.org/1999/xlink" contentStyleType="text/css" data-diagram-type="DESCRIPTION" height="476px" preserveAspectRatio="none" style="width:1841px;height:476px;background:#FFFFFF;" version="1.1" viewBox="0 0 1841 476" width="1841px" zoomAndPan="magnify"><defs/><g><!--cluster Food Ordering System--><g class="cluster" data-entity="Food Ordering System" data-source-line="1" data-uid="ent0002" id="cluster_Food Ordering System"><path d="M8.5,6 L186.4004,6 A3.75,3.75 0 0 1 188.9004,8.5 L195.9004,28.2969 L1831.5,28.2969 A2.5,2.5 0 0 1 1834,30.7969 L1834,466.69 A2.5,2.5 0 0 1 1831.5,469.19 L8.5,469.19 A2.5,2.5 0 0 1 6,466.69 L6,8.5 A2.5,2.5 0 0 1 8.5,6" fill="none" style="stroke:#000000;stroke-width:1.5;"/><line style="stroke:#000000;stroke-width:1.5;" x1="6" x2="195.9004" y1="28.2969" y2="28.2969"/><text fill="#000000" font-family="sans-serif" font-size="14" font-weight="bold" lengthAdjust="spacing" textLength="176.9004" x="10" y="20.9951">Food Ordering System</text></g><!--cluster Backend--><g class="cluster" data-entity="Backend" data-source-line="2" data-uid="ent0004" id="cluster_Backend"><path d="M40.5,217.6 L108.7109,217.6 A3.75,3.75 0 0 1 111.2109,220.1 L118.2109,239.8969 L1134.5,239.8969 A2.5,2.5 0 0 1 1137,242.3969 L1137,434.69 A2.5,2.5 0 0 1 1134.5,437.19 L40.5,437.19 A2.5,2.5 0 0 1 38,434.69 L38,220.1 A2.5,2.5 0 0 1 40.5,217.6" fill="none" style="stroke:#000000;stroke-width:1.5;"/><line style="stroke:#000000;stroke-width:1.5;" x1="38" x2="118.2109" y1="239.8969" y2="239.8969"/><text fill="#000000" font-family="sans-serif" font-size="14" font-weight="bold" lengthAdjust="spacing" textLength="67.2109" x="42" y="232.5951">Backend</text></g><!--entity Frontend--><g class="entity" data-entity="Frontend" data-source-line="2" data-uid="ent0003" id="entity_Frontend"><rect fill="#F1F1F1" height="46.2969" rx="2.5" ry="2.5" style="stroke:#181818;stroke-width:0.5;" width="103.1094" x="609.45" y="41"/><rect fill="#F1F1F1" height="10" style="stroke:#181818;stroke-width:0.5;" width="15" x="692.5594" y="46"/><rect fill="#F1F1F1" height="2" style="stroke:#181818;stroke-width:0.5;" width="4" x="690.5594" y="48"/><rect fill="#F1F1F1" height="2" style="stroke:#181818;stroke-width:0.5;" width="4" x="690.5594" y="52"/><text fill="#000000" font-family="sans-serif" font-size="14" lengthAdjust="spacing" textLength="63.1094" x="624.45" y="73.9951">Frontend</text></g><!--entity REST API Integrator--><g class="entity" data-entity="REST API Integrator" data-source-line="3" data-uid="ent0006" id="entity_REST API Integrator"><rect fill="#F1F1F1" height="46.2969" rx="2.5" ry="2.5" style="stroke:#181818;stroke-width:0.5;" width="177.1973" x="347.4" y="147.3"/><rect fill="#F1F1F1" height="10" style="stroke:#181818;stroke-width:0.5;" width="15" x="504.5973" y="152.3"/><rect fill="#F1F1F1" height="2" style="stroke:#181818;stroke-width:0.5;" width="4" x="502.5973" y="154.3"/><rect fill="#F1F1F1" height="2" style="stroke:#181818;stroke-width:0.5;" width="4" x="502.5973" y="158.3"/><text fill="#000000" font-family="sans-serif" font-size="14" lengthAdjust="spacing" textLength="137.1973" x="362.4" y="180.2951">REST API Integrator</text></g><!--entity External Payment Gateway--><g class="entity" data-entity="External Payment Gateway" data-source-line="20" data-uid="ent0019" id="entity_External Payment Gateway"><rect fill="#F1F1F1" height="46.2969" rx="2.5" ry="2.5" style="stroke:#181818;stroke-width:0.5;" width="230.9961" x="1372.5" y="366.89"/><rect fill="#F1F1F1" height="10" style="stroke:#181818;stroke-width:0.5;" width="15" x="1583.4961" y="371.89"/><rect fill="#F1F1F1" height="2" style="stroke:#181818;stroke-width:0.5;" width="4" x="1581.4961" y="373.89"/><rect fill="#F1F1F1" height="2" style="stroke:#181818;stroke-width:0.5;" width="4" x="1581.4961" y="377.89"/><text fill="#000000" font-family="sans-serif" font-size="14" lengthAdjust="spacing" textLength="190.9961" x="1387.5" y="399.8851">External Payment Gateway</text></g><!--entity Localization Service--><g class="entity" data-entity="Localization Service" data-source-line="21" data-uid="ent0021" id="entity_Localization Service"><rect fill="#F1F1F1" height="46.2969" rx="2.5" ry="2.5" style="stroke:#181818;stroke-width:0.5;" width="179.3574" x="1638.32" y="366.89"/><rect fill="#F1F1F1" height="10" style="stroke:#181818;stroke-width:0.5;" width="15" x="1797.6774" y="371.89"/><rect fill="#F1F1F1" height="2" style="stroke:#181818;stroke-width:0.5;" width="4" x="1795.6774" y="373.89"/><rect fill="#F1F1F1" height="2" style="stroke:#181818;stroke-width:0.5;" width="4" x="1795.6774" y="377.89"/><text fill="#000000" font-family="sans-serif" font-size="14" lengthAdjust="spacing" textLength="139.3574" x="1653.32" y="399.8851">Localization Service</text></g><!--entity Notification Service--><g class="entity" data-entity="Notification Service" data-source-line="22" data-uid="ent0023" id="entity_Notification Service"><rect fill="#F1F1F1" height="46.2969" rx="2.5" ry="2.5" style="stroke:#181818;stroke-width:0.5;" width="176.5205" x="1160.74" y="366.89"/><rect fill="#F1F1F1" height="10" style="stroke:#181818;stroke-width:0.5;" width="15" x="1317.2605" y="371.89"/><rect fill="#F1F1F1" height="2" style="stroke:#181818;stroke-width:0.5;" width="4" x="1315.2605" y="373.89"/><rect fill="#F1F1F1" height="2" style="stroke:#181818;stroke-width:0.5;" width="4" x="1315.2605" y="377.89"/><text fill="#000000" font-family="sans-serif" font-size="14" lengthAdjust="spacing" textLength="136.5205" x="1175.74" y="399.8851">Notification Service</text></g><!--entity Order Processing--><g class="entity" data-entity="Order Processing" data-source-line="6" data-uid="ent0008" id="entity_Order Processing"><rect fill="#F1F1F1" height="46.2969" rx="2.5" ry="2.5" style="stroke:#181818;stroke-width:0.5;" width="159.793" x="465.1" y="260.6"/><rect fill="#F1F1F1" height="10" style="stroke:#181818;stroke-width:0.5;" width="15" x="604.893" y="265.6"/><rect fill="#F1F1F1" height="2" style="stroke:#181818;stroke-width:0.5;" width="4" x="602.893" y="267.6"/><rect fill="#F1F1F1" height="2" style="stroke:#181818;stroke-width:0.5;" width="4" x="602.893" y="271.6"/><text fill="#000000" font-family="sans-serif" font-size="14" lengthAdjust="spacing" textLength="119.793" x="480.1" y="293.5951">Order Processing</text></g><!--entity User Management--><g class="entity" data-entity="User Management" data-source-line="7" data-uid="ent0009" id="entity_User Management"><rect fill="#F1F1F1" height="46.2969" rx="2.5" ry="2.5" style="stroke:#181818;stroke-width:0.5;" width="168.584" x="61.71" y="366.89"/><rect fill="#F1F1F1" height="10" style="stroke:#181818;stroke-width:0.5;" width="15" x="210.294" y="371.89"/><rect fill="#F1F1F1" height="2" style="stroke:#181818;stroke-width:0.5;" width="4" x="208.294" y="373.89"/><rect fill="#F1F1F1" height="2" style="stroke:#181818;stroke-width:0.5;" width="4" x="208.294" y="377.89"/><text fill="#000000" font-family="sans-serif" font-size="14" lengthAdjust="spacing" textLength="128.584" x="76.71" y="399.8851">User Management</text></g><!--entity Menu Management--><g class="entity" data-entity="Menu Management" data-source-line="8" data-uid="ent0010" id="entity_Menu Management"><rect fill="#F1F1F1" height="46.2969" rx="2.5" ry="2.5" style="stroke:#181818;stroke-width:0.5;" width="175.1123" x="265.44" y="366.89"/><rect fill="#F1F1F1" height="10" style="stroke:#181818;stroke-width:0.5;" width="15" x="420.5523" y="371.89"/><rect fill="#F1F1F1" height="2" style="stroke:#181818;stroke-width:0.5;" width="4" x="418.5523" y="373.89"/><rect fill="#F1F1F1" height="2" style="stroke:#181818;stroke-width:0.5;" width="4" x="418.5523" y="377.89"/><text fill="#000000" font-family="sans-serif" font-size="14" lengthAdjust="spacing" textLength="135.1123" x="280.44" y="399.8851">Menu Management</text></g><!--entity Payment Processing--><g class="entity" data-entity="Payment Processing" data-source-line="9" data-uid="ent0011" id="entity_Payment Processing"><rect fill="#F1F1F1" height="46.2969" rx="2.5" ry="2.5" style="stroke:#181818;stroke-width:0.5;" width="181.6816" x="923.16" y="366.89"/><rect fill="#F1F1F1" height="10" style="stroke:#181818;stroke-width:0.5;" width="15" x="1084.8416" y="371.89"/><rect fill="#F1F1F1" height="2" style="stroke:#181818;stroke-width:0.5;" width="4" x="1082.8416" y="373.89"/><rect fill="#F1F1F1" height="2" style="stroke:#181818;stroke-width:0.5;" width="4" x="1082.8416" y="377.89"/><text fill="#000000" font-family="sans-serif" font-size="14" lengthAdjust="spacing" textLength="141.6816" x="938.16" y="399.8851">Payment Processing</text></g><!--entity Notification Handling--><g class="entity" data-entity="Notification Handling" data-source-line="10" data-uid="ent0012" id="entity_Notification Handling"><rect fill="#F1F1F1" height="46.2969" rx="2.5" ry="2.5" style="stroke:#181818;stroke-width:0.5;" width="187.1846" x="701.41" y="366.89"/><rect fill="#F1F1F1" height="10" style="stroke:#181818;stroke-width:0.5;" width="15" x="868.5946" y="371.89"/><rect fill="#F1F1F1" height="2" style="stroke:#181818;stroke-width:0.5;" width="4" x="866.5946" y="373.89"/><rect fill="#F1F1F1" height="2" style="stroke:#181818;stroke-width:0.5;" width="4" x="866.5946" y="377.89"/><text fill="#000000" font-family="sans-serif" font-size="14" lengthAdjust="spacing" textLength="147.1846" x="716.41" y="399.8851">Notification Handling</text></g><!--entity Localization Handling--><g class="entity" data-entity="Localization Handling" data-source-line="11" data-uid="ent0013" id="entity_Localization Handling"><rect fill="#F1F1F1" height="46.2969" rx="2.5" ry="2.5" style="stroke:#181818;stroke-width:0.5;" width="190.0215" x="475.99" y="366.89"/><rect fill="#F1F1F1" height="10" style="stroke:#181818;stroke-width:0.5;" width="15" x="646.0115" y="371.89"/><rect fill="#F1F1F1" height="2" style="stroke:#181818;stroke-width:0.5;" width="4" x="644.0115" y="373.89"/><rect fill="#F1F1F1" height="2" style="stroke:#181818;stroke-width:0.5;" width="4" x="644.0115" y="377.89"/><text fill="#000000" font-family="sans-serif" font-size="14" lengthAdjust="spacing" textLength="150.0215" x="490.99" y="399.8851">Localization Handling</text></g><!--link Frontend to Backend--><g class="link" data-entity-1="Frontend" data-entity-2="Backend" data-source-line="2" data-uid="lnk5" id="link_Frontend_Backend"><path d="M713.05,73.2 C822.03,91.16 1068.48,138.01 1121,201.6 C1123.795,204.9838 1126.0305,208.7378 1127.8009,212.7229 C1128.2435,213.7192 1128.6571,214.7299 1129.043,215.7528 C1129.236,216.2643 1127.4566,233.4068 1127.636,233.9242" fill="none" id="Frontend-to-Backend" style="stroke:#181818;stroke-width:1;"/><polygon fill="#181818" points="1129.6015,239.5931,1130.4325,229.7794,1127.9635,234.869,1122.8739,232.4,1129.6015,239.5931" style="stroke:#181818;stroke-width:1;"/></g><!--link Frontend to REST API Integrator--><g class="link" data-entity-1="Frontend" data-entity-2="REST API Integrator" data-source-line="3" data-uid="lnk7" id="link_Frontend_REST API Integrator"><path d="M612.18,87.78 C574.44,105.28 527.8836,126.8567 490.1736,144.3367" fill="none" id="Frontend-to-REST API Integrator" style="stroke:#181818;stroke-width:1;"/><polygon fill="#181818" points="484.73,146.86,494.5776,146.7041,489.2663,144.7572,491.2132,139.446,484.73,146.86" style="stroke:#181818;stroke-width:1;"/></g><!--link Order Processing to User Management--><g class="link" data-entity-1="Order Processing" data-entity-2="User Management" data-source-line="13" data-uid="lnk14" id="link_Order Processing_User Management"><path d="M464.97,305.85 C463.64,306.2 462.31,306.55 461,306.89 C382.96,327.36 299.8165,349.0286 236.3865,365.5386" fill="none" id="Order Processing-to-User Management" style="stroke:#181818;stroke-width:1;"/><polygon fill="#181818" points="230.58,367.05,240.2974,368.654,235.4188,365.7905,238.2822,360.9119,230.58,367.05" style="stroke:#181818;stroke-width:1;"/></g><!--link Order Processing to Menu Management--><g class="link" data-entity-1="Order Processing" data-entity-2="Menu Management" data-source-line="14" data-uid="lnk15" id="link_Order Processing_Menu Management"><path d="M503.34,307.38 C471.13,324.87 432.0324,346.1061 399.8524,363.5861" fill="none" id="Order Processing-to-Menu Management" style="stroke:#181818;stroke-width:1;"/><polygon fill="#181818" points="394.58,366.45,404.3978,365.669,398.9736,364.0634,400.5793,358.6392,394.58,366.45" style="stroke:#181818;stroke-width:1;"/></g><!--link Order Processing to Payment Processing--><g class="link" data-entity-1="Order Processing" data-entity-2="Payment Processing" data-source-line="15" data-uid="lnk16" id="link_Order Processing_Payment Processing"><path d="M625.01,305.93 C626.35,306.26 627.68,306.58 629,306.89 C683.76,319.95 821.6165,348.9944 917.1265,368.9244" fill="none" id="Order Processing-to-Payment Processing" style="stroke:#181818;stroke-width:1;"/><polygon fill="#181818" points="923,370.15,915.0068,364.3959,918.1054,369.1287,913.3727,372.2272,923,370.15" style="stroke:#181818;stroke-width:1;"/></g><!--link Order Processing to Notification Handling--><g class="link" data-entity-1="Order Processing" data-entity-2="Notification Handling" data-source-line="16" data-uid="lnk17" id="link_Order Processing_Notification Handling"><path d="M599.25,307.38 C641.18,324.87 693.4124,346.6603 735.3224,364.1403" fill="none" id="Order Processing-to-Notification Handling" style="stroke:#181818;stroke-width:1;"/><polygon fill="#181818" points="740.86,366.45,734.0933,359.2937,736.2453,364.5253,731.0138,366.6773,740.86,366.45" style="stroke:#181818;stroke-width:1;"/></g><!--link Order Processing to Localization Handling--><g class="link" data-entity-1="Order Processing" data-entity-2="Localization Handling" data-source-line="17" data-uid="lnk18" id="link_Order Processing_Localization Handling"><path d="M550.64,307.38 C555,324.87 559.5579,343.1484 563.9179,360.6284" fill="none" id="Order Processing-to-Localization Handling" style="stroke:#181818;stroke-width:1;"/><polygon fill="#181818" points="565.37,366.45,567.073,356.7495,564.1599,361.5986,559.3108,358.6856,565.37,366.45" style="stroke:#181818;stroke-width:1;"/></g><!--link Backend to External Payment Gateway--><g class="link" data-entity-1="Backend" data-entity-2="External Payment Gateway" data-source-line="20" data-uid="lnk20" id="link_Backend_External Payment Gateway"><path d="M1137.0089,287.0671 C1137.3231,287.1584 1137.646,287.2522 1137.9774,287.3485 C1143.2797,288.8892 1150.7603,291.0628 1159.955,293.7344 C1178.3444,299.0775 1203.59,306.4125 1231.9775,314.66 C1288.7525,331.155 1352.3331,349.6265 1404.5281,364.7865" fill="none" id="Backend-to-External Payment Gateway" style="stroke:#181818;stroke-width:1;"/><polygon fill="#181818" points="1410.29,366.46,1402.7629,360.1084,1405.4884,365.0654,1400.5315,367.791,1410.29,366.46" style="stroke:#181818;stroke-width:1;"/></g><!--link Backend to Localization Service--><g class="link" data-entity-1="Backend" data-entity-2="Localization Service" data-source-line="21" data-uid="lnk22" id="link_Backend_Localization Service"><path d="M1137.0211,285.9627 C1138.6307,286.2084 1140.4718,286.4898 1142.5346,286.8058 C1150.7855,288.0695 1162.5826,289.8849 1177.2958,292.1717 C1206.7222,296.7453 1247.8131,303.2044 1295.5288,310.9063 C1390.96,326.31 1512.89,346.685 1621,366.89 C1626.5,367.92 1626.2606,367.8631 1631.9606,368.9731" fill="none" id="Backend-to-Localization Service" style="stroke:#181818;stroke-width:1;"/><polygon fill="#181818" points="1637.85,370.12,1629.7805,364.4734,1632.9422,369.1643,1628.2514,372.3259,1637.85,370.12" style="stroke:#181818;stroke-width:1;"/></g><!--link Backend to Notification Service--><g class="link" data-entity-1="Backend" data-entity-2="Notification Service" data-source-line="22" data-uid="lnk24" id="link_Backend_Notification Service"><path d="M1137.2331,291.9022 C1137.4056,292.0521 1137.5804,292.2041 1137.7575,292.358 C1138.4658,292.9738 1139.211,293.6216 1139.9905,294.2992 C1146.2266,299.7203 1154.6644,307.0544 1164.1013,315.2563 C1182.975,331.66 1201.316,347.5995 1218.561,362.5845" fill="none" id="Backend-to-Notification Service" style="stroke:#181818;stroke-width:1;"/><polygon fill="#181818" points="1223.09,366.52,1218.9201,357.5974,1219.3158,363.2404,1213.6728,363.6361,1223.09,366.52" style="stroke:#181818;stroke-width:1;"/></g><!--link REST API Integrator to Order Processing--><g class="link" data-entity-1="REST API Integrator" data-entity-2="Order Processing" data-source-line="24" data-uid="lnk25" id="link_REST API Integrator_Order Processing"><path d="M458.06,193.97 C476.97,213.28 499.8709,236.6743 518.7809,255.9743" fill="none" id="REST API Integrator-to-Order Processing" style="stroke:#181818;stroke-width:1;"/><polygon fill="#181818" points="522.98,260.26,519.5385,251.032,519.4807,256.6886,513.8242,256.6308,522.98,260.26" style="stroke:#181818;stroke-width:1;"/></g><!--link REST API Integrator to User Management--><g class="link" data-entity-1="REST API Integrator" data-entity-2="User Management" data-source-line="25" data-uid="lnk26" id="link_REST API Integrator_User Management"><path d="M389.42,194.08 C385.15,196.5 380.95,199.02 377,201.6 C296.49,254 215.4592,325.1626 174.7392,362.3726" fill="none" id="REST API Integrator-to-User Management" style="stroke:#181818;stroke-width:1;"/><polygon fill="#181818" points="170.31,366.42,179.6522,363.3017,174.001,363.0471,174.2556,357.396,170.31,366.42" style="stroke:#181818;stroke-width:1;"/></g><!--link REST API Integrator to Menu Management--><g class="link" data-entity-1="REST API Integrator" data-entity-2="Menu Management" data-source-line="26" data-uid="lnk27" id="link_REST API Integrator_Menu Management"><path d="M427.43,193.91 C411.48,235.72 379.5679,319.3738 363.6579,361.0938" fill="none" id="REST API Integrator-to-Menu Management" style="stroke:#181818;stroke-width:1;"/><polygon fill="#181818" points="361.52,366.7,368.4643,359.716,363.3016,362.0282,360.9894,356.8654,361.52,366.7" style="stroke:#181818;stroke-width:1;"/></g><!--link External Payment Gateway to Payment Processing--><g class="link" data-entity-1="External Payment Gateway" data-entity-2="Payment Processing" data-source-line="29" data-uid="lnk28" id="link_External Payment Gateway_Payment Processing"><path d="M1435.2,366.43 C1406.86,355.04 1370.96,342.63 1337.5,336.89 C1245.07,321.05 1218,316.37 1126.5,336.89 C1100.68,342.69 1073.81,355.1 1052.81,366.48" fill="none" id="External Payment Gateway-Payment Processing" style="stroke:#181818;stroke-width:1;"/></g><!--link Localization Service to Localization Handling--><g class="link" data-entity-1="Localization Service" data-entity-2="Localization Handling" data-source-line="30" data-uid="lnk29" id="link_Localization Service_Localization Handling"><path d="M1684.75,366.46 C1661.43,355.08 1631.71,342.66 1603.5,336.89 C1407.12,296.73 898.21,298.37 701.5,336.89 C672.09,342.65 640.95,355.07 616.46,366.45" fill="none" id="Localization Service-Localization Handling" style="stroke:#181818;stroke-width:1;"/></g><!--link Notification Service to Notification Handling--><g class="link" data-entity-1="Notification Service" data-entity-2="Notification Handling" data-source-line="31" data-uid="lnk30" id="link_Notification Service_Notification Handling"><path d="M1198.03,366.44 C1170.65,355.05 1135.94,342.63 1103.5,336.89 C1024.72,322.96 1001.97,321.31 923.5,336.89 C894.49,342.66 863.82,355.07 839.72,366.46" fill="none" id="Notification Service-Notification Handling" style="stroke:#181818;stroke-width:1;"/></g><!--SRC=[XPB1JiCm38RlUmfhzxu24aWRJ69GKNQQUh1IKqLqpfG6M9dsxYGD7HIShhVc_p_7_fqzgbUi2UPBOofuj1LPpJKKNUjeDuVZ3FotNLh3ZhWg8SkkO7lZeV0dYa-BuXckynMi_6bjqHbRpdhdVhZhcn_AzrNwgo6tHb7R-XRA7sdJUcMDxDaTiVkbh8dVP2N7Bfp81H-CqozQeTE6uGwvQiRwlL7OwC-_-aIpSVHqemaWtNy2c1mhmLoQDe4bGWZ8AKPnVWSHM1mSMSO6XYPlqT47TgLa7bKloBvhHQ9nrFtP69tIKukK_9ec075r4_v_c_EPf1E0J5wT74Dm9zANumY0lEKl]--></g></svg>