<svg xmlns="http://www.w3.org/2000/svg" xmlns:xlink="http://www.w3.org/1999/xlink" contentStyleType="text/css" data-diagram-type="DESCRIPTION" height="999px" preserveAspectRatio="none" style="width:843px;height:999px;background:#FFFFFF;" version="1.1" viewBox="0 0 843 999" width="843px" zoomAndPan="magnify"><defs/><g><!--cluster DMZ--><g class="cluster" data-entity="DMZ" data-source-line="3" data-uid="ent0004" id="cluster_DMZ"><polygon fill="none" points="178,216.59,188,206.59,382,206.59,382,298.89,372,308.89,178,308.89,178,216.59" style="stroke:#181818;stroke-width:1;"/><line style="stroke:#181818;stroke-width:1;" x1="372" x2="382" y1="216.59" y2="206.59"/><line style="stroke:#181818;stroke-width:1;" x1="178" x2="372" y1="216.59" y2="216.59"/><line style="stroke:#181818;stroke-width:1;" x1="372" x2="372" y1="216.59" y2="308.89"/><text fill="#000000" font-family="sans-serif" font-size="14" font-weight="bold" lengthAdjust="spacing" textLength="35.7041" x="258.1479" y="232.5851">DMZ</text></g><!--cluster Private Compute Cluster--><g class="cluster" data-entity="Private Compute Cluster" data-source-line="6" data-uid="ent0006" id="cluster_Private Compute Cluster"><polygon fill="none" points="44,367.89,54,357.89,403,357.89,403,598.98,393,608.98,44,608.98,44,367.89" style="stroke:#181818;stroke-width:1;"/><line style="stroke:#181818;stroke-width:1;" x1="393" x2="403" y1="367.89" y2="357.89"/><line style="stroke:#181818;stroke-width:1;" x1="44" x2="393" y1="367.89" y2="367.89"/><line style="stroke:#181818;stroke-width:1;" x1="393" x2="393" y1="367.89" y2="608.98"/><text fill="#000000" font-family="sans-serif" font-size="14" font-weight="bold" lengthAdjust="spacing" textLength="193.5938" x="122.7031" y="383.8851">Private Compute Cluster</text></g><!--cluster Data Persistence--><g class="cluster" data-entity="Data Persistence" data-source-line="16" data-uid="ent0015" id="cluster_Data Persistence"><polygon fill="none" points="616,517.18,626,507.18,826,507.18,826,598.48,816,608.48,616,608.48,616,517.18" style="stroke:#181818;stroke-width:1;"/><line style="stroke:#181818;stroke-width:1;" x1="816" x2="826" y1="517.18" y2="507.18"/><line style="stroke:#181818;stroke-width:1;" x1="616" x2="816" y1="517.18" y2="517.18"/><line style="stroke:#181818;stroke-width:1;" x1="816" x2="816" y1="517.18" y2="608.48"/><text fill="#000000" font-family="sans-serif" font-size="14" font-weight="bold" lengthAdjust="spacing" textLength="134.1553" x="649.9224" y="533.1751">Data Persistence</text></g><!--cluster Failure Handling--><g class="cluster" data-entity="Failure Handling" data-source-line="19" data-uid="ent0017" id="cluster_Failure Handling"><polygon fill="none" points="16,667.98,26,657.98,222,657.98,222,863.57,212,873.57,16,873.57,16,667.98" style="stroke:#181818;stroke-width:1;"/><line style="stroke:#181818;stroke-width:1;" x1="212" x2="222" y1="667.98" y2="657.98"/><line style="stroke:#181818;stroke-width:1;" x1="16" x2="212" y1="667.98" y2="667.98"/><line style="stroke:#181818;stroke-width:1;" x1="212" x2="212" y1="667.98" y2="873.57"/><text fill="#000000" font-family="sans-serif" font-size="14" font-weight="bold" lengthAdjust="spacing" textLength="130.5869" x="49.7065" y="683.9751">Failure Handling</text></g><!--entity receiver--><g class="entity" data-entity="receiver" data-source-line="4" data-uid="ent0005" id="entity_receiver"><polygon fill="#F1F1F1" points="194.45,256.59,204.45,246.59,365.5496,246.59,365.5496,282.8869,355.5496,292.8869,194.45,292.8869,194.45,256.59" style="stroke:#181818;stroke-width:0.5;"/><line style="stroke:#181818;stroke-width:0.5;" x1="355.5496" x2="365.5496" y1="256.59" y2="246.59"/><line style="stroke:#181818;stroke-width:0.5;" x1="194.45" x2="355.5496" y1="256.59" y2="256.59"/><line style="stroke:#181818;stroke-width:0.5;" x1="355.5496" x2="355.5496" y1="256.59" y2="292.8869"/><text fill="#000000" font-family="sans-serif" font-size="14" lengthAdjust="spacing" textLength="131.0996" x="209.45" y="279.5851">Webhook Receiver</text></g><!--entity processor--><g class="entity" data-entity="processor" data-source-line="7" data-uid="ent0007" id="entity_processor"><polygon fill="#F1F1F1" points="172.54,407.89,182.54,397.89,387.4648,397.89,387.4648,434.1869,377.4648,444.1869,172.54,444.1869,172.54,407.89" style="stroke:#181818;stroke-width:0.5;"/><line style="stroke:#181818;stroke-width:0.5;" x1="377.4648" x2="387.4648" y1="407.89" y2="397.89"/><line style="stroke:#181818;stroke-width:0.5;" x1="172.54" x2="377.4648" y1="407.89" y2="407.89"/><line style="stroke:#181818;stroke-width:0.5;" x1="377.4648" x2="377.4648" y1="407.89" y2="444.1869"/><text fill="#000000" font-family="sans-serif" font-size="14" lengthAdjust="spacing" textLength="174.9248" x="187.54" y="430.8851">Event Processor Workers</text></g><!--entity redis--><g class="entity" data-entity="redis" data-source-line="8" data-uid="ent0008" id="entity_redis"><polygon fill="#F1F1F1" points="246.79,556.68,256.79,546.68,387.2168,546.68,387.2168,582.9769,377.2168,592.9769,246.79,592.9769,246.79,556.68" style="stroke:#181818;stroke-width:0.5;"/><line style="stroke:#181818;stroke-width:0.5;" x1="377.2168" x2="387.2168" y1="556.68" y2="546.68"/><line style="stroke:#181818;stroke-width:0.5;" x1="246.79" x2="377.2168" y1="556.68" y2="556.68"/><line style="stroke:#181818;stroke-width:0.5;" x1="377.2168" x2="377.2168" y1="556.68" y2="592.9769"/><text fill="#000000" font-family="sans-serif" font-size="14" lengthAdjust="spacing" textLength="100.4268" x="261.79" y="579.6751">Redis Pub/Sub</text></g><!--entity broker--><g class="entity" data-entity="broker" data-source-line="9" data-uid="ent0009" id="entity_broker"><polygon fill="#F1F1F1" points="59.89,556.68,69.89,546.68,212.1019,546.68,212.1019,582.9769,202.1019,592.9769,59.89,592.9769,59.89,556.68" style="stroke:#181818;stroke-width:0.5;"/><line style="stroke:#181818;stroke-width:0.5;" x1="202.1019" x2="212.1019" y1="556.68" y2="546.68"/><line style="stroke:#181818;stroke-width:0.5;" x1="59.89" x2="202.1019" y1="556.68" y2="556.68"/><line style="stroke:#181818;stroke-width:0.5;" x1="202.1019" x2="202.1019" y1="556.68" y2="592.9769"/><text fill="#000000" font-family="sans-serif" font-size="14" lengthAdjust="spacing" textLength="112.2119" x="74.89" y="579.6751">Message Broker</text></g><!--entity timeseries--><g class="entity" data-entity="timeseries" data-source-line="17" data-uid="ent0016" id="entity_timeseries"><path d="M633.12,557.18 C633.12,547.18 706.0038,547.18 706.0038,547.18 C706.0038,547.18 778.8876,547.18 778.8876,557.18 L778.8876,582.4769 C778.8876,592.4769 706.0038,592.4769 706.0038,592.4769 C706.0038,592.4769 633.12,592.4769 633.12,582.4769 L633.12,557.18" fill="#F1F1F1" style="stroke:#181818;stroke-width:0.5;"/><path d="M633.12,557.18 C633.12,567.18 706.0038,567.18 706.0038,567.18 C706.0038,567.18 778.8876,567.18 778.8876,557.18" fill="none" style="stroke:#181818;stroke-width:0.5;"/><text fill="#000000" font-family="sans-serif" font-size="14" lengthAdjust="spacing" textLength="125.7676" x="643.12" y="584.1751">Time-Series Table</text></g><!--entity dlq--><g class="entity" data-entity="dlq" data-source-line="20" data-uid="ent0018" id="entity_dlq"><path d="M54.94,697.98 L199.0543,697.98 C204.0543,697.98 204.0543,711.1284 204.0543,711.1284 C204.0543,711.1284 204.0543,724.2769 199.0543,724.2769 L54.94,724.2769 C49.94,724.2769 49.94,711.1284 49.94,711.1284 C49.94,711.1284 49.94,697.98 54.94,697.98" fill="#F1F1F1" style="stroke:#181818;stroke-width:0.5;"/><path d="M199.0543,697.98 C194.0543,697.98 194.0543,711.1284 194.0543,711.1284 C194.0543,724.2769 199.0543,724.2769 199.0543,724.2769" fill="none" style="stroke:#181818;stroke-width:0.5;"/><text fill="#000000" font-family="sans-serif" font-size="14" lengthAdjust="spacing" textLength="134.1143" x="54.94" y="715.9751">Dead-Letter Queue</text></g><!--entity replay--><g class="entity" data-entity="replay" data-source-line="21" data-uid="ent0019" id="entity_replay"><polygon fill="#F1F1F1" points="49.82,821.28,59.82,811.28,200.1862,811.28,200.1862,847.5769,190.1862,857.5769,49.82,857.5769,49.82,821.28" style="stroke:#181818;stroke-width:0.5;"/><line style="stroke:#181818;stroke-width:0.5;" x1="190.1862" x2="200.1862" y1="821.28" y2="811.28"/><line style="stroke:#181818;stroke-width:0.5;" x1="49.82" x2="190.1862" y1="821.28" y2="821.28"/><line style="stroke:#181818;stroke-width:0.5;" x1="190.1862" x2="190.1862" y1="821.28" y2="857.5769"/><text fill="#000000" font-family="sans-serif" font-size="14" lengthAdjust="spacing" textLength="110.3662" x="64.82" y="844.2751">Replay Workers</text></g><!--entity external--><g class="entity" data-entity="external" data-source-line="1" data-uid="ent0002" id="entity_external"><polygon fill="#F1F1F1" points="134.63,16,144.63,6,425.3654,6,425.3654,42.2969,415.3654,52.2969,134.63,52.2969,134.63,16" style="stroke:#181818;stroke-width:0.5;"/><line style="stroke:#181818;stroke-width:0.5;" x1="415.3654" x2="425.3654" y1="16" y2="6"/><line style="stroke:#181818;stroke-width:0.5;" x1="134.63" x2="415.3654" y1="16" y2="16"/><line style="stroke:#181818;stroke-width:0.5;" x1="415.3654" x2="415.3654" y1="16" y2="52.2969"/><text fill="#000000" font-family="sans-serif" font-size="14" lengthAdjust="spacing" textLength="250.7354" x="149.63" y="38.9951">Delivery Partner Webhook Endpoint</text></g><!--entity internet--><g class="entity" data-entity="internet" data-source-line="2" data-uid="ent0003" id="entity_internet"><polygon fill="#F1F1F1" points="232.08,123.29,242.08,113.29,327.9159,113.29,327.9159,149.5869,317.9159,159.5869,232.08,159.5869,232.08,123.29" style="stroke:#181818;stroke-width:0.5;"/><line style="stroke:#181818;stroke-width:0.5;" x1="317.9159" x2="327.9159" y1="123.29" y2="113.29"/><line style="stroke:#181818;stroke-width:0.5;" x1="232.08" x2="317.9159" y1="123.29" y2="123.29"/><line style="stroke:#181818;stroke-width:0.5;" x1="317.9159" x2="317.9159" y1="123.29" y2="159.5869"/><text fill="#000000" font-family="sans-serif" font-size="14" lengthAdjust="spacing" textLength="55.8359" x="247.08" y="146.2851">Internet</text></g><!--entity lb--><g class="entity" data-entity="lb" data-source-line="11" data-uid="ent0010" id="entity_lb"><polygon fill="#F1F1F1" points="253.06,821.28,263.06,811.28,392.933,811.28,392.933,847.5769,382.933,857.5769,253.06,857.5769,253.06,821.28" style="stroke:#181818;stroke-width:0.5;"/><line style="stroke:#181818;stroke-width:0.5;" x1="382.933" x2="392.933" y1="821.28" y2="811.28"/><line style="stroke:#181818;stroke-width:0.5;" x1="253.06" x2="382.933" y1="821.28" y2="821.28"/><line style="stroke:#181818;stroke-width:0.5;" x1="382.933" x2="382.933" y1="821.28" y2="857.5769"/><text fill="#000000" font-family="sans-serif" font-size="14" lengthAdjust="spacing" textLength="99.873" x="268.06" y="844.2751">Load Balancer</text></g><!--entity gateway--><g class="entity" data-entity="gateway" data-source-line="12" data-uid="ent0011" id="entity_gateway"><polygon fill="#F1F1F1" points="238.63,697.98,248.63,687.98,407.3644,687.98,407.3644,724.2769,397.3644,734.2769,238.63,734.2769,238.63,697.98" style="stroke:#181818;stroke-width:0.5;"/><line style="stroke:#181818;stroke-width:0.5;" x1="397.3644" x2="407.3644" y1="697.98" y2="687.98"/><line style="stroke:#181818;stroke-width:0.5;" x1="238.63" x2="397.3644" y1="697.98" y2="697.98"/><line style="stroke:#181818;stroke-width:0.5;" x1="397.3644" x2="397.3644" y1="697.98" y2="734.2769"/><text fill="#000000" font-family="sans-serif" font-size="14" lengthAdjust="spacing" textLength="128.7344" x="253.63" y="720.9751">Realtime Gateway</text></g><!--entity clients--><g class="entity" data-entity="clients" data-source-line="13" data-uid="ent0012" id="entity_clients"><polygon fill="#F1F1F1" points="252.92,946.57,262.92,936.57,393.0733,936.57,393.0733,972.8669,383.0733,982.8669,252.92,982.8669,252.92,946.57" style="stroke:#181818;stroke-width:0.5;"/><line style="stroke:#181818;stroke-width:0.5;" x1="383.0733" x2="393.0733" y1="946.57" y2="936.57"/><line style="stroke:#181818;stroke-width:0.5;" x1="252.92" x2="383.0733" y1="946.57" y2="946.57"/><line style="stroke:#181818;stroke-width:0.5;" x1="383.0733" x2="383.0733" y1="946.57" y2="982.8669"/><text fill="#000000" font-family="sans-serif" font-size="14" lengthAdjust="spacing" textLength="100.1533" x="267.92" y="969.5651">Client Devices</text></g><!--entity notification--><g class="entity" data-entity="notification" data-source-line="14" data-uid="ent0013" id="entity_notification"><polygon fill="#F1F1F1" points="421.74,556.68,431.74,546.68,598.2605,546.68,598.2605,582.9769,588.2605,592.9769,421.74,592.9769,421.74,556.68" style="stroke:#181818;stroke-width:0.5;"/><line style="stroke:#181818;stroke-width:0.5;" x1="588.2605" x2="598.2605" y1="556.68" y2="546.68"/><line style="stroke:#181818;stroke-width:0.5;" x1="421.74" x2="588.2605" y1="556.68" y2="556.68"/><line style="stroke:#181818;stroke-width:0.5;" x1="588.2605" x2="588.2605" y1="556.68" y2="592.9769"/><text fill="#000000" font-family="sans-serif" font-size="14" lengthAdjust="spacing" textLength="136.5205" x="436.74" y="579.6751">Notification Service</text></g><!--entity apns_fcm--><g class="entity" data-entity="apns_fcm" data-source-line="15" data-uid="ent0014" id="entity_apns_fcm"><polygon fill="#F1F1F1" points="454.79,697.98,464.79,687.98,565.2002,687.98,565.2002,724.2769,555.2002,734.2769,454.79,734.2769,454.79,697.98" style="stroke:#181818;stroke-width:0.5;"/><line style="stroke:#181818;stroke-width:0.5;" x1="555.2002" x2="565.2002" y1="697.98" y2="687.98"/><line style="stroke:#181818;stroke-width:0.5;" x1="454.79" x2="555.2002" y1="697.98" y2="697.98"/><line style="stroke:#181818;stroke-width:0.5;" x1="555.2002" x2="555.2002" y1="697.98" y2="734.2769"/><text fill="#000000" font-family="sans-serif" font-size="14" lengthAdjust="spacing" textLength="70.4102" x="469.79" y="720.9751">APNs/FCM</text></g><!--link external to internet--><g class="link" data-entity-1="external" data-entity-2="internet" data-source-line="24" data-uid="lnk20" id="link_external_internet"><path d="M280,52.73 C280,70.5 280,89.13 280,106.89" fill="none" id="external-to-internet" style="stroke:#181818;stroke-width:1;"/><polygon fill="#181818" points="280,112.89,284,103.89,280,107.89,276,103.89,280,112.89" style="stroke:#181818;stroke-width:1;"/></g><!--link internet to receiver--><g class="link" data-entity-1="internet" data-entity-2="receiver" data-source-line="25" data-uid="lnk21" id="link_internet_receiver"><path d="M280,160.01 C280,184.21 280,216.38 280,240.46" fill="none" id="internet-to-receiver" style="stroke:#181818;stroke-width:1;"/><polygon fill="#181818" points="280,246.46,284,237.46,280,241.46,276,237.46,280,246.46" style="stroke:#181818;stroke-width:1;"/></g><!--link receiver to processor--><g class="link" data-entity-1="receiver" data-entity-2="processor" data-source-line="26" data-uid="lnk22" id="link_receiver_processor"><path d="M280,293.09 C280,321.23 280,363.31 280,391.53" fill="none" id="receiver-to-processor" style="stroke:#181818;stroke-width:1;"/><polygon fill="#181818" points="280,397.53,284,388.53,280,392.53,276,388.53,280,397.53" style="stroke:#181818;stroke-width:1;"/><text fill="#000000" font-family="sans-serif" font-size="13" lengthAdjust="spacing" textLength="128.978" x="281" y="337.9569">Validate &amp; Enqueue</text></g><!--link processor to redis--><g class="link" data-entity-1="processor" data-entity-2="redis" data-source-line="27" data-uid="lnk23" id="link_processor_redis"><path d="M285.7,444.65 C292.67,472.32 302.9454,513.0415 309.8854,540.6115" fill="none" id="processor-to-redis" style="stroke:#181818;stroke-width:1;"/><polygon fill="#181818" points="311.35,546.43,313.032,536.7258,310.1295,541.5813,305.274,538.6787,311.35,546.43" style="stroke:#181818;stroke-width:1;"/><text fill="#000000" font-family="sans-serif" font-size="13" lengthAdjust="spacing" textLength="103.5493" x="298.39" y="487.2469">Publish to Redis</text></g><!--link processor to broker--><g class="link" data-entity-1="processor" data-entity-2="broker" data-source-line="28" data-uid="lnk24" id="link_processor_broker"><path d="M207.75,444.64 C192.69,452.09 178.06,461.76 167,474.18 C148.95,494.46 142.2749,519.5271 139.1149,540.4771" fill="none" id="processor-to-broker" style="stroke:#181818;stroke-width:1;"/><polygon fill="#181818" points="138.22,546.41,143.5176,538.1073,138.9657,541.4659,135.6071,536.9141,138.22,546.41" style="stroke:#181818;stroke-width:1;"/><text fill="#000000" font-family="sans-serif" font-size="13" lengthAdjust="spacing" textLength="117.5459" x="168" y="487.2469">Fan-out Messages</text></g><!--link redis to gateway--><g class="link" data-entity-1="redis" data-entity-2="gateway" data-source-line="29" data-uid="lnk25" id="link_redis_gateway"><path d="M317.96,593.21 C319.08,619.21 320.6615,655.8356 321.7815,681.8056" fill="none" id="redis-to-gateway" style="stroke:#181818;stroke-width:1;"/><polygon fill="#181818" points="322.04,687.8,325.6485,678.636,321.8246,682.8046,317.6559,678.9807,322.04,687.8" style="stroke:#181818;stroke-width:1;"/><text fill="#000000" font-family="sans-serif" font-size="13" lengthAdjust="spacing" textLength="111.3569" x="321" y="638.0469">Channel Updates</text></g><!--link gateway to lb--><g class="link" data-entity-1="gateway" data-entity-2="lb" data-source-line="30" data-uid="lnk26" id="link_gateway_lb"><path d="M323,734.66 C323,756.45 323,783.27 323,805.01" fill="none" id="gateway-to-lb" style="stroke:#181818;stroke-width:1;"/><polygon fill="#181818" points="323,811.01,327,802.01,323,806.01,319,802.01,323,811.01" style="stroke:#181818;stroke-width:1;"/></g><!--link lb to clients--><g class="link" data-entity-1="lb" data-entity-2="clients" data-source-line="31" data-uid="lnk27" id="link_lb_clients"><path d="M323,858.04 C323,880.29 323,908.05 323,930.25" fill="none" id="lb-to-clients" style="stroke:#181818;stroke-width:1;"/><polygon fill="#181818" points="323,936.25,327,927.25,323,931.25,319,927.25,323,936.25" style="stroke:#181818;stroke-width:1;"/><text fill="#000000" font-family="sans-serif" font-size="13" lengthAdjust="spacing" textLength="149.2334" x="324" y="902.6369">Persistent Connections</text></g><!--link notification to apns_fcm--><g class="link" data-entity-1="notification" data-entity-2="apns_fcm" data-source-line="32" data-uid="lnk28" id="link_notification_apns_fcm"><path d="M510,593.21 C510,619.21 510,655.83 510,681.8" fill="none" id="notification-to-apns_fcm" style="stroke:#181818;stroke-width:1;"/><polygon fill="#181818" points="510,687.8,514,678.8,510,682.8,506,678.8,510,687.8" style="stroke:#181818;stroke-width:1;"/><text fill="#000000" font-family="sans-serif" font-size="13" lengthAdjust="spacing" textLength="116.5874" x="511" y="638.0469">Push Notifications</text></g><!--link processor to notification--><g class="link" data-entity-1="processor" data-entity-2="notification" data-source-line="33" data-uid="lnk29" id="link_processor_notification"><path d="M350.18,444.62 C370.27,452.54 391.67,462.44 410,474.18 C441.6,494.43 468.0402,520.9766 486.8702,541.9366" fill="none" id="processor-to-notification" style="stroke:#181818;stroke-width:1;"/><polygon fill="#181818" points="490.88,546.4,487.8409,537.0318,487.5385,542.6805,481.8897,542.3781,490.88,546.4" style="stroke:#181818;stroke-width:1;"/><text fill="#000000" font-family="sans-serif" font-size="13" lengthAdjust="spacing" textLength="159.6943" x="432.34" y="487.2469">Critical State Transitions</text></g><!--link processor to timeseries--><g class="link" data-entity-1="processor" data-entity-2="timeseries" data-source-line="34" data-uid="lnk30" id="link_processor_timeseries"><path d="M387.88,424.57 C452.16,429.66 533.83,442.61 600,474.18 C636.07,491.39 665.0029,520.1924 684.2729,542.3524" fill="none" id="processor-to-timeseries" style="stroke:#181818;stroke-width:1;"/><polygon fill="#181818" points="688.21,546.88,685.3227,537.4639,684.9291,543.107,679.2859,542.7134,688.21,546.88" style="stroke:#181818;stroke-width:1;"/><text fill="#000000" font-family="sans-serif" font-size="13" lengthAdjust="spacing" textLength="185.8403" x="627.58" y="487.2469">Store Tracking Breadcrumbs</text></g><!--link broker to dlq--><g class="link" data-entity-1="broker" data-entity-2="dlq" data-source-line="35" data-uid="lnk31" id="link_broker_dlq"><path d="M134.55,593.21 C132.64,622.9 129.7074,668.2825 128.1874,691.7725" fill="none" id="broker-to-dlq" style="stroke:#181818;stroke-width:1;"/><polygon fill="#181818" points="127.8,697.76,132.3728,689.0371,128.1229,692.7704,124.3895,688.5205,127.8,697.76" style="stroke:#181818;stroke-width:1;"/><text fill="#000000" font-family="sans-serif" font-size="13" lengthAdjust="spacing" textLength="77.5239" x="133.31" y="638.0469">Failure Path</text></g><!--link dlq to replay--><g class="link" data-entity-1="dlq" data-entity-2="replay" data-source-line="36" data-uid="lnk32" id="link_dlq_replay"><path d="M126.79,724.65 C126.46,744.99 125.8891,779.4808 125.4691,804.9108" fill="none" id="dlq-to-replay" style="stroke:#181818;stroke-width:1;"/><polygon fill="#181818" points="125.37,810.91,129.5181,801.9773,125.4526,805.9107,121.5192,801.8452,125.37,810.91" style="stroke:#181818;stroke-width:1;"/><text fill="#000000" font-family="sans-serif" font-size="13" lengthAdjust="spacing" textLength="112.436" x="127.12" y="777.3469">Replay Messages</text></g><!--SRC=[RLF1Rjim3BtxAuWSTWjwxs70cZJRWARmccm3TXbecqs4A98hoTc2OVy-afATTDif4laUzSptudn7C5kIDISAPwWn94S1lbApz_u0zwxhlN5f1XY1VYOA3ctbbFJHoPLopvHBwItNtsRmgmB8rt7S4xKa3oabb4lrkv3gO4wO21R-s0_oQuUO17mPT7yYbw0ElgKOFUlquK0Xwhn-h4xe9-fCX7feRZP3KzxaojHVCnnt17V17ugeHe-Jf0UF7ToXHTSMW6sgSJZQP8u4xrdp3pnhTvVF1RAmHkGkwMHOcG9QBSK2UFJ9F9iMa_4EDXG4fp1trIZOT_LZl5ajrjh7tiNlp-rnN3ScX9eNONXXJcR8oZgkDXYvlsMTSvvlAC8M6viV4VLHYzFthj3O8H1yGDTPutPvqCj0WwO4k_a39VO4Fab9ftJsvMhXlSNpArU2blY1QemFpETlBtaP3rgT8Z4Uj3eP2xSm-uBMT9AIDnnE5JQhBe0yH5ndA1jlJTn3yg19-1kOlHRa2jtS3mbA81YPXmYgM2gmnHwT8mkVUr70gB4dE0w6RVHKF5O9eoU9KytSLWnbuhM_oXaDpRfPz7Kq_b7-YYx2WabyjR19iffjG1VDVvaNpuMtIJuel3smsVm_O8VRC1mRvfNj28ajpblAuQWnxMUL5FEwrVFRoVrfYNy0]--></g></svg>