<svg xmlns="http://www.w3.org/2000/svg" xmlns:xlink="http://www.w3.org/1999/xlink" contentStyleType="text/css" data-diagram-type="ACTIVITY" height="996px" preserveAspectRatio="none" style="width:633px;height:996px;background:#FFFFFF;" version="1.1" viewBox="0 0 633 996" width="633px" zoomAndPan="magnify"><defs/><g><ellipse cx="400.5376" cy="20" fill="#222222" rx="10" ry="10" style="stroke:#222222;stroke-width:1;"/><rect fill="#F1F1F1" height="33.9688" rx="12.5" ry="12.5" style="stroke:#181818;stroke-width:0.5;" width="133.9004" x="333.5874" y="50"/><text fill="#000000" font-family="sans-serif" font-size="12" lengthAdjust="spacing" textLength="113.9004" x="343.5874" y="71.1387">New records arrive</text><polygon fill="#F1F1F1" points="378.6074,103.9688,422.4678,103.9688,434.4678,115.9688,422.4678,127.9688,378.6074,127.9688,366.6074,115.9688,378.6074,103.9688" style="stroke:#181818;stroke-width:0.5;"/><text fill="#000000" font-family="sans-serif" font-size="11" lengthAdjust="spacing" textLength="43.8604" x="378.6074" y="119.7769">Source?</text><text fill="#000000" font-family="sans-serif" font-size="11" lengthAdjust="spacing" textLength="62.4658" x="304.1416" y="113.3745">Connectors</text><text fill="#000000" font-family="sans-serif" font-size="11" lengthAdjust="spacing" textLength="67.9229" x="434.4678" y="113.3745">CSV Imports</text><rect fill="#F1F1F1" height="33.9688" rx="12.5" ry="12.5" style="stroke:#181818;stroke-width:0.5;" width="211.9121" x="178.6255" y="137.9688"/><text fill="#000000" font-family="sans-serif" font-size="12" lengthAdjust="spacing" textLength="191.9121" x="188.6255" y="159.1074">Pass through schema validation</text><rect fill="#F1F1F1" height="33.9688" rx="12.5" ry="12.5" style="stroke:#181818;stroke-width:0.5;" width="211.9121" x="410.5376" y="137.9688"/><text fill="#000000" font-family="sans-serif" font-size="12" lengthAdjust="spacing" textLength="191.9121" x="420.5376" y="159.1074">Pass through schema validation</text><polygon fill="#F1F1F1" points="400.5376,177.9375,412.5376,189.9375,400.5376,201.9375,388.5376,189.9375,400.5376,177.9375" style="stroke:#181818;stroke-width:0.5;"/><rect fill="#F1F1F1" height="33.9688" rx="12.5" ry="12.5" style="stroke:#181818;stroke-width:0.5;" width="143.5625" x="328.7563" y="221.9375"/><text fill="#000000" font-family="sans-serif" font-size="12" lengthAdjust="spacing" textLength="123.5625" x="338.7563" y="243.0762">Perform type checks</text><rect fill="#F1F1F1" height="33.9688" rx="12.5" ry="12.5" style="stroke:#181818;stroke-width:0.5;" width="369.7813" x="215.647" y="275.9063"/><text fill="#000000" font-family="sans-serif" font-size="12" lengthAdjust="spacing" textLength="349.7813" x="225.647" y="297.0449">Compute hashes (platformId+timestamp or content hash)</text><polygon fill="#F1F1F1" points="371.4155,329.875,429.6597,329.875,441.6597,341.875,429.6597,353.875,371.4155,353.875,359.4155,341.875,371.4155,329.875" style="stroke:#181818;stroke-width:0.5;"/><text fill="#000000" font-family="sans-serif" font-size="11" lengthAdjust="spacing" textLength="58.2441" x="371.4155" y="345.6831">Duplicate?</text><text fill="#000000" font-family="sans-serif" font-size="11" lengthAdjust="spacing" textLength="19.2178" x="340.1978" y="339.2808">Yes</text><text fill="#000000" font-family="sans-serif" font-size="11" lengthAdjust="spacing" textLength="14.9585" x="441.6597" y="339.2808">No</text><polygon fill="#F1F1F1" points="211.7698,363.875,318.9822,363.875,330.9822,375.875,318.9822,387.875,211.7698,387.875,199.7698,375.875,211.7698,363.875" style="stroke:#181818;stroke-width:0.5;"/><text fill="#000000" font-family="sans-serif" font-size="11" lengthAdjust="spacing" textLength="107.2124" x="211.7698" y="379.6831">Uncertain collision?</text><text fill="#000000" font-family="sans-serif" font-size="11" lengthAdjust="spacing" textLength="19.2178" x="180.552" y="373.2808">Yes</text><text fill="#000000" font-family="sans-serif" font-size="11" lengthAdjust="spacing" textLength="14.9585" x="330.9822" y="373.2808">No</text><rect fill="#F1F1F1" height="33.9688" rx="12.5" ry="12.5" style="stroke:#181818;stroke-width:0.5;" width="287.5859" x="11" y="397.875"/><text fill="#000000" font-family="sans-serif" font-size="12" lengthAdjust="spacing" textLength="267.5859" x="21" y="419.0137">Route to quarantine table for manual review</text><rect fill="#F1F1F1" height="33.9688" rx="12.5" ry="12.5" style="stroke:#181818;stroke-width:0.5;" width="114.7461" x="318.5859" y="397.875"/><text fill="#000000" font-family="sans-serif" font-size="12" lengthAdjust="spacing" textLength="94.7461" x="328.5859" y="419.0137">Drop duplicates</text><polygon fill="#F1F1F1" points="265.376,437.8438,277.376,449.8438,265.376,461.8438,253.376,449.8438,265.376,437.8438" style="stroke:#181818;stroke-width:0.5;"/><rect fill="#F1F1F1" height="33.9688" rx="12.5" ry="12.5" style="stroke:#181818;stroke-width:0.5;" width="144.7344" x="463.332" y="363.875"/><text fill="#000000" font-family="sans-serif" font-size="12" lengthAdjust="spacing" textLength="124.7344" x="473.332" y="385.0137">Proceed to next step</text><polygon fill="#F1F1F1" points="400.5376,467.8438,412.5376,479.8438,400.5376,491.8438,388.5376,479.8438,400.5376,467.8438" style="stroke:#181818;stroke-width:0.5;"/><rect fill="#F1F1F1" height="33.9688" rx="12.5" ry="12.5" style="stroke:#181818;stroke-width:0.5;" width="380.3105" x="210.3823" y="511.8438"/><text fill="#000000" font-family="sans-serif" font-size="12" lengthAdjust="spacing" textLength="360.3105" x="220.3823" y="532.9824">Enforce rule-based validation for KPIs and timestamp sanity</text><polygon fill="#F1F1F1" points="348.8167,565.8125,452.2585,565.8125,464.2585,577.8125,452.2585,589.8125,348.8167,589.8125,336.8167,577.8125,348.8167,565.8125" style="stroke:#181818;stroke-width:0.5;"/><text fill="#000000" font-family="sans-serif" font-size="11" lengthAdjust="spacing" textLength="103.4419" x="348.8167" y="581.6206">Validation passed?</text><text fill="#000000" font-family="sans-serif" font-size="11" lengthAdjust="spacing" textLength="19.2178" x="317.5989" y="575.2183">Yes</text><text fill="#000000" font-family="sans-serif" font-size="11" lengthAdjust="spacing" textLength="14.9585" x="464.2585" y="575.2183">No</text><rect fill="#F1F1F1" height="33.9688" rx="12.5" ry="12.5" style="stroke:#181818;stroke-width:0.5;" width="126.6055" x="242.7476" y="599.8125"/><text fill="#000000" font-family="sans-serif" font-size="12" lengthAdjust="spacing" textLength="106.6055" x="252.7476" y="620.9512">Log clean records</text><rect fill="#F1F1F1" height="33.9688" rx="12.5" ry="12.5" style="stroke:#181818;stroke-width:0.5;" width="211.3438" x="389.353" y="599.8125"/><text fill="#000000" font-family="sans-serif" font-size="12" lengthAdjust="spacing" textLength="191.3438" x="399.353" y="620.9512">Log failing records with reasons</text><polygon fill="#F1F1F1" points="400.5376,639.7813,412.5376,651.7813,400.5376,663.7813,388.5376,651.7813,400.5376,639.7813" style="stroke:#181818;stroke-width:0.5;"/><rect fill="#F1F1F1" height="33.9688" rx="12.5" ry="12.5" style="stroke:#181818;stroke-width:0.5;" width="427.0977" x="186.9888" y="683.7813"/><text fill="#000000" font-family="sans-serif" font-size="12" lengthAdjust="spacing" textLength="407.0977" x="196.9888" y="704.9199">Enrich records with identifiers, language tags, and sector mappings</text><rect fill="#F1F1F1" height="33.9688" rx="12.5" ry="12.5" style="stroke:#181818;stroke-width:0.5;" width="173.4688" x="313.8032" y="737.75"/><text fill="#000000" font-family="sans-serif" font-size="12" lengthAdjust="spacing" textLength="153.4688" x="323.8032" y="758.8887">Commit to curated tables</text><rect fill="#F1F1F1" height="33.9688" rx="12.5" ry="12.5" style="stroke:#181818;stroke-width:0.5;" width="296.0586" x="252.5083" y="791.7188"/><text fill="#000000" font-family="sans-serif" font-size="12" lengthAdjust="spacing" textLength="276.0586" x="262.5083" y="812.8574">Emit metrics for data quality scores per batch</text><polygon fill="#F1F1F1" points="332.1797,845.6875,468.8955,845.6875,480.8955,857.6875,468.8955,869.6875,332.1797,869.6875,320.1797,857.6875,332.1797,845.6875" style="stroke:#181818;stroke-width:0.5;"/><text fill="#000000" font-family="sans-serif" font-size="11" lengthAdjust="spacing" textLength="136.7158" x="332.1797" y="861.4956">Quality below threshold?</text><text fill="#000000" font-family="sans-serif" font-size="11" lengthAdjust="spacing" textLength="19.2178" x="300.9619" y="855.0933">Yes</text><text fill="#000000" font-family="sans-serif" font-size="11" lengthAdjust="spacing" textLength="14.9585" x="480.8955" y="855.0933">No</text><rect fill="#F1F1F1" height="33.9688" rx="12.5" ry="12.5" style="stroke:#181818;stroke-width:0.5;" width="90.4355" x="264.9619" y="879.6875"/><text fill="#000000" font-family="sans-serif" font-size="12" lengthAdjust="spacing" textLength="70.4355" x="274.9619" y="900.8262">Raise alerts</text><rect fill="#F1F1F1" height="33.9688" rx="12.5" ry="12.5" style="stroke:#181818;stroke-width:0.5;" width="143.2813" x="419.2549" y="879.6875"/><text fill="#000000" font-family="sans-serif" font-size="12" lengthAdjust="spacing" textLength="123.2813" x="429.2549" y="900.8262">Continue monitoring</text><polygon fill="#F1F1F1" points="400.5376,919.6563,412.5376,931.6563,400.5376,943.6563,388.5376,931.6563,400.5376,919.6563" style="stroke:#181818;stroke-width:0.5;"/><ellipse cx="400.5376" cy="974.6563" fill="none" rx="11" ry="11" style="stroke:#222222;stroke-width:1;"/><ellipse cx="400.5376" cy="974.6563" fill="#222222" rx="6" ry="6" style="stroke:#222222;stroke-width:1;"/><line style="stroke:#181818;stroke-width:1;" x1="400.5376" x2="400.5376" y1="30" y2="50"/><polygon fill="#181818" points="396.5376,40,400.5376,50,404.5376,40,400.5376,44" style="stroke:#181818;stroke-width:1;"/><line style="stroke:#181818;stroke-width:1;" x1="366.6074" x2="284.5815" y1="115.9688" y2="115.9688"/><line style="stroke:#181818;stroke-width:1;" x1="284.5815" x2="284.5815" y1="115.9688" y2="137.9688"/><polygon fill="#181818" points="280.5815,127.9688,284.5815,137.9688,288.5815,127.9688,284.5815,131.9688" style="stroke:#181818;stroke-width:1;"/><line style="stroke:#181818;stroke-width:1;" x1="434.4678" x2="516.4937" y1="115.9688" y2="115.9688"/><line style="stroke:#181818;stroke-width:1;" x1="516.4937" x2="516.4937" y1="115.9688" y2="137.9688"/><polygon fill="#181818" points="512.4937,127.9688,516.4937,137.9688,520.4937,127.9688,516.4937,131.9688" style="stroke:#181818;stroke-width:1;"/><line style="stroke:#181818;stroke-width:1;" x1="284.5815" x2="284.5815" y1="171.9375" y2="189.9375"/><line style="stroke:#181818;stroke-width:1;" x1="284.5815" x2="388.5376" y1="189.9375" y2="189.9375"/><polygon fill="#181818" points="378.5376,185.9375,388.5376,189.9375,378.5376,193.9375,382.5376,189.9375" style="stroke:#181818;stroke-width:1;"/><line style="stroke:#181818;stroke-width:1;" x1="516.4937" x2="516.4937" y1="171.9375" y2="189.9375"/><line style="stroke:#181818;stroke-width:1;" x1="516.4937" x2="412.5376" y1="189.9375" y2="189.9375"/><polygon fill="#181818" points="422.5376,185.9375,412.5376,189.9375,422.5376,193.9375,418.5376,189.9375" style="stroke:#181818;stroke-width:1;"/><line style="stroke:#181818;stroke-width:1;" x1="400.5376" x2="400.5376" y1="83.9688" y2="103.9688"/><polygon fill="#181818" points="396.5376,93.9688,400.5376,103.9688,404.5376,93.9688,400.5376,97.9688" style="stroke:#181818;stroke-width:1;"/><line style="stroke:#181818;stroke-width:1;" x1="400.5376" x2="400.5376" y1="201.9375" y2="221.9375"/><polygon fill="#181818" points="396.5376,211.9375,400.5376,221.9375,404.5376,211.9375,400.5376,215.9375" style="stroke:#181818;stroke-width:1;"/><line style="stroke:#181818;stroke-width:1;" x1="400.5376" x2="400.5376" y1="255.9063" y2="275.9063"/><polygon fill="#181818" points="396.5376,265.9063,400.5376,275.9063,404.5376,265.9063,400.5376,269.9063" style="stroke:#181818;stroke-width:1;"/><line style="stroke:#181818;stroke-width:1;" x1="199.7698" x2="154.793" y1="375.875" y2="375.875"/><line style="stroke:#181818;stroke-width:1;" x1="154.793" x2="154.793" y1="375.875" y2="397.875"/><polygon fill="#181818" points="150.793,387.875,154.793,397.875,158.793,387.875,154.793,391.875" style="stroke:#181818;stroke-width:1;"/><line style="stroke:#181818;stroke-width:1;" x1="330.9822" x2="375.959" y1="375.875" y2="375.875"/><line style="stroke:#181818;stroke-width:1;" x1="375.959" x2="375.959" y1="375.875" y2="397.875"/><polygon fill="#181818" points="371.959,387.875,375.959,397.875,379.959,387.875,375.959,391.875" style="stroke:#181818;stroke-width:1;"/><line style="stroke:#181818;stroke-width:1;" x1="154.793" x2="154.793" y1="431.8438" y2="449.8438"/><line style="stroke:#181818;stroke-width:1;" x1="154.793" x2="253.376" y1="449.8438" y2="449.8438"/><polygon fill="#181818" points="243.376,445.8438,253.376,449.8438,243.376,453.8438,247.376,449.8438" style="stroke:#181818;stroke-width:1;"/><line style="stroke:#181818;stroke-width:1;" x1="375.959" x2="375.959" y1="431.8438" y2="449.8438"/><line style="stroke:#181818;stroke-width:1;" x1="375.959" x2="277.376" y1="449.8438" y2="449.8438"/><polygon fill="#181818" points="287.376,445.8438,277.376,449.8438,287.376,453.8438,283.376,449.8438" style="stroke:#181818;stroke-width:1;"/><line style="stroke:#181818;stroke-width:1;" x1="359.4155" x2="265.376" y1="341.875" y2="341.875"/><line style="stroke:#181818;stroke-width:1;" x1="265.376" x2="265.376" y1="341.875" y2="363.875"/><polygon fill="#181818" points="261.376,353.875,265.376,363.875,269.376,353.875,265.376,357.875" style="stroke:#181818;stroke-width:1;"/><line style="stroke:#181818;stroke-width:1;" x1="441.6597" x2="535.6992" y1="341.875" y2="341.875"/><line style="stroke:#181818;stroke-width:1;" x1="535.6992" x2="535.6992" y1="341.875" y2="363.875"/><polygon fill="#181818" points="531.6992,353.875,535.6992,363.875,539.6992,353.875,535.6992,357.875" style="stroke:#181818;stroke-width:1;"/><line style="stroke:#181818;stroke-width:1;" x1="265.376" x2="265.376" y1="461.8438" y2="479.8438"/><line style="stroke:#181818;stroke-width:1;" x1="265.376" x2="388.5376" y1="479.8438" y2="479.8438"/><polygon fill="#181818" points="378.5376,475.8438,388.5376,479.8438,378.5376,483.8438,382.5376,479.8438" style="stroke:#181818;stroke-width:1;"/><line style="stroke:#181818;stroke-width:1;" x1="535.6992" x2="535.6992" y1="397.8438" y2="479.8438"/><line style="stroke:#181818;stroke-width:1;" x1="535.6992" x2="412.5376" y1="479.8438" y2="479.8438"/><polygon fill="#181818" points="422.5376,475.8438,412.5376,479.8438,422.5376,483.8438,418.5376,479.8438" style="stroke:#181818;stroke-width:1;"/><line style="stroke:#181818;stroke-width:1;" x1="400.5376" x2="400.5376" y1="309.875" y2="329.875"/><polygon fill="#181818" points="396.5376,319.875,400.5376,329.875,404.5376,319.875,400.5376,323.875" style="stroke:#181818;stroke-width:1;"/><line style="stroke:#181818;stroke-width:1;" x1="400.5376" x2="400.5376" y1="491.8438" y2="511.8438"/><polygon fill="#181818" points="396.5376,501.8438,400.5376,511.8438,404.5376,501.8438,400.5376,505.8438" style="stroke:#181818;stroke-width:1;"/><line style="stroke:#181818;stroke-width:1;" x1="336.8167" x2="306.0503" y1="577.8125" y2="577.8125"/><line style="stroke:#181818;stroke-width:1;" x1="306.0503" x2="306.0503" y1="577.8125" y2="599.8125"/><polygon fill="#181818" points="302.0503,589.8125,306.0503,599.8125,310.0503,589.8125,306.0503,593.8125" style="stroke:#181818;stroke-width:1;"/><line style="stroke:#181818;stroke-width:1;" x1="464.2585" x2="495.0249" y1="577.8125" y2="577.8125"/><line style="stroke:#181818;stroke-width:1;" x1="495.0249" x2="495.0249" y1="577.8125" y2="599.8125"/><polygon fill="#181818" points="491.0249,589.8125,495.0249,599.8125,499.0249,589.8125,495.0249,593.8125" style="stroke:#181818;stroke-width:1;"/><line style="stroke:#181818;stroke-width:1;" x1="306.0503" x2="306.0503" y1="633.7813" y2="651.7813"/><line style="stroke:#181818;stroke-width:1;" x1="306.0503" x2="388.5376" y1="651.7813" y2="651.7813"/><polygon fill="#181818" points="378.5376,647.7813,388.5376,651.7813,378.5376,655.7813,382.5376,651.7813" style="stroke:#181818;stroke-width:1;"/><line style="stroke:#181818;stroke-width:1;" x1="495.0249" x2="495.0249" y1="633.7813" y2="651.7813"/><line style="stroke:#181818;stroke-width:1;" x1="495.0249" x2="412.5376" y1="651.7813" y2="651.7813"/><polygon fill="#181818" points="422.5376,647.7813,412.5376,651.7813,422.5376,655.7813,418.5376,651.7813" style="stroke:#181818;stroke-width:1;"/><line style="stroke:#181818;stroke-width:1;" x1="400.5376" x2="400.5376" y1="545.8125" y2="565.8125"/><polygon fill="#181818" points="396.5376,555.8125,400.5376,565.8125,404.5376,555.8125,400.5376,559.8125" style="stroke:#181818;stroke-width:1;"/><line style="stroke:#181818;stroke-width:1;" x1="400.5376" x2="400.5376" y1="663.7813" y2="683.7813"/><polygon fill="#181818" points="396.5376,673.7813,400.5376,683.7813,404.5376,673.7813,400.5376,677.7813" style="stroke:#181818;stroke-width:1;"/><line style="stroke:#181818;stroke-width:1;" x1="400.5376" x2="400.5376" y1="717.75" y2="737.75"/><polygon fill="#181818" points="396.5376,727.75,400.5376,737.75,404.5376,727.75,400.5376,731.75" style="stroke:#181818;stroke-width:1;"/><line style="stroke:#181818;stroke-width:1;" x1="400.5376" x2="400.5376" y1="771.7188" y2="791.7188"/><polygon fill="#181818" points="396.5376,781.7188,400.5376,791.7188,404.5376,781.7188,400.5376,785.7188" style="stroke:#181818;stroke-width:1;"/><line style="stroke:#181818;stroke-width:1;" x1="320.1797" x2="310.1797" y1="857.6875" y2="857.6875"/><line style="stroke:#181818;stroke-width:1;" x1="310.1797" x2="310.1797" y1="857.6875" y2="879.6875"/><polygon fill="#181818" points="306.1797,869.6875,310.1797,879.6875,314.1797,869.6875,310.1797,873.6875" style="stroke:#181818;stroke-width:1;"/><line style="stroke:#181818;stroke-width:1;" x1="480.8955" x2="490.8955" y1="857.6875" y2="857.6875"/><line style="stroke:#181818;stroke-width:1;" x1="490.8955" x2="490.8955" y1="857.6875" y2="879.6875"/><polygon fill="#181818" points="486.8955,869.6875,490.8955,879.6875,494.8955,869.6875,490.8955,873.6875" style="stroke:#181818;stroke-width:1;"/><line style="stroke:#181818;stroke-width:1;" x1="310.1797" x2="310.1797" y1="913.6563" y2="931.6563"/><line style="stroke:#181818;stroke-width:1;" x1="310.1797" x2="388.5376" y1="931.6563" y2="931.6563"/><polygon fill="#181818" points="378.5376,927.6563,388.5376,931.6563,378.5376,935.6563,382.5376,931.6563" style="stroke:#181818;stroke-width:1;"/><line style="stroke:#181818;stroke-width:1;" x1="490.8955" x2="490.8955" y1="913.6563" y2="931.6563"/><line style="stroke:#181818;stroke-width:1;" x1="490.8955" x2="412.5376" y1="931.6563" y2="931.6563"/><polygon fill="#181818" points="422.5376,927.6563,412.5376,931.6563,422.5376,935.6563,418.5376,931.6563" style="stroke:#181818;stroke-width:1;"/><line style="stroke:#181818;stroke-width:1;" x1="400.5376" x2="400.5376" y1="825.6875" y2="845.6875"/><polygon fill="#181818" points="396.5376,835.6875,400.5376,845.6875,404.5376,835.6875,400.5376,839.6875" style="stroke:#181818;stroke-width:1;"/><line style="stroke:#181818;stroke-width:1;" x1="400.5376" x2="400.5376" y1="943.6563" y2="963.6563"/><polygon fill="#181818" points="396.5376,953.6563,400.5376,963.6563,404.5376,953.6563,400.5376,957.6563" style="stroke:#181818;stroke-width:1;"/><!--SRC=[ZPEnRjj038PtFmL76srVm1eo91cC1e6Re04wqYTQElHql92KtRnzUL9i9-xIySIVvlz_fDLGRB5OFz8HX09Bgu0YyK3D8kvX-SoZ1BfPWVMKONdBELCm5bqj0DPRLFMAyDZreA6d0U60ARPeaNEpeAJaJSyli1aAY_rdLsxZtZrjIVOi0zXR8N1P-AsDVxxbeOn6qAFsfB0i2QtgDkqNYmEfuL201G9desoJRZMdkHjBYW7j4kWNJPvgyMSE98OnUsTAKTtBjSpDFt6TRGol8mfcYzbVk4i4xW46p2Cc9tc8T6oyOoRmoE_TTy85sfCBdHHJse-wzLOu4BLrIgO_1cfKBbZkiqyA138c-hP3TU65tkJY-tRZMyp-0sSUYZdQsqpXvQ8klWfghsEk7xY3a0ZpwIQQpmPhVOynnToTh-OOhVS7AcVzQ5PYw3-BOkjhYVj8ebyXOUv6x2h4pf_LjKuNvYnByG6ddG_HAf0mYfDhP-PJxRvM1Z8Vf5DypuPrFSaJ-tsn-9KK4jYXXNv6yEEzkgF4ntgBf3sdVq4yOVJOcFmmhXduNy6NFn8Cx6XPtEevjXgNlm00]--></g></svg>