<svg xmlns="http://www.w3.org/2000/svg" xmlns:xlink="http://www.w3.org/1999/xlink" contentStyleType="text/css" data-diagram-type="ACTIVITY" height="510px" preserveAspectRatio="none" style="width:397px;height:510px;background:#FFFFFF;" version="1.1" viewBox="0 0 397 510" width="397px" zoomAndPan="magnify"><defs/><g><ellipse cx="177.8794" cy="20" fill="#222222" rx="10" ry="10" style="stroke:#222222;stroke-width:1;"/><rect fill="#F1F1F1" height="33.9688" rx="12.5" ry="12.5" style="stroke:#181818;stroke-width:0.5;" width="102.1777" x="126.7905" y="50"/><text fill="#000000" font-family="sans-serif" font-size="12" lengthAdjust="spacing" textLength="82.1777" x="136.7905" y="71.1387">Load Banners</text><rect fill="#F1F1F1" height="33.9688" rx="12.5" ry="12.5" style="stroke:#181818;stroke-width:0.5;" width="111.1602" x="122.2993" y="147.9688"/><text fill="#000000" font-family="sans-serif" font-size="12" lengthAdjust="spacing" textLength="91.1602" x="132.2993" y="169.1074">Display Banner</text><polygon fill="#F1F1F1" points="113.4773,271.7388,242.2815,271.7388,254.2815,283.7388,242.2815,295.7388,113.4773,295.7388,101.4773,283.7388,113.4773,271.7388" style="stroke:#181818;stroke-width:0.5;"/><text fill="#000000" font-family="sans-serif" font-size="11" lengthAdjust="spacing" textLength="128.8042" x="113.4773" y="287.5469">Is Target a Restaurant?</text><text fill="#000000" font-family="sans-serif" font-size="11" lengthAdjust="spacing" textLength="19.0083" x="82.469" y="281.1445">yes</text><text fill="#000000" font-family="sans-serif" font-size="11" lengthAdjust="spacing" textLength="13.7017" x="254.2815" y="281.1445">no</text><rect fill="#F1F1F1" height="33.9688" rx="12.5" ry="12.5" style="stroke:#181818;stroke-width:0.5;" width="159.7344" x="11" y="305.7388"/><text fill="#000000" font-family="sans-serif" font-size="12" lengthAdjust="spacing" textLength="139.7344" x="21" y="326.8774">Navigate to Restaurant</text><rect fill="#F1F1F1" height="33.9688" rx="12.5" ry="12.5" style="stroke:#181818;stroke-width:0.5;" width="148.3145" x="190.7344" y="305.7388"/><text fill="#000000" font-family="sans-serif" font-size="12" lengthAdjust="spacing" textLength="128.3145" x="200.7344" y="326.8774">Navigate to Category</text><polygon fill="#F1F1F1" points="177.8794,345.7075,189.8794,357.7075,177.8794,369.7075,165.8794,357.7075,177.8794,345.7075" style="stroke:#181818;stroke-width:0.5;"/><polygon fill="#F1F1F1" points="123.1963,223.3364,232.5625,223.3364,244.5625,235.3364,232.5625,247.3364,123.1963,247.3364,111.1963,235.3364,123.1963,223.3364" style="stroke:#181818;stroke-width:0.5;"/><text fill="#000000" font-family="sans-serif" font-size="11" lengthAdjust="spacing" textLength="49.5483" x="181.8794" y="257.5469">Log Click</text><text fill="#000000" font-family="sans-serif" font-size="11" lengthAdjust="spacing" textLength="109.3662" x="123.1963" y="239.1445">User Clicks Banner?</text><polygon fill="#F1F1F1" points="177.8794,389.7075,189.8794,401.7075,177.8794,413.7075,165.8794,401.7075,177.8794,389.7075" style="stroke:#181818;stroke-width:0.5;"/><polygon fill="#F1F1F1" points="177.8794,103.9688,189.8794,115.9688,177.8794,127.9688,165.8794,115.9688,177.8794,103.9688" style="stroke:#181818;stroke-width:0.5;"/><polygon fill="#F1F1F1" points="136.8308,433.7075,218.928,433.7075,230.928,445.7075,218.928,457.7075,136.8308,457.7075,124.8308,445.7075,136.8308,433.7075" style="stroke:#181818;stroke-width:0.5;"/><text fill="#000000" font-family="sans-serif" font-size="11" lengthAdjust="spacing" textLength="82.0972" x="136.8308" y="449.5156">More Banners?</text><ellipse cx="177.8794" cy="488.7075" fill="none" rx="11" ry="11" style="stroke:#222222;stroke-width:1;"/><ellipse cx="177.8794" cy="488.7075" fill="#222222" rx="6" ry="6" style="stroke:#222222;stroke-width:1;"/><line style="stroke:#181818;stroke-width:1;" x1="177.8794" x2="177.8794" y1="30" y2="50"/><polygon fill="#181818" points="173.8794,40,177.8794,50,181.8794,40,177.8794,44" style="stroke:#181818;stroke-width:1;"/><line style="stroke:#181818;stroke-width:1;" x1="101.4773" x2="90.8672" y1="283.7388" y2="283.7388"/><line style="stroke:#181818;stroke-width:1;" x1="90.8672" x2="90.8672" y1="283.7388" y2="305.7388"/><polygon fill="#181818" points="86.8672,295.7388,90.8672,305.7388,94.8672,295.7388,90.8672,299.7388" style="stroke:#181818;stroke-width:1;"/><line style="stroke:#181818;stroke-width:1;" x1="254.2815" x2="264.8916" y1="283.7388" y2="283.7388"/><line style="stroke:#181818;stroke-width:1;" x1="264.8916" x2="264.8916" y1="283.7388" y2="305.7388"/><polygon fill="#181818" points="260.8916,295.7388,264.8916,305.7388,268.8916,295.7388,264.8916,299.7388" style="stroke:#181818;stroke-width:1;"/><line style="stroke:#181818;stroke-width:1;" x1="90.8672" x2="90.8672" y1="339.7075" y2="357.7075"/><line style="stroke:#181818;stroke-width:1;" x1="90.8672" x2="165.8794" y1="357.7075" y2="357.7075"/><polygon fill="#181818" points="155.8794,353.7075,165.8794,357.7075,155.8794,361.7075,159.8794,357.7075" style="stroke:#181818;stroke-width:1;"/><line style="stroke:#181818;stroke-width:1;" x1="264.8916" x2="264.8916" y1="339.7075" y2="357.7075"/><line style="stroke:#181818;stroke-width:1;" x1="264.8916" x2="189.8794" y1="357.7075" y2="357.7075"/><polygon fill="#181818" points="199.8794,353.7075,189.8794,357.7075,199.8794,361.7075,195.8794,357.7075" style="stroke:#181818;stroke-width:1;"/><line style="stroke:#181818;stroke-width:1;" x1="177.8794" x2="177.8794" y1="247.3364" y2="271.7388"/><polygon fill="#181818" points="173.8794,261.7388,177.8794,271.7388,181.8794,261.7388,177.8794,265.7388" style="stroke:#181818;stroke-width:1;"/><line style="stroke:#181818;stroke-width:1;" x1="244.5625" x2="353.0488" y1="235.3364" y2="235.3364"/><polygon fill="#181818" points="349.0488,310.7231,353.0488,320.7231,357.0488,310.7231,353.0488,314.7231" style="stroke:#181818;stroke-width:1;"/><line style="stroke:#181818;stroke-width:1;" x1="353.0488" x2="353.0488" y1="235.3364" y2="401.7075"/><line style="stroke:#181818;stroke-width:1;" x1="353.0488" x2="189.8794" y1="401.7075" y2="401.7075"/><polygon fill="#181818" points="199.8794,397.7075,189.8794,401.7075,199.8794,405.7075,195.8794,401.7075" style="stroke:#181818;stroke-width:1;"/><line style="stroke:#181818;stroke-width:1;" x1="177.8794" x2="177.8794" y1="369.7075" y2="389.7075"/><polygon fill="#181818" points="173.8794,379.7075,177.8794,389.7075,181.8794,379.7075,177.8794,383.7075" style="stroke:#181818;stroke-width:1;"/><line style="stroke:#181818;stroke-width:1;" x1="177.8794" x2="177.8794" y1="181.9375" y2="223.3364"/><polygon fill="#181818" points="173.8794,213.3364,177.8794,223.3364,181.8794,213.3364,177.8794,217.3364" style="stroke:#181818;stroke-width:1;"/><text fill="#000000" font-family="sans-serif" font-size="11" lengthAdjust="spacing" textLength="83.7891" x="181.8794" y="203.2422">Log Impression</text><line style="stroke:#181818;stroke-width:1;" x1="177.8794" x2="177.8794" y1="127.9688" y2="147.9688"/><polygon fill="#181818" points="173.8794,137.9688,177.8794,147.9688,181.8794,137.9688,177.8794,141.9688" style="stroke:#181818;stroke-width:1;"/><line style="stroke:#181818;stroke-width:1;" x1="230.928" x2="371.0488" y1="445.7075" y2="445.7075"/><polygon fill="#181818" points="367.0488,289.8364,371.0488,279.8364,375.0488,289.8364,371.0488,285.8364" style="stroke:#181818;stroke-width:1;"/><line style="stroke:#181818;stroke-width:1;" x1="371.0488" x2="371.0488" y1="115.9688" y2="445.7075"/><line style="stroke:#181818;stroke-width:1;" x1="371.0488" x2="189.8794" y1="115.9688" y2="115.9688"/><polygon fill="#181818" points="199.8794,111.9688,189.8794,115.9688,199.8794,119.9688,195.8794,115.9688" style="stroke:#181818;stroke-width:1;"/><line style="stroke:#181818;stroke-width:1;" x1="177.8794" x2="177.8794" y1="413.7075" y2="433.7075"/><polygon fill="#181818" points="173.8794,423.7075,177.8794,433.7075,181.8794,423.7075,177.8794,427.7075" style="stroke:#181818;stroke-width:1;"/><line style="stroke:#181818;stroke-width:1;" x1="177.8794" x2="177.8794" y1="83.9688" y2="103.9688"/><polygon fill="#181818" points="173.8794,93.9688,177.8794,103.9688,181.8794,93.9688,177.8794,97.9688" style="stroke:#181818;stroke-width:1;"/><line style="stroke:#181818;stroke-width:1;" x1="177.8794" x2="177.8794" y1="457.7075" y2="477.7075"/><polygon fill="#181818" points="173.8794,467.7075,177.8794,477.7075,181.8794,467.7075,177.8794,471.7075" style="stroke:#181818;stroke-width:1;"/><!--SRC=[RP1D2i9038NtSueisuKNQC62TLEeBaGF46pQ3jQPaaIbjtVw9uAk7hnyxv5455cDIKgF5UpGEM993LDFg0OWsLlfEnoMKHgipHPAtq1nxvb4h7UZQMk8Ba8CUMUlDrdmB0PjoK4qaCI1-eGdAfsSCLa8d94RKa0uaIW-69t-fiC-HtpQ1fL0_HSwLr4d197pV-4yQEDvM51NsTgiEfyBhzPseU3WcTPNPB4nehv_0m00]--></g></svg>