<svg xmlns="http://www.w3.org/2000/svg" xmlns:xlink="http://www.w3.org/1999/xlink" contentStyleType="text/css" data-diagram-type="ACTIVITY" height="350px" preserveAspectRatio="none" style="width:228px;height:350px;background:#FFFFFF;" version="1.1" viewBox="0 0 228 350" width="228px" zoomAndPan="magnify"><defs/><g><ellipse cx="114.4805" cy="20" fill="#222222" rx="10" ry="10" style="stroke:#222222;stroke-width:1;"/><rect fill="#F1F1F1" height="33.9688" rx="12.5" ry="12.5" style="stroke:#181818;stroke-width:0.5;" width="188.0176" x="20.4717" y="50"/><text fill="#000000" font-family="sans-serif" font-size="12" lengthAdjust="spacing" textLength="168.0176" x="30.4717" y="71.1387">User selects menu category</text><rect fill="#F1F1F1" height="33.9688" rx="12.5" ry="12.5" style="stroke:#181818;stroke-width:0.5;" width="144.6758" x="42.1426" y="103.9688"/><text fill="#000000" font-family="sans-serif" font-size="12" lengthAdjust="spacing" textLength="124.6758" x="52.1426" y="125.1074">Filter options appear</text><rect fill="#F1F1F1" height="33.9688" rx="12.5" ry="12.5" style="stroke:#181818;stroke-width:0.5;" width="131.0527" x="48.9541" y="157.9375"/><text fill="#000000" font-family="sans-serif" font-size="12" lengthAdjust="spacing" textLength="111.0527" x="58.9541" y="179.0762">User selects filters</text><rect fill="#F1F1F1" height="33.9688" rx="12.5" ry="12.5" style="stroke:#181818;stroke-width:0.5;" width="206.9609" x="11" y="211.9063"/><text fill="#000000" font-family="sans-serif" font-size="12" lengthAdjust="spacing" textLength="186.9609" x="21" y="233.0449">Products displayed accordingly</text><rect fill="#F1F1F1" height="33.9688" rx="12.5" ry="12.5" style="stroke:#181818;stroke-width:0.5;" width="179.0762" x="24.9424" y="265.875"/><text fill="#000000" font-family="sans-serif" font-size="12" lengthAdjust="spacing" textLength="159.0762" x="34.9424" y="287.0137">User views product details</text><ellipse cx="114.4805" cy="329.8438" fill="none" rx="10" ry="10" style="stroke:#222222;stroke-width:1.5;"/><line style="stroke:#222222;stroke-width:2.5;" x1="108.2933" x2="120.6677" y1="323.6566" y2="336.0309"/><line style="stroke:#222222;stroke-width:2.5;" x1="120.6677" x2="108.2933" y1="323.6566" y2="336.0309"/><line style="stroke:#181818;stroke-width:1;" x1="114.4805" x2="114.4805" y1="30" y2="50"/><polygon fill="#181818" points="110.4805,40,114.4805,50,118.4805,40,114.4805,44" style="stroke:#181818;stroke-width:1;"/><line style="stroke:#181818;stroke-width:1;" x1="114.4805" x2="114.4805" y1="83.9688" y2="103.9688"/><polygon fill="#181818" points="110.4805,93.9688,114.4805,103.9688,118.4805,93.9688,114.4805,97.9688" style="stroke:#181818;stroke-width:1;"/><line style="stroke:#181818;stroke-width:1;" x1="114.4805" x2="114.4805" y1="137.9375" y2="157.9375"/><polygon fill="#181818" points="110.4805,147.9375,114.4805,157.9375,118.4805,147.9375,114.4805,151.9375" style="stroke:#181818;stroke-width:1;"/><line style="stroke:#181818;stroke-width:1;" x1="114.4805" x2="114.4805" y1="191.9063" y2="211.9063"/><polygon fill="#181818" points="110.4805,201.9063,114.4805,211.9063,118.4805,201.9063,114.4805,205.9063" style="stroke:#181818;stroke-width:1;"/><line style="stroke:#181818;stroke-width:1;" x1="114.4805" x2="114.4805" y1="245.875" y2="265.875"/><polygon fill="#181818" points="110.4805,255.875,114.4805,265.875,118.4805,255.875,114.4805,259.875" style="stroke:#181818;stroke-width:1;"/><line style="stroke:#181818;stroke-width:1;" x1="114.4805" x2="114.4805" y1="299.8438" y2="319.8438"/><polygon fill="#181818" points="110.4805,309.8438,114.4805,319.8438,118.4805,309.8438,114.4805,313.8438" style="stroke:#181818;stroke-width:1;"/><!--SRC=[LOmn3W8n30JxlC8Vu0CWKLBJy00hDYTB9evi7oY_v-1IGBipiv7eMShn5kmGh5mpuC5jXOh9Y_aubSDv4owYkIdMKwm5OE-CFjbVVF-ACT7LZTRFJ19TSJ01rcfEqXOTl_rJ-1NGTn-84qNd2pTw0m00]--></g></svg>