<svg xmlns="http://www.w3.org/2000/svg" xmlns:xlink="http://www.w3.org/1999/xlink" contentStyleType="text/css" data-diagram-type="SEQUENCE" height="356px" preserveAspectRatio="none" style="width:347px;height:356px;background:#FFFFFF;" version="1.1" viewBox="0 0 347 356" width="347px" zoomAndPan="magnify"><defs/><g><g><title>Client</title><rect fill="#000000" fill-opacity="0.00000" height="194.7969" width="8" x="24.2651" y="81.2969"/><line style="stroke:#181818;stroke-width:0.5;stroke-dasharray:5,5;" x1="28" x2="28" y1="81.2969" y2="276.0938"/></g><g><title>API Gateway</title><rect fill="#000000" fill-opacity="0.00000" height="194.7969" width="8" x="111.2847" y="81.2969"/><line style="stroke:#181818;stroke-width:0.5;stroke-dasharray:5,5;" x1="115.063" x2="115.063" y1="81.2969" y2="276.0938"/></g><g><title>KMS</title><rect fill="#000000" fill-opacity="0.00000" height="194.7969" width="8" x="236.6948" y="81.2969"/><line style="stroke:#181818;stroke-width:0.5;stroke-dasharray:5,5;" x1="240.6216" x2="240.6216" y1="81.2969" y2="276.0938"/></g><g><title>Storage</title><rect fill="#000000" fill-opacity="0.00000" height="194.7969" width="8" x="303.1563" y="81.2969"/><line style="stroke:#181818;stroke-width:0.5;stroke-dasharray:5,5;" x1="306.7681" x2="306.7681" y1="81.2969" y2="276.0938"/></g><g class="participant participant-head" data-participant="Client"><text fill="#000000" font-family="sans-serif" font-size="14" lengthAdjust="spacing" textLength="40.5303" x="5" y="77.9951">Client</text><ellipse cx="28.2651" cy="13.5" fill="#E2E2F0" rx="8" ry="8" style="stroke:#181818;stroke-width:0.5;"/><path d="M28.2651,21.5 L28.2651,48.5 M15.2651,29.5 L41.2651,29.5 M28.2651,48.5 L15.2651,63.5 M28.2651,48.5 L41.2651,63.5" fill="none" style="stroke:#181818;stroke-width:0.5;"/></g><g class="participant participant-tail" data-participant="Client"><text fill="#000000" font-family="sans-serif" font-size="14" lengthAdjust="spacing" textLength="40.5303" x="5" y="288.0889">Client</text><ellipse cx="28.2651" cy="299.8906" fill="#E2E2F0" rx="8" ry="8" style="stroke:#181818;stroke-width:0.5;"/><path d="M28.2651,307.8906 L28.2651,334.8906 M15.2651,315.8906 L41.2651,315.8906 M28.2651,334.8906 L15.2651,349.8906 M28.2651,334.8906 L41.2651,349.8906" fill="none" style="stroke:#181818;stroke-width:0.5;"/></g><g class="participant participant-head" data-participant="APIGateway"><rect fill="#E2E2F0" height="30.2969" rx="2.5" ry="2.5" style="stroke:#181818;stroke-width:0.5;" width="102.4434" x="64.063" y="50"/><text fill="#000000" font-family="sans-serif" font-size="14" lengthAdjust="spacing" textLength="88.4434" x="71.063" y="69.9951">API Gateway</text></g><g class="participant participant-tail" data-participant="APIGateway"><rect fill="#E2E2F0" height="30.2969" rx="2.5" ry="2.5" style="stroke:#181818;stroke-width:0.5;" width="102.4434" x="64.063" y="275.0938"/><text fill="#000000" font-family="sans-serif" font-size="14" lengthAdjust="spacing" textLength="88.4434" x="71.063" y="295.0889">API Gateway</text></g><g class="participant participant-head" data-participant="KMS"><rect fill="#E2E2F0" height="30.2969" rx="2.5" ry="2.5" style="stroke:#181818;stroke-width:0.5;" width="44.1465" x="218.6216" y="50"/><text fill="#000000" font-family="sans-serif" font-size="14" lengthAdjust="spacing" textLength="30.1465" x="225.6216" y="69.9951">KMS</text></g><g class="participant participant-tail" data-participant="KMS"><rect fill="#E2E2F0" height="30.2969" rx="2.5" ry="2.5" style="stroke:#181818;stroke-width:0.5;" width="44.1465" x="218.6216" y="275.0938"/><text fill="#000000" font-family="sans-serif" font-size="14" lengthAdjust="spacing" textLength="30.1465" x="225.6216" y="295.0889">KMS</text></g><g class="participant participant-head" data-participant="Storage"><rect fill="#E2E2F0" height="30.2969" rx="2.5" ry="2.5" style="stroke:#181818;stroke-width:0.5;" width="68.7764" x="272.7681" y="50"/><text fill="#000000" font-family="sans-serif" font-size="14" lengthAdjust="spacing" textLength="54.7764" x="279.7681" y="69.9951">Storage</text></g><g class="participant participant-tail" data-participant="Storage"><rect fill="#E2E2F0" height="30.2969" rx="2.5" ry="2.5" style="stroke:#181818;stroke-width:0.5;" width="68.7764" x="272.7681" y="275.0938"/><text fill="#000000" font-family="sans-serif" font-size="14" lengthAdjust="spacing" textLength="54.7764" x="279.7681" y="295.0889">Storage</text></g><g class="message" data-participant-1="Client" data-participant-2="APIGateway"><polygon fill="#181818" points="103.2847,108.4297,113.2847,112.4297,103.2847,116.4297,107.2847,112.4297" style="stroke:#181818;stroke-width:1;"/><line style="stroke:#181818;stroke-width:1;" x1="28.2651" x2="109.2847" y1="112.4297" y2="112.4297"/><text fill="#000000" font-family="sans-serif" font-size="13" lengthAdjust="spacing" textLength="53.3901" x="35.2651" y="107.3638">Request</text></g><g class="message" data-participant-1="APIGateway" data-participant-2="KMS"><polygon fill="#181818" points="228.6948,137.5625,238.6948,141.5625,228.6948,145.5625,232.6948,141.5625" style="stroke:#181818;stroke-width:1;"/><line style="stroke:#181818;stroke-width:1;" x1="115.2847" x2="234.6948" y1="141.5625" y2="141.5625"/><text fill="#000000" font-family="sans-serif" font-size="13" lengthAdjust="spacing" textLength="85.1602" x="122.2847" y="136.4966">Encrypt Data</text></g><g class="message" data-participant-1="KMS" data-participant-2="APIGateway"><polygon fill="#181818" points="126.2847,166.6953,116.2847,170.6953,126.2847,174.6953,122.2847,170.6953" style="stroke:#181818;stroke-width:1;"/><line style="stroke:#181818;stroke-width:1;" x1="120.2847" x2="239.6948" y1="170.6953" y2="170.6953"/><text fill="#000000" font-family="sans-serif" font-size="13" lengthAdjust="spacing" textLength="101.4102" x="132.2847" y="165.6294">Encrypted Data</text></g><g class="message" data-participant-1="APIGateway" data-participant-2="Storage"><polygon fill="#181818" points="295.1563,195.8281,305.1563,199.8281,295.1563,203.8281,299.1563,199.8281" style="stroke:#181818;stroke-width:1;"/><line style="stroke:#181818;stroke-width:1;" x1="115.2847" x2="301.1563" y1="199.8281" y2="199.8281"/><text fill="#000000" font-family="sans-serif" font-size="13" lengthAdjust="spacing" textLength="140.188" x="122.2847" y="194.7622">Store Encrypted Data</text></g><g class="message" data-participant-1="Storage" data-participant-2="APIGateway"><polygon fill="#181818" points="126.2847,224.9609,116.2847,228.9609,126.2847,232.9609,122.2847,228.9609" style="stroke:#181818;stroke-width:1;"/><line style="stroke:#181818;stroke-width:1;" x1="120.2847" x2="306.1563" y1="228.9609" y2="228.9609"/><text fill="#000000" font-family="sans-serif" font-size="13" lengthAdjust="spacing" textLength="141.502" x="132.2847" y="223.895">Acknowledge Storage</text></g><g class="message" data-participant-1="APIGateway" data-participant-2="Client"><polygon fill="#181818" points="39.2651,254.0938,29.2651,258.0938,39.2651,262.0938,35.2651,258.0938" style="stroke:#181818;stroke-width:1;"/><line style="stroke:#181818;stroke-width:1;" x1="33.2651" x2="114.2847" y1="258.0938" y2="258.0938"/><text fill="#000000" font-family="sans-serif" font-size="13" lengthAdjust="spacing" textLength="63.0195" x="45.2651" y="253.0278">Response</text></g><!--SRC=[NO_12W8X48RlFiMmzrx0Gx1KH4GGxHCCxX3IegQpBFlskMgKdXpd-_rcHCNMms7IP5WuzAoLTcWOklv-WJCoBRXsW07YlLphtFKs91xF6WpHZ4zAiDH2v4cms__v93peFLDWyUjjYMYKS3BAhuxXY8mYTjgdXTEO4xMXZ9Mfe3PRQ6lirSlOPQ8nek_UjJP_ObixE6i2YGy0]--></g></svg>