<svg xmlns="http://www.w3.org/2000/svg" xmlns:xlink="http://www.w3.org/1999/xlink" contentStyleType="text/css" data-diagram-type="CLASS" height="219px" preserveAspectRatio="none" style="width:308px;height:219px;background:#FFFFFF;" version="1.1" viewBox="0 0 308 219" width="308px" zoomAndPan="magnify"><defs/><g><!--class LocationService--><g class="entity" data-entity="LocationService" data-source-line="1" data-uid="ent0002" id="entity_LocationService"><rect fill="#F1F1F1" height="80.5938" rx="2.5" ry="2.5" style="stroke:#181818;stroke-width:0.5;" width="294.8574" x="7" y="7"/><ellipse cx="94.5786" cy="23" fill="#ADD1B2" rx="11" ry="11" style="stroke:#181818;stroke-width:1;"/><path d="M97.5474,28.6406 Q96.9692,28.9375 96.3286,29.0781 Q95.688,29.2344 94.9849,29.2344 Q92.4849,29.2344 91.1567,27.5938 Q89.8442,25.9375 89.8442,22.8125 Q89.8442,19.6875 91.1567,18.0313 Q92.4849,16.375 94.9849,16.375 Q95.688,16.375 96.3286,16.5313 Q96.9849,16.6875 97.5474,16.9844 L97.5474,19.7031 Q96.9224,19.125 96.3286,18.8594 Q95.7349,18.5781 95.1099,18.5781 Q93.7661,18.5781 93.0786,19.6563 Q92.3911,20.7188 92.3911,22.8125 Q92.3911,24.9063 93.0786,25.9844 Q93.7661,27.0469 95.1099,27.0469 Q95.7349,27.0469 96.3286,26.7813 Q96.9224,26.5 97.5474,25.9219 L97.5474,28.6406 Z " fill="#000000"/><text fill="#000000" font-family="sans-serif" font-size="14" lengthAdjust="spacing" textLength="111.2002" x="115.0786" y="27.8467">LocationService</text><line style="stroke:#181818;stroke-width:0.5;" x1="8" x2="300.8574" y1="39" y2="39"/><line style="stroke:#181818;stroke-width:0.5;" x1="8" x2="300.8574" y1="47" y2="47"/><ellipse cx="18" cy="60.6484" fill="#84BE84" rx="3" ry="3" style="stroke:#038048;stroke-width:1;"/><text fill="#000000" font-family="sans-serif" font-size="14" lengthAdjust="spacing" textLength="155.8594" x="27" y="63.9951">DetectLocation(): void</text><ellipse cx="18" cy="76.9453" fill="#84BE84" rx="3" ry="3" style="stroke:#038048;stroke-width:1;"/><text fill="#000000" font-family="sans-serif" font-size="14" lengthAdjust="spacing" textLength="268.8574" x="27" y="80.292">ManualCitySelection(city: String): void</text></g><!--class RestaurantList--><g class="entity" data-entity="RestaurantList" data-source-line="6" data-uid="ent0003" id="entity_RestaurantList"><rect fill="#F1F1F1" height="48" rx="2.5" ry="2.5" style="stroke:#181818;stroke-width:0.5;" width="133.7461" x="87.56" y="164.59"/><ellipse cx="102.56" cy="180.59" fill="#ADD1B2" rx="11" ry="11" style="stroke:#181818;stroke-width:1;"/><path d="M105.5288,186.2306 Q104.9506,186.5275 104.31,186.6681 Q103.6694,186.8244 102.9663,186.8244 Q100.4663,186.8244 99.1381,185.1838 Q97.8256,183.5275 97.8256,180.4025 Q97.8256,177.2775 99.1381,175.6213 Q100.4663,173.965 102.9663,173.965 Q103.6694,173.965 104.31,174.1213 Q104.9663,174.2775 105.5288,174.5744 L105.5288,177.2931 Q104.9038,176.715 104.31,176.4494 Q103.7163,176.1681 103.0913,176.1681 Q101.7475,176.1681 101.06,177.2463 Q100.3725,178.3088 100.3725,180.4025 Q100.3725,182.4963 101.06,183.5744 Q101.7475,184.6369 103.0913,184.6369 Q103.7163,184.6369 104.31,184.3713 Q104.9038,184.09 105.5288,183.5119 L105.5288,186.2306 Z " fill="#000000"/><text fill="#000000" font-family="sans-serif" font-size="14" lengthAdjust="spacing" textLength="101.7461" x="116.56" y="185.4367">RestaurantList</text><line style="stroke:#181818;stroke-width:0.5;" x1="88.56" x2="220.3061" y1="196.59" y2="196.59"/><line style="stroke:#181818;stroke-width:0.5;" x1="88.56" x2="220.3061" y1="204.59" y2="204.59"/></g><!--link LocationService to RestaurantList--><g class="link" data-entity-1="LocationService" data-entity-2="RestaurantList" data-source-line="8" data-uid="lnk4" id="link_LocationService_RestaurantList"><path codeLine="8" d="M154.43,87.84 C154.43,112.45 154.43,137.27 154.43,158.09" fill="none" id="LocationService-to-RestaurantList" style="stroke:#181818;stroke-width:1;"/><polygon fill="#181818" points="154.43,164.09,158.43,155.09,154.43,159.09,150.43,155.09,154.43,164.09" style="stroke:#181818;stroke-width:1;"/><text fill="#000000" font-family="sans-serif" font-size="13" lengthAdjust="spacing" textLength="88.9878" x="155.43" y="130.6569">interacts with</text></g><!--SRC=[NOqn2W8n44NxESMKYkm5KjXekJRc1CCuw4188Fcx8ejtDohRxEy-xy7J9AtnM5JW9KUhiwlnGjntE1jCiSBTFl1S_FPd5ycJf9FZ5IrrwojeVu4ZgkVxAh-9zDUuMeDCLJ96Ro3QDeVXk74ui6TO5KNZf-D17m00]--></g></svg>