<svg xmlns="http://www.w3.org/2000/svg" xmlns:xlink="http://www.w3.org/1999/xlink" contentStyleType="text/css" data-diagram-type="CLASS" height="409px" preserveAspectRatio="none" style="width:627px;height:409px;background:#FFFFFF;" version="1.1" viewBox="0 0 627 409" width="627px" zoomAndPan="magnify"><defs/><g><!--class PredictionModel--><g class="entity" data-entity="PredictionModel" data-source-line="1" data-uid="ent0002" id="entity_PredictionModel"><rect fill="#F1F1F1" height="80.5938" rx="2.5" ry="2.5" style="stroke:#181818;stroke-width:0.5;" width="308.8301" x="273.76" y="7"/><ellipse cx="367.8567" cy="23" fill="#ADD1B2" rx="11" ry="11" style="stroke:#181818;stroke-width:1;"/><path d="M370.8254,28.6406 Q370.2473,28.9375 369.6067,29.0781 Q368.9661,29.2344 368.2629,29.2344 Q365.7629,29.2344 364.4348,27.5938 Q363.1223,25.9375 363.1223,22.8125 Q363.1223,19.6875 364.4348,18.0313 Q365.7629,16.375 368.2629,16.375 Q368.9661,16.375 369.6067,16.5313 Q370.2629,16.6875 370.8254,16.9844 L370.8254,19.7031 Q370.2004,19.125 369.6067,18.8594 Q369.0129,18.5781 368.3879,18.5781 Q367.0442,18.5781 366.3567,19.6563 Q365.6692,20.7188 365.6692,22.8125 Q365.6692,24.9063 366.3567,25.9844 Q367.0442,27.0469 368.3879,27.0469 Q369.0129,27.0469 369.6067,26.7813 Q370.2004,26.5 370.8254,25.9219 L370.8254,28.6406 Z " fill="#000000"/><text fill="#000000" font-family="sans-serif" font-size="14" lengthAdjust="spacing" textLength="112.1367" x="388.3567" y="27.8467">PredictionModel</text><line style="stroke:#181818;stroke-width:0.5;" x1="274.76" x2="581.5901" y1="39" y2="39"/><rect fill="none" height="6" style="stroke:#C82930;stroke-width:1;" width="6" x="281.76" y="49.6484"/><text fill="#000000" font-family="sans-serif" font-size="14" lengthAdjust="spacing" textLength="191.5908" x="293.76" y="55.9951">predictionAccuracy: double</text><line style="stroke:#181818;stroke-width:0.5;" x1="274.76" x2="581.5901" y1="63.2969" y2="63.2969"/><ellipse cx="284.76" cy="76.9453" fill="#84BE84" rx="3" ry="3" style="stroke:#038048;stroke-width:1;"/><text fill="#000000" font-family="sans-serif" font-size="14" lengthAdjust="spacing" textLength="282.8301" x="293.76" y="80.292">generatePrediction(): ExpectedOutcome</text></g><!--class HistoricalData--><g class="entity" data-entity="HistoricalData" data-source-line="6" data-uid="ent0003" id="entity_HistoricalData"><rect fill="#F1F1F1" height="80.5938" rx="2.5" ry="2.5" style="stroke:#181818;stroke-width:0.5;" width="272.3467" x="7" y="164.59"/><ellipse cx="89.4209" cy="180.59" fill="#ADD1B2" rx="11" ry="11" style="stroke:#181818;stroke-width:1;"/><path d="M92.3896,186.2306 Q91.8115,186.5275 91.1709,186.6681 Q90.5303,186.8244 89.8271,186.8244 Q87.3271,186.8244 85.999,185.1837 Q84.6865,183.5275 84.6865,180.4025 Q84.6865,177.2775 85.999,175.6212 Q87.3271,173.965 89.8271,173.965 Q90.5303,173.965 91.1709,174.1212 Q91.8271,174.2775 92.3896,174.5744 L92.3896,177.2931 Q91.7646,176.715 91.1709,176.4494 Q90.5771,176.1681 89.9521,176.1681 Q88.6084,176.1681 87.9209,177.2462 Q87.2334,178.3087 87.2334,180.4025 Q87.2334,182.4962 87.9209,183.5744 Q88.6084,184.6369 89.9521,184.6369 Q90.5771,184.6369 91.1709,184.3712 Q91.7646,184.09 92.3896,183.5119 L92.3896,186.2306 Z " fill="#000000"/><text fill="#000000" font-family="sans-serif" font-size="14" lengthAdjust="spacing" textLength="99.0049" x="109.9209" y="185.4367">HistoricalData</text><line style="stroke:#181818;stroke-width:0.5;" x1="8" x2="278.3467" y1="196.59" y2="196.59"/><rect fill="none" height="6" style="stroke:#C82930;stroke-width:1;" width="6" x="15" y="207.2384"/><text fill="#000000" font-family="sans-serif" font-size="14" lengthAdjust="spacing" textLength="210.7793" x="27" y="213.5851">historicalTrends: List&lt;String&gt;</text><line style="stroke:#181818;stroke-width:0.5;" x1="8" x2="278.3467" y1="220.8869" y2="220.8869"/><ellipse cx="18" cy="234.5353" fill="#84BE84" rx="3" ry="3" style="stroke:#038048;stroke-width:1;"/><text fill="#000000" font-family="sans-serif" font-size="14" lengthAdjust="spacing" textLength="246.3467" x="27" y="237.882">getHistoricalTrends(): List&lt;String&gt;</text></g><!--class ExpectedOutcome--><g class="entity" data-entity="ExpectedOutcome" data-source-line="11" data-uid="ent0004" id="entity_ExpectedOutcome"><rect fill="#F1F1F1" height="80.5938" rx="2.5" ry="2.5" style="stroke:#181818;stroke-width:0.5;" width="226.8809" x="314.73" y="164.59"/><ellipse cx="359.314" cy="180.59" fill="#ADD1B2" rx="11" ry="11" style="stroke:#181818;stroke-width:1;"/><path d="M362.2827,186.2306 Q361.7046,186.5275 361.064,186.6681 Q360.4234,186.8244 359.7202,186.8244 Q357.2202,186.8244 355.8921,185.1837 Q354.5796,183.5275 354.5796,180.4025 Q354.5796,177.2775 355.8921,175.6212 Q357.2202,173.965 359.7202,173.965 Q360.4234,173.965 361.064,174.1212 Q361.7202,174.2775 362.2827,174.5744 L362.2827,177.2931 Q361.6577,176.715 361.064,176.4494 Q360.4702,176.1681 359.8452,176.1681 Q358.5015,176.1681 357.814,177.2462 Q357.1265,178.3087 357.1265,180.4025 Q357.1265,182.4962 357.814,183.5744 Q358.5015,184.6369 359.8452,184.6369 Q360.4702,184.6369 361.064,184.3712 Q361.6577,184.09 362.2827,183.5119 L362.2827,186.2306 Z " fill="#000000"/><text fill="#000000" font-family="sans-serif" font-size="14" lengthAdjust="spacing" textLength="129.2129" x="379.814" y="185.4367">ExpectedOutcome</text><line style="stroke:#181818;stroke-width:0.5;" x1="315.73" x2="540.6109" y1="196.59" y2="196.59"/><rect fill="none" height="6" style="stroke:#C82930;stroke-width:1;" width="6" x="322.73" y="207.2384"/><text fill="#000000" font-family="sans-serif" font-size="14" lengthAdjust="spacing" textLength="160.9248" x="334.73" y="213.5851">outcomeDetails: String</text><line style="stroke:#181818;stroke-width:0.5;" x1="315.73" x2="540.6109" y1="220.8869" y2="220.8869"/><ellipse cx="325.73" cy="234.5353" fill="#84BE84" rx="3" ry="3" style="stroke:#038048;stroke-width:1;"/><text fill="#000000" font-family="sans-serif" font-size="14" lengthAdjust="spacing" textLength="200.8809" x="334.73" y="237.882">evaluateOutcome(): boolean</text></g><!--class UserFeedback--><g class="entity" data-entity="UserFeedback" data-source-line="16" data-uid="ent0005" id="entity_UserFeedback"><rect fill="#F1F1F1" height="80.5938" rx="2.5" ry="2.5" style="stroke:#181818;stroke-width:0.5;" width="188.9961" x="424.68" y="322.19"/><ellipse cx="465.6222" cy="338.19" fill="#ADD1B2" rx="11" ry="11" style="stroke:#181818;stroke-width:1;"/><path d="M468.591,343.8306 Q468.0129,344.1275 467.3722,344.2681 Q466.7316,344.4244 466.0285,344.4244 Q463.5285,344.4244 462.2004,342.7837 Q460.8879,341.1275 460.8879,338.0025 Q460.8879,334.8775 462.2004,333.2212 Q463.5285,331.565 466.0285,331.565 Q466.7316,331.565 467.3722,331.7212 Q468.0285,331.8775 468.591,332.1744 L468.591,334.8931 Q467.966,334.315 467.3722,334.0494 Q466.7785,333.7681 466.1535,333.7681 Q464.8097,333.7681 464.1222,334.8462 Q463.4347,335.9087 463.4347,338.0025 Q463.4347,340.0962 464.1222,341.1744 Q464.8097,342.2369 466.1535,342.2369 Q466.7785,342.2369 467.3722,341.9712 Q467.966,341.69 468.591,341.1119 L468.591,343.8306 Z " fill="#000000"/><text fill="#000000" font-family="sans-serif" font-size="14" lengthAdjust="spacing" textLength="99.3467" x="485.3872" y="343.0367">UserFeedback</text><line style="stroke:#181818;stroke-width:0.5;" x1="425.68" x2="612.6761" y1="354.19" y2="354.19"/><rect fill="none" height="6" style="stroke:#C82930;stroke-width:1;" width="6" x="432.68" y="364.8384"/><text fill="#000000" font-family="sans-serif" font-size="14" lengthAdjust="spacing" textLength="131.25" x="444.68" y="371.1851">feedbackScore: int</text><line style="stroke:#181818;stroke-width:0.5;" x1="425.68" x2="612.6761" y1="378.4869" y2="378.4869"/><ellipse cx="435.68" cy="392.1353" fill="#84BE84" rx="3" ry="3" style="stroke:#038048;stroke-width:1;"/><text fill="#000000" font-family="sans-serif" font-size="14" lengthAdjust="spacing" textLength="162.9961" x="444.68" y="395.482">collectFeedback(): void</text></g><!--link PredictionModel to HistoricalData--><g class="link" data-entity-1="PredictionModel" data-entity-2="HistoricalData" data-source-line="21" data-uid="lnk6" id="link_PredictionModel_HistoricalData"><path codeLine="21" d="M355.52,87.96 C312.64,111.37 263.816,138.0243 220.966,161.4243" fill="none" id="PredictionModel-to-HistoricalData" style="stroke:#181818;stroke-width:1;"/><polygon fill="#181818" points="215.7,164.3,225.5161,163.4971,220.0883,161.9036,221.6818,156.4758,215.7,164.3" style="stroke:#181818;stroke-width:1;"/><text fill="#000000" font-family="sans-serif" font-size="13" lengthAdjust="spacing" textLength="29.7832" x="295.22" y="130.6569">uses</text><text fill="#000000" font-family="sans-serif" font-size="13" lengthAdjust="spacing" textLength="8.271" x="335.3247" y="107.7135">1</text><text fill="#000000" font-family="sans-serif" font-size="13" lengthAdjust="spacing" textLength="36.5625" x="188.7776" y="153.4135">many</text></g><!--link PredictionModel to ExpectedOutcome--><g class="link" data-entity-1="PredictionModel" data-entity-2="ExpectedOutcome" data-source-line="22" data-uid="lnk7" id="link_PredictionModel_ExpectedOutcome"><path codeLine="22" d="M428.17,87.96 C428.17,111.37 428.17,134.9 428.17,158.3" fill="none" id="PredictionModel-to-ExpectedOutcome" style="stroke:#181818;stroke-width:1;"/><polygon fill="#181818" points="428.17,164.3,432.17,155.3,428.17,159.3,424.17,155.3,428.17,164.3" style="stroke:#181818;stroke-width:1;"/><text fill="#000000" font-family="sans-serif" font-size="13" lengthAdjust="spacing" textLength="65.6665" x="429.17" y="130.6569">generates</text><text fill="#000000" font-family="sans-serif" font-size="13" lengthAdjust="spacing" textLength="8.271" x="419.5533" y="107.7135">1</text><text fill="#000000" font-family="sans-serif" font-size="13" lengthAdjust="spacing" textLength="8.271" x="419.5299" y="153.4135">1</text></g><!--link ExpectedOutcome to UserFeedback--><g class="link" data-entity-1="ExpectedOutcome" data-entity-2="UserFeedback" data-source-line="23" data-uid="lnk8" id="link_ExpectedOutcome_UserFeedback"><path codeLine="23" d="M451.37,245.55 C465.06,268.96 479.3002,293.3112 492.9902,316.7112" fill="none" id="ExpectedOutcome-to-UserFeedback" style="stroke:#181818;stroke-width:1;"/><polygon fill="#181818" points="496.02,321.89,494.9278,312.1019,493.4951,317.5743,488.0227,316.1417,496.02,321.89" style="stroke:#181818;stroke-width:1;"/><text fill="#000000" font-family="sans-serif" font-size="13" lengthAdjust="spacing" textLength="54.5645" x="477.4" y="288.2569">receives</text><text fill="#000000" font-family="sans-serif" font-size="13" lengthAdjust="spacing" textLength="8.271" x="446.4515" y="265.3035">1</text><text fill="#000000" font-family="sans-serif" font-size="13" lengthAdjust="spacing" textLength="36.5625" x="453.2498" y="311.0018">many</text></g><!--link UserFeedback to PredictionModel--><g class="link" data-entity-1="UserFeedback" data-entity-2="PredictionModel" data-source-line="24" data-uid="lnk9" id="link_UserFeedback_PredictionModel"><path codeLine="24" d="M540.94,321.81 C560.3,280.89 582.27,215.97 559.17,164.59 C545.27,133.66 523.4019,111.2471 497.7519,91.6971" fill="none" id="UserFeedback-to-PredictionModel" style="stroke:#181818;stroke-width:1;"/><polygon fill="#181818" points="492.98,88.06,497.7132,96.6969,496.9566,91.0909,502.5627,90.3344,492.98,88.06" style="stroke:#181818;stroke-width:1;"/><text fill="#000000" font-family="sans-serif" font-size="13" lengthAdjust="spacing" textLength="49.1626" x="570.08" y="209.4569">informs</text><text fill="#000000" font-family="sans-serif" font-size="13" lengthAdjust="spacing" textLength="8.271" x="535.7924" y="311.2093">1</text><text fill="#000000" font-family="sans-serif" font-size="13" lengthAdjust="spacing" textLength="8.271" x="494.3115" y="107.5274">1</text></g><!--SRC=[TP71IWCn48RlUOfXJuhqu3L8GQZIWw9GVO3PoRI6PZCboIuMyTtDjclg1imbvC_y_pUJaCCOuJMmiPIi-6SnxE1BGLuBE1JzdgWFI4SDHlhMyQdW1dRiEM3YIy3LjOQ7pmDJOlFI9vAErRTITEAiRKmIBA5ROSA2-IZoMs1leeQdhDnjKh1-jooejAxgHjQiie2g3Wf9pkSL9xGkSyx6YS03kZuFCvd6z5R4CVfBy7layCXiMgHzITrEmeOai0RhqvH8ubpkuzSm9WvYpHXNFtbpsy1YiOIcGtziwfVIq4UE_vloNe-io-T4LTzLiDbG6W8Jso7RPlfVLjt7EFDMGXVL3m00]--></g></svg>