<svg xmlns="http://www.w3.org/2000/svg" xmlns:xlink="http://www.w3.org/1999/xlink" contentStyleType="text/css" data-diagram-type="SEQUENCE" height="428px" preserveAspectRatio="none" style="width:669px;height:428px;background:#FFFFFF;" version="1.1" viewBox="0 0 669 428" width="669px" zoomAndPan="magnify"><defs/><g><g><title>User</title><rect fill="#000000" fill-opacity="0.00000" height="266.0625" width="8" x="19.9551" y="81.2969"/><line style="stroke:#181818;stroke-width:0.5;stroke-dasharray:5,5;" x1="23" x2="23" y1="81.2969" y2="347.3594"/></g><g><title>App</title><rect fill="#000000" fill-opacity="0.00000" height="266.0625" width="8" x="103.5151" y="81.2969"/><line style="stroke:#181818;stroke-width:0.5;stroke-dasharray:5,5;" x1="106.8398" x2="106.8398" y1="81.2969" y2="347.3594"/></g><g><title>Payment Gateway</title><rect fill="#000000" fill-opacity="0.00000" height="266.0625" width="8" x="271.5498" y="81.2969"/><line style="stroke:#181818;stroke-width:0.5;stroke-dasharray:5,5;" x1="275.4424" x2="275.4424" y1="81.2969" y2="347.3594"/></g><g><title>Restaurant Service</title><rect fill="#000000" fill-opacity="0.00000" height="266.0625" width="8" x="426.3896" y="81.2969"/><line style="stroke:#181818;stroke-width:0.5;stroke-dasharray:5,5;" x1="429.6572" x2="429.6572" y1="81.2969" y2="347.3594"/></g><g><title>Order Confirmation</title><rect fill="#000000" fill-opacity="0.00000" height="266.0625" width="8" x="584.7739" y="81.2969"/><line style="stroke:#181818;stroke-width:0.5;stroke-dasharray:5,5;" x1="588.1221" x2="588.1221" y1="81.2969" y2="347.3594"/></g><g class="participant participant-head" data-participant="User"><text fill="#000000" font-family="sans-serif" font-size="14" lengthAdjust="spacing" textLength="31.9102" x="5" y="77.9951">User</text><ellipse cx="23.9551" cy="13.5" fill="#E2E2F0" rx="8" ry="8" style="stroke:#181818;stroke-width:0.5;"/><path d="M23.9551,21.5 L23.9551,48.5 M10.9551,29.5 L36.9551,29.5 M23.9551,48.5 L10.9551,63.5 M23.9551,48.5 L36.9551,63.5" fill="none" style="stroke:#181818;stroke-width:0.5;"/></g><g class="participant participant-tail" data-participant="User"><text fill="#000000" font-family="sans-serif" font-size="14" lengthAdjust="spacing" textLength="31.9102" x="5" y="359.3545">User</text><ellipse cx="23.9551" cy="371.1563" fill="#E2E2F0" rx="8" ry="8" style="stroke:#181818;stroke-width:0.5;"/><path d="M23.9551,379.1563 L23.9551,406.1563 M10.9551,387.1563 L36.9551,387.1563 M23.9551,406.1563 L10.9551,421.1563 M23.9551,406.1563 L36.9551,421.1563" fill="none" style="stroke:#181818;stroke-width:0.5;"/></g><g class="participant participant-head" data-participant="App"><rect fill="#E2E2F0" height="30.2969" rx="2.5" ry="2.5" style="stroke:#181818;stroke-width:0.5;" width="41.3506" x="86.8398" y="50"/><text fill="#000000" font-family="sans-serif" font-size="14" lengthAdjust="spacing" textLength="27.3506" x="93.8398" y="69.9951">App</text></g><g class="participant participant-tail" data-participant="App"><rect fill="#E2E2F0" height="30.2969" rx="2.5" ry="2.5" style="stroke:#181818;stroke-width:0.5;" width="41.3506" x="86.8398" y="346.3594"/><text fill="#000000" font-family="sans-serif" font-size="14" lengthAdjust="spacing" textLength="27.3506" x="93.8398" y="366.3545">App</text></g><g class="participant participant-head" data-participant="Gateway"><rect fill="#E2E2F0" height="30.2969" rx="2.5" ry="2.5" style="stroke:#181818;stroke-width:0.5;" width="142.2148" x="204.4424" y="50"/><text fill="#000000" font-family="sans-serif" font-size="14" lengthAdjust="spacing" textLength="128.2148" x="211.4424" y="69.9951">Payment Gateway</text></g><g class="participant participant-tail" data-participant="Gateway"><rect fill="#E2E2F0" height="30.2969" rx="2.5" ry="2.5" style="stroke:#181818;stroke-width:0.5;" width="142.2148" x="204.4424" y="346.3594"/><text fill="#000000" font-family="sans-serif" font-size="14" lengthAdjust="spacing" textLength="128.2148" x="211.4424" y="366.3545">Payment Gateway</text></g><g class="participant participant-head" data-participant="Restaurant"><rect fill="#E2E2F0" height="30.2969" rx="2.5" ry="2.5" style="stroke:#181818;stroke-width:0.5;" width="147.4648" x="356.6572" y="50"/><text fill="#000000" font-family="sans-serif" font-size="14" lengthAdjust="spacing" textLength="133.4648" x="363.6572" y="69.9951">Restaurant Service</text></g><g class="participant participant-tail" data-participant="Restaurant"><rect fill="#E2E2F0" height="30.2969" rx="2.5" ry="2.5" style="stroke:#181818;stroke-width:0.5;" width="147.4648" x="356.6572" y="346.3594"/><text fill="#000000" font-family="sans-serif" font-size="14" lengthAdjust="spacing" textLength="133.4648" x="363.6572" y="366.3545">Restaurant Service</text></g><g class="participant participant-head" data-participant="Confirmation"><rect fill="#E2E2F0" height="30.2969" rx="2.5" ry="2.5" style="stroke:#181818;stroke-width:0.5;" width="149.3037" x="514.1221" y="50"/><text fill="#000000" font-family="sans-serif" font-size="14" lengthAdjust="spacing" textLength="135.3037" x="521.1221" y="69.9951">Order Confirmation</text></g><g class="participant participant-tail" data-participant="Confirmation"><rect fill="#E2E2F0" height="30.2969" rx="2.5" ry="2.5" style="stroke:#181818;stroke-width:0.5;" width="149.3037" x="514.1221" y="346.3594"/><text fill="#000000" font-family="sans-serif" font-size="14" lengthAdjust="spacing" textLength="135.3037" x="521.1221" y="366.3545">Order Confirmation</text></g><g class="message" data-participant-1="User" data-participant-2="App"><polygon fill="#181818" points="95.5151,108.4297,105.5151,112.4297,95.5151,116.4297,99.5151,112.4297" style="stroke:#181818;stroke-width:1;"/><line style="stroke:#181818;stroke-width:1;" x1="23.9551" x2="101.5151" y1="112.4297" y2="112.4297"/><text fill="#000000" font-family="sans-serif" font-size="13" lengthAdjust="spacing" textLength="59.5601" x="30.9551" y="107.3638">Lock cart</text></g><g class="message" data-participant-1="App" data-participant-2="App"><line style="stroke:#181818;stroke-width:1;" x1="107.5151" x2="149.5151" y1="141.5625" y2="141.5625"/><line style="stroke:#181818;stroke-width:1;" x1="149.5151" x2="149.5151" y1="141.5625" y2="154.5625"/><line style="stroke:#181818;stroke-width:1;" x1="108.5151" x2="149.5151" y1="154.5625" y2="154.5625"/><polygon fill="#181818" points="118.5151,150.5625,108.5151,154.5625,118.5151,158.5625,114.5151,154.5625" style="stroke:#181818;stroke-width:1;"/><text fill="#000000" font-family="sans-serif" font-size="13" lengthAdjust="spacing" textLength="125.106" x="114.5151" y="136.4966">Lock cart internally</text></g><g class="message" data-participant-1="App" data-participant-2="Gateway"><polygon fill="#181818" points="263.5498,179.6953,273.5498,183.6953,263.5498,187.6953,267.5498,183.6953" style="stroke:#181818;stroke-width:1;"/><line style="stroke:#181818;stroke-width:1;" x1="107.5151" x2="269.5498" y1="183.6953" y2="183.6953"/><text fill="#000000" font-family="sans-serif" font-size="13" lengthAdjust="spacing" textLength="124.6934" x="114.5151" y="178.6294">Complete payment</text></g><g class="message" data-participant-1="Gateway" data-participant-2="App"><polygon fill="#181818" points="118.5151,208.8281,108.5151,212.8281,118.5151,216.8281,114.5151,212.8281" style="stroke:#181818;stroke-width:1;"/><line style="stroke:#181818;stroke-width:1;" x1="112.5151" x2="274.5498" y1="212.8281" y2="212.8281"/><text fill="#000000" font-family="sans-serif" font-size="13" lengthAdjust="spacing" textLength="144.0347" x="124.5151" y="207.7622">Payment confirmation</text></g><g class="message" data-participant-1="App" data-participant-2="Restaurant"><polygon fill="#181818" points="418.3896,237.9609,428.3896,241.9609,418.3896,245.9609,422.3896,241.9609" style="stroke:#181818;stroke-width:1;"/><line style="stroke:#181818;stroke-width:1;" x1="107.5151" x2="424.3896" y1="241.9609" y2="241.9609"/><text fill="#000000" font-family="sans-serif" font-size="13" lengthAdjust="spacing" textLength="82.5068" x="114.5151" y="236.895">Create order</text></g><g class="message" data-participant-1="Restaurant" data-participant-2="App"><polygon fill="#181818" points="118.5151,267.0938,108.5151,271.0938,118.5151,275.0938,114.5151,271.0938" style="stroke:#181818;stroke-width:1;"/><line style="stroke:#181818;stroke-width:1;" x1="112.5151" x2="429.3896" y1="271.0938" y2="271.0938"/><text fill="#000000" font-family="sans-serif" font-size="13" lengthAdjust="spacing" textLength="91.1079" x="124.5151" y="266.0278">Order created</text></g><g class="message" data-participant-1="App" data-participant-2="Confirmation"><polygon fill="#181818" points="576.7739,296.2266,586.7739,300.2266,576.7739,304.2266,580.7739,300.2266" style="stroke:#181818;stroke-width:1;"/><line style="stroke:#181818;stroke-width:1;" x1="107.5151" x2="582.7739" y1="300.2266" y2="300.2266"/><text fill="#000000" font-family="sans-serif" font-size="13" lengthAdjust="spacing" textLength="130.4888" x="114.5151" y="295.1606">Return confirmation</text></g><g class="message" data-participant-1="Confirmation" data-participant-2="User"><polygon fill="#181818" points="34.9551,325.3594,24.9551,329.3594,34.9551,333.3594,30.9551,329.3594" style="stroke:#181818;stroke-width:1;"/><line style="stroke:#181818;stroke-width:1;" x1="28.9551" x2="587.7739" y1="329.3594" y2="329.3594"/><text fill="#000000" font-family="sans-serif" font-size="13" lengthAdjust="spacing" textLength="134.4561" x="40.9551" y="324.2935">Display confirmation</text></g><!--SRC=[PO_12i8m38RlVOhWtHVOGH05BuAY-02XYr3Ssf9bojxUT5jTXwUcoPS__uzM0iEZ8pOHMPnr4Rt0PX_Z1h03VTU3AmujQN52eGyE8pJNQ_16dM3FgRuJlvsbaLtQQ_p2DJ4SWdywRb5Sy2DUDen9Fc6xIwugE0Vx0giQHh__NN1UY3qspP21sMUbgcriI0ZYbCRCavzAJcdByxFAaa25c7GJGZ9lYiHPPqfbHwhE0cMcIkMaPx- -L19f8-MkuEYwsAZ94lq2]--></g></svg>