<svg xmlns="http://www.w3.org/2000/svg" xmlns:xlink="http://www.w3.org/1999/xlink" contentStyleType="text/css" data-diagram-type="SEQUENCE" height="473px" preserveAspectRatio="none" style="width:684px;height:473px;background:#FFFFFF;" version="1.1" viewBox="0 0 684 473" width="684px" zoomAndPan="magnify"><defs/><g><g><title>User</title><rect fill="#000000" fill-opacity="0.00000" height="311.3281" width="8" x="19.9551" y="81.2969"/><line style="stroke:#181818;stroke-width:0.5;stroke-dasharray:5,5;" x1="23" x2="23" y1="81.2969" y2="392.625"/></g><g><title>App</title><rect fill="#000000" fill-opacity="0.00000" height="311.3281" width="8" x="285.439" y="81.2969"/><line style="stroke:#181818;stroke-width:0.5;stroke-dasharray:5,5;" x1="288.7637" x2="288.7637" y1="81.2969" y2="392.625"/></g><g><title>Restaurant Service</title><rect fill="#000000" fill-opacity="0.00000" height="311.3281" width="8" x="490.6011" y="81.2969"/><line style="stroke:#181818;stroke-width:0.5;stroke-dasharray:5,5;" x1="493.8687" x2="493.8687" y1="81.2969" y2="392.625"/></g><g><title>Cart Service</title><rect fill="#000000" fill-opacity="0.00000" height="311.3281" width="8" x="624.229" y="81.2969"/><line style="stroke:#181818;stroke-width:0.5;stroke-dasharray:5,5;" x1="627.3335" x2="627.3335" y1="81.2969" y2="392.625"/></g><g class="participant participant-head" data-participant="User"><text fill="#000000" font-family="sans-serif" font-size="14" lengthAdjust="spacing" textLength="31.9102" x="5" y="77.9951">User</text><ellipse cx="23.9551" cy="13.5" fill="#E2E2F0" rx="8" ry="8" style="stroke:#181818;stroke-width:0.5;"/><path d="M23.9551,21.5 L23.9551,48.5 M10.9551,29.5 L36.9551,29.5 M23.9551,48.5 L10.9551,63.5 M23.9551,48.5 L36.9551,63.5" fill="none" style="stroke:#181818;stroke-width:0.5;"/></g><g class="participant participant-tail" data-participant="User"><text fill="#000000" font-family="sans-serif" font-size="14" lengthAdjust="spacing" textLength="31.9102" x="5" y="404.6201">User</text><ellipse cx="23.9551" cy="416.4219" fill="#E2E2F0" rx="8" ry="8" style="stroke:#181818;stroke-width:0.5;"/><path d="M23.9551,424.4219 L23.9551,451.4219 M10.9551,432.4219 L36.9551,432.4219 M23.9551,451.4219 L10.9551,466.4219 M23.9551,451.4219 L36.9551,466.4219" fill="none" style="stroke:#181818;stroke-width:0.5;"/></g><g class="participant participant-head" data-participant="App"><rect fill="#E2E2F0" height="30.2969" rx="2.5" ry="2.5" style="stroke:#181818;stroke-width:0.5;" width="41.3506" x="268.7637" y="50"/><text fill="#000000" font-family="sans-serif" font-size="14" lengthAdjust="spacing" textLength="27.3506" x="275.7637" y="69.9951">App</text></g><g class="participant participant-tail" data-participant="App"><rect fill="#E2E2F0" height="30.2969" rx="2.5" ry="2.5" style="stroke:#181818;stroke-width:0.5;" width="41.3506" x="268.7637" y="391.625"/><text fill="#000000" font-family="sans-serif" font-size="14" lengthAdjust="spacing" textLength="27.3506" x="275.7637" y="411.6201">App</text></g><g class="participant participant-head" data-participant="RS"><rect fill="#E2E2F0" height="30.2969" rx="2.5" ry="2.5" style="stroke:#181818;stroke-width:0.5;" width="147.4648" x="420.8687" y="50"/><text fill="#000000" font-family="sans-serif" font-size="14" lengthAdjust="spacing" textLength="133.4648" x="427.8687" y="69.9951">Restaurant Service</text></g><g class="participant participant-tail" data-participant="RS"><rect fill="#E2E2F0" height="30.2969" rx="2.5" ry="2.5" style="stroke:#181818;stroke-width:0.5;" width="147.4648" x="420.8687" y="391.625"/><text fill="#000000" font-family="sans-serif" font-size="14" lengthAdjust="spacing" textLength="133.4648" x="427.8687" y="411.6201">Restaurant Service</text></g><g class="participant participant-head" data-participant="CS"><rect fill="#E2E2F0" height="30.2969" rx="2.5" ry="2.5" style="stroke:#181818;stroke-width:0.5;" width="99.791" x="578.3335" y="50"/><text fill="#000000" font-family="sans-serif" font-size="14" lengthAdjust="spacing" textLength="85.791" x="585.3335" y="69.9951">Cart Service</text></g><g class="participant participant-tail" data-participant="CS"><rect fill="#E2E2F0" height="30.2969" rx="2.5" ry="2.5" style="stroke:#181818;stroke-width:0.5;" width="99.791" x="578.3335" y="391.625"/><text fill="#000000" font-family="sans-serif" font-size="14" lengthAdjust="spacing" textLength="85.791" x="585.3335" y="411.6201">Cart Service</text></g><g class="message" data-participant-1="User" data-participant-2="App"><polygon fill="#181818" points="277.439,108.4297,287.439,112.4297,277.439,116.4297,281.439,112.4297" style="stroke:#181818;stroke-width:1;"/><line style="stroke:#181818;stroke-width:1;" x1="23.9551" x2="283.439" y1="112.4297" y2="112.4297"/><text fill="#000000" font-family="sans-serif" font-size="13" lengthAdjust="spacing" textLength="155.7842" x="30.9551" y="107.3638">Initiate clone past order</text></g><g class="message" data-participant-1="App" data-participant-2="RS"><polygon fill="#181818" points="482.6011,137.5625,492.6011,141.5625,482.6011,145.5625,486.6011,141.5625" style="stroke:#181818;stroke-width:1;"/><line style="stroke:#181818;stroke-width:1;" x1="289.439" x2="488.6011" y1="141.5625" y2="141.5625"/><text fill="#000000" font-family="sans-serif" font-size="13" lengthAdjust="spacing" textLength="172.0786" x="296.439" y="136.4966">Request past order details</text></g><g class="message" data-participant-1="RS" data-participant-2="App"><polygon fill="#181818" points="300.439,166.6953,290.439,170.6953,300.439,174.6953,296.439,170.6953" style="stroke:#181818;stroke-width:1;"/><line style="stroke:#181818;stroke-width:1;" x1="294.439" x2="493.6011" y1="170.6953" y2="170.6953"/><text fill="#000000" font-family="sans-serif" font-size="13" lengthAdjust="spacing" textLength="162.6396" x="306.439" y="165.6294">Return past order details</text></g><g class="message" data-participant-1="App" data-participant-2="RS"><polygon fill="#181818" points="482.6011,195.8281,492.6011,199.8281,482.6011,203.8281,486.6011,199.8281" style="stroke:#181818;stroke-width:1;"/><line style="stroke:#181818;stroke-width:1;" x1="289.439" x2="488.6011" y1="199.8281" y2="199.8281"/><text fill="#000000" font-family="sans-serif" font-size="13" lengthAdjust="spacing" textLength="109.5034" x="296.439" y="194.7622">Revalidate items</text></g><g class="message" data-participant-1="RS" data-participant-2="App"><polygon fill="#181818" points="300.439,224.9609,290.439,228.9609,300.439,232.9609,296.439,228.9609" style="stroke:#181818;stroke-width:1;"/><line style="stroke:#181818;stroke-width:1;" x1="294.439" x2="493.6011" y1="228.9609" y2="228.9609"/><text fill="#000000" font-family="sans-serif" font-size="13" lengthAdjust="spacing" textLength="160.0562" x="306.439" y="223.895">Return validation results</text></g><g class="message" data-participant-1="App" data-participant-2="RS"><polygon fill="#181818" points="482.6011,254.0938,492.6011,258.0938,482.6011,262.0938,486.6011,258.0938" style="stroke:#181818;stroke-width:1;"/><line style="stroke:#181818;stroke-width:1;" x1="289.439" x2="488.6011" y1="258.0938" y2="258.0938"/><text fill="#000000" font-family="sans-serif" font-size="13" lengthAdjust="spacing" textLength="181.1621" x="296.439" y="253.0278">Request recalculated prices</text></g><g class="message" data-participant-1="RS" data-participant-2="App"><polygon fill="#181818" points="300.439,283.2266,290.439,287.2266,300.439,291.2266,296.439,287.2266" style="stroke:#181818;stroke-width:1;"/><line style="stroke:#181818;stroke-width:1;" x1="294.439" x2="493.6011" y1="287.2266" y2="287.2266"/><text fill="#000000" font-family="sans-serif" font-size="13" lengthAdjust="spacing" textLength="171.7231" x="306.439" y="282.1606">Return recalculated prices</text></g><g class="message" data-participant-1="App" data-participant-2="CS"><polygon fill="#181818" points="616.229,312.3594,626.229,316.3594,616.229,320.3594,620.229,316.3594" style="stroke:#181818;stroke-width:1;"/><line style="stroke:#181818;stroke-width:1;" x1="289.439" x2="622.229" y1="316.3594" y2="316.3594"/><text fill="#000000" font-family="sans-serif" font-size="13" lengthAdjust="spacing" textLength="119.9897" x="296.439" y="311.2935">Fill cart with items</text></g><g class="message" data-participant-1="CS" data-participant-2="App"><polygon fill="#181818" points="300.439,341.4922,290.439,345.4922,300.439,349.4922,296.439,345.4922" style="stroke:#181818;stroke-width:1;"/><line style="stroke:#181818;stroke-width:1;" x1="294.439" x2="627.229" y1="345.4922" y2="345.4922"/><text fill="#000000" font-family="sans-serif" font-size="13" lengthAdjust="spacing" textLength="180.6226" x="306.439" y="340.4263">Confirmation of cart update</text></g><g class="message" data-participant-1="App" data-participant-2="User"><polygon fill="#181818" points="34.9551,370.625,24.9551,374.625,34.9551,378.625,30.9551,374.625" style="stroke:#181818;stroke-width:1;"/><line style="stroke:#181818;stroke-width:1;" x1="28.9551" x2="288.439" y1="374.625" y2="374.625"/><text fill="#000000" font-family="sans-serif" font-size="13" lengthAdjust="spacing" textLength="241.4839" x="40.9551" y="369.5591">Notify order cloned and cart updated</text></g><!--SRC=[RP31QWGX38RlynHXxts1EHIAKEYb1wKF43H30wxQ67VfsrTtfjkTCYULV7xv4_IQ1JugoLHGb3qNJ0gdbr9EW1NwkIzOgefDnjsHNDZJZRDkZvd-s076JTDe0q_FGph3Ms9bL08VSo8eM1MoX1wabmTbtGoMlbfl-525G8eSwsJTNML9cwGZQE-wOEGmMhBI-SYm0PmJ2DKMzRzXJIFaCVeMkof0aJxYaUo8-hMPRdlb6C6FFLrPFxTCvazZSbfOpckSlAneAsE0ksTiT8RthBnyRwFVrXa0KtZy4Nu0]--></g></svg>