<svg xmlns="http://www.w3.org/2000/svg" xmlns:xlink="http://www.w3.org/1999/xlink" contentStyleType="text/css" data-diagram-type="DESCRIPTION" height="352px" preserveAspectRatio="none" style="width:2001px;height:352px;background:#FFFFFF;" version="1.1" viewBox="0 0 2001 352" width="2001px" zoomAndPan="magnify"><defs/><g><!--entity restaurantOperator--><g class="entity" data-entity="restaurantOperator" data-source-line="1" data-uid="ent0002" id="entity_restaurantOperator"><ellipse cx="1489.7343" cy="14" fill="#F1F1F1" rx="8" ry="8" style="stroke:#181818;stroke-width:0.5;"/><path d="M1489.7343,22 L1489.7343,49 M1476.7343,30 L1502.7343,30 M1489.7343,49 L1476.7343,64 M1489.7343,49 L1502.7343,64" fill="none" style="stroke:#181818;stroke-width:0.5;"/><text fill="#000000" font-family="sans-serif" font-size="14" lengthAdjust="spacing" textLength="144.3887" x="1417.54" y="78.4951">Restaurant Operator</text></g><!--entity deliveryServiceProvider--><g class="entity" data-entity="deliveryServiceProvider" data-source-line="2" data-uid="ent0003" id="entity_deliveryServiceProvider"><ellipse cx="1798.7341" cy="14" fill="#F1F1F1" rx="8" ry="8" style="stroke:#181818;stroke-width:0.5;"/><path d="M1798.7341,22 L1798.7341,49 M1785.7341,30 L1811.7341,30 M1798.7341,49 L1785.7341,64 M1798.7341,49 L1811.7341,64" fill="none" style="stroke:#181818;stroke-width:0.5;"/><text fill="#000000" font-family="sans-serif" font-size="14" lengthAdjust="spacing" textLength="176.9482" x="1710.26" y="78.4951">Delivery Service Provider</text></g><!--entity registeredCustomer--><g class="entity" data-entity="registeredCustomer" data-source-line="3" data-uid="ent0004" id="entity_registeredCustomer"><ellipse cx="918.7318" cy="14" fill="#F1F1F1" rx="8" ry="8" style="stroke:#181818;stroke-width:0.5;"/><path d="M918.7318,22 L918.7318,49 M905.7318,30 L931.7318,30 M918.7318,49 L905.7318,64 M918.7318,49 L931.7318,64" fill="none" style="stroke:#181818;stroke-width:0.5;"/><text fill="#000000" font-family="sans-serif" font-size="14" lengthAdjust="spacing" textLength="148.2236" x="844.62" y="78.4951">Registered Customer</text></g><!--entity mapProvider--><g class="entity" data-entity="mapProvider" data-source-line="4" data-uid="ent0005" id="entity_mapProvider"><ellipse cx="482.7315" cy="279.09" fill="#F1F1F1" rx="8" ry="8" style="stroke:#181818;stroke-width:0.5;"/><path d="M482.7315,287.09 L482.7315,314.09 M469.7315,295.09 L495.7315,295.09 M482.7315,314.09 L469.7315,329.09 M482.7315,314.09 L495.7315,329.09" fill="none" style="stroke:#181818;stroke-width:0.5;"/><text fill="#000000" font-family="sans-serif" font-size="14" lengthAdjust="spacing" textLength="195.583" x="384.94" y="343.5851">Map &amp; Geolocation Provider</text></g><!--entity updateOrderStates--><g class="entity" data-entity="updateOrderStates" data-source-line="6" data-uid="ent0006" id="entity_updateOrderStates"><ellipse cx="1489.7316" cy="168.2043" fill="#F1F1F1" rx="85.7216" ry="19.5443" style="stroke:#181818;stroke-width:0.5;"/><text fill="#000000" font-family="sans-serif" font-size="14" lengthAdjust="spacing" textLength="143.9854" x="1417.739" y="172.8528">Update Order States</text></g><!--entity publishCourierGPS--><g class="entity" data-entity="publishCourierGPS" data-source-line="7" data-uid="ent0007" id="entity_publishCourierGPS"><ellipse cx="1693.7267" cy="168.1953" fill="#F1F1F1" rx="83.3267" ry="19.0653" style="stroke:#181818;stroke-width:0.5;"/><text fill="#000000" font-family="sans-serif" font-size="14" lengthAdjust="spacing" textLength="138.4551" x="1624.4992" y="172.8438">Publish Courier GPS</text></g><!--entity publishContactPhone--><g class="entity" data-entity="publishContactPhone" data-source-line="8" data-uid="ent0008" id="entity_publishContactPhone"><ellipse cx="1903.7319" cy="168.1984" fill="#F1F1F1" rx="91.3919" ry="20.6784" style="stroke:#181818;stroke-width:0.5;"/><text fill="#000000" font-family="sans-serif" font-size="14" lengthAdjust="spacing" textLength="156.8848" x="1825.2895" y="172.8468">Publish Contact Phone</text></g><!--entity viewOrderStatus--><g class="entity" data-entity="viewOrderStatus" data-source-line="9" data-uid="ent0009" id="entity_viewOrderStatus"><ellipse cx="712.7291" cy="168.1998" fill="#F1F1F1" rx="107.0491" ry="23.8098" style="stroke:#181818;stroke-width:0.5;"/><text fill="#000000" font-family="sans-serif" font-size="14" lengthAdjust="spacing" textLength="191.4814" x="616.9884" y="172.8483">View Order Status Timeline</text></g><!--entity liveCourierTracking--><g class="entity" data-entity="liveCourierTracking" data-source-line="10" data-uid="ent0010" id="entity_liveCourierTracking"><ellipse cx="482.728" cy="168.1976" fill="#F1F1F1" rx="87.938" ry="19.9876" style="stroke:#181818;stroke-width:0.5;"/><text fill="#000000" font-family="sans-serif" font-size="14" lengthAdjust="spacing" textLength="149.0576" x="408.1992" y="172.846">Live Courier Tracking</text></g><!--entity callCourier--><g class="entity" data-entity="callCourier" data-source-line="11" data-uid="ent0011" id="entity_callCourier"><ellipse cx="66.7343" cy="168.1969" fill="#F1F1F1" rx="60.7343" ry="14.5469" style="stroke:#181818;stroke-width:0.5;"/><text fill="#000000" font-family="sans-serif" font-size="14" lengthAdjust="spacing" textLength="81.8125" x="25.828" y="172.8453">Call Courier</text></g><!--entity cancelOrder--><g class="entity" data-entity="cancelOrder" data-source-line="12" data-uid="ent0012" id="entity_cancelOrder"><ellipse cx="918.7346" cy="168.2029" fill="#F1F1F1" rx="64.4146" ry="15.2829" style="stroke:#181818;stroke-width:0.5;"/><text fill="#000000" font-family="sans-serif" font-size="14" lengthAdjust="spacing" textLength="91.9092" x="872.78" y="172.8514">Cancel Order</text></g><!--entity reorder--><g class="entity" data-entity="reorder" data-source-line="13" data-uid="ent0013" id="entity_reorder"><ellipse cx="1060.73" cy="168.2036" fill="#F1F1F1" rx="42.54" ry="14.5236" style="stroke:#181818;stroke-width:0.5;"/><text fill="#000000" font-family="sans-serif" font-size="14" lengthAdjust="spacing" textLength="55.918" x="1032.771" y="172.8521">Reorder</text></g><!--entity realTimeNotifications--><g class="entity" data-entity="realTimeNotifications" data-source-line="14" data-uid="ent0014" id="entity_realTimeNotifications"><ellipse cx="1253.7272" cy="168.1974" fill="#F1F1F1" rx="114.9872" ry="25.3974" style="stroke:#181818;stroke-width:0.5;"/><text fill="#000000" font-family="sans-serif" font-size="14" lengthAdjust="spacing" textLength="208.626" x="1149.4142" y="172.8459">Real-time Status Notifications</text></g><!--link restaurantOperator to updateOrderStates--><g class="link" data-entity-1="restaurantOperator" data-entity-2="updateOrderStates" data-source-line="16" data-uid="lnk15" id="link_restaurantOperator_updateOrderStates"><path d="M1489.73,82.08 C1489.73,104.04 1489.73,124.85 1489.73,142.43" fill="none" id="restaurantOperator-to-updateOrderStates" style="stroke:#181818;stroke-width:1;"/><polygon fill="#181818" points="1489.73,148.43,1493.73,139.43,1489.73,143.43,1485.73,139.43,1489.73,148.43" style="stroke:#181818;stroke-width:1;"/></g><!--link deliveryServiceProvider to publishCourierGPS--><g class="link" data-entity-1="deliveryServiceProvider" data-entity-2="publishCourierGPS" data-source-line="17" data-uid="lnk16" id="link_deliveryServiceProvider_publishCourierGPS"><path d="M1766.66,82.08 C1747.6,104.33 1728.1935,126.9734 1713.1335,144.5534" fill="none" id="deliveryServiceProvider-to-publishCourierGPS" style="stroke:#181818;stroke-width:1;"/><polygon fill="#181818" points="1709.23,149.11,1718.123,144.8774,1712.4829,145.3128,1712.0474,139.6727,1709.23,149.11" style="stroke:#181818;stroke-width:1;"/></g><!--link deliveryServiceProvider to publishContactPhone--><g class="link" data-entity-1="deliveryServiceProvider" data-entity-2="publishContactPhone" data-source-line="18" data-uid="lnk17" id="link_deliveryServiceProvider_publishContactPhone"><path d="M1830.81,82.08 C1849.26,103.62 1867.8063,125.2635 1882.8763,142.8535" fill="none" id="deliveryServiceProvider-to-publishContactPhone" style="stroke:#181818;stroke-width:1;"/><polygon fill="#181818" points="1886.78,147.41,1883.9621,137.9729,1883.5269,143.613,1877.8868,143.1778,1886.78,147.41" style="stroke:#181818;stroke-width:1;"/></g><!--link registeredCustomer to viewOrderStatus--><g class="link" data-entity-1="registeredCustomer" data-entity-2="viewOrderStatus" data-source-line="19" data-uid="lnk18" id="link_registeredCustomer_viewOrderStatus"><path d="M855.53,82.25 C820.76,102.94 783.9861,124.8016 754.5961,142.2916" fill="none" id="registeredCustomer-to-viewOrderStatus" style="stroke:#181818;stroke-width:1;"/><polygon fill="#181818" points="749.44,145.36,759.2197,144.1948,753.7367,142.803,755.1285,137.3201,749.44,145.36" style="stroke:#181818;stroke-width:1;"/></g><!--link registeredCustomer to liveCourierTracking--><g class="link" data-entity-1="registeredCustomer" data-entity-2="liveCourierTracking" data-source-line="20" data-uid="lnk19" id="link_registeredCustomer_liveCourierTracking"><path d="M844.28,65.58 C756.84,90.15 619.7263,128.6969 542.3563,150.4369" fill="none" id="registeredCustomer-to-liveCourierTracking" style="stroke:#181818;stroke-width:1;"/><polygon fill="#181818" points="536.58,152.06,546.3265,153.4763,541.3936,150.7074,544.1624,145.7745,536.58,152.06" style="stroke:#181818;stroke-width:1;"/></g><!--link registeredCustomer to cancelOrder--><g class="link" data-entity-1="registeredCustomer" data-entity-2="cancelOrder" data-source-line="21" data-uid="lnk20" id="link_registeredCustomer_cancelOrder"><path d="M918.73,82.08 C918.73,105.87 918.73,129.35 918.73,146.63" fill="none" id="registeredCustomer-to-cancelOrder" style="stroke:#181818;stroke-width:1;"/><polygon fill="#181818" points="918.73,152.63,922.73,143.63,918.73,147.63,914.73,143.63,918.73,152.63" style="stroke:#181818;stroke-width:1;"/></g><!--link registeredCustomer to reorder--><g class="link" data-entity-1="registeredCustomer" data-entity-2="reorder" data-source-line="22" data-uid="lnk21" id="link_registeredCustomer_reorder"><path d="M962.11,82.08 C990.49,106.58 1021.317,133.1807 1041.057,150.2107" fill="none" id="registeredCustomer-to-reorder" style="stroke:#181818;stroke-width:1;"/><polygon fill="#181818" points="1045.6,154.13,1041.3984,145.2223,1041.8142,150.8639,1036.1726,151.2797,1045.6,154.13" style="stroke:#181818;stroke-width:1;"/></g><!--link registeredCustomer to realTimeNotifications--><g class="link" data-entity-1="registeredCustomer" data-entity-2="realTimeNotifications" data-source-line="23" data-uid="lnk22" id="link_registeredCustomer_realTimeNotifications"><path d="M993.08,71.85 C1054.09,94.16 1133.6351,123.2691 1189.7951,143.8091" fill="none" id="registeredCustomer-to-realTimeNotifications" style="stroke:#181818;stroke-width:1;"/><polygon fill="#181818" points="1195.43,145.87,1188.3515,139.022,1190.7342,144.1526,1185.6036,146.5352,1195.43,145.87" style="stroke:#181818;stroke-width:1;"/></g><!--link liveCourierTracking to mapProvider--><g class="link" data-entity-1="liveCourierTracking" data-entity-2="mapProvider" data-source-line="25" data-uid="lnk23" id="link_liveCourierTracking_mapProvider"><path d="M482.73,188.46 C482.73,209.5 482.73,237.72 482.73,264.13" fill="none" id="liveCourierTracking-to-mapProvider" style="stroke:#181818;stroke-width:1;"/><polygon fill="#181818" points="482.73,270.13,486.73,261.13,482.73,265.13,478.73,261.13,482.73,270.13" style="stroke:#181818;stroke-width:1;"/><text fill="#000000" font-family="sans-serif" font-size="13" lengthAdjust="spacing" textLength="171.5581" x="483.73" y="236.6569">Render Courier Movement</text></g><!--link callCourier to liveCourierTracking--><g class="link" data-entity-1="callCourier" data-entity-2="liveCourierTracking" data-source-line="26" data-uid="lnk24" id="link_callCourier_liveCourierTracking"><path d="M127.67,168.2 C197.97,168.2 308.15,168.2 388.37,168.2" fill="none" id="callCourier-to-liveCourierTracking" style="stroke:#181818;stroke-width:1;stroke-dasharray:7,7;"/><polygon fill="#181818" points="394.37,168.2,385.37,164.2,389.37,168.2,385.37,172.2,394.37,168.2" style="stroke:#181818;stroke-width:1;"/><text fill="#000000" font-family="sans-serif" font-size="13" lengthAdjust="spacing" textLength="231.7021" x="145.63" y="161.2669">Extension (Status: Out for Delivery)</text></g><!--SRC=[ZLJ9JiCm4BtdAqOv83YK3-Y1Iq6zK1grXVkGJgc5OqTU0lmzZfV4fOd4pNwBF3Dl4goDL53kI1kq2eM1RKiA7LW2Qb03dk02W-EHEEj8_S2ULCTgWah9ZXqf-8wHZMJYadb77qmRKdI4bTL6DfIUItY2asE3BTp0cYINDHecnULx3RR36uNLLACcA5_R8ng2hN8mx8qxQw-s7lTmG4TBPTyvqsTOIQkOSwshlRUq0O-mGwSimhXgeJfBGPScJtXyjBqn-ifAineEh75ZYzxEqKE5DglmsGrsAE-WiFvauiDR-f578k6ZROMS9vjNrmw8zrmbQkAXhAZg0NyVLJkIWq25SquYNnZNIchhHHfsOY4r7Jt8-sOlcAAuNZPOB1ucqfhPBg- -3kfVwYoXwoNqqh-1pCYcGfYHvhETaQJfpjAJWvoemSkphmIMVLAYFwLTsiYE6XAcBBBLWFl9bdhxqxSXeVjFyJQCP0bRQ-3aOai_Xxko-0K0]--></g></svg>