<svg xmlns="http://www.w3.org/2000/svg" xmlns:xlink="http://www.w3.org/1999/xlink" contentStyleType="text/css" data-diagram-type="SEQUENCE" height="356px" preserveAspectRatio="none" style="width:535px;height:356px;background:#FFFFFF;" version="1.1" viewBox="0 0 535 356" width="535px" zoomAndPan="magnify"><defs/><g><g><title>User</title><rect fill="#000000" fill-opacity="0.00000" height="194.7969" width="8" x="19.9551" y="81.2969"/><line style="stroke:#181818;stroke-width:0.5;stroke-dasharray:5,5;" x1="23" x2="23" y1="81.2969" y2="276.0938"/></g><g><title>App</title><rect fill="#000000" fill-opacity="0.00000" height="194.7969" width="8" x="164.7065" y="81.2969"/><line style="stroke:#181818;stroke-width:0.5;stroke-dasharray:5,5;" x1="168.0313" x2="168.0313" y1="81.2969" y2="276.0938"/></g><g><title>Restaurant Service</title><rect fill="#000000" fill-opacity="0.00000" height="194.7969" width="8" x="335.4009" y="81.2969"/><line style="stroke:#181818;stroke-width:0.5;stroke-dasharray:5,5;" x1="338.6685" x2="338.6685" y1="81.2969" y2="276.0938"/></g><g><title>Map Provider</title><rect fill="#000000" fill-opacity="0.00000" height="194.7969" width="8" x="472.228" y="81.2969"/><line style="stroke:#181818;stroke-width:0.5;stroke-dasharray:5,5;" x1="476.1333" x2="476.1333" y1="81.2969" y2="276.0938"/></g><g class="participant participant-head" data-participant="User"><text fill="#000000" font-family="sans-serif" font-size="14" lengthAdjust="spacing" textLength="31.9102" x="5" y="77.9951">User</text><ellipse cx="23.9551" cy="13.5" fill="#E2E2F0" rx="8" ry="8" style="stroke:#181818;stroke-width:0.5;"/><path d="M23.9551,21.5 L23.9551,48.5 M10.9551,29.5 L36.9551,29.5 M23.9551,48.5 L10.9551,63.5 M23.9551,48.5 L36.9551,63.5" fill="none" style="stroke:#181818;stroke-width:0.5;"/></g><g class="participant participant-tail" data-participant="User"><text fill="#000000" font-family="sans-serif" font-size="14" lengthAdjust="spacing" textLength="31.9102" x="5" y="288.0889">User</text><ellipse cx="23.9551" cy="299.8906" fill="#E2E2F0" rx="8" ry="8" style="stroke:#181818;stroke-width:0.5;"/><path d="M23.9551,307.8906 L23.9551,334.8906 M10.9551,315.8906 L36.9551,315.8906 M23.9551,334.8906 L10.9551,349.8906 M23.9551,334.8906 L36.9551,349.8906" fill="none" style="stroke:#181818;stroke-width:0.5;"/></g><g class="participant participant-head" data-participant="App"><rect fill="#E2E2F0" height="30.2969" rx="2.5" ry="2.5" style="stroke:#181818;stroke-width:0.5;" width="41.3506" x="148.0313" y="50"/><text fill="#000000" font-family="sans-serif" font-size="14" lengthAdjust="spacing" textLength="27.3506" x="155.0313" y="69.9951">App</text></g><g class="participant participant-tail" data-participant="App"><rect fill="#E2E2F0" height="30.2969" rx="2.5" ry="2.5" style="stroke:#181818;stroke-width:0.5;" width="41.3506" x="148.0313" y="275.0938"/><text fill="#000000" font-family="sans-serif" font-size="14" lengthAdjust="spacing" textLength="27.3506" x="155.0313" y="295.0889">App</text></g><g class="participant participant-head" data-participant="RestaurantService"><rect fill="#E2E2F0" height="30.2969" rx="2.5" ry="2.5" style="stroke:#181818;stroke-width:0.5;" width="147.4648" x="265.6685" y="50"/><text fill="#000000" font-family="sans-serif" font-size="14" lengthAdjust="spacing" textLength="133.4648" x="272.6685" y="69.9951">Restaurant Service</text></g><g class="participant participant-tail" data-participant="RestaurantService"><rect fill="#E2E2F0" height="30.2969" rx="2.5" ry="2.5" style="stroke:#181818;stroke-width:0.5;" width="147.4648" x="265.6685" y="275.0938"/><text fill="#000000" font-family="sans-serif" font-size="14" lengthAdjust="spacing" textLength="133.4648" x="272.6685" y="295.0889">Restaurant Service</text></g><g class="participant participant-head" data-participant="MapProvider"><rect fill="#E2E2F0" height="30.2969" rx="2.5" ry="2.5" style="stroke:#181818;stroke-width:0.5;" width="106.1895" x="423.1333" y="50"/><text fill="#000000" font-family="sans-serif" font-size="14" lengthAdjust="spacing" textLength="92.1895" x="430.1333" y="69.9951">Map Provider</text></g><g class="participant participant-tail" data-participant="MapProvider"><rect fill="#E2E2F0" height="30.2969" rx="2.5" ry="2.5" style="stroke:#181818;stroke-width:0.5;" width="106.1895" x="423.1333" y="275.0938"/><text fill="#000000" font-family="sans-serif" font-size="14" lengthAdjust="spacing" textLength="92.1895" x="430.1333" y="295.0889">Map Provider</text></g><g class="message" data-participant-1="User" data-participant-2="App"><polygon fill="#181818" points="156.7065,108.4297,166.7065,112.4297,156.7065,116.4297,160.7065,112.4297" style="stroke:#181818;stroke-width:1;"/><line style="stroke:#181818;stroke-width:1;" x1="23.9551" x2="162.7065" y1="112.4297" y2="112.4297"/><text fill="#000000" font-family="sans-serif" font-size="13" lengthAdjust="spacing" textLength="65.3936" x="30.9551" y="107.3638">Set Filters</text></g><g class="message" data-participant-1="App" data-participant-2="RestaurantService"><polygon fill="#181818" points="327.4009,137.5625,337.4009,141.5625,327.4009,145.5625,331.4009,141.5625" style="stroke:#181818;stroke-width:1;"/><line style="stroke:#181818;stroke-width:1;" x1="168.7065" x2="333.4009" y1="141.5625" y2="141.5625"/><text fill="#000000" font-family="sans-serif" font-size="13" lengthAdjust="spacing" textLength="122.167" x="175.7065" y="136.4966">Query Restaurants</text></g><g class="message" data-participant-1="RestaurantService" data-participant-2="App"><polygon fill="#181818" points="179.7065,166.6953,169.7065,170.6953,179.7065,174.6953,175.7065,170.6953" style="stroke:#181818;stroke-width:1;"/><line style="stroke:#181818;stroke-width:1;stroke-dasharray:2,2;" x1="173.7065" x2="338.4009" y1="170.6953" y2="170.6953"/><text fill="#000000" font-family="sans-serif" font-size="13" lengthAdjust="spacing" textLength="146.6943" x="185.7065" y="165.6294">Return Restaurant List</text></g><g class="message" data-participant-1="App" data-participant-2="MapProvider"><polygon fill="#181818" points="464.228,195.8281,474.228,199.8281,464.228,203.8281,468.228,199.8281" style="stroke:#181818;stroke-width:1;"/><line style="stroke:#181818;stroke-width:1;" x1="168.7065" x2="470.228" y1="199.8281" y2="199.8281"/><text fill="#000000" font-family="sans-serif" font-size="13" lengthAdjust="spacing" textLength="127.0293" x="175.7065" y="194.7622">Compute Distances</text></g><g class="message" data-participant-1="MapProvider" data-participant-2="App"><polygon fill="#181818" points="179.7065,224.9609,169.7065,228.9609,179.7065,232.9609,175.7065,228.9609" style="stroke:#181818;stroke-width:1;"/><line style="stroke:#181818;stroke-width:1;stroke-dasharray:2,2;" x1="173.7065" x2="475.228" y1="228.9609" y2="228.9609"/><text fill="#000000" font-family="sans-serif" font-size="13" lengthAdjust="spacing" textLength="111.6997" x="185.7065" y="223.895">Return Distances</text></g><g class="message" data-participant-1="App" data-participant-2="User"><polygon fill="#181818" points="34.9551,254.0938,24.9551,258.0938,34.9551,262.0938,30.9551,258.0938" style="stroke:#181818;stroke-width:1;"/><line style="stroke:#181818;stroke-width:1;" x1="28.9551" x2="167.7065" y1="258.0938" y2="258.0938"/><text fill="#000000" font-family="sans-serif" font-size="13" lengthAdjust="spacing" textLength="120.7515" x="40.9551" y="253.0278">Render Sorted List</text></g><!--SRC=[POz12iCW44NtdcB8FXV8eb1QkcgXJUW11ZCBeLKPnq1lNoSan92L-l_pZQALmF1En2OYYxCkeXTepZ4sW0dAkYzwIeAPTJyGJyxIp6tnakvlFJ32ayFaHkAPBy5wDaR7GtlIOLsn2jpSHuYJAO7c1ta7hqpygufa3X2qgx8doUmh6kukoMgldjB19NnZ5e9h0T1RIgQg3yQDMbpw4sszqaDWeN6UzGS0]--></g></svg>