<svg xmlns="http://www.w3.org/2000/svg" xmlns:xlink="http://www.w3.org/1999/xlink" contentStyleType="text/css" data-diagram-type="SEQUENCE" height="240px" preserveAspectRatio="none" style="width:390px;height:240px;background:#FFFFFF;" version="1.1" viewBox="0 0 390 240" width="390px" zoomAndPan="magnify"><defs/><g><g><title>ContentData</title><rect fill="#000000" fill-opacity="0.00000" height="78.2656" width="8" x="48.5532" y="81.2969"/><line style="stroke:#181818;stroke-width:0.5;stroke-dasharray:5,5;" x1="52" x2="52" y1="81.2969" y2="159.5625"/></g><g><title>Analysis Engine</title><rect fill="#000000" fill-opacity="0.00000" height="78.2656" width="8" x="168.1631" y="81.2969"/><line style="stroke:#181818;stroke-width:0.5;stroke-dasharray:5,5;" x1="172.1064" x2="172.1064" y1="81.2969" y2="159.5625"/></g><g><title>Marketing Team</title><rect fill="#000000" fill-opacity="0.00000" height="78.2656" width="8" x="316.1011" y="81.2969"/><line style="stroke:#181818;stroke-width:0.5;stroke-dasharray:5,5;" x1="320.0483" x2="320.0483" y1="81.2969" y2="159.5625"/></g><g class="participant participant-head" data-participant="ContentData"><text fill="#000000" font-family="sans-serif" font-size="14" lengthAdjust="spacing" textLength="89.1064" x="5" y="77.9951">ContentData</text><ellipse cx="52.5532" cy="13.5" fill="#E2E2F0" rx="8" ry="8" style="stroke:#181818;stroke-width:0.5;"/><path d="M52.5532,21.5 L52.5532,48.5 M39.5532,29.5 L65.5532,29.5 M52.5532,48.5 L39.5532,63.5 M52.5532,48.5 L65.5532,63.5" fill="none" style="stroke:#181818;stroke-width:0.5;"/></g><g class="participant participant-tail" data-participant="ContentData"><text fill="#000000" font-family="sans-serif" font-size="14" lengthAdjust="spacing" textLength="89.1064" x="5" y="171.5576">ContentData</text><ellipse cx="52.5532" cy="183.3594" fill="#E2E2F0" rx="8" ry="8" style="stroke:#181818;stroke-width:0.5;"/><path d="M52.5532,191.3594 L52.5532,218.3594 M39.5532,199.3594 L65.5532,199.3594 M52.5532,218.3594 L39.5532,233.3594 M52.5532,218.3594 L65.5532,233.3594" fill="none" style="stroke:#181818;stroke-width:0.5;"/></g><g class="participant participant-head" data-participant="AE"><rect fill="#E2E2F0" height="30.2969" rx="2.5" ry="2.5" style="stroke:#181818;stroke-width:0.5;" width="124.1133" x="110.1064" y="50"/><text fill="#000000" font-family="sans-serif" font-size="14" lengthAdjust="spacing" textLength="110.1133" x="117.1064" y="69.9951">Analysis Engine</text></g><g class="participant participant-tail" data-participant="AE"><rect fill="#E2E2F0" height="30.2969" rx="2.5" ry="2.5" style="stroke:#181818;stroke-width:0.5;" width="124.1133" x="110.1064" y="158.5625"/><text fill="#000000" font-family="sans-serif" font-size="14" lengthAdjust="spacing" textLength="110.1133" x="117.1064" y="178.5576">Analysis Engine</text></g><g class="participant participant-head" data-participant="MT"><rect fill="#E2E2F0" height="30.2969" rx="2.5" ry="2.5" style="stroke:#181818;stroke-width:0.5;" width="128.1055" x="256.0483" y="50"/><text fill="#000000" font-family="sans-serif" font-size="14" lengthAdjust="spacing" textLength="114.1055" x="263.0483" y="69.9951">Marketing Team</text></g><g class="participant participant-tail" data-participant="MT"><rect fill="#E2E2F0" height="30.2969" rx="2.5" ry="2.5" style="stroke:#181818;stroke-width:0.5;" width="128.1055" x="256.0483" y="158.5625"/><text fill="#000000" font-family="sans-serif" font-size="14" lengthAdjust="spacing" textLength="114.1055" x="263.0483" y="178.5576">Marketing Team</text></g><g class="message" data-participant-1="ContentData" data-participant-2="AE"><polygon fill="#181818" points="160.1631,108.4297,170.1631,112.4297,160.1631,116.4297,164.1631,112.4297" style="stroke:#181818;stroke-width:1;"/><line style="stroke:#181818;stroke-width:1;" x1="52.5532" x2="166.1631" y1="112.4297" y2="112.4297"/><text fill="#000000" font-family="sans-serif" font-size="13" lengthAdjust="spacing" textLength="66.1553" x="59.5532" y="107.3638">Send data</text></g><g class="message" data-participant-1="AE" data-participant-2="MT"><polygon fill="#181818" points="308.1011,137.5625,318.1011,141.5625,308.1011,145.5625,312.1011,141.5625" style="stroke:#181818;stroke-width:1;"/><line style="stroke:#181818;stroke-width:1;" x1="172.1631" x2="314.1011" y1="141.5625" y2="141.5625"/><text fill="#000000" font-family="sans-serif" font-size="13" lengthAdjust="spacing" textLength="123.938" x="179.1631" y="136.4966">Analyze and report</text></g><!--SRC=[LOqn3iCm30DtluB8dWzaA60q7ZtL7n0I8H3QoeQifNrzaqpfIXvvj7WrtAiwgy_a51gPooADr354fTUdIqVIJPG7K4TC_qmcUxABRYXCxnF99OJB9yRRlfhmO5sn7fAOZYoN2QVXow2zCcxL_0S0]--></g></svg>