<svg xmlns="http://www.w3.org/2000/svg" xmlns:xlink="http://www.w3.org/1999/xlink" contentStyleType="text/css" data-diagram-type="SEQUENCE" height="487px" preserveAspectRatio="none" style="width:450px;height:487px;background:#FFFFFF;" version="1.1" viewBox="0 0 450 487" width="450px" zoomAndPan="magnify"><defs/><g><rect fill="none" height="190.6016" style="stroke:#000000;stroke-width:1.5;" width="358.4351" x="10" y="198.6953"/><g><title>User</title><rect fill="#000000" fill-opacity="0.00000" height="325" width="8" x="34.9551" y="81.2969"/><line style="stroke:#181818;stroke-width:0.5;stroke-dasharray:5,5;" x1="38" x2="38" y1="81.2969" y2="406.2969"/></g><g><title>App</title><rect fill="#000000" fill-opacity="0.00000" height="325" width="8" x="170.02" y="81.2969"/><line style="stroke:#181818;stroke-width:0.5;stroke-dasharray:5,5;" x1="173.3447" x2="173.3447" y1="81.2969" y2="406.2969"/></g><g><title>Auth Service</title><rect fill="#000000" fill-opacity="0.00000" height="325" width="8" x="302.9331" y="81.2969"/><line style="stroke:#181818;stroke-width:0.5;stroke-dasharray:5,5;" x1="306.4312" x2="306.4312" y1="81.2969" y2="406.2969"/></g><g class="participant participant-head" data-participant="User"><text fill="#000000" font-family="sans-serif" font-size="14" lengthAdjust="spacing" textLength="31.9102" x="20" y="77.9951">User</text><ellipse cx="38.9551" cy="13.5" fill="#E2E2F0" rx="8" ry="8" style="stroke:#181818;stroke-width:0.5;"/><path d="M38.9551,21.5 L38.9551,48.5 M25.9551,29.5 L51.9551,29.5 M38.9551,48.5 L25.9551,63.5 M38.9551,48.5 L51.9551,63.5" fill="none" style="stroke:#181818;stroke-width:0.5;"/></g><g class="participant participant-tail" data-participant="User"><text fill="#000000" font-family="sans-serif" font-size="14" lengthAdjust="spacing" textLength="31.9102" x="20" y="418.292">User</text><ellipse cx="38.9551" cy="430.0938" fill="#E2E2F0" rx="8" ry="8" style="stroke:#181818;stroke-width:0.5;"/><path d="M38.9551,438.0938 L38.9551,465.0938 M25.9551,446.0938 L51.9551,446.0938 M38.9551,465.0938 L25.9551,480.0938 M38.9551,465.0938 L51.9551,480.0938" fill="none" style="stroke:#181818;stroke-width:0.5;"/></g><g class="participant participant-head" data-participant="App"><rect fill="#E2E2F0" height="30.2969" rx="2.5" ry="2.5" style="stroke:#181818;stroke-width:0.5;" width="41.3506" x="153.3447" y="50"/><text fill="#000000" font-family="sans-serif" font-size="14" lengthAdjust="spacing" textLength="27.3506" x="160.3447" y="69.9951">App</text></g><g class="participant participant-tail" data-participant="App"><rect fill="#E2E2F0" height="30.2969" rx="2.5" ry="2.5" style="stroke:#181818;stroke-width:0.5;" width="41.3506" x="153.3447" y="405.2969"/><text fill="#000000" font-family="sans-serif" font-size="14" lengthAdjust="spacing" textLength="27.3506" x="160.3447" y="425.292">App</text></g><g class="participant participant-head" data-participant="AuthService"><rect fill="#E2E2F0" height="30.2969" rx="2.5" ry="2.5" style="stroke:#181818;stroke-width:0.5;" width="103.0039" x="255.4312" y="50"/><text fill="#000000" font-family="sans-serif" font-size="14" lengthAdjust="spacing" textLength="89.0039" x="262.4312" y="69.9951">Auth Service</text></g><g class="participant participant-tail" data-participant="AuthService"><rect fill="#E2E2F0" height="30.2969" rx="2.5" ry="2.5" style="stroke:#181818;stroke-width:0.5;" width="103.0039" x="255.4312" y="405.2969"/><text fill="#000000" font-family="sans-serif" font-size="14" lengthAdjust="spacing" textLength="89.0039" x="262.4312" y="425.292">Auth Service</text></g><g class="message" data-participant-1="User" data-participant-2="App"><polygon fill="#181818" points="162.02,108.4297,172.02,112.4297,162.02,116.4297,166.02,112.4297" style="stroke:#181818;stroke-width:1;"/><line style="stroke:#181818;stroke-width:1;" x1="38.9551" x2="168.02" y1="112.4297" y2="112.4297"/><text fill="#000000" font-family="sans-serif" font-size="13" lengthAdjust="spacing" textLength="111.0649" x="45.9551" y="107.3638">Enter credentials</text></g><g class="message" data-participant-1="App" data-participant-2="AuthService"><polygon fill="#181818" points="294.9331,137.5625,304.9331,141.5625,294.9331,145.5625,298.9331,141.5625" style="stroke:#181818;stroke-width:1;"/><line style="stroke:#181818;stroke-width:1;" x1="174.02" x2="300.9331" y1="141.5625" y2="141.5625"/><text fill="#000000" font-family="sans-serif" font-size="13" lengthAdjust="spacing" textLength="108.9131" x="181.02" y="136.4966">Send credentials</text></g><g class="message" data-participant-1="AuthService" data-participant-2="AuthService"><line style="stroke:#181818;stroke-width:1;" x1="306.9331" x2="348.9331" y1="170.6953" y2="170.6953"/><line style="stroke:#181818;stroke-width:1;" x1="348.9331" x2="348.9331" y1="170.6953" y2="183.6953"/><line style="stroke:#181818;stroke-width:1;" x1="307.9331" x2="348.9331" y1="183.6953" y2="183.6953"/><polygon fill="#181818" points="317.9331,179.6953,307.9331,183.6953,317.9331,187.6953,313.9331,183.6953" style="stroke:#181818;stroke-width:1;"/><text fill="#000000" font-family="sans-serif" font-size="13" lengthAdjust="spacing" textLength="129.5684" x="313.9331" y="165.6294">Validate credentials</text></g><path d="M10,198.6953 L74.4429,198.6953 L74.4429,205.8281 L64.4429,215.8281 L10,215.8281 L10,198.6953" fill="#EEEEEE" style="stroke:#000000;stroke-width:1.5;"/><rect fill="none" height="190.6016" style="stroke:#000000;stroke-width:1.5;" width="358.4351" x="10" y="198.6953"/><text fill="#000000" font-family="sans-serif" font-size="13" font-weight="bold" lengthAdjust="spacing" textLength="19.4429" x="25" y="211.7622">alt</text><text fill="#000000" font-family="sans-serif" font-size="11" font-weight="bold" lengthAdjust="spacing" textLength="114.7856" x="89.4429" y="210.9058">[Credentials valid]</text><g class="message" data-participant-1="AuthService" data-participant-2="App"><polygon fill="#181818" points="185.02,232.9609,175.02,236.9609,185.02,240.9609,181.02,236.9609" style="stroke:#181818;stroke-width:1;"/><line style="stroke:#181818;stroke-width:1;" x1="179.02" x2="305.9331" y1="236.9609" y2="236.9609"/><text fill="#000000" font-family="sans-serif" font-size="13" lengthAdjust="spacing" textLength="74.5659" x="191.02" y="231.895">Issue token</text></g><g class="message" data-participant-1="App" data-participant-2="User"><polygon fill="#181818" points="49.9551,262.0938,39.9551,266.0938,49.9551,270.0938,45.9551,266.0938" style="stroke:#181818;stroke-width:1;"/><line style="stroke:#181818;stroke-width:1;" x1="43.9551" x2="173.02" y1="266.0938" y2="266.0938"/><text fill="#000000" font-family="sans-serif" font-size="13" lengthAdjust="spacing" textLength="99.8359" x="55.9551" y="261.0278">Token received</text></g><g class="message" data-participant-1="App" data-participant-2="App"><line style="stroke:#181818;stroke-width:1;" x1="174.02" x2="216.02" y1="295.2266" y2="295.2266"/><line style="stroke:#181818;stroke-width:1;" x1="216.02" x2="216.02" y1="295.2266" y2="308.2266"/><line style="stroke:#181818;stroke-width:1;" x1="175.02" x2="216.02" y1="308.2266" y2="308.2266"/><polygon fill="#181818" points="185.02,304.2266,175.02,308.2266,185.02,312.2266,181.02,308.2266" style="stroke:#181818;stroke-width:1;"/><text fill="#000000" font-family="sans-serif" font-size="13" lengthAdjust="spacing" textLength="110.792" x="181.02" y="290.1606">Establish session</text></g><line style="stroke:#000000;stroke-width:1;stroke-dasharray:2,2;" x1="10" x2="368.4351" y1="317.2266" y2="317.2266"/><text fill="#000000" font-family="sans-serif" font-size="11" font-weight="bold" lengthAdjust="spacing" textLength="126.3872" x="15" y="327.437">[Credentials invalid]</text><g class="message" data-participant-1="AuthService" data-participant-2="App"><polygon fill="#181818" points="185.02,348.1641,175.02,352.1641,185.02,356.1641,181.02,352.1641" style="stroke:#181818;stroke-width:1;"/><line style="stroke:#181818;stroke-width:1;" x1="179.02" x2="305.9331" y1="352.1641" y2="352.1641"/><text fill="#000000" font-family="sans-serif" font-size="13" lengthAdjust="spacing" textLength="94.7578" x="191.02" y="347.0981">Error message</text></g><g class="message" data-participant-1="App" data-participant-2="User"><polygon fill="#181818" points="49.9551,377.2969,39.9551,381.2969,49.9551,385.2969,45.9551,381.2969" style="stroke:#181818;stroke-width:1;"/><line style="stroke:#181818;stroke-width:1;" x1="43.9551" x2="173.02" y1="381.2969" y2="381.2969"/><text fill="#000000" font-family="sans-serif" font-size="13" lengthAdjust="spacing" textLength="84.0366" x="55.9551" y="376.231">Display error</text></g><!--SRC=[VL0x3i8m3Drp2gix5-Y0L447PZwxIIng4T8eTYjnUnAAL4ebihsV_MAqsYSu2oKJCIbRZXWKcXWNk6e6xU18QMHB5Q108JxOc9A7pRR4QcY3PcGJEGhAwCLa-gtEaJhF2cvfcjML-OAU7Iej0kWLTZE6iPWCvFSxghGwY0m4sjyfJ9wfKsbUmwdGaCWIZ-I-zUb7edZrB1q8YN0V37cXnN8E_zUtAUKxFt8SRxGki6U97fz0nMRoQLu0]--></g></svg>