<svg xmlns="http://www.w3.org/2000/svg" xmlns:xlink="http://www.w3.org/1999/xlink" contentStyleType="text/css" data-diagram-type="ACTIVITY" height="362px" preserveAspectRatio="none" style="width:384px;height:362px;background:#FFFFFF;" version="1.1" viewBox="0 0 384 362" width="384px" zoomAndPan="magnify"><defs/><g><ellipse cx="193.7451" cy="20" fill="#222222" rx="10" ry="10" style="stroke:#222222;stroke-width:1;"/><rect fill="#F1F1F1" height="33.9688" rx="12.5" ry="12.5" style="stroke:#181818;stroke-width:0.5;" width="132.0371" x="127.7266" y="50"/><text fill="#000000" font-family="sans-serif" font-size="12" lengthAdjust="spacing" textLength="112.0371" x="137.7266" y="71.1387">User applies filters</text><rect fill="#F1F1F1" height="33.9688" rx="12.5" ry="12.5" style="stroke:#181818;stroke-width:0.5;" width="160.0449" x="113.7227" y="103.9688"/><text fill="#000000" font-family="sans-serif" font-size="12" lengthAdjust="spacing" textLength="140.0449" x="123.7227" y="125.1074">App refines product list</text><polygon fill="#F1F1F1" points="171.0576,157.9375,216.4326,157.9375,228.4326,169.9375,216.4326,181.9375,171.0576,181.9375,159.0576,169.9375,171.0576,157.9375" style="stroke:#181818;stroke-width:0.5;"/><text fill="#000000" font-family="sans-serif" font-size="11" lengthAdjust="spacing" textLength="45.375" x="171.0576" y="173.7456">Sort by?</text><text fill="#000000" font-family="sans-serif" font-size="11" lengthAdjust="spacing" textLength="35.707" x="123.3506" y="167.3433">Rating</text><text fill="#000000" font-family="sans-serif" font-size="11" lengthAdjust="spacing" textLength="27.0273" x="228.4326" y="167.3433">Price</text><rect fill="#F1F1F1" height="33.9688" rx="12.5" ry="12.5" style="stroke:#181818;stroke-width:0.5;" width="174.166" x="11" y="191.9375"/><text fill="#000000" font-family="sans-serif" font-size="12" lengthAdjust="spacing" textLength="154.166" x="21" y="213.0762">Sort product list by rating</text><rect fill="#F1F1F1" height="33.9688" rx="12.5" ry="12.5" style="stroke:#181818;stroke-width:0.5;" width="168.4824" x="205.166" y="191.9375"/><text fill="#000000" font-family="sans-serif" font-size="12" lengthAdjust="spacing" textLength="148.4824" x="215.166" y="213.0762">Sort product list by price</text><polygon fill="#F1F1F1" points="193.7451,231.9063,205.7451,243.9063,193.7451,255.9063,181.7451,243.9063,193.7451,231.9063" style="stroke:#181818;stroke-width:0.5;"/><rect fill="#F1F1F1" height="33.9688" rx="12.5" ry="12.5" style="stroke:#181818;stroke-width:0.5;" width="158.3867" x="114.5518" y="275.9063"/><text fill="#000000" font-family="sans-serif" font-size="12" lengthAdjust="spacing" textLength="138.3867" x="124.5518" y="297.0449">Display product counts</text><ellipse cx="193.7451" cy="340.875" fill="none" rx="11" ry="11" style="stroke:#222222;stroke-width:1;"/><ellipse cx="193.7451" cy="340.875" fill="#222222" rx="6" ry="6" style="stroke:#222222;stroke-width:1;"/><line style="stroke:#181818;stroke-width:1;" x1="193.7451" x2="193.7451" y1="30" y2="50"/><polygon fill="#181818" points="189.7451,40,193.7451,50,197.7451,40,193.7451,44" style="stroke:#181818;stroke-width:1;"/><line style="stroke:#181818;stroke-width:1;" x1="193.7451" x2="193.7451" y1="83.9688" y2="103.9688"/><polygon fill="#181818" points="189.7451,93.9688,193.7451,103.9688,197.7451,93.9688,193.7451,97.9688" style="stroke:#181818;stroke-width:1;"/><line style="stroke:#181818;stroke-width:1;" x1="159.0576" x2="98.083" y1="169.9375" y2="169.9375"/><line style="stroke:#181818;stroke-width:1;" x1="98.083" x2="98.083" y1="169.9375" y2="191.9375"/><polygon fill="#181818" points="94.083,181.9375,98.083,191.9375,102.083,181.9375,98.083,185.9375" style="stroke:#181818;stroke-width:1;"/><line style="stroke:#181818;stroke-width:1;" x1="228.4326" x2="289.4072" y1="169.9375" y2="169.9375"/><line style="stroke:#181818;stroke-width:1;" x1="289.4072" x2="289.4072" y1="169.9375" y2="191.9375"/><polygon fill="#181818" points="285.4072,181.9375,289.4072,191.9375,293.4072,181.9375,289.4072,185.9375" style="stroke:#181818;stroke-width:1;"/><line style="stroke:#181818;stroke-width:1;" x1="98.083" x2="98.083" y1="225.9063" y2="243.9063"/><line style="stroke:#181818;stroke-width:1;" x1="98.083" x2="181.7451" y1="243.9063" y2="243.9063"/><polygon fill="#181818" points="171.7451,239.9063,181.7451,243.9063,171.7451,247.9063,175.7451,243.9063" style="stroke:#181818;stroke-width:1;"/><line style="stroke:#181818;stroke-width:1;" x1="289.4072" x2="289.4072" y1="225.9063" y2="243.9063"/><line style="stroke:#181818;stroke-width:1;" x1="289.4072" x2="205.7451" y1="243.9063" y2="243.9063"/><polygon fill="#181818" points="215.7451,239.9063,205.7451,243.9063,215.7451,247.9063,211.7451,243.9063" style="stroke:#181818;stroke-width:1;"/><line style="stroke:#181818;stroke-width:1;" x1="193.7451" x2="193.7451" y1="137.9375" y2="157.9375"/><polygon fill="#181818" points="189.7451,147.9375,193.7451,157.9375,197.7451,147.9375,193.7451,151.9375" style="stroke:#181818;stroke-width:1;"/><line style="stroke:#181818;stroke-width:1;" x1="193.7451" x2="193.7451" y1="255.9063" y2="275.9063"/><polygon fill="#181818" points="189.7451,265.9063,193.7451,275.9063,197.7451,265.9063,193.7451,269.9063" style="stroke:#181818;stroke-width:1;"/><line style="stroke:#181818;stroke-width:1;" x1="193.7451" x2="193.7451" y1="309.875" y2="329.875"/><polygon fill="#181818" points="189.7451,319.875,193.7451,329.875,197.7451,319.875,193.7451,323.875" style="stroke:#181818;stroke-width:1;"/><!--SRC=[TOun3i8m34Ltdy9ZUuLaG4WS084uG4WTi1GbbkqElNr31yJ2-j_xqZDFwW3XOQIOH2gJOU7gf1OXd4LGgN0RgsXVrknOsJm2SC7ftjNnkPrcz3Srd6x9kRrcG0m7-hqC3_NW4QWQuNHLplHVbWyURbkuZC8BczIqVRNSr-QZ4Soxx000]--></g></svg>