<svg xmlns="http://www.w3.org/2000/svg" xmlns:xlink="http://www.w3.org/1999/xlink" contentStyleType="text/css" data-diagram-type="DESCRIPTION" height="928px" preserveAspectRatio="none" style="width:617px;height:928px;background:#FFFFFF;" version="1.1" viewBox="0 0 617 928" width="617px" zoomAndPan="magnify"><defs/><g><!--cluster System Architecture--><g class="cluster" data-entity="System Architecture" data-source-line="1" data-uid="ent0002" id="cluster_System Architecture"><path d="M50.34,6 L212.88,6 A3.75,3.75 0 0 1 215.38,8.5 L222.38,28.2969 L608.34,28.2969 A2.5,2.5 0 0 1 610.84,30.7969 L610.84,918.58 A2.5,2.5 0 0 1 608.34,921.08 L50.34,921.08 A2.5,2.5 0 0 1 47.84,918.58 L47.84,8.5 A2.5,2.5 0 0 1 50.34,6" fill="none" style="stroke:#000000;stroke-width:1.5;"/><line style="stroke:#000000;stroke-width:1.5;" x1="47.84" x2="222.38" y1="28.2969" y2="28.2969"/><text fill="#000000" font-family="sans-serif" font-size="14" font-weight="bold" lengthAdjust="spacing" textLength="161.54" x="51.84" y="20.9951">System Architecture</text></g><!--cluster Client--><g class="cluster" data-entity="Client" data-source-line="12" data-uid="ent0010" id="cluster_Client"><polygon fill="none" points="152.84,59,162.84,49,338.84,49,338.84,141.3,328.84,151.3,152.84,151.3,152.84,59" style="stroke:#181818;stroke-width:1;"/><line style="stroke:#181818;stroke-width:1;" x1="328.84" x2="338.84" y1="59" y2="49"/><line style="stroke:#181818;stroke-width:1;" x1="152.84" x2="328.84" y1="59" y2="59"/><line style="stroke:#181818;stroke-width:1;" x1="328.84" x2="328.84" y1="59" y2="151.3"/><text fill="#000000" font-family="sans-serif" font-size="14" font-weight="bold" lengthAdjust="spacing" textLength="46.0264" x="218.8268" y="74.9951">Client</text></g><!--cluster Server--><g class="cluster" data-entity="Server" data-source-line="16" data-uid="ent0012" id="cluster_Server"><polygon fill="none" points="155.84,580.19,165.84,570.19,374.84,570.19,374.84,785.78,364.84,795.78,155.84,795.78,155.84,580.19" style="stroke:#181818;stroke-width:1;"/><line style="stroke:#181818;stroke-width:1;" x1="364.84" x2="374.84" y1="580.19" y2="570.19"/><line style="stroke:#181818;stroke-width:1;" x1="155.84" x2="364.84" y1="580.19" y2="580.19"/><line style="stroke:#181818;stroke-width:1;" x1="364.84" x2="364.84" y1="580.19" y2="795.78"/><text fill="#000000" font-family="sans-serif" font-size="14" font-weight="bold" lengthAdjust="spacing" textLength="52.0078" x="235.3361" y="596.1851">Server</text></g><!--entity AM--><g class="entity" data-entity="AM" data-source-line="3" data-uid="ent0003" id="entity_AM"><rect fill="#F1F1F1" height="46.2969" rx="2.5" ry="2.5" style="stroke:#181818;stroke-width:0.5;" width="189.126" x="67.28" y="214.3"/><rect fill="#F1F1F1" height="10" style="stroke:#181818;stroke-width:0.5;" width="15" x="236.406" y="219.3"/><rect fill="#F1F1F1" height="2" style="stroke:#181818;stroke-width:0.5;" width="4" x="234.406" y="221.3"/><rect fill="#F1F1F1" height="2" style="stroke:#181818;stroke-width:0.5;" width="4" x="234.406" y="225.3"/><text fill="#000000" font-family="sans-serif" font-size="14" lengthAdjust="spacing" textLength="149.126" x="82.28" y="247.2951">Authorization Module</text></g><!--entity SAE--><g class="entity" data-entity="SAE" data-source-line="4" data-uid="ent0004" id="entity_SAE"><rect fill="#F1F1F1" height="46.2969" rx="2.5" ry="2.5" style="stroke:#181818;stroke-width:0.5;" width="189.0918" x="146.29" y="337.6"/><rect fill="#F1F1F1" height="10" style="stroke:#181818;stroke-width:0.5;" width="15" x="315.3818" y="342.6"/><rect fill="#F1F1F1" height="2" style="stroke:#181818;stroke-width:0.5;" width="4" x="313.3818" y="344.6"/><rect fill="#F1F1F1" height="2" style="stroke:#181818;stroke-width:0.5;" width="4" x="313.3818" y="348.6"/><text fill="#000000" font-family="sans-serif" font-size="14" lengthAdjust="spacing" textLength="149.0918" x="161.29" y="370.5951">Secure API Endpoints</text></g><!--entity DES--><g class="entity" data-entity="DES" data-source-line="5" data-uid="ent0005" id="entity_DES"><rect fill="#F1F1F1" height="46.2969" rx="2.5" ry="2.5" style="stroke:#181818;stroke-width:0.5;" width="216.5244" x="89.58" y="858.78"/><rect fill="#F1F1F1" height="10" style="stroke:#181818;stroke-width:0.5;" width="15" x="286.1044" y="863.78"/><rect fill="#F1F1F1" height="2" style="stroke:#181818;stroke-width:0.5;" width="4" x="284.1044" y="865.78"/><rect fill="#F1F1F1" height="2" style="stroke:#181818;stroke-width:0.5;" width="4" x="284.1044" y="869.78"/><text fill="#000000" font-family="sans-serif" font-size="14" lengthAdjust="spacing" textLength="176.5244" x="104.58" y="891.7751">Data Encryption Services</text></g><!--entity RBAC--><g class="entity" data-entity="RBAC" data-source-line="6" data-uid="ent0006" id="entity_RBAC"><rect fill="#F1F1F1" height="46.2969" rx="2.5" ry="2.5" style="stroke:#181818;stroke-width:0.5;" width="280.1533" x="100.76" y="460.89"/><rect fill="#F1F1F1" height="10" style="stroke:#181818;stroke-width:0.5;" width="15" x="360.9133" y="465.89"/><rect fill="#F1F1F1" height="2" style="stroke:#181818;stroke-width:0.5;" width="4" x="358.9133" y="467.89"/><rect fill="#F1F1F1" height="2" style="stroke:#181818;stroke-width:0.5;" width="4" x="358.9133" y="471.89"/><text fill="#000000" font-family="sans-serif" font-size="14" lengthAdjust="spacing" textLength="240.1533" x="115.76" y="493.8851">Role-based Access Control (RBAC)</text></g><!--entity User Application--><g class="entity" data-entity="User Application" data-source-line="13" data-uid="ent0011" id="entity_User Application"><rect fill="#F1F1F1" height="46.2969" rx="2.5" ry="2.5" style="stroke:#181818;stroke-width:0.5;" width="154.584" x="168.55" y="89"/><rect fill="#F1F1F1" height="10" style="stroke:#181818;stroke-width:0.5;" width="15" x="303.134" y="94"/><rect fill="#F1F1F1" height="2" style="stroke:#181818;stroke-width:0.5;" width="4" x="301.134" y="96"/><rect fill="#F1F1F1" height="2" style="stroke:#181818;stroke-width:0.5;" width="4" x="301.134" y="100"/><text fill="#000000" font-family="sans-serif" font-size="14" lengthAdjust="spacing" textLength="114.584" x="183.55" y="121.9951">User Application</text></g><!--entity Web Server--><g class="entity" data-entity="Web Server" data-source-line="17" data-uid="ent0013" id="entity_Web Server"><rect fill="#F1F1F1" height="46.2969" rx="2.5" ry="2.5" style="stroke:#181818;stroke-width:0.5;" width="121.7031" x="179.99" y="610.19"/><rect fill="#F1F1F1" height="10" style="stroke:#181818;stroke-width:0.5;" width="15" x="281.6931" y="615.19"/><rect fill="#F1F1F1" height="2" style="stroke:#181818;stroke-width:0.5;" width="4" x="279.6931" y="617.19"/><rect fill="#F1F1F1" height="2" style="stroke:#181818;stroke-width:0.5;" width="4" x="279.6931" y="621.19"/><text fill="#000000" font-family="sans-serif" font-size="14" lengthAdjust="spacing" textLength="81.7031" x="194.99" y="643.1851">Web Server</text></g><!--entity Database--><g class="entity" data-entity="Database" data-source-line="18" data-uid="ent0014" id="entity_Database"><rect fill="#F1F1F1" height="46.2969" rx="2.5" ry="2.5" style="stroke:#181818;stroke-width:0.5;" width="106.8008" x="171.44" y="733.49"/><rect fill="#F1F1F1" height="10" style="stroke:#181818;stroke-width:0.5;" width="15" x="258.2408" y="738.49"/><rect fill="#F1F1F1" height="2" style="stroke:#181818;stroke-width:0.5;" width="4" x="256.2408" y="740.49"/><rect fill="#F1F1F1" height="2" style="stroke:#181818;stroke-width:0.5;" width="4" x="256.2408" y="744.49"/><text fill="#000000" font-family="sans-serif" font-size="14" lengthAdjust="spacing" textLength="66.8008" x="186.44" y="766.4851">Database</text></g><!--link AM to SAE--><g class="link" data-entity-1="AM" data-entity-2="SAE" data-source-line="8" data-uid="lnk7" id="link_AM_SAE"><path d="M176.51,260.98 C190.7,282.76 208.8054,310.5624 222.9654,332.3024" fill="none" id="AM-to-SAE" style="stroke:#181818;stroke-width:1;"/><polygon fill="#181818" points="226.24,337.33,224.6798,327.6055,223.5111,333.1403,217.9763,331.9717,226.24,337.33" style="stroke:#181818;stroke-width:1;"/><text fill="#000000" font-family="sans-serif" font-size="13" lengthAdjust="spacing" textLength="90.397" x="207.07" y="303.6669">Authenticates</text></g><!--link SAE to DES--><g class="link" data-entity-1="SAE" data-entity-2="DES" data-source-line="9" data-uid="lnk8" id="link_SAE_DES"><path d="M176.48,384.3 C142.09,400.03 102.82,424.76 82.84,460.89 C6,599.83 129.0506,788.6398 177.0306,853.7498" fill="none" id="SAE-to-DES" style="stroke:#181818;stroke-width:1;"/><polygon fill="#181818" points="180.59,858.58,178.471,848.9618,177.6238,854.5548,172.0308,853.7077,180.59,858.58" style="stroke:#181818;stroke-width:1;"/><text fill="#000000" font-family="sans-serif" font-size="13" lengthAdjust="spacing" textLength="31.0591" x="75.18" y="637.9069">Uses</text></g><!--link SAE to RBAC--><g class="link" data-entity-1="SAE" data-entity-2="RBAC" data-source-line="10" data-uid="lnk9" id="link_SAE_RBAC"><path d="M240.84,384.27 C240.84,406.06 240.84,432.88 240.84,454.63" fill="none" id="SAE-to-RBAC" style="stroke:#181818;stroke-width:1;"/><polygon fill="#181818" points="240.84,460.63,244.84,451.63,240.84,455.63,236.84,451.63,240.84,460.63" style="stroke:#181818;stroke-width:1;"/><text fill="#000000" font-family="sans-serif" font-size="13" lengthAdjust="spacing" textLength="56.2466" x="241.84" y="426.9569">Enforces</text></g><!--link User Application to SAE--><g class="link" data-entity-1="User Application" data-entity-2="SAE" data-source-line="21" data-uid="lnk15" id="link_User Application_SAE"><path d="M291.84,135.58 C303.78,143.8 315.16,154.34 321.84,167.3 C325.3,174.01 322.33,176.76 321.84,184.3 C318.28,239.44 332.91,259.42 305.84,307.6 C299.32,319.2 293.8398,325.534 283.4098,333.584" fill="none" id="User Application-to-SAE" style="stroke:#181818;stroke-width:1;"/><polygon fill="#181818" points="278.66,337.25,288.2287,334.9176,282.6182,334.195,283.3407,328.5845,278.66,337.25" style="stroke:#181818;stroke-width:1;"/><text fill="#000000" font-family="sans-serif" font-size="13" lengthAdjust="spacing" textLength="153.626" x="323.66" y="242.0169">API-encrypted channels</text></g><!--link SAE to Web Server--><g class="link" data-entity-1="SAE" data-entity-2="Web Server" data-source-line="22" data-uid="lnk16" id="link_SAE_Web Server"><path d="M305.2,384.3 C339.59,400.03 378.86,424.76 398.84,460.89 C432.93,522.52 353.0026,576.8106 294.9026,607.0406" fill="none" id="SAE-to-Web Server" style="stroke:#181818;stroke-width:1;"/><polygon fill="#181818" points="289.58,609.81,299.4102,609.2043,294.0155,607.5022,295.7177,602.1075,289.58,609.81" style="stroke:#181818;stroke-width:1;"/><text fill="#000000" font-family="sans-serif" font-size="13" lengthAdjust="spacing" textLength="142.6382" x="407.63" y="488.6069">Secure Data Retrieval</text></g><!--link Web Server to Database--><g class="link" data-entity-1="Web Server" data-entity-2="Database" data-source-line="23" data-uid="lnk17" id="link_Web Server_Database"><path d="M237.87,656.87 C234.99,678.66 231.4426,705.5313 228.5826,727.2713" fill="none" id="Web Server-to-Database" style="stroke:#181818;stroke-width:1;"/><polygon fill="#181818" points="227.8,733.22,232.9397,724.8186,228.4522,728.2627,225.008,723.7752,227.8,733.22" style="stroke:#181818;stroke-width:1;"/><text fill="#000000" font-family="sans-serif" font-size="13" lengthAdjust="spacing" textLength="150.2744" x="234.8" y="699.5569">Encrypted Data Access</text></g><!--link Database to DES--><g class="link" data-entity-1="Database" data-entity-2="DES" data-source-line="25" data-uid="lnk18" id="link_Database_DES"><path d="M219.89,780.25 C215.02,802.5 208.9031,830.3988 204.0431,852.5988" fill="none" id="Database-to-DES" style="stroke:#181818;stroke-width:1;"/><polygon fill="#181818" points="202.76,858.46,208.5922,850.5236,203.8293,853.5757,200.7772,848.8128,202.76,858.46" style="stroke:#181818;stroke-width:1;"/><text fill="#000000" font-family="sans-serif" font-size="13" lengthAdjust="spacing" textLength="180.6924" x="213.96" y="824.8469">Data Encryption/Decryption</text></g><!--link RBAC to Web Server--><g class="link" data-entity-1="RBAC" data-entity-2="Web Server" data-source-line="26" data-uid="lnk19" id="link_RBAC_Web Server"><path d="M240.84,507.41 C240.84,535.1 240.84,575.97 240.84,603.76" fill="none" id="RBAC-to-Web Server" style="stroke:#181818;stroke-width:1;"/><polygon fill="#181818" points="240.84,609.76,244.84,600.76,240.84,604.76,236.84,600.76,240.84,609.76" style="stroke:#181818;stroke-width:1;"/><text fill="#000000" font-family="sans-serif" font-size="13" lengthAdjust="spacing" textLength="96.1416" x="241.84" y="550.2569">Access Control</text></g><!--link User Application to AM--><g class="link" data-entity-1="User Application" data-entity-2="AM" data-source-line="28" data-uid="lnk20" id="link_User Application_AM"><path d="M211.03,135.74 C199.99,144.43 188.63,155.2 180.84,167.3 C171.81,181.32 168.0568,193.7003 165.5568,207.9503" fill="none" id="User Application-to-AM" style="stroke:#181818;stroke-width:1;"/><polygon fill="#181818" points="164.52,213.86,170.015,205.6866,165.384,208.9352,162.1354,204.3042,164.52,213.86" style="stroke:#181818;stroke-width:1;"/><text fill="#000000" font-family="sans-serif" font-size="13" lengthAdjust="spacing" textLength="135.1099" x="181.84" y="180.3669">Login/Authentication</text></g><!--SRC=[VL6nQiCm5Dpz5GzFxM2oPoYeZeT03I6cT2WP5Far5bKa8Ic1jEJV-oGrYTsMWWVpT7Vlxfxbuftl4Chkv0FkWJano80Y71oMy5a0q2VCtXgDEa393c4mJdxm88s6rlG7HJZkWRLJO8U2982jbj3etXgfWq_0ZZLJv887JXZXJZQ9TkYEKc16BvfkYbuRXTMMU-o12K9vg8qEpYYuMp-o-Zwnubz1FDP2LJt4bJ27Q9qafE01FJt6QNob5VJwx2V3g43JHhyPHrkYc3OzzLGhIIAv6e1NeZbWrgeeI-utD3xVq34BkYlw1RUGHviyYDbZc2ljj-0umMfPOIwAuek1Qurgx7gyWF3VDqW5hp4uYKUkYgcFpBlwI9al6n8njvoytL2ttdvSRxR0ooynKej_69jUxf_STC0vF9cTrBFH-QBukVW2]--></g></svg>