<svg xmlns="http://www.w3.org/2000/svg" xmlns:xlink="http://www.w3.org/1999/xlink" contentStyleType="text/css" data-diagram-type="SEQUENCE" height="489px" preserveAspectRatio="none" style="width:1188px;height:489px;background:#FFFFFF;" version="1.1" viewBox="0 0 1188 489" width="1188px" zoomAndPan="magnify"><defs/><g><g><title>Business Development and Tenders Team</title><rect fill="#000000" fill-opacity="0.00000" height="327.3281" width="8" x="152.0459" y="81.2969"/><line style="stroke:#181818;stroke-width:0.5;stroke-dasharray:5,5;" x1="156" x2="156" y1="81.2969" y2="408.625"/></g><g><title>Tender Readiness Display</title><rect fill="#000000" fill-opacity="0.00000" height="327.3281" width="8" x="406.8765" y="81.2969"/><line style="stroke:#181818;stroke-width:0.5;stroke-dasharray:5,5;" x1="410.0918" x2="410.0918" y1="81.2969" y2="408.625"/></g><g><title>Opportunity Success Prediction</title><rect fill="#000000" fill-opacity="0.00000" height="327.3281" width="8" x="623.3472" y="81.2969"/><line style="stroke:#181818;stroke-width:0.5;stroke-dasharray:5,5;" x1="626.6611" x2="626.6611" y1="81.2969" y2="408.625"/></g><g><title>Competitor Benchmarking</title><rect fill="#000000" fill-opacity="0.00000" height="327.3281" width="8" x="841.2876" y="81.2969"/><line style="stroke:#181818;stroke-width:0.5;stroke-dasharray:5,5;" x1="845.0332" x2="845.0332" y1="81.2969" y2="408.625"/></g><g><title>Etimad Integration</title><rect fill="#000000" fill-opacity="0.00000" height="327.3281" width="8" x="1015.0029" y="81.2969"/><line style="stroke:#181818;stroke-width:0.5;stroke-dasharray:5,5;" x1="1018.542" x2="1018.542" y1="81.2969" y2="408.625"/></g><g class="participant participant-head" data-participant="BDT"><text fill="#000000" font-family="sans-serif" font-size="14" lengthAdjust="spacing" textLength="296.0918" x="5" y="77.9951">Business Development and Tenders Team</text><ellipse cx="156.0459" cy="13.5" fill="#E2E2F0" rx="8" ry="8" style="stroke:#181818;stroke-width:0.5;"/><path d="M156.0459,21.5 L156.0459,48.5 M143.0459,29.5 L169.0459,29.5 M156.0459,48.5 L143.0459,63.5 M156.0459,48.5 L169.0459,63.5" fill="none" style="stroke:#181818;stroke-width:0.5;"/></g><g class="participant participant-tail" data-participant="BDT"><text fill="#000000" font-family="sans-serif" font-size="14" lengthAdjust="spacing" textLength="296.0918" x="5" y="420.6201">Business Development and Tenders Team</text><ellipse cx="156.0459" cy="432.4219" fill="#E2E2F0" rx="8" ry="8" style="stroke:#181818;stroke-width:0.5;"/><path d="M156.0459,440.4219 L156.0459,467.4219 M143.0459,448.4219 L169.0459,448.4219 M156.0459,467.4219 L143.0459,482.4219 M156.0459,467.4219 L169.0459,482.4219" fill="none" style="stroke:#181818;stroke-width:0.5;"/></g><g class="participant participant-head" data-participant="TRD"><text fill="#000000" font-family="sans-serif" font-size="14" lengthAdjust="spacing" textLength="181.5693" x="317.0918" y="77.9951">Tender Readiness Display</text><ellipse cx="410.8765" cy="49" fill="#E2E2F0" rx="12" ry="12" style="stroke:#181818;stroke-width:0.5;"/><line style="stroke:#181818;stroke-width:0.5;" x1="398.8765" x2="422.8765" y1="63" y2="63"/></g><g class="participant participant-tail" data-participant="TRD"><text fill="#000000" font-family="sans-serif" font-size="14" lengthAdjust="spacing" textLength="181.5693" x="317.0918" y="420.6201">Tender Readiness Display</text><ellipse cx="410.8765" cy="439.9219" fill="#E2E2F0" rx="12" ry="12" style="stroke:#181818;stroke-width:0.5;"/><line style="stroke:#181818;stroke-width:0.5;" x1="398.8765" x2="422.8765" y1="453.9219" y2="453.9219"/></g><g class="participant participant-head" data-participant="OSP"><text fill="#000000" font-family="sans-serif" font-size="14" lengthAdjust="spacing" textLength="219.3721" x="514.6611" y="77.9951">Opportunity Success Prediction</text><ellipse cx="627.3472" cy="49" fill="#E2E2F0" rx="12" ry="12" style="stroke:#181818;stroke-width:0.5;"/><line style="stroke:#181818;stroke-width:0.5;" x1="615.3472" x2="639.3472" y1="63" y2="63"/></g><g class="participant participant-tail" data-participant="OSP"><text fill="#000000" font-family="sans-serif" font-size="14" lengthAdjust="spacing" textLength="219.3721" x="514.6611" y="420.6201">Opportunity Success Prediction</text><ellipse cx="627.3472" cy="439.9219" fill="#E2E2F0" rx="12" ry="12" style="stroke:#181818;stroke-width:0.5;"/><line style="stroke:#181818;stroke-width:0.5;" x1="615.3472" x2="639.3472" y1="453.9219" y2="453.9219"/></g><g class="participant participant-head" data-participant="CB"><text fill="#000000" font-family="sans-serif" font-size="14" lengthAdjust="spacing" textLength="184.5088" x="750.0332" y="77.9951">Competitor Benchmarking</text><ellipse cx="845.2876" cy="49" fill="#E2E2F0" rx="12" ry="12" style="stroke:#181818;stroke-width:0.5;"/><line style="stroke:#181818;stroke-width:0.5;" x1="833.2876" x2="857.2876" y1="63" y2="63"/></g><g class="participant participant-tail" data-participant="CB"><text fill="#000000" font-family="sans-serif" font-size="14" lengthAdjust="spacing" textLength="184.5088" x="750.0332" y="420.6201">Competitor Benchmarking</text><ellipse cx="845.2876" cy="439.9219" fill="#E2E2F0" rx="12" ry="12" style="stroke:#181818;stroke-width:0.5;"/><line style="stroke:#181818;stroke-width:0.5;" x1="833.2876" x2="857.2876" y1="453.9219" y2="453.9219"/></g><g class="participant participant-head" data-participant="EI"><text fill="#000000" font-family="sans-serif" font-size="14" lengthAdjust="spacing" textLength="130.9219" x="950.542" y="77.9951">Etimad Integration</text><ellipse cx="1019.0029" cy="49" fill="#E2E2F0" rx="12" ry="12" style="stroke:#181818;stroke-width:0.5;"/><line style="stroke:#181818;stroke-width:0.5;" x1="1007.0029" x2="1031.0029" y1="63" y2="63"/></g><g class="participant participant-tail" data-participant="EI"><text fill="#000000" font-family="sans-serif" font-size="14" lengthAdjust="spacing" textLength="130.9219" x="950.542" y="420.6201">Etimad Integration</text><ellipse cx="1019.0029" cy="439.9219" fill="#E2E2F0" rx="12" ry="12" style="stroke:#181818;stroke-width:0.5;"/><line style="stroke:#181818;stroke-width:0.5;" x1="1007.0029" x2="1031.0029" y1="453.9219" y2="453.9219"/></g><g class="message" data-participant-1="BDT" data-participant-2="TRD"><polygon fill="#181818" points="398.8765,108.4297,408.8765,112.4297,398.8765,116.4297,402.8765,112.4297" style="stroke:#181818;stroke-width:1;"/><line style="stroke:#181818;stroke-width:1;" x1="156.0459" x2="404.8765" y1="112.4297" y2="112.4297"/><text fill="#000000" font-family="sans-serif" font-size="13" lengthAdjust="spacing" textLength="80.6343" x="163.0459" y="107.3638">Engage with</text></g><g class="message" data-participant-1="BDT" data-participant-2="OSP"><polygon fill="#181818" points="615.3472,137.5625,625.3472,141.5625,615.3472,145.5625,619.3472,141.5625" style="stroke:#181818;stroke-width:1;"/><line style="stroke:#181818;stroke-width:1;" x1="156.0459" x2="621.3472" y1="141.5625" y2="141.5625"/><text fill="#000000" font-family="sans-serif" font-size="13" lengthAdjust="spacing" textLength="80.6343" x="163.0459" y="136.4966">Engage with</text></g><g class="message" data-participant-1="BDT" data-participant-2="CB"><polygon fill="#181818" points="833.2876,166.6953,843.2876,170.6953,833.2876,174.6953,837.2876,170.6953" style="stroke:#181818;stroke-width:1;"/><line style="stroke:#181818;stroke-width:1;" x1="156.0459" x2="839.2876" y1="170.6953" y2="170.6953"/><text fill="#000000" font-family="sans-serif" font-size="13" lengthAdjust="spacing" textLength="80.6343" x="163.0459" y="165.6294">Engage with</text></g><g class="message" data-participant-1="EI" data-participant-2="TRD"><polygon fill="#181818" points="421.8765,195.8281,411.8765,199.8281,421.8765,203.8281,417.8765,199.8281" style="stroke:#181818;stroke-width:1;"/><line style="stroke:#181818;stroke-width:1;" x1="415.8765" x2="1018.0029" y1="199.8281" y2="199.8281"/><text fill="#000000" font-family="sans-serif" font-size="13" lengthAdjust="spacing" textLength="169.5205" x="427.8765" y="194.7622">Provide data on readiness</text></g><path d="M161,212.8281 L161,252.8281 L382,252.8281 L382,222.8281 L372,212.8281 L161,212.8281" fill="#FEFFDD" style="stroke:#181818;stroke-width:0.5;"/><path d="M372,212.8281 L372,222.8281 L382,222.8281 L372,212.8281" fill="#FEFFDD" style="stroke:#181818;stroke-width:0.5;"/><text fill="#000000" font-family="sans-serif" font-size="13" lengthAdjust="spacing" textLength="200.4844" x="167" y="229.895">Workflow for assessing market</text><text fill="#000000" font-family="sans-serif" font-size="13" lengthAdjust="spacing" textLength="133.9165" x="167" y="245.0278">and tender positions</text><path d="M415,263.0938 L415,288.0938 L633,288.0938 L633,273.0938 L623,263.0938 L415,263.0938" fill="#FEFFDD" style="stroke:#181818;stroke-width:0.5;"/><path d="M623,263.0938 L623,273.0938 L633,273.0938 L623,263.0938" fill="#FEFFDD" style="stroke:#181818;stroke-width:0.5;"/><text fill="#000000" font-family="sans-serif" font-size="13" lengthAdjust="spacing" textLength="197.6216" x="421" y="280.1606">Displays readiness for tenders</text><path d="M632,298.2266 L632,323.2266 L867,323.2266 L867,308.2266 L857,298.2266 L632,298.2266" fill="#FEFFDD" style="stroke:#181818;stroke-width:0.5;"/><path d="M857,298.2266 L857,308.2266 L867,308.2266 L857,298.2266" fill="#FEFFDD" style="stroke:#181818;stroke-width:0.5;"/><text fill="#000000" font-family="sans-serif" font-size="13" lengthAdjust="spacing" textLength="214.2651" x="638" y="315.2935">Predicts success of opportunities</text><path d="M850,333.3594 L850,358.3594 L1085,358.3594 L1085,343.3594 L1075,333.3594 L850,333.3594" fill="#FEFFDD" style="stroke:#181818;stroke-width:0.5;"/><path d="M1075,333.3594 L1075,343.3594 L1085,343.3594 L1075,333.3594" fill="#FEFFDD" style="stroke:#181818;stroke-width:0.5;"/><text fill="#000000" font-family="sans-serif" font-size="13" lengthAdjust="spacing" textLength="214.8809" x="856" y="350.4263">Benchmarks against competitors</text><path d="M1024,368.4922 L1024,393.4922 L1181,393.4922 L1181,378.4922 L1171,368.4922 L1024,368.4922" fill="#FEFFDD" style="stroke:#181818;stroke-width:0.5;"/><path d="M1171,368.4922 L1171,378.4922 L1181,378.4922 L1171,368.4922" fill="#FEFFDD" style="stroke:#181818;stroke-width:0.5;"/><text fill="#000000" font-family="sans-serif" font-size="13" lengthAdjust="spacing" textLength="136.0811" x="1030" y="385.5591">Provides crucial data</text><!--SRC=[TP6nZi8m38RtFeN5VYzmmms53amWg7IpbPXYqIPLx89u-tDA2H8wfgRnxp_-FwFJc61LJyA1H613L-hZE51GmE2XfU0fYNrnM04Ar9ksiYBh7LQF8Xm8_TBDClPuduNjOLE4kt6CIQUGVuwJSrcxJ-JPASSmotV7VP6lup2I7Msoce8x3vWk7BfPjwwBh54UqCCsA7K9YrEphIgR4hv-yWpm3Ktei2EuiPwV1Nlj_yAwVhjljY-ZVOfNzWGU5I46IC_WLHMY4YJkpWhnD4FwZUbowkCDJXO3HKnc6I1d8QqoMttW6wDm7buic8Tiz6wNKIvevVNeRFpm-DoQiIwa1MH1R_UnR8JfSxV1BWiGm0uvY88hw_dSQKjOQ0cuD3d6ViPM6lu0]--></g></svg>