<svg xmlns="http://www.w3.org/2000/svg" xmlns:xlink="http://www.w3.org/1999/xlink" contentStyleType="text/css" data-diagram-type="SEQUENCE" height="548px" preserveAspectRatio="none" style="width:602px;height:548px;background:#FFFFFF;" version="1.1" viewBox="0 0 602 548" width="602px" zoomAndPan="magnify"><defs/><g><rect fill="none" height="148.4688" style="stroke:#000000;stroke-width:1.5;" width="405.2744" x="10" y="302.2266"/><g><title>User</title><rect fill="#000000" fill-opacity="0.00000" height="386.3984" width="8" x="34.9551" y="81.2969"/><line style="stroke:#181818;stroke-width:0.5;stroke-dasharray:5,5;" x1="38" x2="38" y1="81.2969" y2="467.6953"/></g><g><title>App</title><rect fill="#000000" fill-opacity="0.00000" height="386.3984" width="8" x="176.6914" y="81.2969"/><line style="stroke:#181818;stroke-width:0.5;stroke-dasharray:5,5;" x1="180.0161" x2="180.0161" y1="81.2969" y2="467.6953"/></g><g><title>Auth Service</title><rect fill="#000000" fill-opacity="0.00000" height="386.3984" width="8" x="349.7725" y="81.2969"/><line style="stroke:#181818;stroke-width:0.5;stroke-dasharray:5,5;" x1="353.2705" x2="353.2705" y1="81.2969" y2="467.6953"/></g><g><title>SMS.Email Gateway</title><rect fill="#000000" fill-opacity="0.00000" height="386.3984" width="8" x="515.4014" y="81.2969"/><line style="stroke:#181818;stroke-width:0.5;stroke-dasharray:5,5;" x1="518.5483" x2="518.5483" y1="81.2969" y2="467.6953"/></g><g class="participant participant-head" data-participant="User"><text fill="#000000" font-family="sans-serif" font-size="14" lengthAdjust="spacing" textLength="31.9102" x="20" y="77.9951">User</text><ellipse cx="38.9551" cy="13.5" fill="#E2E2F0" rx="8" ry="8" style="stroke:#181818;stroke-width:0.5;"/><path d="M38.9551,21.5 L38.9551,48.5 M25.9551,29.5 L51.9551,29.5 M38.9551,48.5 L25.9551,63.5 M38.9551,48.5 L51.9551,63.5" fill="none" style="stroke:#181818;stroke-width:0.5;"/></g><g class="participant participant-tail" data-participant="User"><text fill="#000000" font-family="sans-serif" font-size="14" lengthAdjust="spacing" textLength="31.9102" x="20" y="479.6904">User</text><ellipse cx="38.9551" cy="491.4922" fill="#E2E2F0" rx="8" ry="8" style="stroke:#181818;stroke-width:0.5;"/><path d="M38.9551,499.4922 L38.9551,526.4922 M25.9551,507.4922 L51.9551,507.4922 M38.9551,526.4922 L25.9551,541.4922 M38.9551,526.4922 L51.9551,541.4922" fill="none" style="stroke:#181818;stroke-width:0.5;"/></g><g class="participant participant-head" data-participant="App"><rect fill="#E2E2F0" height="30.2969" rx="2.5" ry="2.5" style="stroke:#181818;stroke-width:0.5;" width="41.3506" x="160.0161" y="50"/><text fill="#000000" font-family="sans-serif" font-size="14" lengthAdjust="spacing" textLength="27.3506" x="167.0161" y="69.9951">App</text></g><g class="participant participant-tail" data-participant="App"><rect fill="#E2E2F0" height="30.2969" rx="2.5" ry="2.5" style="stroke:#181818;stroke-width:0.5;" width="41.3506" x="160.0161" y="466.6953"/><text fill="#000000" font-family="sans-serif" font-size="14" lengthAdjust="spacing" textLength="27.3506" x="167.0161" y="486.6904">App</text></g><g class="participant participant-head" data-participant="AuthService"><rect fill="#E2E2F0" height="30.2969" rx="2.5" ry="2.5" style="stroke:#181818;stroke-width:0.5;" width="103.0039" x="302.2705" y="50"/><text fill="#000000" font-family="sans-serif" font-size="14" lengthAdjust="spacing" textLength="89.0039" x="309.2705" y="69.9951">Auth Service</text></g><g class="participant participant-tail" data-participant="AuthService"><rect fill="#E2E2F0" height="30.2969" rx="2.5" ry="2.5" style="stroke:#181818;stroke-width:0.5;" width="103.0039" x="302.2705" y="466.6953"/><text fill="#000000" font-family="sans-serif" font-size="14" lengthAdjust="spacing" textLength="89.0039" x="309.2705" y="486.6904">Auth Service</text></g><g class="participant participant-head" data-participant="Gateway"><rect fill="#E2E2F0" height="30.2969" rx="2.5" ry="2.5" style="stroke:#181818;stroke-width:0.5;" width="153.7061" x="442.5483" y="50"/><text fill="#000000" font-family="sans-serif" font-size="14" lengthAdjust="spacing" textLength="139.7061" x="449.5483" y="69.9951">SMS/Email Gateway</text></g><g class="participant participant-tail" data-participant="Gateway"><rect fill="#E2E2F0" height="30.2969" rx="2.5" ry="2.5" style="stroke:#181818;stroke-width:0.5;" width="153.7061" x="442.5483" y="466.6953"/><text fill="#000000" font-family="sans-serif" font-size="14" lengthAdjust="spacing" textLength="139.7061" x="449.5483" y="486.6904">SMS/Email Gateway</text></g><g class="message" data-participant-1="User" data-participant-2="App"><polygon fill="#181818" points="168.6914,108.4297,178.6914,112.4297,168.6914,116.4297,172.6914,112.4297" style="stroke:#181818;stroke-width:1;"/><line style="stroke:#181818;stroke-width:1;" x1="38.9551" x2="174.6914" y1="112.4297" y2="112.4297"/><text fill="#000000" font-family="sans-serif" font-size="13" lengthAdjust="spacing" textLength="94.4341" x="45.9551" y="107.3638">Initiate Signup</text></g><g class="message" data-participant-1="App" data-participant-2="AuthService"><polygon fill="#181818" points="341.7725,137.5625,351.7725,141.5625,341.7725,145.5625,345.7725,141.5625" style="stroke:#181818;stroke-width:1;"/><line style="stroke:#181818;stroke-width:1;" x1="180.6914" x2="347.7725" y1="141.5625" y2="141.5625"/><text fill="#000000" font-family="sans-serif" font-size="13" lengthAdjust="spacing" textLength="130.9204" x="187.6914" y="136.4966">Send Signup Details</text></g><g class="message" data-participant-1="AuthService" data-participant-2="Gateway"><polygon fill="#181818" points="507.4014,166.6953,517.4014,170.6953,507.4014,174.6953,511.4014,170.6953" style="stroke:#181818;stroke-width:1;"/><line style="stroke:#181818;stroke-width:1;" x1="353.7725" x2="513.4014" y1="170.6953" y2="170.6953"/><text fill="#000000" font-family="sans-serif" font-size="13" lengthAdjust="spacing" textLength="141.6289" x="360.7725" y="165.6294">Request OTP Delivery</text></g><g class="message" data-participant-1="Gateway" data-participant-2="User"><polygon fill="#181818" points="49.9551,195.8281,39.9551,199.8281,49.9551,203.8281,45.9551,199.8281" style="stroke:#181818;stroke-width:1;"/><line style="stroke:#181818;stroke-width:1;" x1="43.9551" x2="518.4014" y1="199.8281" y2="199.8281"/><text fill="#000000" font-family="sans-serif" font-size="13" lengthAdjust="spacing" textLength="76.4131" x="55.9551" y="194.7622">Deliver OTP</text></g><g class="message" data-participant-1="User" data-participant-2="App"><polygon fill="#181818" points="168.6914,224.9609,178.6914,228.9609,168.6914,232.9609,172.6914,228.9609" style="stroke:#181818;stroke-width:1;"/><line style="stroke:#181818;stroke-width:1;" x1="38.9551" x2="174.6914" y1="228.9609" y2="228.9609"/><text fill="#000000" font-family="sans-serif" font-size="13" lengthAdjust="spacing" textLength="65.0381" x="45.9551" y="223.895">Enter OTP</text></g><g class="message" data-participant-1="App" data-participant-2="AuthService"><polygon fill="#181818" points="341.7725,254.0938,351.7725,258.0938,341.7725,262.0938,345.7725,258.0938" style="stroke:#181818;stroke-width:1;"/><line style="stroke:#181818;stroke-width:1;" x1="180.6914" x2="347.7725" y1="258.0938" y2="258.0938"/><text fill="#000000" font-family="sans-serif" font-size="13" lengthAdjust="spacing" textLength="68.2627" x="187.6914" y="253.0278">Verify OTP</text></g><g class="message" data-participant-1="AuthService" data-participant-2="App"><polygon fill="#181818" points="191.6914,283.2266,181.6914,287.2266,191.6914,291.2266,187.6914,287.2266" style="stroke:#181818;stroke-width:1;"/><line style="stroke:#181818;stroke-width:1;" x1="185.6914" x2="352.7725" y1="287.2266" y2="287.2266"/><text fill="#000000" font-family="sans-serif" font-size="13" lengthAdjust="spacing" textLength="149.0811" x="197.6914" y="282.1606">OTP Verification Result</text></g><path d="M10,302.2266 L74.4429,302.2266 L74.4429,309.3594 L64.4429,319.3594 L10,319.3594 L10,302.2266" fill="#EEEEEE" style="stroke:#000000;stroke-width:1.5;"/><rect fill="none" height="148.4688" style="stroke:#000000;stroke-width:1.5;" width="405.2744" x="10" y="302.2266"/><text fill="#000000" font-family="sans-serif" font-size="13" font-weight="bold" lengthAdjust="spacing" textLength="19.4429" x="25" y="315.2935">alt</text><text fill="#000000" font-family="sans-serif" font-size="11" font-weight="bold" lengthAdjust="spacing" textLength="87.8604" x="89.4429" y="314.437">[OTP Verified]</text><g class="message" data-participant-1="App" data-participant-2="AuthService"><polygon fill="#181818" points="341.7725,336.4922,351.7725,340.4922,341.7725,344.4922,345.7725,340.4922" style="stroke:#181818;stroke-width:1;"/><line style="stroke:#181818;stroke-width:1;" x1="180.6914" x2="347.7725" y1="340.4922" y2="340.4922"/><text fill="#000000" font-family="sans-serif" font-size="13" lengthAdjust="spacing" textLength="97.2144" x="187.6914" y="335.4263">Create Session</text></g><g class="message" data-participant-1="AuthService" data-participant-2="App"><polygon fill="#181818" points="191.6914,365.625,181.6914,369.625,191.6914,373.625,187.6914,369.625" style="stroke:#181818;stroke-width:1;"/><line style="stroke:#181818;stroke-width:1;" x1="185.6914" x2="352.7725" y1="369.625" y2="369.625"/><text fill="#000000" font-family="sans-serif" font-size="13" lengthAdjust="spacing" textLength="105.4663" x="197.6914" y="364.5591">Session Created</text></g><g class="message" data-participant-1="App" data-participant-2="User"><polygon fill="#181818" points="49.9551,394.7578,39.9551,398.7578,49.9551,402.7578,45.9551,398.7578" style="stroke:#181818;stroke-width:1;"/><line style="stroke:#181818;stroke-width:1;" x1="43.9551" x2="179.6914" y1="398.7578" y2="398.7578"/><text fill="#000000" font-family="sans-serif" font-size="13" lengthAdjust="spacing" textLength="117.7363" x="55.9551" y="393.6919">Signup Successful</text></g><line style="stroke:#000000;stroke-width:1;stroke-dasharray:2,2;" x1="10" x2="415.2744" y1="407.7578" y2="407.7578"/><text fill="#000000" font-family="sans-serif" font-size="11" font-weight="bold" lengthAdjust="spacing" textLength="113.7114" x="15" y="417.9683">[OTP Not Verified]</text><g class="message" data-participant-1="App" data-participant-2="User"><polygon fill="#181818" points="49.9551,438.6953,39.9551,442.6953,49.9551,446.6953,45.9551,442.6953" style="stroke:#181818;stroke-width:1;"/><line style="stroke:#181818;stroke-width:1;" x1="43.9551" x2="179.6914" y1="442.6953" y2="442.6953"/><text fill="#000000" font-family="sans-serif" font-size="13" lengthAdjust="spacing" textLength="87.896" x="55.9551" y="437.6294">Signup Failed</text></g><!--SRC=[RP1FJmGX3CNl_HJDtettEPXiT3KU_1DHxuJjQXEMGIXhvjjR68mxPZX1twzzZredOyAtJ0cYJSAEems2snWNxysso2SQIYTsj46RiHRwUqcQ1tEvErhsU6U5lktKy7u7g5PuSLKT1hmFBAmA6lu89O8Mc_OtUr3JiEywtf3eu0ndGENxy05VwAjG5dnwVLRMyudI15sjO3KVVfLA_Skp2zBhQqdUAV5XckLbWDPSJHl2pWgFGTFauWN0UZaJQG-ePytWEb5R1kMi_JEsOjJrZY_6pH_ispB5EKKFnGFvJ2t3uoYhEHQDjxfabNNnFm00]--></g></svg>