<svg xmlns="http://www.w3.org/2000/svg" xmlns:xlink="http://www.w3.org/1999/xlink" contentStyleType="text/css" data-diagram-type="DESCRIPTION" height="346px" preserveAspectRatio="none" style="width:421px;height:346px;background:#FFFFFF;" version="1.1" viewBox="0 0 421 346" width="421px" zoomAndPan="magnify"><defs/><g><!--cluster System--><g class="cluster" data-entity="System" data-source-line="9" data-uid="ent0007" id="cluster_System"><rect fill="none" height="127.3" rx="2.5" ry="2.5" style="stroke:#181818;stroke-width:1;" width="349" x="66.48" y="212.99"/><text fill="#000000" font-family="sans-serif" font-size="14" font-weight="bold" lengthAdjust="spacing" textLength="58.3174" x="211.8213" y="227.9851">System</text></g><!--entity External Systems--><g class="entity" data-entity="External Systems" data-source-line="10" data-uid="ent0008" id="entity_External Systems"><ellipse cx="143.4806" cy="256.49" fill="#F1F1F1" rx="8" ry="8" style="stroke:#181818;stroke-width:0.5;"/><path d="M143.4806,264.49 L143.4806,291.49 M130.4806,272.49 L156.4806,272.49 M143.4806,291.49 L130.4806,306.49 M143.4806,291.49 L156.4806,306.49" fill="none" style="stroke:#181818;stroke-width:0.5;"/><text fill="#000000" font-family="sans-serif" font-size="14" lengthAdjust="spacing" textLength="122.2813" x="82.34" y="320.9851">External Systems</text></g><!--entity Social Media Platforms--><g class="entity" data-entity="Social Media Platforms" data-source-line="12" data-uid="ent0011" id="entity_Social Media Platforms"><ellipse cx="319.479" cy="256.49" fill="#F1F1F1" rx="8" ry="8" style="stroke:#181818;stroke-width:0.5;"/><path d="M319.479,264.49 L319.479,291.49 M306.479,272.49 L332.479,272.49 M319.479,291.49 L306.479,306.49 M319.479,291.49 L332.479,306.49" fill="none" style="stroke:#181818;stroke-width:0.5;"/><text fill="#000000" font-family="sans-serif" font-size="14" lengthAdjust="spacing" textLength="159.0381" x="239.96" y="320.9851">Social Media Platforms</text></g><!--entity DataManager--><g class="entity" data-entity="DataManager" data-source-line="1" data-uid="ent0002" id="entity_DataManager"><ellipse cx="214.4821" cy="14" fill="#F1F1F1" rx="8" ry="8" style="stroke:#181818;stroke-width:0.5;"/><path d="M214.4821,22 L214.4821,49 M201.4821,30 L227.4821,30 M214.4821,49 L201.4821,64 M214.4821,49 L227.4821,64" fill="none" style="stroke:#181818;stroke-width:0.5;"/><text fill="#000000" font-family="sans-serif" font-size="14" lengthAdjust="spacing" textLength="99.2441" x="164.86" y="78.4951">Data Manager</text></g><!--entity DBSync--><g class="entity" data-entity="DBSync" data-source-line="3" data-uid="ent0003" id="entity_DBSync"><ellipse cx="109.4784" cy="164.8957" fill="#F1F1F1" rx="103.4784" ry="23.0957" style="stroke:#181818;stroke-width:0.5;"/><text fill="#000000" font-family="sans-serif" font-size="14" lengthAdjust="spacing" textLength="183.6953" x="17.6308" y="169.5441">Database Synchronization</text></g><!--entity APIIntegration--><g class="entity" data-entity="APIIntegration" data-source-line="4" data-uid="ent0004" id="entity_APIIntegration"><ellipse cx="319.4835" cy="164.9027" fill="#F1F1F1" rx="71.8635" ry="16.7727" style="stroke:#181818;stroke-width:0.5;"/><text fill="#000000" font-family="sans-serif" font-size="14" lengthAdjust="spacing" textLength="111.0361" x="263.9654" y="169.5511">APIs Integration</text></g><!--link DataManager to DBSync--><g class="link" data-entity-1="DataManager" data-entity-2="DBSync" data-source-line="6" data-uid="lnk5" id="link_DataManager_DBSync"><path d="M181.54,82.06 C164.22,101.73 147.5566,120.6582 132.8066,137.3982" fill="none" id="DataManager-to-DBSync" style="stroke:#181818;stroke-width:1;"/><polygon fill="#181818" points="128.84,141.9,137.7911,137.7918,132.1455,138.1485,131.7887,132.5029,128.84,141.9" style="stroke:#181818;stroke-width:1;"/></g><!--link DataManager to APIIntegration--><g class="link" data-entity-1="DataManager" data-entity-2="APIIntegration" data-source-line="7" data-uid="lnk6" id="link_DataManager_APIIntegration"><path d="M247.41,82.06 C267.02,104.32 286.9047,126.9071 301.6547,143.6571" fill="none" id="DataManager-to-APIIntegration" style="stroke:#181818;stroke-width:1;"/><polygon fill="#181818" points="305.62,148.16,302.674,138.7621,302.3156,144.4075,296.6701,144.0491,305.62,148.16" style="stroke:#181818;stroke-width:1;"/></g><!--link DBSync to External Systems--><g class="link" data-entity-1="DBSync" data-entity-2="External Systems" data-source-line="10" data-uid="lnk9" id="link_DBSync_External Systems"><path d="M115.87,188.33 C120.64,205.06 125.6256,222.5297 131.1856,242.0397" fill="none" id="DBSync-to-External Systems" style="stroke:#181818;stroke-width:1;"/><polygon fill="#181818" points="132.83,247.81,134.2102,238.0583,131.4596,243.0015,126.5165,240.2509,132.83,247.81" style="stroke:#181818;stroke-width:1;"/></g><!--link APIIntegration to External Systems--><g class="link" data-entity-1="APIIntegration" data-entity-2="External Systems" data-source-line="11" data-uid="lnk10" id="link_APIIntegration_External Systems"><path d="M277.03,178.73 C259.34,185.14 239.1,193.92 222.48,204.99 C204.76,216.8 191.8746,228.6765 178.2446,243.4765" fill="none" id="APIIntegration-to-External Systems" style="stroke:#181818;stroke-width:1;"/><polygon fill="#181818" points="174.18,247.89,183.2192,243.9795,177.5672,244.2121,177.3346,238.56,174.18,247.89" style="stroke:#181818;stroke-width:1;"/></g><!--link APIIntegration to Social Media Platforms--><g class="link" data-entity-1="APIIntegration" data-entity-2="Social Media Platforms" data-source-line="12" data-uid="lnk12" id="link_APIIntegration_Social Media Platforms"><path d="M319.48,181.98 C319.48,198.7 319.48,219.46 319.48,241.54" fill="none" id="APIIntegration-to-Social Media Platforms" style="stroke:#181818;stroke-width:1;"/><polygon fill="#181818" points="319.48,247.54,323.48,238.54,319.48,242.54,315.48,238.54,319.48,247.54" style="stroke:#181818;stroke-width:1;"/></g><!--SRC=[bOt12i8m38RlVOhG-rv1KFImms2m9uWrpi9C8OtW5D_TrausT_EMVFd-_EWq2DWzAaA3Z3s91OoGmRGRSulaC5BHZddgHdON2UmVg3vmYUmodULjMqUeMQcNMKfmWOnPz41LRRvFrdWT4tAAt0-ffXkZqjN2qy2K_YJiuQuaZ0CK8Tfq_ttpdzS5vvFLqCaZj0FgEKYsN-OD]--></g></svg>