<svg xmlns="http://www.w3.org/2000/svg" xmlns:xlink="http://www.w3.org/1999/xlink" contentStyleType="text/css" data-diagram-type="SEQUENCE" height="311px" preserveAspectRatio="none" style="width:369px;height:311px;background:#FFFFFF;" version="1.1" viewBox="0 0 369 311" width="369px" zoomAndPan="magnify"><defs/><g><g><title>SurveyData</title><rect fill="#000000" fill-opacity="0.00000" height="149.5313" width="8" x="45.0635" y="81.2969"/><line style="stroke:#181818;stroke-width:0.5;stroke-dasharray:5,5;" x1="49" x2="49" y1="81.2969" y2="230.8281"/></g><g><title>ProcessingSystem</title><rect fill="#000000" fill-opacity="0.00000" height="149.5313" width="8" x="196.4673" y="81.2969"/><line style="stroke:#181818;stroke-width:0.5;stroke-dasharray:5,5;" x1="199.7085" x2="199.7085" y1="81.2969" y2="230.8281"/></g><g><title>Reports</title><rect fill="#000000" fill-opacity="0.00000" height="149.5313" width="8" x="325.3052" y="81.2969"/><line style="stroke:#181818;stroke-width:0.5;stroke-dasharray:5,5;" x1="329.1392" x2="329.1392" y1="81.2969" y2="230.8281"/></g><g class="participant participant-head" data-participant="SurveyData"><text fill="#000000" font-family="sans-serif" font-size="14" lengthAdjust="spacing" textLength="82.127" x="5" y="77.9951">SurveyData</text><ellipse cx="49.0635" cy="13.5" fill="#E2E2F0" rx="8" ry="8" style="stroke:#181818;stroke-width:0.5;"/><path d="M49.0635,21.5 L49.0635,48.5 M36.0635,29.5 L62.0635,29.5 M49.0635,48.5 L36.0635,63.5 M49.0635,48.5 L62.0635,63.5" fill="none" style="stroke:#181818;stroke-width:0.5;"/></g><g class="participant participant-tail" data-participant="SurveyData"><text fill="#000000" font-family="sans-serif" font-size="14" lengthAdjust="spacing" textLength="82.127" x="5" y="242.8232">SurveyData</text><ellipse cx="49.0635" cy="254.625" fill="#E2E2F0" rx="8" ry="8" style="stroke:#181818;stroke-width:0.5;"/><path d="M49.0635,262.625 L49.0635,289.625 M36.0635,270.625 L62.0635,270.625 M49.0635,289.625 L36.0635,304.625 M49.0635,289.625 L62.0635,304.625" fill="none" style="stroke:#181818;stroke-width:0.5;"/></g><g class="participant participant-head" data-participant="ProcessingSystem"><rect fill="#E2E2F0" height="30.2969" rx="2.5" ry="2.5" style="stroke:#181818;stroke-width:0.5;" width="141.5176" x="129.7085" y="50"/><text fill="#000000" font-family="sans-serif" font-size="14" lengthAdjust="spacing" textLength="127.5176" x="136.7085" y="69.9951">ProcessingSystem</text></g><g class="participant participant-tail" data-participant="ProcessingSystem"><rect fill="#E2E2F0" height="30.2969" rx="2.5" ry="2.5" style="stroke:#181818;stroke-width:0.5;" width="141.5176" x="129.7085" y="229.8281"/><text fill="#000000" font-family="sans-serif" font-size="14" lengthAdjust="spacing" textLength="127.5176" x="136.7085" y="249.8232">ProcessingSystem</text></g><g class="participant participant-head" data-participant="Reports"><rect fill="#E2E2F0" height="30.2969" rx="2.5" ry="2.5" style="stroke:#181818;stroke-width:0.5;" width="68.332" x="295.1392" y="50"/><text fill="#000000" font-family="sans-serif" font-size="14" lengthAdjust="spacing" textLength="54.332" x="302.1392" y="69.9951">Reports</text></g><g class="participant participant-tail" data-participant="Reports"><rect fill="#E2E2F0" height="30.2969" rx="2.5" ry="2.5" style="stroke:#181818;stroke-width:0.5;" width="68.332" x="295.1392" y="229.8281"/><text fill="#000000" font-family="sans-serif" font-size="14" lengthAdjust="spacing" textLength="54.332" x="302.1392" y="249.8232">Reports</text></g><g class="message" data-participant-1="SurveyData" data-participant-2="ProcessingSystem"><polygon fill="#181818" points="188.4673,108.4297,198.4673,112.4297,188.4673,116.4297,192.4673,112.4297" style="stroke:#181818;stroke-width:1;"/><line style="stroke:#181818;stroke-width:1;" x1="49.0635" x2="194.4673" y1="112.4297" y2="112.4297"/><text fill="#000000" font-family="sans-serif" font-size="13" lengthAdjust="spacing" textLength="127.4038" x="56.0635" y="107.3638">Submit survey data</text></g><g class="message" data-participant-1="ProcessingSystem" data-participant-2="ProcessingSystem"><line style="stroke:#181818;stroke-width:1;" x1="200.4673" x2="242.4673" y1="141.5625" y2="141.5625"/><line style="stroke:#181818;stroke-width:1;" x1="242.4673" x2="242.4673" y1="141.5625" y2="154.5625"/><line style="stroke:#181818;stroke-width:1;" x1="201.4673" x2="242.4673" y1="154.5625" y2="154.5625"/><polygon fill="#181818" points="211.4673,150.5625,201.4673,154.5625,211.4673,158.5625,207.4673,154.5625" style="stroke:#181818;stroke-width:1;"/><text fill="#000000" font-family="sans-serif" font-size="13" lengthAdjust="spacing" textLength="83.2432" x="207.4673" y="136.4966">Process data</text></g><g class="message" data-participant-1="ProcessingSystem" data-participant-2="Reports"><polygon fill="#181818" points="317.3052,179.6953,327.3052,183.6953,317.3052,187.6953,321.3052,183.6953" style="stroke:#181818;stroke-width:1;"/><line style="stroke:#181818;stroke-width:1;" x1="200.4673" x2="323.3052" y1="183.6953" y2="183.6953"/><text fill="#000000" font-family="sans-serif" font-size="13" lengthAdjust="spacing" textLength="104.8379" x="207.4673" y="178.6294">Generate report</text></g><g class="message" data-participant-1="Reports" data-participant-2="SurveyData"><polygon fill="#181818" points="60.0635,208.8281,50.0635,212.8281,60.0635,216.8281,56.0635,212.8281" style="stroke:#181818;stroke-width:1;"/><line style="stroke:#181818;stroke-width:1;" x1="54.0635" x2="328.3052" y1="212.8281" y2="212.8281"/><text fill="#000000" font-family="sans-serif" font-size="13" lengthAdjust="spacing" textLength="76.8638" x="66.0635" y="207.7622">Send report</text></g><!--SRC=[TOvB2e0m34JtFKKku0LSk1BSYfuWrY1Ts9Oa2jxU3uNYRplpNZ9eDJ3q2w-qrQXe8h8wwo9wXPQ39H7dftuJfVbMTXG3gnYJPIYgbrCUnuVPASY5mNW-UKBVOah-bJIXX8OyCIe1Nub9nSdaTSSIycD2TW00]--></g></svg>