<svg xmlns="http://www.w3.org/2000/svg" xmlns:xlink="http://www.w3.org/1999/xlink" contentStyleType="text/css" data-diagram-type="ACTIVITY" height="384px" preserveAspectRatio="none" style="width:310px;height:384px;background:#FFFFFF;" version="1.1" viewBox="0 0 310 384" width="310px" zoomAndPan="magnify"><defs/><g><ellipse cx="167.2905" cy="20" fill="#222222" rx="10" ry="10" style="stroke:#222222;stroke-width:1;"/><rect fill="#F1F1F1" height="33.9688" rx="12.5" ry="12.5" style="stroke:#181818;stroke-width:0.5;" width="132.3125" x="101.1343" y="50"/><text fill="#000000" font-family="sans-serif" font-size="12" lengthAdjust="spacing" textLength="112.3125" x="111.1343" y="71.1387">Access Client Data</text><rect fill="#F1F1F1" height="33.9688" rx="12.5" ry="12.5" style="stroke:#181818;stroke-width:0.5;" width="92.4395" x="121.0708" y="103.9688"/><text fill="#000000" font-family="sans-serif" font-size="12" lengthAdjust="spacing" textLength="72.4395" x="131.0708" y="125.1074">Modify Data</text><polygon fill="#F1F1F1" points="105.9473,179.3364,228.6338,179.3364,240.6338,191.3364,228.6338,203.3364,105.9473,203.3364,93.9473,191.3364,105.9473,179.3364" style="stroke:#181818;stroke-width:0.5;"/><text fill="#000000" font-family="sans-serif" font-size="11" lengthAdjust="spacing" textLength="122.6865" x="105.9473" y="195.1445">Validation Successful?</text><text fill="#000000" font-family="sans-serif" font-size="11" lengthAdjust="spacing" textLength="19.0083" x="74.939" y="188.7422">yes</text><text fill="#000000" font-family="sans-serif" font-size="11" lengthAdjust="spacing" textLength="13.7017" x="240.6338" y="188.7422">no</text><rect fill="#F1F1F1" height="33.9688" rx="12.5" ry="12.5" style="stroke:#181818;stroke-width:0.5;" width="116.2461" x="25.8242" y="213.3364"/><text fill="#000000" font-family="sans-serif" font-size="12" lengthAdjust="spacing" textLength="96.2461" x="35.8242" y="234.4751">Sync Databases</text><rect fill="#F1F1F1" height="33.9688" rx="12.5" ry="12.5" style="stroke:#181818;stroke-width:0.5;" width="145.8945" x="11" y="267.3052"/><text fill="#000000" font-family="sans-serif" font-size="12" lengthAdjust="spacing" textLength="125.8945" x="21" y="288.4438">Display Confirmation</text><rect fill="#F1F1F1" height="33.9688" rx="12.5" ry="12.5" style="stroke:#181818;stroke-width:0.5;" width="97.7715" x="201.748" y="213.3364"/><text fill="#000000" font-family="sans-serif" font-size="12" lengthAdjust="spacing" textLength="77.7715" x="211.748" y="234.4751">Display Error</text><polygon fill="#F1F1F1" points="167.2905,307.2739,179.2905,319.2739,167.2905,331.2739,155.2905,319.2739,167.2905,307.2739" style="stroke:#181818;stroke-width:0.5;"/><ellipse cx="167.2905" cy="362.2739" fill="none" rx="11" ry="11" style="stroke:#222222;stroke-width:1;"/><ellipse cx="167.2905" cy="362.2739" fill="#222222" rx="6" ry="6" style="stroke:#222222;stroke-width:1;"/><line style="stroke:#181818;stroke-width:1;" x1="167.2905" x2="167.2905" y1="30" y2="50"/><polygon fill="#181818" points="163.2905,40,167.2905,50,171.2905,40,167.2905,44" style="stroke:#181818;stroke-width:1;"/><line style="stroke:#181818;stroke-width:1;" x1="167.2905" x2="167.2905" y1="83.9688" y2="103.9688"/><polygon fill="#181818" points="163.2905,93.9688,167.2905,103.9688,171.2905,93.9688,167.2905,97.9688" style="stroke:#181818;stroke-width:1;"/><line style="stroke:#181818;stroke-width:1;" x1="83.9473" x2="83.9473" y1="247.3052" y2="267.3052"/><polygon fill="#181818" points="79.9473,257.3052,83.9473,267.3052,87.9473,257.3052,83.9473,261.3052" style="stroke:#181818;stroke-width:1;"/><line style="stroke:#181818;stroke-width:1;" x1="93.9473" x2="83.9473" y1="191.3364" y2="191.3364"/><line style="stroke:#181818;stroke-width:1;" x1="83.9473" x2="83.9473" y1="191.3364" y2="213.3364"/><polygon fill="#181818" points="79.9473,203.3364,83.9473,213.3364,87.9473,203.3364,83.9473,207.3364" style="stroke:#181818;stroke-width:1;"/><line style="stroke:#181818;stroke-width:1;" x1="240.6338" x2="250.6338" y1="191.3364" y2="191.3364"/><line style="stroke:#181818;stroke-width:1;" x1="250.6338" x2="250.6338" y1="191.3364" y2="213.3364"/><polygon fill="#181818" points="246.6338,203.3364,250.6338,213.3364,254.6338,203.3364,250.6338,207.3364" style="stroke:#181818;stroke-width:1;"/><line style="stroke:#181818;stroke-width:1;" x1="83.9473" x2="83.9473" y1="301.2739" y2="319.2739"/><line style="stroke:#181818;stroke-width:1;" x1="83.9473" x2="155.2905" y1="319.2739" y2="319.2739"/><polygon fill="#181818" points="145.2905,315.2739,155.2905,319.2739,145.2905,323.2739,149.2905,319.2739" style="stroke:#181818;stroke-width:1;"/><line style="stroke:#181818;stroke-width:1;" x1="250.6338" x2="250.6338" y1="247.3052" y2="319.2739"/><line style="stroke:#181818;stroke-width:1;" x1="250.6338" x2="179.2905" y1="319.2739" y2="319.2739"/><polygon fill="#181818" points="189.2905,315.2739,179.2905,319.2739,189.2905,323.2739,185.2905,319.2739" style="stroke:#181818;stroke-width:1;"/><line style="stroke:#181818;stroke-width:1;" x1="167.2905" x2="167.2905" y1="137.9375" y2="179.3364"/><polygon fill="#181818" points="163.2905,169.3364,167.2905,179.3364,171.2905,169.3364,167.2905,173.3364" style="stroke:#181818;stroke-width:1;"/><text fill="#000000" font-family="sans-serif" font-size="11" lengthAdjust="spacing" textLength="125.1895" x="171.2905" y="159.2422">System Validates Data</text><line style="stroke:#181818;stroke-width:1;" x1="167.2905" x2="167.2905" y1="331.2739" y2="351.2739"/><polygon fill="#181818" points="163.2905,341.2739,167.2905,351.2739,171.2905,341.2739,167.2905,345.2739" style="stroke:#181818;stroke-width:1;"/><!--SRC=[JOuz3eCm38Ltdy8Z6Ne1a5fLqB4JKdSN7DLIS51iXjo-535qV7-VdZaL1sZlqyHcs2TXTHp8gOFscMU9zLHmkU9OpNd15oMPoTdEI28sfoTPSTmEMDpIBQ1_MB6fR04Gsx7gT8pUP6pTpnh4raGL-wnHod8WEk1aZ8tcy5zvb9BBdkb-2y0yhry0]--></g></svg>