<svg xmlns="http://www.w3.org/2000/svg" xmlns:xlink="http://www.w3.org/1999/xlink" contentStyleType="text/css" data-diagram-type="ACTIVITY" height="306px" preserveAspectRatio="none" style="width:329px;height:306px;background:#FFFFFF;" version="1.1" viewBox="0 0 329 306" width="329px" zoomAndPan="magnify"><defs/><g><ellipse cx="173.6045" cy="20" fill="#222222" rx="10" ry="10" style="stroke:#222222;stroke-width:1;"/><rect fill="#F1F1F1" height="33.9688" rx="12.5" ry="12.5" style="stroke:#181818;stroke-width:0.5;" width="132.0254" x="107.5918" y="50"/><text fill="#000000" font-family="sans-serif" font-size="12" lengthAdjust="spacing" textLength="112.0254" x="117.5918" y="71.1387">User rates product</text><rect fill="#F1F1F1" height="33.9688" rx="12.5" ry="12.5" style="stroke:#181818;stroke-width:0.5;" width="145.7305" x="100.7393" y="103.9688"/><text fill="#000000" font-family="sans-serif" font-size="12" lengthAdjust="spacing" textLength="125.7305" x="110.7393" y="125.1074">User uploads images</text><polygon fill="#F1F1F1" points="124.3838,179.3364,222.8252,179.3364,234.8252,191.3364,222.8252,203.3364,124.3838,203.3364,112.3838,191.3364,124.3838,179.3364" style="stroke:#181818;stroke-width:0.5;"/><text fill="#000000" font-family="sans-serif" font-size="11" lengthAdjust="spacing" textLength="98.4414" x="124.3838" y="195.1445">Constraints valid?</text><text fill="#000000" font-family="sans-serif" font-size="11" lengthAdjust="spacing" textLength="19.0083" x="93.3755" y="188.7422">yes</text><text fill="#000000" font-family="sans-serif" font-size="11" lengthAdjust="spacing" textLength="13.7017" x="234.8252" y="188.7422">no</text><polygon fill="#F1F1F1" points="173.6045,229.6377,185.6045,241.6377,173.6045,253.6377,161.6045,241.6377,173.6045,229.6377" style="stroke:#181818;stroke-width:0.5;"/><text fill="#000000" font-family="sans-serif" font-size="11" lengthAdjust="spacing" textLength="151.6045" x="10" y="239.0435">App updates product rating</text><text fill="#000000" font-family="sans-serif" font-size="11" lengthAdjust="spacing" textLength="116.8804" x="185.6045" y="239.0435">:Show error message</text><ellipse cx="173.6045" cy="284.6377" fill="none" rx="11" ry="11" style="stroke:#222222;stroke-width:1;"/><ellipse cx="173.6045" cy="284.6377" fill="#222222" rx="6" ry="6" style="stroke:#222222;stroke-width:1;"/><line style="stroke:#181818;stroke-width:1;" x1="173.6045" x2="173.6045" y1="30" y2="50"/><polygon fill="#181818" points="169.6045,40,173.6045,50,177.6045,40,173.6045,44" style="stroke:#181818;stroke-width:1;"/><line style="stroke:#181818;stroke-width:1;" x1="173.6045" x2="173.6045" y1="83.9688" y2="103.9688"/><polygon fill="#181818" points="169.6045,93.9688,173.6045,103.9688,177.6045,93.9688,173.6045,97.9688" style="stroke:#181818;stroke-width:1;"/><line style="stroke:#181818;stroke-width:1;" x1="112.3838" x2="102.3838" y1="191.3364" y2="191.3364"/><polygon fill="#181818" points="98.3838,207.7388,102.3838,217.7388,106.3838,207.7388,102.3838,211.7388" style="stroke:#181818;stroke-width:1;"/><line style="stroke:#181818;stroke-width:1;" x1="102.3838" x2="102.3838" y1="191.3364" y2="241.6377"/><line style="stroke:#181818;stroke-width:1;" x1="102.3838" x2="161.6045" y1="241.6377" y2="241.6377"/><polygon fill="#181818" points="151.6045,237.6377,161.6045,241.6377,151.6045,245.6377,155.6045,241.6377" style="stroke:#181818;stroke-width:1;"/><line style="stroke:#181818;stroke-width:1;" x1="234.8252" x2="244.8252" y1="191.3364" y2="191.3364"/><polygon fill="#181818" points="240.8252,207.7388,244.8252,217.7388,248.8252,207.7388,244.8252,211.7388" style="stroke:#181818;stroke-width:1;"/><line style="stroke:#181818;stroke-width:1;" x1="244.8252" x2="244.8252" y1="191.3364" y2="241.6377"/><line style="stroke:#181818;stroke-width:1;" x1="244.8252" x2="185.6045" y1="241.6377" y2="241.6377"/><polygon fill="#181818" points="195.6045,237.6377,185.6045,241.6377,195.6045,245.6377,191.6045,241.6377" style="stroke:#181818;stroke-width:1;"/><line style="stroke:#181818;stroke-width:1;" x1="173.6045" x2="173.6045" y1="137.9375" y2="179.3364"/><polygon fill="#181818" points="169.6045,169.3364,173.6045,179.3364,177.6045,169.3364,173.6045,173.3364" style="stroke:#181818;stroke-width:1;"/><text fill="#000000" font-family="sans-serif" font-size="11" lengthAdjust="spacing" textLength="139.5088" x="177.6045" y="159.2422">App validates constraints</text><line style="stroke:#181818;stroke-width:1;" x1="173.6045" x2="173.6045" y1="253.6377" y2="273.6377"/><polygon fill="#181818" points="169.6045,263.6377,173.6045,273.6377,177.6045,263.6377,173.6045,267.6377" style="stroke:#181818;stroke-width:1;"/><!--SRC=[JOv13e9034NtFKMNiF02JA8n7i5uW0bJi0bC9ss1U7j79S7j-_-_VFEe3j0zZ1GrEXaMbRJq7dQub4bYCkGvZcG1u7J6QocunedJTz1BDjV8sMlC0pQt0_ngbnRzIHcR5raBYBl2NBJkbLQcBHnyAUd_oUSNvp40JKROPDaLtVqf6vAgACvaLl_LJauy05HrUGC0]--></g></svg>