<svg xmlns="http://www.w3.org/2000/svg" xmlns:xlink="http://www.w3.org/1999/xlink" contentStyleType="text/css" data-diagram-type="SEQUENCE" height="356px" preserveAspectRatio="none" style="width:525px;height:356px;background:#FFFFFF;" version="1.1" viewBox="0 0 525 356" width="525px" zoomAndPan="magnify"><defs/><g><g><title>Analyst</title><rect fill="#000000" fill-opacity="0.00000" height="194.7969" width="8" x="29.9937" y="81.2969"/><line style="stroke:#181818;stroke-width:0.5;stroke-dasharray:5,5;" x1="33" x2="33" y1="81.2969" y2="276.0938"/></g><g><title>Web App</title><rect fill="#000000" fill-opacity="0.00000" height="194.7969" width="8" x="215.751" y="81.2969"/><line style="stroke:#181818;stroke-width:0.5;stroke-dasharray:5,5;" x1="219.1792" x2="219.1792" y1="81.2969" y2="276.0938"/></g><g><title>Taxonomy Engine</title><rect fill="#000000" fill-opacity="0.00000" height="194.7969" width="8" x="343.4146" y="81.2969"/><line style="stroke:#181818;stroke-width:0.5;stroke-dasharray:5,5;" x1="346.5273" x2="346.5273" y1="81.2969" y2="276.0938"/></g><g><title>Database</title><rect fill="#000000" fill-opacity="0.00000" height="194.7969" width="8" x="483.8877" y="81.2969"/><line style="stroke:#181818;stroke-width:0.5;stroke-dasharray:5,5;" x1="487.4873" x2="487.4873" y1="81.2969" y2="276.0938"/></g><g class="participant participant-head" data-participant="Analyst"><text fill="#000000" font-family="sans-serif" font-size="14" lengthAdjust="spacing" textLength="51.9873" x="5" y="77.9951">Analyst</text><ellipse cx="33.9937" cy="13.5" fill="#E2E2F0" rx="8" ry="8" style="stroke:#181818;stroke-width:0.5;"/><path d="M33.9937,21.5 L33.9937,48.5 M20.9937,29.5 L46.9937,29.5 M33.9937,48.5 L20.9937,63.5 M33.9937,48.5 L46.9937,63.5" fill="none" style="stroke:#181818;stroke-width:0.5;"/></g><g class="participant participant-tail" data-participant="Analyst"><text fill="#000000" font-family="sans-serif" font-size="14" lengthAdjust="spacing" textLength="51.9873" x="5" y="288.0889">Analyst</text><ellipse cx="33.9937" cy="299.8906" fill="#E2E2F0" rx="8" ry="8" style="stroke:#181818;stroke-width:0.5;"/><path d="M33.9937,307.8906 L33.9937,334.8906 M20.9937,315.8906 L46.9937,315.8906 M33.9937,334.8906 L20.9937,349.8906 M33.9937,334.8906 L46.9937,349.8906" fill="none" style="stroke:#181818;stroke-width:0.5;"/></g><g class="participant participant-head" data-participant="WebApp"><rect fill="#E2E2F0" height="30.2969" rx="2.5" ry="2.5" style="stroke:#181818;stroke-width:0.5;" width="77.1436" x="181.1792" y="50"/><text fill="#000000" font-family="sans-serif" font-size="14" lengthAdjust="spacing" textLength="63.1436" x="188.1792" y="69.9951">Web App</text></g><g class="participant participant-tail" data-participant="WebApp"><rect fill="#E2E2F0" height="30.2969" rx="2.5" ry="2.5" style="stroke:#181818;stroke-width:0.5;" width="77.1436" x="181.1792" y="275.0938"/><text fill="#000000" font-family="sans-serif" font-size="14" lengthAdjust="spacing" textLength="63.1436" x="188.1792" y="295.0889">Web App</text></g><g class="participant participant-head" data-participant="TaxonomyEngine"><rect fill="#E2E2F0" height="30.2969" rx="2.5" ry="2.5" style="stroke:#181818;stroke-width:0.5;" width="139.7744" x="277.5273" y="50"/><text fill="#000000" font-family="sans-serif" font-size="14" lengthAdjust="spacing" textLength="125.7744" x="284.5273" y="69.9951">Taxonomy Engine</text></g><g class="participant participant-tail" data-participant="TaxonomyEngine"><rect fill="#E2E2F0" height="30.2969" rx="2.5" ry="2.5" style="stroke:#181818;stroke-width:0.5;" width="139.7744" x="277.5273" y="275.0938"/><text fill="#000000" font-family="sans-serif" font-size="14" lengthAdjust="spacing" textLength="125.7744" x="284.5273" y="295.0889">Taxonomy Engine</text></g><g class="participant participant-head" data-participant="Database"><text fill="#000000" font-family="sans-serif" font-size="14" lengthAdjust="spacing" textLength="66.8008" x="451.4873" y="77.9951">Database</text><path d="M469.8877,29 C469.8877,19 487.8877,19 487.8877,19 C487.8877,19 505.8877,19 505.8877,29 L505.8877,55 C505.8877,65 487.8877,65 487.8877,65 C487.8877,65 469.8877,65 469.8877,55 L469.8877,29" fill="#E2E2F0" style="stroke:#181818;stroke-width:0.5;"/><path d="M469.8877,29 C469.8877,39 487.8877,39 487.8877,39 C487.8877,39 505.8877,39 505.8877,29" fill="none" style="stroke:#181818;stroke-width:0.5;"/></g><g class="participant participant-tail" data-participant="Database"><text fill="#000000" font-family="sans-serif" font-size="14" lengthAdjust="spacing" textLength="66.8008" x="451.4873" y="288.0889">Database</text><path d="M469.8877,301.3906 C469.8877,291.3906 487.8877,291.3906 487.8877,291.3906 C487.8877,291.3906 505.8877,291.3906 505.8877,301.3906 L505.8877,327.3906 C505.8877,337.3906 487.8877,337.3906 487.8877,337.3906 C487.8877,337.3906 469.8877,337.3906 469.8877,327.3906 L469.8877,301.3906" fill="#E2E2F0" style="stroke:#181818;stroke-width:0.5;"/><path d="M469.8877,301.3906 C469.8877,311.3906 487.8877,311.3906 487.8877,311.3906 C487.8877,311.3906 505.8877,311.3906 505.8877,301.3906" fill="none" style="stroke:#181818;stroke-width:0.5;"/></g><g class="message" data-participant-1="Analyst" data-participant-2="WebApp"><polygon fill="#181818" points="207.751,108.4297,217.751,112.4297,207.751,116.4297,211.751,112.4297" style="stroke:#181818;stroke-width:1;"/><line style="stroke:#181818;stroke-width:1;" x1="33.9937" x2="213.751" y1="112.4297" y2="112.4297"/><text fill="#000000" font-family="sans-serif" font-size="13" lengthAdjust="spacing" textLength="103.3271" x="40.9937" y="107.3638">Request update</text></g><g class="message" data-participant-1="WebApp" data-participant-2="TaxonomyEngine"><polygon fill="#181818" points="335.4146,137.5625,345.4146,141.5625,335.4146,145.5625,339.4146,141.5625" style="stroke:#181818;stroke-width:1;"/><line style="stroke:#181818;stroke-width:1;" x1="219.751" x2="341.4146" y1="141.5625" y2="141.5625"/><text fill="#000000" font-family="sans-serif" font-size="13" lengthAdjust="spacing" textLength="103.6636" x="226.751" y="136.4966">Process request</text></g><g class="message" data-participant-1="TaxonomyEngine" data-participant-2="Database"><polygon fill="#181818" points="475.8877,166.6953,485.8877,170.6953,475.8877,174.6953,479.8877,170.6953" style="stroke:#181818;stroke-width:1;"/><line style="stroke:#181818;stroke-width:1;" x1="347.4146" x2="481.8877" y1="170.6953" y2="170.6953"/><text fill="#000000" font-family="sans-serif" font-size="13" lengthAdjust="spacing" textLength="116.4731" x="354.4146" y="165.6294">Update taxonomy</text></g><g class="message" data-participant-1="Database" data-participant-2="TaxonomyEngine"><polygon fill="#181818" points="358.4146,195.8281,348.4146,199.8281,358.4146,203.8281,354.4146,199.8281" style="stroke:#181818;stroke-width:1;"/><line style="stroke:#181818;stroke-width:1;stroke-dasharray:2,2;" x1="352.4146" x2="486.8877" y1="199.8281" y2="199.8281"/><text fill="#000000" font-family="sans-serif" font-size="13" lengthAdjust="spacing" textLength="84.335" x="364.4146" y="194.7622">Confirmation</text></g><g class="message" data-participant-1="TaxonomyEngine" data-participant-2="WebApp"><polygon fill="#181818" points="230.751,224.9609,220.751,228.9609,230.751,232.9609,226.751,228.9609" style="stroke:#181818;stroke-width:1;"/><line style="stroke:#181818;stroke-width:1;stroke-dasharray:2,2;" x1="224.751" x2="346.4146" y1="228.9609" y2="228.9609"/><text fill="#000000" font-family="sans-serif" font-size="13" lengthAdjust="spacing" textLength="102.064" x="236.751" y="223.895">Update success</text></g><g class="message" data-participant-1="WebApp" data-participant-2="Analyst"><polygon fill="#181818" points="44.9937,254.0938,34.9937,258.0938,44.9937,262.0938,40.9937,258.0938" style="stroke:#181818;stroke-width:1;"/><line style="stroke:#181818;stroke-width:1;" x1="38.9937" x2="218.751" y1="258.0938" y2="258.0938"/><text fill="#000000" font-family="sans-serif" font-size="13" lengthAdjust="spacing" textLength="161.7573" x="50.9937" y="253.0278">Reporting maps updated</text></g><!--SRC=[RL3B2i8m4BpdAuRU-mCz24MzYoYUjsai0Rk9UO3zUvCsXHQz3REpipDBCXY7bkar-I0ikQ2bjiG1rKDrQAsjG1u99xYVt-XZs8mJpZneLhDkvHPAz1Ie8wzmAa28SWhrePWskAftL8cADkcLMEWisBirk3WZbVTmouBOp_F6UgV1VJP3A1AnJb3_CJuQVcetKj26VrmtIOkfZpBds2GjhN8NQzAFUC18rfTA_HS0]--></g></svg>