<svg xmlns="http://www.w3.org/2000/svg" xmlns:xlink="http://www.w3.org/1999/xlink" contentStyleType="text/css" data-diagram-type="SEQUENCE" height="356px" preserveAspectRatio="none" style="width:479px;height:356px;background:#FFFFFF;" version="1.1" viewBox="0 0 479 356" width="479px" zoomAndPan="magnify"><defs/><g><g><title>User</title><rect fill="#000000" fill-opacity="0.00000" height="194.7969" width="8" x="19.9551" y="81.2969"/><line style="stroke:#181818;stroke-width:0.5;stroke-dasharray:5,5;" x1="23" x2="23" y1="81.2969" y2="276.0938"/></g><g><title>App</title><rect fill="#000000" fill-opacity="0.00000" height="194.7969" width="8" x="96.5137" y="81.2969"/><line style="stroke:#181818;stroke-width:0.5;stroke-dasharray:5,5;" x1="99.8384" x2="99.8384" y1="81.2969" y2="276.0938"/></g><g><title>Platform</title><rect fill="#000000" fill-opacity="0.00000" height="194.7969" width="8" x="228.7856" y="81.2969"/><line style="stroke:#181818;stroke-width:0.5;stroke-dasharray:5,5;" x1="232.1416" x2="232.1416" y1="81.2969" y2="276.0938"/></g><g><title>Delivery Service</title><rect fill="#000000" fill-opacity="0.00000" height="194.7969" width="8" x="339.5815" y="81.2969"/><line style="stroke:#181818;stroke-width:0.5;stroke-dasharray:5,5;" x1="343.4297" x2="343.4297" y1="81.2969" y2="276.0938"/></g><g><title>Dialer</title><rect fill="#000000" fill-opacity="0.00000" height="194.7969" width="8" x="441.4873" y="81.2969"/><line style="stroke:#181818;stroke-width:0.5;stroke-dasharray:5,5;" x1="444.7334" x2="444.7334" y1="81.2969" y2="276.0938"/></g><g class="participant participant-head" data-participant="User"><text fill="#000000" font-family="sans-serif" font-size="14" lengthAdjust="spacing" textLength="31.9102" x="5" y="77.9951">User</text><ellipse cx="23.9551" cy="13.5" fill="#E2E2F0" rx="8" ry="8" style="stroke:#181818;stroke-width:0.5;"/><path d="M23.9551,21.5 L23.9551,48.5 M10.9551,29.5 L36.9551,29.5 M23.9551,48.5 L10.9551,63.5 M23.9551,48.5 L36.9551,63.5" fill="none" style="stroke:#181818;stroke-width:0.5;"/></g><g class="participant participant-tail" data-participant="User"><text fill="#000000" font-family="sans-serif" font-size="14" lengthAdjust="spacing" textLength="31.9102" x="5" y="288.0889">User</text><ellipse cx="23.9551" cy="299.8906" fill="#E2E2F0" rx="8" ry="8" style="stroke:#181818;stroke-width:0.5;"/><path d="M23.9551,307.8906 L23.9551,334.8906 M10.9551,315.8906 L36.9551,315.8906 M23.9551,334.8906 L10.9551,349.8906 M23.9551,334.8906 L36.9551,349.8906" fill="none" style="stroke:#181818;stroke-width:0.5;"/></g><g class="participant participant-head" data-participant="App"><rect fill="#E2E2F0" height="30.2969" rx="2.5" ry="2.5" style="stroke:#181818;stroke-width:0.5;" width="41.3506" x="79.8384" y="50"/><text fill="#000000" font-family="sans-serif" font-size="14" lengthAdjust="spacing" textLength="27.3506" x="86.8384" y="69.9951">App</text></g><g class="participant participant-tail" data-participant="App"><rect fill="#E2E2F0" height="30.2969" rx="2.5" ry="2.5" style="stroke:#181818;stroke-width:0.5;" width="41.3506" x="79.8384" y="275.0938"/><text fill="#000000" font-family="sans-serif" font-size="14" lengthAdjust="spacing" textLength="27.3506" x="86.8384" y="295.0889">App</text></g><g class="participant participant-head" data-participant="Platform"><rect fill="#E2E2F0" height="30.2969" rx="2.5" ry="2.5" style="stroke:#181818;stroke-width:0.5;" width="73.2881" x="196.1416" y="50"/><text fill="#000000" font-family="sans-serif" font-size="14" lengthAdjust="spacing" textLength="59.2881" x="203.1416" y="69.9951">Platform</text></g><g class="participant participant-tail" data-participant="Platform"><rect fill="#E2E2F0" height="30.2969" rx="2.5" ry="2.5" style="stroke:#181818;stroke-width:0.5;" width="73.2881" x="196.1416" y="275.0938"/><text fill="#000000" font-family="sans-serif" font-size="14" lengthAdjust="spacing" textLength="59.2881" x="203.1416" y="295.0889">Platform</text></g><g class="participant participant-head" data-participant="DeliveryService"><rect fill="#E2E2F0" height="30.2969" rx="2.5" ry="2.5" style="stroke:#181818;stroke-width:0.5;" width="128.3037" x="279.4297" y="50"/><text fill="#000000" font-family="sans-serif" font-size="14" lengthAdjust="spacing" textLength="114.3037" x="286.4297" y="69.9951">Delivery Service</text></g><g class="participant participant-tail" data-participant="DeliveryService"><rect fill="#E2E2F0" height="30.2969" rx="2.5" ry="2.5" style="stroke:#181818;stroke-width:0.5;" width="128.3037" x="279.4297" y="275.0938"/><text fill="#000000" font-family="sans-serif" font-size="14" lengthAdjust="spacing" textLength="114.3037" x="286.4297" y="295.0889">Delivery Service</text></g><g class="participant participant-head" data-participant="Dialer"><rect fill="#E2E2F0" height="30.2969" rx="2.5" ry="2.5" style="stroke:#181818;stroke-width:0.5;" width="55.5078" x="417.7334" y="50"/><text fill="#000000" font-family="sans-serif" font-size="14" lengthAdjust="spacing" textLength="41.5078" x="424.7334" y="69.9951">Dialer</text></g><g class="participant participant-tail" data-participant="Dialer"><rect fill="#E2E2F0" height="30.2969" rx="2.5" ry="2.5" style="stroke:#181818;stroke-width:0.5;" width="55.5078" x="417.7334" y="275.0938"/><text fill="#000000" font-family="sans-serif" font-size="14" lengthAdjust="spacing" textLength="41.5078" x="424.7334" y="295.0889">Dialer</text></g><g class="message" data-participant-1="User" data-participant-2="App"><polygon fill="#181818" points="88.5137,108.4297,98.5137,112.4297,88.5137,116.4297,92.5137,112.4297" style="stroke:#181818;stroke-width:1;"/><line style="stroke:#181818;stroke-width:1;" x1="23.9551" x2="94.5137" y1="112.4297" y2="112.4297"/><text fill="#000000" font-family="sans-serif" font-size="13" lengthAdjust="spacing" textLength="52.5586" x="30.9551" y="107.3638">Tap Call</text></g><g class="message" data-participant-1="App" data-participant-2="Platform"><polygon fill="#181818" points="220.7856,137.5625,230.7856,141.5625,220.7856,145.5625,224.7856,141.5625" style="stroke:#181818;stroke-width:1;"/><line style="stroke:#181818;stroke-width:1;" x1="100.5137" x2="226.7856" y1="141.5625" y2="141.5625"/><text fill="#000000" font-family="sans-serif" font-size="13" lengthAdjust="spacing" textLength="97.7158" x="107.5137" y="136.4966">Verify platform</text></g><g class="message" data-participant-1="Platform" data-participant-2="App"><polygon fill="#181818" points="111.5137,166.6953,101.5137,170.6953,111.5137,174.6953,107.5137,170.6953" style="stroke:#181818;stroke-width:1;"/><line style="stroke:#181818;stroke-width:1;stroke-dasharray:2,2;" x1="105.5137" x2="231.7856" y1="170.6953" y2="170.6953"/><text fill="#000000" font-family="sans-serif" font-size="13" lengthAdjust="spacing" textLength="108.272" x="117.5137" y="165.6294">Platform verified</text></g><g class="message" data-participant-1="App" data-participant-2="DeliveryService"><polygon fill="#181818" points="331.5815,195.8281,341.5815,199.8281,331.5815,203.8281,335.5815,199.8281" style="stroke:#181818;stroke-width:1;"/><line style="stroke:#181818;stroke-width:1;" x1="100.5137" x2="337.5815" y1="199.8281" y2="199.8281"/><text fill="#000000" font-family="sans-serif" font-size="13" lengthAdjust="spacing" textLength="127.8101" x="107.5137" y="194.7622">Get courier number</text></g><g class="message" data-participant-1="DeliveryService" data-participant-2="App"><polygon fill="#181818" points="111.5137,224.9609,101.5137,228.9609,111.5137,232.9609,107.5137,228.9609" style="stroke:#181818;stroke-width:1;"/><line style="stroke:#181818;stroke-width:1;stroke-dasharray:2,2;" x1="105.5137" x2="342.5815" y1="228.9609" y2="228.9609"/><text fill="#000000" font-family="sans-serif" font-size="13" lengthAdjust="spacing" textLength="102.4385" x="117.5137" y="223.895">Courier number</text></g><g class="message" data-participant-1="App" data-participant-2="Dialer"><polygon fill="#181818" points="433.4873,254.0938,443.4873,258.0938,433.4873,262.0938,437.4873,258.0938" style="stroke:#181818;stroke-width:1;"/><line style="stroke:#181818;stroke-width:1;" x1="100.5137" x2="439.4873" y1="258.0938" y2="258.0938"/><text fill="#000000" font-family="sans-serif" font-size="13" lengthAdjust="spacing" textLength="183.4282" x="107.5137" y="253.0278">Launch with courier number</text></g><!--SRC=[NOwz3i8m38JtF8NLlI-G0GaLYOK1YP_T15UrbBQHcnRrxKa20JLJuhlFvqFZHu7RHA8SYcV33WSFrTwv2d22y6wDiqNVZj8dDmzRv42M5v8LBYGB6qfe5hzQiS5eIJvS-YeLAq6zYmKqND51WzQgC4KntzLm9-5s1PUBP0VglFjJbeWoFND8qKZ3aJoOSHOEbuUvVuGQ1VDFRRPSZapbDPnm7am7B_PTcVW6]--></g></svg>