<svg xmlns="http://www.w3.org/2000/svg" xmlns:xlink="http://www.w3.org/1999/xlink" contentStyleType="text/css" data-diagram-type="SEQUENCE" height="298px" preserveAspectRatio="none" style="width:437px;height:298px;background:#FFFFFF;" version="1.1" viewBox="0 0 437 298" width="437px" zoomAndPan="magnify"><defs/><g><g><title>User</title><rect fill="#000000" fill-opacity="0.00000" height="136.5313" width="8" x="19.9551" y="81.2969"/><line style="stroke:#181818;stroke-width:0.5;stroke-dasharray:5,5;" x1="23" x2="23" y1="81.2969" y2="217.8281"/></g><g><title>MarketTrends</title><rect fill="#000000" fill-opacity="0.00000" height="136.5313" width="8" x="132.5176" y="81.2969"/><line style="stroke:#181818;stroke-width:0.5;stroke-dasharray:5,5;" x1="136.2183" x2="136.2183" y1="81.2969" y2="217.8281"/></g><g><title>AnalyticsEngine</title><rect fill="#000000" fill-opacity="0.00000" height="136.5313" width="8" x="260.5947" y="81.2969"/><line style="stroke:#181818;stroke-width:0.5;stroke-dasharray:5,5;" x1="263.8169" x2="263.8169" y1="81.2969" y2="217.8281"/></g><g><title>Reports</title><rect fill="#000000" fill-opacity="0.00000" height="136.5313" width="8" x="393.1206" y="81.2969"/><line style="stroke:#181818;stroke-width:0.5;stroke-dasharray:5,5;" x1="396.9546" x2="396.9546" y1="81.2969" y2="217.8281"/></g><g class="participant participant-head" data-participant="User"><text fill="#000000" font-family="sans-serif" font-size="14" lengthAdjust="spacing" textLength="31.9102" x="5" y="77.9951">User</text><ellipse cx="23.9551" cy="13.5" fill="#E2E2F0" rx="8" ry="8" style="stroke:#181818;stroke-width:0.5;"/><path d="M23.9551,21.5 L23.9551,48.5 M10.9551,29.5 L36.9551,29.5 M23.9551,48.5 L10.9551,63.5 M23.9551,48.5 L36.9551,63.5" fill="none" style="stroke:#181818;stroke-width:0.5;"/></g><g class="participant participant-tail" data-participant="User"><text fill="#000000" font-family="sans-serif" font-size="14" lengthAdjust="spacing" textLength="31.9102" x="5" y="229.8232">User</text><ellipse cx="23.9551" cy="241.625" fill="#E2E2F0" rx="8" ry="8" style="stroke:#181818;stroke-width:0.5;"/><path d="M23.9551,249.625 L23.9551,276.625 M10.9551,257.625 L36.9551,257.625 M23.9551,276.625 L10.9551,291.625 M23.9551,276.625 L36.9551,291.625" fill="none" style="stroke:#181818;stroke-width:0.5;"/></g><g class="participant participant-head" data-participant="MarketTrends"><rect fill="#E2E2F0" height="30.2969" rx="2.5" ry="2.5" style="stroke:#181818;stroke-width:0.5;" width="110.5986" x="81.2183" y="50"/><text fill="#000000" font-family="sans-serif" font-size="14" lengthAdjust="spacing" textLength="96.5986" x="88.2183" y="69.9951">MarketTrends</text></g><g class="participant participant-tail" data-participant="MarketTrends"><rect fill="#E2E2F0" height="30.2969" rx="2.5" ry="2.5" style="stroke:#181818;stroke-width:0.5;" width="110.5986" x="81.2183" y="216.8281"/><text fill="#000000" font-family="sans-serif" font-size="14" lengthAdjust="spacing" textLength="96.5986" x="88.2183" y="236.8232">MarketTrends</text></g><g class="participant participant-head" data-participant="AnalyticsEngine"><rect fill="#E2E2F0" height="30.2969" rx="2.5" ry="2.5" style="stroke:#181818;stroke-width:0.5;" width="125.5557" x="201.8169" y="50"/><text fill="#000000" font-family="sans-serif" font-size="14" lengthAdjust="spacing" textLength="111.5557" x="208.8169" y="69.9951">AnalyticsEngine</text></g><g class="participant participant-tail" data-participant="AnalyticsEngine"><rect fill="#E2E2F0" height="30.2969" rx="2.5" ry="2.5" style="stroke:#181818;stroke-width:0.5;" width="125.5557" x="201.8169" y="216.8281"/><text fill="#000000" font-family="sans-serif" font-size="14" lengthAdjust="spacing" textLength="111.5557" x="208.8169" y="236.8232">AnalyticsEngine</text></g><g class="participant participant-head" data-participant="Reports"><rect fill="#E2E2F0" height="30.2969" rx="2.5" ry="2.5" style="stroke:#181818;stroke-width:0.5;" width="68.332" x="362.9546" y="50"/><text fill="#000000" font-family="sans-serif" font-size="14" lengthAdjust="spacing" textLength="54.332" x="369.9546" y="69.9951">Reports</text></g><g class="participant participant-tail" data-participant="Reports"><rect fill="#E2E2F0" height="30.2969" rx="2.5" ry="2.5" style="stroke:#181818;stroke-width:0.5;" width="68.332" x="362.9546" y="216.8281"/><text fill="#000000" font-family="sans-serif" font-size="14" lengthAdjust="spacing" textLength="54.332" x="369.9546" y="236.8232">Reports</text></g><g class="message" data-participant-1="User" data-participant-2="MarketTrends"><polygon fill="#181818" points="124.5176,108.4297,134.5176,112.4297,124.5176,116.4297,128.5176,112.4297" style="stroke:#181818;stroke-width:1;"/><line style="stroke:#181818;stroke-width:1;" x1="23.9551" x2="130.5176" y1="112.4297" y2="112.4297"/><text fill="#000000" font-family="sans-serif" font-size="13" lengthAdjust="spacing" textLength="88.5625" x="30.9551" y="107.3638">Request Data</text></g><g class="message" data-participant-1="MarketTrends" data-participant-2="AnalyticsEngine"><polygon fill="#181818" points="252.5947,137.5625,262.5947,141.5625,252.5947,145.5625,256.5947,141.5625" style="stroke:#181818;stroke-width:1;"/><line style="stroke:#181818;stroke-width:1;" x1="136.5176" x2="258.5947" y1="141.5625" y2="141.5625"/><text fill="#000000" font-family="sans-serif" font-size="13" lengthAdjust="spacing" textLength="67.9136" x="143.5176" y="136.4966">Send Data</text></g><g class="message" data-participant-1="AnalyticsEngine" data-participant-2="Reports"><polygon fill="#181818" points="385.1206,166.6953,395.1206,170.6953,385.1206,174.6953,389.1206,170.6953" style="stroke:#181818;stroke-width:1;"/><line style="stroke:#181818;stroke-width:1;" x1="264.5947" x2="391.1206" y1="170.6953" y2="170.6953"/><text fill="#000000" font-family="sans-serif" font-size="13" lengthAdjust="spacing" textLength="108.5259" x="271.5947" y="165.6294">Generate Report</text></g><g class="message" data-participant-1="Reports" data-participant-2="User"><polygon fill="#181818" points="34.9551,195.8281,24.9551,199.8281,34.9551,203.8281,30.9551,199.8281" style="stroke:#181818;stroke-width:1;"/><line style="stroke:#181818;stroke-width:1;" x1="28.9551" x2="396.1206" y1="199.8281" y2="199.8281"/><text fill="#000000" font-family="sans-serif" font-size="13" lengthAdjust="spacing" textLength="94.0786" x="40.9551" y="194.7622">Deliver Report</text></g><!--SRC=[IqmkoIzI22rEBUBY0f4AkdOAleb5sQab8KMfUId5LWf1gOMbgSKb2Yw99ObSo58WfOvvYJcL9Pd9nQvvwPbvgLOAmK0PY58qAP3geDI2_A8Ie9dkgNcfHOabgL0HBgW4I0t84LOABgavcML0rq0a0000]--></g></svg>