<svg xmlns="http://www.w3.org/2000/svg" xmlns:xlink="http://www.w3.org/1999/xlink" contentStyleType="text/css" data-diagram-type="DESCRIPTION" height="818px" preserveAspectRatio="none" style="width:769px;height:818px;background:#FFFFFF;" version="1.1" viewBox="0 0 769 818" width="769px" zoomAndPan="magnify"><defs/><g><!--cluster Data Sources--><g class="cluster" data-entity="Data Sources" data-source-line="1" data-uid="ent0002" id="cluster_Data Sources"><path d="M8.5,6 L114.2813,6 A3.75,3.75 0 0 1 116.7813,8.5 L123.7813,28.2969 L719.5,28.2969 A2.5,2.5 0 0 1 722,30.7969 L722,100.8 A2.5,2.5 0 0 1 719.5,103.3 L8.5,103.3 A2.5,2.5 0 0 1 6,100.8 L6,8.5 A2.5,2.5 0 0 1 8.5,6" fill="none" style="stroke:#000000;stroke-width:1.5;"/><line style="stroke:#000000;stroke-width:1.5;" x1="6" x2="123.7813" y1="28.2969" y2="28.2969"/><text fill="#000000" font-family="sans-serif" font-size="14" font-weight="bold" lengthAdjust="spacing" textLength="104.7813" x="10" y="20.9951">Data Sources</text></g><!--cluster Data Ingestion--><g class="cluster" data-entity="Data Ingestion" data-source-line="7" data-uid="ent0006" id="cluster_Data Ingestion"><path d="M27.5,152.3 L144.6836,152.3 A3.75,3.75 0 0 1 147.1836,154.8 L154.1836,174.5969 L477.5,174.5969 A2.5,2.5 0 0 1 480,177.0969 L480,247.09 A2.5,2.5 0 0 1 477.5,249.59 L27.5,249.59 A2.5,2.5 0 0 1 25,247.09 L25,154.8 A2.5,2.5 0 0 1 27.5,152.3" fill="none" style="stroke:#000000;stroke-width:1.5;"/><line style="stroke:#000000;stroke-width:1.5;" x1="25" x2="154.1836" y1="174.5969" y2="174.5969"/><text fill="#000000" font-family="sans-serif" font-size="14" font-weight="bold" lengthAdjust="spacing" textLength="116.1836" x="29" y="167.2951">Data Ingestion</text></g><!--cluster Data Processing--><g class="cluster" data-entity="Data Processing" data-source-line="12" data-uid="ent0009" id="cluster_Data Processing"><path d="M37.5,298.59 L166.6123,298.59 A3.75,3.75 0 0 1 169.1123,301.09 L176.1123,320.8869 L242.5,320.8869 A2.5,2.5 0 0 1 245,323.3869 L245,683.98 A2.5,2.5 0 0 1 242.5,686.48 L37.5,686.48 A2.5,2.5 0 0 1 35,683.98 L35,301.09 A2.5,2.5 0 0 1 37.5,298.59" fill="none" style="stroke:#000000;stroke-width:1.5;"/><line style="stroke:#000000;stroke-width:1.5;" x1="35" x2="176.1123" y1="320.8869" y2="320.8869"/><text fill="#000000" font-family="sans-serif" font-size="14" font-weight="bold" lengthAdjust="spacing" textLength="128.1123" x="39" y="313.5851">Data Processing</text></g><!--cluster Feature Engineering--><g class="cluster" data-entity="Feature Engineering" data-source-line="18" data-uid="ent0013" id="cluster_Feature Engineering"><path d="M294.5,298.59 L456.9375,298.59 A3.75,3.75 0 0 1 459.4375,301.09 L466.4375,320.8869 L559.5,320.8869 A2.5,2.5 0 0 1 562,323.3869 L562,537.69 A2.5,2.5 0 0 1 559.5,540.19 L294.5,540.19 A2.5,2.5 0 0 1 292,537.69 L292,301.09 A2.5,2.5 0 0 1 294.5,298.59" fill="none" style="stroke:#000000;stroke-width:1.5;"/><line style="stroke:#000000;stroke-width:1.5;" x1="292" x2="466.4375" y1="320.8869" y2="320.8869"/><text fill="#000000" font-family="sans-serif" font-size="14" font-weight="bold" lengthAdjust="spacing" textLength="161.4375" x="296" y="313.5851">Feature Engineering</text></g><!--cluster Model Management--><g class="cluster" data-entity="Model Management" data-source-line="23" data-uid="ent0016" id="cluster_Model Management"><path d="M588.5,442.89 L745.291,442.89 A3.75,3.75 0 0 1 747.791,445.39 L754.791,465.1869 L759.5,465.1869 A2.5,2.5 0 0 1 762,467.6869 L762,537.69 A2.5,2.5 0 0 1 759.5,540.19 L588.5,540.19 A2.5,2.5 0 0 1 586,537.69 L586,445.39 A2.5,2.5 0 0 1 588.5,442.89" fill="none" style="stroke:#000000;stroke-width:1.5;"/><line style="stroke:#000000;stroke-width:1.5;" x1="586" x2="754.791" y1="465.1869" y2="465.1869"/><text fill="#000000" font-family="sans-serif" font-size="14" font-weight="bold" lengthAdjust="spacing" textLength="155.791" x="590" y="457.8851">Model Management</text></g><!--cluster ML Inference--><g class="cluster" data-entity="ML Inference" data-source-line="27" data-uid="ent0018" id="cluster_ML Inference"><path d="M533.5,589.19 L637.1484,589.19 A3.75,3.75 0 0 1 639.6484,591.69 L646.6484,611.4869 L718.5,611.4869 A2.5,2.5 0 0 1 721,613.9869 L721,683.98 A2.5,2.5 0 0 1 718.5,686.48 L533.5,686.48 A2.5,2.5 0 0 1 531,683.98 L531,591.69 A2.5,2.5 0 0 1 533.5,589.19" fill="none" style="stroke:#000000;stroke-width:1.5;"/><line style="stroke:#000000;stroke-width:1.5;" x1="531" x2="646.6484" y1="611.4869" y2="611.4869"/><text fill="#000000" font-family="sans-serif" font-size="14" font-weight="bold" lengthAdjust="spacing" textLength="102.6484" x="535" y="604.1851">ML Inference</text></g><!--cluster Results and Reporting--><g class="cluster" data-entity="Results and Reporting" data-source-line="31" data-uid="ent0020" id="cluster_Results and Reporting"><path d="M271.5,589.19 L448.3818,589.19 A3.75,3.75 0 0 1 450.8818,591.69 L457.8818,611.4869 L504.5,611.4869 A2.5,2.5 0 0 1 507,613.9869 L507,809.28 A2.5,2.5 0 0 1 504.5,811.78 L271.5,811.78 A2.5,2.5 0 0 1 269,809.28 L269,591.69 A2.5,2.5 0 0 1 271.5,589.19" fill="none" style="stroke:#000000;stroke-width:1.5;"/><line style="stroke:#000000;stroke-width:1.5;" x1="269" x2="457.8818" y1="611.4869" y2="611.4869"/><text fill="#000000" font-family="sans-serif" font-size="14" font-weight="bold" lengthAdjust="spacing" textLength="175.8818" x="273" y="604.1851">Results and Reporting</text></g><!--entity Social Metrics Collector--><g class="entity" data-entity="Social Metrics Collector" data-source-line="2" data-uid="ent0003" id="entity_Social Metrics Collector"><rect fill="#F1F1F1" height="46.2969" rx="2.5" ry="2.5" style="stroke:#181818;stroke-width:0.5;" width="203.4678" x="22.27" y="41"/><rect fill="#F1F1F1" height="10" style="stroke:#181818;stroke-width:0.5;" width="15" x="205.7378" y="46"/><rect fill="#F1F1F1" height="2" style="stroke:#181818;stroke-width:0.5;" width="4" x="203.7378" y="48"/><rect fill="#F1F1F1" height="2" style="stroke:#181818;stroke-width:0.5;" width="4" x="203.7378" y="52"/><text fill="#000000" font-family="sans-serif" font-size="14" lengthAdjust="spacing" textLength="163.4678" x="37.27" y="73.9951">Social Metrics Collector</text></g><!--entity Social Mentions Collector--><g class="entity" data-entity="Social Mentions Collector" data-source-line="3" data-uid="ent0004" id="entity_Social Mentions Collector"><rect fill="#F1F1F1" height="46.2969" rx="2.5" ry="2.5" style="stroke:#181818;stroke-width:0.5;" width="216.3262" x="260.84" y="41"/><rect fill="#F1F1F1" height="10" style="stroke:#181818;stroke-width:0.5;" width="15" x="457.1662" y="46"/><rect fill="#F1F1F1" height="2" style="stroke:#181818;stroke-width:0.5;" width="4" x="455.1662" y="48"/><rect fill="#F1F1F1" height="2" style="stroke:#181818;stroke-width:0.5;" width="4" x="455.1662" y="52"/><text fill="#000000" font-family="sans-serif" font-size="14" lengthAdjust="spacing" textLength="176.3262" x="275.84" y="73.9951">Social Mentions Collector</text></g><!--entity Etimad Data Collector--><g class="entity" data-entity="Etimad Data Collector" data-source-line="4" data-uid="ent0005" id="entity_Etimad Data Collector"><rect fill="#F1F1F1" height="46.2969" rx="2.5" ry="2.5" style="stroke:#181818;stroke-width:0.5;" width="193.8975" x="512.05" y="41"/><rect fill="#F1F1F1" height="10" style="stroke:#181818;stroke-width:0.5;" width="15" x="685.9475" y="46"/><rect fill="#F1F1F1" height="2" style="stroke:#181818;stroke-width:0.5;" width="4" x="683.9475" y="48"/><rect fill="#F1F1F1" height="2" style="stroke:#181818;stroke-width:0.5;" width="4" x="683.9475" y="52"/><text fill="#000000" font-family="sans-serif" font-size="14" lengthAdjust="spacing" textLength="153.8975" x="527.05" y="73.9951">Etimad Data Collector</text></g><!--entity Ingestion Orchestrator--><g class="entity" data-entity="Ingestion Orchestrator" data-source-line="8" data-uid="ent0007" id="entity_Ingestion Orchestrator"><rect fill="#F1F1F1" height="46.2969" rx="2.5" ry="2.5" style="stroke:#181818;stroke-width:0.5;" width="197.9512" x="41.02" y="187.3"/><rect fill="#F1F1F1" height="10" style="stroke:#181818;stroke-width:0.5;" width="15" x="218.9712" y="192.3"/><rect fill="#F1F1F1" height="2" style="stroke:#181818;stroke-width:0.5;" width="4" x="216.9712" y="194.3"/><rect fill="#F1F1F1" height="2" style="stroke:#181818;stroke-width:0.5;" width="4" x="216.9712" y="198.3"/><text fill="#000000" font-family="sans-serif" font-size="14" lengthAdjust="spacing" textLength="157.9512" x="56.02" y="220.2951">Ingestion Orchestrator</text></g><!--entity Raw Storage Adapter--><g class="entity" data-entity="Raw Storage Adapter" data-source-line="9" data-uid="ent0008" id="entity_Raw Storage Adapter"><rect fill="#F1F1F1" height="46.2969" rx="2.5" ry="2.5" style="stroke:#181818;stroke-width:0.5;" width="189.2217" x="274.39" y="187.3"/><rect fill="#F1F1F1" height="10" style="stroke:#181818;stroke-width:0.5;" width="15" x="443.6117" y="192.3"/><rect fill="#F1F1F1" height="2" style="stroke:#181818;stroke-width:0.5;" width="4" x="441.6117" y="194.3"/><rect fill="#F1F1F1" height="2" style="stroke:#181818;stroke-width:0.5;" width="4" x="441.6117" y="198.3"/><text fill="#000000" font-family="sans-serif" font-size="14" lengthAdjust="spacing" textLength="149.2217" x="289.39" y="220.2951">Raw Storage Adapter</text></g><!--entity Schema Normalizer--><g class="entity" data-entity="Schema Normalizer" data-source-line="13" data-uid="ent0010" id="entity_Schema Normalizer"><rect fill="#F1F1F1" height="46.2969" rx="2.5" ry="2.5" style="stroke:#181818;stroke-width:0.5;" width="177.2451" x="51.38" y="333.59"/><rect fill="#F1F1F1" height="10" style="stroke:#181818;stroke-width:0.5;" width="15" x="208.6251" y="338.59"/><rect fill="#F1F1F1" height="2" style="stroke:#181818;stroke-width:0.5;" width="4" x="206.6251" y="340.59"/><rect fill="#F1F1F1" height="2" style="stroke:#181818;stroke-width:0.5;" width="4" x="206.6251" y="344.59"/><text fill="#000000" font-family="sans-serif" font-size="14" lengthAdjust="spacing" textLength="137.2451" x="66.38" y="366.5851">Schema Normalizer</text></g><!--entity NLP Processor--><g class="entity" data-entity="NLP Processor" data-source-line="14" data-uid="ent0011" id="entity_NLP Processor"><rect fill="#F1F1F1" height="46.2969" rx="2.5" ry="2.5" style="stroke:#181818;stroke-width:0.5;" width="139.1484" x="71.43" y="477.89"/><rect fill="#F1F1F1" height="10" style="stroke:#181818;stroke-width:0.5;" width="15" x="190.5784" y="482.89"/><rect fill="#F1F1F1" height="2" style="stroke:#181818;stroke-width:0.5;" width="4" x="188.5784" y="484.89"/><rect fill="#F1F1F1" height="2" style="stroke:#181818;stroke-width:0.5;" width="4" x="188.5784" y="488.89"/><text fill="#000000" font-family="sans-serif" font-size="14" lengthAdjust="spacing" textLength="99.1484" x="86.43" y="510.8851">NLP Processor</text></g><!--entity Metrics Aggregator--><g class="entity" data-entity="Metrics Aggregator" data-source-line="15" data-uid="ent0012" id="entity_Metrics Aggregator"><rect fill="#F1F1F1" height="46.2969" rx="2.5" ry="2.5" style="stroke:#181818;stroke-width:0.5;" width="174.2646" x="53.87" y="624.19"/><rect fill="#F1F1F1" height="10" style="stroke:#181818;stroke-width:0.5;" width="15" x="208.1346" y="629.19"/><rect fill="#F1F1F1" height="2" style="stroke:#181818;stroke-width:0.5;" width="4" x="206.1346" y="631.19"/><rect fill="#F1F1F1" height="2" style="stroke:#181818;stroke-width:0.5;" width="4" x="206.1346" y="635.19"/><text fill="#000000" font-family="sans-serif" font-size="14" lengthAdjust="spacing" textLength="134.2646" x="68.87" y="657.1851">Metrics Aggregator</text></g><!--entity Feature Engineering Service--><g class="entity" data-entity="Feature Engineering Service" data-source-line="19" data-uid="ent0014" id="entity_Feature Engineering Service"><rect fill="#F1F1F1" height="46.2969" rx="2.5" ry="2.5" style="stroke:#181818;stroke-width:0.5;" width="238.6182" x="307.69" y="333.59"/><rect fill="#F1F1F1" height="10" style="stroke:#181818;stroke-width:0.5;" width="15" x="526.3082" y="338.59"/><rect fill="#F1F1F1" height="2" style="stroke:#181818;stroke-width:0.5;" width="4" x="524.3082" y="340.59"/><rect fill="#F1F1F1" height="2" style="stroke:#181818;stroke-width:0.5;" width="4" x="524.3082" y="344.59"/><text fill="#000000" font-family="sans-serif" font-size="14" lengthAdjust="spacing" textLength="198.6182" x="322.69" y="366.5851">Feature Engineering Service</text></g><!--entity Feature Store--><g class="entity" data-entity="Feature Store" data-source-line="20" data-uid="ent0015" id="entity_Feature Store"><rect fill="#F1F1F1" height="46.2969" rx="2.5" ry="2.5" style="stroke:#181818;stroke-width:0.5;" width="135.7373" x="380.13" y="477.89"/><rect fill="#F1F1F1" height="10" style="stroke:#181818;stroke-width:0.5;" width="15" x="495.8673" y="482.89"/><rect fill="#F1F1F1" height="2" style="stroke:#181818;stroke-width:0.5;" width="4" x="493.8673" y="484.89"/><rect fill="#F1F1F1" height="2" style="stroke:#181818;stroke-width:0.5;" width="4" x="493.8673" y="488.89"/><text fill="#000000" font-family="sans-serif" font-size="14" lengthAdjust="spacing" textLength="95.7373" x="395.13" y="510.8851">Feature Store</text></g><!--entity Model Registry--><g class="entity" data-entity="Model Registry" data-source-line="24" data-uid="ent0017" id="entity_Model Registry"><rect fill="#F1F1F1" height="46.2969" rx="2.5" ry="2.5" style="stroke:#181818;stroke-width:0.5;" width="144.4258" x="601.79" y="477.89"/><rect fill="#F1F1F1" height="10" style="stroke:#181818;stroke-width:0.5;" width="15" x="726.2158" y="482.89"/><rect fill="#F1F1F1" height="2" style="stroke:#181818;stroke-width:0.5;" width="4" x="724.2158" y="484.89"/><rect fill="#F1F1F1" height="2" style="stroke:#181818;stroke-width:0.5;" width="4" x="724.2158" y="488.89"/><text fill="#000000" font-family="sans-serif" font-size="14" lengthAdjust="spacing" textLength="104.4258" x="616.79" y="510.8851">Model Registry</text></g><!--entity ML Inference API--><g class="entity" data-entity="ML Inference API" data-source-line="28" data-uid="ent0019" id="entity_ML Inference API"><rect fill="#F1F1F1" height="46.2969" rx="2.5" ry="2.5" style="stroke:#181818;stroke-width:0.5;" width="157.0244" x="547.49" y="624.19"/><rect fill="#F1F1F1" height="10" style="stroke:#181818;stroke-width:0.5;" width="15" x="684.5144" y="629.19"/><rect fill="#F1F1F1" height="2" style="stroke:#181818;stroke-width:0.5;" width="4" x="682.5144" y="631.19"/><rect fill="#F1F1F1" height="2" style="stroke:#181818;stroke-width:0.5;" width="4" x="682.5144" y="635.19"/><text fill="#000000" font-family="sans-serif" font-size="14" lengthAdjust="spacing" textLength="117.0244" x="562.49" y="657.1851">ML Inference API</text></g><!--entity Results Store--><g class="entity" data-entity="Results Store" data-source-line="32" data-uid="ent0021" id="entity_Results Store"><rect fill="#F1F1F1" height="46.2969" rx="2.5" ry="2.5" style="stroke:#181818;stroke-width:0.5;" width="132.9414" x="347.53" y="749.48"/><rect fill="#F1F1F1" height="10" style="stroke:#181818;stroke-width:0.5;" width="15" x="460.4714" y="754.48"/><rect fill="#F1F1F1" height="2" style="stroke:#181818;stroke-width:0.5;" width="4" x="458.4714" y="756.48"/><rect fill="#F1F1F1" height="2" style="stroke:#181818;stroke-width:0.5;" width="4" x="458.4714" y="760.48"/><text fill="#000000" font-family="sans-serif" font-size="14" lengthAdjust="spacing" textLength="92.9414" x="362.53" y="782.4751">Results Store</text></g><!--entity Reporting/Alerts Engine--><g class="entity" data-entity="Reporting.Alerts Engine" data-source-line="33" data-uid="ent0022" id="entity_Reporting.Alerts Engine"><rect fill="#F1F1F1" height="46.2969" rx="2.5" ry="2.5" style="stroke:#181818;stroke-width:0.5;" width="206.4551" x="284.77" y="624.19"/><rect fill="#F1F1F1" height="10" style="stroke:#181818;stroke-width:0.5;" width="15" x="471.2251" y="629.19"/><rect fill="#F1F1F1" height="2" style="stroke:#181818;stroke-width:0.5;" width="4" x="469.2251" y="631.19"/><rect fill="#F1F1F1" height="2" style="stroke:#181818;stroke-width:0.5;" width="4" x="469.2251" y="635.19"/><text fill="#000000" font-family="sans-serif" font-size="14" lengthAdjust="spacing" textLength="166.4551" x="299.77" y="657.1851">Reporting/Alerts Engine</text></g><!--entity DW--><g class="entity" data-entity="DW" data-source-line="44" data-uid="ent0029" id="entity_DW"><rect fill="#F1F1F1" height="46.2969" rx="2.5" ry="2.5" style="stroke:#181818;stroke-width:0.5;" width="64.623" x="168.69" y="749.48"/><rect fill="#F1F1F1" height="10" style="stroke:#181818;stroke-width:0.5;" width="15" x="213.313" y="754.48"/><rect fill="#F1F1F1" height="2" style="stroke:#181818;stroke-width:0.5;" width="4" x="211.313" y="756.48"/><rect fill="#F1F1F1" height="2" style="stroke:#181818;stroke-width:0.5;" width="4" x="211.313" y="760.48"/><text fill="#000000" font-family="sans-serif" font-size="14" lengthAdjust="spacing" textLength="24.623" x="183.69" y="782.4751">DW</text></g><!--entity Analytics API--><g class="entity" data-entity="Analytics API" data-source-line="49" data-uid="ent0033" id="entity_Analytics API"><rect fill="#F1F1F1" height="46.2969" rx="2.5" ry="2.5" style="stroke:#181818;stroke-width:0.5;" width="130.1729" x="560.91" y="749.48"/><rect fill="#F1F1F1" height="10" style="stroke:#181818;stroke-width:0.5;" width="15" x="671.0829" y="754.48"/><rect fill="#F1F1F1" height="2" style="stroke:#181818;stroke-width:0.5;" width="4" x="669.0829" y="756.48"/><rect fill="#F1F1F1" height="2" style="stroke:#181818;stroke-width:0.5;" width="4" x="669.0829" y="760.48"/><text fill="#000000" font-family="sans-serif" font-size="14" lengthAdjust="spacing" textLength="90.1729" x="575.91" y="782.4751">Analytics API</text></g><!--link Social Metrics Collector to Raw Storage Adapter--><g class="link" data-entity-1="Social Metrics Collector" data-entity-2="Raw Storage Adapter" data-source-line="36" data-uid="lnk23" id="link_Social Metrics Collector_Raw Storage Adapter"><path d="M162.28,87.69 C208.17,114.72 279.4604,156.7045 325.4104,183.7745" fill="none" id="Social Metrics Collector-to-Raw Storage Adapter" style="stroke:#181818;stroke-width:1;"/><polygon fill="#181818" points="330.58,186.82,324.8559,178.8053,326.272,184.2821,320.7952,185.6981,330.58,186.82" style="stroke:#181818;stroke-width:1;"/><text fill="#000000" font-family="sans-serif" font-size="13" lengthAdjust="spacing" textLength="95.7544" x="240.15" y="132.3669">push raw JSON</text></g><!--link Social Mentions Collector to Raw Storage Adapter--><g class="link" data-entity-1="Social Mentions Collector" data-entity-2="Raw Storage Adapter" data-source-line="37" data-uid="lnk24" id="link_Social Mentions Collector_Raw Storage Adapter"><path d="M369,87.69 C369,114.8 369,154.02 369,181.06" fill="none" id="Social Mentions Collector-to-Raw Storage Adapter" style="stroke:#181818;stroke-width:1;"/><polygon fill="#181818" points="369,187.06,373,178.06,369,182.06,365,178.06,369,187.06" style="stroke:#181818;stroke-width:1;"/><text fill="#000000" font-family="sans-serif" font-size="13" lengthAdjust="spacing" textLength="95.7544" x="370" y="132.3669">push raw JSON</text></g><!--link Etimad Data Collector to Raw Storage Adapter--><g class="link" data-entity-1="Etimad Data Collector" data-entity-2="Raw Storage Adapter" data-source-line="38" data-uid="lnk25" id="link_Etimad Data Collector_Raw Storage Adapter"><path d="M571.5,87.69 C526.54,114.72 456.792,156.6582 411.772,183.7282" fill="none" id="Etimad Data Collector-to-Raw Storage Adapter" style="stroke:#181818;stroke-width:1;"/><polygon fill="#181818" points="406.63,186.82,416.4043,185.6103,410.915,184.2435,412.2818,178.7542,406.63,186.82" style="stroke:#181818;stroke-width:1;"/><text fill="#000000" font-family="sans-serif" font-size="13" lengthAdjust="spacing" textLength="95.7544" x="518.55" y="132.3669">push raw JSON</text></g><!--link Ingestion Orchestrator to Schema Normalizer--><g class="link" data-entity-1="Ingestion Orchestrator" data-entity-2="Schema Normalizer" data-source-line="40" data-uid="lnk26" id="link_Ingestion Orchestrator_Schema Normalizer"><path d="M140,233.99 C140,261.1 140,300.32 140,327.35" fill="none" id="Ingestion Orchestrator-to-Schema Normalizer" style="stroke:#181818;stroke-width:1;"/><polygon fill="#181818" points="140,333.35,144,324.35,140,328.35,136,324.35,140,333.35" style="stroke:#181818;stroke-width:1;"/><text fill="#000000" font-family="sans-serif" font-size="13" lengthAdjust="spacing" textLength="43.9004" x="141" y="278.6569">trigger</text></g><!--link Schema Normalizer to NLP Processor--><g class="link" data-entity-1="Schema Normalizer" data-entity-2="NLP Processor" data-source-line="41" data-uid="lnk27" id="link_Schema Normalizer_NLP Processor"><path d="M140.16,380.29 C140.35,406.93 140.6194,445.0001 140.7994,471.6001" fill="none" id="Schema Normalizer-to-NLP Processor" style="stroke:#181818;stroke-width:1;"/><polygon fill="#181818" points="140.84,477.6,144.779,468.5731,140.8062,472.6001,136.7792,468.6273,140.84,477.6" style="stroke:#181818;stroke-width:1;"/><text fill="#000000" font-family="sans-serif" font-size="13" lengthAdjust="spacing" textLength="43.9004" x="141.47" y="422.9569">trigger</text></g><!--link NLP Processor to Metrics Aggregator--><g class="link" data-entity-1="NLP Processor" data-entity-2="Metrics Aggregator" data-source-line="42" data-uid="lnk28" id="link_NLP Processor_Metrics Aggregator"><path d="M141,524.58 C141,551.69 141,590.91 141,617.95" fill="none" id="NLP Processor-to-Metrics Aggregator" style="stroke:#181818;stroke-width:1;"/><polygon fill="#181818" points="141,623.95,145,614.95,141,618.95,137,614.95,141,623.95" style="stroke:#181818;stroke-width:1;"/><text fill="#000000" font-family="sans-serif" font-size="13" lengthAdjust="spacing" textLength="43.9004" x="142" y="569.2569">trigger</text></g><!--link Metrics Aggregator to DW--><g class="link" data-entity-1="Metrics Aggregator" data-entity-2="DW" data-source-line="44" data-uid="lnk30" id="link_Metrics Aggregator_DW"><path d="M152,670.95 C162.83,693.2 176.6352,721.5646 187.4352,743.7646" fill="none" id="Metrics Aggregator-to-DW" style="stroke:#181818;stroke-width:1;"/><polygon fill="#181818" points="190.06,749.16,189.7197,739.317,187.8727,744.6638,182.5259,742.8167,190.06,749.16" style="stroke:#181818;stroke-width:1;"/><text fill="#000000" font-family="sans-serif" font-size="13" lengthAdjust="spacing" textLength="45.8047" x="175.59" y="715.5469">update</text></g><!--link Feature Engineering Service to Feature Store--><g class="link" data-entity-1="Feature Engineering Service" data-entity-2="Feature Store" data-source-line="46" data-uid="lnk31" id="link_Feature Engineering Service_Feature Store"><path d="M430.33,380.29 C434.26,406.93 439.8831,445.0644 443.8131,471.6644" fill="none" id="Feature Engineering Service-to-Feature Store" style="stroke:#181818;stroke-width:1;"/><polygon fill="#181818" points="444.69,477.6,447.3316,468.112,443.9592,472.6537,439.4175,469.2813,444.69,477.6" style="stroke:#181818;stroke-width:1;"/><text fill="#000000" font-family="sans-serif" font-size="13" lengthAdjust="spacing" textLength="90.8096" x="437.87" y="422.9569">write features</text></g><!--link ML Inference API to Results Store--><g class="link" data-entity-1="ML Inference API" data-entity-2="Results Store" data-source-line="48" data-uid="lnk32" id="link_ML Inference API_Results Store"><path d="M585.71,670.78 C568.49,680.44 548.21,691.92 530,702.48 C503.53,717.83 479.0524,732.4087 456.3624,746.0487" fill="none" id="ML Inference API-to-Results Store" style="stroke:#181818;stroke-width:1;"/><polygon fill="#181818" points="451.22,749.14,460.9944,747.9313,455.5053,746.5639,456.8727,741.0748,451.22,749.14" style="stroke:#181818;stroke-width:1;"/><text fill="#000000" font-family="sans-serif" font-size="13" lengthAdjust="spacing" textLength="86.3853" x="531" y="715.5469">return scores</text></g><!--link ML Inference API to Analytics API--><g class="link" data-entity-1="ML Inference API" data-entity-2="Analytics API" data-source-line="49" data-uid="lnk34" id="link_ML Inference API_Analytics API"><path d="M626,670.95 C626,693.2 626,720.96 626,743.16" fill="none" id="ML Inference API-to-Analytics API" style="stroke:#181818;stroke-width:1;"/><polygon fill="#181818" points="626,749.16,630,740.16,626,744.16,622,740.16,626,749.16" style="stroke:#181818;stroke-width:1;"/><text fill="#000000" font-family="sans-serif" font-size="13" lengthAdjust="spacing" textLength="86.3853" x="627" y="715.5469">return scores</text></g><!--link Reporting/Alerts Engine to DW--><g class="link" data-entity-1="Reporting.Alerts Engine" data-entity-2="DW" data-source-line="51" data-uid="lnk35" id="link_Reporting.Alerts Engine_DW"><path d="M353.7,670.95 C319.43,693.54 272.149,724.7169 238.529,746.8869" fill="none" id="Reporting/Alerts Engine-to-DW" style="stroke:#181818;stroke-width:1;"/><polygon fill="#181818" points="233.52,750.19,243.2355,748.5747,237.6941,747.4374,238.8314,741.8961,233.52,750.19" style="stroke:#181818;stroke-width:1;"/><text fill="#000000" font-family="sans-serif" font-size="13" lengthAdjust="spacing" textLength="37.5273" x="306.7" y="715.5469">query</text></g><!--link Reporting/Alerts Engine to Results Store--><g class="link" data-entity-1="Reporting.Alerts Engine" data-entity-2="Results Store" data-source-line="52" data-uid="lnk36" id="link_Reporting.Alerts Engine_Results Store"><path d="M391.73,670.84 C394.16,684.87 397.5,703.28 401,719.48 C403.11,729.24 404.2424,734.1348 406.5724,743.3048" fill="none" id="Reporting/Alerts Engine-to-Results Store" style="stroke:#181818;stroke-width:1;"/><polygon fill="#181818" points="408.05,749.12,409.7104,739.4121,406.8187,744.274,401.9568,741.3822,408.05,749.12" style="stroke:#181818;stroke-width:1;"/><text fill="#000000" font-family="sans-serif" font-size="13" lengthAdjust="spacing" textLength="37.5273" x="402" y="715.5469">query</text></g><!--link Feature Store to ML Inference API--><g class="link" data-entity-1="Feature Store" data-entity-2="ML Inference API" data-source-line="54" data-uid="lnk37" id="link_Feature Store_ML Inference API"><path d="M463.98,524.48 C475.24,539.36 491.25,558.71 508,573.19 C530.71,592.8 554.0142,607.6919 577.3242,620.8419" fill="none" id="Feature Store-to-ML Inference API" style="stroke:#181818;stroke-width:1;"/><polygon fill="#181818" points="582.55,623.79,576.6767,615.884,578.1952,621.3333,572.7459,622.8518,582.55,623.79" style="stroke:#181818;stroke-width:1;"/><text fill="#000000" font-family="sans-serif" font-size="13" lengthAdjust="spacing" textLength="133.0532" x="509" y="569.2569">read feature vectors</text></g><!--link Model Registry to ML Inference API--><g class="link" data-entity-1="Model Registry" data-entity-2="ML Inference API" data-source-line="55" data-uid="lnk38" id="link_Model Registry_ML Inference API"><path d="M666.5,524.58 C657.48,551.69 644.3329,591.2164 635.3429,618.2564" fill="none" id="Model Registry-to-ML Inference API" style="stroke:#181818;stroke-width:1;"/><polygon fill="#181818" points="633.45,623.95,640.0851,616.6716,635.0275,619.2054,632.4937,614.1477,633.45,623.95" style="stroke:#181818;stroke-width:1;"/><text fill="#000000" font-family="sans-serif" font-size="13" lengthAdjust="spacing" textLength="74.1724" x="656.71" y="569.2569">read model</text></g><!--SRC=[bLFBJiGm3BpdAopkY3i7f8g7189bjJrmG1oir8I8DYbE2beG_uxJ1xJTBeZRnkCPZztP6lKp6eA3Cum8kMzOKpY03mLmdtjjiOGRYcnrW5DVbgIZvuS9wABrRewUHrjX0Qte2FbKgfuCl7I6GXBeHtw_uPRra_na72Gt-0QvF18vAx2Ej2IuPYyB1ElCi8J8L0WhpnMMzfqwiTNrUcZjvOSjCsEO3ExOlI2C3HESEsCT4VzCM40W9twrcXx6U39FKz4RNv3S49syAhbahzYLDsIi760xerpBqHw9oMaQsaSboDQNKyA6GbF60EWAaQmznn_h0zPRQojznr5M4WlKRTLAxWy471wUB7yXE8Qw2K_0WbtbjolrIt3-ex8Si7yeg7rPwpHsOoCAihOnn6e9RLdJM8qPCwJjNeZSYA8MyPPuTfSQcxh0IDBtMm0xmZI2mdrZ6maUkt98i-OPwayv2OWGcOJX86YVUFjecSDo6rllgJQdgRqn6-_tqX1l_shTCTYnr7pbxk0xRfCpYL5_27XjOvJsclu3_w1NgLjz0G00]--></g></svg>