<svg xmlns="http://www.w3.org/2000/svg" xmlns:xlink="http://www.w3.org/1999/xlink" contentStyleType="text/css" data-diagram-type="ACTIVITY" height="389px" preserveAspectRatio="none" style="width:480px;height:389px;background:#FFFFFF;" version="1.1" viewBox="0 0 480 389" width="480px" zoomAndPan="magnify"><defs/><g><ellipse cx="163.2236" cy="20" fill="#222222" rx="10" ry="10" style="stroke:#222222;stroke-width:1;"/><rect fill="#F1F1F1" height="33.9688" rx="12.5" ry="12.5" style="stroke:#181818;stroke-width:0.5;" width="117.9277" x="104.2598" y="50"/><text fill="#000000" font-family="sans-serif" font-size="12" lengthAdjust="spacing" textLength="97.9277" x="114.2598" y="71.1387">User creates set</text><path d="M255.7256,100.8203 L255.7256,116.9531 L235.7256,120.9531 L255.7256,124.9531 L255.7256,141.0859 A0,0 0 0 0 255.7256,141.0859 L468.5137,141.0859 A0,0 0 0 0 468.5137,141.0859 L468.5137,110.8203 L458.5137,100.8203 L255.7256,100.8203 A0,0 0 0 0 255.7256,100.8203" fill="#FEFFDD" style="stroke:#181818;stroke-width:0.5;"/><path d="M458.5137,100.8203 L458.5137,110.8203 L468.5137,110.8203 L458.5137,100.8203" fill="#FEFFDD" style="stroke:#181818;stroke-width:0.5;"/><text fill="#000000" font-family="sans-serif" font-size="13" lengthAdjust="spacing" textLength="191.7881" x="261.7256" y="117.8872">System checks if competitors</text><text fill="#000000" font-family="sans-serif" font-size="13" lengthAdjust="spacing" textLength="168.6509" x="261.7256" y="133.02">meet the required criteria</text><rect fill="#F1F1F1" height="33.9688" rx="12.5" ry="12.5" style="stroke:#181818;stroke-width:0.5;" width="145.0039" x="90.7217" y="103.9688"/><text fill="#000000" font-family="sans-serif" font-size="12" lengthAdjust="spacing" textLength="125.0039" x="100.7217" y="125.1074">Validate competitors</text><polygon fill="#F1F1F1" points="111.6128,161.0859,214.8345,161.0859,226.8345,173.0859,214.8345,185.0859,111.6128,185.0859,99.6128,173.0859,111.6128,161.0859" style="stroke:#181818;stroke-width:0.5;"/><text fill="#000000" font-family="sans-serif" font-size="11" lengthAdjust="spacing" textLength="103.2217" x="111.6128" y="176.894">Competitors valid?</text><text fill="#000000" font-family="sans-serif" font-size="11" lengthAdjust="spacing" textLength="19.0083" x="80.6045" y="170.4917">yes</text><text fill="#000000" font-family="sans-serif" font-size="11" lengthAdjust="spacing" textLength="13.7017" x="226.8345" y="170.4917">no</text><rect fill="#F1F1F1" height="33.9688" rx="12.5" ry="12.5" style="stroke:#181818;stroke-width:0.5;" width="71.6094" x="33.3008" y="195.0859"/><text fill="#000000" font-family="sans-serif" font-size="12" lengthAdjust="spacing" textLength="51.6094" x="43.3008" y="216.2246">Save set</text><rect fill="#F1F1F1" height="33.9688" rx="12.5" ry="12.5" style="stroke:#181818;stroke-width:0.5;" width="101.4395" x="18.3857" y="249.0547"/><text fill="#000000" font-family="sans-serif" font-size="12" lengthAdjust="spacing" textLength="81.4395" x="28.3857" y="270.1934">Update filters</text><rect fill="#F1F1F1" height="33.9688" rx="12.5" ry="12.5" style="stroke:#181818;stroke-width:0.5;" width="116.2109" x="11" y="303.0234"/><text fill="#000000" font-family="sans-serif" font-size="12" lengthAdjust="spacing" textLength="96.2109" x="21" y="324.1621">User applies set</text><rect fill="#F1F1F1" height="33.9688" rx="12.5" ry="12.5" style="stroke:#181818;stroke-width:0.5;" width="220.2617" x="147.2109" y="195.0859"/><text fill="#000000" font-family="sans-serif" font-size="12" lengthAdjust="spacing" textLength="200.2617" x="157.2109" y="216.2246">Notify user of invalid competitors</text><ellipse cx="257.3418" cy="260.0547" fill="none" rx="11" ry="11" style="stroke:#222222;stroke-width:1;"/><ellipse cx="257.3418" cy="260.0547" fill="#222222" rx="6" ry="6" style="stroke:#222222;stroke-width:1;"/><ellipse cx="163.2236" cy="367.9922" fill="none" rx="11" ry="11" style="stroke:#222222;stroke-width:1;"/><ellipse cx="163.2236" cy="367.9922" fill="#222222" rx="6" ry="6" style="stroke:#222222;stroke-width:1;"/><line style="stroke:#181818;stroke-width:1;" x1="163.2236" x2="163.2236" y1="30" y2="50"/><polygon fill="#181818" points="159.2236,40,163.2236,50,167.2236,40,163.2236,44" style="stroke:#181818;stroke-width:1;"/><line style="stroke:#181818;stroke-width:1;" x1="163.2236" x2="163.2236" y1="83.9688" y2="103.9688"/><polygon fill="#181818" points="159.2236,93.9688,163.2236,103.9688,167.2236,93.9688,163.2236,97.9688" style="stroke:#181818;stroke-width:1;"/><line style="stroke:#181818;stroke-width:1;" x1="69.1055" x2="69.1055" y1="229.0547" y2="249.0547"/><polygon fill="#181818" points="65.1055,239.0547,69.1055,249.0547,73.1055,239.0547,69.1055,243.0547" style="stroke:#181818;stroke-width:1;"/><line style="stroke:#181818;stroke-width:1;" x1="69.1055" x2="69.1055" y1="283.0234" y2="303.0234"/><polygon fill="#181818" points="65.1055,293.0234,69.1055,303.0234,73.1055,293.0234,69.1055,297.0234" style="stroke:#181818;stroke-width:1;"/><line style="stroke:#181818;stroke-width:1;" x1="257.3418" x2="257.3418" y1="229.0547" y2="249.0547"/><polygon fill="#181818" points="253.3418,239.0547,257.3418,249.0547,261.3418,239.0547,257.3418,243.0547" style="stroke:#181818;stroke-width:1;"/><line style="stroke:#181818;stroke-width:1;" x1="99.6128" x2="69.1055" y1="173.0859" y2="173.0859"/><line style="stroke:#181818;stroke-width:1;" x1="69.1055" x2="69.1055" y1="173.0859" y2="195.0859"/><polygon fill="#181818" points="65.1055,185.0859,69.1055,195.0859,73.1055,185.0859,69.1055,189.0859" style="stroke:#181818;stroke-width:1;"/><line style="stroke:#181818;stroke-width:1;" x1="226.8345" x2="257.3418" y1="173.0859" y2="173.0859"/><line style="stroke:#181818;stroke-width:1;" x1="257.3418" x2="257.3418" y1="173.0859" y2="195.0859"/><polygon fill="#181818" points="253.3418,185.0859,257.3418,195.0859,261.3418,185.0859,257.3418,189.0859" style="stroke:#181818;stroke-width:1;"/><line style="stroke:#181818;stroke-width:1;" x1="69.1055" x2="69.1055" y1="336.9922" y2="341.9922"/><line style="stroke:#181818;stroke-width:1;" x1="69.1055" x2="163.2236" y1="341.9922" y2="341.9922"/><line style="stroke:#181818;stroke-width:1;" x1="163.2236" x2="163.2236" y1="341.9922" y2="356.9922"/><polygon fill="#181818" points="159.2236,346.9922,163.2236,356.9922,167.2236,346.9922,163.2236,350.9922" style="stroke:#181818;stroke-width:1;"/><line style="stroke:#181818;stroke-width:1;" x1="163.2236" x2="163.2236" y1="137.9375" y2="161.0859"/><polygon fill="#181818" points="159.2236,151.0859,163.2236,161.0859,167.2236,151.0859,163.2236,155.0859" style="stroke:#181818;stroke-width:1;"/><!--SRC=[LK-xZi8m4Epz5Lk6WXy02OhhQH3qLZ8cAnBRU3T8-NlMlaC7tMfsdgA-g7ExYw1GN-0LGWBTk-t1uAkVU32C-ZHdA6igidSn6LBuDgeZEg-YcAaVqT-5E7nIxJq3IZeQ7u-52mPBOKLXxn07gbOjoeJTpx-IdZNvkAdIIDqAsPZPxkoV-Ar7P2f3Bhdr2poPgNpWTP3FUUBteFR19A0kfkPsIifXfQLIKo2EBVHxwv-VQCgrC0Vdwlq2]--></g></svg>