<svg xmlns="http://www.w3.org/2000/svg" xmlns:xlink="http://www.w3.org/1999/xlink" contentStyleType="text/css" data-diagram-type="SEQUENCE" height="356px" preserveAspectRatio="none" style="width:824px;height:356px;background:#FFFFFF;" version="1.1" viewBox="0 0 824 356" width="824px" zoomAndPan="magnify"><defs/><g><g><title>Admin</title><rect fill="#000000" fill-opacity="0.00000" height="194.7969" width="8" x="26.4321" y="81.2969"/><line style="stroke:#181818;stroke-width:0.5;stroke-dasharray:5,5;" x1="30" x2="30" y1="81.2969" y2="276.0938"/></g><g><title>Web App</title><rect fill="#000000" fill-opacity="0.00000" height="194.7969" width="8" x="187.459" y="81.2969"/><line style="stroke:#181818;stroke-width:0.5;stroke-dasharray:5,5;" x1="190.8872" x2="190.8872" y1="81.2969" y2="276.0938"/></g><g><title>Governance Service</title><rect fill="#000000" fill-opacity="0.00000" height="194.7969" width="8" x="400.5747" y="81.2969"/><line style="stroke:#181818;stroke-width:0.5;stroke-dasharray:5,5;" x1="404.127" x2="404.127" y1="81.2969" y2="276.0938"/></g><g><title>Data Warehouse</title><rect fill="#000000" fill-opacity="0.00000" height="194.7969" width="8" x="587.0493" y="81.2969"/><line style="stroke:#181818;stroke-width:0.5;stroke-dasharray:5,5;" x1="590.6055" x2="590.6055" y1="81.2969" y2="276.0938"/></g><g><title>Alerts</title><rect fill="#000000" fill-opacity="0.00000" height="194.7969" width="8" x="689.8027" y="81.2969"/><line style="stroke:#181818;stroke-width:0.5;stroke-dasharray:5,5;" x1="693.4932" x2="693.4932" y1="81.2969" y2="276.0938"/></g><g><title>Audit Logs</title><rect fill="#000000" fill-opacity="0.00000" height="194.7969" width="8" x="770.9683" y="81.2969"/><line style="stroke:#181818;stroke-width:0.5;stroke-dasharray:5,5;" x1="774.1123" x2="774.1123" y1="81.2969" y2="276.0938"/></g><g class="participant participant-head" data-participant="Admin"><text fill="#000000" font-family="sans-serif" font-size="14" lengthAdjust="spacing" textLength="44.8643" x="5" y="77.9951">Admin</text><ellipse cx="30.4321" cy="13.5" fill="#E2E2F0" rx="8" ry="8" style="stroke:#181818;stroke-width:0.5;"/><path d="M30.4321,21.5 L30.4321,48.5 M17.4321,29.5 L43.4321,29.5 M30.4321,48.5 L17.4321,63.5 M30.4321,48.5 L43.4321,63.5" fill="none" style="stroke:#181818;stroke-width:0.5;"/></g><g class="participant participant-tail" data-participant="Admin"><text fill="#000000" font-family="sans-serif" font-size="14" lengthAdjust="spacing" textLength="44.8643" x="5" y="288.0889">Admin</text><ellipse cx="30.4321" cy="299.8906" fill="#E2E2F0" rx="8" ry="8" style="stroke:#181818;stroke-width:0.5;"/><path d="M30.4321,307.8906 L30.4321,334.8906 M17.4321,315.8906 L43.4321,315.8906 M30.4321,334.8906 L17.4321,349.8906 M30.4321,334.8906 L43.4321,349.8906" fill="none" style="stroke:#181818;stroke-width:0.5;"/></g><g class="participant participant-head" data-participant="WebApp"><rect fill="#E2E2F0" height="30.2969" rx="2.5" ry="2.5" style="stroke:#181818;stroke-width:0.5;" width="77.1436" x="152.8872" y="50"/><text fill="#000000" font-family="sans-serif" font-size="14" lengthAdjust="spacing" textLength="63.1436" x="159.8872" y="69.9951">Web App</text></g><g class="participant participant-tail" data-participant="WebApp"><rect fill="#E2E2F0" height="30.2969" rx="2.5" ry="2.5" style="stroke:#181818;stroke-width:0.5;" width="77.1436" x="152.8872" y="275.0938"/><text fill="#000000" font-family="sans-serif" font-size="14" lengthAdjust="spacing" textLength="63.1436" x="159.8872" y="295.0889">Web App</text></g><g class="participant participant-head" data-participant="GovernanceService"><rect fill="#E2E2F0" height="30.2969" rx="2.5" ry="2.5" style="stroke:#181818;stroke-width:0.5;" width="154.8955" x="327.127" y="50"/><text fill="#000000" font-family="sans-serif" font-size="14" lengthAdjust="spacing" textLength="140.8955" x="334.127" y="69.9951">Governance Service</text></g><g class="participant participant-tail" data-participant="GovernanceService"><rect fill="#E2E2F0" height="30.2969" rx="2.5" ry="2.5" style="stroke:#181818;stroke-width:0.5;" width="154.8955" x="327.127" y="275.0938"/><text fill="#000000" font-family="sans-serif" font-size="14" lengthAdjust="spacing" textLength="140.8955" x="334.127" y="295.0889">Governance Service</text></g><g class="participant participant-head" data-participant="DataWarehouse"><rect fill="#E2E2F0" height="30.2969" rx="2.5" ry="2.5" style="stroke:#181818;stroke-width:0.5;" width="130.8877" x="525.6055" y="50"/><text fill="#000000" font-family="sans-serif" font-size="14" lengthAdjust="spacing" textLength="116.8877" x="532.6055" y="69.9951">Data Warehouse</text></g><g class="participant participant-tail" data-participant="DataWarehouse"><rect fill="#E2E2F0" height="30.2969" rx="2.5" ry="2.5" style="stroke:#181818;stroke-width:0.5;" width="130.8877" x="525.6055" y="275.0938"/><text fill="#000000" font-family="sans-serif" font-size="14" lengthAdjust="spacing" textLength="116.8877" x="532.6055" y="295.0889">Data Warehouse</text></g><g class="participant participant-head" data-participant="Alerts"><rect fill="#E2E2F0" height="30.2969" rx="2.5" ry="2.5" style="stroke:#181818;stroke-width:0.5;" width="54.6191" x="666.4932" y="50"/><text fill="#000000" font-family="sans-serif" font-size="14" lengthAdjust="spacing" textLength="40.6191" x="673.4932" y="69.9951">Alerts</text></g><g class="participant participant-tail" data-participant="Alerts"><rect fill="#E2E2F0" height="30.2969" rx="2.5" ry="2.5" style="stroke:#181818;stroke-width:0.5;" width="54.6191" x="666.4932" y="275.0938"/><text fill="#000000" font-family="sans-serif" font-size="14" lengthAdjust="spacing" textLength="40.6191" x="673.4932" y="295.0889">Alerts</text></g><g class="participant participant-head" data-participant="AuditLogs"><rect fill="#E2E2F0" height="30.2969" rx="2.5" ry="2.5" style="stroke:#181818;stroke-width:0.5;" width="87.7119" x="731.1123" y="50"/><text fill="#000000" font-family="sans-serif" font-size="14" lengthAdjust="spacing" textLength="73.7119" x="738.1123" y="69.9951">Audit Logs</text></g><g class="participant participant-tail" data-participant="AuditLogs"><rect fill="#E2E2F0" height="30.2969" rx="2.5" ry="2.5" style="stroke:#181818;stroke-width:0.5;" width="87.7119" x="731.1123" y="275.0938"/><text fill="#000000" font-family="sans-serif" font-size="14" lengthAdjust="spacing" textLength="73.7119" x="738.1123" y="295.0889">Audit Logs</text></g><g class="message" data-participant-1="Admin" data-participant-2="WebApp"><polygon fill="#181818" points="179.459,108.4297,189.459,112.4297,179.459,116.4297,183.459,112.4297" style="stroke:#181818;stroke-width:1;"/><line style="stroke:#181818;stroke-width:1;" x1="30.4321" x2="185.459" y1="112.4297" y2="112.4297"/><text fill="#000000" font-family="sans-serif" font-size="13" lengthAdjust="spacing" textLength="137.0269" x="37.4321" y="107.3638">Initiate Retention Job</text></g><g class="message" data-participant-1="WebApp" data-participant-2="GovernanceService"><polygon fill="#181818" points="392.5747,137.5625,402.5747,141.5625,392.5747,145.5625,396.5747,141.5625" style="stroke:#181818;stroke-width:1;"/><line style="stroke:#181818;stroke-width:1;" x1="191.459" x2="398.5747" y1="141.5625" y2="141.5625"/><text fill="#000000" font-family="sans-serif" font-size="13" lengthAdjust="spacing" textLength="189.1157" x="198.459" y="136.4966">Request Retention Execution</text></g><g class="message" data-participant-1="GovernanceService" data-participant-2="DataWarehouse"><polygon fill="#181818" points="579.0493,166.6953,589.0493,170.6953,579.0493,174.6953,583.0493,170.6953" style="stroke:#181818;stroke-width:1;"/><line style="stroke:#181818;stroke-width:1;" x1="404.5747" x2="585.0493" y1="170.6953" y2="170.6953"/><text fill="#000000" font-family="sans-serif" font-size="13" lengthAdjust="spacing" textLength="143.9585" x="411.5747" y="165.6294">Execute Retention Job</text></g><g class="message" data-participant-1="DataWarehouse" data-participant-2="GovernanceService"><polygon fill="#181818" points="415.5747,195.8281,405.5747,199.8281,415.5747,203.8281,411.5747,199.8281" style="stroke:#181818;stroke-width:1;"/><line style="stroke:#181818;stroke-width:1;" x1="409.5747" x2="590.0493" y1="199.8281" y2="199.8281"/><text fill="#000000" font-family="sans-serif" font-size="13" lengthAdjust="spacing" textLength="162.4746" x="421.5747" y="194.7622">Retention Job Completed</text></g><g class="message" data-participant-1="GovernanceService" data-participant-2="Alerts"><polygon fill="#181818" points="681.8027,224.9609,691.8027,228.9609,681.8027,232.9609,685.8027,228.9609" style="stroke:#181818;stroke-width:1;"/><line style="stroke:#181818;stroke-width:1;" x1="404.5747" x2="687.8027" y1="228.9609" y2="228.9609"/><text fill="#000000" font-family="sans-serif" font-size="13" lengthAdjust="spacing" textLength="184.647" x="411.5747" y="223.895">Notify Retention Completion</text></g><g class="message" data-participant-1="GovernanceService" data-participant-2="AuditLogs"><polygon fill="#181818" points="762.9683,254.0938,772.9683,258.0938,762.9683,262.0938,766.9683,258.0938" style="stroke:#181818;stroke-width:1;"/><line style="stroke:#181818;stroke-width:1;" x1="404.5747" x2="768.9683" y1="258.0938" y2="258.0938"/><text fill="#000000" font-family="sans-serif" font-size="13" lengthAdjust="spacing" textLength="147.1196" x="411.5747" y="253.0278">Store Retention Action</text></g><!--SRC=[TPBFRi8m3CRlUGghTruWXqdLG6ZJjCCuS3Qf6PRQ94jTDDwUf8sW0NgAy_dtnNyKDE82r4t7LdaCmeOzMe5gJmUelQy0UuXn3ClyrfqfMBI6O4VXp8P6z2vdjNIjKH3s6EZaXdvo9Eccb7JTKf1-fARm8JqqBF3bVZEIhkccr3WFhDvovne-B0kZ4FoGa1Ls5ZxTGKtf13xrhIFwDr0lCylcdyoG8lM4fpUAINIc7qiMq6BbcGFUNUVRg3IlgqwRqV3jX8-NcJVx5jkzxKl3Bdw2UQErISSL]--></g></svg>