<svg xmlns="http://www.w3.org/2000/svg" xmlns:xlink="http://www.w3.org/1999/xlink" contentStyleType="text/css" data-diagram-type="SEQUENCE" height="356px" preserveAspectRatio="none" style="width:664px;height:356px;background:#FFFFFF;" version="1.1" viewBox="0 0 664 356" width="664px" zoomAndPan="magnify"><defs/><g><g><title>User</title><rect fill="#000000" fill-opacity="0.00000" height="194.7969" width="8" x="19.9551" y="81.2969"/><line style="stroke:#181818;stroke-width:0.5;stroke-dasharray:5,5;" x1="23" x2="23" y1="81.2969" y2="276.0938"/></g><g><title>Media Platform</title><rect fill="#000000" fill-opacity="0.00000" height="194.7969" width="8" x="231.084" y="81.2969"/><line style="stroke:#181818;stroke-width:0.5;stroke-dasharray:5,5;" x1="234.1909" x2="234.1909" y1="81.2969" y2="276.0938"/></g><g><title>Brand Management</title><rect fill="#000000" fill-opacity="0.00000" height="194.7969" width="8" x="414.4229" y="81.2969"/><line style="stroke:#181818;stroke-width:0.5;stroke-dasharray:5,5;" x1="418.2363" x2="418.2363" y1="81.2969" y2="276.0938"/></g><g><title>Analytical Outputs</title><rect fill="#000000" fill-opacity="0.00000" height="194.7969" width="8" x="583.3525" y="81.2969"/><line style="stroke:#181818;stroke-width:0.5;stroke-dasharray:5,5;" x1="586.7905" x2="586.7905" y1="81.2969" y2="276.0938"/></g><g class="participant participant-head" data-participant="User"><text fill="#000000" font-family="sans-serif" font-size="14" lengthAdjust="spacing" textLength="31.9102" x="5" y="77.9951">User</text><ellipse cx="23.9551" cy="13.5" fill="#E2E2F0" rx="8" ry="8" style="stroke:#181818;stroke-width:0.5;"/><path d="M23.9551,21.5 L23.9551,48.5 M10.9551,29.5 L36.9551,29.5 M23.9551,48.5 L10.9551,63.5 M23.9551,48.5 L36.9551,63.5" fill="none" style="stroke:#181818;stroke-width:0.5;"/></g><g class="participant participant-tail" data-participant="User"><text fill="#000000" font-family="sans-serif" font-size="14" lengthAdjust="spacing" textLength="31.9102" x="5" y="288.0889">User</text><ellipse cx="23.9551" cy="299.8906" fill="#E2E2F0" rx="8" ry="8" style="stroke:#181818;stroke-width:0.5;"/><path d="M23.9551,307.8906 L23.9551,334.8906 M10.9551,315.8906 L36.9551,315.8906 M23.9551,334.8906 L10.9551,349.8906 M23.9551,334.8906 L36.9551,349.8906" fill="none" style="stroke:#181818;stroke-width:0.5;"/></g><g class="participant participant-head" data-participant="Media"><rect fill="#E2E2F0" height="30.2969" rx="2.5" ry="2.5" style="stroke:#181818;stroke-width:0.5;" width="119.7861" x="175.1909" y="50"/><text fill="#000000" font-family="sans-serif" font-size="14" lengthAdjust="spacing" textLength="105.7861" x="182.1909" y="69.9951">Media Platform</text></g><g class="participant participant-tail" data-participant="Media"><rect fill="#E2E2F0" height="30.2969" rx="2.5" ry="2.5" style="stroke:#181818;stroke-width:0.5;" width="119.7861" x="175.1909" y="275.0938"/><text fill="#000000" font-family="sans-serif" font-size="14" lengthAdjust="spacing" textLength="105.7861" x="182.1909" y="295.0889">Media Platform</text></g><g class="participant participant-head" data-participant="Brand"><rect fill="#E2E2F0" height="30.2969" rx="2.5" ry="2.5" style="stroke:#181818;stroke-width:0.5;" width="152.373" x="342.2363" y="50"/><text fill="#000000" font-family="sans-serif" font-size="14" lengthAdjust="spacing" textLength="138.373" x="349.2363" y="69.9951">Brand Management</text></g><g class="participant participant-tail" data-participant="Brand"><rect fill="#E2E2F0" height="30.2969" rx="2.5" ry="2.5" style="stroke:#181818;stroke-width:0.5;" width="152.373" x="342.2363" y="275.0938"/><text fill="#000000" font-family="sans-serif" font-size="14" lengthAdjust="spacing" textLength="138.373" x="349.2363" y="295.0889">Brand Management</text></g><g class="participant participant-head" data-participant="Analytics"><rect fill="#E2E2F0" height="30.2969" rx="2.5" ry="2.5" style="stroke:#181818;stroke-width:0.5;" width="143.124" x="515.7905" y="50"/><text fill="#000000" font-family="sans-serif" font-size="14" lengthAdjust="spacing" textLength="129.124" x="522.7905" y="69.9951">Analytical Outputs</text></g><g class="participant participant-tail" data-participant="Analytics"><rect fill="#E2E2F0" height="30.2969" rx="2.5" ry="2.5" style="stroke:#181818;stroke-width:0.5;" width="143.124" x="515.7905" y="275.0938"/><text fill="#000000" font-family="sans-serif" font-size="14" lengthAdjust="spacing" textLength="129.124" x="522.7905" y="295.0889">Analytical Outputs</text></g><g class="message" data-participant-1="User" data-participant-2="Media"><polygon fill="#181818" points="223.084,108.4297,233.084,112.4297,223.084,116.4297,227.084,112.4297" style="stroke:#181818;stroke-width:1;"/><line style="stroke:#181818;stroke-width:1;" x1="23.9551" x2="229.084" y1="112.4297" y2="112.4297"/><text fill="#000000" font-family="sans-serif" font-size="13" lengthAdjust="spacing" textLength="98.6362" x="30.9551" y="107.3638">Access content</text></g><g class="message" data-participant-1="Media" data-participant-2="Brand"><polygon fill="#181818" points="406.4229,137.5625,416.4229,141.5625,406.4229,145.5625,410.4229,141.5625" style="stroke:#181818;stroke-width:1;"/><line style="stroke:#181818;stroke-width:1;" x1="235.084" x2="412.4229" y1="141.5625" y2="141.5625"/><text fill="#000000" font-family="sans-serif" font-size="13" lengthAdjust="spacing" textLength="114.5942" x="242.084" y="136.4966">Provide user data</text></g><g class="message" data-participant-1="Brand" data-participant-2="Analytics"><polygon fill="#181818" points="575.3525,166.6953,585.3525,170.6953,575.3525,174.6953,579.3525,170.6953" style="stroke:#181818;stroke-width:1;"/><line style="stroke:#181818;stroke-width:1;" x1="418.4229" x2="581.3525" y1="170.6953" y2="170.6953"/><text fill="#000000" font-family="sans-serif" font-size="13" lengthAdjust="spacing" textLength="144.9297" x="425.4229" y="165.6294">Send data for analysis</text></g><g class="message" data-participant-1="Analytics" data-participant-2="Brand"><polygon fill="#181818" points="429.4229,195.8281,419.4229,199.8281,429.4229,203.8281,425.4229,199.8281" style="stroke:#181818;stroke-width:1;"/><line style="stroke:#181818;stroke-width:1;" x1="423.4229" x2="586.3525" y1="199.8281" y2="199.8281"/><text fill="#000000" font-family="sans-serif" font-size="13" lengthAdjust="spacing" textLength="98.6807" x="435.4229" y="194.7622">Return insights</text></g><g class="message" data-participant-1="Brand" data-participant-2="Media"><polygon fill="#181818" points="246.084,224.9609,236.084,228.9609,246.084,232.9609,242.084,228.9609" style="stroke:#181818;stroke-width:1;"/><line style="stroke:#181818;stroke-width:1;" x1="240.084" x2="417.4229" y1="228.9609" y2="228.9609"/><text fill="#000000" font-family="sans-serif" font-size="13" lengthAdjust="spacing" textLength="159.3389" x="252.084" y="223.895">Update content strategy</text></g><g class="message" data-participant-1="Media" data-participant-2="User"><polygon fill="#181818" points="34.9551,254.0938,24.9551,258.0938,34.9551,262.0938,30.9551,258.0938" style="stroke:#181818;stroke-width:1;"/><line style="stroke:#181818;stroke-width:1;" x1="28.9551" x2="234.084" y1="258.0938" y2="258.0938"/><text fill="#000000" font-family="sans-serif" font-size="13" lengthAdjust="spacing" textLength="187.1289" x="40.9551" y="253.0278">Deliver personalized content</text></g><!--SRC=[LOz1RW8n34NtEON5lXUOHIMgRb5HAmvW9MQmD2IHxK62qzV9m01B___z_OpHYi11IK95COvSCHjiTfGOOJ-X7OkSDu0ANNfFVGdc13lCEDAPilLS5zzpsupJrKUSu6UsEflsv4FM41e1V7mkHmROnaYg44ishmqBZTkzUu2zb0idWhbj9JGC2uadriu1_iYbveB_0DWCPGrhugNmbsoM39oLnvFfi-xESwZUGmyUK1CVn-iJhF4Fy4qJNnofacZnCtoZj3xn3m00]--></g></svg>