<svg xmlns="http://www.w3.org/2000/svg" xmlns:xlink="http://www.w3.org/1999/xlink" contentStyleType="text/css" data-diagram-type="ACTIVITY" height="308px" preserveAspectRatio="none" style="width:589px;height:308px;background:#FFFFFF;" version="1.1" viewBox="0 0 589 308" width="589px" zoomAndPan="magnify"><defs/><g><ellipse cx="290.9741" cy="20" fill="#222222" rx="10" ry="10" style="stroke:#222222;stroke-width:1;"/><rect fill="#F1F1F1" height="33.9688" rx="12.5" ry="12.5" style="stroke:#181818;stroke-width:0.5;" width="200.498" x="190.7251" y="50"/><text fill="#000000" font-family="sans-serif" font-size="12" lengthAdjust="spacing" textLength="180.498" x="200.7251" y="71.1387">User selects payment method</text><polygon fill="#F1F1F1" points="214.1675,103.9688,367.7808,103.9688,379.7808,115.9688,367.7808,127.9688,214.1675,127.9688,202.1675,115.9688,214.1675,103.9688" style="stroke:#181818;stroke-width:0.5;"/><text fill="#000000" font-family="sans-serif" font-size="11" lengthAdjust="spacing" textLength="153.6133" x="214.1675" y="119.7769">Payment method available?</text><text fill="#000000" font-family="sans-serif" font-size="11" lengthAdjust="spacing" textLength="19.0083" x="183.1592" y="113.3745">yes</text><text fill="#000000" font-family="sans-serif" font-size="11" lengthAdjust="spacing" textLength="13.7017" x="379.7808" y="113.3745">no</text><rect fill="#F1F1F1" height="33.9688" rx="12.5" ry="12.5" style="stroke:#181818;stroke-width:0.5;" width="170.7617" x="58.6572" y="137.9688"/><text fill="#000000" font-family="sans-serif" font-size="12" lengthAdjust="spacing" textLength="150.7617" x="68.6572" y="159.1074">App validates availability</text><rect fill="#F1F1F1" height="33.9688" rx="12.5" ry="12.5" style="stroke:#181818;stroke-width:0.5;" width="266.0762" x="11" y="191.9375"/><text fill="#000000" font-family="sans-serif" font-size="12" lengthAdjust="spacing" textLength="246.0762" x="21" y="213.0762">Pre-authorize card via Payment Gateway</text><rect fill="#F1F1F1" height="33.9688" rx="12.5" ry="12.5" style="stroke:#181818;stroke-width:0.5;" width="281.668" x="297.0762" y="137.9688"/><text fill="#000000" font-family="sans-serif" font-size="12" lengthAdjust="spacing" textLength="261.668" x="307.0762" y="159.1074">Notify user of unavailable payment method</text><polygon fill="#F1F1F1" points="290.9741,231.9063,302.9741,243.9063,290.9741,255.9063,278.9741,243.9063,290.9741,231.9063" style="stroke:#181818;stroke-width:0.5;"/><ellipse cx="290.9741" cy="286.9063" fill="none" rx="11" ry="11" style="stroke:#222222;stroke-width:1;"/><ellipse cx="290.9741" cy="286.9063" fill="#222222" rx="6" ry="6" style="stroke:#222222;stroke-width:1;"/><line style="stroke:#181818;stroke-width:1;" x1="290.9741" x2="290.9741" y1="30" y2="50"/><polygon fill="#181818" points="286.9741,40,290.9741,50,294.9741,40,290.9741,44" style="stroke:#181818;stroke-width:1;"/><line style="stroke:#181818;stroke-width:1;" x1="144.0381" x2="144.0381" y1="171.9375" y2="191.9375"/><polygon fill="#181818" points="140.0381,181.9375,144.0381,191.9375,148.0381,181.9375,144.0381,185.9375" style="stroke:#181818;stroke-width:1;"/><line style="stroke:#181818;stroke-width:1;" x1="202.1675" x2="144.0381" y1="115.9688" y2="115.9688"/><line style="stroke:#181818;stroke-width:1;" x1="144.0381" x2="144.0381" y1="115.9688" y2="137.9688"/><polygon fill="#181818" points="140.0381,127.9688,144.0381,137.9688,148.0381,127.9688,144.0381,131.9688" style="stroke:#181818;stroke-width:1;"/><line style="stroke:#181818;stroke-width:1;" x1="379.7808" x2="437.9102" y1="115.9688" y2="115.9688"/><line style="stroke:#181818;stroke-width:1;" x1="437.9102" x2="437.9102" y1="115.9688" y2="137.9688"/><polygon fill="#181818" points="433.9102,127.9688,437.9102,137.9688,441.9102,127.9688,437.9102,131.9688" style="stroke:#181818;stroke-width:1;"/><line style="stroke:#181818;stroke-width:1;" x1="144.0381" x2="144.0381" y1="225.9063" y2="243.9063"/><line style="stroke:#181818;stroke-width:1;" x1="144.0381" x2="278.9741" y1="243.9063" y2="243.9063"/><polygon fill="#181818" points="268.9741,239.9063,278.9741,243.9063,268.9741,247.9063,272.9741,243.9063" style="stroke:#181818;stroke-width:1;"/><line style="stroke:#181818;stroke-width:1;" x1="437.9102" x2="437.9102" y1="171.9375" y2="243.9063"/><line style="stroke:#181818;stroke-width:1;" x1="437.9102" x2="302.9741" y1="243.9063" y2="243.9063"/><polygon fill="#181818" points="312.9741,239.9063,302.9741,243.9063,312.9741,247.9063,308.9741,243.9063" style="stroke:#181818;stroke-width:1;"/><line style="stroke:#181818;stroke-width:1;" x1="290.9741" x2="290.9741" y1="83.9688" y2="103.9688"/><polygon fill="#181818" points="286.9741,93.9688,290.9741,103.9688,294.9741,93.9688,290.9741,97.9688" style="stroke:#181818;stroke-width:1;"/><line style="stroke:#181818;stroke-width:1;" x1="290.9741" x2="290.9741" y1="255.9063" y2="275.9063"/><polygon fill="#181818" points="286.9741,265.9063,290.9741,275.9063,294.9741,265.9063,290.9741,269.9063" style="stroke:#181818;stroke-width:1;"/><!--SRC=[POux3i8m44HxdsBAfE02IO6ew50Q3h34QsKbnxRiJP0vFGbIa13jVDvCKSfgJ7Sld57OywW5YUhCGJ6pJj7sHXoQuKS3hIIU7fxFBNJYWAPoQGtGNLB2IbuiAPSZ9rwqzhizP3xHiZ6ol1WZPOjL20V-khMUj4NP5qOJueTvYogkOjbFHeSbVEV_ldAmuemf6jCR]--></g></svg>