<svg xmlns="http://www.w3.org/2000/svg" xmlns:xlink="http://www.w3.org/1999/xlink" contentStyleType="text/css" data-diagram-type="SEQUENCE" height="356px" preserveAspectRatio="none" style="width:551px;height:356px;background:#FFFFFF;" version="1.1" viewBox="0 0 551 356" width="551px" zoomAndPan="magnify"><defs/><g><g><title>User</title><rect fill="#000000" fill-opacity="0.00000" height="194.7969" width="8" x="19.9551" y="81.2969"/><line style="stroke:#181818;stroke-width:0.5;stroke-dasharray:5,5;" x1="23" x2="23" y1="81.2969" y2="276.0938"/></g><g><title>App</title><rect fill="#000000" fill-opacity="0.00000" height="194.7969" width="8" x="141.4233" y="81.2969"/><line style="stroke:#181818;stroke-width:0.5;stroke-dasharray:5,5;" x1="144.748" x2="144.748" y1="81.2969" y2="276.0938"/></g><g><title>Auth Service</title><rect fill="#000000" fill-opacity="0.00000" height="194.7969" width="8" x="268.7568" y="81.2969"/><line style="stroke:#181818;stroke-width:0.5;stroke-dasharray:5,5;" x1="272.2549" x2="272.2549" y1="81.2969" y2="276.0938"/></g><g><title>Local Storage</title><rect fill="#000000" fill-opacity="0.00000" height="194.7969" width="8" x="385.1377" y="81.2969"/><line style="stroke:#181818;stroke-width:0.5;stroke-dasharray:5,5;" x1="388.2588" x2="388.2588" y1="81.2969" y2="276.0938"/></g><g><title>Login Page</title><rect fill="#000000" fill-opacity="0.00000" height="194.7969" width="8" x="495.5098" y="81.2969"/><line style="stroke:#181818;stroke-width:0.5;stroke-dasharray:5,5;" x1="499.0166" x2="499.0166" y1="81.2969" y2="276.0938"/></g><g class="participant participant-head" data-participant="User"><text fill="#000000" font-family="sans-serif" font-size="14" lengthAdjust="spacing" textLength="31.9102" x="5" y="77.9951">User</text><ellipse cx="23.9551" cy="13.5" fill="#E2E2F0" rx="8" ry="8" style="stroke:#181818;stroke-width:0.5;"/><path d="M23.9551,21.5 L23.9551,48.5 M10.9551,29.5 L36.9551,29.5 M23.9551,48.5 L10.9551,63.5 M23.9551,48.5 L36.9551,63.5" fill="none" style="stroke:#181818;stroke-width:0.5;"/></g><g class="participant participant-tail" data-participant="User"><text fill="#000000" font-family="sans-serif" font-size="14" lengthAdjust="spacing" textLength="31.9102" x="5" y="288.0889">User</text><ellipse cx="23.9551" cy="299.8906" fill="#E2E2F0" rx="8" ry="8" style="stroke:#181818;stroke-width:0.5;"/><path d="M23.9551,307.8906 L23.9551,334.8906 M10.9551,315.8906 L36.9551,315.8906 M23.9551,334.8906 L10.9551,349.8906 M23.9551,334.8906 L36.9551,349.8906" fill="none" style="stroke:#181818;stroke-width:0.5;"/></g><g class="participant participant-head" data-participant="App"><rect fill="#E2E2F0" height="30.2969" rx="2.5" ry="2.5" style="stroke:#181818;stroke-width:0.5;" width="41.3506" x="124.748" y="50"/><text fill="#000000" font-family="sans-serif" font-size="14" lengthAdjust="spacing" textLength="27.3506" x="131.748" y="69.9951">App</text></g><g class="participant participant-tail" data-participant="App"><rect fill="#E2E2F0" height="30.2969" rx="2.5" ry="2.5" style="stroke:#181818;stroke-width:0.5;" width="41.3506" x="124.748" y="275.0938"/><text fill="#000000" font-family="sans-serif" font-size="14" lengthAdjust="spacing" textLength="27.3506" x="131.748" y="295.0889">App</text></g><g class="participant participant-head" data-participant="AuthService"><rect fill="#E2E2F0" height="30.2969" rx="2.5" ry="2.5" style="stroke:#181818;stroke-width:0.5;" width="103.0039" x="221.2549" y="50"/><text fill="#000000" font-family="sans-serif" font-size="14" lengthAdjust="spacing" textLength="89.0039" x="228.2549" y="69.9951">Auth Service</text></g><g class="participant participant-tail" data-participant="AuthService"><rect fill="#E2E2F0" height="30.2969" rx="2.5" ry="2.5" style="stroke:#181818;stroke-width:0.5;" width="103.0039" x="221.2549" y="275.0938"/><text fill="#000000" font-family="sans-serif" font-size="14" lengthAdjust="spacing" textLength="89.0039" x="228.2549" y="295.0889">Auth Service</text></g><g class="participant participant-head" data-participant="LocalStorage"><rect fill="#E2E2F0" height="30.2969" rx="2.5" ry="2.5" style="stroke:#181818;stroke-width:0.5;" width="109.7578" x="334.2588" y="50"/><text fill="#000000" font-family="sans-serif" font-size="14" lengthAdjust="spacing" textLength="95.7578" x="341.2588" y="69.9951">Local Storage</text></g><g class="participant participant-tail" data-participant="LocalStorage"><rect fill="#E2E2F0" height="30.2969" rx="2.5" ry="2.5" style="stroke:#181818;stroke-width:0.5;" width="109.7578" x="334.2588" y="275.0938"/><text fill="#000000" font-family="sans-serif" font-size="14" lengthAdjust="spacing" textLength="95.7578" x="341.2588" y="295.0889">Local Storage</text></g><g class="participant participant-head" data-participant="LoginPage"><rect fill="#E2E2F0" height="30.2969" rx="2.5" ry="2.5" style="stroke:#181818;stroke-width:0.5;" width="90.9863" x="454.0166" y="50"/><text fill="#000000" font-family="sans-serif" font-size="14" lengthAdjust="spacing" textLength="76.9863" x="461.0166" y="69.9951">Login Page</text></g><g class="participant participant-tail" data-participant="LoginPage"><rect fill="#E2E2F0" height="30.2969" rx="2.5" ry="2.5" style="stroke:#181818;stroke-width:0.5;" width="90.9863" x="454.0166" y="275.0938"/><text fill="#000000" font-family="sans-serif" font-size="14" lengthAdjust="spacing" textLength="76.9863" x="461.0166" y="295.0889">Login Page</text></g><g class="message" data-participant-1="User" data-participant-2="App"><polygon fill="#181818" points="133.4233,108.4297,143.4233,112.4297,133.4233,116.4297,137.4233,112.4297" style="stroke:#181818;stroke-width:1;"/><line style="stroke:#181818;stroke-width:1;" x1="23.9551" x2="139.4233" y1="112.4297" y2="112.4297"/><text fill="#000000" font-family="sans-serif" font-size="13" lengthAdjust="spacing" textLength="97.4683" x="30.9551" y="107.3638">Initiates logout</text></g><g class="message" data-participant-1="App" data-participant-2="AuthService"><polygon fill="#181818" points="260.7568,137.5625,270.7568,141.5625,260.7568,145.5625,264.7568,141.5625" style="stroke:#181818;stroke-width:1;"/><line style="stroke:#181818;stroke-width:1;" x1="145.4233" x2="266.7568" y1="141.5625" y2="141.5625"/><text fill="#000000" font-family="sans-serif" font-size="13" lengthAdjust="spacing" textLength="95.9258" x="152.4233" y="136.4966">Revoke tokens</text></g><g class="message" data-participant-1="AuthService" data-participant-2="App"><polygon fill="#181818" points="156.4233,166.6953,146.4233,170.6953,156.4233,174.6953,152.4233,170.6953" style="stroke:#181818;stroke-width:1;"/><line style="stroke:#181818;stroke-width:1;stroke-dasharray:2,2;" x1="150.4233" x2="271.7568" y1="170.6953" y2="170.6953"/><text fill="#000000" font-family="sans-serif" font-size="13" lengthAdjust="spacing" textLength="103.3335" x="162.4233" y="165.6294">Tokens revoked</text></g><g class="message" data-participant-1="App" data-participant-2="LocalStorage"><polygon fill="#181818" points="377.1377,195.8281,387.1377,199.8281,377.1377,203.8281,381.1377,199.8281" style="stroke:#181818;stroke-width:1;"/><line style="stroke:#181818;stroke-width:1;" x1="145.4233" x2="383.1377" y1="199.8281" y2="199.8281"/><text fill="#000000" font-family="sans-serif" font-size="13" lengthAdjust="spacing" textLength="121.9385" x="152.4233" y="194.7622">Clear local storage</text></g><g class="message" data-participant-1="LocalStorage" data-participant-2="App"><polygon fill="#181818" points="156.4233,224.9609,146.4233,228.9609,156.4233,232.9609,152.4233,228.9609" style="stroke:#181818;stroke-width:1;"/><line style="stroke:#181818;stroke-width:1;stroke-dasharray:2,2;" x1="150.4233" x2="388.1377" y1="228.9609" y2="228.9609"/><text fill="#000000" font-family="sans-serif" font-size="13" lengthAdjust="spacing" textLength="103.3145" x="162.4233" y="223.895">Storage cleared</text></g><g class="message" data-participant-1="App" data-participant-2="LoginPage"><polygon fill="#181818" points="487.5098,254.0938,497.5098,258.0938,487.5098,262.0938,491.5098,258.0938" style="stroke:#181818;stroke-width:1;"/><line style="stroke:#181818;stroke-width:1;" x1="145.4233" x2="493.5098" y1="258.0938" y2="258.0938"/><text fill="#000000" font-family="sans-serif" font-size="13" lengthAdjust="spacing" textLength="107.4658" x="152.4233" y="253.0278">Redirect to login</text></g><!--SRC=[NOyn2iCm34Ltdq9apmKo54gdGeVIj0SGZaX5Wsri9UUlx2J4xMAZ_x-_dz2AZ_1A54t0A6mve1DepY4qW0dq_ZDcUKDFSM5BQqA5RVvDthp52Nhjnt6D5cKJ_hCZExWVGHtpP4n6W_QKGJguEXP6eGIJ7_qiHjLY7WmTF6Zn7mBHmoLJMT3kFS_YGIp9OM-fyJguJ8HH_ybBf8svJXnjks3pYxfkMo8Z3Hp9Ya9bSdPV]--></g></svg>