<svg xmlns="http://www.w3.org/2000/svg" xmlns:xlink="http://www.w3.org/1999/xlink" contentStyleType="text/css" data-diagram-type="SEQUENCE" height="340px" preserveAspectRatio="none" style="width:592px;height:340px;background:#FFFFFF;" version="1.1" viewBox="0 0 592 340" width="592px" zoomAndPan="magnify"><defs/><g><g><title>User</title><rect fill="#000000" fill-opacity="0.00000" height="178.6641" width="8" x="19.9551" y="81.2969"/><line style="stroke:#181818;stroke-width:0.5;stroke-dasharray:5,5;" x1="23" x2="23" y1="81.2969" y2="259.9609"/></g><g><title>Skills Data</title><rect fill="#000000" fill-opacity="0.00000" height="178.6641" width="8" x="170.0386" y="81.2969"/><line style="stroke:#181818;stroke-width:0.5;stroke-dasharray:5,5;" x1="173.1211" x2="173.1211" y1="81.2969" y2="259.9609"/></g><g><title>Evaluation System</title><rect fill="#000000" fill-opacity="0.00000" height="178.6641" width="8" x="299.4731" y="81.2969"/><line style="stroke:#181818;stroke-width:0.5;stroke-dasharray:5,5;" x1="303.2104" x2="303.2104" y1="81.2969" y2="259.9609"/></g><g><title>Recommendations</title><rect fill="#000000" fill-opacity="0.00000" height="178.6641" width="8" x="509.9102" y="81.2969"/><line style="stroke:#181818;stroke-width:0.5;stroke-dasharray:5,5;" x1="513.439" x2="513.439" y1="81.2969" y2="259.9609"/></g><g class="participant participant-head" data-participant="User"><text fill="#000000" font-family="sans-serif" font-size="14" lengthAdjust="spacing" textLength="31.9102" x="5" y="77.9951">User</text><ellipse cx="23.9551" cy="13.5" fill="#E2E2F0" rx="8" ry="8" style="stroke:#181818;stroke-width:0.5;"/><path d="M23.9551,21.5 L23.9551,48.5 M10.9551,29.5 L36.9551,29.5 M23.9551,48.5 L10.9551,63.5 M23.9551,48.5 L36.9551,63.5" fill="none" style="stroke:#181818;stroke-width:0.5;"/></g><g class="participant participant-tail" data-participant="User"><text fill="#000000" font-family="sans-serif" font-size="14" lengthAdjust="spacing" textLength="31.9102" x="5" y="271.9561">User</text><ellipse cx="23.9551" cy="283.7578" fill="#E2E2F0" rx="8" ry="8" style="stroke:#181818;stroke-width:0.5;"/><path d="M23.9551,291.7578 L23.9551,318.7578 M10.9551,299.7578 L36.9551,299.7578 M23.9551,318.7578 L10.9551,333.7578 M23.9551,318.7578 L36.9551,333.7578" fill="none" style="stroke:#181818;stroke-width:0.5;"/></g><g class="participant participant-head" data-participant="SkillsData"><rect fill="#E2E2F0" height="30.2969" rx="2.5" ry="2.5" style="stroke:#181818;stroke-width:0.5;" width="87.835" x="130.1211" y="50"/><text fill="#000000" font-family="sans-serif" font-size="14" lengthAdjust="spacing" textLength="73.835" x="137.1211" y="69.9951">Skills Data</text></g><g class="participant participant-tail" data-participant="SkillsData"><rect fill="#E2E2F0" height="30.2969" rx="2.5" ry="2.5" style="stroke:#181818;stroke-width:0.5;" width="87.835" x="130.1211" y="258.9609"/><text fill="#000000" font-family="sans-serif" font-size="14" lengthAdjust="spacing" textLength="73.835" x="137.1211" y="278.9561">Skills Data</text></g><g class="participant participant-head" data-participant="EvaluationSystem"><rect fill="#E2E2F0" height="30.2969" rx="2.5" ry="2.5" style="stroke:#181818;stroke-width:0.5;" width="144.5254" x="231.2104" y="50"/><text fill="#000000" font-family="sans-serif" font-size="14" lengthAdjust="spacing" textLength="130.5254" x="238.2104" y="69.9951">Evaluation System</text></g><g class="participant participant-tail" data-participant="EvaluationSystem"><rect fill="#E2E2F0" height="30.2969" rx="2.5" ry="2.5" style="stroke:#181818;stroke-width:0.5;" width="144.5254" x="231.2104" y="258.9609"/><text fill="#000000" font-family="sans-serif" font-size="14" lengthAdjust="spacing" textLength="130.5254" x="238.2104" y="278.9561">Evaluation System</text></g><g class="participant participant-head" data-participant="Recommendations"><rect fill="#E2E2F0" height="30.2969" rx="2.5" ry="2.5" style="stroke:#181818;stroke-width:0.5;" width="144.9424" x="441.439" y="50"/><text fill="#000000" font-family="sans-serif" font-size="14" lengthAdjust="spacing" textLength="130.9424" x="448.439" y="69.9951">Recommendations</text></g><g class="participant participant-tail" data-participant="Recommendations"><rect fill="#E2E2F0" height="30.2969" rx="2.5" ry="2.5" style="stroke:#181818;stroke-width:0.5;" width="144.9424" x="441.439" y="258.9609"/><text fill="#000000" font-family="sans-serif" font-size="14" lengthAdjust="spacing" textLength="130.9424" x="448.439" y="278.9561">Recommendations</text></g><g class="message" data-participant-1="User" data-participant-2="SkillsData"><polygon fill="#181818" points="162.0386,108.4297,172.0386,112.4297,162.0386,116.4297,166.0386,112.4297" style="stroke:#181818;stroke-width:1;"/><line style="stroke:#181818;stroke-width:1;" x1="23.9551" x2="168.0386" y1="112.4297" y2="112.4297"/><text fill="#000000" font-family="sans-serif" font-size="13" lengthAdjust="spacing" textLength="126.0835" x="30.9551" y="107.3638">Request Skills Data</text></g><g class="message" data-participant-1="SkillsData" data-participant-2="EvaluationSystem"><polygon fill="#181818" points="291.4731,137.5625,301.4731,141.5625,291.4731,145.5625,295.4731,141.5625" style="stroke:#181818;stroke-width:1;"/><line style="stroke:#181818;stroke-width:1;" x1="174.0386" x2="297.4731" y1="141.5625" y2="141.5625"/><text fill="#000000" font-family="sans-serif" font-size="13" lengthAdjust="spacing" textLength="105.4346" x="181.0386" y="136.4966">Send Skills Data</text></g><g class="message" data-participant-1="EvaluationSystem" data-participant-2="EvaluationSystem"><line style="stroke:#181818;stroke-width:1;" x1="303.4731" x2="345.4731" y1="170.6953" y2="170.6953"/><line style="stroke:#181818;stroke-width:1;" x1="345.4731" x2="345.4731" y1="170.6953" y2="183.6953"/><line style="stroke:#181818;stroke-width:1;" x1="304.4731" x2="345.4731" y1="183.6953" y2="183.6953"/><polygon fill="#181818" points="314.4731,179.6953,304.4731,183.6953,314.4731,187.6953,310.4731,183.6953" style="stroke:#181818;stroke-width:1;"/><text fill="#000000" font-family="sans-serif" font-size="13" lengthAdjust="spacing" textLength="94.3071" x="310.4731" y="165.6294">Evaluate Skills</text></g><g class="message" data-participant-1="EvaluationSystem" data-participant-2="Recommendations"><polygon fill="#181818" points="501.9102,208.8281,511.9102,212.8281,501.9102,216.8281,505.9102,212.8281" style="stroke:#181818;stroke-width:1;"/><line style="stroke:#181818;stroke-width:1;" x1="303.4731" x2="507.9102" y1="212.8281" y2="212.8281"/><text fill="#000000" font-family="sans-serif" font-size="13" lengthAdjust="spacing" textLength="186.437" x="310.4731" y="207.7622">Generate Recommendations</text></g><g class="message" data-participant-1="Recommendations" data-participant-2="User"><polygon fill="#181818" points="34.9551,237.9609,24.9551,241.9609,34.9551,245.9609,30.9551,241.9609" style="stroke:#181818;stroke-width:1;"/><line style="stroke:#181818;stroke-width:1;" x1="28.9551" x2="512.9102" y1="241.9609" y2="241.9609"/><text fill="#000000" font-family="sans-serif" font-size="13" lengthAdjust="spacing" textLength="174.4146" x="40.9551" y="236.895">Provide Recommendations</text></g><!--SRC=[ROyz3iCW34PtJc5bxmKOEhNgMXNr01RnWCfF2awatZw1H4gW6Vtn7lwCcaE4Tw8e1enij1dGCtJgOwnDS4F63Z31EkUnvkuJsX7P10_gbvXSeVTq3MldHJeuHxulH2f6amcHAy7bUbWi5-WxKc8ub1FxUwRRnHBKycSbjCYvjYMqgQTMqrd2Wpp5BBNND7EMytqIdZ5CflyJPW00]--></g></svg>