<svg xmlns="http://www.w3.org/2000/svg" xmlns:xlink="http://www.w3.org/1999/xlink" contentStyleType="text/css" data-diagram-type="DESCRIPTION" height="358px" preserveAspectRatio="none" style="width:1892px;height:358px;background:#FFFFFF;" version="1.1" viewBox="0 0 1892 358" width="1892px" zoomAndPan="magnify"><defs/><g><!--entity Guest--><g class="entity" data-entity="Guest" data-source-line="1" data-uid="ent0002" id="entity_Guest"><ellipse cx="554.6291" cy="14" fill="#F1F1F1" rx="8" ry="8" style="stroke:#181818;stroke-width:0.5;"/><path d="M554.6291,22 L554.6291,49 M541.6291,30 L567.6291,30 M554.6291,49 L541.6291,64 M554.6291,49 L567.6291,64" fill="none" style="stroke:#181818;stroke-width:0.5;"/><text fill="#000000" font-family="sans-serif" font-size="14" lengthAdjust="spacing" textLength="41.1182" x="534.07" y="78.4951">Guest</text></g><!--entity RegisteredCustomer--><g class="entity" data-entity="RegisteredCustomer" data-source-line="2" data-uid="ent0003" id="entity_RegisteredCustomer"><ellipse cx="744.6318" cy="14" fill="#F1F1F1" rx="8" ry="8" style="stroke:#181818;stroke-width:0.5;"/><path d="M744.6318,22 L744.6318,49 M731.6318,30 L757.6318,30 M744.6318,49 L731.6318,64 M744.6318,49 L757.6318,64" fill="none" style="stroke:#181818;stroke-width:0.5;"/><text fill="#000000" font-family="sans-serif" font-size="14" lengthAdjust="spacing" textLength="148.2236" x="670.52" y="78.4951">Registered Customer</text></g><!--entity MapProvider--><g class="entity" data-entity="MapProvider" data-source-line="3" data-uid="ent0004" id="entity_MapProvider"><ellipse cx="1787.6315" cy="151.3" fill="#F1F1F1" rx="8" ry="8" style="stroke:#181818;stroke-width:0.5;"/><path d="M1787.6315,159.3 L1787.6315,186.3 M1774.6315,167.3 L1800.6315,167.3 M1787.6315,186.3 L1774.6315,201.3 M1787.6315,186.3 L1800.6315,201.3" fill="none" style="stroke:#181818;stroke-width:0.5;"/><text fill="#000000" font-family="sans-serif" font-size="14" lengthAdjust="spacing" textLength="195.583" x="1689.84" y="215.7951">Map &amp; Geolocation Provider</text></g><!--entity UC1--><g class="entity" data-entity="UC1" data-source-line="5" data-uid="ent0005" id="entity_UC1"><ellipse cx="494.634" cy="180.9468" fill="#F1F1F1" rx="116.434" ry="25.6868" style="stroke:#181818;stroke-width:0.5;"/><text fill="#000000" font-family="sans-serif" font-size="14" lengthAdjust="spacing" textLength="211.7295" x="388.7692" y="185.5952">Detect Current Location (GPS)</text></g><!--entity UC2--><g class="entity" data-entity="UC2" data-source-line="6" data-uid="ent0006" id="entity_UC2"><ellipse cx="1321.6275" cy="180.9455" fill="#F1F1F1" rx="97.9275" ry="21.9855" style="stroke:#181818;stroke-width:0.5;"/><text fill="#000000" font-family="sans-serif" font-size="14" lengthAdjust="spacing" textLength="171.4795" x="1235.8878" y="185.5939">Choose Location on Map</text></g><!--entity UC3--><g class="entity" data-entity="UC3" data-source-line="7" data-uid="ent0007" id="entity_UC3"><ellipse cx="89.6303" cy="180.9461" fill="#F1F1F1" rx="83.6303" ry="19.1261" style="stroke:#181818;stroke-width:0.5;"/><text fill="#000000" font-family="sans-serif" font-size="14" lengthAdjust="spacing" textLength="139.1592" x="20.0507" y="185.5945">Search by City/Area</text></g><!--entity UC4--><g class="entity" data-entity="UC4" data-source-line="8" data-uid="ent0008" id="entity_UC4"><ellipse cx="1554.6254" cy="180.9491" fill="#F1F1F1" rx="99.8954" ry="22.3791" style="stroke:#181818;stroke-width:0.5;"/><text fill="#000000" font-family="sans-serif" font-size="14" lengthAdjust="spacing" textLength="175.8271" x="1466.7118" y="185.5975">Persist Selected Location</text></g><!--entity UC5--><g class="entity" data-entity="UC5" data-source-line="9" data-uid="ent0009" id="entity_UC5"><ellipse cx="1059.6287" cy="180.9497" fill="#F1F1F1" rx="128.6487" ry="28.1297" style="stroke:#181818;stroke-width:0.5;"/><text fill="#000000" font-family="sans-serif" font-size="14" lengthAdjust="spacing" textLength="237.7197" x="940.7688" y="185.5982">Show Nearby Restaurants on Map</text></g><!--entity UC6--><g class="entity" data-entity="UC6" data-source-line="10" data-uid="ent0010" id="entity_UC6"><ellipse cx="1771.6294" cy="324.0619" fill="#F1F1F1" rx="80.1594" ry="18.4319" style="stroke:#181818;stroke-width:0.5;"/><text fill="#000000" font-family="sans-serif" font-size="14" lengthAdjust="spacing" textLength="131.0518" x="1706.1035" y="328.7103">Calculate Distance</text></g><!--entity UC7--><g class="entity" data-entity="UC7" data-source-line="11" data-uid="ent0011" id="entity_UC7"><ellipse cx="1105.6331" cy="324.0606" fill="#F1F1F1" rx="76.0031" ry="17.6006" style="stroke:#181818;stroke-width:0.5;"/><text fill="#000000" font-family="sans-serif" font-size="14" lengthAdjust="spacing" textLength="121.1533" x="1045.0565" y="328.7091">Render Map Tiles</text></g><!--entity UC8--><g class="entity" data-entity="UC8" data-source-line="12" data-uid="ent0012" id="entity_UC8"><ellipse cx="275.633" cy="180.9506" fill="#F1F1F1" rx="67.353" ry="15.8706" style="stroke:#181818;stroke-width:0.5;"/><text fill="#000000" font-family="sans-serif" font-size="14" lengthAdjust="spacing" textLength="99.627" x="225.8195" y="185.599">Filter and Sort</text></g><!--entity UC9--><g class="entity" data-entity="UC9" data-source-line="13" data-uid="ent0013" id="entity_UC9"><ellipse cx="744.6285" cy="180.9517" fill="#F1F1F1" rx="98.2085" ry="22.0417" style="stroke:#181818;stroke-width:0.5;"/><text fill="#000000" font-family="sans-serif" font-size="14" lengthAdjust="spacing" textLength="172.1016" x="658.5777" y="185.6001">Open Restaurant Details</text></g><!--entity UC10--><g class="entity" data-entity="UC10" data-source-line="14" data-uid="ent0014" id="entity_UC10"><ellipse cx="788.6275" cy="324.0615" fill="#F1F1F1" rx="122.6075" ry="26.9215" style="stroke:#181818;stroke-width:0.5;"/><text fill="#000000" font-family="sans-serif" font-size="14" lengthAdjust="spacing" textLength="224.9092" x="676.1729" y="328.7099">Graceful Fallback on GPS Denial</text></g><!--entity UC11--><g class="entity" data-entity="UC11" data-source-line="15" data-uid="ent0015" id="entity_UC11"><ellipse cx="1467.6316" cy="324.0623" fill="#F1F1F1" rx="127.8116" ry="27.9623" style="stroke:#181818;stroke-width:0.5;"/><text fill="#000000" font-family="sans-serif" font-size="14" lengthAdjust="spacing" textLength="235.9492" x="1349.657" y="328.7108">Accurate Geocoding for Proximity</text></g><!--link Guest to UC1--><g class="link" data-entity-1="Guest" data-entity-2="UC1" data-source-line="17" data-uid="lnk16" id="link_Guest_UC1"><path d="M538.08,81.98 C527.74,105.29 517.1519,129.1649 508.0719,149.6449" fill="none" id="Guest-to-UC1" style="stroke:#181818;stroke-width:1;"/><polygon fill="#181818" points="505.64,155.13,512.9445,148.5236,507.6665,150.5591,505.6311,145.2811,505.64,155.13" style="stroke:#181818;stroke-width:1;"/></g><!--link Guest to UC2--><g class="link" data-entity-1="Guest" data-entity-2="UC2" data-source-line="18" data-uid="lnk17" id="link_Guest_UC2"><path d="M575.55,54.35 C595.07,62.97 625.21,75.2 652.63,81.8 C893.04,139.64 963.79,91.28 1205.63,142.8 C1227.76,147.51 1245.9744,152.8633 1266.2944,159.7133" fill="none" id="Guest-to-UC2" style="stroke:#181818;stroke-width:1;"/><polygon fill="#181818" points="1271.98,161.63,1264.7293,154.9646,1267.242,160.0328,1262.1738,162.5454,1271.98,161.63" style="stroke:#181818;stroke-width:1;"/></g><!--link Guest to UC3--><g class="link" data-entity-1="Guest" data-entity-2="UC3" data-source-line="19" data-uid="lnk18" id="link_Guest_UC3"><path d="M533.92,49.55 C478.05,62.91 319.74,101.74 190.63,142.8 C170.69,149.14 154.4729,154.9198 136.2329,161.8098" fill="none" id="Guest-to-UC3" style="stroke:#181818;stroke-width:1;"/><polygon fill="#181818" points="130.62,163.93,140.4528,164.4916,135.2974,162.1631,137.6259,157.0077,130.62,163.93" style="stroke:#181818;stroke-width:1;"/></g><!--link Guest to UC5--><g class="link" data-entity-1="Guest" data-entity-2="UC5" data-source-line="20" data-uid="lnk19" id="link_Guest_UC5"><path d="M575.39,53.39 C595.05,61.46 625.51,73.42 652.63,81.8 C759.06,114.66 878.0523,142.0971 961.1323,159.8371" fill="none" id="Guest-to-UC5" style="stroke:#181818;stroke-width:1;"/><polygon fill="#181818" points="967,161.09,959.0337,155.2988,962.1102,160.0459,957.3631,163.1224,967,161.09" style="stroke:#181818;stroke-width:1;"/></g><!--link Guest to UC8--><g class="link" data-entity-1="Guest" data-entity-2="UC8" data-source-line="21" data-uid="lnk20" id="link_Guest_UC8"><path d="M533.66,54.82 C484.24,78.79 365.7886,136.2218 309.5786,163.4818" fill="none" id="Guest-to-UC8" style="stroke:#181818;stroke-width:1;"/><polygon fill="#181818" points="304.18,166.1,314.0234,165.7718,308.6789,163.9182,310.5325,158.5737,304.18,166.1" style="stroke:#181818;stroke-width:1;"/></g><!--link Guest to UC9--><g class="link" data-entity-1="Guest" data-entity-2="UC9" data-source-line="22" data-uid="lnk21" id="link_Guest_UC9"><path d="M575.33,59.39 C609.37,83.63 672.3827,128.4994 711.0527,156.0394" fill="none" id="Guest-to-UC9" style="stroke:#181818;stroke-width:1;"/><polygon fill="#181818" points="715.94,159.52,710.9295,151.0409,711.8673,156.6195,706.2887,157.5573,715.94,159.52" style="stroke:#181818;stroke-width:1;"/></g><!--link RegisteredCustomer to UC1--><g class="link" data-entity-1="RegisteredCustomer" data-entity-2="UC1" data-source-line="24" data-uid="lnk22" id="link_RegisteredCustomer_UC1"><path d="M675.32,82.16 C631.25,106.01 580.8367,133.294 543.0167,153.764" fill="none" id="RegisteredCustomer-to-UC1" style="stroke:#181818;stroke-width:1;"/><polygon fill="#181818" points="537.74,156.62,547.559,155.8538,542.1372,154.24,543.751,148.8182,537.74,156.62" style="stroke:#181818;stroke-width:1;"/></g><!--link RegisteredCustomer to UC2--><g class="link" data-entity-1="RegisteredCustomer" data-entity-2="UC2" data-source-line="25" data-uid="lnk23" id="link_RegisteredCustomer_UC2"><path d="M819.03,58.11 C910.61,75.22 1070.6,106.9 1205.63,142.8 C1226.68,148.39 1243.8682,153.632 1263.7082,160.132" fill="none" id="RegisteredCustomer-to-UC2" style="stroke:#181818;stroke-width:1;"/><polygon fill="#181818" points="1269.41,162,1262.1027,155.3968,1264.6585,160.4433,1259.612,162.9992,1269.41,162" style="stroke:#181818;stroke-width:1;"/></g><!--link RegisteredCustomer to UC3--><g class="link" data-entity-1="RegisteredCustomer" data-entity-2="UC3" data-source-line="26" data-uid="lnk24" id="link_RegisteredCustomer_UC3"><path d="M670.32,64.21 C645.7,70.32 618.08,76.77 592.63,81.8 C415.35,116.84 365.66,97.82 190.63,142.8 C169.64,148.19 152.5153,154.138 133.9653,161.418" fill="none" id="RegisteredCustomer-to-UC3" style="stroke:#181818;stroke-width:1;"/><polygon fill="#181818" points="128.38,163.61,138.2192,164.0456,133.0344,161.7834,135.2966,156.5985,128.38,163.61" style="stroke:#181818;stroke-width:1;"/></g><!--link RegisteredCustomer to UC4--><g class="link" data-entity-1="RegisteredCustomer" data-entity-2="UC4" data-source-line="27" data-uid="lnk25" id="link_RegisteredCustomer_UC4"><path d="M819.09,51.17 C946.67,63.23 1214.75,92.49 1436.63,142.8 C1458.41,147.74 1476.2673,152.9247 1496.5673,159.5647" fill="none" id="RegisteredCustomer-to-UC4" style="stroke:#181818;stroke-width:1;"/><polygon fill="#181818" points="1502.27,161.43,1494.9595,154.8302,1497.5178,159.8756,1492.4724,162.4338,1502.27,161.43" style="stroke:#181818;stroke-width:1;"/></g><!--link RegisteredCustomer to UC5--><g class="link" data-entity-1="RegisteredCustomer" data-entity-2="UC5" data-source-line="28" data-uid="lnk26" id="link_RegisteredCustomer_UC5"><path d="M818.88,76.54 C875.09,100.68 945.6271,130.9818 997.0971,153.0918" fill="none" id="RegisteredCustomer-to-UC5" style="stroke:#181818;stroke-width:1;"/><polygon fill="#181818" points="1002.61,155.46,995.9195,148.2325,998.0159,153.4865,992.7619,155.583,1002.61,155.46" style="stroke:#181818;stroke-width:1;"/></g><!--link RegisteredCustomer to UC8--><g class="link" data-entity-1="RegisteredCustomer" data-entity-2="UC8" data-source-line="29" data-uid="lnk27" id="link_RegisteredCustomer_UC8"><path d="M670.08,63.02 C566.87,88.54 389.83,132.76 360.63,142.8 C341.29,149.45 325.6623,156.1138 309.3323,163.6938" fill="none" id="RegisteredCustomer-to-UC8" style="stroke:#181818;stroke-width:1;"/><polygon fill="#181818" points="303.89,166.22,313.7375,166.0589,308.4252,164.1149,310.3693,158.8025,303.89,166.22" style="stroke:#181818;stroke-width:1;"/></g><!--link RegisteredCustomer to UC9--><g class="link" data-entity-1="RegisteredCustomer" data-entity-2="UC9" data-source-line="30" data-uid="lnk28" id="link_RegisteredCustomer_UC9"><path d="M744.63,81.98 C744.63,106.7 744.63,132.22 744.63,152.73" fill="none" id="RegisteredCustomer-to-UC9" style="stroke:#181818;stroke-width:1;"/><polygon fill="#181818" points="744.63,158.73,748.63,149.73,744.63,153.73,740.63,149.73,744.63,158.73" style="stroke:#181818;stroke-width:1;"/></g><!--link UC5 to UC6--><g class="link" data-entity-1="UC5" data-entity-2="UC6" data-source-line="32" data-uid="lnk29" id="link_UC5_UC6"><path d="M1139.9,203.24 C1161.5,208.7 1184.9,214.36 1206.63,219.1 C1302.25,239.95 1577.3909,288.8893 1703.3809,311.0793" fill="none" id="UC5-to-UC6" style="stroke:#181818;stroke-width:1;"/><polygon fill="#181818" points="1709.29,312.12,1701.1202,306.6195,1704.3658,311.2527,1699.7326,314.4983,1709.29,312.12" style="stroke:#181818;stroke-width:1;"/></g><!--link UC5 to UC7--><g class="link" data-entity-1="UC5" data-entity-2="UC7" data-source-line="33" data-uid="lnk30" id="link_UC5_UC7"><path d="M1068.61,209.49 C1077.97,238.2 1090.4799,276.5856 1098.2799,300.5056" fill="none" id="UC5-to-UC7" style="stroke:#181818;stroke-width:1;"/><polygon fill="#181818" points="1100.14,306.21,1101.1527,296.4133,1098.5899,301.4564,1093.5469,298.8935,1100.14,306.21" style="stroke:#181818;stroke-width:1;"/></g><!--link UC5 to UC10--><g class="link" data-entity-1="UC5" data-entity-2="UC10" data-source-line="34" data-uid="lnk31" id="link_UC5_UC10"><path d="M1010.87,207.34 C961.04,233.28 889.532,270.5194 840.512,296.0394" fill="none" id="UC5-to-UC10" style="stroke:#181818;stroke-width:1;"/><polygon fill="#181818" points="835.19,298.81,845.0201,298.202,839.625,296.5011,841.3259,291.106,835.19,298.81" style="stroke:#181818;stroke-width:1;"/></g><!--link UC5 to UC11--><g class="link" data-entity-1="UC5" data-entity-2="UC11" data-source-line="35" data-uid="lnk32" id="link_UC5_UC11"><path d="M1127,205.25 C1202.71,231.43 1319.2196,271.7289 1394.8296,297.8789" fill="none" id="UC5-to-UC11" style="stroke:#181818;stroke-width:1;"/><polygon fill="#181818" points="1400.5,299.84,1393.3018,293.118,1395.7746,298.2057,1390.6869,300.6786,1400.5,299.84" style="stroke:#181818;stroke-width:1;"/></g><!--link UC9 to UC5--><g class="link" data-entity-1="UC9" data-entity-2="UC5" data-source-line="37" data-uid="lnk33" id="link_UC9_UC5"><path d="M843,180.95 C870.71,180.95 895.28,180.95 924.5,180.95" fill="none" id="UC9-to-UC5" style="stroke:#181818;stroke-width:1;stroke-dasharray:7,7;"/><polygon fill="#181818" points="930.5,180.95,921.5,176.95,925.5,180.95,921.5,184.95,930.5,180.95" style="stroke:#181818;stroke-width:1;"/><text fill="#000000" font-family="sans-serif" font-size="13" lengthAdjust="spacing" textLength="52.0508" x="860.91" y="174.0169">extends</text></g><!--link MapProvider to UC6--><g class="link" data-entity-1="MapProvider" data-entity-2="UC6" data-source-line="39" data-uid="lnk34" id="link_MapProvider_UC6"><path d="M1783.38,219.39 C1780.24,247.15 1776.7678,277.7984 1774.3278,299.2584" fill="none" id="MapProvider-to-UC6" style="stroke:#181818;stroke-width:1;"/><polygon fill="#181818" points="1773.65,305.22,1778.6411,296.7295,1774.2149,300.252,1770.6924,295.8257,1773.65,305.22" style="stroke:#181818;stroke-width:1;"/></g><!--link MapProvider to UC7--><g class="link" data-entity-1="MapProvider" data-entity-2="UC7" data-source-line="40" data-uid="lnk35" id="link_MapProvider_UC7"><path d="M1689.47,214.34 C1683.46,216.03 1677.48,217.63 1671.63,219.1 C1491.39,264.31 1280.2066,297.8298 1174.9466,313.2598" fill="none" id="MapProvider-to-UC7" style="stroke:#181818;stroke-width:1;"/><polygon fill="#181818" points="1169.01,314.13,1178.495,316.7823,1173.9571,313.4048,1177.3347,308.8669,1169.01,314.13" style="stroke:#181818;stroke-width:1;"/></g><!--link MapProvider to UC11--><g class="link" data-entity-1="MapProvider" data-entity-2="UC11" data-source-line="41" data-uid="lnk36" id="link_MapProvider_UC11"><path d="M1702.3,219.58 C1645.46,244.64 1577.8997,274.4287 1528.5197,296.2087" fill="none" id="MapProvider-to-UC11" style="stroke:#181818;stroke-width:1;"/><polygon fill="#181818" points="1523.03,298.63,1532.8788,298.6578,1527.6048,296.6122,1529.6504,291.3382,1523.03,298.63" style="stroke:#181818;stroke-width:1;"/></g><!--link UC1 to UC10--><g class="link" data-entity-1="UC1" data-entity-2="UC10" data-source-line="43" data-uid="lnk37" id="link_UC1_UC10"><path d="M542.19,204.78 C596.15,230.67 678.3406,270.1241 733.2706,296.4841" fill="none" id="UC1-to-UC10" style="stroke:#181818;stroke-width:1;stroke-dasharray:7,7;"/><polygon fill="#181818" points="738.68,299.08,732.2965,291.5799,734.1722,296.9168,728.8353,298.7924,738.68,299.08" style="stroke:#181818;stroke-width:1;"/><text fill="#000000" font-family="sans-serif" font-size="13" lengthAdjust="spacing" textLength="52.0508" x="668.96" y="262.1669">extends</text></g><!--SRC=[TLFBRW8n3BpdAomELNkWPQ6yUgY4G73f0q7x0IOOY1eIb6HR-lSrooxP5Lq9YOmzCtRiBCfW7SnIya5WTcuiQAjy84Th6AS-s3sv1g2762_2XU8L3t03CxBQIWpA6fWx-wtMkP3J1HOYzIJH4pGc54W6Bk4ScG0lXVHsDb_UPRhFSHBfuvsr_7-XyOzzSruxyfQ4JkvWzGjZ5NuVHeum9tKYQKxEyrrWIPfxu8iMjZdriUItip_mngRikE0fOUhG15-jtotrYLgc6WF1X2kWaPHpUf6p8CEpEEdXGsdoEQCV6LEbUTA0PWrBwq9E64J2-u5CgH_WQQBIXTCm4cSE9MrI3LFKUeNowzGvZvWLHg4k1jsAYf6KxCaNu8LAkrPc2nlUCg_mgFOyqqAI296z6sWsdxDTbL6xWZeLrAsWGGKDXRX-PvSAjQbsVQfJdtgiJtNhKuFw57VFqXpqIkT-wSopBe7a91d2VLOKde2EWL-75wBqrLmChsFzVs9dp-JicRIYwHy0]--></g></svg>