<svg xmlns="http://www.w3.org/2000/svg" xmlns:xlink="http://www.w3.org/1999/xlink" contentStyleType="text/css" data-diagram-type="DESCRIPTION" height="603px" preserveAspectRatio="none" style="width:998px;height:603px;background:#FFFFFF;" version="1.1" viewBox="0 0 998 603" width="998px" zoomAndPan="magnify"><defs/><g><!--cluster Cloud System Architecture--><g class="cluster" data-entity="Cloud System Architecture" data-source-line="1" data-uid="ent0002" id="cluster_Cloud System Architecture"><path d="M37.09,6 L249.1838,6 A3.75,3.75 0 0 1 251.6838,8.5 L258.6838,28.2969 L989.09,28.2969 A2.5,2.5 0 0 1 991.59,30.7969 L991.59,593.98 A2.5,2.5 0 0 1 989.09,596.48 L37.09,596.48 A2.5,2.5 0 0 1 34.59,593.98 L34.59,8.5 A2.5,2.5 0 0 1 37.09,6" fill="none" style="stroke:#000000;stroke-width:1.5;"/><line style="stroke:#000000;stroke-width:1.5;" x1="34.59" x2="258.6838" y1="28.2969" y2="28.2969"/><text fill="#000000" font-family="sans-serif" font-size="14" font-weight="bold" lengthAdjust="spacing" textLength="211.0938" x="38.59" y="20.9951">Cloud System Architecture</text></g><!--entity DIS--><g class="entity" data-entity="DIS" data-source-line="3" data-uid="ent0003" id="entity_DIS"><rect fill="#F1F1F1" height="46.2969" rx="2.5" ry="2.5" style="stroke:#181818;stroke-width:0.5;" width="198.6826" x="87.25" y="287.59"/><rect fill="#F1F1F1" height="10" style="stroke:#181818;stroke-width:0.5;" width="15" x="265.9326" y="292.59"/><rect fill="#F1F1F1" height="2" style="stroke:#181818;stroke-width:0.5;" width="4" x="263.9326" y="294.59"/><rect fill="#F1F1F1" height="2" style="stroke:#181818;stroke-width:0.5;" width="4" x="263.9326" y="298.59"/><text fill="#000000" font-family="sans-serif" font-size="14" lengthAdjust="spacing" textLength="158.6826" x="102.25" y="320.5851">Data Ingestion Service</text></g><!--entity ETL--><g class="entity" data-entity="ETL" data-source-line="4" data-uid="ent0004" id="entity_ETL"><rect fill="#F1F1F1" height="46.2969" rx="2.5" ry="2.5" style="stroke:#181818;stroke-width:0.5;" width="123.3096" x="226.94" y="410.89"/><rect fill="#F1F1F1" height="10" style="stroke:#181818;stroke-width:0.5;" width="15" x="330.2496" y="415.89"/><rect fill="#F1F1F1" height="2" style="stroke:#181818;stroke-width:0.5;" width="4" x="328.2496" y="417.89"/><rect fill="#F1F1F1" height="2" style="stroke:#181818;stroke-width:0.5;" width="4" x="328.2496" y="421.89"/><text fill="#000000" font-family="sans-serif" font-size="14" lengthAdjust="spacing" textLength="83.3096" x="241.94" y="443.8851">ETL Process</text></g><!--entity CS--><g class="entity" data-entity="CS" data-source-line="5" data-uid="ent0005" id="entity_CS"><rect fill="#F1F1F1" height="46.2969" rx="2.5" ry="2.5" style="stroke:#181818;stroke-width:0.5;" width="139.2168" x="604.98" y="534.18"/><rect fill="#F1F1F1" height="10" style="stroke:#181818;stroke-width:0.5;" width="15" x="724.1968" y="539.18"/><rect fill="#F1F1F1" height="2" style="stroke:#181818;stroke-width:0.5;" width="4" x="722.1968" y="541.18"/><rect fill="#F1F1F1" height="2" style="stroke:#181818;stroke-width:0.5;" width="4" x="722.1968" y="545.18"/><text fill="#000000" font-family="sans-serif" font-size="14" lengthAdjust="spacing" textLength="99.2168" x="619.98" y="567.1751">Cloud Storage</text></g><!--entity SL--><g class="entity" data-entity="SL" data-source-line="6" data-uid="ent0006" id="entity_SL"><rect fill="#F1F1F1" height="46.2969" rx="2.5" ry="2.5" style="stroke:#181818;stroke-width:0.5;" width="140.9736" x="222.1" y="41"/><rect fill="#F1F1F1" height="10" style="stroke:#181818;stroke-width:0.5;" width="15" x="343.0736" y="46"/><rect fill="#F1F1F1" height="2" style="stroke:#181818;stroke-width:0.5;" width="4" x="341.0736" y="48"/><rect fill="#F1F1F1" height="2" style="stroke:#181818;stroke-width:0.5;" width="4" x="341.0736" y="52"/><text fill="#000000" font-family="sans-serif" font-size="14" lengthAdjust="spacing" textLength="100.9736" x="237.1" y="73.9951">Security Layer</text></g><!--entity AMM--><g class="entity" data-entity="AMM" data-source-line="7" data-uid="ent0007" id="entity_AMM"><rect fill="#F1F1F1" height="46.2969" rx="2.5" ry="2.5" style="stroke:#181818;stroke-width:0.5;" width="240.2041" x="375.49" y="164.29"/><rect fill="#F1F1F1" height="10" style="stroke:#181818;stroke-width:0.5;" width="15" x="595.6941" y="169.29"/><rect fill="#F1F1F1" height="2" style="stroke:#181818;stroke-width:0.5;" width="4" x="593.6941" y="171.29"/><rect fill="#F1F1F1" height="2" style="stroke:#181818;stroke-width:0.5;" width="4" x="593.6941" y="175.29"/><text fill="#000000" font-family="sans-serif" font-size="14" lengthAdjust="spacing" textLength="200.2041" x="390.49" y="197.2851">Access Management Module</text></g><g class="entity" data-entity="GMN17" data-source-line="21" data-uid="ent0018" id="entity_GMN17"><path d="M321.23,290.61 L321.23,306.74 L286.35,310.74 L321.23,314.74 L321.23,330.8756 A0,0 0 0 0 321.23,330.8756 L503.9556,330.8756 A0,0 0 0 0 503.9556,330.8756 L503.9556,300.61 L493.9556,290.61 L321.23,290.61 A0,0 0 0 0 321.23,290.61" fill="#FEFFDD" style="stroke:#181818;stroke-width:0.5;"/><path d="M493.9556,290.61 L493.9556,300.61 L503.9556,300.61 L493.9556,290.61" fill="#FEFFDD" style="stroke:#181818;stroke-width:0.5;"/><text fill="#000000" font-family="sans-serif" font-size="13" lengthAdjust="spacing" textLength="152.1279" x="327.23" y="307.6769">Scalable data ingestion</text><text fill="#000000" font-family="sans-serif" font-size="13" lengthAdjust="spacing" textLength="161.7256" x="327.23" y="322.8097">for dynamic market data</text></g><g class="entity" data-entity="GMN20" data-source-line="26" data-uid="ent0021" id="entity_GMN20"><path d="M384.97,413.9 L384.97,430.03 L350.74,434.03 L384.97,438.03 L384.97,454.1656 A0,0 0 0 0 384.97,454.1656 L536.2112,454.1656 A0,0 0 0 0 536.2112,454.1656 L536.2112,423.9 L526.2112,413.9 L384.97,413.9 A0,0 0 0 0 384.97,413.9" fill="#FEFFDD" style="stroke:#181818;stroke-width:0.5;"/><path d="M526.2112,413.9 L526.2112,423.9 L536.2112,423.9 L526.2112,413.9" fill="#FEFFDD" style="stroke:#181818;stroke-width:0.5;"/><text fill="#000000" font-family="sans-serif" font-size="13" lengthAdjust="spacing" textLength="114.5498" x="390.97" y="430.9669">ETL processes for</text><text fill="#000000" font-family="sans-serif" font-size="13" lengthAdjust="spacing" textLength="130.2412" x="390.97" y="446.0997">data transformation</text></g><g class="entity" data-entity="GMN23" data-source-line="31" data-uid="ent0024" id="entity_GMN23"><path d="M779.26,537.2 L779.26,553.33 L744.36,557.33 L779.26,561.33 L779.26,577.4656 A0,0 0 0 0 779.26,577.4656 L947.9192,577.4656 A0,0 0 0 0 947.9192,577.4656 L947.9192,547.2 L937.9192,537.2 L779.26,537.2 A0,0 0 0 0 779.26,537.2" fill="#FEFFDD" style="stroke:#181818;stroke-width:0.5;"/><path d="M937.9192,537.2 L937.9192,547.2 L947.9192,547.2 L937.9192,537.2" fill="#FEFFDD" style="stroke:#181818;stroke-width:0.5;"/><text fill="#000000" font-family="sans-serif" font-size="13" lengthAdjust="spacing" textLength="147.6592" x="785.26" y="554.2669">Scalable cloud storage</text><text fill="#000000" font-family="sans-serif" font-size="13" lengthAdjust="spacing" textLength="115.2354" x="785.26" y="569.3997">for large datasets</text></g><g class="entity" data-entity="GMN26" data-source-line="36" data-uid="ent0027" id="entity_GMN26"><path d="M398.22,44.01 L398.22,60.14 L363.46,64.14 L398.22,68.14 L398.22,84.2756 A0,0 0 0 0 398.22,84.2756 L540.9554,84.2756 A0,0 0 0 0 540.9554,84.2756 L540.9554,54.01 L530.9554,44.01 L398.22,44.01 A0,0 0 0 0 398.22,44.01" fill="#FEFFDD" style="stroke:#181818;stroke-width:0.5;"/><path d="M530.9554,44.01 L530.9554,54.01 L540.9554,54.01 L530.9554,44.01" fill="#FEFFDD" style="stroke:#181818;stroke-width:0.5;"/><text fill="#000000" font-family="sans-serif" font-size="13" lengthAdjust="spacing" textLength="121.7354" x="404.22" y="61.0769">Ensures encrypted</text><text fill="#000000" font-family="sans-serif" font-size="13" lengthAdjust="spacing" textLength="116.4604" x="404.22" y="76.2097">data transmission</text></g><g class="entity" data-entity="GMN29" data-source-line="41" data-uid="ent0030" id="entity_GMN29"><path d="M650.67,167.31 L650.67,183.44 L615.84,187.44 L650.67,191.44 L650.67,207.5756 A0,0 0 0 0 650.67,207.5756 L810.5059,207.5756 A0,0 0 0 0 810.5059,207.5756 L810.5059,177.31 L800.5059,167.31 L650.67,167.31 A0,0 0 0 0 650.67,167.31" fill="#FEFFDD" style="stroke:#181818;stroke-width:0.5;"/><path d="M800.5059,167.31 L800.5059,177.31 L810.5059,177.31 L800.5059,167.31" fill="#FEFFDD" style="stroke:#181818;stroke-width:0.5;"/><text fill="#000000" font-family="sans-serif" font-size="13" lengthAdjust="spacing" textLength="138.8359" x="656.67" y="184.3769">Manages user access</text><text fill="#000000" font-family="sans-serif" font-size="13" lengthAdjust="spacing" textLength="106.5835" x="656.67" y="199.5097">and permissions</text></g><!--link DIS to ETL--><g class="link" data-entity-1="DIS" data-entity-2="ETL" data-source-line="9" data-uid="lnk8" id="link_DIS_ETL"><path d="M205.54,334.27 C223.86,356.06 247.5973,384.2887 265.8873,406.0287" fill="none" id="DIS-to-ETL" style="stroke:#181818;stroke-width:1;"/><polygon fill="#181818" points="269.75,410.62,267.0168,401.158,266.5311,406.7939,260.8951,406.3082,269.75,410.62" style="stroke:#181818;stroke-width:1;"/><text fill="#000000" font-family="sans-serif" font-size="13" lengthAdjust="spacing" textLength="138.4678" x="244.7" y="376.9569">Secure Data Transfer</text></g><!--link ETL to CS--><g class="link" data-entity-1="ETL" data-entity-2="CS" data-source-line="10" data-uid="lnk9" id="link_ETL_CS"><path d="M350.4,454.61 C394.26,468.48 454.52,487.52 507.59,504.18 C539.47,514.19 569.052,523.4438 598.972,532.7738" fill="none" id="ETL-to-CS" style="stroke:#181818;stroke-width:1;"/><polygon fill="#181818" points="604.7,534.56,597.2988,528.0621,599.9267,533.0715,594.9173,535.6994,604.7,534.56" style="stroke:#181818;stroke-width:1;"/><text fill="#000000" font-family="sans-serif" font-size="13" lengthAdjust="spacing" textLength="156.4063" x="508.59" y="500.2469">Encrypted Data Storage</text></g><!--reverse link SL to DIS--><g class="link" data-entity-1="SL" data-entity-2="DIS" data-source-line="11" data-uid="lnk10" id="link_SL_DIS"><path d="M275.4507,92.8536 C263.6307,112.5336 249.98,136.98 238.59,164.29 C221.93,204.25 225.9,217.09 210.59,257.59 C206.85,267.47 202.1,278.11 197.81,287.19" fill="none" id="SL-backto-DIS" style="stroke:#181818;stroke-width:1;stroke-dasharray:7,7;"/><polygon fill="#181818" points="278.54,87.71,270.477,93.3658,275.9656,91.9963,277.3351,97.4849,278.54,87.71" style="stroke:#181818;stroke-width:1;"/><text fill="#000000" font-family="sans-serif" font-size="13" lengthAdjust="spacing" textLength="117.1904" x="239.59" y="192.0069">Security Protocols</text></g><!--reverse link SL to ETL--><g class="link" data-entity-1="SL" data-entity-2="ETL" data-source-line="12" data-uid="lnk11" id="link_SL_ETL"><path d="M242.5572,90.6131 C160.6772,135.0731 6,235.3 69.59,333.89 C103.97,387.2 174.73,412.16 226.55,423.64" fill="none" id="SL-backto-ETL" style="stroke:#181818;stroke-width:1;stroke-dasharray:7,7;"/><polygon fill="#181818" points="247.83,87.75,238.012,88.5294,243.436,90.1359,241.8295,95.5599,247.83,87.75" style="stroke:#181818;stroke-width:1;"/><text fill="#000000" font-family="sans-serif" font-size="13" lengthAdjust="spacing" textLength="117.1904" x="67.68" y="253.6569">Security Protocols</text></g><!--reverse link SL to CS--><g class="link" data-entity-1="SL" data-entity-2="CS" data-source-line="13" data-uid="lnk12" id="link_SL_CS"><path d="M369.4129,84.864 C375.1529,86.204 375.04,86.12 380.59,87.29 C486.3,109.67 856.59,78.39 856.59,186.44 C856.59,186.44 856.59,186.44 856.59,435.03 C856.59,491.14 795.97,522.89 744.7,539.7" fill="none" id="SL-backto-CS" style="stroke:#181818;stroke-width:1;stroke-dasharray:7,7;"/><polygon fill="#181818" points="363.57,83.5,371.425,89.4413,368.4391,84.6367,373.2437,81.6508,363.57,83.5" style="stroke:#181818;stroke-width:1;"/><text fill="#000000" font-family="sans-serif" font-size="13" lengthAdjust="spacing" textLength="117.1904" x="857.59" y="315.3069">Security Protocols</text></g><!--reverse link SL to AMM--><g class="link" data-entity-1="SL" data-entity-2="AMM" data-source-line="14" data-uid="lnk13" id="link_SL_AMM"><path d="M335.4502,90.7482 C371.7902,112.4682 421.35,142.08 457.74,163.83" fill="none" id="SL-backto-AMM" style="stroke:#181818;stroke-width:1;stroke-dasharray:7,7;"/><polygon fill="#181818" points="330.3,87.67,335.9732,95.7208,334.5918,90.2352,340.0774,88.8539,330.3,87.67" style="stroke:#181818;stroke-width:1;"/><text fill="#000000" font-family="sans-serif" font-size="13" lengthAdjust="spacing" textLength="117.1904" x="407.24" y="130.3569">Security Protocols</text></g><!--link AMM to DIS--><g class="link" data-entity-1="AMM" data-entity-2="DIS" data-source-line="16" data-uid="lnk14" id="link_AMM_DIS"><path d="M438.19,210.97 C382.87,232.69 305.1853,263.1882 249.7853,284.9282" fill="none" id="AMM-to-DIS" style="stroke:#181818;stroke-width:1;"/><polygon fill="#181818" points="244.2,287.12,254.0392,287.5559,248.8545,285.2935,251.1168,280.1087,244.2,287.12" style="stroke:#181818;stroke-width:1;"/><text fill="#000000" font-family="sans-serif" font-size="13" lengthAdjust="spacing" textLength="174.2939" x="360.59" y="253.6569">Centralized Access Control</text></g><!--link AMM to ETL--><g class="link" data-entity-1="AMM" data-entity-2="ETL" data-source-line="17" data-uid="lnk15" id="link_AMM_ETL"><path d="M523.12,210.93 C531.31,219.29 539.25,229.47 543.59,240.59 C555.02,269.9 543.57,309.05 521.59,333.89 C498.02,360.51 416.9084,391.1617 356.1884,411.5317" fill="none" id="AMM-to-ETL" style="stroke:#181818;stroke-width:1;"/><polygon fill="#181818" points="350.5,413.44,360.3049,414.3698,355.2404,411.8497,357.7604,406.7852,350.5,413.44" style="stroke:#181818;stroke-width:1;"/><text fill="#000000" font-family="sans-serif" font-size="13" lengthAdjust="spacing" textLength="174.2939" x="546.39" y="315.3069">Centralized Access Control</text></g><!--link AMM to CS--><g class="link" data-entity-1="AMM" data-entity-2="CS" data-source-line="18" data-uid="lnk16" id="link_AMM_CS"><path d="M616.16,210.61 C659.42,225.01 703.82,248.69 729.59,287.59 C740.95,304.74 740.29,316.31 729.59,333.89 C714.5,358.68 686.68,339.09 671.59,363.89 C662.97,378.05 669.0964,479.965 672.4764,527.725" fill="none" id="AMM-to-CS" style="stroke:#181818;stroke-width:1;"/><polygon fill="#181818" points="672.9,533.71,676.2547,524.4501,672.547,528.7225,668.2746,525.0148,672.9,533.71" style="stroke:#181818;stroke-width:1;"/><text fill="#000000" font-family="sans-serif" font-size="13" lengthAdjust="spacing" textLength="174.2939" x="672.59" y="376.9569">Centralized Access Control</text></g><!--SRC=[ZPBTQiCm34RlznIYz-q3Z34eQIyABGpI5z0SjJLDx20vWspitIV_R6kxTHta9jRnfsDRFPeZxWacLUk71kfH0dKmPtEmWKmOc2RmTWUWd_5Txnsv09C51eILsvC4wntKn2_MA8a2YrLzpYwtQtXYRqWa0Vf_3fJEmREA9AIwYAZ936p326iSYHDINuJCJMm06tGQqiMbZM-6DkVDDvixnLKDfjF7Q03ta489qb6sZ4vsn0h5OeIgMfcbCppsWPgC5KUbwZKyp6OfiIH5FJrcyCQtyasSzBf2LBSYrFvtGf5OYxPPfD9pCxRsLONBXLHUbtnxWcQZVw7LZL15dGy4RFU707vN7b_D3RRut18qyThivw2asiupDAF3pXhea8yK4gKrSatA-vcRPoO_JfzdYIGcfTNK9AGdzDnXwNGzhRgGD6a0vUjnisEBlCy740hoPs1Tx9peH8c2PMekx3ehSiijZchSbGTPO11Ym7JjQHrrPqzSeiwqtZy0]--></g></svg>