<svg xmlns="http://www.w3.org/2000/svg" xmlns:xlink="http://www.w3.org/1999/xlink" contentStyleType="text/css" data-diagram-type="SEQUENCE" height="561px" preserveAspectRatio="none" style="width:621px;height:561px;background:#FFFFFF;" version="1.1" viewBox="0 0 621 561" width="621px" zoomAndPan="magnify"><defs/><g><rect fill="none" height="265" style="stroke:#000000;stroke-width:1.5;" width="498.7256" x="116.2437" y="169.5625"/><g><title>Caller</title><rect fill="#000000" fill-opacity="0.00000" height="399.3984" width="8" x="24.2515" y="81.2969"/><line style="stroke:#181818;stroke-width:0.5;stroke-dasharray:5,5;" x1="28" x2="28" y1="81.2969" y2="480.6953"/></g><g><title>IVR System</title><rect fill="#000000" fill-opacity="0.00000" height="399.3984" width="8" x="169.2886" y="81.2969"/><line style="stroke:#181818;stroke-width:0.5;stroke-dasharray:5,5;" x1="173.2437" x2="173.2437" y1="81.2969" y2="480.6953"/></g><g><title>Customer Database</title><rect fill="#000000" fill-opacity="0.00000" height="399.3984" width="8" x="379.6875" y="81.2969"/><line style="stroke:#181818;stroke-width:0.5;stroke-dasharray:5,5;" x1="383.0601" x2="383.0601" y1="81.2969" y2="480.6953"/></g><g><title>Ticketing System</title><rect fill="#000000" fill-opacity="0.00000" height="399.3984" width="8" x="533.6421" y="81.2969"/><line style="stroke:#181818;stroke-width:0.5;stroke-dasharray:5,5;" x1="537.3149" x2="537.3149" y1="81.2969" y2="480.6953"/></g><g class="participant participant-head" data-participant="Caller"><text fill="#000000" font-family="sans-serif" font-size="14" lengthAdjust="spacing" textLength="40.5029" x="5" y="77.9951">Caller</text><ellipse cx="28.2515" cy="13.5" fill="#E2E2F0" rx="8" ry="8" style="stroke:#181818;stroke-width:0.5;"/><path d="M28.2515,21.5 L28.2515,48.5 M15.2515,29.5 L41.2515,29.5 M28.2515,48.5 L15.2515,63.5 M28.2515,48.5 L41.2515,63.5" fill="none" style="stroke:#181818;stroke-width:0.5;"/></g><g class="participant participant-tail" data-participant="Caller"><text fill="#000000" font-family="sans-serif" font-size="14" lengthAdjust="spacing" textLength="40.5029" x="5" y="492.6904">Caller</text><ellipse cx="28.2515" cy="504.4922" fill="#E2E2F0" rx="8" ry="8" style="stroke:#181818;stroke-width:0.5;"/><path d="M28.2515,512.4922 L28.2515,539.4922 M15.2515,520.4922 L41.2515,520.4922 M28.2515,539.4922 L15.2515,554.4922 M28.2515,539.4922 L41.2515,554.4922" fill="none" style="stroke:#181818;stroke-width:0.5;"/></g><g class="participant participant-head" data-participant="IVR"><rect fill="#E2E2F0" height="30.2969" rx="2.5" ry="2.5" style="stroke:#181818;stroke-width:0.5;" width="94.0898" x="126.2437" y="50"/><text fill="#000000" font-family="sans-serif" font-size="14" lengthAdjust="spacing" textLength="80.0898" x="133.2437" y="69.9951">IVR System</text></g><g class="participant participant-tail" data-participant="IVR"><rect fill="#E2E2F0" height="30.2969" rx="2.5" ry="2.5" style="stroke:#181818;stroke-width:0.5;" width="94.0898" x="126.2437" y="479.6953"/><text fill="#000000" font-family="sans-serif" font-size="14" lengthAdjust="spacing" textLength="80.0898" x="133.2437" y="499.6904">IVR System</text></g><g class="participant participant-head" data-participant="DB"><rect fill="#E2E2F0" height="30.2969" rx="2.5" ry="2.5" style="stroke:#181818;stroke-width:0.5;" width="153.2549" x="307.0601" y="50"/><text fill="#000000" font-family="sans-serif" font-size="14" lengthAdjust="spacing" textLength="139.2549" x="314.0601" y="69.9951">Customer Database</text></g><g class="participant participant-tail" data-participant="DB"><rect fill="#E2E2F0" height="30.2969" rx="2.5" ry="2.5" style="stroke:#181818;stroke-width:0.5;" width="153.2549" x="307.0601" y="479.6953"/><text fill="#000000" font-family="sans-serif" font-size="14" lengthAdjust="spacing" textLength="139.2549" x="314.0601" y="499.6904">Customer Database</text></g><g class="participant participant-head" data-participant="Ticketing"><rect fill="#E2E2F0" height="30.2969" rx="2.5" ry="2.5" style="stroke:#181818;stroke-width:0.5;" width="134.6543" x="470.3149" y="50"/><text fill="#000000" font-family="sans-serif" font-size="14" lengthAdjust="spacing" textLength="120.6543" x="477.3149" y="69.9951">Ticketing System</text></g><g class="participant participant-tail" data-participant="Ticketing"><rect fill="#E2E2F0" height="30.2969" rx="2.5" ry="2.5" style="stroke:#181818;stroke-width:0.5;" width="134.6543" x="470.3149" y="479.6953"/><text fill="#000000" font-family="sans-serif" font-size="14" lengthAdjust="spacing" textLength="120.6543" x="477.3149" y="499.6904">Ticketing System</text></g><g class="message" data-participant-1="Caller" data-participant-2="IVR"><polygon fill="#181818" points="161.2886,108.4297,171.2886,112.4297,161.2886,116.4297,165.2886,112.4297" style="stroke:#181818;stroke-width:1;"/><line style="stroke:#181818;stroke-width:1;" x1="28.2515" x2="167.2886" y1="112.4297" y2="112.4297"/><text fill="#000000" font-family="sans-serif" font-size="13" lengthAdjust="spacing" textLength="81.8848" x="35.2515" y="107.3638">Call initiated</text></g><g class="message" data-participant-1="IVR" data-participant-2="IVR"><line style="stroke:#181818;stroke-width:1;" x1="173.2886" x2="215.2886" y1="141.5625" y2="141.5625"/><line style="stroke:#181818;stroke-width:1;" x1="215.2886" x2="215.2886" y1="141.5625" y2="154.5625"/><line style="stroke:#181818;stroke-width:1;" x1="174.2886" x2="215.2886" y1="154.5625" y2="154.5625"/><polygon fill="#181818" points="184.2886,150.5625,174.2886,154.5625,184.2886,158.5625,180.2886,154.5625" style="stroke:#181818;stroke-width:1;"/><text fill="#000000" font-family="sans-serif" font-size="13" lengthAdjust="spacing" textLength="99.709" x="180.2886" y="136.4966">Check Caller ID</text></g><path d="M116.2437,169.5625 L180.6865,169.5625 L180.6865,176.6953 L170.6865,186.6953 L116.2437,186.6953 L116.2437,169.5625" fill="#EEEEEE" style="stroke:#000000;stroke-width:1.5;"/><rect fill="none" height="265" style="stroke:#000000;stroke-width:1.5;" width="498.7256" x="116.2437" y="169.5625"/><text fill="#000000" font-family="sans-serif" font-size="13" font-weight="bold" lengthAdjust="spacing" textLength="19.4429" x="131.2437" y="182.6294">alt</text><text fill="#000000" font-family="sans-serif" font-size="11" font-weight="bold" lengthAdjust="spacing" textLength="135.0347" x="195.6865" y="181.7729">[Caller ID recognized]</text><g class="message" data-participant-1="IVR" data-participant-2="DB"><polygon fill="#181818" points="371.6875,203.8281,381.6875,207.8281,371.6875,211.8281,375.6875,207.8281" style="stroke:#181818;stroke-width:1;"/><line style="stroke:#181818;stroke-width:1;" x1="173.2886" x2="377.6875" y1="207.8281" y2="207.8281"/><text fill="#000000" font-family="sans-serif" font-size="13" lengthAdjust="spacing" textLength="186.3989" x="180.2886" y="202.7622">Query Customer Information</text></g><g class="message" data-participant-1="DB" data-participant-2="IVR"><polygon fill="#181818" points="184.2886,232.9609,174.2886,236.9609,184.2886,240.9609,180.2886,236.9609" style="stroke:#181818;stroke-width:1;"/><line style="stroke:#181818;stroke-width:1;stroke-dasharray:2,2;" x1="178.2886" x2="382.6875" y1="236.9609" y2="236.9609"/><text fill="#000000" font-family="sans-serif" font-size="13" lengthAdjust="spacing" textLength="112.3472" x="190.2886" y="231.895">Customer Details</text></g><g class="message" data-participant-1="IVR" data-participant-2="Ticketing"><polygon fill="#181818" points="525.6421,262.0938,535.6421,266.0938,525.6421,270.0938,529.6421,266.0938" style="stroke:#181818;stroke-width:1;"/><line style="stroke:#181818;stroke-width:1;" x1="173.2886" x2="531.6421" y1="266.0938" y2="266.0938"/><text fill="#000000" font-family="sans-serif" font-size="13" lengthAdjust="spacing" textLength="86.9375" x="180.2886" y="261.0278">Create Ticket</text></g><g class="message" data-participant-1="Ticketing" data-participant-2="IVR"><polygon fill="#181818" points="184.2886,291.2266,174.2886,295.2266,184.2886,299.2266,180.2886,295.2266" style="stroke:#181818;stroke-width:1;"/><line style="stroke:#181818;stroke-width:1;stroke-dasharray:2,2;" x1="178.2886" x2="536.6421" y1="295.2266" y2="295.2266"/><text fill="#000000" font-family="sans-serif" font-size="13" lengthAdjust="spacing" textLength="95.1895" x="190.2886" y="290.1606">Ticket Created</text></g><g class="message" data-participant-1="IVR" data-participant-2="Ticketing"><polygon fill="#181818" points="525.6421,320.3594,535.6421,324.3594,525.6421,328.3594,529.6421,324.3594" style="stroke:#181818;stroke-width:1;"/><line style="stroke:#181818;stroke-width:1;" x1="173.2886" x2="531.6421" y1="324.3594" y2="324.3594"/><text fill="#000000" font-family="sans-serif" font-size="13" lengthAdjust="spacing" textLength="101.0483" x="180.2886" y="319.2935">Log Call Details</text></g><g class="message" data-participant-1="Ticketing" data-participant-2="IVR"><polygon fill="#181818" points="184.2886,349.4922,174.2886,353.4922,184.2886,357.4922,180.2886,353.4922" style="stroke:#181818;stroke-width:1;"/><line style="stroke:#181818;stroke-width:1;stroke-dasharray:2,2;" x1="178.2886" x2="536.6421" y1="353.4922" y2="353.4922"/><text fill="#000000" font-family="sans-serif" font-size="13" lengthAdjust="spacing" textLength="125.5503" x="190.2886" y="348.4263">Call Details Logged</text></g><line style="stroke:#000000;stroke-width:1;stroke-dasharray:2,2;" x1="116.2437" x2="614.9692" y1="362.4922" y2="362.4922"/><text fill="#000000" font-family="sans-serif" font-size="11" font-weight="bold" lengthAdjust="spacing" textLength="159.5107" x="121.2437" y="372.7026">[Caller ID not recognized]</text><g class="message" data-participant-1="IVR" data-participant-2="Ticketing"><polygon fill="#181818" points="525.6421,393.4297,535.6421,397.4297,525.6421,401.4297,529.6421,397.4297" style="stroke:#181818;stroke-width:1;"/><line style="stroke:#181818;stroke-width:1;" x1="173.2886" x2="531.6421" y1="397.4297" y2="397.4297"/><text fill="#000000" font-family="sans-serif" font-size="13" lengthAdjust="spacing" textLength="135.1987" x="180.2886" y="392.3638">Log Call as Unknown</text></g><g class="message" data-participant-1="Ticketing" data-participant-2="IVR"><polygon fill="#181818" points="184.2886,422.5625,174.2886,426.5625,184.2886,430.5625,180.2886,426.5625" style="stroke:#181818;stroke-width:1;"/><line style="stroke:#181818;stroke-width:1;stroke-dasharray:2,2;" x1="178.2886" x2="536.6421" y1="426.5625" y2="426.5625"/><text fill="#000000" font-family="sans-serif" font-size="13" lengthAdjust="spacing" textLength="76.3496" x="190.2886" y="421.4966">Call Logged</text></g><g class="message" data-participant-1="IVR" data-participant-2="Caller"><polygon fill="#181818" points="39.2515,458.6953,29.2515,462.6953,39.2515,466.6953,35.2515,462.6953" style="stroke:#181818;stroke-width:1;"/><line style="stroke:#181818;stroke-width:1;" x1="33.2515" x2="172.2886" y1="462.6953" y2="462.6953"/><text fill="#000000" font-family="sans-serif" font-size="13" lengthAdjust="spacing" textLength="121.0371" x="45.2515" y="457.6294">Update Call Status</text></g><!--SRC=[VP4nRiCm34LtdOB8dWjuwE1eCT2bJTETbLbNi4qP4eqYFNrasL4K8AasKO__Vr9en7auu32GLnDwiSPEo0AxvlCTZkSWDEu00yJh_VjX3k96yg1Hy0i39KpNzzI7DJs9vQxKoaMbLcVOlom6LGe2bgrO56hLaY4__P3fjwJGQ8M3t6xWoRYExLziWdYsHbrNy3QJFqDEs_2tyoEATPn8NSC-M-IHID0EePJAcIFcAQRRAecvJPcrrjB6ja-KNbstZbmQFX0hcQMfYueq12eMm4wUBE6HN_o44_ViVlbVowiLvwzO3IiuJUsoWqGT1MKE5m00]--></g></svg>