<svg xmlns="http://www.w3.org/2000/svg" xmlns:xlink="http://www.w3.org/1999/xlink" contentStyleType="text/css" data-diagram-type="ACTIVITY" height="352px" preserveAspectRatio="none" style="width:169px;height:352px;background:#FFFFFF;" version="1.1" viewBox="0 0 169 352" width="169px" zoomAndPan="magnify"><defs/><g><ellipse cx="84.6885" cy="20" fill="#222222" rx="10" ry="10" style="stroke:#222222;stroke-width:1;"/><rect fill="#F1F1F1" height="33.9688" rx="12.5" ry="12.5" style="stroke:#181818;stroke-width:0.5;" width="137.2344" x="16.0713" y="50"/><text fill="#000000" font-family="sans-serif" font-size="12" lengthAdjust="spacing" textLength="117.2344" x="26.0713" y="71.1387">User selects corpus</text><rect fill="#F1F1F1" height="33.9688" rx="12.5" ry="12.5" style="stroke:#181818;stroke-width:0.5;" width="144.3125" x="12.5322" y="103.9688"/><text fill="#000000" font-family="sans-serif" font-size="12" lengthAdjust="spacing" textLength="124.3125" x="22.5322" y="125.1074">Entity Extractor runs</text><rect fill="#F1F1F1" height="33.9688" rx="12.5" ry="12.5" style="stroke:#181818;stroke-width:0.5;" width="142.9414" x="13.2178" y="157.9375"/><text fill="#000000" font-family="sans-serif" font-size="12" lengthAdjust="spacing" textLength="122.9414" x="23.2178" y="179.0762">Topic Model clusters</text><rect fill="#F1F1F1" height="33.9688" rx="12.5" ry="12.5" style="stroke:#181818;stroke-width:0.5;" width="101.6563" x="33.8604" y="211.9063"/><text fill="#000000" font-family="sans-serif" font-size="12" lengthAdjust="spacing" textLength="81.6563" x="43.8604" y="233.0449">System ranks</text><rect fill="#F1F1F1" height="33.9688" rx="12.5" ry="12.5" style="stroke:#181818;stroke-width:0.5;" width="147.377" x="11" y="265.875"/><text fill="#000000" font-family="sans-serif" font-size="12" lengthAdjust="spacing" textLength="127.377" x="21" y="287.0137">Dashboard visualizes</text><ellipse cx="84.6885" cy="330.8438" fill="none" rx="11" ry="11" style="stroke:#222222;stroke-width:1;"/><ellipse cx="84.6885" cy="330.8438" fill="#222222" rx="6" ry="6" style="stroke:#222222;stroke-width:1;"/><line style="stroke:#181818;stroke-width:1;" x1="84.6885" x2="84.6885" y1="30" y2="50"/><polygon fill="#181818" points="80.6885,40,84.6885,50,88.6885,40,84.6885,44" style="stroke:#181818;stroke-width:1;"/><line style="stroke:#181818;stroke-width:1;" x1="84.6885" x2="84.6885" y1="83.9688" y2="103.9688"/><polygon fill="#181818" points="80.6885,93.9688,84.6885,103.9688,88.6885,93.9688,84.6885,97.9688" style="stroke:#181818;stroke-width:1;"/><line style="stroke:#181818;stroke-width:1;" x1="84.6885" x2="84.6885" y1="137.9375" y2="157.9375"/><polygon fill="#181818" points="80.6885,147.9375,84.6885,157.9375,88.6885,147.9375,84.6885,151.9375" style="stroke:#181818;stroke-width:1;"/><line style="stroke:#181818;stroke-width:1;" x1="84.6885" x2="84.6885" y1="191.9063" y2="211.9063"/><polygon fill="#181818" points="80.6885,201.9063,84.6885,211.9063,88.6885,201.9063,84.6885,205.9063" style="stroke:#181818;stroke-width:1;"/><line style="stroke:#181818;stroke-width:1;" x1="84.6885" x2="84.6885" y1="245.875" y2="265.875"/><polygon fill="#181818" points="80.6885,255.875,84.6885,265.875,88.6885,255.875,84.6885,259.875" style="stroke:#181818;stroke-width:1;"/><line style="stroke:#181818;stroke-width:1;" x1="84.6885" x2="84.6885" y1="299.8438" y2="319.8438"/><polygon fill="#181818" points="80.6885,309.8438,84.6885,319.8438,88.6885,309.8438,84.6885,313.8438" style="stroke:#181818;stroke-width:1;"/><!--SRC=[DSan3i8m34RXFQVm1RX0aPZeo0GSmBYMY1hYoB-3AAUd0ndV-n3iaT9qXpf1Yqg0nBnr7DFXjCjS8yT6yoUS9Sp9UnrsivQ5BhPe8IaTeJxekktr8kUwZdLcF1_6lj0xetF9N_qJmjeF]--></g></svg>