<svg xmlns="http://www.w3.org/2000/svg" xmlns:xlink="http://www.w3.org/1999/xlink" contentStyleType="text/css" data-diagram-type="ACTIVITY" height="308px" preserveAspectRatio="none" style="width:330px;height:308px;background:#FFFFFF;" version="1.1" viewBox="0 0 330 308" width="330px" zoomAndPan="magnify"><defs/><g><ellipse cx="142.7246" cy="20" fill="#222222" rx="10" ry="10" style="stroke:#222222;stroke-width:1;"/><rect fill="#F1F1F1" height="33.9688" rx="12.5" ry="12.5" style="stroke:#181818;stroke-width:0.5;" width="131.0938" x="77.1777" y="50"/><text fill="#000000" font-family="sans-serif" font-size="12" lengthAdjust="spacing" textLength="111.0938" x="87.1777" y="71.1387">Access Login Page</text><rect fill="#F1F1F1" height="33.9688" rx="12.5" ry="12.5" style="stroke:#181818;stroke-width:0.5;" width="124.3027" x="80.5732" y="103.9688"/><text fill="#000000" font-family="sans-serif" font-size="12" lengthAdjust="spacing" textLength="104.3027" x="90.5732" y="125.1074">Enter Credentials</text><polygon fill="#F1F1F1" points="92.0913,157.9375,193.3579,157.9375,205.3579,169.9375,193.3579,181.9375,92.0913,181.9375,80.0913,169.9375,92.0913,157.9375" style="stroke:#181818;stroke-width:0.5;"/><text fill="#000000" font-family="sans-serif" font-size="11" lengthAdjust="spacing" textLength="101.2666" x="92.0913" y="173.7456">System Validates?</text><text fill="#000000" font-family="sans-serif" font-size="11" lengthAdjust="spacing" textLength="19.0083" x="61.083" y="167.3433">yes</text><text fill="#000000" font-family="sans-serif" font-size="11" lengthAdjust="spacing" textLength="13.7017" x="205.3579" y="167.3433">no</text><rect fill="#F1F1F1" height="33.9688" rx="12.5" ry="12.5" style="stroke:#181818;stroke-width:0.5;" width="99.002" x="11" y="191.9375"/><text fill="#000000" font-family="sans-serif" font-size="12" lengthAdjust="spacing" textLength="79.002" x="21" y="213.0762">Grant Access</text><rect fill="#F1F1F1" height="33.9688" rx="12.5" ry="12.5" style="stroke:#181818;stroke-width:0.5;" width="189.8926" x="130.002" y="191.9375"/><text fill="#000000" font-family="sans-serif" font-size="12" lengthAdjust="spacing" textLength="169.8926" x="140.002" y="213.0762">Request Password Recovery</text><polygon fill="#F1F1F1" points="142.7246,231.9063,154.7246,243.9063,142.7246,255.9063,130.7246,243.9063,142.7246,231.9063" style="stroke:#181818;stroke-width:0.5;"/><ellipse cx="142.7246" cy="286.9063" fill="none" rx="11" ry="11" style="stroke:#222222;stroke-width:1;"/><ellipse cx="142.7246" cy="286.9063" fill="#222222" rx="6" ry="6" style="stroke:#222222;stroke-width:1;"/><line style="stroke:#181818;stroke-width:1;" x1="142.7246" x2="142.7246" y1="30" y2="50"/><polygon fill="#181818" points="138.7246,40,142.7246,50,146.7246,40,142.7246,44" style="stroke:#181818;stroke-width:1;"/><line style="stroke:#181818;stroke-width:1;" x1="142.7246" x2="142.7246" y1="83.9688" y2="103.9688"/><polygon fill="#181818" points="138.7246,93.9688,142.7246,103.9688,146.7246,93.9688,142.7246,97.9688" style="stroke:#181818;stroke-width:1;"/><line style="stroke:#181818;stroke-width:1;" x1="80.0913" x2="60.501" y1="169.9375" y2="169.9375"/><line style="stroke:#181818;stroke-width:1;" x1="60.501" x2="60.501" y1="169.9375" y2="191.9375"/><polygon fill="#181818" points="56.501,181.9375,60.501,191.9375,64.501,181.9375,60.501,185.9375" style="stroke:#181818;stroke-width:1;"/><line style="stroke:#181818;stroke-width:1;" x1="205.3579" x2="224.9482" y1="169.9375" y2="169.9375"/><line style="stroke:#181818;stroke-width:1;" x1="224.9482" x2="224.9482" y1="169.9375" y2="191.9375"/><polygon fill="#181818" points="220.9482,181.9375,224.9482,191.9375,228.9482,181.9375,224.9482,185.9375" style="stroke:#181818;stroke-width:1;"/><line style="stroke:#181818;stroke-width:1;" x1="60.501" x2="60.501" y1="225.9063" y2="243.9063"/><line style="stroke:#181818;stroke-width:1;" x1="60.501" x2="130.7246" y1="243.9063" y2="243.9063"/><polygon fill="#181818" points="120.7246,239.9063,130.7246,243.9063,120.7246,247.9063,124.7246,243.9063" style="stroke:#181818;stroke-width:1;"/><line style="stroke:#181818;stroke-width:1;" x1="224.9482" x2="224.9482" y1="225.9063" y2="243.9063"/><line style="stroke:#181818;stroke-width:1;" x1="224.9482" x2="154.7246" y1="243.9063" y2="243.9063"/><polygon fill="#181818" points="164.7246,239.9063,154.7246,243.9063,164.7246,247.9063,160.7246,243.9063" style="stroke:#181818;stroke-width:1;"/><line style="stroke:#181818;stroke-width:1;" x1="142.7246" x2="142.7246" y1="137.9375" y2="157.9375"/><polygon fill="#181818" points="138.7246,147.9375,142.7246,157.9375,146.7246,147.9375,142.7246,151.9375" style="stroke:#181818;stroke-width:1;"/><line style="stroke:#181818;stroke-width:1;" x1="142.7246" x2="142.7246" y1="255.9063" y2="275.9063"/><polygon fill="#181818" points="138.7246,265.9063,142.7246,275.9063,146.7246,265.9063,142.7246,269.9063" style="stroke:#181818;stroke-width:1;"/><!--SRC=[9Osn2W8n40Nx_OejxtuXAKH4R2paXEj3ykuCn8rcLoL_xw7r33DgeHcHsyS8LJxNDGjVmWfFxYY6neU61B4SYdgYlF1mxMguynnAJi6Wkv7j1k6XGqTYTgSMnFYVz8IYu47g3qrulg2sBLG_jIMU4EiRhM-UfBmGgTN75m00]--></g></svg>