<svg xmlns="http://www.w3.org/2000/svg" xmlns:xlink="http://www.w3.org/1999/xlink" contentStyleType="text/css" data-diagram-type="SEQUENCE" height="298px" preserveAspectRatio="none" style="width:489px;height:298px;background:#FFFFFF;" version="1.1" viewBox="0 0 489 298" width="489px" zoomAndPan="magnify"><defs/><g><g><title>User</title><rect fill="#000000" fill-opacity="0.00000" height="136.5313" width="8" x="19.9551" y="81.2969"/><line style="stroke:#181818;stroke-width:0.5;stroke-dasharray:5,5;" x1="23" x2="23" y1="81.2969" y2="217.8281"/></g><g><title>Intelligence Data</title><rect fill="#000000" fill-opacity="0.00000" height="136.5313" width="8" x="132.5176" y="81.2969"/><line style="stroke:#181818;stroke-width:0.5;stroke-dasharray:5,5;" x1="135.8501" x2="135.8501" y1="81.2969" y2="217.8281"/></g><g><title>Analytics</title><rect fill="#000000" fill-opacity="0.00000" height="136.5313" width="8" x="247.9722" y="81.2969"/><line style="stroke:#181818;stroke-width:0.5;stroke-dasharray:5,5;" x1="251.1851" x2="251.1851" y1="81.2969" y2="217.8281"/></g><g><title>Strategic Decision</title><rect fill="#000000" fill-opacity="0.00000" height="136.5313" width="8" x="408.8911" y="81.2969"/><line style="stroke:#181818;stroke-width:0.5;stroke-dasharray:5,5;" x1="412.2212" x2="412.2212" y1="81.2969" y2="217.8281"/></g><g class="participant participant-head" data-participant="User"><text fill="#000000" font-family="sans-serif" font-size="14" lengthAdjust="spacing" textLength="31.9102" x="5" y="77.9951">User</text><ellipse cx="23.9551" cy="13.5" fill="#E2E2F0" rx="8" ry="8" style="stroke:#181818;stroke-width:0.5;"/><path d="M23.9551,21.5 L23.9551,48.5 M10.9551,29.5 L36.9551,29.5 M23.9551,48.5 L10.9551,63.5 M23.9551,48.5 L36.9551,63.5" fill="none" style="stroke:#181818;stroke-width:0.5;"/></g><g class="participant participant-tail" data-participant="User"><text fill="#000000" font-family="sans-serif" font-size="14" lengthAdjust="spacing" textLength="31.9102" x="5" y="229.8232">User</text><ellipse cx="23.9551" cy="241.625" fill="#E2E2F0" rx="8" ry="8" style="stroke:#181818;stroke-width:0.5;"/><path d="M23.9551,249.625 L23.9551,276.625 M10.9551,257.625 L36.9551,257.625 M23.9551,276.625 L10.9551,291.625 M23.9551,276.625 L36.9551,291.625" fill="none" style="stroke:#181818;stroke-width:0.5;"/></g><g class="participant participant-head" data-participant="ID"><rect fill="#E2E2F0" height="30.2969" rx="2.5" ry="2.5" style="stroke:#181818;stroke-width:0.5;" width="133.335" x="69.8501" y="50"/><text fill="#000000" font-family="sans-serif" font-size="14" lengthAdjust="spacing" textLength="119.335" x="76.8501" y="69.9951">Intelligence Data</text></g><g class="participant participant-tail" data-participant="ID"><rect fill="#E2E2F0" height="30.2969" rx="2.5" ry="2.5" style="stroke:#181818;stroke-width:0.5;" width="133.335" x="69.8501" y="216.8281"/><text fill="#000000" font-family="sans-serif" font-size="14" lengthAdjust="spacing" textLength="119.335" x="76.8501" y="236.8232">Intelligence Data</text></g><g class="participant participant-head" data-participant="A"><rect fill="#E2E2F0" height="30.2969" rx="2.5" ry="2.5" style="stroke:#181818;stroke-width:0.5;" width="77.5742" x="213.1851" y="50"/><text fill="#000000" font-family="sans-serif" font-size="14" lengthAdjust="spacing" textLength="63.5742" x="220.1851" y="69.9951">Analytics</text></g><g class="participant participant-tail" data-participant="A"><rect fill="#E2E2F0" height="30.2969" rx="2.5" ry="2.5" style="stroke:#181818;stroke-width:0.5;" width="77.5742" x="213.1851" y="216.8281"/><text fill="#000000" font-family="sans-serif" font-size="14" lengthAdjust="spacing" textLength="63.5742" x="220.1851" y="236.8232">Analytics</text></g><g class="participant participant-head" data-participant="SD"><rect fill="#E2E2F0" height="30.2969" rx="2.5" ry="2.5" style="stroke:#181818;stroke-width:0.5;" width="141.3398" x="342.2212" y="50"/><text fill="#000000" font-family="sans-serif" font-size="14" lengthAdjust="spacing" textLength="127.3398" x="349.2212" y="69.9951">Strategic Decision</text></g><g class="participant participant-tail" data-participant="SD"><rect fill="#E2E2F0" height="30.2969" rx="2.5" ry="2.5" style="stroke:#181818;stroke-width:0.5;" width="141.3398" x="342.2212" y="216.8281"/><text fill="#000000" font-family="sans-serif" font-size="14" lengthAdjust="spacing" textLength="127.3398" x="349.2212" y="236.8232">Strategic Decision</text></g><g class="message" data-participant-1="User" data-participant-2="ID"><polygon fill="#181818" points="124.5176,108.4297,134.5176,112.4297,124.5176,116.4297,128.5176,112.4297" style="stroke:#181818;stroke-width:1;"/><line style="stroke:#181818;stroke-width:1;" x1="23.9551" x2="130.5176" y1="112.4297" y2="112.4297"/><text fill="#000000" font-family="sans-serif" font-size="13" lengthAdjust="spacing" textLength="88.5625" x="30.9551" y="107.3638">Request Data</text></g><g class="message" data-participant-1="ID" data-participant-2="A"><polygon fill="#181818" points="239.9722,137.5625,249.9722,141.5625,239.9722,145.5625,243.9722,141.5625" style="stroke:#181818;stroke-width:1;"/><line style="stroke:#181818;stroke-width:1;" x1="136.5176" x2="245.9722" y1="141.5625" y2="141.5625"/><text fill="#000000" font-family="sans-serif" font-size="13" lengthAdjust="spacing" textLength="67.9136" x="143.5176" y="136.4966">Send Data</text></g><g class="message" data-participant-1="A" data-participant-2="SD"><polygon fill="#181818" points="400.8911,166.6953,410.8911,170.6953,400.8911,174.6953,404.8911,170.6953" style="stroke:#181818;stroke-width:1;"/><line style="stroke:#181818;stroke-width:1;" x1="251.9722" x2="406.8911" y1="170.6953" y2="170.6953"/><text fill="#000000" font-family="sans-serif" font-size="13" lengthAdjust="spacing" textLength="136.9189" x="258.9722" y="165.6294">Analyze and Forward</text></g><g class="message" data-participant-1="SD" data-participant-2="User"><polygon fill="#181818" points="34.9551,195.8281,24.9551,199.8281,34.9551,203.8281,30.9551,199.8281" style="stroke:#181818;stroke-width:1;"/><line style="stroke:#181818;stroke-width:1;" x1="28.9551" x2="411.8911" y1="199.8281" y2="199.8281"/><text fill="#000000" font-family="sans-serif" font-size="13" lengthAdjust="spacing" textLength="108.1704" x="40.9551" y="194.7622">Provide Decision</text></g><!--SRC=[LOr12i8m44NtESNGlHV8GWW4eJinU80X7Sf0IEfaLEhfJI88NVx_7_zXr29mhoHcGr6El65McEQib1Alb2E1HyK9iCBiZvJBcFOMwrZTSGmggBHo14-HAvSygE2DwJuudTkVXHizdbHrICpiU-qi1ChBhtAz2GqSiWy1jkLIv8soc33uVcVXAkN52_rjNm00]--></g></svg>