<svg xmlns="http://www.w3.org/2000/svg" xmlns:xlink="http://www.w3.org/1999/xlink" contentStyleType="text/css" data-diagram-type="ACTIVITY" height="571px" preserveAspectRatio="none" style="width:468px;height:571px;background:#FFFFFF;" version="1.1" viewBox="0 0 468 571" width="468px" zoomAndPan="magnify"><defs/><g><ellipse cx="180.8123" cy="20" fill="#222222" rx="10" ry="10" style="stroke:#222222;stroke-width:1;"/><rect fill="#F1F1F1" height="33.9688" rx="12.5" ry="12.5" style="stroke:#181818;stroke-width:0.5;" width="147.6934" x="106.9656" y="50"/><text fill="#000000" font-family="sans-serif" font-size="12" lengthAdjust="spacing" textLength="127.6934" x="116.9656" y="71.1387">User Accesses Profile</text><polygon fill="#F1F1F1" points="133.5601,103.9688,228.0645,103.9688,240.0645,115.9688,228.0645,127.9688,133.5601,127.9688,121.5601,115.9688,133.5601,103.9688" style="stroke:#181818;stroke-width:0.5;"/><text fill="#000000" font-family="sans-serif" font-size="11" lengthAdjust="spacing" textLength="94.5044" x="133.5601" y="119.7769">Edit Information?</text><text fill="#000000" font-family="sans-serif" font-size="11" lengthAdjust="spacing" textLength="19.0083" x="102.5518" y="113.3745">yes</text><text fill="#000000" font-family="sans-serif" font-size="11" lengthAdjust="spacing" textLength="13.7017" x="240.0645" y="113.3745">no</text><rect fill="#F1F1F1" height="33.9688" rx="12.5" ry="12.5" style="stroke:#181818;stroke-width:0.5;" width="116.7266" x="11" y="137.9688"/><text fill="#000000" font-family="sans-serif" font-size="12" lengthAdjust="spacing" textLength="96.7266" x="21" y="159.1074">Edit Information</text><polygon fill="#F1F1F1" points="244.4155,137.9688,340.1069,137.9688,352.1069,149.9688,340.1069,161.9688,244.4155,161.9688,232.4155,149.9688,244.4155,137.9688" style="stroke:#181818;stroke-width:0.5;"/><text fill="#000000" font-family="sans-serif" font-size="11" lengthAdjust="spacing" textLength="95.6914" x="244.4155" y="153.7769">Change Address?</text><text fill="#000000" font-family="sans-serif" font-size="11" lengthAdjust="spacing" textLength="19.0083" x="213.4072" y="147.3745">yes</text><text fill="#000000" font-family="sans-serif" font-size="11" lengthAdjust="spacing" textLength="13.7017" x="352.1069" y="147.3745">no</text><rect fill="#F1F1F1" height="33.9688" rx="12.5" ry="12.5" style="stroke:#181818;stroke-width:0.5;" width="118.0215" x="157.7266" y="171.9688"/><text fill="#000000" font-family="sans-serif" font-size="12" lengthAdjust="spacing" textLength="98.0215" x="167.7266" y="193.1074">Change Address</text><rect fill="#F1F1F1" height="33.9688" rx="12.5" ry="12.5" style="stroke:#181818;stroke-width:0.5;" width="124.0742" x="305.748" y="220.3711"/><text fill="#000000" font-family="sans-serif" font-size="12" lengthAdjust="spacing" textLength="104.0742" x="315.748" y="241.5098">Update Password</text><polygon fill="#F1F1F1" points="317.1653,171.9688,418.405,171.9688,430.405,183.9688,418.405,195.9688,317.1653,195.9688,305.1653,183.9688,317.1653,171.9688" style="stroke:#181818;stroke-width:0.5;"/><text fill="#000000" font-family="sans-serif" font-size="11" lengthAdjust="spacing" textLength="19.0083" x="371.7852" y="206.1792">yes</text><text fill="#000000" font-family="sans-serif" font-size="11" lengthAdjust="spacing" textLength="101.2397" x="317.1653" y="187.7769">Update Password?</text><polygon fill="#F1F1F1" points="367.7852,274.3398,379.7852,286.3398,367.7852,298.3398,355.7852,286.3398,367.7852,274.3398" style="stroke:#181818;stroke-width:0.5;"/><polygon fill="#F1F1F1" points="292.2612,304.3398,304.2612,316.3398,292.2612,328.3398,280.2612,316.3398,292.2612,304.3398" style="stroke:#181818;stroke-width:0.5;"/><polygon fill="#F1F1F1" points="180.8123,334.3398,192.8123,346.3398,180.8123,358.3398,168.8123,346.3398,180.8123,334.3398" style="stroke:#181818;stroke-width:0.5;"/><rect fill="#F1F1F1" height="33.9688" rx="12.5" ry="12.5" style="stroke:#181818;stroke-width:0.5;" width="118.5781" x="121.5232" y="378.3398"/><text fill="#000000" font-family="sans-serif" font-size="12" lengthAdjust="spacing" textLength="98.5781" x="131.5232" y="399.4785">Submit Changes</text><rect fill="#F1F1F1" height="33.9688" rx="12.5" ry="12.5" style="stroke:#181818;stroke-width:0.5;" width="186.3359" x="87.6443" y="432.3086"/><text fill="#000000" font-family="sans-serif" font-size="12" lengthAdjust="spacing" textLength="166.3359" x="97.6443" y="453.4473">Backend Updates Database</text><rect fill="#F1F1F1" height="33.9688" rx="12.5" ry="12.5" style="stroke:#181818;stroke-width:0.5;" width="189.2598" x="86.1824" y="486.2773"/><text fill="#000000" font-family="sans-serif" font-size="12" lengthAdjust="spacing" textLength="169.2598" x="96.1824" y="507.416">Return Confirmation to User</text><ellipse cx="180.8123" cy="550.2461" fill="none" rx="10" ry="10" style="stroke:#222222;stroke-width:1.5;"/><line style="stroke:#222222;stroke-width:2.5;" x1="174.6251" x2="186.9994" y1="544.0589" y2="556.4333"/><line style="stroke:#222222;stroke-width:2.5;" x1="186.9994" x2="174.6251" y1="544.0589" y2="556.4333"/><line style="stroke:#181818;stroke-width:1;" x1="180.8123" x2="180.8123" y1="30" y2="50"/><polygon fill="#181818" points="176.8123,40,180.8123,50,184.8123,40,180.8123,44" style="stroke:#181818;stroke-width:1;"/><line style="stroke:#181818;stroke-width:1;" x1="367.7852" x2="367.7852" y1="195.9688" y2="220.3711"/><polygon fill="#181818" points="363.7852,210.3711,367.7852,220.3711,371.7852,210.3711,367.7852,214.3711" style="stroke:#181818;stroke-width:1;"/><line style="stroke:#181818;stroke-width:1;" x1="430.405" x2="442.405" y1="183.9688" y2="183.9688"/><polygon fill="#181818" points="438.405,227.3555,442.405,237.3555,446.405,227.3555,442.405,231.3555" style="stroke:#181818;stroke-width:1;"/><line style="stroke:#181818;stroke-width:1;" x1="442.405" x2="442.405" y1="183.9688" y2="286.3398"/><line style="stroke:#181818;stroke-width:1;" x1="442.405" x2="379.7852" y1="286.3398" y2="286.3398"/><polygon fill="#181818" points="389.7852,282.3398,379.7852,286.3398,389.7852,290.3398,385.7852,286.3398" style="stroke:#181818;stroke-width:1;"/><line style="stroke:#181818;stroke-width:1;" x1="367.7852" x2="367.7852" y1="254.3398" y2="274.3398"/><polygon fill="#181818" points="363.7852,264.3398,367.7852,274.3398,371.7852,264.3398,367.7852,268.3398" style="stroke:#181818;stroke-width:1;"/><line style="stroke:#181818;stroke-width:1;" x1="232.4155" x2="216.7373" y1="149.9688" y2="149.9688"/><line style="stroke:#181818;stroke-width:1;" x1="216.7373" x2="216.7373" y1="149.9688" y2="171.9688"/><polygon fill="#181818" points="212.7373,161.9688,216.7373,171.9688,220.7373,161.9688,216.7373,165.9688" style="stroke:#181818;stroke-width:1;"/><line style="stroke:#181818;stroke-width:1;" x1="352.1069" x2="367.7852" y1="149.9688" y2="149.9688"/><line style="stroke:#181818;stroke-width:1;" x1="367.7852" x2="367.7852" y1="149.9688" y2="171.9688"/><polygon fill="#181818" points="363.7852,161.9688,367.7852,171.9688,371.7852,161.9688,367.7852,165.9688" style="stroke:#181818;stroke-width:1;"/><line style="stroke:#181818;stroke-width:1;" x1="216.7373" x2="216.7373" y1="205.9375" y2="316.3398"/><line style="stroke:#181818;stroke-width:1;" x1="216.7373" x2="280.2612" y1="316.3398" y2="316.3398"/><polygon fill="#181818" points="270.2612,312.3398,280.2612,316.3398,270.2612,320.3398,274.2612,316.3398" style="stroke:#181818;stroke-width:1;"/><line style="stroke:#181818;stroke-width:1;" x1="367.7852" x2="367.7852" y1="298.3398" y2="316.3398"/><line style="stroke:#181818;stroke-width:1;" x1="367.7852" x2="304.2612" y1="316.3398" y2="316.3398"/><polygon fill="#181818" points="314.2612,312.3398,304.2612,316.3398,314.2612,320.3398,310.2612,316.3398" style="stroke:#181818;stroke-width:1;"/><line style="stroke:#181818;stroke-width:1;" x1="121.5601" x2="69.3633" y1="115.9688" y2="115.9688"/><line style="stroke:#181818;stroke-width:1;" x1="69.3633" x2="69.3633" y1="115.9688" y2="137.9688"/><polygon fill="#181818" points="65.3633,127.9688,69.3633,137.9688,73.3633,127.9688,69.3633,131.9688" style="stroke:#181818;stroke-width:1;"/><line style="stroke:#181818;stroke-width:1;" x1="240.0645" x2="292.2612" y1="115.9688" y2="115.9688"/><line style="stroke:#181818;stroke-width:1;" x1="292.2612" x2="292.2612" y1="115.9688" y2="137.9688"/><polygon fill="#181818" points="288.2612,127.9688,292.2612,137.9688,296.2612,127.9688,292.2612,131.9688" style="stroke:#181818;stroke-width:1;"/><line style="stroke:#181818;stroke-width:1;" x1="69.3633" x2="69.3633" y1="171.9375" y2="346.3398"/><line style="stroke:#181818;stroke-width:1;" x1="69.3633" x2="168.8123" y1="346.3398" y2="346.3398"/><polygon fill="#181818" points="158.8123,342.3398,168.8123,346.3398,158.8123,350.3398,162.8123,346.3398" style="stroke:#181818;stroke-width:1;"/><line style="stroke:#181818;stroke-width:1;" x1="292.2612" x2="292.2612" y1="328.3398" y2="346.3398"/><line style="stroke:#181818;stroke-width:1;" x1="292.2612" x2="192.8123" y1="346.3398" y2="346.3398"/><polygon fill="#181818" points="202.8123,342.3398,192.8123,346.3398,202.8123,350.3398,198.8123,346.3398" style="stroke:#181818;stroke-width:1;"/><line style="stroke:#181818;stroke-width:1;" x1="180.8123" x2="180.8123" y1="83.9688" y2="103.9688"/><polygon fill="#181818" points="176.8123,93.9688,180.8123,103.9688,184.8123,93.9688,180.8123,97.9688" style="stroke:#181818;stroke-width:1;"/><line style="stroke:#181818;stroke-width:1;" x1="180.8123" x2="180.8123" y1="358.3398" y2="378.3398"/><polygon fill="#181818" points="176.8123,368.3398,180.8123,378.3398,184.8123,368.3398,180.8123,372.3398" style="stroke:#181818;stroke-width:1;"/><line style="stroke:#181818;stroke-width:1;" x1="180.8123" x2="180.8123" y1="412.3086" y2="432.3086"/><polygon fill="#181818" points="176.8123,422.3086,180.8123,432.3086,184.8123,422.3086,180.8123,426.3086" style="stroke:#181818;stroke-width:1;"/><line style="stroke:#181818;stroke-width:1;" x1="180.8123" x2="180.8123" y1="466.2773" y2="486.2773"/><polygon fill="#181818" points="176.8123,476.2773,180.8123,486.2773,184.8123,476.2773,180.8123,480.2773" style="stroke:#181818;stroke-width:1;"/><line style="stroke:#181818;stroke-width:1;" x1="180.8123" x2="180.8123" y1="520.2461" y2="540.2461"/><polygon fill="#181818" points="176.8123,530.2461,180.8123,540.2461,184.8123,530.2461,180.8123,534.2461" style="stroke:#181818;stroke-width:1;"/><!--SRC=[PP0z3i8m38NtdC9ZUuLqGELdO4CW3k0s3aIq2OgD4BV79I11MMB9VlcU_LWmYp7so9IXxNjY9ePTJZuCr1WJF5GR5mIsqQSyeeGK5pN8cI9K3-BQ0DYve34qC44LqpIU4AipnXD1wrnMXpb04R-2HflVY08vNXqAmGwPxocxVufoPfhcrQVeWZUVMbvZ3xTkrBsBirhQ9VON7K9XCAnHi4FM6EoUv9OZh5BquNqaI88fDGr9Fpq1]--></g></svg>