<svg xmlns="http://www.w3.org/2000/svg" xmlns:xlink="http://www.w3.org/1999/xlink" contentStyleType="text/css" data-diagram-type="SEQUENCE" height="311px" preserveAspectRatio="none" style="width:347px;height:311px;background:#FFFFFF;" version="1.1" viewBox="0 0 347 311" width="347px" zoomAndPan="magnify"><defs/><g><g><title>FinancialData</title><rect fill="#000000" fill-opacity="0.00000" height="149.5313" width="8" x="51.8755" y="81.2969"/><line style="stroke:#181818;stroke-width:0.5;stroke-dasharray:5,5;" x1="55" x2="55" y1="81.2969" y2="230.8281"/></g><g><title>AnalysisSystem</title><rect fill="#000000" fill-opacity="0.00000" height="149.5313" width="8" x="174.6948" y="81.2969"/><line style="stroke:#181818;stroke-width:0.5;stroke-dasharray:5,5;" x1="177.751" x2="177.751" y1="81.2969" y2="230.8281"/></g><g><title>Reports</title><rect fill="#000000" fill-opacity="0.00000" height="149.5313" width="8" x="303.5327" y="81.2969"/><line style="stroke:#181818;stroke-width:0.5;stroke-dasharray:5,5;" x1="307.3667" x2="307.3667" y1="81.2969" y2="230.8281"/></g><g class="participant participant-head" data-participant="FinancialData"><text fill="#000000" font-family="sans-serif" font-size="14" lengthAdjust="spacing" textLength="95.751" x="5" y="77.9951">FinancialData</text><ellipse cx="55.8755" cy="13.5" fill="#E2E2F0" rx="8" ry="8" style="stroke:#181818;stroke-width:0.5;"/><path d="M55.8755,21.5 L55.8755,48.5 M42.8755,29.5 L68.8755,29.5 M55.8755,48.5 L42.8755,63.5 M55.8755,48.5 L68.8755,63.5" fill="none" style="stroke:#181818;stroke-width:0.5;"/></g><g class="participant participant-tail" data-participant="FinancialData"><text fill="#000000" font-family="sans-serif" font-size="14" lengthAdjust="spacing" textLength="95.751" x="5" y="242.8232">FinancialData</text><ellipse cx="55.8755" cy="254.625" fill="#E2E2F0" rx="8" ry="8" style="stroke:#181818;stroke-width:0.5;"/><path d="M55.8755,262.625 L55.8755,289.625 M42.8755,270.625 L68.8755,270.625 M55.8755,289.625 L42.8755,304.625 M55.8755,289.625 L68.8755,304.625" fill="none" style="stroke:#181818;stroke-width:0.5;"/></g><g class="participant participant-head" data-participant="AnalysisSystem"><rect fill="#E2E2F0" height="30.2969" rx="2.5" ry="2.5" style="stroke:#181818;stroke-width:0.5;" width="123.8877" x="116.751" y="50"/><text fill="#000000" font-family="sans-serif" font-size="14" lengthAdjust="spacing" textLength="109.8877" x="123.751" y="69.9951">AnalysisSystem</text></g><g class="participant participant-tail" data-participant="AnalysisSystem"><rect fill="#E2E2F0" height="30.2969" rx="2.5" ry="2.5" style="stroke:#181818;stroke-width:0.5;" width="123.8877" x="116.751" y="229.8281"/><text fill="#000000" font-family="sans-serif" font-size="14" lengthAdjust="spacing" textLength="109.8877" x="123.751" y="249.8232">AnalysisSystem</text></g><g class="participant participant-head" data-participant="Reports"><rect fill="#E2E2F0" height="30.2969" rx="2.5" ry="2.5" style="stroke:#181818;stroke-width:0.5;" width="68.332" x="273.3667" y="50"/><text fill="#000000" font-family="sans-serif" font-size="14" lengthAdjust="spacing" textLength="54.332" x="280.3667" y="69.9951">Reports</text></g><g class="participant participant-tail" data-participant="Reports"><rect fill="#E2E2F0" height="30.2969" rx="2.5" ry="2.5" style="stroke:#181818;stroke-width:0.5;" width="68.332" x="273.3667" y="229.8281"/><text fill="#000000" font-family="sans-serif" font-size="14" lengthAdjust="spacing" textLength="54.332" x="280.3667" y="249.8232">Reports</text></g><g class="message" data-participant-1="FinancialData" data-participant-2="AnalysisSystem"><polygon fill="#181818" points="166.6948,108.4297,176.6948,112.4297,166.6948,116.4297,170.6948,112.4297" style="stroke:#181818;stroke-width:1;"/><line style="stroke:#181818;stroke-width:1;" x1="55.8755" x2="172.6948" y1="112.4297" y2="112.4297"/><text fill="#000000" font-family="sans-serif" font-size="13" lengthAdjust="spacing" textLength="66.1553" x="62.8755" y="107.3638">Send data</text></g><g class="message" data-participant-1="AnalysisSystem" data-participant-2="AnalysisSystem"><line style="stroke:#181818;stroke-width:1;" x1="178.6948" x2="220.6948" y1="141.5625" y2="141.5625"/><line style="stroke:#181818;stroke-width:1;" x1="220.6948" x2="220.6948" y1="141.5625" y2="154.5625"/><line style="stroke:#181818;stroke-width:1;" x1="179.6948" x2="220.6948" y1="154.5625" y2="154.5625"/><polygon fill="#181818" points="189.6948,150.5625,179.6948,154.5625,189.6948,158.5625,185.6948,154.5625" style="stroke:#181818;stroke-width:1;"/><text fill="#000000" font-family="sans-serif" font-size="13" lengthAdjust="spacing" textLength="83.2432" x="185.6948" y="136.4966">Process data</text></g><g class="message" data-participant-1="AnalysisSystem" data-participant-2="Reports"><polygon fill="#181818" points="295.5327,179.6953,305.5327,183.6953,295.5327,187.6953,299.5327,183.6953" style="stroke:#181818;stroke-width:1;"/><line style="stroke:#181818;stroke-width:1;" x1="178.6948" x2="301.5327" y1="183.6953" y2="183.6953"/><text fill="#000000" font-family="sans-serif" font-size="13" lengthAdjust="spacing" textLength="104.8379" x="185.6948" y="178.6294">Generate report</text></g><g class="message" data-participant-1="Reports" data-participant-2="FinancialData"><polygon fill="#181818" points="66.8755,208.8281,56.8755,212.8281,66.8755,216.8281,62.8755,212.8281" style="stroke:#181818;stroke-width:1;"/><line style="stroke:#181818;stroke-width:1;" x1="60.8755" x2="306.5327" y1="212.8281" y2="212.8281"/><text fill="#000000" font-family="sans-serif" font-size="13" lengthAdjust="spacing" textLength="76.8638" x="72.8755" y="207.7622">Send report</text></g><!--SRC=[TOun2iD030JxUuK-u0-u20HCt9hu1SjPXS3H7P8Q_zuuN7CcQJMpkqAEOlGIXMR1FY6GAYmaIuK6FHNxuUBhuS6V3hsv5WjFgKlJyBY5HbfPDzgkwfxySXShcTt_wMrqf9cL3S5atqjgu7AwVzfwiqu0]--></g></svg>