<svg xmlns="http://www.w3.org/2000/svg" xmlns:xlink="http://www.w3.org/1999/xlink" contentStyleType="text/css" data-diagram-type="DESCRIPTION" height="184px" preserveAspectRatio="none" style="width:265px;height:184px;background:#FFFFFF;" version="1.1" viewBox="0 0 265 184" width="265px" zoomAndPan="magnify"><defs/><g><!--entity User--><g class="entity" data-entity="User" data-source-line="1" data-uid="ent0002" id="entity_User"><ellipse cx="157.5551" cy="14" fill="#F1F1F1" rx="8" ry="8" style="stroke:#181818;stroke-width:0.5;"/><path d="M157.5551,22 L157.5551,49 M144.5551,30 L170.5551,30 M157.5551,49 L144.5551,64 M157.5551,49 L170.5551,64" fill="none" style="stroke:#181818;stroke-width:0.5;"/><text fill="#000000" font-family="sans-serif" font-size="14" lengthAdjust="spacing" textLength="31.9102" x="141.6" y="78.4951">User</text></g><!--entity UC_Register--><g class="entity" data-entity="UC_Register" data-source-line="3" data-uid="ent0003" id="entity_UC_Register"><ellipse cx="85.5507" cy="160.1101" fill="#F1F1F1" rx="79.5507" ry="18.3101" style="stroke:#181818;stroke-width:0.5;"/><text fill="#000000" font-family="sans-serif" font-size="14" lengthAdjust="spacing" textLength="129.6162" x="20.7426" y="164.7586">Register New User</text></g><!--entity UC_Login--><g class="entity" data-entity="UC_Login" data-source-line="4" data-uid="ent0004" id="entity_UC_Login"><ellipse cx="229.5504" cy="160.1136" fill="#F1F1F1" rx="29.8804" ry="14.5236" style="stroke:#181818;stroke-width:0.5;"/><text fill="#000000" font-family="sans-serif" font-size="14" lengthAdjust="spacing" textLength="38.0146" x="210.5431" y="164.7621">Login</text></g><!--link User to UC_Register--><g class="link" data-entity-1="User" data-entity-2="UC_Register" data-source-line="6" data-uid="lnk5" id="link_User_UC_Register"><path d="M141.21,70.62 C127.52,92.39 111.5557,117.7818 99.6557,136.6918" fill="none" id="User-to-UC_Register" style="stroke:#181818;stroke-width:1;"/><polygon fill="#181818" points="96.46,141.77,104.6389,136.2832,99.1231,137.5382,97.8681,132.0223,96.46,141.77" style="stroke:#181818;stroke-width:1;"/></g><!--link User to UC_Login--><g class="link" data-entity-1="User" data-entity-2="UC_Login" data-source-line="7" data-uid="lnk6" id="link_User_UC_Login"><path d="M173.89,70.62 C188.58,93.97 206.3644,122.2518 217.9244,140.6218" fill="none" id="User-to-UC_Login" style="stroke:#181818;stroke-width:1;"/><polygon fill="#181818" points="221.12,145.7,219.712,135.9523,218.457,141.4682,212.9411,140.2131,221.12,145.7" style="stroke:#181818;stroke-width:1;"/></g><!--SRC=[IqmkoIzI22rEBUBYAYrEJKuiJbLG2afDpomkIIrIy4ij1yifAIGMAuGwnyCa44fzyjCpys3IO0uN5qY7Wgwk7OeEP46mEW00]--></g></svg>