<svg xmlns="http://www.w3.org/2000/svg" xmlns:xlink="http://www.w3.org/1999/xlink" contentStyleType="text/css" data-diagram-type="SEQUENCE" height="340px" preserveAspectRatio="none" style="width:554px;height:340px;background:#FFFFFF;" version="1.1" viewBox="0 0 554 340" width="554px" zoomAndPan="magnify"><defs/><g><g><title>Customer</title><rect fill="#000000" fill-opacity="0.00000" height="178.6641" width="8" x="38.002" y="81.2969"/><line style="stroke:#181818;stroke-width:0.5;stroke-dasharray:5,5;" x1="42" x2="42" y1="81.2969" y2="259.9609"/></g><g><title>Complaints Department</title><rect fill="#000000" fill-opacity="0.00000" height="178.6641" width="8" x="178.7227" y="81.2969"/><line style="stroke:#181818;stroke-width:0.5;stroke-dasharray:5,5;" x1="182.6987" x2="182.6987" y1="81.2969" y2="259.9609"/></g><g><title>Analysis Team</title><rect fill="#000000" fill-opacity="0.00000" height="178.6641" width="8" x="337.5034" y="81.2969"/><line style="stroke:#181818;stroke-width:0.5;stroke-dasharray:5,5;" x1="340.7466" x2="340.7466" y1="81.2969" y2="259.9609"/></g><g><title>Reporting System</title><rect fill="#000000" fill-opacity="0.00000" height="178.6641" width="8" x="474.9321" y="81.2969"/><line style="stroke:#181818;stroke-width:0.5;stroke-dasharray:5,5;" x1="478.2603" x2="478.2603" y1="81.2969" y2="259.9609"/></g><g class="participant participant-head" data-participant="Customer"><text fill="#000000" font-family="sans-serif" font-size="14" lengthAdjust="spacing" textLength="68.0039" x="5" y="77.9951">Customer</text><ellipse cx="42.002" cy="13.5" fill="#E2E2F0" rx="8" ry="8" style="stroke:#181818;stroke-width:0.5;"/><path d="M42.002,21.5 L42.002,48.5 M29.002,29.5 L55.002,29.5 M42.002,48.5 L29.002,63.5 M42.002,48.5 L55.002,63.5" fill="none" style="stroke:#181818;stroke-width:0.5;"/></g><g class="participant participant-tail" data-participant="Customer"><text fill="#000000" font-family="sans-serif" font-size="14" lengthAdjust="spacing" textLength="68.0039" x="5" y="271.9561">Customer</text><ellipse cx="42.002" cy="283.7578" fill="#E2E2F0" rx="8" ry="8" style="stroke:#181818;stroke-width:0.5;"/><path d="M42.002,291.7578 L42.002,318.7578 M29.002,299.7578 L55.002,299.7578 M42.002,318.7578 L29.002,333.7578 M42.002,318.7578 L55.002,333.7578" fill="none" style="stroke:#181818;stroke-width:0.5;"/></g><g class="participant participant-head" data-participant="Complaints"><rect fill="#E2E2F0" height="30.2969" rx="2.5" ry="2.5" style="stroke:#181818;stroke-width:0.5;" width="182.0479" x="91.6987" y="50"/><text fill="#000000" font-family="sans-serif" font-size="14" lengthAdjust="spacing" textLength="168.0479" x="98.6987" y="69.9951">Complaints Department</text></g><g class="participant participant-tail" data-participant="Complaints"><rect fill="#E2E2F0" height="30.2969" rx="2.5" ry="2.5" style="stroke:#181818;stroke-width:0.5;" width="182.0479" x="91.6987" y="258.9609"/><text fill="#000000" font-family="sans-serif" font-size="14" lengthAdjust="spacing" textLength="168.0479" x="98.6987" y="278.9561">Complaints Department</text></g><g class="participant participant-head" data-participant="Analysis"><rect fill="#E2E2F0" height="30.2969" rx="2.5" ry="2.5" style="stroke:#181818;stroke-width:0.5;" width="115.5137" x="283.7466" y="50"/><text fill="#000000" font-family="sans-serif" font-size="14" lengthAdjust="spacing" textLength="101.5137" x="290.7466" y="69.9951">Analysis Team</text></g><g class="participant participant-tail" data-participant="Analysis"><rect fill="#E2E2F0" height="30.2969" rx="2.5" ry="2.5" style="stroke:#181818;stroke-width:0.5;" width="115.5137" x="283.7466" y="258.9609"/><text fill="#000000" font-family="sans-serif" font-size="14" lengthAdjust="spacing" textLength="101.5137" x="290.7466" y="278.9561">Analysis Team</text></g><g class="participant participant-head" data-participant="Reports"><rect fill="#E2E2F0" height="30.2969" rx="2.5" ry="2.5" style="stroke:#181818;stroke-width:0.5;" width="139.3438" x="409.2603" y="50"/><text fill="#000000" font-family="sans-serif" font-size="14" lengthAdjust="spacing" textLength="125.3438" x="416.2603" y="69.9951">Reporting System</text></g><g class="participant participant-tail" data-participant="Reports"><rect fill="#E2E2F0" height="30.2969" rx="2.5" ry="2.5" style="stroke:#181818;stroke-width:0.5;" width="139.3438" x="409.2603" y="258.9609"/><text fill="#000000" font-family="sans-serif" font-size="14" lengthAdjust="spacing" textLength="125.3438" x="416.2603" y="278.9561">Reporting System</text></g><g class="message" data-participant-1="Customer" data-participant-2="Complaints"><polygon fill="#181818" points="170.7227,108.4297,180.7227,112.4297,170.7227,116.4297,174.7227,112.4297" style="stroke:#181818;stroke-width:1;"/><line style="stroke:#181818;stroke-width:1;" x1="42.002" x2="176.7227" y1="112.4297" y2="112.4297"/><text fill="#000000" font-family="sans-serif" font-size="13" lengthAdjust="spacing" textLength="116.7207" x="49.002" y="107.3638">Submit Complaint</text></g><g class="message" data-participant-1="Complaints" data-participant-2="Analysis"><polygon fill="#181818" points="329.5034,137.5625,339.5034,141.5625,329.5034,145.5625,333.5034,141.5625" style="stroke:#181818;stroke-width:1;"/><line style="stroke:#181818;stroke-width:1;" x1="182.7227" x2="335.5034" y1="141.5625" y2="141.5625"/><text fill="#000000" font-family="sans-serif" font-size="13" lengthAdjust="spacing" textLength="123.5762" x="189.7227" y="136.4966">Forward Complaint</text></g><g class="message" data-participant-1="Analysis" data-participant-2="Analysis"><line style="stroke:#181818;stroke-width:1;" x1="341.5034" x2="383.5034" y1="170.6953" y2="170.6953"/><line style="stroke:#181818;stroke-width:1;" x1="383.5034" x2="383.5034" y1="170.6953" y2="183.6953"/><line style="stroke:#181818;stroke-width:1;" x1="342.5034" x2="383.5034" y1="183.6953" y2="183.6953"/><polygon fill="#181818" points="352.5034,179.6953,342.5034,183.6953,352.5034,187.6953,348.5034,183.6953" style="stroke:#181818;stroke-width:1;"/><text fill="#000000" font-family="sans-serif" font-size="13" lengthAdjust="spacing" textLength="121.8306" x="348.5034" y="165.6294">Analyze Complaint</text></g><g class="message" data-participant-1="Analysis" data-participant-2="Reports"><polygon fill="#181818" points="466.9321,208.8281,476.9321,212.8281,466.9321,216.8281,470.9321,212.8281" style="stroke:#181818;stroke-width:1;"/><line style="stroke:#181818;stroke-width:1;" x1="341.5034" x2="472.9321" y1="212.8281" y2="212.8281"/><text fill="#000000" font-family="sans-serif" font-size="13" lengthAdjust="spacing" textLength="108.5259" x="348.5034" y="207.7622">Generate Report</text></g><g class="message" data-participant-1="Reports" data-participant-2="Customer"><polygon fill="#181818" points="53.002,237.9609,43.002,241.9609,53.002,245.9609,49.002,241.9609" style="stroke:#181818;stroke-width:1;"/><line style="stroke:#181818;stroke-width:1;" x1="47.002" x2="477.9321" y1="241.9609" y2="241.9609"/><text fill="#000000" font-family="sans-serif" font-size="13" lengthAdjust="spacing" textLength="80.5518" x="59.002" y="236.895">Send Report</text></g><!--SRC=[TOun3i8m34NtdCBgpWKw8A4Ys2aNCAs58ZLE5Bj2vVI4Dg7jm6R__om_xDH7Q4PHxoYQW55jPmEoGjLu5mQqh09d-ZQEM2j0WRNPNvmOXqcim9tGpMH9zjoDWayhFw6TH6b1br2CAJPmE6u-rT2E3sTrZSn6CA7bLGqN7ryO-mtv4zjny_IcFrpsgU5AJ16LSc9oCUjbrIH7t1VW0m00]--></g></svg>