<svg xmlns="http://www.w3.org/2000/svg" xmlns:xlink="http://www.w3.org/1999/xlink" contentStyleType="text/css" data-diagram-type="SEQUENCE" height="441px" preserveAspectRatio="none" style="width:566px;height:441px;background:#FFFFFF;" version="1.1" viewBox="0 0 566 441" width="566px" zoomAndPan="magnify"><defs/><g><g><title>User</title><rect fill="#000000" fill-opacity="0.00000" height="279.0625" width="8" x="19.9551" y="81.2969"/><line style="stroke:#181818;stroke-width:0.5;stroke-dasharray:5,5;" x1="23" x2="23" y1="81.2969" y2="360.3594"/></g><g><title>App</title><rect fill="#000000" fill-opacity="0.00000" height="279.0625" width="8" x="184.873" y="81.2969"/><line style="stroke:#181818;stroke-width:0.5;stroke-dasharray:5,5;" x1="188.1978" x2="188.1978" y1="81.2969" y2="360.3594"/></g><g><title>Map Service</title><rect fill="#000000" fill-opacity="0.00000" height="279.0625" width="8" x="348.9443" y="81.2969"/><line style="stroke:#181818;stroke-width:0.5;stroke-dasharray:5,5;" x1="352.0762" x2="352.0762" y1="81.2969" y2="360.3594"/></g><g><title>Restaurant Service</title><rect fill="#000000" fill-opacity="0.00000" height="279.0625" width="8" x="482.5449" y="81.2969"/><line style="stroke:#181818;stroke-width:0.5;stroke-dasharray:5,5;" x1="485.8125" x2="485.8125" y1="81.2969" y2="360.3594"/></g><g class="participant participant-head" data-participant="User"><text fill="#000000" font-family="sans-serif" font-size="14" lengthAdjust="spacing" textLength="31.9102" x="5" y="77.9951">User</text><ellipse cx="23.9551" cy="13.5" fill="#E2E2F0" rx="8" ry="8" style="stroke:#181818;stroke-width:0.5;"/><path d="M23.9551,21.5 L23.9551,48.5 M10.9551,29.5 L36.9551,29.5 M23.9551,48.5 L10.9551,63.5 M23.9551,48.5 L36.9551,63.5" fill="none" style="stroke:#181818;stroke-width:0.5;"/></g><g class="participant participant-tail" data-participant="User"><text fill="#000000" font-family="sans-serif" font-size="14" lengthAdjust="spacing" textLength="31.9102" x="5" y="372.3545">User</text><ellipse cx="23.9551" cy="384.1563" fill="#E2E2F0" rx="8" ry="8" style="stroke:#181818;stroke-width:0.5;"/><path d="M23.9551,392.1563 L23.9551,419.1563 M10.9551,400.1563 L36.9551,400.1563 M23.9551,419.1563 L10.9551,434.1563 M23.9551,419.1563 L36.9551,434.1563" fill="none" style="stroke:#181818;stroke-width:0.5;"/></g><g class="participant participant-head" data-participant="App"><rect fill="#E2E2F0" height="30.2969" rx="2.5" ry="2.5" style="stroke:#181818;stroke-width:0.5;" width="41.3506" x="168.1978" y="50"/><text fill="#000000" font-family="sans-serif" font-size="14" lengthAdjust="spacing" textLength="27.3506" x="175.1978" y="69.9951">App</text></g><g class="participant participant-tail" data-participant="App"><rect fill="#E2E2F0" height="30.2969" rx="2.5" ry="2.5" style="stroke:#181818;stroke-width:0.5;" width="41.3506" x="168.1978" y="359.3594"/><text fill="#000000" font-family="sans-serif" font-size="14" lengthAdjust="spacing" textLength="27.3506" x="175.1978" y="379.3545">App</text></g><g class="participant participant-head" data-participant="MapService"><rect fill="#E2E2F0" height="30.2969" rx="2.5" ry="2.5" style="stroke:#181818;stroke-width:0.5;" width="99.7363" x="303.0762" y="50"/><text fill="#000000" font-family="sans-serif" font-size="14" lengthAdjust="spacing" textLength="85.7363" x="310.0762" y="69.9951">Map Service</text></g><g class="participant participant-tail" data-participant="MapService"><rect fill="#E2E2F0" height="30.2969" rx="2.5" ry="2.5" style="stroke:#181818;stroke-width:0.5;" width="99.7363" x="303.0762" y="359.3594"/><text fill="#000000" font-family="sans-serif" font-size="14" lengthAdjust="spacing" textLength="85.7363" x="310.0762" y="379.3545">Map Service</text></g><g class="participant participant-head" data-participant="RestaurantService"><rect fill="#E2E2F0" height="30.2969" rx="2.5" ry="2.5" style="stroke:#181818;stroke-width:0.5;" width="147.4648" x="412.8125" y="50"/><text fill="#000000" font-family="sans-serif" font-size="14" lengthAdjust="spacing" textLength="133.4648" x="419.8125" y="69.9951">Restaurant Service</text></g><g class="participant participant-tail" data-participant="RestaurantService"><rect fill="#E2E2F0" height="30.2969" rx="2.5" ry="2.5" style="stroke:#181818;stroke-width:0.5;" width="147.4648" x="412.8125" y="359.3594"/><text fill="#000000" font-family="sans-serif" font-size="14" lengthAdjust="spacing" textLength="133.4648" x="419.8125" y="379.3545">Restaurant Service</text></g><g class="message" data-participant-1="User" data-participant-2="App"><polygon fill="#181818" points="176.873,108.4297,186.873,112.4297,176.873,116.4297,180.873,112.4297" style="stroke:#181818;stroke-width:1;"/><line style="stroke:#181818;stroke-width:1;" x1="23.9551" x2="182.873" y1="112.4297" y2="112.4297"/><text fill="#000000" font-family="sans-serif" font-size="13" lengthAdjust="spacing" textLength="64.251" x="30.9551" y="107.3638">Open App</text></g><g class="message" data-participant-1="App" data-participant-2="MapService"><polygon fill="#181818" points="340.9443,137.5625,350.9443,141.5625,340.9443,145.5625,344.9443,141.5625" style="stroke:#181818;stroke-width:1;"/><line style="stroke:#181818;stroke-width:1;" x1="188.873" x2="346.9443" y1="141.5625" y2="141.5625"/><text fill="#000000" font-family="sans-serif" font-size="13" lengthAdjust="spacing" textLength="95.6528" x="195.873" y="136.4966">Load map tiles</text></g><g class="message" data-participant-1="MapService" data-participant-2="App"><polygon fill="#181818" points="199.873,166.6953,189.873,170.6953,199.873,174.6953,195.873,170.6953" style="stroke:#181818;stroke-width:1;"/><line style="stroke:#181818;stroke-width:1;stroke-dasharray:2,2;" x1="193.873" x2="351.9443" y1="170.6953" y2="170.6953"/><text fill="#000000" font-family="sans-serif" font-size="13" lengthAdjust="spacing" textLength="58.6587" x="205.873" y="165.6294">Map tiles</text></g><g class="message" data-participant-1="App" data-participant-2="RestaurantService"><polygon fill="#181818" points="474.5449,195.8281,484.5449,199.8281,474.5449,203.8281,478.5449,199.8281" style="stroke:#181818;stroke-width:1;"/><line style="stroke:#181818;stroke-width:1;" x1="188.873" x2="480.5449" y1="199.8281" y2="199.8281"/><text fill="#000000" font-family="sans-serif" font-size="13" lengthAdjust="spacing" textLength="240.0239" x="195.873" y="194.7622">Query nearby restaurants by bounds</text></g><g class="message" data-participant-1="RestaurantService" data-participant-2="App"><polygon fill="#181818" points="199.873,224.9609,189.873,228.9609,199.873,232.9609,195.873,228.9609" style="stroke:#181818;stroke-width:1;"/><line style="stroke:#181818;stroke-width:1;stroke-dasharray:2,2;" x1="193.873" x2="485.5449" y1="228.9609" y2="228.9609"/><text fill="#000000" font-family="sans-serif" font-size="13" lengthAdjust="spacing" textLength="118.3584" x="205.873" y="223.895">List of restaurants</text></g><g class="message" data-participant-1="App" data-participant-2="App"><line style="stroke:#181818;stroke-width:1;" x1="188.873" x2="230.873" y1="258.0938" y2="258.0938"/><line style="stroke:#181818;stroke-width:1;" x1="230.873" x2="230.873" y1="258.0938" y2="271.0938"/><line style="stroke:#181818;stroke-width:1;" x1="189.873" x2="230.873" y1="271.0938" y2="271.0938"/><polygon fill="#181818" points="199.873,267.0938,189.873,271.0938,199.873,275.0938,195.873,271.0938" style="stroke:#181818;stroke-width:1;"/><text fill="#000000" font-family="sans-serif" font-size="13" lengthAdjust="spacing" textLength="150.0713" x="195.873" y="253.0278">Render restaurant pins</text></g><g class="message" data-participant-1="User" data-participant-2="App"><polygon fill="#181818" points="176.873,296.2266,186.873,300.2266,176.873,304.2266,180.873,300.2266" style="stroke:#181818;stroke-width:1;"/><line style="stroke:#181818;stroke-width:1;" x1="23.9551" x2="182.873" y1="300.2266" y2="300.2266"/><text fill="#000000" font-family="sans-serif" font-size="13" lengthAdjust="spacing" textLength="140.918" x="30.9551" y="295.1606">Tap on restaurant pin</text></g><g class="message" data-participant-1="App" data-participant-2="App"><line style="stroke:#181818;stroke-width:1;" x1="188.873" x2="230.873" y1="329.3594" y2="329.3594"/><line style="stroke:#181818;stroke-width:1;" x1="230.873" x2="230.873" y1="329.3594" y2="342.3594"/><line style="stroke:#181818;stroke-width:1;" x1="189.873" x2="230.873" y1="342.3594" y2="342.3594"/><polygon fill="#181818" points="199.873,338.3594,189.873,342.3594,199.873,346.3594,195.873,342.3594" style="stroke:#181818;stroke-width:1;"/><text fill="#000000" font-family="sans-serif" font-size="13" lengthAdjust="spacing" textLength="147.5894" x="195.873" y="324.2935">Open restaurant detail</text></g><!--SRC=[PP1D3eCW48Ntd6BYtWkuQDAzfgbj3p3gD26nG6QmYRSla2h-B0ZClFVc0x3tbk4bnCeXUzrhXyP3SNMk01G8-rveqC63-AjxIePG_ykzhoNnE74yR-svlQHKX4DvYQWARevCWeOLctby1RN50Jw1x_L8eh84vH9lLdKPS09MS9-8Pp24tCt0gouGoivEPX1rIcL4hSM3VM-3AomPMZ93U57MmMaZXtS-mqMjEPXsOz9FRFI1FEfH_G00]--></g></svg>