<svg xmlns="http://www.w3.org/2000/svg" xmlns:xlink="http://www.w3.org/1999/xlink" contentStyleType="text/css" data-diagram-type="SEQUENCE" height="386px" preserveAspectRatio="none" style="width:604px;height:386px;background:#FFFFFF;" version="1.1" viewBox="0 0 604 386" width="604px" zoomAndPan="magnify"><defs/><g><g><title>User</title><rect fill="#000000" fill-opacity="0.00000" height="223.9297" width="8" x="19.9551" y="81.2969"/><line style="stroke:#181818;stroke-width:0.5;stroke-dasharray:5,5;" x1="23" x2="23" y1="81.2969" y2="305.2266"/></g><g><title>Web App</title><rect fill="#000000" fill-opacity="0.00000" height="223.9297" width="8" x="153.1792" y="81.2969"/><line style="stroke:#181818;stroke-width:0.5;stroke-dasharray:5,5;" x1="156.6074" x2="156.6074" y1="81.2969" y2="305.2266"/></g><g><title>Content Aggregator</title><rect fill="#000000" fill-opacity="0.00000" height="223.9297" width="8" x="278.3135" y="81.2969"/><line style="stroke:#181818;stroke-width:0.5;stroke-dasharray:5,5;" x1="281.751" x2="281.751" y1="81.2969" y2="305.2266"/></g><g><title>NLP Service</title><rect fill="#000000" fill-opacity="0.00000" height="223.9297" width="8" x="413.3291" y="81.2969"/><line style="stroke:#181818;stroke-width:0.5;stroke-dasharray:5,5;" x1="416.876" x2="416.876" y1="81.2969" y2="305.2266"/></g><g><title>Database</title><rect fill="#000000" fill-opacity="0.00000" height="223.9297" width="8" x="563.2603" y="81.2969"/><line style="stroke:#181818;stroke-width:0.5;stroke-dasharray:5,5;" x1="566.8599" x2="566.8599" y1="81.2969" y2="305.2266"/></g><g class="participant participant-head" data-participant="User"><text fill="#000000" font-family="sans-serif" font-size="14" lengthAdjust="spacing" textLength="31.9102" x="5" y="77.9951">User</text><ellipse cx="23.9551" cy="13.5" fill="#E2E2F0" rx="8" ry="8" style="stroke:#181818;stroke-width:0.5;"/><path d="M23.9551,21.5 L23.9551,48.5 M10.9551,29.5 L36.9551,29.5 M23.9551,48.5 L10.9551,63.5 M23.9551,48.5 L36.9551,63.5" fill="none" style="stroke:#181818;stroke-width:0.5;"/></g><g class="participant participant-tail" data-participant="User"><text fill="#000000" font-family="sans-serif" font-size="14" lengthAdjust="spacing" textLength="31.9102" x="5" y="317.2217">User</text><ellipse cx="23.9551" cy="329.0234" fill="#E2E2F0" rx="8" ry="8" style="stroke:#181818;stroke-width:0.5;"/><path d="M23.9551,337.0234 L23.9551,364.0234 M10.9551,345.0234 L36.9551,345.0234 M23.9551,364.0234 L10.9551,379.0234 M23.9551,364.0234 L36.9551,379.0234" fill="none" style="stroke:#181818;stroke-width:0.5;"/></g><g class="participant participant-head" data-participant="WebApp"><rect fill="#E2E2F0" height="30.2969" rx="2.5" ry="2.5" style="stroke:#181818;stroke-width:0.5;" width="77.1436" x="118.6074" y="50"/><text fill="#000000" font-family="sans-serif" font-size="14" lengthAdjust="spacing" textLength="63.1436" x="125.6074" y="69.9951">Web App</text></g><g class="participant participant-tail" data-participant="WebApp"><rect fill="#E2E2F0" height="30.2969" rx="2.5" ry="2.5" style="stroke:#181818;stroke-width:0.5;" width="77.1436" x="118.6074" y="304.2266"/><text fill="#000000" font-family="sans-serif" font-size="14" lengthAdjust="spacing" textLength="63.1436" x="125.6074" y="324.2217">Web App</text></g><g class="participant participant-head" data-participant="ContentAggregator"><rect fill="#E2E2F0" height="30.2969" rx="2.5" ry="2.5" style="stroke:#181818;stroke-width:0.5;" width="153.125" x="205.751" y="50"/><text fill="#000000" font-family="sans-serif" font-size="14" lengthAdjust="spacing" textLength="139.125" x="212.751" y="69.9951">Content Aggregator</text></g><g class="participant participant-tail" data-participant="ContentAggregator"><rect fill="#E2E2F0" height="30.2969" rx="2.5" ry="2.5" style="stroke:#181818;stroke-width:0.5;" width="153.125" x="205.751" y="304.2266"/><text fill="#000000" font-family="sans-serif" font-size="14" lengthAdjust="spacing" textLength="139.125" x="212.751" y="324.2217">Content Aggregator</text></g><g class="participant participant-head" data-participant="NLPService"><rect fill="#E2E2F0" height="30.2969" rx="2.5" ry="2.5" style="stroke:#181818;stroke-width:0.5;" width="96.9063" x="368.876" y="50"/><text fill="#000000" font-family="sans-serif" font-size="14" lengthAdjust="spacing" textLength="82.9063" x="375.876" y="69.9951">NLP Service</text></g><g class="participant participant-tail" data-participant="NLPService"><rect fill="#E2E2F0" height="30.2969" rx="2.5" ry="2.5" style="stroke:#181818;stroke-width:0.5;" width="96.9063" x="368.876" y="304.2266"/><text fill="#000000" font-family="sans-serif" font-size="14" lengthAdjust="spacing" textLength="82.9063" x="375.876" y="324.2217">NLP Service</text></g><g class="participant participant-head" data-participant="DB"><text fill="#000000" font-family="sans-serif" font-size="14" lengthAdjust="spacing" textLength="66.8008" x="530.8599" y="77.9951">Database</text><path d="M549.2603,29 C549.2603,19 567.2603,19 567.2603,19 C567.2603,19 585.2603,19 585.2603,29 L585.2603,55 C585.2603,65 567.2603,65 567.2603,65 C567.2603,65 549.2603,65 549.2603,55 L549.2603,29" fill="#E2E2F0" style="stroke:#181818;stroke-width:0.5;"/><path d="M549.2603,29 C549.2603,39 567.2603,39 567.2603,39 C567.2603,39 585.2603,39 585.2603,29" fill="none" style="stroke:#181818;stroke-width:0.5;"/></g><g class="participant participant-tail" data-participant="DB"><text fill="#000000" font-family="sans-serif" font-size="14" lengthAdjust="spacing" textLength="66.8008" x="530.8599" y="317.2217">Database</text><path d="M549.2603,330.5234 C549.2603,320.5234 567.2603,320.5234 567.2603,320.5234 C567.2603,320.5234 585.2603,320.5234 585.2603,330.5234 L585.2603,356.5234 C585.2603,366.5234 567.2603,366.5234 567.2603,366.5234 C567.2603,366.5234 549.2603,366.5234 549.2603,356.5234 L549.2603,330.5234" fill="#E2E2F0" style="stroke:#181818;stroke-width:0.5;"/><path d="M549.2603,330.5234 C549.2603,340.5234 567.2603,340.5234 567.2603,340.5234 C567.2603,340.5234 585.2603,340.5234 585.2603,330.5234" fill="none" style="stroke:#181818;stroke-width:0.5;"/></g><g class="message" data-participant-1="User" data-participant-2="WebApp"><polygon fill="#181818" points="145.1792,108.4297,155.1792,112.4297,145.1792,116.4297,149.1792,112.4297" style="stroke:#181818;stroke-width:1;"/><line style="stroke:#181818;stroke-width:1;" x1="23.9551" x2="151.1792" y1="112.4297" y2="112.4297"/><text fill="#000000" font-family="sans-serif" font-size="13" lengthAdjust="spacing" textLength="109.2241" x="30.9551" y="107.3638">Request Content</text></g><g class="message" data-participant-1="WebApp" data-participant-2="ContentAggregator"><polygon fill="#181818" points="270.3135,137.5625,280.3135,141.5625,270.3135,145.5625,274.3135,141.5625" style="stroke:#181818;stroke-width:1;"/><line style="stroke:#181818;stroke-width:1;" x1="157.1792" x2="276.3135" y1="141.5625" y2="141.5625"/><text fill="#000000" font-family="sans-serif" font-size="13" lengthAdjust="spacing" textLength="91.7935" x="164.1792" y="136.4966">Fetch Content</text></g><g class="message" data-participant-1="ContentAggregator" data-participant-2="NLPService"><polygon fill="#181818" points="405.3291,166.6953,415.3291,170.6953,405.3291,174.6953,409.3291,170.6953" style="stroke:#181818;stroke-width:1;"/><line style="stroke:#181818;stroke-width:1;" x1="282.3135" x2="411.3291" y1="170.6953" y2="170.6953"/><text fill="#000000" font-family="sans-serif" font-size="13" lengthAdjust="spacing" textLength="105.6631" x="289.3135" y="165.6294">Process Content</text></g><g class="message" data-participant-1="NLPService" data-participant-2="DB"><polygon fill="#181818" points="555.2603,195.8281,565.2603,199.8281,555.2603,203.8281,559.2603,199.8281" style="stroke:#181818;stroke-width:1;"/><line style="stroke:#181818;stroke-width:1;" x1="417.3291" x2="561.2603" y1="199.8281" y2="199.8281"/><text fill="#000000" font-family="sans-serif" font-size="13" lengthAdjust="spacing" textLength="125.9312" x="424.3291" y="194.7622">Save Filtered Items</text></g><g class="message" data-participant-1="DB" data-participant-2="NLPService"><polygon fill="#181818" points="428.3291,224.9609,418.3291,228.9609,428.3291,232.9609,424.3291,228.9609" style="stroke:#181818;stroke-width:1;"/><line style="stroke:#181818;stroke-width:1;" x1="422.3291" x2="566.2603" y1="228.9609" y2="228.9609"/><text fill="#000000" font-family="sans-serif" font-size="13" lengthAdjust="spacing" textLength="122.5479" x="434.3291" y="223.895">Acknowledge Save</text></g><g class="message" data-participant-1="NLPService" data-participant-2="WebApp"><polygon fill="#181818" points="168.1792,254.0938,158.1792,258.0938,168.1792,262.0938,164.1792,258.0938" style="stroke:#181818;stroke-width:1;"/><line style="stroke:#181818;stroke-width:1;" x1="162.1792" x2="416.3291" y1="258.0938" y2="258.0938"/><text fill="#000000" font-family="sans-serif" font-size="13" lengthAdjust="spacing" textLength="110.9063" x="174.1792" y="253.0278">Return Summary</text></g><g class="message" data-participant-1="WebApp" data-participant-2="User"><polygon fill="#181818" points="34.9551,283.2266,24.9551,287.2266,34.9551,291.2266,30.9551,287.2266" style="stroke:#181818;stroke-width:1;"/><line style="stroke:#181818;stroke-width:1;" x1="28.9551" x2="156.1792" y1="287.2266" y2="287.2266"/><text fill="#000000" font-family="sans-serif" font-size="13" lengthAdjust="spacing" textLength="102.0322" x="40.9551" y="282.1606">Show Summary</text></g><!--SRC=[POz1Zu9038NlyoiQxli7E9Y0n6GJip6IZUSwl21POTXEmUo_TmPHLhszjb_x-jYg4_hs4DEpQ6ERdZkbv80ZPNsV47iAEiZd-TfrYY2okXRK78vCwDnUkizRNziTbP2niPZmKC-bgLZvo1wK5BEQY28t9dv77wlvZvJs-1tWzMvcRlr8lDcdj87QqmDz0-BMyaLAEt4M_X74BBD85dbA9O-WJNDM22hwLBJU5FdhdSp-TEvoHbLZsdWvj4JHGJegXxPb-VkN96OENYTtkG-l]--></g></svg>