<svg xmlns="http://www.w3.org/2000/svg" xmlns:xlink="http://www.w3.org/1999/xlink" contentStyleType="text/css" data-diagram-type="DESCRIPTION" height="700px" preserveAspectRatio="none" style="width:681px;height:700px;background:#FFFFFF;" version="1.1" viewBox="0 0 681 700" width="681px" zoomAndPan="magnify"><defs/><g><!--cluster Logical System Architecture--><g class="cluster" data-entity="Logical System Architecture" data-source-line="1" data-uid="ent0002" id="cluster_Logical System Architecture"><path d="M8.5,6 L231.8184,6 A3.75,3.75 0 0 1 234.3184,8.5 L241.3184,28.2969 L671.5,28.2969 A2.5,2.5 0 0 1 674,30.7969 L674,690.98 A2.5,2.5 0 0 1 671.5,693.48 L8.5,693.48 A2.5,2.5 0 0 1 6,690.98 L6,8.5 A2.5,2.5 0 0 1 8.5,6" fill="none" style="stroke:#000000;stroke-width:1.5;"/><line style="stroke:#000000;stroke-width:1.5;" x1="6" x2="241.3184" y1="28.2969" y2="28.2969"/><text fill="#000000" font-family="sans-serif" font-size="14" font-weight="bold" lengthAdjust="spacing" textLength="222.3184" x="10" y="20.9951">Logical System Architecture</text></g><!--cluster Input Layer--><g class="cluster" data-entity="Input Layer" data-source-line="3" data-uid="ent0003" id="cluster_Input Layer"><rect fill="none" height="204.59" rx="2.5" ry="2.5" style="stroke:#181818;stroke-width:1;" width="198" x="30" y="49"/><rect fill="none" height="10" style="stroke:#181818;stroke-width:1;" width="15" x="208" y="54"/><rect fill="none" height="2" style="stroke:#181818;stroke-width:1;" width="4" x="206" y="56"/><rect fill="none" height="2" style="stroke:#181818;stroke-width:1;" width="4" x="206" y="60"/><text fill="#000000" font-family="sans-serif" font-size="14" font-weight="bold" lengthAdjust="spacing" textLength="90.624" x="83.688" y="74.9951">Input Layer</text></g><!--cluster Processing Layer--><g class="cluster" data-entity="Processing Layer" data-source-line="7" data-uid="ent0007" id="cluster_Processing Layer"><rect fill="none" height="241.59" rx="2.5" ry="2.5" style="stroke:#181818;stroke-width:1;" width="176" x="30" y="302.59"/><rect fill="none" height="10" style="stroke:#181818;stroke-width:1;" width="15" x="186" y="307.59"/><rect fill="none" height="2" style="stroke:#181818;stroke-width:1;" width="4" x="184" y="309.59"/><rect fill="none" height="2" style="stroke:#181818;stroke-width:1;" width="4" x="184" y="313.59"/><text fill="#000000" font-family="sans-serif" font-size="14" font-weight="bold" lengthAdjust="spacing" textLength="134.7979" x="50.6011" y="328.5851">Processing Layer</text></g><!--cluster Output Layer--><g class="cluster" data-entity="Output Layer" data-source-line="11" data-uid="ent0011" id="cluster_Output Layer"><rect fill="none" height="222.59" rx="2.5" ry="2.5" style="stroke:#181818;stroke-width:1;" width="216" x="230" y="446.89"/><rect fill="none" height="10" style="stroke:#181818;stroke-width:1;" width="15" x="426" y="451.89"/><rect fill="none" height="2" style="stroke:#181818;stroke-width:1;" width="4" x="424" y="453.89"/><rect fill="none" height="2" style="stroke:#181818;stroke-width:1;" width="4" x="424" y="457.89"/><text fill="#000000" font-family="sans-serif" font-size="14" font-weight="bold" lengthAdjust="spacing" textLength="104.0088" x="285.9956" y="472.8851">Output Layer</text></g><!--cluster Error Handling Layer--><g class="cluster" data-entity="Error Handling Layer" data-source-line="15" data-uid="ent0015" id="cluster_Error Handling Layer"><rect fill="none" height="222.59" rx="2.5" ry="2.5" style="stroke:#181818;stroke-width:1;" width="180" x="470" y="446.89"/><rect fill="none" height="10" style="stroke:#181818;stroke-width:1;" width="15" x="630" y="451.89"/><rect fill="none" height="2" style="stroke:#181818;stroke-width:1;" width="4" x="628" y="453.89"/><rect fill="none" height="2" style="stroke:#181818;stroke-width:1;" width="4" x="628" y="457.89"/><text fill="#000000" font-family="sans-serif" font-size="14" font-weight="bold" lengthAdjust="spacing" textLength="164.2744" x="477.8628" y="472.8851">Error Handling Layer</text></g><!--entity User Interface--><g class="entity" data-entity="User Interface" data-source-line="4" data-uid="ent0004" id="entity_User Interface"><rect fill="#F1F1F1" height="46.2969" rx="2.5" ry="2.5" style="stroke:#181818;stroke-width:0.5;" width="139.0391" x="66.48" y="84"/><rect fill="#F1F1F1" height="10" style="stroke:#181818;stroke-width:0.5;" width="15" x="185.5191" y="89"/><rect fill="#F1F1F1" height="2" style="stroke:#181818;stroke-width:0.5;" width="4" x="183.5191" y="91"/><rect fill="#F1F1F1" height="2" style="stroke:#181818;stroke-width:0.5;" width="4" x="183.5191" y="95"/><text fill="#000000" font-family="sans-serif" font-size="14" lengthAdjust="spacing" textLength="99.0391" x="81.48" y="116.9951">User Interface</text></g><!--entity Network Interface--><g class="entity" data-entity="Network Interface" data-source-line="4" data-uid="ent0005" id="entity_Network Interface"><rect fill="#F1F1F1" height="46.2969" rx="2.5" ry="2.5" style="stroke:#181818;stroke-width:0.5;" width="165.583" x="46.21" y="191.29"/><rect fill="#F1F1F1" height="10" style="stroke:#181818;stroke-width:0.5;" width="15" x="191.793" y="196.29"/><rect fill="#F1F1F1" height="2" style="stroke:#181818;stroke-width:0.5;" width="4" x="189.793" y="198.29"/><rect fill="#F1F1F1" height="2" style="stroke:#181818;stroke-width:0.5;" width="4" x="189.793" y="202.29"/><text fill="#000000" font-family="sans-serif" font-size="14" lengthAdjust="spacing" textLength="125.583" x="61.21" y="224.2851">Network Interface</text></g><!--entity Business Logic--><g class="entity" data-entity="Business Logic" data-source-line="8" data-uid="ent0008" id="entity_Business Logic"><rect fill="#F1F1F1" height="46.2969" rx="2.5" ry="2.5" style="stroke:#181818;stroke-width:0.5;" width="143.0244" x="46.49" y="337.59"/><rect fill="#F1F1F1" height="10" style="stroke:#181818;stroke-width:0.5;" width="15" x="169.5144" y="342.59"/><rect fill="#F1F1F1" height="2" style="stroke:#181818;stroke-width:0.5;" width="4" x="167.5144" y="344.59"/><rect fill="#F1F1F1" height="2" style="stroke:#181818;stroke-width:0.5;" width="4" x="167.5144" y="348.59"/><text fill="#000000" font-family="sans-serif" font-size="14" lengthAdjust="spacing" textLength="103.0244" x="61.49" y="370.5851">Business Logic</text></g><!--entity Data Access--><g class="entity" data-entity="Data Access" data-source-line="8" data-uid="ent0009" id="entity_Data Access"><rect fill="#F1F1F1" height="46.2969" rx="2.5" ry="2.5" style="stroke:#181818;stroke-width:0.5;" width="126.0508" x="45.97" y="481.89"/><rect fill="#F1F1F1" height="10" style="stroke:#181818;stroke-width:0.5;" width="15" x="152.0208" y="486.89"/><rect fill="#F1F1F1" height="2" style="stroke:#181818;stroke-width:0.5;" width="4" x="150.0208" y="488.89"/><rect fill="#F1F1F1" height="2" style="stroke:#181818;stroke-width:0.5;" width="4" x="150.0208" y="492.89"/><text fill="#000000" font-family="sans-serif" font-size="14" lengthAdjust="spacing" textLength="86.0508" x="60.97" y="514.8851">Data Access</text></g><!--entity Dashboard Interface--><g class="entity" data-entity="Dashboard Interface" data-source-line="12" data-uid="ent0012" id="entity_Dashboard Interface"><rect fill="#F1F1F1" height="46.2969" rx="2.5" ry="2.5" style="stroke:#181818;stroke-width:0.5;" width="183.3291" x="246.34" y="481.89"/><rect fill="#F1F1F1" height="10" style="stroke:#181818;stroke-width:0.5;" width="15" x="409.6691" y="486.89"/><rect fill="#F1F1F1" height="2" style="stroke:#181818;stroke-width:0.5;" width="4" x="407.6691" y="488.89"/><rect fill="#F1F1F1" height="2" style="stroke:#181818;stroke-width:0.5;" width="4" x="407.6691" y="492.89"/><text fill="#000000" font-family="sans-serif" font-size="14" lengthAdjust="spacing" textLength="143.3291" x="261.34" y="514.8851">Dashboard Interface</text></g><!--entity Reporting Service--><g class="entity" data-entity="Reporting Service" data-source-line="12" data-uid="ent0013" id="entity_Reporting Service"><rect fill="#F1F1F1" height="46.2969" rx="2.5" ry="2.5" style="stroke:#181818;stroke-width:0.5;" width="164.8789" x="257.56" y="607.18"/><rect fill="#F1F1F1" height="10" style="stroke:#181818;stroke-width:0.5;" width="15" x="402.4389" y="612.18"/><rect fill="#F1F1F1" height="2" style="stroke:#181818;stroke-width:0.5;" width="4" x="400.4389" y="614.18"/><rect fill="#F1F1F1" height="2" style="stroke:#181818;stroke-width:0.5;" width="4" x="400.4389" y="618.18"/><text fill="#000000" font-family="sans-serif" font-size="14" lengthAdjust="spacing" textLength="124.8789" x="272.56" y="640.1751">Reporting Service</text></g><!--entity Error Logger--><g class="entity" data-entity="Error Logger" data-source-line="16" data-uid="ent0016" id="entity_Error Logger"><rect fill="#F1F1F1" height="46.2969" rx="2.5" ry="2.5" style="stroke:#181818;stroke-width:0.5;" width="127.6367" x="486.18" y="481.89"/><rect fill="#F1F1F1" height="10" style="stroke:#181818;stroke-width:0.5;" width="15" x="593.8167" y="486.89"/><rect fill="#F1F1F1" height="2" style="stroke:#181818;stroke-width:0.5;" width="4" x="591.8167" y="488.89"/><rect fill="#F1F1F1" height="2" style="stroke:#181818;stroke-width:0.5;" width="4" x="591.8167" y="492.89"/><text fill="#000000" font-family="sans-serif" font-size="14" lengthAdjust="spacing" textLength="87.6367" x="501.18" y="514.8851">Error Logger</text></g><!--entity Alert System--><g class="entity" data-entity="Alert System" data-source-line="16" data-uid="ent0017" id="entity_Alert System"><rect fill="#F1F1F1" height="46.2969" rx="2.5" ry="2.5" style="stroke:#181818;stroke-width:0.5;" width="129.9814" x="486.01" y="607.18"/><rect fill="#F1F1F1" height="10" style="stroke:#181818;stroke-width:0.5;" width="15" x="595.9914" y="612.18"/><rect fill="#F1F1F1" height="2" style="stroke:#181818;stroke-width:0.5;" width="4" x="593.9914" y="614.18"/><rect fill="#F1F1F1" height="2" style="stroke:#181818;stroke-width:0.5;" width="4" x="593.9914" y="618.18"/><text fill="#000000" font-family="sans-serif" font-size="14" lengthAdjust="spacing" textLength="89.9814" x="501.01" y="640.1751">Alert System</text></g><!--link User Interface to Network Interface--><g class="link" data-entity-1="User Interface" data-entity-2="Network Interface" data-source-line="4" data-uid="lnk6" id="link_User Interface_Network Interface"><path d="M134.5,130.73 C133.32,148.5 132.0778,167.1432 130.8978,184.9032" fill="none" id="User Interface-to-Network Interface" style="stroke:#181818;stroke-width:1;"/><polygon fill="#181818" points="130.5,190.89,135.0879,182.175,130.8315,185.901,127.1055,181.6446,130.5,190.89" style="stroke:#181818;stroke-width:1;"/></g><!--link Business Logic to Data Access--><g class="link" data-entity-1="Business Logic" data-entity-2="Data Access" data-source-line="8" data-uid="lnk10" id="link_Business Logic_Data Access"><path d="M83.06,384.14 C73.44,392.24 64.22,402.3 59,413.89 C48.26,437.71 61.8789,459.3573 79.1289,477.2773" fill="none" id="Business Logic-to-Data Access" style="stroke:#181818;stroke-width:1;"/><polygon fill="#181818" points="83.29,481.6,79.9302,472.3419,79.8224,477.9978,74.1666,477.89,83.29,481.6" style="stroke:#181818;stroke-width:1;"/></g><!--link Data Access to Business Logic--><g class="link" data-entity-1="Data Access" data-entity-2="Business Logic" data-source-line="25" data-uid="lnk24" id="link_Data Access_Business Logic"><path d="M110.42,481.59 C112.1,454.99 114.5124,416.9181 116.1924,390.2781" fill="none" id="Data Access-to-Business Logic" style="stroke:#181818;stroke-width:1;"/><polygon fill="#181818" points="116.57,384.29,112.0115,393.0204,116.2553,389.2801,119.9956,393.5239,116.57,384.29" style="stroke:#181818;stroke-width:1;"/><text fill="#000000" font-family="sans-serif" font-size="13" lengthAdjust="spacing" textLength="93.5264" x="115.57" y="426.9569">Data Retrieval</text></g><!--link Dashboard Interface to Reporting Service--><g class="link" data-entity-1="Dashboard Interface" data-entity-2="Reporting Service" data-source-line="12" data-uid="lnk14" id="link_Dashboard Interface_Reporting Service"><path d="M320.5,528.62 C311.96,542.38 304.41,560.46 309,577.18 C311.87,587.64 314.2057,593.0827 319.8557,601.8727" fill="none" id="Dashboard Interface-to-Reporting Service" style="stroke:#181818;stroke-width:1;"/><polygon fill="#181818" points="323.1,606.92,321.5985,597.1863,320.3965,602.714,314.8688,601.512,323.1,606.92" style="stroke:#181818;stroke-width:1;"/></g><!--link Reporting Service to Dashboard Interface--><g class="link" data-entity-1="Reporting Service" data-entity-2="Dashboard Interface" data-source-line="26" data-uid="lnk25" id="link_Reporting Service_Dashboard Interface"><path d="M339.64,606.86 C339.28,584.66 338.8271,556.8992 338.4671,534.6492" fill="none" id="Reporting Service-to-Dashboard Interface" style="stroke:#181818;stroke-width:1;"/><polygon fill="#181818" points="338.37,528.65,334.5161,537.7135,338.4509,533.6493,342.5151,537.5841,338.37,528.65" style="stroke:#181818;stroke-width:1;"/><text fill="#000000" font-family="sans-serif" font-size="13" lengthAdjust="spacing" textLength="66.2632" x="340.12" y="573.2469">Data Push</text></g><!--link Error Logger to Alert System--><g class="link" data-entity-1="Error Logger" data-entity-2="Alert System" data-source-line="16" data-uid="lnk18" id="link_Error Logger_Alert System"><path d="M517.01,528.62 C502.14,541.8 489.42,559.32 497,577.18 C501.84,588.58 506.0875,594.6561 515.0975,602.8761" fill="none" id="Error Logger-to-Alert System" style="stroke:#181818;stroke-width:1;"/><polygon fill="#181818" points="519.53,606.92,515.5771,597.8992,515.8362,603.5501,510.1853,603.8092,519.53,606.92" style="stroke:#181818;stroke-width:1;"/></g><!--link Error Logger to Alert System--><g class="link" data-entity-1="Error Logger" data-entity-2="Alert System" data-source-line="23" data-uid="lnk23" id="link_Error Logger_Alert System"><path d="M550.18,528.65 C550.36,550.9 550.5914,578.6602 550.7714,600.8602" fill="none" id="Error Logger-to-Alert System-1" style="stroke:#181818;stroke-width:1;"/><polygon fill="#181818" points="550.82,606.86,554.7469,597.8279,550.7795,601.8602,546.7472,597.8927,550.82,606.86" style="stroke:#181818;stroke-width:1;"/><text fill="#000000" font-family="sans-serif" font-size="13" lengthAdjust="spacing" textLength="81.8213" x="551.56" y="573.2469">Alert Trigger</text></g><!--link User Interface to Business Logic--><g class="link" data-entity-1="User Interface" data-entity-2="Business Logic" data-source-line="19" data-uid="lnk19" id="link_User Interface_Business Logic"><path d="M176.94,130.71 C231,163.55 315.13,227.08 277,286.59 C257.66,316.78 228.0671,332.8281 195.6471,343.3481" fill="none" id="User Interface-to-Business Logic" style="stroke:#181818;stroke-width:1;"/><polygon fill="#181818" points="189.94,345.2,199.7352,346.2269,194.6959,343.6568,197.266,338.6175,189.94,345.2" style="stroke:#181818;stroke-width:1;"/><text fill="#000000" font-family="sans-serif" font-size="13" lengthAdjust="spacing" textLength="141.5972" x="287.6" y="219.0069">Synchronous Request</text></g><!--link Network Interface to Business Logic--><g class="link" data-entity-1="Network Interface" data-entity-2="Business Logic" data-source-line="20" data-uid="lnk20" id="link_Network Interface_Business Logic"><path d="M125.65,238.05 C124.32,247.74 122.9,259.2 122,269.59 C120.01,292.53 119.1576,312.8523 118.6476,331.1023" fill="none" id="Network Interface-to-Business Logic" style="stroke:#181818;stroke-width:1;"/><polygon fill="#181818" points="118.48,337.1,122.7298,328.2152,118.6197,332.102,114.733,327.9918,118.48,337.1" style="stroke:#181818;stroke-width:1;"/><text fill="#000000" font-family="sans-serif" font-size="13" lengthAdjust="spacing" textLength="149.0112" x="123" y="282.6569">Asynchronous Request</text></g><!--link Business Logic to Dashboard Interface--><g class="link" data-entity-1="Business Logic" data-entity-2="Dashboard Interface" data-source-line="21" data-uid="lnk21" id="link_Business Logic_Dashboard Interface"><path d="M165.19,384.34 C182.18,393 201.27,403.34 218,413.89 C251.28,434.87 282.3754,458.6986 306.1254,477.8086" fill="none" id="Business Logic-to-Dashboard Interface" style="stroke:#181818;stroke-width:1;"/><polygon fill="#181818" points="310.8,481.57,306.2956,472.8115,306.9045,478.4355,301.2805,479.0444,310.8,481.57" style="stroke:#181818;stroke-width:1;"/><text fill="#000000" font-family="sans-serif" font-size="13" lengthAdjust="spacing" textLength="151.2266" x="242.93" y="426.9569">Synchronous Response</text></g><!--link Business Logic to Error Logger--><g class="link" data-entity-1="Business Logic" data-entity-2="Error Logger" data-source-line="22" data-uid="lnk22" id="link_Business Logic_Error Logger"><path d="M189.79,367.95 C248.54,374.65 333.05,388.05 403,413.89 C423.74,421.55 427.07,427.46 446,438.89 C468.98,452.76 489.4593,465.5525 509.4893,478.2225" fill="none" id="Business Logic-to-Error Logger" style="stroke:#181818;stroke-width:1;"/><polygon fill="#181818" points="514.56,481.43,509.0923,473.2383,510.3344,478.7571,504.8156,479.9992,514.56,481.43" style="stroke:#181818;stroke-width:1;"/><text fill="#000000" font-family="sans-serif" font-size="13" lengthAdjust="spacing" textLength="110.9253" x="434.04" y="426.9569">Error Notification</text></g><!--SRC=[ZPBFQiCm3CRlUGgHUr-WXq561okKhgJRgUpWkMfYcbgPB7UKqNUVy-UGnSaO-29B-ldJ9zTAdrM1a6weC5fLiByvmGjah4iZgCKpfl2T08IZwLAJHIkGhctj1JRgXjob0Gvl3XdMLf1FIkCxB1OFSDYYV16V1_UX-1xnTamQdJEs644VVRWC6MW5zj2L4WMPRZgcSIzUOdqhvSeFKdoCHEPO4qlp-1xvQkP4FZ4JmxEonoeMsYM3oWAvnsOLilIE3eZJHeq7NOP6gqicIzv1ZfyUdJJTiQDpWCnD4sOydN1dBC85AnpECdvxi8GktfAOK_XSOiWc_t2gKTx6hsoQcjwruTBd9cvhSXGsU5LLqnMlziznMy3EkpAv_m00]--></g></svg>