<svg xmlns="http://www.w3.org/2000/svg" xmlns:xlink="http://www.w3.org/1999/xlink" contentStyleType="text/css" data-diagram-type="DESCRIPTION" height="480px" preserveAspectRatio="none" style="width:1308px;height:480px;background:#FFFFFF;" version="1.1" viewBox="0 0 1308 480" width="1308px" zoomAndPan="magnify"><defs/><g><!--cluster System Architecture--><g class="cluster" data-entity="System Architecture" data-source-line="18" data-uid="ent0016" id="cluster_System Architecture"><path d="M8.5,6 L171.04,6 A3.75,3.75 0 0 1 173.54,8.5 L180.54,28.2969 L747.5,28.2969 A2.5,2.5 0 0 1 750,30.7969 L750,362.39 A2.5,2.5 0 0 1 747.5,364.89 L8.5,364.89 A2.5,2.5 0 0 1 6,362.39 L6,8.5 A2.5,2.5 0 0 1 8.5,6" fill="none" style="stroke:#000000;stroke-width:1.5;"/><line style="stroke:#000000;stroke-width:1.5;" x1="6" x2="180.54" y1="28.2969" y2="28.2969"/><text fill="#000000" font-family="sans-serif" font-size="14" font-weight="bold" lengthAdjust="spacing" textLength="161.54" x="10" y="20.9951">System Architecture</text></g><!--entity Frontend Dashboard--><g class="entity" data-entity="Frontend Dashboard" data-source-line="19" data-uid="ent0017" id="entity_Frontend Dashboard"><rect fill="#F1F1F1" height="46.2969" rx="2.5" ry="2.5" style="stroke:#181818;stroke-width:0.5;" width="183.7598" x="232.12" y="41"/><rect fill="#F1F1F1" height="10" style="stroke:#181818;stroke-width:0.5;" width="15" x="395.8798" y="46"/><rect fill="#F1F1F1" height="2" style="stroke:#181818;stroke-width:0.5;" width="4" x="393.8798" y="48"/><rect fill="#F1F1F1" height="2" style="stroke:#181818;stroke-width:0.5;" width="4" x="393.8798" y="52"/><text fill="#000000" font-family="sans-serif" font-size="14" lengthAdjust="spacing" textLength="143.7598" x="247.12" y="73.9951">Frontend Dashboard</text></g><!--entity Backend Analytical Engine--><g class="entity" data-entity="Backend Analytical Engine" data-source-line="19" data-uid="ent0018" id="entity_Backend Analytical Engine"><rect fill="#F1F1F1" height="46.2969" rx="2.5" ry="2.5" style="stroke:#181818;stroke-width:0.5;" width="225.9922" x="211" y="179.3"/><rect fill="#F1F1F1" height="10" style="stroke:#181818;stroke-width:0.5;" width="15" x="416.9922" y="184.3"/><rect fill="#F1F1F1" height="2" style="stroke:#181818;stroke-width:0.5;" width="4" x="414.9922" y="186.3"/><rect fill="#F1F1F1" height="2" style="stroke:#181818;stroke-width:0.5;" width="4" x="414.9922" y="190.3"/><text fill="#000000" font-family="sans-serif" font-size="14" lengthAdjust="spacing" textLength="185.9922" x="226" y="212.2951">Backend Analytical Engine</text></g><!--entity Data Warehouse--><g class="entity" data-entity="Data Warehouse" data-source-line="20" data-uid="ent0020" id="entity_Data Warehouse"><rect fill="#F1F1F1" height="46.2969" rx="2.5" ry="2.5" style="stroke:#181818;stroke-width:0.5;" width="156.8877" x="245.56" y="302.6"/><rect fill="#F1F1F1" height="10" style="stroke:#181818;stroke-width:0.5;" width="15" x="382.4477" y="307.6"/><rect fill="#F1F1F1" height="2" style="stroke:#181818;stroke-width:0.5;" width="4" x="380.4477" y="309.6"/><rect fill="#F1F1F1" height="2" style="stroke:#181818;stroke-width:0.5;" width="4" x="380.4477" y="313.6"/><text fill="#000000" font-family="sans-serif" font-size="14" lengthAdjust="spacing" textLength="116.8877" x="260.56" y="335.5951">Data Warehouse</text></g><!--entity NLP Sentiment Analysis Module--><g class="entity" data-entity="NLP Sentiment Analysis Module" data-source-line="21" data-uid="ent0022" id="entity_NLP Sentiment Analysis Module"><rect fill="#F1F1F1" height="46.2969" rx="2.5" ry="2.5" style="stroke:#181818;stroke-width:0.5;" width="261.0195" x="472.49" y="179.3"/><rect fill="#F1F1F1" height="10" style="stroke:#181818;stroke-width:0.5;" width="15" x="713.5095" y="184.3"/><rect fill="#F1F1F1" height="2" style="stroke:#181818;stroke-width:0.5;" width="4" x="711.5095" y="186.3"/><rect fill="#F1F1F1" height="2" style="stroke:#181818;stroke-width:0.5;" width="4" x="711.5095" y="190.3"/><text fill="#000000" font-family="sans-serif" font-size="14" lengthAdjust="spacing" textLength="221.0195" x="487.49" y="212.2951">NLP Sentiment Analysis Module</text></g><!--entity Etimad Platform--><g class="entity" data-entity="Etimad Platform" data-source-line="22" data-uid="ent0024" id="entity_Etimad Platform"><rect fill="#F1F1F1" height="46.2969" rx="2.5" ry="2.5" style="stroke:#181818;stroke-width:0.5;" width="153.0664" x="22.47" y="179.3"/><rect fill="#F1F1F1" height="10" style="stroke:#181818;stroke-width:0.5;" width="15" x="155.5364" y="184.3"/><rect fill="#F1F1F1" height="2" style="stroke:#181818;stroke-width:0.5;" width="4" x="153.5364" y="186.3"/><rect fill="#F1F1F1" height="2" style="stroke:#181818;stroke-width:0.5;" width="4" x="153.5364" y="190.3"/><text fill="#000000" font-family="sans-serif" font-size="14" lengthAdjust="spacing" textLength="113.0664" x="37.47" y="212.2951">Etimad Platform</text></g><!--entity Frontend--><g class="entity" data-entity="Frontend" data-source-line="1" data-uid="ent0002" id="entity_Frontend"><rect fill="#F1F1F1" height="46.2969" rx="2.5" ry="2.5" style="stroke:#181818;stroke-width:0.5;" width="183.7598" x="814.12" y="179.3"/><rect fill="#F1F1F1" height="10" style="stroke:#181818;stroke-width:0.5;" width="15" x="977.8798" y="184.3"/><rect fill="#F1F1F1" height="2" style="stroke:#181818;stroke-width:0.5;" width="4" x="975.8798" y="186.3"/><rect fill="#F1F1F1" height="2" style="stroke:#181818;stroke-width:0.5;" width="4" x="975.8798" y="190.3"/><text fill="#000000" font-family="sans-serif" font-size="14" lengthAdjust="spacing" textLength="143.7598" x="829.12" y="212.2951">Frontend Dashboard</text></g><!--entity Backend--><g class="entity" data-entity="Backend" data-source-line="2" data-uid="ent0003" id="entity_Backend"><rect fill="#F1F1F1" height="46.2969" rx="2.5" ry="2.5" style="stroke:#181818;stroke-width:0.5;" width="225.9922" x="822" y="302.6"/><rect fill="#F1F1F1" height="10" style="stroke:#181818;stroke-width:0.5;" width="15" x="1027.9922" y="307.6"/><rect fill="#F1F1F1" height="2" style="stroke:#181818;stroke-width:0.5;" width="4" x="1025.9922" y="309.6"/><rect fill="#F1F1F1" height="2" style="stroke:#181818;stroke-width:0.5;" width="4" x="1025.9922" y="313.6"/><text fill="#000000" font-family="sans-serif" font-size="14" lengthAdjust="spacing" textLength="185.9922" x="837" y="335.5951">Backend Analytical Engine</text></g><!--entity DataWarehouse--><g class="entity" data-entity="DataWarehouse" data-source-line="3" data-uid="ent0004" id="entity_DataWarehouse"><rect fill="#F1F1F1" height="46.2969" rx="2.5" ry="2.5" style="stroke:#181818;stroke-width:0.5;" width="156.8877" x="622.56" y="427.89"/><rect fill="#F1F1F1" height="10" style="stroke:#181818;stroke-width:0.5;" width="15" x="759.4477" y="432.89"/><rect fill="#F1F1F1" height="2" style="stroke:#181818;stroke-width:0.5;" width="4" x="757.4477" y="434.89"/><rect fill="#F1F1F1" height="2" style="stroke:#181818;stroke-width:0.5;" width="4" x="757.4477" y="438.89"/><text fill="#000000" font-family="sans-serif" font-size="14" lengthAdjust="spacing" textLength="116.8877" x="637.56" y="460.8851">Data Warehouse</text></g><!--entity NLPModule--><g class="entity" data-entity="NLPModule" data-source-line="4" data-uid="ent0005" id="entity_NLPModule"><rect fill="#F1F1F1" height="46.2969" rx="2.5" ry="2.5" style="stroke:#181818;stroke-width:0.5;" width="261.0195" x="828.49" y="427.89"/><rect fill="#F1F1F1" height="10" style="stroke:#181818;stroke-width:0.5;" width="15" x="1069.5095" y="432.89"/><rect fill="#F1F1F1" height="2" style="stroke:#181818;stroke-width:0.5;" width="4" x="1067.5095" y="434.89"/><rect fill="#F1F1F1" height="2" style="stroke:#181818;stroke-width:0.5;" width="4" x="1067.5095" y="438.89"/><text fill="#000000" font-family="sans-serif" font-size="14" lengthAdjust="spacing" textLength="221.0195" x="843.49" y="460.8851">NLP Sentiment Analysis Module</text></g><!--entity Etimad--><g class="entity" data-entity="Etimad" data-source-line="5" data-uid="ent0006" id="entity_Etimad"><rect fill="#F1F1F1" height="46.2969" rx="2.5" ry="2.5" style="stroke:#181818;stroke-width:0.5;" width="153.0664" x="1149.47" y="427.89"/><rect fill="#F1F1F1" height="10" style="stroke:#181818;stroke-width:0.5;" width="15" x="1282.5364" y="432.89"/><rect fill="#F1F1F1" height="2" style="stroke:#181818;stroke-width:0.5;" width="4" x="1280.5364" y="434.89"/><rect fill="#F1F1F1" height="2" style="stroke:#181818;stroke-width:0.5;" width="4" x="1280.5364" y="438.89"/><text fill="#000000" font-family="sans-serif" font-size="14" lengthAdjust="spacing" textLength="113.0664" x="1164.47" y="460.8851">Etimad Platform</text></g><!--entity User--><g class="entity" data-entity="User" data-source-line="7" data-uid="ent0007" id="entity_User"><ellipse cx="905.9951" cy="34.5" fill="#F1F1F1" rx="8" ry="8" style="stroke:#181818;stroke-width:0.5;"/><path d="M905.9951,42.5 L905.9951,69.5 M892.9951,50.5 L918.9951,50.5 M905.9951,69.5 L892.9951,84.5 M905.9951,69.5 L918.9951,84.5" fill="none" style="stroke:#181818;stroke-width:0.5;"/><text fill="#000000" font-family="sans-serif" font-size="14" lengthAdjust="spacing" textLength="31.9102" x="890.04" y="98.9951">User</text></g><!--link User to Frontend--><g class="link" data-entity-1="User" data-entity-2="Frontend" data-source-line="9" data-uid="lnk8" id="link_User_Frontend"><path d="M906,102.76 C906,127.18 906,152.21 906,172.89" fill="none" id="User-to-Frontend" style="stroke:#181818;stroke-width:1;"/><polygon fill="#181818" points="906,178.89,910,169.89,906,173.89,902,169.89,906,178.89" style="stroke:#181818;stroke-width:1;"/><text fill="#000000" font-family="sans-serif" font-size="13" lengthAdjust="spacing" textLength="89.21" x="907" y="145.3669">Interacts with</text></g><!--link Frontend to Backend--><g class="link" data-entity-1="Frontend" data-entity-2="Backend" data-source-line="10" data-uid="lnk9" id="link_Frontend_Backend"><path d="M860.32,225.87 C841.52,238.32 826.35,254.86 837,272.6 C844.49,285.07 850.9149,291.6838 863.5449,299.0938" fill="none" id="Frontend-to-Backend" style="stroke:#181818;stroke-width:1;"/><polygon fill="#181818" points="868.72,302.13,862.9815,294.1256,864.4074,299.5998,858.9332,301.0257,868.72,302.13" style="stroke:#181818;stroke-width:1;"/><text fill="#000000" font-family="sans-serif" font-size="13" lengthAdjust="spacing" textLength="109.7383" x="838" y="268.6669">RESTful API Calls</text></g><!--link Backend to Frontend--><g class="link" data-entity-1="Backend" data-entity-2="Frontend" data-source-line="15" data-uid="lnk14" id="link_Backend_Frontend"><path d="M947.3,302.22 C953.14,288.5 957.73,270.74 952,255.6 C947.82,244.53 944.2036,238.6578 936.2736,230.2378" fill="none" id="Backend-to-Frontend" style="stroke:#181818;stroke-width:1;"/><polygon fill="#181818" points="932.16,225.87,935.4186,235.1642,935.588,229.5099,941.2424,229.6793,932.16,225.87" style="stroke:#181818;stroke-width:1;"/><text fill="#000000" font-family="sans-serif" font-size="13" lengthAdjust="spacing" textLength="94.4658" x="955.62" y="268.6669">Sends Insights</text></g><!--link Backend to NLPModule--><g class="link" data-entity-1="Backend" data-entity-2="NLPModule" data-source-line="11" data-uid="lnk10" id="link_Backend_NLPModule"><path d="M930.89,349.17 C929.07,363.34 928.11,381.92 932,397.89 C934.51,408.19 936.5166,413.4903 941.4766,422.3803" fill="none" id="Backend-to-NLPModule" style="stroke:#181818;stroke-width:1;"/><polygon fill="#181818" points="944.4,427.62,943.5081,417.8116,941.9639,423.2536,936.5219,421.7094,944.4,427.62" style="stroke:#181818;stroke-width:1;"/><text fill="#000000" font-family="sans-serif" font-size="13" lengthAdjust="spacing" textLength="99.7725" x="933" y="393.9569">Processes Data</text></g><!--link NLPModule to Backend--><g class="link" data-entity-1="NLPModule" data-entity-2="Backend" data-source-line="12" data-uid="lnk11" id="link_NLPModule_Backend"><path d="M1011.9,427.53 C1032.16,415.45 1048.05,399.27 1037,380.89 C1028.89,367.41 1021.3771,360.0633 1007.6271,352.2533" fill="none" id="NLPModule-to-Backend" style="stroke:#181818;stroke-width:1;"/><polygon fill="#181818" points="1002.41,349.29,1008.2602,357.2131,1006.7576,351.7594,1012.2113,350.2569,1002.41,349.29" style="stroke:#181818;stroke-width:1;"/><text fill="#000000" font-family="sans-serif" font-size="13" lengthAdjust="spacing" textLength="108.418" x="1041.62" y="393.9569">Returns Analysis</text></g><!--link Backend to DataWarehouse--><g class="link" data-entity-1="Backend" data-entity-2="DataWarehouse" data-source-line="13" data-uid="lnk12" id="link_Backend_DataWarehouse"><path d="M855.9,349.38 C823.34,357.93 785.1,367.01 750,372.89 C739.99,374.57 665.86,373.41 659,380.89 C646.19,394.88 654.2923,409.1327 668.8623,423.4627" fill="none" id="Backend-to-DataWarehouse" style="stroke:#181818;stroke-width:1;"/><polygon fill="#181818" points="673.14,427.67,669.5283,418.5073,669.5752,424.1639,663.9186,424.2109,673.14,427.67" style="stroke:#181818;stroke-width:1;"/><text fill="#000000" font-family="sans-serif" font-size="13" lengthAdjust="spacing" textLength="93.0757" x="660" y="393.9569">Stores Results</text></g><!--link DataWarehouse to Backend--><g class="link" data-entity-1="DataWarehouse" data-entity-2="Backend" data-source-line="14" data-uid="lnk13" id="link_DataWarehouse_Backend"><path d="M739.74,427.5 C763.8,413.69 795.47,395.85 824,380.89 C844.51,370.14 862.065,361.425 881.755,351.935" fill="none" id="DataWarehouse-to-Backend" style="stroke:#181818;stroke-width:1;"/><polygon fill="#181818" points="887.16,349.33,877.3158,349.6342,882.6559,351.5009,880.7892,356.8409,887.16,349.33" style="stroke:#181818;stroke-width:1;"/><text fill="#000000" font-family="sans-serif" font-size="13" lengthAdjust="spacing" textLength="96.7192" x="825" y="393.9569">Retrieves Data</text></g><!--link Backend to Etimad--><g class="link" data-entity-1="Backend" data-entity-2="Etimad" data-source-line="16" data-uid="lnk15" id="link_Backend_Etimad"><path d="M1048.47,341.3 C1085.4,349.33 1125.48,361.74 1159,380.89 C1179.32,392.5 1193.7085,407.4094 1205.9685,422.7794" fill="none" id="Backend-to-Etimad" style="stroke:#181818;stroke-width:1;"/><polygon fill="#181818" points="1209.71,427.47,1207.2248,417.9398,1206.5921,423.5612,1200.9708,422.9285,1209.71,427.47" style="stroke:#181818;stroke-width:1;"/><text fill="#000000" font-family="sans-serif" font-size="13" lengthAdjust="spacing" textLength="98.3125" x="1181.24" y="393.9569">Integrates with</text></g><!--link Frontend Dashboard to Backend Analytical Engine--><g class="link" data-entity-1="Frontend Dashboard" data-entity-2="Backend Analytical Engine" data-source-line="19" data-uid="lnk19" id="link_Frontend Dashboard_Backend Analytical Engine"><path d="M324,87.66 C324,112.91 324,147.64 324,172.91" fill="none" id="Frontend Dashboard-to-Backend Analytical Engine" style="stroke:#181818;stroke-width:1;"/><polygon fill="#181818" points="324,178.91,328,169.91,324,173.91,320,169.91,324,178.91" style="stroke:#181818;stroke-width:1;"/></g><!--link Backend Analytical Engine to Data Warehouse--><g class="link" data-entity-1="Backend Analytical Engine" data-entity-2="Data Warehouse" data-source-line="20" data-uid="lnk21" id="link_Backend Analytical Engine_Data Warehouse"><path d="M324,225.98 C324,247.77 324,274.59 324,296.33" fill="none" id="Backend Analytical Engine-to-Data Warehouse" style="stroke:#181818;stroke-width:1;"/><polygon fill="#181818" points="324,302.33,328,293.33,324,297.33,320,293.33,324,302.33" style="stroke:#181818;stroke-width:1;"/></g><!--link Backend Analytical Engine to NLP Sentiment Analysis Module--><g class="link" data-entity-1="Backend Analytical Engine" data-entity-2="NLP Sentiment Analysis Module" data-source-line="21" data-uid="lnk23" id="link_Backend Analytical Engine_NLP Sentiment Analysis Module"><path d="M437.34,202.45 C448.99,202.45 454.64,202.45 466.29,202.45" fill="none" id="Backend Analytical Engine-to-NLP Sentiment Analysis Module" style="stroke:#181818;stroke-width:1;"/><polygon fill="#181818" points="472.29,202.45,463.29,198.45,467.29,202.45,463.29,206.45,472.29,202.45" style="stroke:#181818;stroke-width:1;"/></g><!--reverse link Etimad Platform to Backend Analytical Engine--><g class="link" data-entity-1="Etimad Platform" data-entity-2="Backend Analytical Engine" data-source-line="22" data-uid="lnk26" id="link_Etimad Platform_Backend Analytical Engine"><path d="M181.9,202.45 C193.47,202.45 199.04,202.45 210.61,202.45" fill="none" id="Etimad Platform-backto-Backend Analytical Engine" style="stroke:#181818;stroke-width:1;"/><polygon fill="#181818" points="175.9,202.45,184.9,206.45,180.9,202.45,184.9,198.45,175.9,202.45" style="stroke:#181818;stroke-width:1;"/></g><!--SRC=[ZLBDRi8m3BxdAQpUUG4EazXW4jA6Ahff1yGXIqqRBKrGd0wXQUy-fwMb1J7HGvNu-t4_ryfLUsVH1aYUlRC1RGvpIUMdapvFG19qPQ7Er4UflY9pPgKv1gsaWOKjjCL6SKA7WhaC4ZwanzBLrB9YgQyCkQkN538-wIfUcnQa2LvTNfjMoepsDfGjM21pI8qCE-UhXjZMX90gE0_9Ew5lwl4WH7p3PFBGHuGfBFdWcKvmqA4KFH9fNUefh1VPswusC4kNy2ID8T5XaTT_7ZDJxnGIOPjNdA4BGmorjzId7VcD9iNaZCEmuHgfDe746BxozHg_k_P3rq5eddPE79rqKOPnxzDKsy4KNWOyJKRicIKBX2GxKi0APbwLEg3Y8FoNVWJmixdUgIrCSdUmRBsvkKNRLdmRFtkC5-iEeOyPe_BVDRl3oE2kyRdOkwtu5Ny0]--></g></svg>