<svg xmlns="http://www.w3.org/2000/svg" xmlns:xlink="http://www.w3.org/1999/xlink" contentStyleType="text/css" data-diagram-type="SEQUENCE" height="298px" preserveAspectRatio="none" style="width:636px;height:298px;background:#FFFFFF;" version="1.1" viewBox="0 0 636 298" width="636px" zoomAndPan="magnify"><defs/><g><g><title>User</title><rect fill="#000000" fill-opacity="0.00000" height="136.5313" width="8" x="19.9551" y="81.2969"/><line style="stroke:#181818;stroke-width:0.5;stroke-dasharray:5,5;" x1="23" x2="23" y1="81.2969" y2="217.8281"/></g><g><title>CommunityExpectations</title><rect fill="#000000" fill-opacity="0.00000" height="136.5313" width="8" x="185.3047" y="81.2969"/><line style="stroke:#181818;stroke-width:0.5;stroke-dasharray:5,5;" x1="188.5376" x2="188.5376" y1="81.2969" y2="217.8281"/></g><g><title>Processor</title><rect fill="#000000" fill-opacity="0.00000" height="136.5313" width="8" x="347.0933" y="81.2969"/><line style="stroke:#181818;stroke-width:0.5;stroke-dasharray:5,5;" x1="350.1016" x2="350.1016" y1="81.2969" y2="217.8281"/></g><g><title>Recommendations</title><rect fill="#000000" fill-opacity="0.00000" height="136.5313" width="8" x="553.8423" y="81.2969"/><line style="stroke:#181818;stroke-width:0.5;stroke-dasharray:5,5;" x1="557.3711" x2="557.3711" y1="81.2969" y2="217.8281"/></g><g class="participant participant-head" data-participant="User"><text fill="#000000" font-family="sans-serif" font-size="14" lengthAdjust="spacing" textLength="31.9102" x="5" y="77.9951">User</text><ellipse cx="23.9551" cy="13.5" fill="#E2E2F0" rx="8" ry="8" style="stroke:#181818;stroke-width:0.5;"/><path d="M23.9551,21.5 L23.9551,48.5 M10.9551,29.5 L36.9551,29.5 M23.9551,48.5 L10.9551,63.5 M23.9551,48.5 L36.9551,63.5" fill="none" style="stroke:#181818;stroke-width:0.5;"/></g><g class="participant participant-tail" data-participant="User"><text fill="#000000" font-family="sans-serif" font-size="14" lengthAdjust="spacing" textLength="31.9102" x="5" y="229.8232">User</text><ellipse cx="23.9551" cy="241.625" fill="#E2E2F0" rx="8" ry="8" style="stroke:#181818;stroke-width:0.5;"/><path d="M23.9551,249.625 L23.9551,276.625 M10.9551,257.625 L36.9551,257.625 M23.9551,276.625 L10.9551,291.625 M23.9551,276.625 L36.9551,291.625" fill="none" style="stroke:#181818;stroke-width:0.5;"/></g><g class="participant participant-head" data-participant="CommunityExpectations"><rect fill="#E2E2F0" height="30.2969" rx="2.5" ry="2.5" style="stroke:#181818;stroke-width:0.5;" width="185.5342" x="96.5376" y="50"/><text fill="#000000" font-family="sans-serif" font-size="14" lengthAdjust="spacing" textLength="171.5342" x="103.5376" y="69.9951">CommunityExpectations</text></g><g class="participant participant-tail" data-participant="CommunityExpectations"><rect fill="#E2E2F0" height="30.2969" rx="2.5" ry="2.5" style="stroke:#181818;stroke-width:0.5;" width="185.5342" x="96.5376" y="216.8281"/><text fill="#000000" font-family="sans-serif" font-size="14" lengthAdjust="spacing" textLength="171.5342" x="103.5376" y="236.8232">CommunityExpectations</text></g><g class="participant participant-head" data-participant="Processor"><rect fill="#E2E2F0" height="30.2969" rx="2.5" ry="2.5" style="stroke:#181818;stroke-width:0.5;" width="81.9834" x="310.1016" y="50"/><text fill="#000000" font-family="sans-serif" font-size="14" lengthAdjust="spacing" textLength="67.9834" x="317.1016" y="69.9951">Processor</text></g><g class="participant participant-tail" data-participant="Processor"><rect fill="#E2E2F0" height="30.2969" rx="2.5" ry="2.5" style="stroke:#181818;stroke-width:0.5;" width="81.9834" x="310.1016" y="216.8281"/><text fill="#000000" font-family="sans-serif" font-size="14" lengthAdjust="spacing" textLength="67.9834" x="317.1016" y="236.8232">Processor</text></g><g class="participant participant-head" data-participant="Recommendations"><rect fill="#E2E2F0" height="30.2969" rx="2.5" ry="2.5" style="stroke:#181818;stroke-width:0.5;" width="144.9424" x="485.3711" y="50"/><text fill="#000000" font-family="sans-serif" font-size="14" lengthAdjust="spacing" textLength="130.9424" x="492.3711" y="69.9951">Recommendations</text></g><g class="participant participant-tail" data-participant="Recommendations"><rect fill="#E2E2F0" height="30.2969" rx="2.5" ry="2.5" style="stroke:#181818;stroke-width:0.5;" width="144.9424" x="485.3711" y="216.8281"/><text fill="#000000" font-family="sans-serif" font-size="14" lengthAdjust="spacing" textLength="130.9424" x="492.3711" y="236.8232">Recommendations</text></g><g class="message" data-participant-1="User" data-participant-2="CommunityExpectations"><polygon fill="#181818" points="177.3047,108.4297,187.3047,112.4297,177.3047,116.4297,181.3047,112.4297" style="stroke:#181818;stroke-width:1;"/><line style="stroke:#181818;stroke-width:1;" x1="23.9551" x2="183.3047" y1="112.4297" y2="112.4297"/><text fill="#000000" font-family="sans-serif" font-size="13" lengthAdjust="spacing" textLength="141.3496" x="30.9551" y="107.3638">Request expectations</text></g><g class="message" data-participant-1="CommunityExpectations" data-participant-2="Processor"><polygon fill="#181818" points="339.0933,137.5625,349.0933,141.5625,339.0933,145.5625,343.0933,141.5625" style="stroke:#181818;stroke-width:1;"/><line style="stroke:#181818;stroke-width:1;" x1="189.3047" x2="345.0933" y1="141.5625" y2="141.5625"/><text fill="#000000" font-family="sans-serif" font-size="13" lengthAdjust="spacing" textLength="137.7886" x="196.3047" y="136.4966">Process expectations</text></g><g class="message" data-participant-1="Processor" data-participant-2="Recommendations"><polygon fill="#181818" points="545.8423,166.6953,555.8423,170.6953,545.8423,174.6953,549.8423,170.6953" style="stroke:#181818;stroke-width:1;"/><line style="stroke:#181818;stroke-width:1;" x1="351.0933" x2="551.8423" y1="170.6953" y2="170.6953"/><text fill="#000000" font-family="sans-serif" font-size="13" lengthAdjust="spacing" textLength="182.749" x="358.0933" y="165.6294">Generate recommendations</text></g><g class="message" data-participant-1="Recommendations" data-participant-2="User"><polygon fill="#181818" points="34.9551,195.8281,24.9551,199.8281,34.9551,203.8281,30.9551,199.8281" style="stroke:#181818;stroke-width:1;"/><line style="stroke:#181818;stroke-width:1;" x1="28.9551" x2="556.8423" y1="199.8281" y2="199.8281"/><text fill="#000000" font-family="sans-serif" font-size="13" lengthAdjust="spacing" textLength="170.7266" x="40.9551" y="194.7622">Provide recommendations</text></g><!--SRC=[IqmkoIzI22rEBUBY0f4AkdOAplcvkQLvcIMLhXK5gSabYIMP-Nd5LWf1gOMbgSKb2gb8ebnOrO8C2IZAJqujBiulie8nKJN2vK6AWrAJWUQavgN0x79FpKijIYn9LIX2bU52KmdI378ss9Aop1GC3G00]--></g></svg>