<svg xmlns="http://www.w3.org/2000/svg" xmlns:xlink="http://www.w3.org/1999/xlink" contentStyleType="text/css" data-diagram-type="DESCRIPTION" height="322px" preserveAspectRatio="none" style="width:795px;height:322px;background:#FFFFFF;" version="1.1" viewBox="0 0 795 322" width="795px" zoomAndPan="magnify"><defs/><g><!--cluster Social Media Integration System--><g class="cluster" data-entity="Social Media Integration System" data-source-line="1" data-uid="ent0002" id="cluster_Social Media Integration System"><path d="M8.5,6 L265.9912,6 A3.75,3.75 0 0 1 268.4912,8.5 L275.4912,28.2969 L785.5,28.2969 A2.5,2.5 0 0 1 788,30.7969 L788,313.39 A2.5,2.5 0 0 1 785.5,315.89 L8.5,315.89 A2.5,2.5 0 0 1 6,313.39 L6,8.5 A2.5,2.5 0 0 1 8.5,6" fill="none" style="stroke:#000000;stroke-width:1.5;"/><line style="stroke:#000000;stroke-width:1.5;" x1="6" x2="275.4912" y1="28.2969" y2="28.2969"/><text fill="#000000" font-family="sans-serif" font-size="14" font-weight="bold" lengthAdjust="spacing" textLength="256.4912" x="10" y="20.9951">Social Media Integration System</text></g><!--entity Social Media Integration Module--><g class="entity" data-entity="Social Media Integration Module" data-source-line="3" data-uid="ent0003" id="entity_Social Media Integration Module"><rect fill="#F1F1F1" height="46.2969" rx="2.5" ry="2.5" style="stroke:#181818;stroke-width:0.5;" width="264.957" x="153.52" y="41"/><rect fill="#F1F1F1" height="10" style="stroke:#181818;stroke-width:0.5;" width="15" x="398.477" y="46"/><rect fill="#F1F1F1" height="2" style="stroke:#181818;stroke-width:0.5;" width="4" x="396.477" y="48"/><rect fill="#F1F1F1" height="2" style="stroke:#181818;stroke-width:0.5;" width="4" x="396.477" y="52"/><text fill="#000000" font-family="sans-serif" font-size="14" lengthAdjust="spacing" textLength="224.957" x="168.52" y="73.9951">Social Media Integration Module</text></g><!--entity Facebook API--><g class="entity" data-entity="Facebook API" data-source-line="3" data-uid="ent0004" id="entity_Facebook API"><rect fill="#F1F1F1" height="46.2969" rx="2.5" ry="2.5" style="stroke:#181818;stroke-width:0.5;" width="133.666" x="22.17" y="253.59"/><rect fill="#F1F1F1" height="10" style="stroke:#181818;stroke-width:0.5;" width="15" x="135.836" y="258.59"/><rect fill="#F1F1F1" height="2" style="stroke:#181818;stroke-width:0.5;" width="4" x="133.836" y="260.59"/><rect fill="#F1F1F1" height="2" style="stroke:#181818;stroke-width:0.5;" width="4" x="133.836" y="264.59"/><text fill="#000000" font-family="sans-serif" font-size="14" lengthAdjust="spacing" textLength="93.666" x="37.17" y="286.5851">Facebook API</text></g><!--entity Twitter API--><g class="entity" data-entity="Twitter API" data-source-line="4" data-uid="ent0006" id="entity_Twitter API"><rect fill="#F1F1F1" height="46.2969" rx="2.5" ry="2.5" style="stroke:#181818;stroke-width:0.5;" width="115.8379" x="322.08" y="147.3"/><rect fill="#F1F1F1" height="10" style="stroke:#181818;stroke-width:0.5;" width="15" x="417.9179" y="152.3"/><rect fill="#F1F1F1" height="2" style="stroke:#181818;stroke-width:0.5;" width="4" x="415.9179" y="154.3"/><rect fill="#F1F1F1" height="2" style="stroke:#181818;stroke-width:0.5;" width="4" x="415.9179" y="158.3"/><text fill="#000000" font-family="sans-serif" font-size="14" lengthAdjust="spacing" textLength="75.8379" x="337.08" y="180.2951">Twitter API</text></g><!--entity LinkedIn API--><g class="entity" data-entity="LinkedIn API" data-source-line="5" data-uid="ent0008" id="entity_LinkedIn API"><rect fill="#F1F1F1" height="46.2969" rx="2.5" ry="2.5" style="stroke:#181818;stroke-width:0.5;" width="125.7705" x="473.11" y="147.3"/><rect fill="#F1F1F1" height="10" style="stroke:#181818;stroke-width:0.5;" width="15" x="578.8805" y="152.3"/><rect fill="#F1F1F1" height="2" style="stroke:#181818;stroke-width:0.5;" width="4" x="576.8805" y="154.3"/><rect fill="#F1F1F1" height="2" style="stroke:#181818;stroke-width:0.5;" width="4" x="576.8805" y="158.3"/><text fill="#000000" font-family="sans-serif" font-size="14" lengthAdjust="spacing" textLength="85.7705" x="488.11" y="180.2951">LinkedIn API</text></g><!--entity Instagram API--><g class="entity" data-entity="Instagram API" data-source-line="6" data-uid="ent0010" id="entity_Instagram API"><rect fill="#F1F1F1" height="46.2969" rx="2.5" ry="2.5" style="stroke:#181818;stroke-width:0.5;" width="137.8223" x="634.09" y="147.3"/><rect fill="#F1F1F1" height="10" style="stroke:#181818;stroke-width:0.5;" width="15" x="751.9123" y="152.3"/><rect fill="#F1F1F1" height="2" style="stroke:#181818;stroke-width:0.5;" width="4" x="749.9123" y="154.3"/><rect fill="#F1F1F1" height="2" style="stroke:#181818;stroke-width:0.5;" width="4" x="749.9123" y="158.3"/><text fill="#000000" font-family="sans-serif" font-size="14" lengthAdjust="spacing" textLength="97.8223" x="649.09" y="180.2951">Instagram API</text></g><!--entity Analysis Module--><g class="entity" data-entity="Analysis Module" data-source-line="8" data-uid="ent0012" id="entity_Analysis Module"><rect fill="#F1F1F1" height="46.2969" rx="2.5" ry="2.5" style="stroke:#181818;stroke-width:0.5;" width="153.0391" x="96.48" y="147.3"/><rect fill="#F1F1F1" height="10" style="stroke:#181818;stroke-width:0.5;" width="15" x="229.5191" y="152.3"/><rect fill="#F1F1F1" height="2" style="stroke:#181818;stroke-width:0.5;" width="4" x="227.5191" y="154.3"/><rect fill="#F1F1F1" height="2" style="stroke:#181818;stroke-width:0.5;" width="4" x="227.5191" y="158.3"/><text fill="#000000" font-family="sans-serif" font-size="14" lengthAdjust="spacing" textLength="113.0391" x="111.48" y="180.2951">Analysis Module</text></g><!--entity User Dashboard--><g class="entity" data-entity="User Dashboard" data-source-line="9" data-uid="ent0014" id="entity_User Dashboard"><rect fill="#F1F1F1" height="46.2969" rx="2.5" ry="2.5" style="stroke:#181818;stroke-width:0.5;" width="152.5605" x="190.72" y="253.59"/><rect fill="#F1F1F1" height="10" style="stroke:#181818;stroke-width:0.5;" width="15" x="323.2805" y="258.59"/><rect fill="#F1F1F1" height="2" style="stroke:#181818;stroke-width:0.5;" width="4" x="321.2805" y="260.59"/><rect fill="#F1F1F1" height="2" style="stroke:#181818;stroke-width:0.5;" width="4" x="321.2805" y="264.59"/><text fill="#000000" font-family="sans-serif" font-size="14" lengthAdjust="spacing" textLength="112.5605" x="205.72" y="286.5851">User Dashboard</text></g><!--entity External System--><g class="entity" data-entity="External System" data-source-line="13" data-uid="ent0017" id="entity_External System"><rect fill="#F1F1F1" height="46.2969" rx="2.5" ry="2.5" style="stroke:#181818;stroke-width:0.5;" width="154.9873" x="520.51" y="253.59"/><rect fill="#F1F1F1" height="10" style="stroke:#181818;stroke-width:0.5;" width="15" x="655.4973" y="258.59"/><rect fill="#F1F1F1" height="2" style="stroke:#181818;stroke-width:0.5;" width="4" x="653.4973" y="260.59"/><rect fill="#F1F1F1" height="2" style="stroke:#181818;stroke-width:0.5;" width="4" x="653.4973" y="264.59"/><text fill="#000000" font-family="sans-serif" font-size="14" lengthAdjust="spacing" textLength="114.9873" x="535.51" y="286.5851">External System</text></g><!--entity Database--><g class="entity" data-entity="Database" data-source-line="18" data-uid="ent0022" id="entity_Database"><rect fill="#F1F1F1" height="46.2969" rx="2.5" ry="2.5" style="stroke:#181818;stroke-width:0.5;" width="106.8008" x="378.6" y="253.59"/><rect fill="#F1F1F1" height="10" style="stroke:#181818;stroke-width:0.5;" width="15" x="465.4008" y="258.59"/><rect fill="#F1F1F1" height="2" style="stroke:#181818;stroke-width:0.5;" width="4" x="463.4008" y="260.59"/><rect fill="#F1F1F1" height="2" style="stroke:#181818;stroke-width:0.5;" width="4" x="463.4008" y="264.59"/><text fill="#000000" font-family="sans-serif" font-size="14" lengthAdjust="spacing" textLength="66.8008" x="393.6" y="286.5851">Database</text></g><!--link Social Media Integration Module to Facebook API--><g class="link" data-entity-1="Social Media Integration Module" data-entity-2="Facebook API" data-source-line="3" data-uid="lnk5" id="link_Social Media Integration Module_Facebook API"><path d="M153.1,85.22 C117.75,97.29 83.46,116.56 62,147.3 C39.69,179.24 56.2853,220.5923 71.7253,248.0023" fill="none" id="Social Media Integration Module-to-Facebook API" style="stroke:#181818;stroke-width:1;"/><polygon fill="#181818" points="74.67,253.23,73.738,243.4253,72.2161,248.8736,66.7678,247.3517,74.67,253.23" style="stroke:#181818;stroke-width:1;"/></g><!--link Social Media Integration Module to Twitter API--><g class="link" data-entity-1="Social Media Integration Module" data-entity-2="Twitter API" data-source-line="4" data-uid="lnk7" id="link_Social Media Integration Module_Twitter API"><path d="M306.4,87.78 C322.16,105.27 339.8737,124.9225 355.6237,142.4025" fill="none" id="Social Media Integration Module-to-Twitter API" style="stroke:#181818;stroke-width:1;"/><polygon fill="#181818" points="359.64,146.86,356.5872,137.4962,356.2931,143.1454,350.6439,142.8513,359.64,146.86" style="stroke:#181818;stroke-width:1;"/></g><!--link Social Media Integration Module to LinkedIn API--><g class="link" data-entity-1="Social Media Integration Module" data-entity-2="LinkedIn API" data-source-line="5" data-uid="lnk9" id="link_Social Media Integration Module_LinkedIn API"><path d="M340.25,87.78 C382.18,105.27 434.4124,127.0703 476.3224,144.5503" fill="none" id="Social Media Integration Module-to-LinkedIn API" style="stroke:#181818;stroke-width:1;"/><polygon fill="#181818" points="481.86,146.86,475.0933,139.7037,477.2453,144.9353,472.0138,147.0873,481.86,146.86" style="stroke:#181818;stroke-width:1;"/></g><!--link Social Media Integration Module to Instagram API--><g class="link" data-entity-1="Social Media Integration Module" data-entity-2="Instagram API" data-source-line="6" data-uid="lnk11" id="link_Social Media Integration Module_Instagram API"><path d="M377.43,87.77 C443.69,104.2 535.42,127.01 616,147.3 C621.74,148.74 621.8826,148.7811 627.8626,150.2911" fill="none" id="Social Media Integration Module-to-Instagram API" style="stroke:#181818;stroke-width:1;"/><polygon fill="#181818" points="633.68,151.76,625.9332,145.6783,628.8322,150.5359,623.9746,153.4349,633.68,151.76" style="stroke:#181818;stroke-width:1;"/></g><!--link Social Media Integration Module to Analysis Module--><g class="link" data-entity-1="Social Media Integration Module" data-entity-2="Analysis Module" data-source-line="8" data-uid="lnk13" id="link_Social Media Integration Module_Analysis Module"><path d="M261.48,87.78 C242.53,105.27 220.8192,125.3107 201.8792,142.7907" fill="none" id="Social Media Integration Module-to-Analysis Module" style="stroke:#181818;stroke-width:1;"/><polygon fill="#181818" points="197.47,146.86,206.7966,143.6955,201.1443,143.4689,201.3709,137.8166,197.47,146.86" style="stroke:#181818;stroke-width:1;"/></g><!--link Analysis Module to User Dashboard--><g class="link" data-entity-1="Analysis Module" data-entity-2="User Dashboard" data-source-line="9" data-uid="lnk15" id="link_Analysis Module_User Dashboard"><path d="M193.4,194.08 C209.16,211.57 226.8737,231.2125 242.6237,248.6925" fill="none" id="Analysis Module-to-User Dashboard" style="stroke:#181818;stroke-width:1;"/><polygon fill="#181818" points="246.64,253.15,243.5872,243.7862,243.2931,249.4354,237.6439,249.1413,246.64,253.15" style="stroke:#181818;stroke-width:1;"/></g><!--link User Dashboard to Social Media Integration Module--><g class="link" data-entity-1="User Dashboard" data-entity-2="Social Media Integration Module" data-source-line="11" data-uid="lnk16" id="link_User Dashboard_Social Media Integration Module"><path d="M190.33,256.5 C124,235.9 43.86,199.05 79,147.3 C98.49,118.59 124.1422,102.0173 156.5322,89.8673" fill="none" id="User Dashboard-to-Social Media Integration Module" style="stroke:#181818;stroke-width:1;"/><polygon fill="#181818" points="162.15,87.76,152.3185,87.1758,157.4685,89.5161,155.1282,94.6661,162.15,87.76" style="stroke:#181818;stroke-width:1;"/></g><!--link Facebook API to External System--><g class="link" data-entity-1="Facebook API" data-entity-2="External System" data-source-line="13" data-uid="lnk18" id="link_Facebook API_External System"><path d="M123.48,253.34 C142.38,241.93 166.74,229.44 190.5,223.59 C317.82,192.28 357.57,194.89 485.5,223.59 C511.32,229.39 538.19,241.8 559.19,253.18" fill="none" id="Facebook API-External System" style="stroke:#181818;stroke-width:1;"/></g><!--link Twitter API to External System--><g class="link" data-entity-1="Twitter API" data-entity-2="External System" data-source-line="14" data-uid="lnk19" id="link_Twitter API_External System"><path d="M427.3,194.08 C463.87,211.57 514.25,235.67 550.79,253.15" fill="none" id="Twitter API-External System" style="stroke:#181818;stroke-width:1;"/></g><!--link LinkedIn API to External System--><g class="link" data-entity-1="LinkedIn API" data-entity-2="External System" data-source-line="15" data-uid="lnk20" id="link_LinkedIn API_External System"><path d="M549.45,194.08 C559.85,211.57 574.18,235.67 584.57,253.15" fill="none" id="LinkedIn API-External System" style="stroke:#181818;stroke-width:1;"/></g><!--link Instagram API to External System--><g class="link" data-entity-1="Instagram API" data-entity-2="External System" data-source-line="16" data-uid="lnk21" id="link_Instagram API_External System"><path d="M680.22,194.08 C662.6,211.57 638.34,235.67 620.74,253.15" fill="none" id="Instagram API-External System" style="stroke:#181818;stroke-width:1;"/></g><!--link Social Media Integration Module to Database--><g class="link" data-entity-1="Social Media Integration Module" data-entity-2="Database" data-source-line="18" data-uid="lnk23" id="link_Social Media Integration Module_Database"><path d="M283.99,87.5 C282.67,114.76 284.14,161.18 305,193.59 C322.33,220.53 351.99,240.45 378.29,253.93" fill="none" id="Social Media Integration Module-Database" style="stroke:#181818;stroke-width:1;"/></g><!--link Analysis Module to Database--><g class="link" data-entity-1="Analysis Module" data-entity-2="Database" data-source-line="19" data-uid="lnk24" id="link_Analysis Module_Database"><path d="M229.2,194.08 C273.39,211.87 334.55,236.5 378.13,254.05" fill="none" id="Analysis Module-Database" style="stroke:#181818;stroke-width:1;"/></g><!--link User Dashboard to Database--><g class="link" data-entity-1="User Dashboard" data-entity-2="Database" data-source-line="20" data-uid="lnk25" id="link_User Dashboard_Database"><path d="M343.7,276.74 C355.2,276.74 366.69,276.74 378.19,276.74" fill="none" id="User Dashboard-Database" style="stroke:#181818;stroke-width:1;"/></g><!--link Database to External System--><g class="link" data-entity-1="Database" data-entity-2="External System" data-source-line="22" data-uid="lnk26" id="link_Database_External System"><path d="M485.82,276.74 C497.36,276.74 508.9,276.74 520.44,276.74" fill="none" id="Database-External System" style="stroke:#181818;stroke-width:1;"/></g><!--SRC=[bP7H2e8m58RlUug3zxv285WmI0Yig-75KOSDTGktA8dUlPaQpHefx6RdV3_dxDiPin8B1buiCuuLH2pd24HeLZIekHGGjqgpseFx2i0SwWGZcLygbe3lhu5kCMEfb2K4UvBCZnskN6lMB4pjk2XPJiJ2615Ae-dKOsv-D11OjOghiTebfxMUF2hpd13LAPNOvEEKIRL7_uqUifPQy85kRaQP6JvyrMkPJv4knjBcWcn93cgUEA0XQanHkNnDW2z9Thz3tlUVYpsU]--></g></svg>