<svg xmlns="http://www.w3.org/2000/svg" xmlns:xlink="http://www.w3.org/1999/xlink" contentStyleType="text/css" data-diagram-type="DESCRIPTION" height="218px" preserveAspectRatio="none" style="width:2058px;height:218px;background:#FFFFFF;" version="1.1" viewBox="0 0 2058 218" width="2058px" zoomAndPan="magnify"><defs/><g><!--entity MarketingAnalyst--><g class="entity" data-entity="MarketingAnalyst" data-source-line="1" data-uid="ent0002" id="entity_MarketingAnalyst"><ellipse cx="556.0393" cy="14" fill="#F1F1F1" rx="8" ry="8" style="stroke:#181818;stroke-width:0.5;"/><path d="M556.0393,22 L556.0393,49 M543.0393,30 L569.0393,30 M556.0393,49 L543.0393,64 M556.0393,49 L569.0393,64" fill="none" style="stroke:#181818;stroke-width:0.5;"/><text fill="#000000" font-family="sans-serif" font-size="14" lengthAdjust="spacing" textLength="181.1387" x="465.47" y="78.4951">&#1605;&#1581;&#1604;&#1604; &#1575;&#1604;&#1578;&#1587;&#1608;&#1610;&#1602; &#1608;&#1575;&#1604;&#1593;&#1604;&#1575;&#1602;&#1575;&#1578; &#1575;&#1604;&#1593;&#1575;&#1605;&#1577;</text></g><!--entity SocialMediaPlatforms--><g class="entity" data-entity="SocialMediaPlatforms" data-source-line="2" data-uid="ent0003" id="entity_SocialMediaPlatforms"><ellipse cx="1424.0329" cy="14" fill="#F1F1F1" rx="8" ry="8" style="stroke:#181818;stroke-width:0.5;"/><path d="M1424.0329,22 L1424.0329,49 M1411.0329,30 L1437.0329,30 M1424.0329,49 L1411.0329,64 M1424.0329,49 L1437.0329,64" fill="none" style="stroke:#181818;stroke-width:0.5;"/><text fill="#000000" font-family="sans-serif" font-size="14" lengthAdjust="spacing" textLength="402.4658" x="1222.8" y="78.4951">&#1605;&#1606;&#1589;&#1575;&#1578; &#1575;&#1604;&#1578;&#1608;&#1575;&#1589;&#1604; &#1575;&#1604;&#1575;&#1580;&#1578;&#1605;&#1575;&#1593;&#1610; (Facebook, X, LinkedIn, Instagram)</text></g><!--entity DataScientist--><g class="entity" data-entity="DataScientist" data-source-line="3" data-uid="ent0004" id="entity_DataScientist"><ellipse cx="1820.0383" cy="14" fill="#F1F1F1" rx="8" ry="8" style="stroke:#181818;stroke-width:0.5;"/><path d="M1820.0383,22 L1820.0383,49 M1807.0383,30 L1833.0383,30 M1820.0383,49 L1807.0383,64 M1820.0383,49 L1833.0383,64" fill="none" style="stroke:#181818;stroke-width:0.5;"/><text fill="#000000" font-family="sans-serif" font-size="14" lengthAdjust="spacing" textLength="156.0166" x="1742.03" y="78.4951">&#1593;&#1575;&#1604;&#1605; &#1575;&#1604;&#1576;&#1610;&#1575;&#1606;&#1575;&#1578;/&#1605;&#1581;&#1604;&#1604; &#1575;&#1604;&#1576;&#1610;&#1575;&#1606;&#1575;&#1578;</text></g><!--entity UC_CollectMentions--><g class="entity" data-entity="UC_CollectMentions" data-source-line="5" data-uid="ent0005" id="entity_UC_CollectMentions"><ellipse cx="1237.0388" cy="185.5798" fill="#F1F1F1" rx="73.8988" ry="17.1798" style="stroke:#181818;stroke-width:0.5;"/><text fill="#000000" font-family="sans-serif" font-size="14" lengthAdjust="spacing" textLength="116.0469" x="1179.0154" y="190.2282">Collect Mentions</text></g><!--entity UC_DetectLanguage--><g class="entity" data-entity="UC_DetectLanguage" data-source-line="6" data-uid="ent0006" id="entity_UC_DetectLanguage"><ellipse cx="1052.0379" cy="185.5836" fill="#F1F1F1" rx="75.6179" ry="17.5236" style="stroke:#181818;stroke-width:0.5;"/><text fill="#000000" font-family="sans-serif" font-size="14" lengthAdjust="spacing" textLength="120.2236" x="991.9261" y="190.232">Detect Language</text></g><!--entity UC_ScoreSentiment--><g class="entity" data-entity="UC_ScoreSentiment" data-source-line="7" data-uid="ent0007" id="entity_UC_ScoreSentiment"><ellipse cx="325.0364" cy="185.5833" fill="#F1F1F1" rx="74.0164" ry="17.2033" style="stroke:#181818;stroke-width:0.5;"/><text fill="#000000" font-family="sans-serif" font-size="14" lengthAdjust="spacing" textLength="116.334" x="266.8694" y="190.2317">Score Sentiment</text></g><!--entity UC_ExtractEntitiesTopics--><g class="entity" data-entity="UC_ExtractEntitiesTopics" data-source-line="8" data-uid="ent0008" id="entity_UC_ExtractEntitiesTopics"><ellipse cx="111.0367" cy="185.5773" fill="#F1F1F1" rx="105.0367" ry="23.4073" style="stroke:#181818;stroke-width:0.5;"/><text fill="#000000" font-family="sans-serif" font-size="14" lengthAdjust="spacing" textLength="187.0996" x="17.4869" y="190.2258">Extract Entities and Topics</text></g><!--entity UC_ConfigureNegativeSpikeAlerts--><g class="entity" data-entity="UC_ConfigureNegativeSpikeAlerts" data-source-line="9" data-uid="ent0009" id="entity_UC_ConfigureNegativeSpikeAlerts"><ellipse cx="556.0419" cy="185.5844" fill="#F1F1F1" rx="121.8719" ry="26.7744" style="stroke:#181818;stroke-width:0.5;"/><text fill="#000000" font-family="sans-serif" font-size="14" lengthAdjust="spacing" textLength="223.3438" x="444.37" y="190.2328">Configure Negative Spike Alerts</text></g><!--entity UC_ProvideContentMetadata--><g class="entity" data-entity="UC_ProvideContentMetadata" data-source-line="10" data-uid="ent0010" id="entity_UC_ProvideContentMetadata"><ellipse cx="1449.0435" cy="185.5807" fill="#F1F1F1" rx="103.3035" ry="23.0607" style="stroke:#181818;stroke-width:0.5;"/><text fill="#000000" font-family="sans-serif" font-size="14" lengthAdjust="spacing" textLength="183.3125" x="1357.3873" y="190.2291">Provide Content Metadata</text></g><!--entity UC_ConfigureDomainLexicons--><g class="entity" data-entity="UC_ConfigureDomainLexicons" data-source-line="11" data-uid="ent0011" id="entity_UC_ConfigureDomainLexicons"><ellipse cx="1945.0438" cy="185.5848" fill="#F1F1F1" rx="107.4738" ry="23.8948" style="stroke:#181818;stroke-width:0.5;"/><text fill="#000000" font-family="sans-serif" font-size="14" lengthAdjust="spacing" textLength="192.4043" x="1848.8417" y="190.2332">Configure Domain Lexicons</text></g><!--entity UC_EvaluateSentimentQuality--><g class="entity" data-entity="UC_EvaluateSentimentQuality" data-source-line="12" data-uid="ent0012" id="entity_UC_EvaluateSentimentQuality"><ellipse cx="1695.0427" cy="185.5785" fill="#F1F1F1" rx="107.4927" ry="23.8985" style="stroke:#181818;stroke-width:0.5;"/><text fill="#000000" font-family="sans-serif" font-size="14" lengthAdjust="spacing" textLength="192.4453" x="1598.82" y="190.227">Evaluate Sentiment Quality</text></g><!--entity UC_NotifyStakeholders--><g class="entity" data-entity="UC_NotifyStakeholders" data-source-line="13" data-uid="ent0013" id="entity_UC_NotifyStakeholders"><ellipse cx="858.0435" cy="185.5847" fill="#F1F1F1" rx="82.9735" ry="18.9947" style="stroke:#181818;stroke-width:0.5;"/><text fill="#000000" font-family="sans-serif" font-size="14" lengthAdjust="spacing" textLength="137.6348" x="789.2261" y="190.2331">Notify Stakeholders</text></g><!--link MarketingAnalyst to UC_CollectMentions--><g class="link" data-entity-1="MarketingAnalyst" data-entity-2="UC_CollectMentions" data-source-line="15" data-uid="lnk14" id="link_MarketingAnalyst_UC_CollectMentions"><path d="M647.09,59.92 C763.24,79.94 970.06,117.41 1145.04,158.8 C1160.69,162.51 1171.918,165.4618 1186.998,169.7418" fill="none" id="MarketingAnalyst-to-UC_CollectMentions" style="stroke:#181818;stroke-width:1;"/><polygon fill="#181818" points="1192.77,171.38,1185.2041,165.0747,1187.96,170.0148,1183.0198,172.7707,1192.77,171.38" style="stroke:#181818;stroke-width:1;"/></g><!--link MarketingAnalyst to UC_DetectLanguage--><g class="link" data-entity-1="MarketingAnalyst" data-entity-2="UC_DetectLanguage" data-source-line="16" data-uid="lnk15" id="link_MarketingAnalyst_UC_DetectLanguage"><path d="M647.01,70.32 C752.87,100.18 917.7853,146.7011 999.6053,169.7811" fill="none" id="MarketingAnalyst-to-UC_DetectLanguage" style="stroke:#181818;stroke-width:1;"/><polygon fill="#181818" points="1005.38,171.41,997.804,165.1168,1000.5678,170.0526,995.6321,172.8164,1005.38,171.41" style="stroke:#181818;stroke-width:1;"/></g><!--link MarketingAnalyst to UC_ScoreSentiment--><g class="link" data-entity-1="MarketingAnalyst" data-entity-2="UC_ScoreSentiment" data-source-line="17" data-uid="lnk16" id="link_MarketingAnalyst_UC_ScoreSentiment"><path d="M494.13,82.15 C447.22,110.56 390.292,145.0515 355.902,165.8815" fill="none" id="MarketingAnalyst-to-UC_ScoreSentiment" style="stroke:#181818;stroke-width:1;"/><polygon fill="#181818" points="350.77,168.99,360.5403,167.7487,355.0467,166.3996,356.3957,160.906,350.77,168.99" style="stroke:#181818;stroke-width:1;"/></g><!--link MarketingAnalyst to UC_ExtractEntitiesTopics--><g class="link" data-entity-1="MarketingAnalyst" data-entity-2="UC_ExtractEntitiesTopics" data-source-line="18" data-uid="lnk17" id="link_MarketingAnalyst_UC_ExtractEntitiesTopics"><path d="M465.18,73.22 C377.1,100.92 251.7639,140.3309 176.2339,164.0709" fill="none" id="MarketingAnalyst-to-UC_ExtractEntitiesTopics" style="stroke:#181818;stroke-width:1;"/><polygon fill="#181818" points="170.51,165.87,180.2953,166.9873,175.2799,164.3708,177.8965,159.3554,170.51,165.87" style="stroke:#181818;stroke-width:1;"/></g><!--link MarketingAnalyst to UC_ConfigureNegativeSpikeAlerts--><g class="link" data-entity-1="MarketingAnalyst" data-entity-2="UC_ConfigureNegativeSpikeAlerts" data-source-line="19" data-uid="lnk18" id="link_MarketingAnalyst_UC_ConfigureNegativeSpikeAlerts"><path d="M556.04,82.15 C556.04,106.27 556.04,131.01 556.04,152.5" fill="none" id="MarketingAnalyst-to-UC_ConfigureNegativeSpikeAlerts" style="stroke:#181818;stroke-width:1;"/><polygon fill="#181818" points="556.04,158.5,560.04,149.5,556.04,153.5,552.04,149.5,556.04,158.5" style="stroke:#181818;stroke-width:1;"/></g><!--link SocialMediaPlatforms to UC_CollectMentions--><g class="link" data-entity-1="SocialMediaPlatforms" data-entity-2="UC_CollectMentions" data-source-line="21" data-uid="lnk19" id="link_SocialMediaPlatforms_UC_CollectMentions"><path d="M1409.46,81.97 C1401.59,98.14 1390.49,116.2 1376.04,128.8 C1351.14,150.5 1322.4878,162.6787 1294.1378,171.1687" fill="none" id="SocialMediaPlatforms-to-UC_CollectMentions" style="stroke:#181818;stroke-width:1;"/><polygon fill="#181818" points="1288.39,172.89,1298.1592,174.1399,1293.1798,171.4556,1295.8642,166.4762,1288.39,172.89" style="stroke:#181818;stroke-width:1;"/></g><!--link SocialMediaPlatforms to UC_ProvideContentMetadata--><g class="link" data-entity-1="SocialMediaPlatforms" data-entity-2="UC_ProvideContentMetadata" data-source-line="22" data-uid="lnk20" id="link_SocialMediaPlatforms_UC_ProvideContentMetadata"><path d="M1430.74,82.15 C1435.31,107.73 1440.1565,134.8432 1443.9965,156.3732" fill="none" id="SocialMediaPlatforms-to-UC_ProvideContentMetadata" style="stroke:#181818;stroke-width:1;"/><polygon fill="#181818" points="1445.05,162.28,1447.4076,152.7175,1444.1721,157.3577,1439.5319,154.1222,1445.05,162.28" style="stroke:#181818;stroke-width:1;"/></g><!--link DataScientist to UC_ConfigureDomainLexicons--><g class="link" data-entity-1="DataScientist" data-entity-2="UC_ConfigureDomainLexicons" data-source-line="24" data-uid="lnk21" id="link_DataScientist_UC_ConfigureDomainLexicons"><path d="M1853.53,82.15 C1876.24,107.57 1901.5118,135.8562 1920.7618,157.3962" fill="none" id="DataScientist-to-UC_ConfigureDomainLexicons" style="stroke:#181818;stroke-width:1;"/><polygon fill="#181818" points="1924.76,161.87,1921.7453,152.4939,1921.4282,158.1418,1915.7802,157.8248,1924.76,161.87" style="stroke:#181818;stroke-width:1;"/></g><!--link DataScientist to UC_EvaluateSentimentQuality--><g class="link" data-entity-1="DataScientist" data-entity-2="UC_EvaluateSentimentQuality" data-source-line="25" data-uid="lnk22" id="link_DataScientist_UC_EvaluateSentimentQuality"><path d="M1786.54,82.15 C1763.83,107.57 1738.557,135.8552 1719.317,157.3952" fill="none" id="DataScientist-to-UC_EvaluateSentimentQuality" style="stroke:#181818;stroke-width:1;"/><polygon fill="#181818" points="1715.32,161.87,1724.2987,157.8224,1718.6508,158.141,1718.3323,152.4931,1715.32,161.87" style="stroke:#181818;stroke-width:1;"/></g><!--link UC_ScoreSentiment to UC_ConfigureDomainLexicons--><g class="link" data-entity-1="UC_ScoreSentiment" data-entity-2="UC_ConfigureDomainLexicons" data-source-line="27" data-uid="lnk23" id="link_UC_ScoreSentiment_UC_ConfigureDomainLexicons"><path d="M367.14,171 C382.64,166.25 400.46,161.51 417.04,158.8 C625.64,124.71 1156.33,114.26 1367.54,122.68 C1569.13,130.71 1620.41,129.58 1820.04,158.8 C1836.51,161.21 1848.1757,163.2884 1864.7657,166.7384" fill="none" id="UC_ScoreSentiment-to-UC_ConfigureDomainLexicons" style="stroke:#181818;stroke-width:1;stroke-dasharray:7,7;"/><polygon fill="#181818" points="1870.64,167.96,1862.6429,162.2114,1865.7447,166.942,1861.0141,170.0438,1870.64,167.96" style="stroke:#181818;stroke-width:1;"/><text fill="#000000" font-family="sans-serif" font-size="13" lengthAdjust="spacing" textLength="63.0068" x="1303.54" y="124.8669">&#171;include&#187;</text></g><!--link UC_ScoreSentiment to UC_EvaluateSentimentQuality--><g class="link" data-entity-1="UC_ScoreSentiment" data-entity-2="UC_EvaluateSentimentQuality" data-source-line="28" data-uid="lnk24" id="link_UC_ScoreSentiment_UC_EvaluateSentimentQuality"><path d="M367.15,171.04 C382.64,166.29 400.46,161.55 417.04,158.8 C606.51,127.41 1088.85,110.77 1280.54,122.68 C1409.95,130.72 1442.19,137.18 1570.04,158.8 C1586.01,161.5 1597.1675,163.6096 1613.3475,166.9996" fill="none" id="UC_ScoreSentiment-to-UC_EvaluateSentimentQuality" style="stroke:#181818;stroke-width:1;stroke-dasharray:7,7;"/><polygon fill="#181818" points="1619.22,168.23,1611.2315,162.4694,1614.3263,167.2047,1609.591,170.2994,1619.22,168.23" style="stroke:#181818;stroke-width:1;"/><text fill="#000000" font-family="sans-serif" font-size="13" lengthAdjust="spacing" textLength="63.0068" x="1216.54" y="124.8669">&#171;include&#187;</text></g><!--link UC_ConfigureNegativeSpikeAlerts to UC_NotifyStakeholders--><g class="link" data-entity-1="UC_ConfigureNegativeSpikeAlerts" data-entity-2="UC_NotifyStakeholders" data-source-line="30" data-uid="lnk25" id="link_UC_ConfigureNegativeSpikeAlerts_UC_NotifyStakeholders"><path d="M678,185.58 C710.58,185.58 739.03,185.58 768.98,185.58" fill="none" id="UC_ConfigureNegativeSpikeAlerts-to-UC_NotifyStakeholders" style="stroke:#181818;stroke-width:1;stroke-dasharray:7,7;"/><polygon fill="#181818" points="774.98,185.58,765.98,181.58,769.98,185.58,765.98,189.58,774.98,185.58" style="stroke:#181818;stroke-width:1;"/><text fill="#000000" font-family="sans-serif" font-size="13" lengthAdjust="spacing" textLength="61.1851" x="695.99" y="178.6469">&#171;extend&#187;</text></g><!--SRC=[XPFDQjj04CVlUeh1fnISvbw28SGf1EoGeXPwArDfh2wITuEqClOrs27uHToQzbHoy9lilarN7ol9ikGU9C7yV_kVZnsX9qKC0xrHV_HQhq7jz5hjrL_zghVw6VHh7ZYOPwUVrKxj2-9WtXlrQm2Om1JZa2JZmGt7Q9L81wsdVb5lzPbzPgRUR9AT-cr26_Czw2rSV4IFlWiH3k7h42QCX-JVyo7SyqHY4EFyNPxB5Hx3Q4e-myS8vKp4yyJcoujQwqrX_rDlpVSbItzrt5r3oJt7AD7r6779JF5Ecf272S7WLaGHUHAccI9uaiDVRh-LSHkk3un9Plm4UP1YG9OlmZPQuwudOW8tivcRbyNpS1MjyRkbZ4sdS6SKoIW1v3vy5a_Cgoeh4KiKOhCXFcD1Qf8-K82IBKps9nOIt4GKoqP_9MQf72gOskmn5Wlc4nXQcZhDb2JwPfBMfTHBsQfTnOp571c72IsPTpJc4YXqApS6ii0eHTaO8NnACM9oLSsZ92gWr6kF1o7PR0Mkn91-YCYdkCfVI4t5STgh3fUNewwLwEDQgz27jLQW3-k-xluQprohq_LZzNLtZksvTkVe9pifgNN5dN3lPJed4uFtv-pX0rnVC-v5gK-ZKU_fldojuyv_HbkwdMvJxaDBCoRVsFm3]--></g></svg>