<svg xmlns="http://www.w3.org/2000/svg" xmlns:xlink="http://www.w3.org/1999/xlink" contentStyleType="text/css" data-diagram-type="DESCRIPTION" height="634px" preserveAspectRatio="none" style="width:627px;height:634px;background:#FFFFFF;" version="1.1" viewBox="0 0 627 634" width="627px" zoomAndPan="magnify"><defs/><g><!--cluster Frontend--><g class="cluster" data-entity="Frontend" data-source-line="1" data-uid="ent0002" id="cluster_Frontend"><rect fill="none" height="97.3" rx="2.5" ry="2.5" style="stroke:#181818;stroke-width:1;" width="172" x="242.46" y="7"/><rect fill="none" height="10" style="stroke:#181818;stroke-width:1;" width="15" x="394.46" y="12"/><rect fill="none" height="2" style="stroke:#181818;stroke-width:1;" width="4" x="392.46" y="14"/><rect fill="none" height="2" style="stroke:#181818;stroke-width:1;" width="4" x="392.46" y="18"/><text fill="#000000" font-family="sans-serif" font-size="14" font-weight="bold" lengthAdjust="spacing" textLength="72.2285" x="292.3457" y="32.9951">Frontend</text></g><!--cluster Middle Business Logic--><g class="cluster" data-entity="Middle Business Logic" data-source-line="5" data-uid="ent0004" id="cluster_Middle Business Logic"><rect fill="none" height="97.3" rx="2.5" ry="2.5" style="stroke:#181818;stroke-width:1;" width="282" x="187.46" y="153.3"/><rect fill="none" height="10" style="stroke:#181818;stroke-width:1;" width="15" x="449.46" y="158.3"/><rect fill="none" height="2" style="stroke:#181818;stroke-width:1;" width="4" x="447.46" y="160.3"/><rect fill="none" height="2" style="stroke:#181818;stroke-width:1;" width="4" x="447.46" y="164.3"/><text fill="#000000" font-family="sans-serif" font-size="14" font-weight="bold" lengthAdjust="spacing" textLength="174.3711" x="241.2745" y="179.2951">Middle Business Logic</text></g><!--cluster Backend--><g class="cluster" data-entity="Backend" data-source-line="9" data-uid="ent0006" id="cluster_Backend"><rect fill="none" height="257.59" rx="2.5" ry="2.5" style="stroke:#181818;stroke-width:1;" width="288" x="9.46" y="299.6"/><rect fill="none" height="10" style="stroke:#181818;stroke-width:1;" width="15" x="277.46" y="304.6"/><rect fill="none" height="2" style="stroke:#181818;stroke-width:1;" width="4" x="275.46" y="306.6"/><rect fill="none" height="2" style="stroke:#181818;stroke-width:1;" width="4" x="275.46" y="310.6"/><text fill="#000000" font-family="sans-serif" font-size="14" font-weight="bold" lengthAdjust="spacing" textLength="67.2109" x="119.8545" y="325.5951">Backend</text></g><!--cluster External Financial Services--><g class="cluster" data-entity="External Financial Services" data-source-line="14" data-uid="ent0009" id="cluster_External Financial Services"><rect fill="none" height="177.02" rx="2.5" ry="2.5" style="stroke:#181818;stroke-width:1;" width="292" x="329.46" y="451.89"/><rect fill="none" height="10" style="stroke:#181818;stroke-width:1;" width="15" x="601.46" y="456.89"/><rect fill="none" height="2" style="stroke:#181818;stroke-width:1;" width="4" x="599.46" y="458.89"/><rect fill="none" height="2" style="stroke:#181818;stroke-width:1;" width="4" x="599.46" y="462.89"/><text fill="#000000" font-family="sans-serif" font-size="14" font-weight="bold" lengthAdjust="spacing" textLength="213.2676" x="368.8262" y="477.8851">External Financial Services</text></g><!--entity User Interface--><g class="entity" data-entity="User Interface" data-source-line="2" data-uid="ent0003" id="entity_User Interface"><rect fill="#F1F1F1" height="46.2969" rx="2.5" ry="2.5" style="stroke:#181818;stroke-width:0.5;" width="139.0391" x="258.94" y="42"/><rect fill="#F1F1F1" height="10" style="stroke:#181818;stroke-width:0.5;" width="15" x="377.9791" y="47"/><rect fill="#F1F1F1" height="2" style="stroke:#181818;stroke-width:0.5;" width="4" x="375.9791" y="49"/><rect fill="#F1F1F1" height="2" style="stroke:#181818;stroke-width:0.5;" width="4" x="375.9791" y="53"/><text fill="#000000" font-family="sans-serif" font-size="14" lengthAdjust="spacing" textLength="99.0391" x="273.94" y="74.9951">User Interface</text></g><!--entity Financial Computation Engine--><g class="entity" data-entity="Financial Computation Engine" data-source-line="6" data-uid="ent0005" id="entity_Financial Computation Engine"><rect fill="#F1F1F1" height="46.2969" rx="2.5" ry="2.5" style="stroke:#181818;stroke-width:0.5;" width="249.8291" x="203.55" y="188.3"/><rect fill="#F1F1F1" height="10" style="stroke:#181818;stroke-width:0.5;" width="15" x="433.3791" y="193.3"/><rect fill="#F1F1F1" height="2" style="stroke:#181818;stroke-width:0.5;" width="4" x="431.3791" y="195.3"/><rect fill="#F1F1F1" height="2" style="stroke:#181818;stroke-width:0.5;" width="4" x="431.3791" y="199.3"/><text fill="#000000" font-family="sans-serif" font-size="14" lengthAdjust="spacing" textLength="209.8291" x="218.55" y="221.2951">Financial Computation Engine</text></g><!--entity Cloud Database--><g class="entity" data-entity="Cloud Database" data-source-line="10" data-uid="ent0007" id="entity_Cloud Database"><rect fill="#F1F1F1" height="46.2969" rx="2.5" ry="2.5" style="stroke:#181818;stroke-width:0.5;" width="151.2412" x="77.84" y="494.89"/><rect fill="#F1F1F1" height="10" style="stroke:#181818;stroke-width:0.5;" width="15" x="209.0812" y="499.89"/><rect fill="#F1F1F1" height="2" style="stroke:#181818;stroke-width:0.5;" width="4" x="207.0812" y="501.89"/><rect fill="#F1F1F1" height="2" style="stroke:#181818;stroke-width:0.5;" width="4" x="207.0812" y="505.89"/><text fill="#000000" font-family="sans-serif" font-size="14" lengthAdjust="spacing" textLength="111.2412" x="92.84" y="527.8851">Cloud Database</text></g><!--entity Secure Data Transfer Gateway--><g class="entity" data-entity="Secure Data Transfer Gateway" data-source-line="11" data-uid="ent0008" id="entity_Secure Data Transfer Gateway"><rect fill="#F1F1F1" height="46.2969" rx="2.5" ry="2.5" style="stroke:#181818;stroke-width:0.5;" width="255.4141" x="25.75" y="334.6"/><rect fill="#F1F1F1" height="10" style="stroke:#181818;stroke-width:0.5;" width="15" x="261.1641" y="339.6"/><rect fill="#F1F1F1" height="2" style="stroke:#181818;stroke-width:0.5;" width="4" x="259.1641" y="341.6"/><rect fill="#F1F1F1" height="2" style="stroke:#181818;stroke-width:0.5;" width="4" x="259.1641" y="345.6"/><text fill="#000000" font-family="sans-serif" font-size="14" lengthAdjust="spacing" textLength="215.4141" x="40.75" y="367.5951">Secure Data Transfer Gateway</text></g><!--entity Financial Data API Connector--><g class="entity" data-entity="Financial Data API Connector" data-source-line="15" data-uid="ent0010" id="entity_Financial Data API Connector"><rect fill="#F1F1F1" height="46.2969" rx="2.5" ry="2.5" style="stroke:#181818;stroke-width:0.5;" width="243.458" x="353.73" y="494.89"/><rect fill="#F1F1F1" height="10" style="stroke:#181818;stroke-width:0.5;" width="15" x="577.188" y="499.89"/><rect fill="#F1F1F1" height="2" style="stroke:#181818;stroke-width:0.5;" width="4" x="575.188" y="501.89"/><rect fill="#F1F1F1" height="2" style="stroke:#181818;stroke-width:0.5;" width="4" x="575.188" y="505.89"/><text fill="#000000" font-family="sans-serif" font-size="14" lengthAdjust="spacing" textLength="203.458" x="368.73" y="527.8851">Financial Data API Connector</text></g><!--entity Data Analysis Module--><g class="entity" data-entity="Data Analysis Module" data-source-line="18" data-uid="ent0011" id="entity_Data Analysis Module"><rect fill="#F1F1F1" height="46.2969" rx="2.5" ry="2.5" style="stroke:#181818;stroke-width:0.5;" width="190.917" x="7" y="42"/><rect fill="#F1F1F1" height="10" style="stroke:#181818;stroke-width:0.5;" width="15" x="177.917" y="47"/><rect fill="#F1F1F1" height="2" style="stroke:#181818;stroke-width:0.5;" width="4" x="175.917" y="49"/><rect fill="#F1F1F1" height="2" style="stroke:#181818;stroke-width:0.5;" width="4" x="175.917" y="53"/><text fill="#000000" font-family="sans-serif" font-size="14" lengthAdjust="spacing" textLength="150.917" x="22" y="74.9951">Data Analysis Module</text></g><!--link User Interface to Financial Computation Engine--><g class="link" data-entity-1="User Interface" data-entity-2="Financial Computation Engine" data-source-line="20" data-uid="lnk12" id="link_User Interface_Financial Computation Engine"><path d="M328.46,88.7 C328.46,115.81 328.46,155.02 328.46,182.06" fill="none" id="User Interface-to-Financial Computation Engine" style="stroke:#181818;stroke-width:1;"/><polygon fill="#181818" points="328.46,188.06,332.46,179.06,328.46,183.06,324.46,179.06,328.46,188.06" style="stroke:#181818;stroke-width:1;"/><text fill="#000000" font-family="sans-serif" font-size="13" lengthAdjust="spacing" textLength="83.9604" x="329.46" y="133.3669">User Queries</text></g><!--link Financial Computation Engine to Secure Data Transfer Gateway--><g class="link" data-entity-1="Financial Computation Engine" data-entity-2="Secure Data Transfer Gateway" data-source-line="21" data-uid="lnk13" id="link_Financial Computation Engine_Secure Data Transfer Gateway"><path d="M301.12,234.99 C268.34,262.02 218.3487,303.2322 185.5287,330.3022" fill="none" id="Financial Computation Engine-to-Secure Data Transfer Gateway" style="stroke:#181818;stroke-width:1;"/><polygon fill="#181818" points="180.9,334.12,190.3882,331.4792,184.7572,330.9385,185.2979,325.3076,180.9,334.12" style="stroke:#181818;stroke-width:1;"/><text fill="#000000" font-family="sans-serif" font-size="13" lengthAdjust="spacing" textLength="101.2515" x="262.78" y="279.6669">Processed Data</text></g><!--link Secure Data Transfer Gateway to Cloud Database--><g class="link" data-entity-1="Secure Data Transfer Gateway" data-entity-2="Cloud Database" data-source-line="22" data-uid="lnk14" id="link_Secure Data Transfer Gateway_Cloud Database"><path d="M153.46,381.09 C153.46,411.17 153.46,458.4 153.46,488.56" fill="none" id="Secure Data Transfer Gateway-to-Cloud Database" style="stroke:#181818;stroke-width:1;"/><polygon fill="#181818" points="153.46,494.56,157.46,485.56,153.46,489.56,149.46,485.56,153.46,494.56" style="stroke:#181818;stroke-width:1;"/><text fill="#000000" font-family="sans-serif" font-size="13" lengthAdjust="spacing" textLength="69.8179" x="154.46" y="423.9569">Store Data</text></g><!--link Secure Data Transfer Gateway to Financial Data API Connector--><g class="link" data-entity-1="Secure Data Transfer Gateway" data-entity-2="Financial Data API Connector" data-source-line="23" data-uid="lnk15" id="link_Secure Data Transfer Gateway_Financial Data API Connector"><path d="M195.08,381.38 C220.69,395.15 254.29,412.9 284.46,427.89 C331.81,451.42 381.1002,474.302 419.8102,491.942" fill="none" id="Secure Data Transfer Gateway-to-Financial Data API Connector" style="stroke:#181818;stroke-width:1;"/><polygon fill="#181818" points="425.27,494.43,418.7389,487.0581,420.7201,492.3566,415.4216,494.3379,425.27,494.43" style="stroke:#181818;stroke-width:1;"/><text fill="#000000" font-family="sans-serif" font-size="13" lengthAdjust="spacing" textLength="138.4678" x="285.46" y="423.9569">Secure Data Transfer</text></g><!--link Financial Data API Connector to Secure Data Transfer Gateway--><g class="link" data-entity-1="Financial Data API Connector" data-entity-2="Secure Data Transfer Gateway" data-source-line="24" data-uid="lnk16" id="link_Financial Data API Connector_Secure Data Transfer Gateway"><path d="M471.84,494.62 C466.65,470.15 454.67,431.69 428.46,410.89 C405.24,392.47 347.6344,380.5752 287.4744,372.3252" fill="none" id="Financial Data API Connector-to-Secure Data Transfer Gateway" style="stroke:#181818;stroke-width:1;"/><polygon fill="#181818" points="281.53,371.51,289.9031,376.6957,286.4836,372.1893,290.99,368.7699,281.53,371.51" style="stroke:#181818;stroke-width:1;"/><text fill="#000000" font-family="sans-serif" font-size="13" lengthAdjust="spacing" textLength="93.0439" x="444.52" y="423.9569">Financial Data</text></g><!--link Secure Data Transfer Gateway to Data Analysis Module--><g class="link" data-entity-1="Secure Data Transfer Gateway" data-entity-2="Data Analysis Module" data-source-line="25" data-uid="lnk17" id="link_Secure Data Transfer Gateway_Data Analysis Module"><path d="M135.02,334.22 C120.82,315.32 102.33,286.95 94.46,258.6 C77.92,198.98 88.2226,130.901 95.9026,94.461" fill="none" id="Secure Data Transfer Gateway-to-Data Analysis Module" style="stroke:#181818;stroke-width:1;"/><polygon fill="#181818" points="97.14,88.59,91.3699,96.5716,96.1089,93.4825,99.198,98.2214,97.14,88.59" style="stroke:#181818;stroke-width:1;"/><text fill="#000000" font-family="sans-serif" font-size="13" lengthAdjust="spacing" textLength="91.2285" x="95.46" y="216.0169">Encoded Data</text></g><!--link Data Analysis Module to Financial Computation Engine--><g class="link" data-entity-1="Data Analysis Module" data-entity-2="Financial Computation Engine" data-source-line="26" data-uid="lnk18" id="link_Data Analysis Module_Financial Computation Engine"><path d="M134.81,88.7 C155.42,102.92 182.8,121.5 207.46,137.3 C234.75,154.77 260.9005,170.6175 284.8405,184.8275" fill="none" id="Data Analysis Module-to-Financial Computation Engine" style="stroke:#181818;stroke-width:1;"/><polygon fill="#181818" points="290,187.89,284.3024,179.8565,285.7004,185.3379,280.219,186.7359,290,187.89" style="stroke:#181818;stroke-width:1;"/><text fill="#000000" font-family="sans-serif" font-size="13" lengthAdjust="spacing" textLength="111.1348" x="208.46" y="133.3669">Analyzed Results</text></g><!--link Financial Data API Connector to External Financial Services--><g class="link" data-entity-1="Financial Data API Connector" data-entity-2="External Financial Services" data-source-line="28" data-uid="lnk19" id="link_Financial Data API Connector_External Financial Services"><path d="M475.46,541.49 C475.46,570.36 475.46,611.15 475.46,614.05" fill="none" id="Financial Data API Connector-to-External Financial Services" style="stroke:#181818;stroke-width:1;"/><polygon fill="#181818" points="475.46,620.05,479.46,611.05,475.46,615.05,471.46,611.05,475.46,620.05" style="stroke:#181818;stroke-width:1;"/><text fill="#000000" font-family="sans-serif" font-size="13" lengthAdjust="spacing" textLength="55.7388" x="476.46" y="586.2569">API Calls</text></g><!--SRC=[ZPB1JiCm44Jl_efLxlq13aYqfAWIbGg14-9Wx6rbrQoHrmOAuj_Pk8Y843MvhcQUPtPjmlDB8AG4rJ86IaYsWay5y73F664baxZL1X_LbrAc4w-TjHvXdjaHCiDrs3dpurmwqcISzh0GGquwkK1GqqwaVSvSctttviA7RE5I9_saMRGoQj3aY6K6Tr4JRoNMbKxufWzzMFqkQKdUxH8q65-TGVuNhG0lDYl9I8GcXTYd7HM2Ex1ZM0URFLPAzHS3izdvI6SuWsAwoHWTiXfH5-39tWBSn22r68_hKYFwWknjLo2DrCRfW9FRQt4323NYcbJsBs9Irg7hjQYQJB2_MnjMJRfeSNq8wHOv-yHgKjCJNxH0Mulsdhy1]--></g></svg>