<svg xmlns="http://www.w3.org/2000/svg" xmlns:xlink="http://www.w3.org/1999/xlink" contentStyleType="text/css" data-diagram-type="SEQUENCE" height="415px" preserveAspectRatio="none" style="width:610px;height:415px;background:#FFFFFF;" version="1.1" viewBox="0 0 610 415" width="610px" zoomAndPan="magnify"><defs/><g><g><title>User</title><rect fill="#000000" fill-opacity="0.00000" height="253.0625" width="8" x="19.9551" y="81.2969"/><line style="stroke:#181818;stroke-width:0.5;stroke-dasharray:5,5;" x1="23" x2="23" y1="81.2969" y2="334.3594"/></g><g><title>Web App</title><rect fill="#000000" fill-opacity="0.00000" height="253.0625" width="8" x="142.4199" y="81.2969"/><line style="stroke:#181818;stroke-width:0.5;stroke-dasharray:5,5;" x1="145.8481" x2="145.8481" y1="81.2969" y2="334.3594"/></g><g><title>Validation</title><rect fill="#000000" fill-opacity="0.00000" height="253.0625" width="8" x="277.3389" y="81.2969"/><line style="stroke:#181818;stroke-width:0.5;stroke-dasharray:5,5;" x1="281.2295" x2="281.2295" y1="81.2969" y2="334.3594"/></g><g><title>Database</title><rect fill="#000000" fill-opacity="0.00000" height="253.0625" width="8" x="376.5015" y="81.2969"/><line style="stroke:#181818;stroke-width:0.5;stroke-dasharray:5,5;" x1="380.1011" x2="380.1011" y1="81.2969" y2="334.3594"/></g><g><title>Storage</title><rect fill="#000000" fill-opacity="0.00000" height="253.0625" width="8" x="470.3193" y="81.2969"/><line style="stroke:#181818;stroke-width:0.5;stroke-dasharray:5,5;" x1="473.9312" x2="473.9312" y1="81.2969" y2="334.3594"/></g><g><title>Reviewers</title><rect fill="#000000" fill-opacity="0.00000" height="253.0625" width="8" x="557.8286" y="81.2969"/><line style="stroke:#181818;stroke-width:0.5;stroke-dasharray:5,5;" x1="561.7075" x2="561.7075" y1="81.2969" y2="334.3594"/></g><g class="participant participant-head" data-participant="User"><text fill="#000000" font-family="sans-serif" font-size="14" lengthAdjust="spacing" textLength="31.9102" x="5" y="77.9951">User</text><ellipse cx="23.9551" cy="13.5" fill="#E2E2F0" rx="8" ry="8" style="stroke:#181818;stroke-width:0.5;"/><path d="M23.9551,21.5 L23.9551,48.5 M10.9551,29.5 L36.9551,29.5 M23.9551,48.5 L10.9551,63.5 M23.9551,48.5 L36.9551,63.5" fill="none" style="stroke:#181818;stroke-width:0.5;"/></g><g class="participant participant-tail" data-participant="User"><text fill="#000000" font-family="sans-serif" font-size="14" lengthAdjust="spacing" textLength="31.9102" x="5" y="346.3545">User</text><ellipse cx="23.9551" cy="358.1563" fill="#E2E2F0" rx="8" ry="8" style="stroke:#181818;stroke-width:0.5;"/><path d="M23.9551,366.1563 L23.9551,393.1563 M10.9551,374.1563 L36.9551,374.1563 M23.9551,393.1563 L10.9551,408.1563 M23.9551,393.1563 L36.9551,408.1563" fill="none" style="stroke:#181818;stroke-width:0.5;"/></g><g class="participant participant-head" data-participant="WebApp"><rect fill="#E2E2F0" height="30.2969" rx="2.5" ry="2.5" style="stroke:#181818;stroke-width:0.5;" width="77.1436" x="107.8481" y="50"/><text fill="#000000" font-family="sans-serif" font-size="14" lengthAdjust="spacing" textLength="63.1436" x="114.8481" y="69.9951">Web App</text></g><g class="participant participant-tail" data-participant="WebApp"><rect fill="#E2E2F0" height="30.2969" rx="2.5" ry="2.5" style="stroke:#181818;stroke-width:0.5;" width="77.1436" x="107.8481" y="333.3594"/><text fill="#000000" font-family="sans-serif" font-size="14" lengthAdjust="spacing" textLength="63.1436" x="114.8481" y="353.3545">Web App</text></g><g class="participant participant-head" data-participant="Validation"><rect fill="#E2E2F0" height="30.2969" rx="2.5" ry="2.5" style="stroke:#181818;stroke-width:0.5;" width="84.2188" x="239.2295" y="50"/><text fill="#000000" font-family="sans-serif" font-size="14" lengthAdjust="spacing" textLength="70.2188" x="246.2295" y="69.9951">Validation</text></g><g class="participant participant-tail" data-participant="Validation"><rect fill="#E2E2F0" height="30.2969" rx="2.5" ry="2.5" style="stroke:#181818;stroke-width:0.5;" width="84.2188" x="239.2295" y="333.3594"/><text fill="#000000" font-family="sans-serif" font-size="14" lengthAdjust="spacing" textLength="70.2188" x="246.2295" y="353.3545">Validation</text></g><g class="participant participant-head" data-participant="Database"><rect fill="#E2E2F0" height="30.2969" rx="2.5" ry="2.5" style="stroke:#181818;stroke-width:0.5;" width="80.8008" x="340.1011" y="50"/><text fill="#000000" font-family="sans-serif" font-size="14" lengthAdjust="spacing" textLength="66.8008" x="347.1011" y="69.9951">Database</text></g><g class="participant participant-tail" data-participant="Database"><rect fill="#E2E2F0" height="30.2969" rx="2.5" ry="2.5" style="stroke:#181818;stroke-width:0.5;" width="80.8008" x="340.1011" y="333.3594"/><text fill="#000000" font-family="sans-serif" font-size="14" lengthAdjust="spacing" textLength="66.8008" x="347.1011" y="353.3545">Database</text></g><g class="participant participant-head" data-participant="Storage"><rect fill="#E2E2F0" height="30.2969" rx="2.5" ry="2.5" style="stroke:#181818;stroke-width:0.5;" width="68.7764" x="439.9312" y="50"/><text fill="#000000" font-family="sans-serif" font-size="14" lengthAdjust="spacing" textLength="54.7764" x="446.9312" y="69.9951">Storage</text></g><g class="participant participant-tail" data-participant="Storage"><rect fill="#E2E2F0" height="30.2969" rx="2.5" ry="2.5" style="stroke:#181818;stroke-width:0.5;" width="68.7764" x="439.9312" y="333.3594"/><text fill="#000000" font-family="sans-serif" font-size="14" lengthAdjust="spacing" textLength="54.7764" x="446.9312" y="353.3545">Storage</text></g><g class="participant participant-head" data-participant="Reviewers"><rect fill="#E2E2F0" height="30.2969" rx="2.5" ry="2.5" style="stroke:#181818;stroke-width:0.5;" width="86.2422" x="518.7075" y="50"/><text fill="#000000" font-family="sans-serif" font-size="14" lengthAdjust="spacing" textLength="72.2422" x="525.7075" y="69.9951">Reviewers</text></g><g class="participant participant-tail" data-participant="Reviewers"><rect fill="#E2E2F0" height="30.2969" rx="2.5" ry="2.5" style="stroke:#181818;stroke-width:0.5;" width="86.2422" x="518.7075" y="333.3594"/><text fill="#000000" font-family="sans-serif" font-size="14" lengthAdjust="spacing" textLength="72.2422" x="525.7075" y="353.3545">Reviewers</text></g><g class="message" data-participant-1="User" data-participant-2="WebApp"><polygon fill="#181818" points="134.4199,108.4297,144.4199,112.4297,134.4199,116.4297,138.4199,112.4297" style="stroke:#181818;stroke-width:1;"/><line style="stroke:#181818;stroke-width:1;" x1="23.9551" x2="140.4199" y1="112.4297" y2="112.4297"/><text fill="#000000" font-family="sans-serif" font-size="13" lengthAdjust="spacing" textLength="98.4648" x="30.9551" y="107.3638">Request Action</text></g><g class="message" data-participant-1="WebApp" data-participant-2="Validation"><polygon fill="#181818" points="269.3389,137.5625,279.3389,141.5625,269.3389,145.5625,273.3389,141.5625" style="stroke:#181818;stroke-width:1;"/><line style="stroke:#181818;stroke-width:1;" x1="146.4199" x2="275.3389" y1="141.5625" y2="141.5625"/><text fill="#000000" font-family="sans-serif" font-size="13" lengthAdjust="spacing" textLength="110.9189" x="153.4199" y="136.4966">Validate Request</text></g><g class="message" data-participant-1="Validation" data-participant-2="Database"><polygon fill="#181818" points="368.5015,166.6953,378.5015,170.6953,368.5015,174.6953,372.5015,170.6953" style="stroke:#181818;stroke-width:1;"/><line style="stroke:#181818;stroke-width:1;" x1="281.3389" x2="374.5015" y1="170.6953" y2="170.6953"/><text fill="#000000" font-family="sans-serif" font-size="13" lengthAdjust="spacing" textLength="75.1626" x="288.3389" y="165.6294">Check Data</text></g><g class="message" data-participant-1="Database" data-participant-2="Storage"><polygon fill="#181818" points="462.3193,195.8281,472.3193,199.8281,462.3193,203.8281,466.3193,199.8281" style="stroke:#181818;stroke-width:1;"/><line style="stroke:#181818;stroke-width:1;" x1="380.5015" x2="468.3193" y1="199.8281" y2="199.8281"/><text fill="#000000" font-family="sans-serif" font-size="13" lengthAdjust="spacing" textLength="69.8179" x="387.5015" y="194.7622">Store Data</text></g><g class="message" data-participant-1="Storage" data-participant-2="Database"><polygon fill="#181818" points="391.5015,224.9609,381.5015,228.9609,391.5015,232.9609,387.5015,228.9609" style="stroke:#181818;stroke-width:1;"/><line style="stroke:#181818;stroke-width:1;stroke-dasharray:2,2;" x1="385.5015" x2="473.3193" y1="228.9609" y2="228.9609"/><text fill="#000000" font-family="sans-serif" font-size="13" lengthAdjust="spacing" textLength="52.3301" x="397.5015" y="223.895">Success</text></g><g class="message" data-participant-1="Database" data-participant-2="Validation"><polygon fill="#181818" points="292.3389,254.0938,282.3389,258.0938,292.3389,262.0938,288.3389,258.0938" style="stroke:#181818;stroke-width:1;"/><line style="stroke:#181818;stroke-width:1;stroke-dasharray:2,2;" x1="286.3389" x2="379.5015" y1="258.0938" y2="258.0938"/><text fill="#000000" font-family="sans-serif" font-size="13" lengthAdjust="spacing" textLength="52.3301" x="298.3389" y="253.0278">Success</text></g><g class="message" data-participant-1="Validation" data-participant-2="WebApp"><polygon fill="#181818" points="157.4199,283.2266,147.4199,287.2266,157.4199,291.2266,153.4199,287.2266" style="stroke:#181818;stroke-width:1;"/><line style="stroke:#181818;stroke-width:1;stroke-dasharray:2,2;" x1="151.4199" x2="280.3389" y1="287.2266" y2="287.2266"/><text fill="#000000" font-family="sans-serif" font-size="13" lengthAdjust="spacing" textLength="52.3301" x="163.4199" y="282.1606">Success</text></g><g class="message" data-participant-1="WebApp" data-participant-2="Reviewers"><polygon fill="#181818" points="549.8286,312.3594,559.8286,316.3594,549.8286,320.3594,553.8286,316.3594" style="stroke:#181818;stroke-width:1;"/><line style="stroke:#181818;stroke-width:1;" x1="146.4199" x2="555.8286" y1="316.3594" y2="316.3594"/><text fill="#000000" font-family="sans-serif" font-size="13" lengthAdjust="spacing" textLength="109.8716" x="153.4199" y="311.2935">Notify Reviewers</text></g><!--SRC=[NO-x3i8m34NtV8NLlJ-G0Qc2cO4AcDrW80Ar8Kb1_3rvDWtRjUz9T8p2JXgEXZHJgAqKKk5eeJdJ09rI3Q01brsi-nC-vGMjdCQ0bB76TcXnG4C1oaEDz4u0Rv58kGOEz9Rq8Mq2iaoCUMjeDycFk-erax7GYI0IrnueTZndoZGhfKUp8uVjdSGZp2mlFP0KUGWK-xI3jlgWduKWOrQl_rGoi3POdPFhSiToEuVzPENrMpO_]--></g></svg>