<svg xmlns="http://www.w3.org/2000/svg" xmlns:xlink="http://www.w3.org/1999/xlink" contentStyleType="text/css" data-diagram-type="DESCRIPTION" height="427px" preserveAspectRatio="none" style="width:543px;height:427px;background:#FFFFFF;" version="1.1" viewBox="0 0 543 427" width="543px" zoomAndPan="magnify"><defs/><g><!--cluster Communication Channels--><g class="cluster" data-entity="Communication Channels" data-source-line="1" data-uid="ent0002" id="cluster_Communication Channels"><path d="M8.5,6 L209.2461,6 A3.75,3.75 0 0 1 211.7461,8.5 L218.7461,28.2969 L533.5,28.2969 A2.5,2.5 0 0 1 536,30.7969 L536,100.8 A2.5,2.5 0 0 1 533.5,103.3 L8.5,103.3 A2.5,2.5 0 0 1 6,100.8 L6,8.5 A2.5,2.5 0 0 1 8.5,6" fill="none" style="stroke:#000000;stroke-width:1.5;"/><line style="stroke:#000000;stroke-width:1.5;" x1="6" x2="218.7461" y1="28.2969" y2="28.2969"/><text fill="#000000" font-family="sans-serif" font-size="14" font-weight="bold" lengthAdjust="spacing" textLength="199.7461" x="10" y="20.9951">Communication Channels</text></g><!--cluster System Components--><g class="cluster" data-entity="System Components" data-source-line="8" data-uid="ent0007" id="cluster_System Components"><path d="M129.5,127.3 L292.2656,127.3 A3.75,3.75 0 0 1 294.7656,129.8 L301.7656,149.5969 L398.5,149.5969 A2.5,2.5 0 0 1 401,152.0969 L401,328.39 A2.5,2.5 0 0 1 398.5,330.89 L129.5,330.89 A2.5,2.5 0 0 1 127,328.39 L127,129.8 A2.5,2.5 0 0 1 129.5,127.3" fill="none" style="stroke:#000000;stroke-width:1.5;"/><line style="stroke:#000000;stroke-width:1.5;" x1="127" x2="301.7656" y1="149.5969" y2="149.5969"/><text fill="#000000" font-family="sans-serif" font-size="14" font-weight="bold" lengthAdjust="spacing" textLength="161.7656" x="131" y="142.2951">System Components</text></g><!--entity Calls--><g class="entity" data-entity="Calls" data-source-line="2" data-uid="ent0003" id="entity_Calls"><rect fill="#F1F1F1" height="46.2969" rx="2.5" ry="2.5" style="stroke:#181818;stroke-width:0.5;" width="73.4277" x="22.29" y="41"/><rect fill="#F1F1F1" height="10" style="stroke:#181818;stroke-width:0.5;" width="15" x="75.7177" y="46"/><rect fill="#F1F1F1" height="2" style="stroke:#181818;stroke-width:0.5;" width="4" x="73.7177" y="48"/><rect fill="#F1F1F1" height="2" style="stroke:#181818;stroke-width:0.5;" width="4" x="73.7177" y="52"/><text fill="#000000" font-family="sans-serif" font-size="14" lengthAdjust="spacing" textLength="33.4277" x="37.29" y="73.9951">Calls</text></g><!--entity WhatsApp--><g class="entity" data-entity="WhatsApp" data-source-line="3" data-uid="ent0004" id="entity_WhatsApp"><rect fill="#F1F1F1" height="46.2969" rx="2.5" ry="2.5" style="stroke:#181818;stroke-width:0.5;" width="111.4287" x="130.29" y="41"/><rect fill="#F1F1F1" height="10" style="stroke:#181818;stroke-width:0.5;" width="15" x="221.7187" y="46"/><rect fill="#F1F1F1" height="2" style="stroke:#181818;stroke-width:0.5;" width="4" x="219.7187" y="48"/><rect fill="#F1F1F1" height="2" style="stroke:#181818;stroke-width:0.5;" width="4" x="219.7187" y="52"/><text fill="#000000" font-family="sans-serif" font-size="14" lengthAdjust="spacing" textLength="71.4287" x="145.29" y="73.9951">WhatsApp</text></g><!--entity Digital Chats--><g class="entity" data-entity="Digital Chats" data-source-line="4" data-uid="ent0005" id="entity_Digital Chats"><rect fill="#F1F1F1" height="46.2969" rx="2.5" ry="2.5" style="stroke:#181818;stroke-width:0.5;" width="129.8652" x="277.07" y="41"/><rect fill="#F1F1F1" height="10" style="stroke:#181818;stroke-width:0.5;" width="15" x="386.9352" y="46"/><rect fill="#F1F1F1" height="2" style="stroke:#181818;stroke-width:0.5;" width="4" x="384.9352" y="48"/><rect fill="#F1F1F1" height="2" style="stroke:#181818;stroke-width:0.5;" width="4" x="384.9352" y="52"/><text fill="#000000" font-family="sans-serif" font-size="14" lengthAdjust="spacing" textLength="89.8652" x="292.07" y="73.9951">Digital Chats</text></g><!--entity Email--><g class="entity" data-entity="Email" data-source-line="5" data-uid="ent0006" id="entity_Email"><rect fill="#F1F1F1" height="46.2969" rx="2.5" ry="2.5" style="stroke:#181818;stroke-width:0.5;" width="78.8418" x="441.58" y="41"/><rect fill="#F1F1F1" height="10" style="stroke:#181818;stroke-width:0.5;" width="15" x="500.4218" y="46"/><rect fill="#F1F1F1" height="2" style="stroke:#181818;stroke-width:0.5;" width="4" x="498.4218" y="48"/><rect fill="#F1F1F1" height="2" style="stroke:#181818;stroke-width:0.5;" width="4" x="498.4218" y="52"/><text fill="#000000" font-family="sans-serif" font-size="14" lengthAdjust="spacing" textLength="38.8418" x="456.58" y="73.9951">Email</text></g><!--entity Concurrent Handling--><g class="entity" data-entity="Concurrent Handling" data-source-line="9" data-uid="ent0008" id="entity_Concurrent Handling"><rect fill="#F1F1F1" height="46.2969" rx="2.5" ry="2.5" style="stroke:#181818;stroke-width:0.5;" width="185.127" x="171.44" y="162.3"/><rect fill="#F1F1F1" height="10" style="stroke:#181818;stroke-width:0.5;" width="15" x="336.567" y="167.3"/><rect fill="#F1F1F1" height="2" style="stroke:#181818;stroke-width:0.5;" width="4" x="334.567" y="169.3"/><rect fill="#F1F1F1" height="2" style="stroke:#181818;stroke-width:0.5;" width="4" x="334.567" y="173.3"/><text fill="#000000" font-family="sans-serif" font-size="14" lengthAdjust="spacing" textLength="145.127" x="186.44" y="195.2951">Concurrent Handling</text></g><!--entity Bidirectional Communication--><g class="entity" data-entity="Bidirectional Communication" data-source-line="10" data-uid="ent0009" id="entity_Bidirectional Communication"><rect fill="#F1F1F1" height="46.2969" rx="2.5" ry="2.5" style="stroke:#181818;stroke-width:0.5;" width="242.4189" x="142.79" y="268.6"/><rect fill="#F1F1F1" height="10" style="stroke:#181818;stroke-width:0.5;" width="15" x="365.2089" y="273.6"/><rect fill="#F1F1F1" height="2" style="stroke:#181818;stroke-width:0.5;" width="4" x="363.2089" y="275.6"/><rect fill="#F1F1F1" height="2" style="stroke:#181818;stroke-width:0.5;" width="4" x="363.2089" y="279.6"/><text fill="#000000" font-family="sans-serif" font-size="14" lengthAdjust="spacing" textLength="202.4189" x="157.79" y="301.5951">Bidirectional Communication</text></g><!--entity Central Management Module--><g class="entity" data-entity="Central Management Module" data-source-line="13" data-uid="ent0010" id="entity_Central Management Module"><rect fill="#F1F1F1" height="46.2969" rx="2.5" ry="2.5" style="stroke:#181818;stroke-width:0.5;" width="243.0068" x="142.5" y="374.89"/><rect fill="#F1F1F1" height="10" style="stroke:#181818;stroke-width:0.5;" width="15" x="365.5068" y="379.89"/><rect fill="#F1F1F1" height="2" style="stroke:#181818;stroke-width:0.5;" width="4" x="363.5068" y="381.89"/><rect fill="#F1F1F1" height="2" style="stroke:#181818;stroke-width:0.5;" width="4" x="363.5068" y="385.89"/><text fill="#000000" font-family="sans-serif" font-size="14" lengthAdjust="spacing" textLength="203.0068" x="157.5" y="407.8851">Central Management Module</text></g><!--link Calls to Concurrent Handling--><g class="link" data-entity-1="Calls" data-entity-2="Concurrent Handling" data-source-line="15" data-uid="lnk11" id="link_Calls_Concurrent Handling"><path d="M82.68,87.69 C91.76,95.69 102.47,104.42 113,111.3 C143.23,131.07 174.1159,146.4159 203.5859,159.4959" fill="none" id="Calls-to-Concurrent Handling" style="stroke:#181818;stroke-width:1;"/><polygon fill="#181818" points="209.07,161.93,202.4666,154.6228,204.4999,159.9016,199.2211,161.935,209.07,161.93" style="stroke:#181818;stroke-width:1;"/></g><!--link WhatsApp to Concurrent Handling--><g class="link" data-entity-1="WhatsApp" data-entity-2="Concurrent Handling" data-source-line="16" data-uid="lnk12" id="link_WhatsApp_Concurrent Handling"><path d="M200.67,87.59 C214.62,108.92 232.1876,135.7874 246.1076,157.0874" fill="none" id="WhatsApp-to-Concurrent Handling" style="stroke:#181818;stroke-width:1;"/><polygon fill="#181818" points="249.39,162.11,247.8148,152.3879,246.6547,157.9245,241.1181,156.7644,249.39,162.11" style="stroke:#181818;stroke-width:1;"/></g><!--link Digital Chats to Concurrent Handling--><g class="link" data-entity-1="Digital Chats" data-entity-2="Concurrent Handling" data-source-line="17" data-uid="lnk13" id="link_Digital Chats_Concurrent Handling"><path d="M327.33,87.59 C313.38,108.92 295.8124,135.7874 281.8924,157.0874" fill="none" id="Digital Chats-to-Concurrent Handling" style="stroke:#181818;stroke-width:1;"/><polygon fill="#181818" points="278.61,162.11,286.8819,156.7644,281.3453,157.9245,280.1852,152.3879,278.61,162.11" style="stroke:#181818;stroke-width:1;"/></g><!--link Email to Concurrent Handling--><g class="link" data-entity-1="Email" data-entity-2="Concurrent Handling" data-source-line="18" data-uid="lnk14" id="link_Email_Concurrent Handling"><path d="M455.92,87.73 C446.33,95.74 435.04,104.46 424,111.3 C391.94,131.17 359.1051,146.5742 327.9851,159.5942" fill="none" id="Email-to-Concurrent Handling" style="stroke:#181818;stroke-width:1;"/><polygon fill="#181818" points="322.45,161.91,332.2965,162.1264,327.0626,159.9802,329.2088,154.7463,322.45,161.91" style="stroke:#181818;stroke-width:1;"/></g><!--link Concurrent Handling to Bidirectional Communication--><g class="link" data-entity-1="Concurrent Handling" data-entity-2="Bidirectional Communication" data-source-line="20" data-uid="lnk15" id="link_Concurrent Handling_Bidirectional Communication"><path d="M264,209.08 C264,226.57 264,244.68 264,262.16" fill="none" id="Concurrent Handling-to-Bidirectional Communication" style="stroke:#181818;stroke-width:1;"/><polygon fill="#181818" points="264,268.16,268,259.16,264,263.16,260,259.16,264,268.16" style="stroke:#181818;stroke-width:1;"/></g><!--link Bidirectional Communication to Central Management Module--><g class="link" data-entity-1="Bidirectional Communication" data-entity-2="Central Management Module" data-source-line="22" data-uid="lnk16" id="link_Bidirectional Communication_Central Management Module"><path d="M264,315.38 C264,332.87 264,350.97 264,368.45" fill="none" id="Bidirectional Communication-to-Central Management Module" style="stroke:#181818;stroke-width:1;"/><polygon fill="#181818" points="264,374.45,268,365.45,264,369.45,260,365.45,264,374.45" style="stroke:#181818;stroke-width:1;"/></g><!--SRC=[VL2z3i8W4Dvv2jAzhs2YQEBIoS6XwN2XfBq81w5qCCPt5_eJQs9XWll-xiE1V42dU26iCIEXX82MkEY1IEcXu2_6uwa5Q3qqy_tUGnYEpYtFCtOOG2TDM2aN0wWRzcRChG6tvn2KuJ77ML8KDjwMvEXzdF4hKAkHkiNcX2rw9TDAAM2xucHUYoZo4Qg0OeX95fLjHwsQ14uxyx8yx6Hyc-H8l_ropBbrXi7-ZcT1jYlBmalYxbzy0000]--></g></svg>