<svg xmlns="http://www.w3.org/2000/svg" xmlns:xlink="http://www.w3.org/1999/xlink" contentStyleType="text/css" data-diagram-type="SEQUENCE" height="431px" preserveAspectRatio="none" style="width:475px;height:431px;background:#FFFFFF;" version="1.1" viewBox="0 0 475 431" width="475px" zoomAndPan="magnify"><defs/><g><rect fill="none" height="90.2031" style="stroke:#000000;stroke-width:1.5;" width="236.7939" x="10" y="243.9609"/><g><title>User</title><rect fill="#000000" fill-opacity="0.00000" height="269.8672" width="8" x="34.9551" y="81.2969"/><line style="stroke:#181818;stroke-width:0.5;stroke-dasharray:5,5;" x1="38" x2="38" y1="81.2969" y2="351.1641"/></g><g><title>App</title><rect fill="#000000" fill-opacity="0.00000" height="269.8672" width="8" x="172.5908" y="81.2969"/><line style="stroke:#181818;stroke-width:0.5;stroke-dasharray:5,5;" x1="175.9155" x2="175.9155" y1="81.2969" y2="351.1641"/></g><g><title>Cart</title><rect fill="#000000" fill-opacity="0.00000" height="269.8672" width="8" x="299.1436" y="81.2969"/><line style="stroke:#181818;stroke-width:0.5;stroke-dasharray:5,5;" x1="302.3438" x2="302.3438" y1="81.2969" y2="351.1641"/></g><g><title>Restaurant Rules</title><rect fill="#000000" fill-opacity="0.00000" height="269.8672" width="8" x="398.0039" y="81.2969"/><line style="stroke:#181818;stroke-width:0.5;stroke-dasharray:5,5;" x1="401.9434" x2="401.9434" y1="81.2969" y2="351.1641"/></g><g class="participant participant-head" data-participant="User"><text fill="#000000" font-family="sans-serif" font-size="14" lengthAdjust="spacing" textLength="31.9102" x="20" y="77.9951">User</text><ellipse cx="38.9551" cy="13.5" fill="#E2E2F0" rx="8" ry="8" style="stroke:#181818;stroke-width:0.5;"/><path d="M38.9551,21.5 L38.9551,48.5 M25.9551,29.5 L51.9551,29.5 M38.9551,48.5 L25.9551,63.5 M38.9551,48.5 L51.9551,63.5" fill="none" style="stroke:#181818;stroke-width:0.5;"/></g><g class="participant participant-tail" data-participant="User"><text fill="#000000" font-family="sans-serif" font-size="14" lengthAdjust="spacing" textLength="31.9102" x="20" y="363.1592">User</text><ellipse cx="38.9551" cy="374.9609" fill="#E2E2F0" rx="8" ry="8" style="stroke:#181818;stroke-width:0.5;"/><path d="M38.9551,382.9609 L38.9551,409.9609 M25.9551,390.9609 L51.9551,390.9609 M38.9551,409.9609 L25.9551,424.9609 M38.9551,409.9609 L51.9551,424.9609" fill="none" style="stroke:#181818;stroke-width:0.5;"/></g><g class="participant participant-head" data-participant="App"><rect fill="#E2E2F0" height="30.2969" rx="2.5" ry="2.5" style="stroke:#181818;stroke-width:0.5;" width="41.3506" x="155.9155" y="50"/><text fill="#000000" font-family="sans-serif" font-size="14" lengthAdjust="spacing" textLength="27.3506" x="162.9155" y="69.9951">App</text></g><g class="participant participant-tail" data-participant="App"><rect fill="#E2E2F0" height="30.2969" rx="2.5" ry="2.5" style="stroke:#181818;stroke-width:0.5;" width="41.3506" x="155.9155" y="350.1641"/><text fill="#000000" font-family="sans-serif" font-size="14" lengthAdjust="spacing" textLength="27.3506" x="162.9155" y="370.1592">App</text></g><g class="participant participant-head" data-participant="Cart"><rect fill="#E2E2F0" height="30.2969" rx="2.5" ry="2.5" style="stroke:#181818;stroke-width:0.5;" width="43.5996" x="281.3438" y="50"/><text fill="#000000" font-family="sans-serif" font-size="14" lengthAdjust="spacing" textLength="29.5996" x="288.3438" y="69.9951">Cart</text></g><g class="participant participant-tail" data-participant="Cart"><rect fill="#E2E2F0" height="30.2969" rx="2.5" ry="2.5" style="stroke:#181818;stroke-width:0.5;" width="43.5996" x="281.3438" y="350.1641"/><text fill="#000000" font-family="sans-serif" font-size="14" lengthAdjust="spacing" textLength="29.5996" x="288.3438" y="370.1592">Cart</text></g><g class="participant participant-head" data-participant="Rules"><rect fill="#E2E2F0" height="30.2969" rx="2.5" ry="2.5" style="stroke:#181818;stroke-width:0.5;" width="134.1211" x="334.9434" y="50"/><text fill="#000000" font-family="sans-serif" font-size="14" lengthAdjust="spacing" textLength="120.1211" x="341.9434" y="69.9951">Restaurant Rules</text></g><g class="participant participant-tail" data-participant="Rules"><rect fill="#E2E2F0" height="30.2969" rx="2.5" ry="2.5" style="stroke:#181818;stroke-width:0.5;" width="134.1211" x="334.9434" y="350.1641"/><text fill="#000000" font-family="sans-serif" font-size="14" lengthAdjust="spacing" textLength="120.1211" x="341.9434" y="370.1592">Restaurant Rules</text></g><g class="message" data-participant-1="User" data-participant-2="App"><polygon fill="#181818" points="164.5908,108.4297,174.5908,112.4297,164.5908,116.4297,168.5908,112.4297" style="stroke:#181818;stroke-width:1;"/><line style="stroke:#181818;stroke-width:1;" x1="38.9551" x2="170.5908" y1="112.4297" y2="112.4297"/><text fill="#000000" font-family="sans-serif" font-size="13" lengthAdjust="spacing" textLength="62.7529" x="45.9551" y="107.3638">View Cart</text></g><g class="message" data-participant-1="App" data-participant-2="Cart"><polygon fill="#181818" points="291.1436,137.5625,301.1436,141.5625,291.1436,145.5625,295.1436,141.5625" style="stroke:#181818;stroke-width:1;"/><line style="stroke:#181818;stroke-width:1;" x1="176.5908" x2="297.1436" y1="141.5625" y2="141.5625"/><text fill="#000000" font-family="sans-serif" font-size="13" lengthAdjust="spacing" textLength="81.7705" x="183.5908" y="136.4966">Get Subtotal</text></g><g class="message" data-participant-1="Cart" data-participant-2="App"><polygon fill="#181818" points="187.5908,166.6953,177.5908,170.6953,187.5908,174.6953,183.5908,170.6953" style="stroke:#181818;stroke-width:1;"/><line style="stroke:#181818;stroke-width:1;" x1="181.5908" x2="302.1436" y1="170.6953" y2="170.6953"/><text fill="#000000" font-family="sans-serif" font-size="13" lengthAdjust="spacing" textLength="102.5527" x="193.5908" y="165.6294">Return Subtotal</text></g><g class="message" data-participant-1="App" data-participant-2="Rules"><polygon fill="#181818" points="390.0039,195.8281,400.0039,199.8281,390.0039,203.8281,394.0039,199.8281" style="stroke:#181818;stroke-width:1;"/><line style="stroke:#181818;stroke-width:1;" x1="176.5908" x2="396.0039" y1="199.8281" y2="199.8281"/><text fill="#000000" font-family="sans-serif" font-size="13" lengthAdjust="spacing" textLength="170.0918" x="183.5908" y="194.7622">Check Rules with Subtotal</text></g><g class="message" data-participant-1="Rules" data-participant-2="App"><polygon fill="#181818" points="187.5908,224.9609,177.5908,228.9609,187.5908,232.9609,183.5908,228.9609" style="stroke:#181818;stroke-width:1;"/><line style="stroke:#181818;stroke-width:1;" x1="181.5908" x2="401.0039" y1="228.9609" y2="228.9609"/><text fill="#000000" font-family="sans-serif" font-size="13" lengthAdjust="spacing" textLength="146.3008" x="193.5908" y="223.895">Return Rule Validation</text></g><path d="M10,243.9609 L74.4429,243.9609 L74.4429,251.0938 L64.4429,261.0938 L10,261.0938 L10,243.9609" fill="#EEEEEE" style="stroke:#000000;stroke-width:1.5;"/><rect fill="none" height="90.2031" style="stroke:#000000;stroke-width:1.5;" width="236.7939" x="10" y="243.9609"/><text fill="#000000" font-family="sans-serif" font-size="13" font-weight="bold" lengthAdjust="spacing" textLength="19.4429" x="25" y="257.0278">alt</text><text fill="#000000" font-family="sans-serif" font-size="11" font-weight="bold" lengthAdjust="spacing" textLength="152.3511" x="89.4429" y="256.1714">[Rule Validation Passed]</text><g class="message" data-participant-1="App" data-participant-2="User"><polygon fill="#181818" points="49.9551,278.2266,39.9551,282.2266,49.9551,286.2266,45.9551,282.2266" style="stroke:#181818;stroke-width:1;"/><line style="stroke:#181818;stroke-width:1;" x1="43.9551" x2="175.5908" y1="282.2266" y2="282.2266"/><text fill="#000000" font-family="sans-serif" font-size="13" lengthAdjust="spacing" textLength="109.6938" x="55.9551" y="277.1606">Enable Checkout</text></g><line style="stroke:#000000;stroke-width:1;stroke-dasharray:2,2;" x1="10" x2="246.7939" y1="291.2266" y2="291.2266"/><text fill="#000000" font-family="sans-serif" font-size="11" font-weight="bold" lengthAdjust="spacing" textLength="146.2495" x="15" y="301.437">[Rule Validation Failed]</text><g class="message" data-participant-1="App" data-participant-2="User"><polygon fill="#181818" points="49.9551,322.1641,39.9551,326.1641,49.9551,330.1641,45.9551,326.1641" style="stroke:#181818;stroke-width:1;"/><line style="stroke:#181818;stroke-width:1;" x1="43.9551" x2="175.5908" y1="326.1641" y2="326.1641"/><text fill="#000000" font-family="sans-serif" font-size="13" lengthAdjust="spacing" textLength="113.6357" x="55.9551" y="321.0981">Disable Checkout</text></g><!--SRC=[RK_D2i8m3BxtAO9tNw07GURFLIRkdcs15KixsfIzlasdZarxwPVlBmGxzW4UaO8QCR3fp8YEONSSnnrWXFolXIeFHH6mbcgAZ2a8hfEbM6m5AIKRO7-GFWsDeMdEvr5OmHgkn71FBNj6guJw1chY5DmYVdAbN4CrKFUS1vWC3ujnvZOrGaA3rlJ8nZkbqFAMX1l6IBs2_DxBv0GDPuTjTfQLFh4Y6-adV45Z_uLF9cxIhdy1]--></g></svg>