<svg xmlns="http://www.w3.org/2000/svg" xmlns:xlink="http://www.w3.org/1999/xlink" contentStyleType="text/css" data-diagram-type="ACTIVITY" height="499px" preserveAspectRatio="none" style="width:271px;height:499px;background:#FFFFFF;" version="1.1" viewBox="0 0 271 499" width="271px" zoomAndPan="magnify"><defs/><g><ellipse cx="135.832" cy="20" fill="#222222" rx="10" ry="10" style="stroke:#222222;stroke-width:1;"/><rect fill="#F1F1F1" height="33.9688" rx="12.5" ry="12.5" style="stroke:#181818;stroke-width:0.5;" width="222.5703" x="24.5469" y="50"/><text fill="#000000" font-family="sans-serif" font-size="12" lengthAdjust="spacing" textLength="202.5703" x="34.5469" y="71.1387">Fetch Restaurants from Database</text><rect fill="#F1F1F1" height="33.9688" rx="12.5" ry="12.5" style="stroke:#181818;stroke-width:0.5;" width="74.8145" x="98.4248" y="152.3711"/><text fill="#000000" font-family="sans-serif" font-size="12" lengthAdjust="spacing" textLength="54.8145" x="108.4248" y="173.5098">Category</text><rect fill="#F1F1F1" height="33.9688" rx="12.5" ry="12.5" style="stroke:#181818;stroke-width:0.5;" width="98.8379" x="86.4131" y="206.3398"/><text fill="#000000" font-family="sans-serif" font-size="12" lengthAdjust="spacing" textLength="78.8379" x="96.4131" y="227.4785">Fast Delivery</text><rect fill="#F1F1F1" height="33.9688" rx="12.5" ry="12.5" style="stroke:#181818;stroke-width:0.5;" width="58.9531" x="106.3555" y="260.3086"/><text fill="#000000" font-family="sans-serif" font-size="12" lengthAdjust="spacing" textLength="38.9531" x="116.3555" y="281.4473">Rating</text><polygon fill="#F1F1F1" points="98.75,103.9688,172.9141,103.9688,184.9141,115.9688,172.9141,127.9688,98.75,127.9688,86.75,115.9688,98.75,103.9688" style="stroke:#181818;stroke-width:0.5;"/><text fill="#000000" font-family="sans-serif" font-size="11" lengthAdjust="spacing" textLength="19.0083" x="139.832" y="138.1792">yes</text><text fill="#000000" font-family="sans-serif" font-size="11" lengthAdjust="spacing" textLength="74.1641" x="98.75" y="119.7769">Apply Filters?</text><polygon fill="#F1F1F1" points="135.832,314.2773,147.832,326.2773,135.832,338.2773,123.832,326.2773,135.832,314.2773" style="stroke:#181818;stroke-width:0.5;"/><rect fill="#F1F1F1" height="33.9688" rx="12.5" ry="12.5" style="stroke:#181818;stroke-width:0.5;" width="159.0723" x="56.2959" y="358.2773"/><text fill="#000000" font-family="sans-serif" font-size="12" lengthAdjust="spacing" textLength="139.0723" x="66.2959" y="379.416">Display Restaurant List</text><rect fill="#F1F1F1" height="33.9688" rx="12.5" ry="12.5" style="stroke:#181818;stroke-width:0.5;" width="249.6641" x="11" y="412.2461"/><text fill="#000000" font-family="sans-serif" font-size="12" lengthAdjust="spacing" textLength="229.6641" x="21" y="433.3848">User Selects Restaurant to View Menu</text><ellipse cx="135.832" cy="477.2148" fill="none" rx="11" ry="11" style="stroke:#222222;stroke-width:1;"/><ellipse cx="135.832" cy="477.2148" fill="#222222" rx="6" ry="6" style="stroke:#222222;stroke-width:1;"/><line style="stroke:#181818;stroke-width:1;" x1="135.832" x2="135.832" y1="30" y2="50"/><polygon fill="#181818" points="131.832,40,135.832,50,139.832,40,135.832,44" style="stroke:#181818;stroke-width:1;"/><line style="stroke:#181818;stroke-width:1;" x1="135.832" x2="135.832" y1="186.3398" y2="206.3398"/><polygon fill="#181818" points="131.832,196.3398,135.832,206.3398,139.832,196.3398,135.832,200.3398" style="stroke:#181818;stroke-width:1;"/><line style="stroke:#181818;stroke-width:1;" x1="135.832" x2="135.832" y1="240.3086" y2="260.3086"/><polygon fill="#181818" points="131.832,250.3086,135.832,260.3086,139.832,250.3086,135.832,254.3086" style="stroke:#181818;stroke-width:1;"/><line style="stroke:#181818;stroke-width:1;" x1="135.832" x2="135.832" y1="127.9688" y2="152.3711"/><polygon fill="#181818" points="131.832,142.3711,135.832,152.3711,139.832,142.3711,135.832,146.3711" style="stroke:#181818;stroke-width:1;"/><line style="stroke:#181818;stroke-width:1;" x1="184.9141" x2="196.9141" y1="115.9688" y2="115.9688"/><polygon fill="#181818" points="192.9141,213.3242,196.9141,223.3242,200.9141,213.3242,196.9141,217.3242" style="stroke:#181818;stroke-width:1;"/><line style="stroke:#181818;stroke-width:1;" x1="196.9141" x2="196.9141" y1="115.9688" y2="326.2773"/><line style="stroke:#181818;stroke-width:1;" x1="196.9141" x2="147.832" y1="326.2773" y2="326.2773"/><polygon fill="#181818" points="157.832,322.2773,147.832,326.2773,157.832,330.2773,153.832,326.2773" style="stroke:#181818;stroke-width:1;"/><line style="stroke:#181818;stroke-width:1;" x1="135.832" x2="135.832" y1="294.2773" y2="314.2773"/><polygon fill="#181818" points="131.832,304.2773,135.832,314.2773,139.832,304.2773,135.832,308.2773" style="stroke:#181818;stroke-width:1;"/><line style="stroke:#181818;stroke-width:1;" x1="135.832" x2="135.832" y1="83.9688" y2="103.9688"/><polygon fill="#181818" points="131.832,93.9688,135.832,103.9688,139.832,93.9688,135.832,97.9688" style="stroke:#181818;stroke-width:1;"/><line style="stroke:#181818;stroke-width:1;" x1="135.832" x2="135.832" y1="338.2773" y2="358.2773"/><polygon fill="#181818" points="131.832,348.2773,135.832,358.2773,139.832,348.2773,135.832,352.2773" style="stroke:#181818;stroke-width:1;"/><line style="stroke:#181818;stroke-width:1;" x1="135.832" x2="135.832" y1="392.2461" y2="412.2461"/><polygon fill="#181818" points="131.832,402.2461,135.832,412.2461,139.832,402.2461,135.832,406.2461" style="stroke:#181818;stroke-width:1;"/><line style="stroke:#181818;stroke-width:1;" x1="135.832" x2="135.832" y1="446.2148" y2="466.2148"/><polygon fill="#181818" points="131.832,456.2148,135.832,466.2148,139.832,456.2148,135.832,460.2148" style="stroke:#181818;stroke-width:1;"/><!--SRC=[JOun3i8m40Hxl-9AyWMxG8We5JH1q1zXavnaxCXt0VdtW4IHScUAMJKkvdm76sRgeSPhuMHAOybFQjdupehWPAJTOLbYfKwYeUY-8PkHQ5UXZIFoHpPCkTJm6nshKOieB_n9poPf2Wxf8QFphUWIkMwIT1AruFnLKUY2YE7xOgCjqqtmfZFI6fnQNZu0]--></g></svg>