<svg xmlns="http://www.w3.org/2000/svg" xmlns:xlink="http://www.w3.org/1999/xlink" contentStyleType="text/css" data-diagram-type="DESCRIPTION" height="626px" preserveAspectRatio="none" style="width:2555px;height:626px;background:#FFFFFF;" version="1.1" viewBox="0 0 2555 626" width="2555px" zoomAndPan="magnify"><defs/><g><!--cluster Feature Store Architecture--><g class="cluster" data-entity="Feature Store Architecture" data-source-line="1" data-uid="ent0002" id="cluster_Feature Store Architecture"><path d="M8.5,6 L221.9541,6 A3.75,3.75 0 0 1 224.4541,8.5 L231.4541,28.2969 L2232.5,28.2969 A2.5,2.5 0 0 1 2235,30.7969 L2235,617.24 A2.5,2.5 0 0 1 2232.5,619.74 L8.5,619.74 A2.5,2.5 0 0 1 6,617.24 L6,8.5 A2.5,2.5 0 0 1 8.5,6" fill="none" style="stroke:#000000;stroke-width:1.5;"/><line style="stroke:#000000;stroke-width:1.5;" x1="6" x2="231.4541" y1="28.2969" y2="28.2969"/><text fill="#000000" font-family="sans-serif" font-size="14" font-weight="bold" lengthAdjust="spacing" textLength="212.4541" x="10" y="20.9951">Feature Store Architecture</text></g><!--cluster Offline Feature Store--><g class="cluster" data-entity="Offline Feature Store" data-source-line="3" data-uid="ent0003" id="cluster_Offline Feature Store"><rect fill="none" height="266.59" rx="2.5" ry="2.5" style="stroke:#181818;stroke-width:1;" width="220" x="484" y="210.3"/><rect fill="none" height="10" style="stroke:#181818;stroke-width:1;" width="15" x="684" y="215.3"/><rect fill="none" height="2" style="stroke:#181818;stroke-width:1;" width="4" x="682" y="217.3"/><rect fill="none" height="2" style="stroke:#181818;stroke-width:1;" width="4" x="682" y="221.3"/><text fill="#000000" font-family="sans-serif" font-size="14" font-weight="bold" lengthAdjust="spacing" textLength="167.248" x="510.376" y="236.2951">Offline Feature Store</text></g><!--cluster Online Feature Store--><g class="cluster" data-entity="Online Feature Store" data-source-line="7" data-uid="ent0007" id="cluster_Online Feature Store"><rect fill="none" height="266.59" rx="2.5" ry="2.5" style="stroke:#181818;stroke-width:1;" width="338" x="1377" y="210.3"/><rect fill="none" height="10" style="stroke:#181818;stroke-width:1;" width="15" x="1695" y="215.3"/><rect fill="none" height="2" style="stroke:#181818;stroke-width:1;" width="4" x="1693" y="217.3"/><rect fill="none" height="2" style="stroke:#181818;stroke-width:1;" width="4" x="1693" y="221.3"/><text fill="#000000" font-family="sans-serif" font-size="14" font-weight="bold" lengthAdjust="spacing" textLength="165.0332" x="1463.4834" y="236.2951">Online Feature Store</text></g><!--cluster Feature Registry--><g class="cluster" data-entity="Feature Registry" data-source-line="11" data-uid="ent0011" id="cluster_Feature Registry"><rect fill="none" height="224.14" rx="2.5" ry="2.5" style="stroke:#181818;stroke-width:1;" width="593" x="744" y="363.6"/><rect fill="none" height="10" style="stroke:#181818;stroke-width:1;" width="15" x="1317" y="368.6"/><rect fill="none" height="2" style="stroke:#181818;stroke-width:1;" width="4" x="1315" y="370.6"/><rect fill="none" height="2" style="stroke:#181818;stroke-width:1;" width="4" x="1315" y="374.6"/><text fill="#000000" font-family="sans-serif" font-size="14" font-weight="bold" lengthAdjust="spacing" textLength="132.5898" x="974.2051" y="389.5951">Feature Registry</text></g><!--cluster ETL and Online Services--><g class="cluster" data-entity="ETL and Online Services" data-source-line="17" data-uid="ent0017" id="cluster_ETL and Online Services"><rect fill="none" height="113.29" rx="2.5" ry="2.5" style="stroke:#181818;stroke-width:1;" width="361" x="83" y="363.6"/><rect fill="none" height="10" style="stroke:#181818;stroke-width:1;" width="15" x="424" y="368.6"/><rect fill="none" height="2" style="stroke:#181818;stroke-width:1;" width="4" x="422" y="370.6"/><rect fill="none" height="2" style="stroke:#181818;stroke-width:1;" width="4" x="422" y="374.6"/><text fill="#000000" font-family="sans-serif" font-size="14" font-weight="bold" lengthAdjust="spacing" textLength="189.5537" x="168.7231" y="389.5951">ETL and Online Services</text></g><!--cluster Jobs--><g class="cluster" data-entity="Jobs" data-source-line="22" data-uid="ent0022" id="cluster_Jobs"><rect fill="none" height="113.3" rx="2.5" ry="2.5" style="stroke:#181818;stroke-width:1;" width="372" x="532" y="57"/><rect fill="none" height="10" style="stroke:#181818;stroke-width:1;" width="15" x="884" y="62"/><rect fill="none" height="2" style="stroke:#181818;stroke-width:1;" width="4" x="882" y="64"/><rect fill="none" height="2" style="stroke:#181818;stroke-width:1;" width="4" x="882" y="68"/><text fill="#000000" font-family="sans-serif" font-size="14" font-weight="bold" lengthAdjust="spacing" textLength="33.1816" x="701.4092" y="82.9951">Jobs</text></g><!--cluster Monitoring--><g class="cluster" data-entity="Monitoring" data-source-line="27" data-uid="ent0027" id="cluster_Monitoring"><rect fill="none" height="266.6" rx="2.5" ry="2.5" style="stroke:#181818;stroke-width:1;" width="396" x="38" y="57"/><rect fill="none" height="10" style="stroke:#181818;stroke-width:1;" width="15" x="414" y="62"/><rect fill="none" height="2" style="stroke:#181818;stroke-width:1;" width="4" x="412" y="64"/><rect fill="none" height="2" style="stroke:#181818;stroke-width:1;" width="4" x="412" y="68"/><text fill="#000000" font-family="sans-serif" font-size="14" font-weight="bold" lengthAdjust="spacing" textLength="86.3174" x="192.8413" y="82.9951">Monitoring</text></g><!--cluster Security--><g class="cluster" data-entity="Security" data-source-line="32" data-uid="ent0032" id="cluster_Security"><rect fill="none" height="113.3" rx="2.5" ry="2.5" style="stroke:#181818;stroke-width:1;" width="212" x="759" y="210.3"/><rect fill="none" height="10" style="stroke:#181818;stroke-width:1;" width="15" x="951" y="215.3"/><rect fill="none" height="2" style="stroke:#181818;stroke-width:1;" width="4" x="949" y="217.3"/><rect fill="none" height="2" style="stroke:#181818;stroke-width:1;" width="4" x="949" y="221.3"/><text fill="#000000" font-family="sans-serif" font-size="14" font-weight="bold" lengthAdjust="spacing" textLength="65.3652" x="832.3174" y="236.2951">Security</text></g><!--cluster Metadata--><g class="cluster" data-entity="Metadata" data-source-line="36" data-uid="ent0035" id="cluster_Metadata"><rect fill="none" height="266.6" rx="2.5" ry="2.5" style="stroke:#181818;stroke-width:1;" width="448" x="1755" y="57"/><rect fill="none" height="10" style="stroke:#181818;stroke-width:1;" width="15" x="2183" y="62"/><rect fill="none" height="2" style="stroke:#181818;stroke-width:1;" width="4" x="2181" y="64"/><rect fill="none" height="2" style="stroke:#181818;stroke-width:1;" width="4" x="2181" y="68"/><text fill="#000000" font-family="sans-serif" font-size="14" font-weight="bold" lengthAdjust="spacing" textLength="75.1748" x="1941.4126" y="82.9951">Metadata</text></g><!--entity Columnar Files--><g class="entity" data-entity="Columnar Files" data-source-line="4" data-uid="ent0004" id="entity_Columnar Files"><rect fill="#F1F1F1" height="46.2969" rx="2.5" ry="2.5" style="stroke:#181818;stroke-width:0.5;" width="144.1387" x="516.93" y="253.3"/><rect fill="#F1F1F1" height="10" style="stroke:#181818;stroke-width:0.5;" width="15" x="641.0687" y="258.3"/><rect fill="#F1F1F1" height="2" style="stroke:#181818;stroke-width:0.5;" width="4" x="639.0687" y="260.3"/><rect fill="#F1F1F1" height="2" style="stroke:#181818;stroke-width:0.5;" width="4" x="639.0687" y="264.3"/><text fill="#000000" font-family="sans-serif" font-size="14" lengthAdjust="spacing" textLength="104.1387" x="531.93" y="286.2951">Columnar Files</text></g><!--entity Training Datasets--><g class="entity" data-entity="Training Datasets" data-source-line="4" data-uid="ent0005" id="entity_Training Datasets"><rect fill="#F1F1F1" height="46.2969" rx="2.5" ry="2.5" style="stroke:#181818;stroke-width:0.5;" width="163.8672" x="508.07" y="406.6"/><rect fill="#F1F1F1" height="10" style="stroke:#181818;stroke-width:0.5;" width="15" x="651.9372" y="411.6"/><rect fill="#F1F1F1" height="2" style="stroke:#181818;stroke-width:0.5;" width="4" x="649.9372" y="413.6"/><rect fill="#F1F1F1" height="2" style="stroke:#181818;stroke-width:0.5;" width="4" x="649.9372" y="417.6"/><text fill="#000000" font-family="sans-serif" font-size="14" lengthAdjust="spacing" textLength="123.8672" x="523.07" y="439.5951">Training Datasets</text></g><!--entity Low-latency Key-Value Database--><g class="entity" data-entity="Low-latency Key-Value Database" data-source-line="8" data-uid="ent0008" id="entity_Low-latency Key-Value Database"><rect fill="#F1F1F1" height="46.2969" rx="2.5" ry="2.5" style="stroke:#181818;stroke-width:0.5;" width="270.6582" x="1420.67" y="253.3"/><rect fill="#F1F1F1" height="10" style="stroke:#181818;stroke-width:0.5;" width="15" x="1671.3282" y="258.3"/><rect fill="#F1F1F1" height="2" style="stroke:#181818;stroke-width:0.5;" width="4" x="1669.3282" y="260.3"/><rect fill="#F1F1F1" height="2" style="stroke:#181818;stroke-width:0.5;" width="4" x="1669.3282" y="264.3"/><text fill="#000000" font-family="sans-serif" font-size="14" lengthAdjust="spacing" textLength="230.6582" x="1435.67" y="286.2951">Low-latency Key-Value Database</text></g><!--entity Inference--><g class="entity" data-entity="Inference" data-source-line="8" data-uid="ent0009" id="entity_Inference"><rect fill="#F1F1F1" height="46.2969" rx="2.5" ry="2.5" style="stroke:#181818;stroke-width:0.5;" width="106.0967" x="1502.95" y="406.6"/><rect fill="#F1F1F1" height="10" style="stroke:#181818;stroke-width:0.5;" width="15" x="1589.0467" y="411.6"/><rect fill="#F1F1F1" height="2" style="stroke:#181818;stroke-width:0.5;" width="4" x="1587.0467" y="413.6"/><rect fill="#F1F1F1" height="2" style="stroke:#181818;stroke-width:0.5;" width="4" x="1587.0467" y="417.6"/><text fill="#000000" font-family="sans-serif" font-size="14" lengthAdjust="spacing" textLength="66.0967" x="1517.95" y="439.5951">Inference</text></g><!--entity Feature Definitions--><g class="entity" data-entity="Feature Definitions" data-source-line="12" data-uid="ent0012" id="entity_Feature Definitions"><rect fill="#F1F1F1" height="46.2969" rx="2.5" ry="2.5" style="stroke:#181818;stroke-width:0.5;" width="173.5127" x="768.24" y="406.6"/><rect fill="#F1F1F1" height="10" style="stroke:#181818;stroke-width:0.5;" width="15" x="921.7527" y="411.6"/><rect fill="#F1F1F1" height="2" style="stroke:#181818;stroke-width:0.5;" width="4" x="919.7527" y="413.6"/><rect fill="#F1F1F1" height="2" style="stroke:#181818;stroke-width:0.5;" width="4" x="919.7527" y="417.6"/><text fill="#000000" font-family="sans-serif" font-size="14" lengthAdjust="spacing" textLength="133.5127" x="783.24" y="439.5951">Feature Definitions</text></g><!--entity Owners--><g class="entity" data-entity="Owners" data-source-line="13" data-uid="ent0013" id="entity_Owners"><rect fill="#F1F1F1" height="46.2969" rx="2.5" ry="2.5" style="stroke:#181818;stroke-width:0.5;" width="93.0059" x="976.5" y="406.6"/><rect fill="#F1F1F1" height="10" style="stroke:#181818;stroke-width:0.5;" width="15" x="1049.5059" y="411.6"/><rect fill="#F1F1F1" height="2" style="stroke:#181818;stroke-width:0.5;" width="4" x="1047.5059" y="413.6"/><rect fill="#F1F1F1" height="2" style="stroke:#181818;stroke-width:0.5;" width="4" x="1047.5059" y="417.6"/><text fill="#000000" font-family="sans-serif" font-size="14" lengthAdjust="spacing" textLength="53.0059" x="991.5" y="439.5951">Owners</text></g><!--entity Transformation Logic--><g class="entity" data-entity="Transformation Logic" data-source-line="14" data-uid="ent0014" id="entity_Transformation Logic"><rect fill="#F1F1F1" height="46.2969" rx="2.5" ry="2.5" style="stroke:#181818;stroke-width:0.5;" width="188.627" x="1104.69" y="406.6"/><rect fill="#F1F1F1" height="10" style="stroke:#181818;stroke-width:0.5;" width="15" x="1273.317" y="411.6"/><rect fill="#F1F1F1" height="2" style="stroke:#181818;stroke-width:0.5;" width="4" x="1271.317" y="413.6"/><rect fill="#F1F1F1" height="2" style="stroke:#181818;stroke-width:0.5;" width="4" x="1271.317" y="417.6"/><text fill="#000000" font-family="sans-serif" font-size="14" lengthAdjust="spacing" textLength="148.627" x="1119.69" y="439.5951">Transformation Logic</text></g><!--entity Shared Library--><g class="entity" data-entity="Shared Library" data-source-line="14" data-uid="ent0015" id="entity_Shared Library"><rect fill="#F1F1F1" height="46.2969" rx="2.5" ry="2.5" style="stroke:#181818;stroke-width:0.5;" width="142.9971" x="767.5" y="517.44"/><rect fill="#F1F1F1" height="10" style="stroke:#181818;stroke-width:0.5;" width="15" x="890.4971" y="522.44"/><rect fill="#F1F1F1" height="2" style="stroke:#181818;stroke-width:0.5;" width="4" x="888.4971" y="524.44"/><rect fill="#F1F1F1" height="2" style="stroke:#181818;stroke-width:0.5;" width="4" x="888.4971" y="528.44"/><text fill="#000000" font-family="sans-serif" font-size="14" lengthAdjust="spacing" textLength="102.9971" x="782.5" y="550.4351">Shared Library</text></g><!--entity Batch ETL--><g class="entity" data-entity="Batch ETL" data-source-line="18" data-uid="ent0018" id="entity_Batch ETL"><rect fill="#F1F1F1" height="46.2969" rx="2.5" ry="2.5" style="stroke:#181818;stroke-width:0.5;" width="109.8906" x="107.05" y="406.6"/><rect fill="#F1F1F1" height="10" style="stroke:#181818;stroke-width:0.5;" width="15" x="196.9406" y="411.6"/><rect fill="#F1F1F1" height="2" style="stroke:#181818;stroke-width:0.5;" width="4" x="194.9406" y="413.6"/><rect fill="#F1F1F1" height="2" style="stroke:#181818;stroke-width:0.5;" width="4" x="194.9406" y="417.6"/><text fill="#000000" font-family="sans-serif" font-size="14" lengthAdjust="spacing" textLength="69.8906" x="122.05" y="439.5951">Batch ETL</text></g><!--entity Online Services--><g class="entity" data-entity="Online Services" data-source-line="19" data-uid="ent0020" id="entity_Online Services"><rect fill="#F1F1F1" height="46.2969" rx="2.5" ry="2.5" style="stroke:#181818;stroke-width:0.5;" width="148.6436" x="251.68" y="406.6"/><rect fill="#F1F1F1" height="10" style="stroke:#181818;stroke-width:0.5;" width="15" x="380.3236" y="411.6"/><rect fill="#F1F1F1" height="2" style="stroke:#181818;stroke-width:0.5;" width="4" x="378.3236" y="413.6"/><rect fill="#F1F1F1" height="2" style="stroke:#181818;stroke-width:0.5;" width="4" x="378.3236" y="417.6"/><text fill="#000000" font-family="sans-serif" font-size="14" lengthAdjust="spacing" textLength="108.6436" x="266.68" y="439.5951">Online Services</text></g><!--entity Backfill Jobs--><g class="entity" data-entity="Backfill Jobs" data-source-line="23" data-uid="ent0023" id="entity_Backfill Jobs"><rect fill="#F1F1F1" height="46.2969" rx="2.5" ry="2.5" style="stroke:#181818;stroke-width:0.5;" width="123.9111" x="575.04" y="100"/><rect fill="#F1F1F1" height="10" style="stroke:#181818;stroke-width:0.5;" width="15" x="678.9511" y="105"/><rect fill="#F1F1F1" height="2" style="stroke:#181818;stroke-width:0.5;" width="4" x="676.9511" y="107"/><rect fill="#F1F1F1" height="2" style="stroke:#181818;stroke-width:0.5;" width="4" x="676.9511" y="111"/><text fill="#000000" font-family="sans-serif" font-size="14" lengthAdjust="spacing" textLength="83.9111" x="590.04" y="132.9951">Backfill Jobs</text></g><!--entity Streaming Jobs--><g class="entity" data-entity="Streaming Jobs" data-source-line="24" data-uid="ent0025" id="entity_Streaming Jobs"><rect fill="#F1F1F1" height="46.2969" rx="2.5" ry="2.5" style="stroke:#181818;stroke-width:0.5;" width="145.9365" x="734.03" y="100"/><rect fill="#F1F1F1" height="10" style="stroke:#181818;stroke-width:0.5;" width="15" x="859.9665" y="105"/><rect fill="#F1F1F1" height="2" style="stroke:#181818;stroke-width:0.5;" width="4" x="857.9665" y="107"/><rect fill="#F1F1F1" height="2" style="stroke:#181818;stroke-width:0.5;" width="4" x="857.9665" y="111"/><text fill="#000000" font-family="sans-serif" font-size="14" lengthAdjust="spacing" textLength="105.9365" x="749.03" y="132.9951">Streaming Jobs</text></g><!--entity Skew Detector--><g class="entity" data-entity="Skew Detector" data-source-line="28" data-uid="ent0028" id="entity_Skew Detector"><rect fill="#F1F1F1" height="46.2969" rx="2.5" ry="2.5" style="stroke:#181818;stroke-width:0.5;" width="142.5117" x="61.74" y="100"/><rect fill="#F1F1F1" height="10" style="stroke:#181818;stroke-width:0.5;" width="15" x="184.2517" y="105"/><rect fill="#F1F1F1" height="2" style="stroke:#181818;stroke-width:0.5;" width="4" x="182.2517" y="107"/><rect fill="#F1F1F1" height="2" style="stroke:#181818;stroke-width:0.5;" width="4" x="182.2517" y="111"/><text fill="#000000" font-family="sans-serif" font-size="14" lengthAdjust="spacing" textLength="102.5117" x="76.74" y="132.9951">Skew Detector</text></g><!--entity Training and Serving Distributions--><g class="entity" data-entity="Training and Serving Distributions" data-source-line="28" data-uid="ent0029" id="entity_Training and Serving Distributions"><rect fill="#F1F1F1" height="46.2969" rx="2.5" ry="2.5" style="stroke:#181818;stroke-width:0.5;" width="279.1484" x="62.43" y="253.3"/><rect fill="#F1F1F1" height="10" style="stroke:#181818;stroke-width:0.5;" width="15" x="321.5784" y="258.3"/><rect fill="#F1F1F1" height="2" style="stroke:#181818;stroke-width:0.5;" width="4" x="319.5784" y="260.3"/><rect fill="#F1F1F1" height="2" style="stroke:#181818;stroke-width:0.5;" width="4" x="319.5784" y="264.3"/><text fill="#000000" font-family="sans-serif" font-size="14" lengthAdjust="spacing" textLength="239.1484" x="77.43" y="286.2951">Training and Serving Distributions</text></g><!--entity Alerting on Drift--><g class="entity" data-entity="Alerting on Drift" data-source-line="29" data-uid="ent0031" id="entity_Alerting on Drift"><rect fill="#F1F1F1" height="46.2969" rx="2.5" ry="2.5" style="stroke:#181818;stroke-width:0.5;" width="152.1572" x="238.92" y="100"/><rect fill="#F1F1F1" height="10" style="stroke:#181818;stroke-width:0.5;" width="15" x="371.0772" y="105"/><rect fill="#F1F1F1" height="2" style="stroke:#181818;stroke-width:0.5;" width="4" x="369.0772" y="107"/><rect fill="#F1F1F1" height="2" style="stroke:#181818;stroke-width:0.5;" width="4" x="369.0772" y="111"/><text fill="#000000" font-family="sans-serif" font-size="14" lengthAdjust="spacing" textLength="112.1572" x="253.92" y="132.9951">Alerting on Drift</text></g><!--entity Access Policies--><g class="entity" data-entity="Access Policies" data-source-line="33" data-uid="ent0033" id="entity_Access Policies"><rect fill="#F1F1F1" height="46.2969" rx="2.5" ry="2.5" style="stroke:#181818;stroke-width:0.5;" width="144.9043" x="782.55" y="253.3"/><rect fill="#F1F1F1" height="10" style="stroke:#181818;stroke-width:0.5;" width="15" x="907.4543" y="258.3"/><rect fill="#F1F1F1" height="2" style="stroke:#181818;stroke-width:0.5;" width="4" x="905.4543" y="260.3"/><rect fill="#F1F1F1" height="2" style="stroke:#181818;stroke-width:0.5;" width="4" x="905.4543" y="264.3"/><text fill="#000000" font-family="sans-serif" font-size="14" lengthAdjust="spacing" textLength="104.9043" x="797.55" y="286.2951">Access Policies</text></g><!--entity Lineage Metadata--><g class="entity" data-entity="Lineage Metadata" data-source-line="37" data-uid="ent0036" id="entity_Lineage Metadata"><rect fill="#F1F1F1" height="46.2969" rx="2.5" ry="2.5" style="stroke:#181818;stroke-width:0.5;" width="166" x="1909" y="100"/><rect fill="#F1F1F1" height="10" style="stroke:#181818;stroke-width:0.5;" width="15" x="2055" y="105"/><rect fill="#F1F1F1" height="2" style="stroke:#181818;stroke-width:0.5;" width="4" x="2053" y="107"/><rect fill="#F1F1F1" height="2" style="stroke:#181818;stroke-width:0.5;" width="4" x="2053" y="111"/><text fill="#000000" font-family="sans-serif" font-size="14" lengthAdjust="spacing" textLength="126" x="1924" y="132.9951">Lineage Metadata</text></g><!--entity Upstream Raw Sources--><g class="entity" data-entity="Upstream Raw Sources" data-source-line="37" data-uid="ent0037" id="entity_Upstream Raw Sources"><rect fill="#F1F1F1" height="46.2969" rx="2.5" ry="2.5" style="stroke:#181818;stroke-width:0.5;" width="202.8457" x="1786.58" y="253.3"/><rect fill="#F1F1F1" height="10" style="stroke:#181818;stroke-width:0.5;" width="15" x="1969.4257" y="258.3"/><rect fill="#F1F1F1" height="2" style="stroke:#181818;stroke-width:0.5;" width="4" x="1967.4257" y="260.3"/><rect fill="#F1F1F1" height="2" style="stroke:#181818;stroke-width:0.5;" width="4" x="1967.4257" y="264.3"/><text fill="#000000" font-family="sans-serif" font-size="14" lengthAdjust="spacing" textLength="162.8457" x="1801.58" y="286.2951">Upstream Raw Sources</text></g><!--entity Transformations--><g class="entity" data-entity="Transformations" data-source-line="38" data-uid="ent0039" id="entity_Transformations"><rect fill="#F1F1F1" height="46.2969" rx="2.5" ry="2.5" style="stroke:#181818;stroke-width:0.5;" width="154.6318" x="2024.68" y="253.3"/><rect fill="#F1F1F1" height="10" style="stroke:#181818;stroke-width:0.5;" width="15" x="2159.3118" y="258.3"/><rect fill="#F1F1F1" height="2" style="stroke:#181818;stroke-width:0.5;" width="4" x="2157.3118" y="260.3"/><rect fill="#F1F1F1" height="2" style="stroke:#181818;stroke-width:0.5;" width="4" x="2157.3118" y="264.3"/><text fill="#000000" font-family="sans-serif" font-size="14" lengthAdjust="spacing" textLength="114.6318" x="2039.68" y="286.2951">Transformations</text></g><g class="entity" data-entity="GMN50" data-source-line="54" data-uid="ent0051" id="entity_GMN50"><path d="M2251.37,402.04 L2251.37,457.4384 L2548.6263,457.4384 L2548.6263,412.04 L2538.6263,402.04 L2251.37,402.04" fill="#FEFFDD" style="stroke:#181818;stroke-width:0.5;"/><path d="M2538.6263,402.04 L2538.6263,412.04 L2548.6263,412.04 L2538.6263,402.04" fill="#FEFFDD" style="stroke:#181818;stroke-width:1;"/><text fill="#000000" font-family="sans-serif" font-size="13" lengthAdjust="spacing" textLength="226.8589" x="2257.37" y="419.1069">Ensures consistent features across</text><text fill="#000000" font-family="sans-serif" font-size="13" lengthAdjust="spacing" textLength="209.5869" x="2257.37" y="434.2397">training and inference, reducing</text><text fill="#000000" font-family="sans-serif" font-size="13" lengthAdjust="spacing" textLength="276.2563" x="2257.37" y="449.3725">operational risk for acceptance prediction.</text></g><!--link Columnar Files to Training Datasets--><g class="link" data-entity-1="Columnar Files" data-entity-2="Training Datasets" data-source-line="4" data-uid="lnk6" id="link_Columnar Files_Training Datasets"><path d="M589.15,299.77 C589.34,328.38 589.6202,371.6801 589.8102,400.3301" fill="none" id="Columnar Files-to-Training Datasets" style="stroke:#181818;stroke-width:1;"/><polygon fill="#181818" points="589.85,406.33,593.7902,397.3037,589.8168,401.3301,585.7904,397.3567,589.85,406.33" style="stroke:#181818;stroke-width:1;"/></g><!--link Low-latency Key-Value Database to Inference--><g class="link" data-entity-1="Low-latency Key-Value Database" data-entity-2="Inference" data-source-line="8" data-uid="lnk10" id="link_Low-latency Key-Value Database_Inference"><path d="M1556,299.77 C1556,328.38 1556,371.68 1556,400.33" fill="none" id="Low-latency Key-Value Database-to-Inference" style="stroke:#181818;stroke-width:1;"/><polygon fill="#181818" points="1556,406.33,1560,397.33,1556,401.33,1552,397.33,1556,406.33" style="stroke:#181818;stroke-width:1;"/></g><!--link Transformation Logic to Shared Library--><g class="link" data-entity-1="Transformation Logic" data-entity-2="Shared Library" data-source-line="14" data-uid="lnk16" id="link_Transformation Logic_Shared Library"><path d="M1165.06,453.35 C1143.52,466.72 1114.61,482.93 1087,492.89 C1029.61,513.6 967.2286,524.8161 916.8386,531.4561" fill="none" id="Transformation Logic-to-Shared Library" style="stroke:#181818;stroke-width:1;"/><polygon fill="#181818" points="910.89,532.24,920.3354,535.0299,915.8471,531.5868,919.2903,527.0985,910.89,532.24" style="stroke:#181818;stroke-width:1;"/></g><!--link Batch ETL to Shared Library--><g class="link" data-entity-1="Batch ETL" data-entity-2="Shared Library" data-source-line="18" data-uid="lnk19" id="link_Batch ETL_Shared Library"><path d="M180.96,453.22 C194.24,467.26 213.27,484.26 234,492.89 C328.52,532.25 622.2901,538.7228 761.1401,539.5828" fill="none" id="Batch ETL-to-Shared Library" style="stroke:#181818;stroke-width:1;"/><polygon fill="#181818" points="767.14,539.62,758.1649,535.5643,762.1401,539.589,758.1154,543.5642,767.14,539.62" style="stroke:#181818;stroke-width:1;"/></g><!--link Online Services to Shared Library--><g class="link" data-entity-1="Online Services" data-entity-2="Shared Library" data-source-line="19" data-uid="lnk21" id="link_Online Services_Shared Library"><path d="M347.31,453.32 C361.87,467.21 382.38,484.01 404,492.89 C468.02,519.2 655.3567,531.4358 761.4367,536.4658" fill="none" id="Online Services-to-Shared Library" style="stroke:#181818;stroke-width:1;"/><polygon fill="#181818" points="767.43,536.75,758.6296,532.3282,762.4356,536.5132,758.2506,540.3192,767.43,536.75" style="stroke:#181818;stroke-width:1;"/></g><!--link Backfill Jobs to Offline Feature Store--><g class="link" data-entity-1="Backfill Jobs" data-entity-2="Offline Feature Store" data-source-line="23" data-uid="lnk24" id="link_Backfill Jobs_Offline Feature Store"><path d="M658.14,146.64 C668.99,159.57 681.31,176.71 688,194.3 C689.56,198.4013 690.8595,202.6992 691.9388,207.0861 C692.0737,207.6345 692.2052,208.1842 692.3333,208.7352 C692.3973,209.0106 692.4605,209.2864 692.5229,209.5624 C692.5541,209.7004 691.2804,203.9821 691.3112,204.1202" fill="none" id="Backfill Jobs-to-Offline Feature Store" style="stroke:#181818;stroke-width:1;"/><polygon fill="#181818" points="692.6159,209.9767,694.5631,200.3222,691.5286,205.0963,686.7546,202.0618,692.6159,209.9767" style="stroke:#181818;stroke-width:1;"/></g><!--link Streaming Jobs to Online Feature Store--><g class="link" data-entity-1="Streaming Jobs" data-entity-2="Online Feature Store" data-source-line="24" data-uid="lnk26" id="link_Streaming Jobs_Online Feature Store"><path d="M880.2,143.31 C957.36,163.51 1082.1975,196.1875 1188.4187,223.9913 C1241.5294,237.8931 1289.9859,250.5766 1325.5017,259.8727 C1343.2596,264.5207 1357.7823,268.3219 1368.034,271.0052 C1370.5969,271.676 1372.8929,272.2769 1374.9057,272.8038 C1375.4089,272.9355 1370.09,271.5433 1370.5575,271.6657" fill="none" id="Streaming Jobs-to-Online Feature Store" style="stroke:#181818;stroke-width:1;"/><polygon fill="#181818" points="1376.362,273.1849,1368.6681,267.0364,1371.5249,271.9189,1366.6425,274.7757,1376.362,273.1849" style="stroke:#181818;stroke-width:1;"/></g><!--link Skew Detector to Training and Serving Distributions--><g class="link" data-entity-1="Skew Detector" data-entity-2="Training and Serving Distributions" data-source-line="28" data-uid="lnk30" id="link_Skew Detector_Training and Serving Distributions"><path d="M143.18,146.47 C156.23,175.08 176.2197,218.9212 189.2897,247.5712" fill="none" id="Skew Detector-to-Training and Serving Distributions" style="stroke:#181818;stroke-width:1;"/><polygon fill="#181818" points="191.78,253.03,191.6838,243.1816,189.7048,248.481,184.4054,246.502,191.78,253.03" style="stroke:#181818;stroke-width:1;"/></g><!--link Access Policies to Feature Definitions--><g class="link" data-entity-1="Access Policies" data-entity-2="Feature Definitions" data-source-line="33" data-uid="lnk34" id="link_Access Policies_Feature Definitions"><path d="M855,299.77 C855,328.38 855,371.68 855,400.33" fill="none" id="Access Policies-to-Feature Definitions" style="stroke:#181818;stroke-width:1;"/><polygon fill="#181818" points="855,406.33,859,397.33,855,401.33,851,397.33,855,406.33" style="stroke:#181818;stroke-width:1;"/></g><!--link Lineage Metadata to Upstream Raw Sources--><g class="link" data-entity-1="Lineage Metadata" data-entity-2="Upstream Raw Sources" data-source-line="37" data-uid="lnk38" id="link_Lineage Metadata_Upstream Raw Sources"><path d="M1976.65,146.47 C1956.99,175.08 1926.4984,219.4352 1906.8084,248.0852" fill="none" id="Lineage Metadata-to-Upstream Raw Sources" style="stroke:#181818;stroke-width:1;"/><polygon fill="#181818" points="1903.41,253.03,1911.8041,247.8784,1906.242,248.9093,1905.211,243.3472,1903.41,253.03" style="stroke:#181818;stroke-width:1;"/></g><!--link Lineage Metadata to Transformations--><g class="link" data-entity-1="Lineage Metadata" data-entity-2="Transformations" data-source-line="38" data-uid="lnk40" id="link_Lineage Metadata_Transformations"><path d="M2008.23,146.47 C2029.03,175.08 2061.3417,219.5271 2082.1717,248.1771" fill="none" id="Lineage Metadata-to-Transformations" style="stroke:#181818;stroke-width:1;"/><polygon fill="#181818" points="2085.7,253.03,2083.6428,243.3984,2082.7597,248.9859,2077.1722,248.1028,2085.7,253.03" style="stroke:#181818;stroke-width:1;"/></g><!--link Offline Feature Store to Feature Registry--><g class="link" data-entity-1="Offline Feature Store" data-entity-2="Feature Registry" data-source-line="41" data-uid="lnk41" id="link_Offline Feature Store_Feature Registry"><path d="M704.127,288.263 C704.6442,288.9082 705.1838,289.5745 705.7451,290.2597 C706.8676,291.6302 708.0768,293.0764 709.3673,294.5809 C711.9482,297.5897 714.8541,300.8313 718.0413,304.165 C730.79,317.5 748.04,332.31 767,339.6 C781.06,345 1297.22,338.22 1309,347.6 C1312.52,350.4 1315.4808,353.7117 1317.9662,357.3702 C1319.2089,359.1994 1320.3327,361.1153 1321.3482,363.0973 C1321.4117,363.2212 1318.7766,357.9862 1318.8392,358.1106" fill="none" id="Offline Feature Store-to-Feature Registry" style="stroke:#181818;stroke-width:1;"/><polygon fill="#181818" points="1321.5373,363.4697,1321.0629,353.6323,1319.2889,359.0038,1313.9174,357.2298,1321.5373,363.4697" style="stroke:#181818;stroke-width:1;"/></g><!--link Online Feature Store to Feature Registry--><g class="link" data-entity-1="Online Feature Store" data-entity-2="Feature Registry" data-source-line="42" data-uid="lnk42" id="link_Online Feature Store_Feature Registry"><path d="M1376.9357,299.2374 C1376.8586,299.4457 1376.7811,299.6551 1376.7032,299.8657 C1376.3915,300.7078 1376.0731,301.5678 1375.7486,302.4445 C1370.5559,316.4728 1363.7719,334.8006 1356.9888,353.1263 C1350.2056,371.4519 1343.4234,389.7753 1338.2345,403.7948 C1337.9102,404.6711 1337.5921,405.5305 1337.2807,406.372 C1337.2028,406.5824 1339.208,401.1647 1339.1309,401.3729" fill="none" id="Online Feature Store-to-Feature Registry" style="stroke:#181818;stroke-width:1;"/><polygon fill="#181818" points="1337.0483,406.9998,1343.9236,399.9478,1338.7838,402.3107,1336.4209,397.171,1337.0483,406.9998" style="stroke:#181818;stroke-width:1;"/></g><!--link Feature Registry to ETL and Online Services--><g class="link" data-entity-1="Feature Registry" data-entity-2="ETL and Online Services" data-source-line="43" data-uid="lnk43" id="link_Feature Registry_ETL and Online Services"><path d="M1320.0446,363.3985 C1319.9845,363.2741 1319.924,363.1499 1319.8632,363.0259 C1319.7416,362.7779 1319.6185,362.5306 1319.4939,362.2843 C1319.2449,361.7915 1318.99,361.3021 1318.7292,360.8164 C1318.2076,359.8448 1317.6623,358.8878 1317.0922,357.9475 C1314.812,354.1861 1312.1363,350.6913 1309,347.6 C1303.32,341.99 1299.43,344.49 1291.5,343.6 C1248.33,338.72 552.67,338.72 509.5,343.6 C501.57,344.49 498.59,343.1 492,347.6 C474.89,359.27 461.515,378.0475 452.1337,394.705 C449.7884,398.8694 447.6927,402.9013 445.8507,406.6564 C445.3902,407.5952 444.9455,408.5168 444.5168,409.4187 C444.4096,409.6442 444.3034,409.8685 444.1982,410.0915 C444.1456,410.203 446.645,404.8838 446.5929,404.9947" fill="none" id="Feature Registry-to-ETL and Online Services" style="stroke:#181818;stroke-width:1;"/><polygon fill="#181818" points="444.0412,410.4251,451.489,403.9807,446.1676,405.8998,444.2485,400.5784,444.0412,410.4251" style="stroke:#181818;stroke-width:1;"/></g><!--link ETL and Online Services to Jobs--><g class="link" data-entity-1="ETL and Online Services" data-entity-2="Jobs" data-source-line="44" data-uid="lnk44" id="link_ETL and Online Services_Jobs"><path d="M444.1443,368.6659 C444.2513,368.0185 444.3595,367.3674 444.469,366.7127 C444.6879,365.4033 444.9116,364.0794 445.1403,362.7418 C446.0549,357.3911 447.048,351.8194 448.1238,346.0675 C456.73,300.0525 470.63,242.505 492,194.3 C499.415,177.57 510.9075,160.5875 520.7888,147.5225 C523.2591,144.2563 525.6287,141.2348 527.8087,138.5234 C528.8987,137.1677 529.9413,135.8895 530.9254,134.697 C531.1714,134.3988 531.4138,134.106 531.6524,133.8187 C531.712,133.7469 527.9352,138.2889 527.9944,138.2178" fill="none" id="ETL and Online Services-to-Jobs" style="stroke:#181818;stroke-width:1;"/><polygon fill="#181818" points="531.8305,133.6043,523.0007,137.9671,528.6338,137.4488,529.152,143.0819,531.8305,133.6043" style="stroke:#181818;stroke-width:1;"/></g><!--link Jobs to Monitoring--><g class="link" data-entity-1="Jobs" data-entity-2="Monitoring" data-source-line="45" data-uid="lnk45" id="link_Jobs_Monitoring"><path d="M531.6057,123.15 C531.3111,123.15 531.0165,123.15 530.7219,123.15 C530.1327,123.15 529.5435,123.15 528.9543,123.15 C527.7759,123.15 526.5976,123.15 525.4192,123.15 C520.7057,123.15 515.9924,123.15 511.2792,123.15 C501.8528,123.15 492.4269,123.15 483.0012,123.15 C473.5756,123.15 464.1503,123.15 454.7252,123.15 C450.0126,123.15 445.3,123.15 440.5875,123.15 C439.4094,123.15 438.2313,123.15 437.0531,123.15 C436.4641,123.15 435.875,123.15 435.2859,123.15 C434.9914,123.15 434.6969,123.15 434.4023,123.15 C434.3287,123.15 440.2551,123.15 440.1814,123.15" fill="none" id="Jobs-to-Monitoring" style="stroke:#181818;stroke-width:1;"/><polygon fill="#181818" points="434.1814,123.15,443.1814,127.15,439.1814,123.15,443.1814,119.15,434.1814,123.15" style="stroke:#181818;stroke-width:1;"/></g><!--link Monitoring to Security--><g class="link" data-entity-1="Monitoring" data-entity-2="Security" data-source-line="46" data-uid="lnk46" id="link_Monitoring_Security"><path d="M434.1725,131.602 C434.2523,131.672 434.3327,131.7424 434.4135,131.8132 C434.5753,131.9547 434.7391,132.0978 434.905,132.2424 C435.2368,132.5317 435.5769,132.8271 435.9252,133.1283 C441.4972,137.9478 449.1531,144.2631 458.2138,150.9413 C476.335,164.2975 500.075,179.105 524,186.3 C546.3,193 924.81,179.77 943,194.3 C946.5138,197.1075 949.4698,200.425 951.9518,204.0878 C953.1928,205.9192 954.3152,207.837 955.3296,209.8204 C955.393,209.9444 952.7617,204.7075 952.8243,204.832" fill="none" id="Monitoring-to-Security" style="stroke:#181818;stroke-width:1;"/><polygon fill="#181818" points="955.5185,210.1931,955.0513,200.3553,953.2733,205.7255,947.9031,203.9476,955.5185,210.1931" style="stroke:#181818;stroke-width:1;"/></g><!--link Security to Metadata--><g class="link" data-entity-1="Security" data-entity-2="Metadata" data-source-line="47" data-uid="lnk47" id="link_Security_Metadata"><path d="M971.059,273.7676 C971.2396,273.7301 971.4231,273.692 971.6095,273.6533 C971.9822,273.5759 972.3664,273.4962 972.7619,273.4141 C973.553,273.2499 974.3896,273.0763 975.2705,272.8936 C982.318,271.4319 992.2089,269.3844 1004.4409,266.8625 C1028.905,261.8188 1062.7337,254.8775 1101.91,246.93 C1180.2625,231.035 1280.005,211.115 1369,194.3 C1455.02,178.045 1551.81,160.7975 1627.93,147.4725 C1665.99,140.81 1698.8825,135.1281 1722.6775,131.0413 C1734.575,128.9978 1744.1981,127.3531 1751.0556,126.184 C1751.9128,126.0378 1752.7268,125.8991 1753.4966,125.768 C1753.8815,125.7024 1748.3405,126.6459 1748.7032,126.5841" fill="none" id="Security-to-Metadata" style="stroke:#181818;stroke-width:1;"/><polygon fill="#181818" points="1754.618,125.577,1745.0743,123.1445,1749.689,126.4163,1746.4172,131.031,1754.618,125.577" style="stroke:#181818;stroke-width:1;"/></g><!--link Metadata to Offline Feature Store--><g class="link" data-entity-1="Metadata" data-entity-2="Offline Feature Store" data-source-line="49" data-uid="lnk48" id="link_Metadata_Offline Feature Store"><path d="M1754.574,124.788 C1754.0218,124.8295 1753.4434,124.873 1752.839,124.9185 C1751.6302,125.0094 1750.3175,125.1081 1748.9032,125.2144 C1746.0744,125.427 1742.8386,125.67 1739.2132,125.9421 C1724.7113,127.0303 1703.9739,128.5827 1678.1028,130.5098 C1626.3606,134.3641 1554.0838,139.7169 1470.0875,145.8513 C1302.095,158.12 1087.225,173.515 896,186.3 C881.67,187.26 779.89,187.96 767,194.3 C745.835,204.705 728.305,224.525 715.9588,241.9713 C712.8722,246.3328 710.1096,250.546 707.6952,254.4267 C706.488,256.367 705.3679,258.2242 704.3378,259.9752 C704.2734,260.0846 707.2441,255.0177 707.1804,255.1263" fill="none" id="Metadata-to-Offline Feature Store" style="stroke:#181818;stroke-width:1;"/><polygon fill="#181818" points="704.1457,260.3022,712.1484,254.5615,706.6746,255.989,705.2472,250.5152,704.1457,260.3022" style="stroke:#181818;stroke-width:1;"/></g><!--link Metadata to Online Feature Store--><g class="link" data-entity-1="Metadata" data-entity-2="Online Feature Store" data-source-line="50" data-uid="lnk49" id="link_Metadata_Online Feature Store"><path d="M1754.4283,124.6089 C1752.727,124.7065 1750.7902,124.8204 1748.6341,124.9515 C1740.0098,125.4757 1727.8764,126.2746 1713.2641,127.4005 C1684.0394,129.6522 1644.8987,133.2119 1604.0825,138.4988 C1522.45,149.0725 1434.115,166.555 1405,194.3 C1401.7438,197.4025 1398.9828,200.9436 1396.645,204.7716 C1396.0605,205.7286 1395.5025,206.7035 1394.9698,207.694 C1394.7035,208.1892 1394.4434,208.6883 1394.1896,209.1911 C1394.0627,209.4424 1396.5742,204.3051 1396.4503,204.5583" fill="none" id="Metadata-to-Online Feature Store" style="stroke:#181818;stroke-width:1;"/><polygon fill="#181818" points="1393.8135,209.9478,1401.3618,203.6214,1396.0108,205.4565,1394.1757,200.1056,1393.8135,209.9478" style="stroke:#181818;stroke-width:1;"/></g><!--link Feature Registry to GMN50--><g class="link" data-entity-1="Feature Registry" data-entity-2="GMN50" data-source-line="54" data-uid="lnk52" id="link_Feature Registry_GMN50"><path d="M1337.1147,416.9534 C1341.2281,410.8394 1346.7788,403.0413 1353.4725,394.7125 C1366.86,378.055 1384.82,359.275 1405,347.6 C1411.91,343.6 1414.57,344.49 1422.5,343.6 C1481.46,336.94 1630.27,340.02 1689.5,343.6 C1884.38,355.37 2107.69,385.14 2251.12,406.39" fill="none" id="Feature Registry-GMN50" style="stroke:#181818;stroke-width:1;stroke-dasharray:7,7;"/></g><!--SRC=[bLJ1Yjim4BtxAuQSctv28MrseMtAblMsboM7YJ9oH1J9ZEI6KFRVEt9anzdOWO8nQERDcz6yPzUezbWHp1u9OyC4PVJoNh3QcKWgXMRmjm2GH_b3xHsv2BCdhQrn15TLPo30wnTlcuD3XaTZAQnXFly4ho-CnXbNmH8Z1efXBU2tMsPtXtZbZtEBaPmwmNSwpN-ZRQWbt0XbRlJLQMA1q7Y3ZlcPAXCYdthoBh4aBOD6urqxecIUZewuEyWzND2U3vWWiFALKRbpkKEcBQpCXf5Fu-qVNbQ0RWlvdYNn7wCez5DyngXs8AX9pZJGTV5_jF_cDyDUQg-DjP2YcMHKsTosZ4nuI1eE2zmu_hRt3ozhzIpr_GJbdewoyEGqp- -DajRKNZ6P9cbbDirGbeKbZYafCYpPw3ZUjYJLi8aNeHTATXRWfxT6cNvx4_AFN8CYRiLo5rVA_TCtr2KouQywjFk2Ppn2wHjEIjsjkBRMiFs4BDUJTuvU5p0XontyJV2CdR1hMpALErUs5acmWLSk3cWpWsDsS9QgpVQ7NDljAc_atUucVNi37FNhMr4u7mdOLBi8NezlwS452GLnWmiIJ7RGPrW0LEn3450S-jTqFwCF8DzceoGk45yJjngZbOvX3oAw42Yg8meMQi4QbG0V2nAMD5hn3m00]--></g></svg>