<svg xmlns="http://www.w3.org/2000/svg" xmlns:xlink="http://www.w3.org/1999/xlink" contentStyleType="text/css" data-diagram-type="ACTIVITY" height="522px" preserveAspectRatio="none" style="width:411px;height:522px;background:#FFFFFF;" version="1.1" viewBox="0 0 411 522" width="411px" zoomAndPan="magnify"><defs/><g><ellipse cx="199.3818" cy="20" fill="#222222" rx="10" ry="10" style="stroke:#222222;stroke-width:1;"/><rect fill="#F1F1F1" height="33.9688" rx="12.5" ry="12.5" style="stroke:#181818;stroke-width:0.5;" width="61.959" x="168.4023" y="50"/><text fill="#000000" font-family="sans-serif" font-size="12" lengthAdjust="spacing" textLength="41.959" x="178.4023" y="71.1387">Initiate</text><rect fill="#F1F1F1" height="33.9688" rx="12.5" ry="12.5" style="stroke:#181818;stroke-width:0.5;" width="154.5957" x="122.084" y="103.9688"/><text fill="#000000" font-family="sans-serif" font-size="12" lengthAdjust="spacing" textLength="134.5957" x="132.084" y="125.1074">Collect Data from APIs</text><rect fill="#555555" height="6" rx="2.5" ry="2.5" style="stroke:#555555;stroke-width:1;" width="376.7637" x="11" y="157.9375"/><rect fill="#F1F1F1" height="33.9688" rx="12.5" ry="12.5" style="stroke:#181818;stroke-width:0.5;" width="153.9043" x="25" y="183.9375"/><text fill="#000000" font-family="sans-serif" font-size="12" lengthAdjust="spacing" textLength="133.9043" x="35" y="205.0762">Cleanse Data Streams</text><rect fill="#F1F1F1" height="33.9688" rx="12.5" ry="12.5" style="stroke:#181818;stroke-width:0.5;" width="166.8594" x="206.9043" y="183.9375"/><text fill="#000000" font-family="sans-serif" font-size="12" lengthAdjust="spacing" textLength="146.8594" x="216.9043" y="205.0762">Normalize Data Streams</text><rect fill="#555555" height="6" rx="2.5" ry="2.5" style="stroke:#555555;stroke-width:1;" width="376.7637" x="11" y="237.9063"/><rect fill="#F1F1F1" height="33.9688" rx="12.5" ry="12.5" style="stroke:#181818;stroke-width:0.5;" width="165.8984" x="116.4326" y="263.9063"/><text fill="#000000" font-family="sans-serif" font-size="12" lengthAdjust="spacing" textLength="145.8984" x="126.4326" y="285.0449">Store in Cloud Database</text><polygon fill="#F1F1F1" points="139.5747,317.875,259.189,317.875,271.189,329.875,259.189,341.875,139.5747,341.875,127.5747,329.875,139.5747,317.875" style="stroke:#181818;stroke-width:0.5;"/><text fill="#000000" font-family="sans-serif" font-size="11" lengthAdjust="spacing" textLength="119.6143" x="139.5747" y="333.6831">Data Integrity Check?</text><text fill="#000000" font-family="sans-serif" font-size="11" lengthAdjust="spacing" textLength="19.0083" x="108.5664" y="327.2808">yes</text><text fill="#000000" font-family="sans-serif" font-size="11" lengthAdjust="spacing" textLength="13.7017" x="271.189" y="327.2808">no</text><rect fill="#F1F1F1" height="33.9688" rx="12.5" ry="12.5" style="stroke:#181818;stroke-width:0.5;" width="156.4941" x="21.4004" y="351.875"/><text fill="#000000" font-family="sans-serif" font-size="12" lengthAdjust="spacing" textLength="136.4941" x="31.4004" y="373.0137">Validate Data Integrity</text><rect fill="#F1F1F1" height="33.9688" rx="12.5" ry="12.5" style="stroke:#181818;stroke-width:0.5;" width="202.4434" x="197.8945" y="351.875"/><text fill="#000000" font-family="sans-serif" font-size="12" lengthAdjust="spacing" textLength="182.4434" x="207.8945" y="373.0137">Handle Integrity Check Failure</text><polygon fill="#F1F1F1" points="199.3818,391.8438,211.3818,403.8438,199.3818,415.8438,187.3818,403.8438,199.3818,391.8438" style="stroke:#181818;stroke-width:0.5;"/><rect fill="#F1F1F1" height="33.9688" rx="12.5" ry="12.5" style="stroke:#181818;stroke-width:0.5;" width="157.6543" x="120.5547" y="435.8438"/><text fill="#000000" font-family="sans-serif" font-size="12" lengthAdjust="spacing" textLength="137.6543" x="130.5547" y="456.9824">Archive Historical Data</text><ellipse cx="199.3818" cy="500.8125" fill="none" rx="11" ry="11" style="stroke:#222222;stroke-width:1;"/><ellipse cx="199.3818" cy="500.8125" fill="#222222" rx="6" ry="6" style="stroke:#222222;stroke-width:1;"/><line style="stroke:#181818;stroke-width:1;" x1="199.3818" x2="199.3818" y1="30" y2="50"/><polygon fill="#181818" points="195.3818,40,199.3818,50,203.3818,40,199.3818,44" style="stroke:#181818;stroke-width:1;"/><line style="stroke:#181818;stroke-width:1;" x1="199.3818" x2="199.3818" y1="83.9688" y2="103.9688"/><polygon fill="#181818" points="195.3818,93.9688,199.3818,103.9688,203.3818,93.9688,199.3818,97.9688" style="stroke:#181818;stroke-width:1;"/><line style="stroke:#181818;stroke-width:1;" x1="101.9521" x2="101.9521" y1="163.9375" y2="183.9375"/><polygon fill="#181818" points="97.9521,173.9375,101.9521,183.9375,105.9521,173.9375,101.9521,177.9375" style="stroke:#181818;stroke-width:1;"/><line style="stroke:#181818;stroke-width:1;" x1="290.334" x2="290.334" y1="163.9375" y2="183.9375"/><polygon fill="#181818" points="286.334,173.9375,290.334,183.9375,294.334,173.9375,290.334,177.9375" style="stroke:#181818;stroke-width:1;"/><line style="stroke:#181818;stroke-width:1;" x1="101.9521" x2="101.9521" y1="217.9063" y2="237.9063"/><polygon fill="#181818" points="97.9521,227.9063,101.9521,237.9063,105.9521,227.9063,101.9521,231.9063" style="stroke:#181818;stroke-width:1;"/><line style="stroke:#181818;stroke-width:1;" x1="290.334" x2="290.334" y1="217.9063" y2="237.9063"/><polygon fill="#181818" points="286.334,227.9063,290.334,237.9063,294.334,227.9063,290.334,231.9063" style="stroke:#181818;stroke-width:1;"/><line style="stroke:#181818;stroke-width:1;" x1="199.3818" x2="199.3818" y1="137.9375" y2="157.9375"/><polygon fill="#181818" points="195.3818,147.9375,199.3818,157.9375,203.3818,147.9375,199.3818,151.9375" style="stroke:#181818;stroke-width:1;"/><line style="stroke:#181818;stroke-width:1;" x1="199.3818" x2="199.3818" y1="243.9063" y2="263.9063"/><polygon fill="#181818" points="195.3818,253.9063,199.3818,263.9063,203.3818,253.9063,199.3818,257.9063" style="stroke:#181818;stroke-width:1;"/><line style="stroke:#181818;stroke-width:1;" x1="127.5747" x2="99.6475" y1="329.875" y2="329.875"/><line style="stroke:#181818;stroke-width:1;" x1="99.6475" x2="99.6475" y1="329.875" y2="351.875"/><polygon fill="#181818" points="95.6475,341.875,99.6475,351.875,103.6475,341.875,99.6475,345.875" style="stroke:#181818;stroke-width:1;"/><line style="stroke:#181818;stroke-width:1;" x1="271.189" x2="299.1162" y1="329.875" y2="329.875"/><line style="stroke:#181818;stroke-width:1;" x1="299.1162" x2="299.1162" y1="329.875" y2="351.875"/><polygon fill="#181818" points="295.1162,341.875,299.1162,351.875,303.1162,341.875,299.1162,345.875" style="stroke:#181818;stroke-width:1;"/><line style="stroke:#181818;stroke-width:1;" x1="99.6475" x2="99.6475" y1="385.8438" y2="403.8438"/><line style="stroke:#181818;stroke-width:1;" x1="99.6475" x2="187.3818" y1="403.8438" y2="403.8438"/><polygon fill="#181818" points="177.3818,399.8438,187.3818,403.8438,177.3818,407.8438,181.3818,403.8438" style="stroke:#181818;stroke-width:1;"/><line style="stroke:#181818;stroke-width:1;" x1="299.1162" x2="299.1162" y1="385.8438" y2="403.8438"/><line style="stroke:#181818;stroke-width:1;" x1="299.1162" x2="211.3818" y1="403.8438" y2="403.8438"/><polygon fill="#181818" points="221.3818,399.8438,211.3818,403.8438,221.3818,407.8438,217.3818,403.8438" style="stroke:#181818;stroke-width:1;"/><line style="stroke:#181818;stroke-width:1;" x1="199.3818" x2="199.3818" y1="297.875" y2="317.875"/><polygon fill="#181818" points="195.3818,307.875,199.3818,317.875,203.3818,307.875,199.3818,311.875" style="stroke:#181818;stroke-width:1;"/><line style="stroke:#181818;stroke-width:1;" x1="199.3818" x2="199.3818" y1="415.8438" y2="435.8438"/><polygon fill="#181818" points="195.3818,425.8438,199.3818,435.8438,203.3818,425.8438,199.3818,429.8438" style="stroke:#181818;stroke-width:1;"/><line style="stroke:#181818;stroke-width:1;" x1="199.3818" x2="199.3818" y1="469.8125" y2="489.8125"/><polygon fill="#181818" points="195.3818,479.8125,199.3818,489.8125,203.3818,479.8125,199.3818,483.8125" style="stroke:#181818;stroke-width:1;"/><!--SRC=[NOv1Ri9034NtSmelmnMIHOLI8R91bP2wTnE7M3WUv36LwEdh32jOMl_v_rSSpLCxA3kZKvVQFelGwF29ZZ1RNc7_DPGkfJdRDG6qlH1geITmTYDS8zvIm0koRimfsuh2V-yKwGIr9xLdpqR02hta-rIv7onXa7Y6fhuDwdGnzWVq2utNZntuGWhDWyfkM_cEYIciuPME6Gc_HdEbZgYJq7iP793bRbITU0wXlOqB_n8SkOGQZoYrjqjntlu1]--></g></svg>