<svg xmlns="http://www.w3.org/2000/svg" xmlns:xlink="http://www.w3.org/1999/xlink" contentStyleType="text/css" data-diagram-type="ACTIVITY" height="412px" preserveAspectRatio="none" style="width:226px;height:412px;background:#FFFFFF;" version="1.1" viewBox="0 0 226 412" width="226px" zoomAndPan="magnify"><defs/><g><ellipse cx="100.5762" cy="20" fill="#222222" rx="10" ry="10" style="stroke:#222222;stroke-width:1;"/><rect fill="#F1F1F1" height="33.9688" rx="12.5" ry="12.5" style="stroke:#181818;stroke-width:0.5;" width="110.9316" x="45.1104" y="50"/><text fill="#000000" font-family="sans-serif" font-size="12" lengthAdjust="spacing" textLength="90.9316" x="55.1104" y="71.1387">User adds item</text><rect fill="#F1F1F1" height="33.9688" rx="12.5" ry="12.5" style="stroke:#181818;stroke-width:0.5;" width="179.1523" x="11" y="173.77"/><text fill="#000000" font-family="sans-serif" font-size="12" lengthAdjust="spacing" textLength="159.1523" x="21" y="194.9087">Group items by restaurant</text><polygon fill="#F1F1F1" points="41.752,125.3677,159.4004,125.3677,171.4004,137.3677,159.4004,149.3677,41.752,149.3677,29.752,137.3677,41.752,125.3677" style="stroke:#181818;stroke-width:0.5;"/><text fill="#000000" font-family="sans-serif" font-size="11" lengthAdjust="spacing" textLength="19.0083" x="104.5762" y="159.5781">yes</text><text fill="#000000" font-family="sans-serif" font-size="11" lengthAdjust="spacing" textLength="117.6484" x="41.752" y="141.1758">Group by restaurant?</text><text fill="#000000" font-family="sans-serif" font-size="11" lengthAdjust="spacing" textLength="13.7017" x="171.4004" y="134.7734">no</text><polygon fill="#F1F1F1" points="100.5762,227.7388,112.5762,239.7388,100.5762,251.7388,88.5762,239.7388,100.5762,227.7388" style="stroke:#181818;stroke-width:0.5;"/><rect fill="#F1F1F1" height="33.9688" rx="12.5" ry="12.5" style="stroke:#181818;stroke-width:0.5;" width="127.4902" x="36.8311" y="271.7388"/><text fill="#000000" font-family="sans-serif" font-size="12" lengthAdjust="spacing" textLength="107.4902" x="46.8311" y="292.8774">Recalculate totals</text><rect fill="#F1F1F1" height="33.9688" rx="12.5" ry="12.5" style="stroke:#181818;stroke-width:0.5;" width="111.0078" x="45.0723" y="325.7075"/><text fill="#000000" font-family="sans-serif" font-size="12" lengthAdjust="spacing" textLength="91.0078" x="55.0723" y="346.8462">Persist the cart</text><ellipse cx="100.5762" cy="390.6763" fill="none" rx="11" ry="11" style="stroke:#222222;stroke-width:1;"/><ellipse cx="100.5762" cy="390.6763" fill="#222222" rx="6" ry="6" style="stroke:#222222;stroke-width:1;"/><line style="stroke:#181818;stroke-width:1;" x1="100.5762" x2="100.5762" y1="30" y2="50"/><polygon fill="#181818" points="96.5762,40,100.5762,50,104.5762,40,100.5762,44" style="stroke:#181818;stroke-width:1;"/><line style="stroke:#181818;stroke-width:1;" x1="100.5762" x2="100.5762" y1="149.3677" y2="173.77"/><polygon fill="#181818" points="96.5762,163.77,100.5762,173.77,104.5762,163.77,100.5762,167.77" style="stroke:#181818;stroke-width:1;"/><line style="stroke:#181818;stroke-width:1;" x1="171.4004" x2="200.1523" y1="137.3677" y2="137.3677"/><polygon fill="#181818" points="196.1523,180.7544,200.1523,190.7544,204.1523,180.7544,200.1523,184.7544" style="stroke:#181818;stroke-width:1;"/><line style="stroke:#181818;stroke-width:1;" x1="200.1523" x2="200.1523" y1="137.3677" y2="239.7388"/><line style="stroke:#181818;stroke-width:1;" x1="200.1523" x2="112.5762" y1="239.7388" y2="239.7388"/><polygon fill="#181818" points="122.5762,235.7388,112.5762,239.7388,122.5762,243.7388,118.5762,239.7388" style="stroke:#181818;stroke-width:1;"/><line style="stroke:#181818;stroke-width:1;" x1="100.5762" x2="100.5762" y1="207.7388" y2="227.7388"/><polygon fill="#181818" points="96.5762,217.7388,100.5762,227.7388,104.5762,217.7388,100.5762,221.7388" style="stroke:#181818;stroke-width:1;"/><line style="stroke:#181818;stroke-width:1;" x1="100.5762" x2="100.5762" y1="83.9688" y2="125.3677"/><polygon fill="#181818" points="96.5762,115.3677,100.5762,125.3677,104.5762,115.3677,100.5762,119.3677" style="stroke:#181818;stroke-width:1;"/><text fill="#000000" font-family="sans-serif" font-size="11" lengthAdjust="spacing" textLength="21.4897" x="104.5762" y="105.2734">App</text><line style="stroke:#181818;stroke-width:1;" x1="100.5762" x2="100.5762" y1="251.7388" y2="271.7388"/><polygon fill="#181818" points="96.5762,261.7388,100.5762,271.7388,104.5762,261.7388,100.5762,265.7388" style="stroke:#181818;stroke-width:1;"/><line style="stroke:#181818;stroke-width:1;" x1="100.5762" x2="100.5762" y1="305.7075" y2="325.7075"/><polygon fill="#181818" points="96.5762,315.7075,100.5762,325.7075,104.5762,315.7075,100.5762,319.7075" style="stroke:#181818;stroke-width:1;"/><line style="stroke:#181818;stroke-width:1;" x1="100.5762" x2="100.5762" y1="359.6763" y2="379.6763"/><polygon fill="#181818" points="96.5762,369.6763,100.5762,379.6763,104.5762,369.6763,100.5762,373.6763" style="stroke:#181818;stroke-width:1;"/><!--SRC=[LOwn3W8X44Jx_OefeV07ZaHZPMjC_82Lsuia28HTYljxkLZPJjxC6pNkHhGyLJfuNHN9v1FeTCQrjK2KDhXRhwFXjQEB6e_EnIuUzfO2jujw0fOVSvJrdmmaMGMkL4zIrhHDsqCYvpWocy2gSTPfMkxIDQaTmuZpripKQli2]--></g></svg>