<svg xmlns="http://www.w3.org/2000/svg" xmlns:xlink="http://www.w3.org/1999/xlink" contentStyleType="text/css" data-diagram-type="CLASS" height="442px" preserveAspectRatio="none" style="width:393px;height:442px;background:#FFFFFF;" version="1.1" viewBox="0 0 393 442" width="393px" zoomAndPan="magnify"><defs/><g><!--class EngagementMetric--><g class="entity" data-entity="EngagementMetric" data-source-line="1" data-uid="ent0002" id="entity_EngagementMetric"><rect fill="#F1F1F1" height="96.8906" rx="2.5" ry="2.5" style="stroke:#181818;stroke-width:0.5;" width="181.0049" x="197.45" y="164.6"/><ellipse cx="219.7322" cy="180.6" fill="#ADD1B2" rx="11" ry="11" style="stroke:#181818;stroke-width:1;"/><path d="M222.7009,186.2406 Q222.1228,186.5375 221.4822,186.6781 Q220.8416,186.8344 220.1384,186.8344 Q217.6384,186.8344 216.3103,185.1938 Q214.9978,183.5375 214.9978,180.4125 Q214.9978,177.2875 216.3103,175.6313 Q217.6384,173.975 220.1384,173.975 Q220.8416,173.975 221.4822,174.1313 Q222.1384,174.2875 222.7009,174.5844 L222.7009,177.3031 Q222.0759,176.725 221.4822,176.4594 Q220.8884,176.1781 220.2634,176.1781 Q218.9197,176.1781 218.2322,177.2563 Q217.5447,178.3188 217.5447,180.4125 Q217.5447,182.5063 218.2322,183.5844 Q218.9197,184.6469 220.2634,184.6469 Q220.8884,184.6469 221.4822,184.3813 Q222.0759,184.1 222.7009,183.5219 L222.7009,186.2406 Z " fill="#000000"/><text fill="#000000" font-family="sans-serif" font-size="14" lengthAdjust="spacing" textLength="132.8223" x="235.3504" y="185.4467">EngagementMetric</text><line style="stroke:#181818;stroke-width:0.5;" x1="198.45" x2="377.4549" y1="196.6" y2="196.6"/><ellipse cx="208.45" cy="210.2484" fill="none" rx="3" ry="3" style="stroke:#038048;stroke-width:1;"/><text fill="#000000" font-family="sans-serif" font-size="14" lengthAdjust="spacing" textLength="130.792" x="217.45" y="213.5951">int commentCount</text><ellipse cx="208.45" cy="226.5453" fill="none" rx="3" ry="3" style="stroke:#038048;stroke-width:1;"/><text fill="#000000" font-family="sans-serif" font-size="14" lengthAdjust="spacing" textLength="92.8115" x="217.45" y="229.892">float likeRate</text><line style="stroke:#181818;stroke-width:0.5;" x1="198.45" x2="377.4549" y1="237.1938" y2="237.1938"/><ellipse cx="208.45" cy="250.8422" fill="#84BE84" rx="3" ry="3" style="stroke:#038048;stroke-width:1;"/><text fill="#000000" font-family="sans-serif" font-size="14" lengthAdjust="spacing" textLength="155.0049" x="217.45" y="254.1889">computeMetric(): void</text></g><!--class SocialMediaPost--><g class="entity" data-entity="SocialMediaPost" data-source-line="7" data-uid="ent0003" id="entity_SocialMediaPost"><rect fill="#F1F1F1" height="96.8906" rx="2.5" ry="2.5" style="stroke:#181818;stroke-width:0.5;" width="174.5381" x="41.68" y="338.49"/><ellipse cx="69.8161" cy="354.49" fill="#ADD1B2" rx="11" ry="11" style="stroke:#181818;stroke-width:1;"/><path d="M72.7849,360.1306 Q72.2068,360.4275 71.5661,360.5681 Q70.9255,360.7244 70.2224,360.7244 Q67.7224,360.7244 66.3943,359.0838 Q65.0818,357.4275 65.0818,354.3025 Q65.0818,351.1775 66.3943,349.5213 Q67.7224,347.865 70.2224,347.865 Q70.9255,347.865 71.5661,348.0213 Q72.2224,348.1775 72.7849,348.4744 L72.7849,351.1931 Q72.1599,350.615 71.5661,350.3494 Q70.9724,350.0681 70.3474,350.0681 Q69.0036,350.0681 68.3161,351.1463 Q67.6286,352.2088 67.6286,354.3025 Q67.6286,356.3963 68.3161,357.4744 Q69.0036,358.5369 70.3474,358.5369 Q70.9724,358.5369 71.5661,358.2713 Q72.1599,357.99 72.7849,357.4119 L72.7849,360.1306 Z " fill="#000000"/><text fill="#000000" font-family="sans-serif" font-size="14" lengthAdjust="spacing" textLength="113.3467" x="86.7353" y="359.3367">SocialMediaPost</text><line style="stroke:#181818;stroke-width:0.5;" x1="42.68" x2="215.2181" y1="370.49" y2="370.49"/><ellipse cx="52.68" cy="384.1384" fill="none" rx="3" ry="3" style="stroke:#038048;stroke-width:1;"/><text fill="#000000" font-family="sans-serif" font-size="14" lengthAdjust="spacing" textLength="89.4824" x="61.68" y="387.4851">String postId</text><ellipse cx="52.68" cy="400.4353" fill="none" rx="3" ry="3" style="stroke:#038048;stroke-width:1;"/><text fill="#000000" font-family="sans-serif" font-size="14" lengthAdjust="spacing" textLength="99.832" x="61.68" y="403.782">String content</text><line style="stroke:#181818;stroke-width:0.5;" x1="42.68" x2="215.2181" y1="411.0838" y2="411.0838"/><ellipse cx="52.68" cy="424.7322" fill="#84BE84" rx="3" ry="3" style="stroke:#038048;stroke-width:1;"/><text fill="#000000" font-family="sans-serif" font-size="14" lengthAdjust="spacing" textLength="148.5381" x="61.68" y="428.0789">fetchPostData(): void</text></g><!--class UserEngagementProfile--><g class="entity" data-entity="UserEngagementProfile" data-source-line="13" data-uid="ent0004" id="entity_UserEngagementProfile"><rect fill="#F1F1F1" height="80.5938" rx="2.5" ry="2.5" style="stroke:#181818;stroke-width:0.5;" width="197.293" x="189.3" y="7"/><ellipse cx="204.3" cy="23" fill="#ADD1B2" rx="11" ry="11" style="stroke:#181818;stroke-width:1;"/><path d="M207.2688,28.6406 Q206.6906,28.9375 206.05,29.0781 Q205.4094,29.2344 204.7063,29.2344 Q202.2063,29.2344 200.8781,27.5938 Q199.5656,25.9375 199.5656,22.8125 Q199.5656,19.6875 200.8781,18.0313 Q202.2063,16.375 204.7063,16.375 Q205.4094,16.375 206.05,16.5313 Q206.7063,16.6875 207.2688,16.9844 L207.2688,19.7031 Q206.6438,19.125 206.05,18.8594 Q205.4563,18.5781 204.8313,18.5781 Q203.4875,18.5781 202.8,19.6563 Q202.1125,20.7188 202.1125,22.8125 Q202.1125,24.9063 202.8,25.9844 Q203.4875,27.0469 204.8313,27.0469 Q205.4563,27.0469 206.05,26.7813 Q206.6438,26.5 207.2688,25.9219 L207.2688,28.6406 Z " fill="#000000"/><text fill="#000000" font-family="sans-serif" font-size="14" lengthAdjust="spacing" textLength="165.293" x="218.3" y="27.8467">UserEngagementProfile</text><line style="stroke:#181818;stroke-width:0.5;" x1="190.3" x2="385.593" y1="39" y2="39"/><ellipse cx="200.3" cy="52.6484" fill="none" rx="3" ry="3" style="stroke:#038048;stroke-width:1;"/><text fill="#000000" font-family="sans-serif" font-size="14" lengthAdjust="spacing" textLength="89.7832" x="209.3" y="55.9951">String userId</text><line style="stroke:#181818;stroke-width:0.5;" x1="190.3" x2="385.593" y1="63.2969" y2="63.2969"/><ellipse cx="200.3" cy="76.9453" fill="#84BE84" rx="3" ry="3" style="stroke:#038048;stroke-width:1;"/><text fill="#000000" font-family="sans-serif" font-size="14" lengthAdjust="spacing" textLength="160.1797" x="209.3" y="80.292">generateReport(): void</text></g><!--class APIConnector--><g class="entity" data-entity="APIConnector" data-source-line="18" data-uid="ent0005" id="entity_APIConnector"><rect fill="#F1F1F1" height="80.5938" rx="2.5" ry="2.5" style="stroke:#181818;stroke-width:0.5;" width="155.8965" x="7" y="172.75"/><ellipse cx="35.293" cy="188.75" fill="#ADD1B2" rx="11" ry="11" style="stroke:#181818;stroke-width:1;"/><path d="M38.2618,194.3906 Q37.6836,194.6875 37.043,194.8281 Q36.4024,194.9844 35.6993,194.9844 Q33.1993,194.9844 31.8711,193.3438 Q30.5586,191.6875 30.5586,188.5625 Q30.5586,185.4375 31.8711,183.7813 Q33.1993,182.125 35.6993,182.125 Q36.4024,182.125 37.043,182.2813 Q37.6993,182.4375 38.2618,182.7344 L38.2618,185.4531 Q37.6368,184.875 37.043,184.6094 Q36.4493,184.3281 35.8243,184.3281 Q34.4805,184.3281 33.793,185.4063 Q33.1055,186.4688 33.1055,188.5625 Q33.1055,190.6563 33.793,191.7344 Q34.4805,192.7969 35.8243,192.7969 Q36.4493,192.7969 37.043,192.5313 Q37.6368,192.25 38.2618,191.6719 L38.2618,194.3906 Z " fill="#000000"/><text fill="#000000" font-family="sans-serif" font-size="14" lengthAdjust="spacing" textLength="94.3564" x="52.247" y="193.5967">APIConnector</text><line style="stroke:#181818;stroke-width:0.5;" x1="8" x2="161.8965" y1="204.75" y2="204.75"/><ellipse cx="18" cy="218.3984" fill="none" rx="3" ry="3" style="stroke:#038048;stroke-width:1;"/><text fill="#000000" font-family="sans-serif" font-size="14" lengthAdjust="spacing" textLength="129.8965" x="27" y="221.7451">String apiEndpoint</text><line style="stroke:#181818;stroke-width:0.5;" x1="8" x2="161.8965" y1="229.0469" y2="229.0469"/><ellipse cx="18" cy="242.6953" fill="#84BE84" rx="3" ry="3" style="stroke:#038048;stroke-width:1;"/><text fill="#000000" font-family="sans-serif" font-size="14" lengthAdjust="spacing" textLength="105.5264" x="27" y="246.042">connect(): void</text></g><!--link EngagementMetric to SocialMediaPost--><g class="link" data-entity-1="EngagementMetric" data-entity-2="SocialMediaPost" data-source-line="23" data-uid="lnk6" id="link_EngagementMetric_SocialMediaPost"><path codeLine="23" d="M243.66,261.93 C221.7,285.67 195.24,314.27 173.28,338.01" fill="none" id="EngagementMetric-SocialMediaPost" style="stroke:#181818;stroke-width:1;"/><text fill="#000000" font-family="sans-serif" font-size="13" lengthAdjust="spacing" textLength="68.0596" x="214.22" y="304.5569">associates</text><text fill="#000000" font-family="sans-serif" font-size="13" lengthAdjust="spacing" textLength="8.271" x="229.1889" y="281.5825">1</text><text fill="#000000" font-family="sans-serif" font-size="13" lengthAdjust="spacing" textLength="23.0356" x="154.6941" y="327.5037">0..*</text></g><!--link UserEngagementProfile to EngagementMetric--><g class="link" data-entity-1="UserEngagementProfile" data-entity-2="EngagementMetric" data-source-line="24" data-uid="lnk7" id="link_UserEngagementProfile_EngagementMetric"><path codeLine="24" d="M287.95,87.94 C287.95,110.94 287.95,140.06 287.95,164.32" fill="none" id="UserEngagementProfile-EngagementMetric" style="stroke:#181818;stroke-width:1;"/><text fill="#000000" font-family="sans-serif" font-size="13" lengthAdjust="spacing" textLength="45.7666" x="288.95" y="130.6669">utilizes</text><text fill="#000000" font-family="sans-serif" font-size="13" lengthAdjust="spacing" textLength="8.271" x="279.3347" y="107.6903">1</text><text fill="#000000" font-family="sans-serif" font-size="13" lengthAdjust="spacing" textLength="23.0356" x="263.335" y="153.4895">0..*</text></g><!--link APIConnector to SocialMediaPost--><g class="link" data-entity-1="APIConnector" data-entity-2="SocialMediaPost" data-source-line="25" data-uid="lnk8" id="link_APIConnector_SocialMediaPost"><path codeLine="25" d="M95.04,253.48 C101.49,278.66 109.88,311.45 116.71,338.11" fill="none" id="APIConnector-SocialMediaPost" style="stroke:#181818;stroke-width:1;"/><text fill="#000000" font-family="sans-serif" font-size="13" lengthAdjust="spacing" textLength="47.8296" x="109.27" y="304.5569">fetches</text><text fill="#000000" font-family="sans-serif" font-size="13" lengthAdjust="spacing" textLength="8.271" x="88.0714" y="273.4968">1</text><text fill="#000000" font-family="sans-serif" font-size="13" lengthAdjust="spacing" textLength="23.0356" x="90.3742" y="327.2655">0..*</text></g><!--SRC=[XP11JyCm38Nl-HLMJmEqQLnxGsE77IPLc_W1KUeLYyoE4fS34_-TT5M1BaZa-FBUzsmxRrE2BNUsmpEoxb4ZERWOoE-1MC79UVZOICywgYSlLi7J6nwiugXbL-WLn_ZYhePteTPy6kEk1KTnPFqUMxAD99tun-pc3aAMTkrCSiAAtuMexdN8FLkr9VmbOVpPe8bo8eyt5NtsJ1KTCiOy-G63H2rvJyrk8ypeLE8DnWRQSXk4fj7SQFmDAOvPFLQmN4ArNgtkg-8KDUJEGLDCvkzLve22NqElvEaZvsUZ_zTxFMiEVG40]--></g></svg>