<svg xmlns="http://www.w3.org/2000/svg" xmlns:xlink="http://www.w3.org/1999/xlink" contentStyleType="text/css" data-diagram-type="SEQUENCE" height="415px" preserveAspectRatio="none" style="width:355px;height:415px;background:#FFFFFF;" version="1.1" viewBox="0 0 355 415" width="355px" zoomAndPan="magnify"><defs/><g><g><title>User</title><rect fill="#000000" fill-opacity="0.00000" height="253.0625" width="8" x="19.9551" y="81.2969"/><line style="stroke:#181818;stroke-width:0.5;stroke-dasharray:5,5;" x1="23" x2="23" y1="81.2969" y2="334.3594"/></g><g><title>App</title><rect fill="#000000" fill-opacity="0.00000" height="253.0625" width="8" x="170.2227" y="81.2969"/><line style="stroke:#181818;stroke-width:0.5;stroke-dasharray:5,5;" x1="173.5474" x2="173.5474" y1="81.2969" y2="334.3594"/></g><g><title>Data Source</title><rect fill="#000000" fill-opacity="0.00000" height="253.0625" width="8" x="304.6782" y="81.2969"/><line style="stroke:#181818;stroke-width:0.5;stroke-dasharray:5,5;" x1="308.5435" x2="308.5435" y1="81.2969" y2="334.3594"/></g><g class="participant participant-head" data-participant="User"><text fill="#000000" font-family="sans-serif" font-size="14" lengthAdjust="spacing" textLength="31.9102" x="5" y="77.9951">User</text><ellipse cx="23.9551" cy="13.5" fill="#E2E2F0" rx="8" ry="8" style="stroke:#181818;stroke-width:0.5;"/><path d="M23.9551,21.5 L23.9551,48.5 M10.9551,29.5 L36.9551,29.5 M23.9551,48.5 L10.9551,63.5 M23.9551,48.5 L36.9551,63.5" fill="none" style="stroke:#181818;stroke-width:0.5;"/></g><g class="participant participant-tail" data-participant="User"><text fill="#000000" font-family="sans-serif" font-size="14" lengthAdjust="spacing" textLength="31.9102" x="5" y="346.3545">User</text><ellipse cx="23.9551" cy="358.1563" fill="#E2E2F0" rx="8" ry="8" style="stroke:#181818;stroke-width:0.5;"/><path d="M23.9551,366.1563 L23.9551,393.1563 M10.9551,374.1563 L36.9551,374.1563 M23.9551,393.1563 L10.9551,408.1563 M23.9551,393.1563 L36.9551,408.1563" fill="none" style="stroke:#181818;stroke-width:0.5;"/></g><g class="participant participant-head" data-participant="App"><rect fill="#E2E2F0" height="30.2969" rx="2.5" ry="2.5" style="stroke:#181818;stroke-width:0.5;" width="41.3506" x="153.5474" y="50"/><text fill="#000000" font-family="sans-serif" font-size="14" lengthAdjust="spacing" textLength="27.3506" x="160.5474" y="69.9951">App</text></g><g class="participant participant-tail" data-participant="App"><rect fill="#E2E2F0" height="30.2969" rx="2.5" ry="2.5" style="stroke:#181818;stroke-width:0.5;" width="41.3506" x="153.5474" y="333.3594"/><text fill="#000000" font-family="sans-serif" font-size="14" lengthAdjust="spacing" textLength="27.3506" x="160.5474" y="353.3545">App</text></g><g class="participant participant-head" data-participant="DataSource"><text fill="#000000" font-family="sans-serif" font-size="14" lengthAdjust="spacing" textLength="86.2695" x="262.5435" y="77.9951">Data Source</text><path d="M290.6782,29 C290.6782,19 308.6782,19 308.6782,19 C308.6782,19 326.6782,19 326.6782,29 L326.6782,55 C326.6782,65 308.6782,65 308.6782,65 C308.6782,65 290.6782,65 290.6782,55 L290.6782,29" fill="#E2E2F0" style="stroke:#181818;stroke-width:0.5;"/><path d="M290.6782,29 C290.6782,39 308.6782,39 308.6782,39 C308.6782,39 326.6782,39 326.6782,29" fill="none" style="stroke:#181818;stroke-width:0.5;"/></g><g class="participant participant-tail" data-participant="DataSource"><text fill="#000000" font-family="sans-serif" font-size="14" lengthAdjust="spacing" textLength="86.2695" x="262.5435" y="346.3545">Data Source</text><path d="M290.6782,359.6563 C290.6782,349.6563 308.6782,349.6563 308.6782,349.6563 C308.6782,349.6563 326.6782,349.6563 326.6782,359.6563 L326.6782,385.6563 C326.6782,395.6563 308.6782,395.6563 308.6782,395.6563 C308.6782,395.6563 290.6782,395.6563 290.6782,385.6563 L290.6782,359.6563" fill="#E2E2F0" style="stroke:#181818;stroke-width:0.5;"/><path d="M290.6782,359.6563 C290.6782,369.6563 308.6782,369.6563 308.6782,369.6563 C308.6782,369.6563 326.6782,369.6563 326.6782,359.6563" fill="none" style="stroke:#181818;stroke-width:0.5;"/></g><g class="message" data-participant-1="User" data-participant-2="App"><polygon fill="#181818" points="162.2227,108.4297,172.2227,112.4297,162.2227,116.4297,166.2227,112.4297" style="stroke:#181818;stroke-width:1;"/><line style="stroke:#181818;stroke-width:1;" x1="23.9551" x2="168.2227" y1="112.4297" y2="112.4297"/><text fill="#000000" font-family="sans-serif" font-size="13" lengthAdjust="spacing" textLength="64.251" x="30.9551" y="107.3638">Open App</text></g><g class="message" data-participant-1="App" data-participant-2="DataSource"><polygon fill="#181818" points="296.6782,137.5625,306.6782,141.5625,296.6782,145.5625,300.6782,141.5625" style="stroke:#181818;stroke-width:1;"/><line style="stroke:#181818;stroke-width:1;" x1="174.2227" x2="302.6782" y1="141.5625" y2="141.5625"/><text fill="#000000" font-family="sans-serif" font-size="13" lengthAdjust="spacing" textLength="88.5625" x="181.2227" y="136.4966">Request Data</text></g><g class="message" data-participant-1="DataSource" data-participant-2="App"><polygon fill="#181818" points="185.2227,166.6953,175.2227,170.6953,185.2227,174.6953,181.2227,170.6953" style="stroke:#181818;stroke-width:1;"/><line style="stroke:#181818;stroke-width:1;stroke-dasharray:2,2;" x1="179.2227" x2="307.6782" y1="170.6953" y2="170.6953"/><text fill="#000000" font-family="sans-serif" font-size="13" lengthAdjust="spacing" textLength="67.9136" x="191.2227" y="165.6294">Send Data</text></g><g class="message" data-participant-1="App" data-participant-2="User"><polygon fill="#181818" points="34.9551,195.8281,24.9551,199.8281,34.9551,203.8281,30.9551,199.8281" style="stroke:#181818;stroke-width:1;"/><line style="stroke:#181818;stroke-width:1;" x1="28.9551" x2="173.2227" y1="199.8281" y2="199.8281"/><text fill="#000000" font-family="sans-serif" font-size="13" lengthAdjust="spacing" textLength="99.5757" x="40.9551" y="194.7622">Display Results</text></g><g class="message" data-participant-1="User" data-participant-2="App"><polygon fill="#181818" points="162.2227,224.9609,172.2227,228.9609,162.2227,232.9609,166.2227,228.9609" style="stroke:#181818;stroke-width:1;"/><line style="stroke:#181818;stroke-width:1;" x1="23.9551" x2="168.2227" y1="228.9609" y2="228.9609"/><text fill="#000000" font-family="sans-serif" font-size="13" lengthAdjust="spacing" textLength="89.4575" x="30.9551" y="223.895">Share Results</text></g><g class="message" data-participant-1="App" data-participant-2="DataSource"><polygon fill="#181818" points="296.6782,254.0938,306.6782,258.0938,296.6782,262.0938,300.6782,258.0938" style="stroke:#181818;stroke-width:1;"/><line style="stroke:#181818;stroke-width:1;" x1="174.2227" x2="302.6782" y1="258.0938" y2="258.0938"/><text fill="#000000" font-family="sans-serif" font-size="13" lengthAdjust="spacing" textLength="110.4556" x="181.2227" y="253.0278">Log Share Action</text></g><g class="message" data-participant-1="DataSource" data-participant-2="App"><polygon fill="#181818" points="185.2227,283.2266,175.2227,287.2266,185.2227,291.2266,181.2227,287.2266" style="stroke:#181818;stroke-width:1;"/><line style="stroke:#181818;stroke-width:1;stroke-dasharray:2,2;" x1="179.2227" x2="307.6782" y1="287.2266" y2="287.2266"/><text fill="#000000" font-family="sans-serif" font-size="13" lengthAdjust="spacing" textLength="79.0474" x="191.2227" y="282.1606">Confirm Log</text></g><g class="message" data-participant-1="App" data-participant-2="User"><polygon fill="#181818" points="34.9551,312.3594,24.9551,316.3594,34.9551,320.3594,30.9551,316.3594" style="stroke:#181818;stroke-width:1;"/><line style="stroke:#181818;stroke-width:1;" x1="28.9551" x2="173.2227" y1="316.3594" y2="316.3594"/><text fill="#000000" font-family="sans-serif" font-size="13" lengthAdjust="spacing" textLength="126.2676" x="40.9551" y="311.2935">Share Confirmation</text></g><!--SRC=[ROqz3i8m38NtdCBAtWjqGAheY8H4n05CQY1IIKBi3joU92rKe0wMVzxx_D1AI71cIYfY4cTTH2-WknWr84FkQa312pA1xlC49ap9KbNBFgzAbH_Gx0hHmZ6IhsokSboDBPpeEH5BlQbLWEO36_B3h2vqUTr2xpYE-CeyJwFmNwAvOwAljX5x2BV5r5bnmMz6xuE_klGevj_mcLnahFmR]--></g></svg>