<svg xmlns="http://www.w3.org/2000/svg" xmlns:xlink="http://www.w3.org/1999/xlink" contentStyleType="text/css" data-diagram-type="SEQUENCE" height="412px" preserveAspectRatio="none" style="width:434px;height:412px;background:#FFFFFF;" version="1.1" viewBox="0 0 434 412" width="434px" zoomAndPan="magnify"><defs/><g><rect fill="none" height="103.2031" style="stroke:#000000;stroke-width:1.5;" width="353.9434" x="10" y="211.6953"/><g><title>User</title><rect fill="#000000" fill-opacity="0.00000" height="250.6016" width="8" x="34.9551" y="81.2969"/><line style="stroke:#181818;stroke-width:0.5;stroke-dasharray:5,5;" x1="38" x2="38" y1="81.2969" y2="331.8984"/></g><g><title>App</title><rect fill="#000000" fill-opacity="0.00000" height="250.6016" width="8" x="235.1724" y="81.2969"/><line style="stroke:#181818;stroke-width:0.5;stroke-dasharray:5,5;" x1="238.4971" x2="238.4971" y1="81.2969" y2="331.8984"/></g><g class="participant participant-head" data-participant="User"><text fill="#000000" font-family="sans-serif" font-size="14" lengthAdjust="spacing" textLength="31.9102" x="20" y="77.9951">User</text><ellipse cx="38.9551" cy="13.5" fill="#E2E2F0" rx="8" ry="8" style="stroke:#181818;stroke-width:0.5;"/><path d="M38.9551,21.5 L38.9551,48.5 M25.9551,29.5 L51.9551,29.5 M38.9551,48.5 L25.9551,63.5 M38.9551,48.5 L51.9551,63.5" fill="none" style="stroke:#181818;stroke-width:0.5;"/></g><g class="participant participant-tail" data-participant="User"><text fill="#000000" font-family="sans-serif" font-size="14" lengthAdjust="spacing" textLength="31.9102" x="20" y="343.8936">User</text><ellipse cx="38.9551" cy="355.6953" fill="#E2E2F0" rx="8" ry="8" style="stroke:#181818;stroke-width:0.5;"/><path d="M38.9551,363.6953 L38.9551,390.6953 M25.9551,371.6953 L51.9551,371.6953 M38.9551,390.6953 L25.9551,405.6953 M38.9551,390.6953 L51.9551,405.6953" fill="none" style="stroke:#181818;stroke-width:0.5;"/></g><g class="participant participant-head" data-participant="App"><rect fill="#E2E2F0" height="30.2969" rx="2.5" ry="2.5" style="stroke:#181818;stroke-width:0.5;" width="41.3506" x="218.4971" y="50"/><text fill="#000000" font-family="sans-serif" font-size="14" lengthAdjust="spacing" textLength="27.3506" x="225.4971" y="69.9951">App</text></g><g class="participant participant-tail" data-participant="App"><rect fill="#E2E2F0" height="30.2969" rx="2.5" ry="2.5" style="stroke:#181818;stroke-width:0.5;" width="41.3506" x="218.4971" y="330.8984"/><text fill="#000000" font-family="sans-serif" font-size="14" lengthAdjust="spacing" textLength="27.3506" x="225.4971" y="350.8936">App</text></g><g class="message" data-participant-1="User" data-participant-2="App"><polygon fill="#181818" points="227.1724,108.4297,237.1724,112.4297,227.1724,116.4297,231.1724,112.4297" style="stroke:#181818;stroke-width:1;"/><line style="stroke:#181818;stroke-width:1;" x1="38.9551" x2="233.1724" y1="112.4297" y2="112.4297"/><text fill="#000000" font-family="sans-serif" font-size="13" lengthAdjust="spacing" textLength="92.1172" x="45.9551" y="107.3638">Select options</text></g><g class="message" data-participant-1="App" data-participant-2="App"><line style="stroke:#181818;stroke-width:1;" x1="239.1724" x2="281.1724" y1="141.5625" y2="141.5625"/><line style="stroke:#181818;stroke-width:1;" x1="281.1724" x2="281.1724" y1="141.5625" y2="154.5625"/><line style="stroke:#181818;stroke-width:1;" x1="240.1724" x2="281.1724" y1="154.5625" y2="154.5625"/><polygon fill="#181818" points="250.1724,150.5625,240.1724,154.5625,250.1724,158.5625,246.1724,154.5625" style="stroke:#181818;stroke-width:1;"/><text fill="#000000" font-family="sans-serif" font-size="13" lengthAdjust="spacing" textLength="112.3027" x="246.1724" y="136.4966">Recalculate price</text></g><g class="message" data-participant-1="App" data-participant-2="App"><line style="stroke:#181818;stroke-width:1;" x1="239.1724" x2="281.1724" y1="183.6953" y2="183.6953"/><line style="stroke:#181818;stroke-width:1;" x1="281.1724" x2="281.1724" y1="183.6953" y2="196.6953"/><line style="stroke:#181818;stroke-width:1;" x1="240.1724" x2="281.1724" y1="196.6953" y2="196.6953"/><polygon fill="#181818" points="250.1724,192.6953,240.1724,196.6953,250.1724,200.6953,246.1724,196.6953" style="stroke:#181818;stroke-width:1;"/><text fill="#000000" font-family="sans-serif" font-size="13" lengthAdjust="spacing" textLength="181.708" x="246.1724" y="178.6294">Validate mandatory choices</text></g><path d="M10,211.6953 L74.4429,211.6953 L74.4429,218.8281 L64.4429,228.8281 L10,228.8281 L10,211.6953" fill="#EEEEEE" style="stroke:#000000;stroke-width:1.5;"/><rect fill="none" height="103.2031" style="stroke:#000000;stroke-width:1.5;" width="353.9434" x="10" y="211.6953"/><text fill="#000000" font-family="sans-serif" font-size="13" font-weight="bold" lengthAdjust="spacing" textLength="19.4429" x="25" y="224.7622">alt</text><text fill="#000000" font-family="sans-serif" font-size="11" font-weight="bold" lengthAdjust="spacing" textLength="109.9839" x="89.4429" y="223.9058">[All choices valid]</text><g class="message" data-participant-1="App" data-participant-2="App"><line style="stroke:#181818;stroke-width:1;" x1="239.1724" x2="281.1724" y1="249.9609" y2="249.9609"/><line style="stroke:#181818;stroke-width:1;" x1="281.1724" x2="281.1724" y1="249.9609" y2="262.9609"/><line style="stroke:#181818;stroke-width:1;" x1="240.1724" x2="281.1724" y1="262.9609" y2="262.9609"/><polygon fill="#181818" points="250.1724,258.9609,240.1724,262.9609,250.1724,266.9609,246.1724,262.9609" style="stroke:#181818;stroke-width:1;"/><text fill="#000000" font-family="sans-serif" font-size="13" lengthAdjust="spacing" textLength="105.771" x="246.1724" y="244.895">Add item to cart</text></g><line style="stroke:#000000;stroke-width:1;stroke-dasharray:2,2;" x1="10" x2="363.9434" y1="271.9609" y2="271.9609"/><text fill="#000000" font-family="sans-serif" font-size="11" font-weight="bold" lengthAdjust="spacing" textLength="178.6318" x="15" y="282.1714">[Missing mandatory choices]</text><g class="message" data-participant-1="App" data-participant-2="User"><polygon fill="#181818" points="49.9551,302.8984,39.9551,306.8984,49.9551,310.8984,45.9551,306.8984" style="stroke:#181818;stroke-width:1;"/><line style="stroke:#181818;stroke-width:1;" x1="43.9551" x2="238.1724" y1="306.8984" y2="306.8984"/><text fill="#000000" font-family="sans-serif" font-size="13" lengthAdjust="spacing" textLength="176.2173" x="55.9551" y="301.8325">Prompt for missing choices</text></g><!--SRC=[RKzB2W8n3Dtt58_PUu5P27C0GHJTXpPg8FtGHi7Rsu8Z2cRpIDw7FFAMAqwDgojKJRmKIePfAMK2DNHqRj3ORCSouyZAtf2BIKxDzTk7Eh0dzNSbOvGgdd_OCwc4GKLA7NDzmjzoLpL7QbXKrnsF8NNeynsmX00nZh0Ctvzrh8snazOaNV-aVlb7WndxccCnN7hZ-7QjMaxX1G00]--></g></svg>