<svg xmlns="http://www.w3.org/2000/svg" xmlns:xlink="http://www.w3.org/1999/xlink" contentStyleType="text/css" data-diagram-type="SEQUENCE" height="386px" preserveAspectRatio="none" style="width:697px;height:386px;background:#FFFFFF;" version="1.1" viewBox="0 0 697 386" width="697px" zoomAndPan="magnify"><defs/><g><g><title>User</title><rect fill="#000000" fill-opacity="0.00000" height="223.9297" width="8" x="19.9551" y="81.2969"/><line style="stroke:#181818;stroke-width:0.5;stroke-dasharray:5,5;" x1="23" x2="23" y1="81.2969" y2="305.2266"/></g><g><title>App</title><rect fill="#000000" fill-opacity="0.00000" height="223.9297" width="8" x="160.0537" y="81.2969"/><line style="stroke:#181818;stroke-width:0.5;stroke-dasharray:5,5;" x1="163.3784" x2="163.3784" y1="81.2969" y2="305.2266"/></g><g><title>Inventory System</title><rect fill="#000000" fill-opacity="0.00000" height="223.9297" width="8" x="346.9092" y="81.2969"/><line style="stroke:#181818;stroke-width:0.5;stroke-dasharray:5,5;" x1="350.1465" x2="350.1465" y1="81.2969" y2="305.2266"/></g><g><title>Tax Calculator</title><rect fill="#000000" fill-opacity="0.00000" height="223.9297" width="8" x="483.1519" y="81.2969"/><line style="stroke:#181818;stroke-width:0.5;stroke-dasharray:5,5;" x1="486.6719" x2="486.6719" y1="81.2969" y2="305.2266"/></g><g><title>Checkout System</title><rect fill="#000000" fill-opacity="0.00000" height="223.9297" width="8" x="618.957" y="81.2969"/><line style="stroke:#181818;stroke-width:0.5;stroke-dasharray:5,5;" x1="622.6318" x2="622.6318" y1="81.2969" y2="305.2266"/></g><g class="participant participant-head" data-participant="User"><text fill="#000000" font-family="sans-serif" font-size="14" lengthAdjust="spacing" textLength="31.9102" x="5" y="77.9951">User</text><ellipse cx="23.9551" cy="13.5" fill="#E2E2F0" rx="8" ry="8" style="stroke:#181818;stroke-width:0.5;"/><path d="M23.9551,21.5 L23.9551,48.5 M10.9551,29.5 L36.9551,29.5 M23.9551,48.5 L10.9551,63.5 M23.9551,48.5 L36.9551,63.5" fill="none" style="stroke:#181818;stroke-width:0.5;"/></g><g class="participant participant-tail" data-participant="User"><text fill="#000000" font-family="sans-serif" font-size="14" lengthAdjust="spacing" textLength="31.9102" x="5" y="317.2217">User</text><ellipse cx="23.9551" cy="329.0234" fill="#E2E2F0" rx="8" ry="8" style="stroke:#181818;stroke-width:0.5;"/><path d="M23.9551,337.0234 L23.9551,364.0234 M10.9551,345.0234 L36.9551,345.0234 M23.9551,364.0234 L10.9551,379.0234 M23.9551,364.0234 L36.9551,379.0234" fill="none" style="stroke:#181818;stroke-width:0.5;"/></g><g class="participant participant-head" data-participant="App"><rect fill="#E2E2F0" height="30.2969" rx="2.5" ry="2.5" style="stroke:#181818;stroke-width:0.5;" width="41.3506" x="143.3784" y="50"/><text fill="#000000" font-family="sans-serif" font-size="14" lengthAdjust="spacing" textLength="27.3506" x="150.3784" y="69.9951">App</text></g><g class="participant participant-tail" data-participant="App"><rect fill="#E2E2F0" height="30.2969" rx="2.5" ry="2.5" style="stroke:#181818;stroke-width:0.5;" width="41.3506" x="143.3784" y="304.2266"/><text fill="#000000" font-family="sans-serif" font-size="14" lengthAdjust="spacing" textLength="27.3506" x="150.3784" y="324.2217">App</text></g><g class="participant participant-head" data-participant="Inventory"><rect fill="#E2E2F0" height="30.2969" rx="2.5" ry="2.5" style="stroke:#181818;stroke-width:0.5;" width="137.5254" x="282.1465" y="50"/><text fill="#000000" font-family="sans-serif" font-size="14" lengthAdjust="spacing" textLength="123.5254" x="289.1465" y="69.9951">Inventory System</text></g><g class="participant participant-tail" data-participant="Inventory"><rect fill="#E2E2F0" height="30.2969" rx="2.5" ry="2.5" style="stroke:#181818;stroke-width:0.5;" width="137.5254" x="282.1465" y="304.2266"/><text fill="#000000" font-family="sans-serif" font-size="14" lengthAdjust="spacing" textLength="123.5254" x="289.1465" y="324.2217">Inventory System</text></g><g class="participant participant-head" data-participant="Tax"><rect fill="#E2E2F0" height="30.2969" rx="2.5" ry="2.5" style="stroke:#181818;stroke-width:0.5;" width="114.96" x="429.6719" y="50"/><text fill="#000000" font-family="sans-serif" font-size="14" lengthAdjust="spacing" textLength="100.96" x="436.6719" y="69.9951">Tax Calculator</text></g><g class="participant participant-tail" data-participant="Tax"><rect fill="#E2E2F0" height="30.2969" rx="2.5" ry="2.5" style="stroke:#181818;stroke-width:0.5;" width="114.96" x="429.6719" y="304.2266"/><text fill="#000000" font-family="sans-serif" font-size="14" lengthAdjust="spacing" textLength="100.96" x="436.6719" y="324.2217">Tax Calculator</text></g><g class="participant participant-head" data-participant="Checkout"><rect fill="#E2E2F0" height="30.2969" rx="2.5" ry="2.5" style="stroke:#181818;stroke-width:0.5;" width="136.6504" x="554.6318" y="50"/><text fill="#000000" font-family="sans-serif" font-size="14" lengthAdjust="spacing" textLength="122.6504" x="561.6318" y="69.9951">Checkout System</text></g><g class="participant participant-tail" data-participant="Checkout"><rect fill="#E2E2F0" height="30.2969" rx="2.5" ry="2.5" style="stroke:#181818;stroke-width:0.5;" width="136.6504" x="554.6318" y="304.2266"/><text fill="#000000" font-family="sans-serif" font-size="14" lengthAdjust="spacing" textLength="122.6504" x="561.6318" y="324.2217">Checkout System</text></g><g class="message" data-participant-1="User" data-participant-2="App"><polygon fill="#181818" points="152.0537,108.4297,162.0537,112.4297,152.0537,116.4297,156.0537,112.4297" style="stroke:#181818;stroke-width:1;"/><line style="stroke:#181818;stroke-width:1;" x1="23.9551" x2="158.0537" y1="112.4297" y2="112.4297"/><text fill="#000000" font-family="sans-serif" font-size="13" lengthAdjust="spacing" textLength="116.0986" x="30.9551" y="107.3638">Update quantities</text></g><g class="message" data-participant-1="App" data-participant-2="Tax"><polygon fill="#181818" points="475.1519,137.5625,485.1519,141.5625,475.1519,145.5625,479.1519,141.5625" style="stroke:#181818;stroke-width:1;"/><line style="stroke:#181818;stroke-width:1;" x1="164.0537" x2="481.1519" y1="141.5625" y2="141.5625"/><text fill="#000000" font-family="sans-serif" font-size="13" lengthAdjust="spacing" textLength="175.5444" x="171.0537" y="136.4966">Recalculate taxes and fees</text></g><g class="message" data-participant-1="Tax" data-participant-2="App"><polygon fill="#181818" points="175.0537,166.6953,165.0537,170.6953,175.0537,174.6953,171.0537,170.6953" style="stroke:#181818;stroke-width:1;"/><line style="stroke:#181818;stroke-width:1;stroke-dasharray:2,2;" x1="169.0537" x2="486.1519" y1="170.6953" y2="170.6953"/><text fill="#000000" font-family="sans-serif" font-size="13" lengthAdjust="spacing" textLength="201.8682" x="181.0537" y="165.6294">Return updated taxes and fees</text></g><g class="message" data-participant-1="App" data-participant-2="Inventory"><polygon fill="#181818" points="338.9092,195.8281,348.9092,199.8281,338.9092,203.8281,342.9092,199.8281" style="stroke:#181818;stroke-width:1;"/><line style="stroke:#181818;stroke-width:1;" x1="164.0537" x2="344.9092" y1="199.8281" y2="199.8281"/><text fill="#000000" font-family="sans-serif" font-size="13" lengthAdjust="spacing" textLength="144.0537" x="171.0537" y="194.7622">Revalidate availability</text></g><g class="message" data-participant-1="Inventory" data-participant-2="App"><polygon fill="#181818" points="175.0537,224.9609,165.0537,228.9609,175.0537,232.9609,171.0537,228.9609" style="stroke:#181818;stroke-width:1;"/><line style="stroke:#181818;stroke-width:1;stroke-dasharray:2,2;" x1="169.0537" x2="349.9092" y1="228.9609" y2="228.9609"/><text fill="#000000" font-family="sans-serif" font-size="13" lengthAdjust="spacing" textLength="162.8555" x="181.0537" y="223.895">Return availability status</text></g><g class="message" data-participant-1="App" data-participant-2="Checkout"><polygon fill="#181818" points="610.957,254.0938,620.957,258.0938,610.957,262.0938,614.957,258.0938" style="stroke:#181818;stroke-width:1;"/><line style="stroke:#181818;stroke-width:1;" x1="164.0537" x2="616.957" y1="258.0938" y2="258.0938"/><text fill="#000000" font-family="sans-serif" font-size="13" lengthAdjust="spacing" textLength="107.7642" x="171.0537" y="253.0278">Enable checkout</text></g><g class="message" data-participant-1="Checkout" data-participant-2="App"><polygon fill="#181818" points="175.0537,283.2266,165.0537,287.2266,175.0537,291.2266,171.0537,287.2266" style="stroke:#181818;stroke-width:1;"/><line style="stroke:#181818;stroke-width:1;stroke-dasharray:2,2;" x1="169.0537" x2="621.957" y1="287.2266" y2="287.2266"/><text fill="#000000" font-family="sans-serif" font-size="13" lengthAdjust="spacing" textLength="84.335" x="181.0537" y="282.1606">Confirmation</text></g><!--SRC=[NP0nRiCm34LtdU8ZUoxWeK1XTCYQDWTWP0ObgiYgH1dnxICPiH9d4l3v-4IIh8uHfyJH18egLW9vnUupX1qeeRpRmi5Fx4lFZEyvALyNgeLRzeTkwCdPxAWK5x94MwR_PVitPdtLhPanTJ3iF-eO7KvX86Nyvz8eAfnCYMkrI3iSsJw-OYZTE87yW0iNhCwnNor7rXmzyY8Rtj67iIrK-OcSB3_JHEBeB4vqDiz3lAjVCIGbpSsxRjRXozFPCUowQhj3i_MZlqYyaihepHq0]--></g></svg>