<svg xmlns="http://www.w3.org/2000/svg" xmlns:xlink="http://www.w3.org/1999/xlink" contentStyleType="text/css" data-diagram-type="DESCRIPTION" height="157px" preserveAspectRatio="none" style="width:1275px;height:157px;background:#FFFFFF;" version="1.1" viewBox="0 0 1275 157" width="1275px" zoomAndPan="magnify"><defs/><g><!--cluster Opportunity Acceptance Prediction System--><g class="cluster" data-entity="Opportunity Acceptance Prediction System" data-source-line="4" data-uid="ent0004" id="cluster_Opportunity Acceptance Prediction System"><rect fill="none" height="106.3" rx="2.5" ry="2.5" style="stroke:#181818;stroke-width:1;" width="519" x="750.53" y="42.5"/><text fill="#000000" font-family="sans-serif" font-size="14" font-weight="bold" lengthAdjust="spacing" textLength="340.3545" x="839.8528" y="57.4951">Opportunity Acceptance Prediction System</text></g><!--entity PM--><g class="entity" data-entity="PM" data-source-line="5" data-uid="ent0005" id="entity_PM"><rect fill="#F1F1F1" height="36.2969" rx="2.5" ry="2.5" style="stroke:#181818;stroke-width:0.5;" width="143.3408" x="766.86" y="96.5"/><text fill="#000000" font-family="sans-serif" font-size="14" lengthAdjust="spacing" textLength="123.3408" x="776.86" y="119.4951">Predictive Models</text></g><!--entity AI--><g class="entity" data-entity="AI" data-source-line="6" data-uid="ent0006" id="entity_AI"><rect fill="#F1F1F1" height="36.2969" rx="2.5" ry="2.5" style="stroke:#181818;stroke-width:0.5;" width="151.3252" x="1101.87" y="96.5"/><text fill="#000000" font-family="sans-serif" font-size="14" lengthAdjust="spacing" textLength="131.3252" x="1111.87" y="119.4951">AI/ML Components</text></g><!--entity UM--><g class="entity" data-entity="UM" data-source-line="1" data-uid="ent0002" id="entity_UM"><ellipse cx="75.5317" cy="85" fill="#F1F1F1" rx="8" ry="8" style="stroke:#181818;stroke-width:0.5;"/><path d="M75.5317,93 L75.5317,120 M62.5317,101 L88.5317,101 M75.5317,120 L62.5317,135 M75.5317,120 L88.5317,135" fill="none" style="stroke:#181818;stroke-width:0.5;"/><text fill="#000000" font-family="sans-serif" font-size="14" lengthAdjust="spacing" textLength="139.0635" x="6" y="149.4951">Upper Management</text></g><!--entity A--><g class="entity" data-entity="A" data-source-line="2" data-uid="ent0003" id="entity_A"><ellipse cx="476.5337" cy="85" fill="#F1F1F1" rx="8" ry="8" style="stroke:#181818;stroke-width:0.5;"/><path d="M476.5337,93 L476.5337,120 M463.5337,101 L489.5337,101 M476.5337,120 L463.5337,135 M476.5337,120 L489.5337,135" fill="none" style="stroke:#181818;stroke-width:0.5;"/><text fill="#000000" font-family="sans-serif" font-size="14" lengthAdjust="spacing" textLength="51.9873" x="450.54" y="149.4951">Analyst</text></g><!--link UM to PM--><g class="link" data-entity-1="UM" data-entity-2="PM" data-source-line="9" data-uid="lnk7" id="link_UM_PM"><path d="M145.43,94.46 C217.06,74.85 332,46.36 433.53,34.5 C525.58,23.75 549.36,32.51 642.03,31.94 C697.59,31.6 716.51,8.84 767.03,31.94 C795.68,45.05 814.2359,70.7462 825.8559,90.8362" fill="none" id="UM-to-PM" style="stroke:#181818;stroke-width:1;"/><polygon fill="#181818" points="828.86,96.03,827.8164,86.2366,826.3566,91.7018,820.8914,90.242,828.86,96.03" style="stroke:#181818;stroke-width:1;"/><text fill="#000000" font-family="sans-serif" font-size="13" lengthAdjust="spacing" textLength="123.0303" x="643.03" y="22.5669">Request prediction</text></g><!--link PM to UM--><g class="link" data-entity-1="PM" data-entity-2="UM" data-source-line="12" data-uid="lnk10" id="link_PM_UM"><path d="M828.86,96.03 C817.24,75.94 795.68,45.05 767.03,31.94 C716.51,8.84 697.59,31.6 642.03,31.94 C549.36,32.51 525.58,23.75 433.53,34.5 C332,46.36 222.8471,73.2657 151.2171,92.8757" fill="none" id="PM-to-UM" style="stroke:#181818;stroke-width:1;"/><polygon fill="#181818" points="145.43,94.46,155.1668,95.9416,150.2525,93.1397,153.0544,88.2255,145.43,94.46" style="stroke:#181818;stroke-width:1;"/><text fill="#000000" font-family="sans-serif" font-size="13" lengthAdjust="spacing" textLength="166.3022" x="621.53" y="22.5669">Provide prediction results</text></g><!--link PM to AI--><g class="link" data-entity-1="PM" data-entity-2="AI" data-source-line="10" data-uid="lnk8" id="link_PM_AI"><path d="M910.68,132.27 C916.36,133.22 922.03,134.04 927.54,134.65 C996.89,142.35 1015.15,142.03 1084.54,134.65 C1090.12,134.06 1089.9351,134.2163 1095.6951,133.2963" fill="none" id="PM-to-AI" style="stroke:#181818;stroke-width:1;"/><polygon fill="#181818" points="1101.62,132.35,1092.1018,129.8196,1096.6826,133.1386,1093.3635,137.7194,1101.62,132.35" style="stroke:#181818;stroke-width:1;"/><text fill="#000000" font-family="sans-serif" font-size="13" lengthAdjust="spacing" textLength="155.6318" x="928.54" y="130.7169">Use AI/ML for prediction</text></g><!--link AI to PM--><g class="link" data-entity-1="AI" data-entity-2="PM" data-source-line="11" data-uid="lnk9" id="link_AI_PM"><path d="M1101.63,114.65 C1044.46,114.65 972.59,114.65 916.42,114.65" fill="none" id="AI-to-PM" style="stroke:#181818;stroke-width:1;"/><polygon fill="#181818" points="910.42,114.65,919.42,118.65,915.42,114.65,919.42,110.65,910.42,114.65" style="stroke:#181818;stroke-width:1;"/><text fill="#000000" font-family="sans-serif" font-size="13" lengthAdjust="spacing" textLength="161.5605" x="925.54" y="107.7169">Return prediction results</text></g><!--link A to PM--><g class="link" data-entity-1="A" data-entity-2="PM" data-source-line="14" data-uid="lnk11" id="link_A_PM"><path d="M502.86,114.65 C557.61,114.65 679.38,114.65 760.55,114.65" fill="none" id="A-to-PM" style="stroke:#181818;stroke-width:1;"/><polygon fill="#181818" points="766.55,114.65,757.55,110.65,761.55,114.65,757.55,118.65,766.55,114.65" style="stroke:#181818;stroke-width:1;"/><text fill="#000000" font-family="sans-serif" font-size="13" lengthAdjust="spacing" textLength="183.6504" x="543.19" y="107.7169">Analyze prediction accuracy</text></g><!--link A to AI--><g class="link" data-entity-1="A" data-entity-2="AI" data-source-line="15" data-uid="lnk12" id="link_A_AI"><path d="M478.81,76.34 C481.91,59.92 488.58,42.19 502.53,31.94 C522.88,17.01 750.38,6 927.53,34.5 C1002.01,46.48 1079.1013,74.2364 1128.2413,93.9464" fill="none" id="A-to-AI" style="stroke:#181818;stroke-width:1;"/><polygon fill="#181818" points="1133.81,96.18,1126.946,89.1171,1129.1694,94.3187,1123.9678,96.5421,1133.81,96.18" style="stroke:#181818;stroke-width:1;"/><text fill="#000000" font-family="sans-serif" font-size="13" lengthAdjust="spacing" textLength="132.5391" x="503.53" y="22.5669">Refine AI/ML models</text></g><!--link AI to A--><g class="link" data-entity-1="AI" data-entity-2="A" data-source-line="16" data-uid="lnk13" id="link_AI_A"><path d="M1133.81,96.18 C1084.67,76.47 1002.01,46.48 927.53,34.5 C750.38,6 522.88,17.01 502.53,31.94 C488.58,42.19 483.0231,54.0242 479.9231,70.4442" fill="none" id="AI-to-A" style="stroke:#181818;stroke-width:1;"/><polygon fill="#181818" points="478.81,76.34,484.4102,68.2383,479.7376,71.4268,476.5491,66.7542,478.81,76.34" style="stroke:#181818;stroke-width:1;"/><text fill="#000000" font-family="sans-serif" font-size="13" lengthAdjust="spacing" textLength="157.1553" x="491.03" y="22.5669">Provide model feedback</text></g><!--link UM to A--><g class="link" data-entity-1="UM" data-entity-2="A" data-source-line="18" data-uid="lnk14" id="link_UM_A"><path d="M145.53,129.79 C157.42,131.81 169.67,133.56 181.3,134.65 C232.85,139.48 363.15,142.67 414.3,134.65 C426.41,132.75 433.717,130.8826 444.657,127.0526" fill="none" id="UM-to-A" style="stroke:#181818;stroke-width:1;"/><polygon fill="#181818" points="450.32,125.07,440.5038,124.2685,445.6008,126.7221,443.1472,131.8192,450.32,125.07" style="stroke:#181818;stroke-width:1;"/><text fill="#000000" font-family="sans-serif" font-size="13" lengthAdjust="spacing" textLength="231.4165" x="182.3" y="130.7169">Collaborate on model improvement</text></g><!--link A to UM--><g class="link" data-entity-1="A" data-entity-2="UM" data-source-line="19" data-uid="lnk15" id="link_A_UM"><path d="M450.19,114.65 C389.05,114.65 241.81,114.65 151.38,114.65" fill="none" id="A-to-UM" style="stroke:#181818;stroke-width:1;"/><polygon fill="#181818" points="145.38,114.65,154.38,118.65,150.38,114.65,154.38,110.65,145.38,114.65" style="stroke:#181818;stroke-width:1;"/><text fill="#000000" font-family="sans-serif" font-size="13" lengthAdjust="spacing" textLength="269.8198" x="163.3" y="107.7169">Report on model accuracy improvements</text></g><!--SRC=[RP71RiCW38RlF8ML-xJx3fDGJv665dNY0LpYL6W4691AsRHt7u6cPTCuyd_-_Tj6bLo0JdfF0GHQFDDCDdM04QHWM6LkqQon_dB60gc4zcm8kbVlNKYBrMa5hXJvB2Y28T2eLTBEmbikfBc3BmRvDQKxSo4GRYGJY_qW_dAyVnGlS72pTpP7gnZlsJTZKi33Sow19pZInq8nWRzrPaDHUPzL6GcgpvJdQPYitXtI4cmZvX1nCIbUZUG63S5Tz4Z_KOpVhCg-FdzHgDGIKAsLAg6ED6cxvvhB2gvvUDEf230HZITKx_lC6t5mnk391Km4kKC5zUnpOJbYRINhRDkPxjIUfiNZ3m00]--></g></svg>