<svg xmlns="http://www.w3.org/2000/svg" xmlns:xlink="http://www.w3.org/1999/xlink" contentStyleType="text/css" data-diagram-type="ACTIVITY" height="818px" preserveAspectRatio="none" style="width:691px;height:818px;background:#FFFFFF;" version="1.1" viewBox="0 0 691 818" width="691px" zoomAndPan="magnify"><defs/><g><ellipse cx="412.2177" cy="20" fill="#222222" rx="10" ry="10" style="stroke:#222222;stroke-width:1;"/><rect fill="#F1F1F1" height="33.9688" rx="12.5" ry="12.5" style="stroke:#181818;stroke-width:0.5;" width="101.3398" x="361.5477" y="50"/><text fill="#000000" font-family="sans-serif" font-size="12" lengthAdjust="spacing" textLength="81.3398" x="371.5477" y="71.1387">Trigger Event</text><rect fill="#F1F1F1" height="33.9688" rx="12.5" ry="12.5" style="stroke:#181818;stroke-width:0.5;" width="238.1563" x="293.1395" y="103.9688"/><text fill="#000000" font-family="sans-serif" font-size="12" lengthAdjust="spacing" textLength="218.1563" x="303.1395" y="125.1074">Analyze Trigger Context using AI/ML</text><polygon fill="#F1F1F1" points="330.9745,157.9375,493.4608,157.9375,505.4608,169.9375,493.4608,181.9375,330.9745,181.9375,318.9745,169.9375,330.9745,157.9375" style="stroke:#181818;stroke-width:0.5;"/><text fill="#000000" font-family="sans-serif" font-size="11" lengthAdjust="spacing" textLength="162.4863" x="330.9745" y="173.7456">Contextual Analysis Success?</text><text fill="#000000" font-family="sans-serif" font-size="11" lengthAdjust="spacing" textLength="19.0083" x="299.9662" y="167.3433">yes</text><text fill="#000000" font-family="sans-serif" font-size="11" lengthAdjust="spacing" textLength="13.7017" x="505.4608" y="167.3433">no</text><rect fill="#F1F1F1" height="33.9688" rx="12.5" ry="12.5" style="stroke:#181818;stroke-width:0.5;" width="280.1387" x="65.5906" y="191.9375"/><text fill="#000000" font-family="sans-serif" font-size="12" lengthAdjust="spacing" textLength="260.1387" x="75.5906" y="213.0762">Generate Personalized Notification Content</text><rect fill="#F1F1F1" height="33.9688" rx="12.5" ry="12.5" style="stroke:#181818;stroke-width:0.5;" width="214.7715" x="98.2742" y="245.9063"/><text fill="#000000" font-family="sans-serif" font-size="12" lengthAdjust="spacing" textLength="194.7715" x="108.2742" y="267.0449">Send Notification to User Device</text><polygon fill="#F1F1F1" points="142.9846,299.875,268.3352,299.875,280.3352,311.875,268.3352,323.875,142.9846,323.875,130.9846,311.875,142.9846,299.875" style="stroke:#181818;stroke-width:0.5;"/><text fill="#000000" font-family="sans-serif" font-size="11" lengthAdjust="spacing" textLength="125.3506" x="142.9846" y="315.6831">Notification Delivered?</text><text fill="#000000" font-family="sans-serif" font-size="11" lengthAdjust="spacing" textLength="19.0083" x="111.9763" y="309.2808">yes</text><text fill="#000000" font-family="sans-serif" font-size="11" lengthAdjust="spacing" textLength="13.7017" x="280.3352" y="309.2808">no</text><rect fill="#F1F1F1" height="33.9688" rx="12.5" ry="12.5" style="stroke:#181818;stroke-width:0.5;" width="137.3223" x="11" y="333.875"/><text fill="#000000" font-family="sans-serif" font-size="12" lengthAdjust="spacing" textLength="117.3223" x="21" y="355.0137">Log Delivery Status</text><rect fill="#F1F1F1" height="33.9688" rx="12.5" ry="12.5" style="stroke:#181818;stroke-width:0.5;" width="137.3223" x="262.9976" y="333.875"/><text fill="#000000" font-family="sans-serif" font-size="12" lengthAdjust="spacing" textLength="117.3223" x="272.9976" y="355.0137">Log Delivery Status</text><rect fill="#F1F1F1" height="33.9688" rx="12.5" ry="12.5" style="stroke:#181818;stroke-width:0.5;" width="116.0117" x="273.6528" y="387.8438"/><text fill="#000000" font-family="sans-serif" font-size="12" lengthAdjust="spacing" textLength="96.0117" x="283.6528" y="408.9824">Queue for Retry</text><rect fill="#F1F1F1" height="33.9688" rx="12.5" ry="12.5" style="stroke:#181818;stroke-width:0.5;" width="214.7715" x="224.2729" y="485.8125"/><text fill="#000000" font-family="sans-serif" font-size="12" lengthAdjust="spacing" textLength="194.7715" x="234.2729" y="506.9512">Send Notification to User Device</text><polygon fill="#F1F1F1" points="268.9834,539.7813,394.334,539.7813,406.334,551.7813,394.334,563.7813,268.9834,563.7813,256.9834,551.7813,268.9834,539.7813" style="stroke:#181818;stroke-width:0.5;"/><text fill="#000000" font-family="sans-serif" font-size="11" lengthAdjust="spacing" textLength="125.3506" x="268.9834" y="555.5894">Notification Delivered?</text><text fill="#000000" font-family="sans-serif" font-size="11" lengthAdjust="spacing" textLength="19.0083" x="237.9751" y="549.187">yes</text><text fill="#000000" font-family="sans-serif" font-size="11" lengthAdjust="spacing" textLength="13.7017" x="406.334" y="549.187">no</text><rect fill="#F1F1F1" height="33.9688" rx="12.5" ry="12.5" style="stroke:#181818;stroke-width:0.5;" width="137.3223" x="178.3223" y="573.7813"/><text fill="#000000" font-family="sans-serif" font-size="12" lengthAdjust="spacing" textLength="117.3223" x="188.3223" y="594.9199">Log Delivery Status</text><ellipse cx="246.9834" cy="638.75" fill="none" rx="11" ry="11" style="stroke:#222222;stroke-width:1;"/><ellipse cx="246.9834" cy="638.75" fill="#222222" rx="6" ry="6" style="stroke:#222222;stroke-width:1;"/><rect fill="#F1F1F1" height="33.9688" rx="12.5" ry="12.5" style="stroke:#181818;stroke-width:0.5;" width="137.3223" x="347.6729" y="573.7813"/><text fill="#000000" font-family="sans-serif" font-size="12" lengthAdjust="spacing" textLength="117.3223" x="357.6729" y="594.9199">Log Delivery Status</text><rect fill="#F1F1F1" height="33.9688" rx="12.5" ry="12.5" style="stroke:#181818;stroke-width:0.5;" width="116.0117" x="358.3281" y="627.75"/><text fill="#000000" font-family="sans-serif" font-size="12" lengthAdjust="spacing" textLength="96.0117" x="368.3281" y="648.8887">Queue for Retry</text><polygon fill="#F1F1F1" points="331.6587,441.8125,343.6587,453.8125,331.6587,465.8125,319.6587,453.8125,331.6587,441.8125" style="stroke:#181818;stroke-width:0.5;"/><polygon fill="#F1F1F1" points="255.5825,681.7188,407.7349,681.7188,419.7349,693.7188,407.7349,705.7188,255.5825,705.7188,243.5825,693.7188,255.5825,681.7188" style="stroke:#181818;stroke-width:0.5;"/><text fill="#000000" font-family="sans-serif" font-size="11" lengthAdjust="spacing" textLength="152.1523" x="255.5825" y="697.5269">Retry Attempts Remaining?</text><polygon fill="#F1F1F1" points="205.6599,711.7188,217.6599,723.7188,205.6599,735.7188,193.6599,723.7188,205.6599,711.7188" style="stroke:#181818;stroke-width:0.5;"/><rect fill="#F1F1F1" height="33.9688" rx="12.5" ry="12.5" style="stroke:#181818;stroke-width:0.5;" width="139.5605" x="541.2958" y="191.9375"/><text fill="#000000" font-family="sans-serif" font-size="12" lengthAdjust="spacing" textLength="119.5605" x="551.2958" y="213.0762">Log Analysis Failure</text><polygon fill="#F1F1F1" points="412.2177,741.7188,424.2177,753.7188,412.2177,765.7188,400.2177,753.7188,412.2177,741.7188" style="stroke:#181818;stroke-width:0.5;"/><ellipse cx="412.2177" cy="796.7188" fill="none" rx="11" ry="11" style="stroke:#222222;stroke-width:1;"/><ellipse cx="412.2177" cy="796.7188" fill="#222222" rx="6" ry="6" style="stroke:#222222;stroke-width:1;"/><line style="stroke:#181818;stroke-width:1;" x1="412.2177" x2="412.2177" y1="30" y2="50"/><polygon fill="#181818" points="408.2177,40,412.2177,50,416.2177,40,412.2177,44" style="stroke:#181818;stroke-width:1;"/><line style="stroke:#181818;stroke-width:1;" x1="412.2177" x2="412.2177" y1="83.9688" y2="103.9688"/><polygon fill="#181818" points="408.2177,93.9688,412.2177,103.9688,416.2177,93.9688,412.2177,97.9688" style="stroke:#181818;stroke-width:1;"/><line style="stroke:#181818;stroke-width:1;" x1="205.6599" x2="205.6599" y1="225.9063" y2="245.9063"/><polygon fill="#181818" points="201.6599,235.9063,205.6599,245.9063,209.6599,235.9063,205.6599,239.9063" style="stroke:#181818;stroke-width:1;"/><line style="stroke:#181818;stroke-width:1;" x1="331.6587" x2="331.6587" y1="367.8438" y2="387.8438"/><polygon fill="#181818" points="327.6587,377.8438,331.6587,387.8438,335.6587,377.8438,331.6587,381.8438" style="stroke:#181818;stroke-width:1;"/><line style="stroke:#181818;stroke-width:1;" x1="246.9834" x2="246.9834" y1="607.75" y2="627.75"/><polygon fill="#181818" points="242.9834,617.75,246.9834,627.75,250.9834,617.75,246.9834,621.75" style="stroke:#181818;stroke-width:1;"/><line style="stroke:#181818;stroke-width:1;" x1="416.334" x2="416.334" y1="607.75" y2="627.75"/><polygon fill="#181818" points="412.334,617.75,416.334,627.75,420.334,617.75,416.334,621.75" style="stroke:#181818;stroke-width:1;"/><line style="stroke:#181818;stroke-width:1;" x1="256.9834" x2="246.9834" y1="551.7813" y2="551.7813"/><line style="stroke:#181818;stroke-width:1;" x1="246.9834" x2="246.9834" y1="551.7813" y2="573.7813"/><polygon fill="#181818" points="242.9834,563.7813,246.9834,573.7813,250.9834,563.7813,246.9834,567.7813" style="stroke:#181818;stroke-width:1;"/><line style="stroke:#181818;stroke-width:1;" x1="406.334" x2="416.334" y1="551.7813" y2="551.7813"/><line style="stroke:#181818;stroke-width:1;" x1="416.334" x2="416.334" y1="551.7813" y2="573.7813"/><polygon fill="#181818" points="412.334,563.7813,416.334,573.7813,420.334,563.7813,416.334,567.7813" style="stroke:#181818;stroke-width:1;"/><line style="stroke:#181818;stroke-width:1;" x1="416.334" x2="416.334" y1="661.7188" y2="666.7188"/><line style="stroke:#181818;stroke-width:1;" x1="416.334" x2="331.6587" y1="666.7188" y2="666.7188"/><line style="stroke:#181818;stroke-width:1;" x1="331.6587" x2="331.6587" y1="666.7188" y2="681.7188"/><polygon fill="#181818" points="327.6587,671.7188,331.6587,681.7188,335.6587,671.7188,331.6587,675.7188" style="stroke:#181818;stroke-width:1;"/><line style="stroke:#181818;stroke-width:1;" x1="331.6587" x2="331.6587" y1="519.7813" y2="539.7813"/><polygon fill="#181818" points="327.6587,529.7813,331.6587,539.7813,335.6587,529.7813,331.6587,533.7813" style="stroke:#181818;stroke-width:1;"/><line style="stroke:#181818;stroke-width:1;" x1="331.6587" x2="331.6587" y1="465.8125" y2="485.8125"/><polygon fill="#181818" points="327.6587,475.8125,331.6587,485.8125,335.6587,475.8125,331.6587,479.8125" style="stroke:#181818;stroke-width:1;"/><line style="stroke:#181818;stroke-width:1;" x1="419.7349" x2="506.9951" y1="693.7188" y2="693.7188"/><polygon fill="#181818" points="502.9951,586.7656,506.9951,576.7656,510.9951,586.7656,506.9951,582.7656" style="stroke:#181818;stroke-width:1;"/><line style="stroke:#181818;stroke-width:1;" x1="506.9951" x2="506.9951" y1="453.8125" y2="693.7188"/><line style="stroke:#181818;stroke-width:1;" x1="506.9951" x2="343.6587" y1="453.8125" y2="453.8125"/><polygon fill="#181818" points="353.6587,449.8125,343.6587,453.8125,353.6587,457.8125,349.6587,453.8125" style="stroke:#181818;stroke-width:1;"/><line style="stroke:#181818;stroke-width:1;" x1="331.6587" x2="331.6587" y1="421.8125" y2="441.8125"/><polygon fill="#181818" points="327.6587,431.8125,331.6587,441.8125,335.6587,431.8125,331.6587,435.8125" style="stroke:#181818;stroke-width:1;"/><line style="stroke:#181818;stroke-width:1;" x1="130.9846" x2="79.6611" y1="311.875" y2="311.875"/><line style="stroke:#181818;stroke-width:1;" x1="79.6611" x2="79.6611" y1="311.875" y2="333.875"/><polygon fill="#181818" points="75.6611,323.875,79.6611,333.875,83.6611,323.875,79.6611,327.875" style="stroke:#181818;stroke-width:1;"/><line style="stroke:#181818;stroke-width:1;" x1="280.3352" x2="331.6587" y1="311.875" y2="311.875"/><line style="stroke:#181818;stroke-width:1;" x1="331.6587" x2="331.6587" y1="311.875" y2="333.875"/><polygon fill="#181818" points="327.6587,323.875,331.6587,333.875,335.6587,323.875,331.6587,327.875" style="stroke:#181818;stroke-width:1;"/><line style="stroke:#181818;stroke-width:1;" x1="79.6611" x2="79.6611" y1="367.8438" y2="723.7188"/><line style="stroke:#181818;stroke-width:1;" x1="79.6611" x2="193.6599" y1="723.7188" y2="723.7188"/><polygon fill="#181818" points="183.6599,719.7188,193.6599,723.7188,183.6599,727.7188,187.6599,723.7188" style="stroke:#181818;stroke-width:1;"/><line style="stroke:#181818;stroke-width:1;" x1="331.6587" x2="331.6587" y1="705.7188" y2="723.7188"/><line style="stroke:#181818;stroke-width:1;" x1="331.6587" x2="217.6599" y1="723.7188" y2="723.7188"/><polygon fill="#181818" points="227.6599,719.7188,217.6599,723.7188,227.6599,727.7188,223.6599,723.7188" style="stroke:#181818;stroke-width:1;"/><line style="stroke:#181818;stroke-width:1;" x1="205.6599" x2="205.6599" y1="279.875" y2="299.875"/><polygon fill="#181818" points="201.6599,289.875,205.6599,299.875,209.6599,289.875,205.6599,293.875" style="stroke:#181818;stroke-width:1;"/><line style="stroke:#181818;stroke-width:1;" x1="318.9745" x2="205.6599" y1="169.9375" y2="169.9375"/><line style="stroke:#181818;stroke-width:1;" x1="205.6599" x2="205.6599" y1="169.9375" y2="191.9375"/><polygon fill="#181818" points="201.6599,181.9375,205.6599,191.9375,209.6599,181.9375,205.6599,185.9375" style="stroke:#181818;stroke-width:1;"/><line style="stroke:#181818;stroke-width:1;" x1="505.4608" x2="611.076" y1="169.9375" y2="169.9375"/><line style="stroke:#181818;stroke-width:1;" x1="611.076" x2="611.076" y1="169.9375" y2="191.9375"/><polygon fill="#181818" points="607.076,181.9375,611.076,191.9375,615.076,181.9375,611.076,185.9375" style="stroke:#181818;stroke-width:1;"/><line style="stroke:#181818;stroke-width:1;" x1="205.6599" x2="205.6599" y1="735.7188" y2="753.7188"/><line style="stroke:#181818;stroke-width:1;" x1="205.6599" x2="400.2177" y1="753.7188" y2="753.7188"/><polygon fill="#181818" points="390.2177,749.7188,400.2177,753.7188,390.2177,757.7188,394.2177,753.7188" style="stroke:#181818;stroke-width:1;"/><line style="stroke:#181818;stroke-width:1;" x1="611.076" x2="611.076" y1="225.9063" y2="753.7188"/><line style="stroke:#181818;stroke-width:1;" x1="611.076" x2="424.2177" y1="753.7188" y2="753.7188"/><polygon fill="#181818" points="434.2177,749.7188,424.2177,753.7188,434.2177,757.7188,430.2177,753.7188" style="stroke:#181818;stroke-width:1;"/><line style="stroke:#181818;stroke-width:1;" x1="412.2177" x2="412.2177" y1="137.9375" y2="157.9375"/><polygon fill="#181818" points="408.2177,147.9375,412.2177,157.9375,416.2177,147.9375,412.2177,151.9375" style="stroke:#181818;stroke-width:1;"/><line style="stroke:#181818;stroke-width:1;" x1="412.2177" x2="412.2177" y1="765.7188" y2="785.7188"/><polygon fill="#181818" points="408.2177,775.7188,412.2177,785.7188,416.2177,775.7188,412.2177,779.7188" style="stroke:#181818;stroke-width:1;"/><!--SRC=[bL91JiCm4Bpd5NjiJzpJGnLHG4Wj0W8FiD99kb9gLzvr87qzTjAYja85zcJlpCxCMXOrNhFypNFJmDDT1wkpB2-iQVizwDY_TLRngHI4RKF5uyrgESkufia12AQbOKPOg0nL1P7vb7G3IvCUCis8yWTOUAEWPtXnaSrxhEd9ATTS6MLdHv-K8D9Bs0jK7RrBJBD0nnKIAKKueopGSWUFzQLx55owveZtLAhH84a3hO0crbrdHUGb881gv-aLwlknwx63qU7unyof_fFxUgfKecvtk9mly_lepqj57Rlc-cH1-jXm6vK74XMgsEvKuipMi8r_OfuCnw7J28FvzyUuDzm67nzX9ARONm00]--></g></svg>