<svg xmlns="http://www.w3.org/2000/svg" xmlns:xlink="http://www.w3.org/1999/xlink" contentStyleType="text/css" data-diagram-type="SEQUENCE" height="298px" preserveAspectRatio="none" style="width:431px;height:298px;background:#FFFFFF;" version="1.1" viewBox="0 0 431 298" width="431px" zoomAndPan="magnify"><defs/><g><g><title>User</title><rect fill="#000000" fill-opacity="0.00000" height="136.5313" width="8" x="19.9551" y="81.2969"/><line style="stroke:#181818;stroke-width:0.5;stroke-dasharray:5,5;" x1="23" x2="23" y1="81.2969" y2="217.8281"/></g><g><title>Goal Data</title><rect fill="#000000" fill-opacity="0.00000" height="136.5313" width="8" x="132.5176" y="81.2969"/><line style="stroke:#181818;stroke-width:0.5;stroke-dasharray:5,5;" x1="135.6372" x2="135.6372" y1="81.2969" y2="217.8281"/></g><g><title>Analytics</title><rect fill="#000000" fill-opacity="0.00000" height="136.5313" width="8" x="224.4312" y="81.2969"/><line style="stroke:#181818;stroke-width:0.5;stroke-dasharray:5,5;" x1="227.644" x2="227.644" y1="81.2969" y2="217.8281"/></g><g><title>Monthly Reports</title><rect fill="#000000" fill-opacity="0.00000" height="136.5313" width="8" x="356.957" y="81.2969"/><line style="stroke:#181818;stroke-width:0.5;stroke-dasharray:5,5;" x1="360.5386" x2="360.5386" y1="81.2969" y2="217.8281"/></g><g class="participant participant-head" data-participant="User"><text fill="#000000" font-family="sans-serif" font-size="14" lengthAdjust="spacing" textLength="31.9102" x="5" y="77.9951">User</text><ellipse cx="23.9551" cy="13.5" fill="#E2E2F0" rx="8" ry="8" style="stroke:#181818;stroke-width:0.5;"/><path d="M23.9551,21.5 L23.9551,48.5 M10.9551,29.5 L36.9551,29.5 M23.9551,48.5 L10.9551,63.5 M23.9551,48.5 L36.9551,63.5" fill="none" style="stroke:#181818;stroke-width:0.5;"/></g><g class="participant participant-tail" data-participant="User"><text fill="#000000" font-family="sans-serif" font-size="14" lengthAdjust="spacing" textLength="31.9102" x="5" y="229.8232">User</text><ellipse cx="23.9551" cy="241.625" fill="#E2E2F0" rx="8" ry="8" style="stroke:#181818;stroke-width:0.5;"/><path d="M23.9551,249.625 L23.9551,276.625 M10.9551,257.625 L36.9551,257.625 M23.9551,276.625 L10.9551,291.625 M23.9551,276.625 L36.9551,291.625" fill="none" style="stroke:#181818;stroke-width:0.5;"/></g><g class="participant participant-head" data-participant="GoalData"><rect fill="#E2E2F0" height="30.2969" rx="2.5" ry="2.5" style="stroke:#181818;stroke-width:0.5;" width="83.7607" x="94.6372" y="50"/><text fill="#000000" font-family="sans-serif" font-size="14" lengthAdjust="spacing" textLength="69.7607" x="101.6372" y="69.9951">Goal Data</text></g><g class="participant participant-tail" data-participant="GoalData"><rect fill="#E2E2F0" height="30.2969" rx="2.5" ry="2.5" style="stroke:#181818;stroke-width:0.5;" width="83.7607" x="94.6372" y="216.8281"/><text fill="#000000" font-family="sans-serif" font-size="14" lengthAdjust="spacing" textLength="69.7607" x="101.6372" y="236.8232">Goal Data</text></g><g class="participant participant-head" data-participant="Analytics"><rect fill="#E2E2F0" height="30.2969" rx="2.5" ry="2.5" style="stroke:#181818;stroke-width:0.5;" width="77.5742" x="189.644" y="50"/><text fill="#000000" font-family="sans-serif" font-size="14" lengthAdjust="spacing" textLength="63.5742" x="196.644" y="69.9951">Analytics</text></g><g class="participant participant-tail" data-participant="Analytics"><rect fill="#E2E2F0" height="30.2969" rx="2.5" ry="2.5" style="stroke:#181818;stroke-width:0.5;" width="77.5742" x="189.644" y="216.8281"/><text fill="#000000" font-family="sans-serif" font-size="14" lengthAdjust="spacing" textLength="63.5742" x="196.644" y="236.8232">Analytics</text></g><g class="participant participant-head" data-participant="MonthlyReports"><rect fill="#E2E2F0" height="30.2969" rx="2.5" ry="2.5" style="stroke:#181818;stroke-width:0.5;" width="128.8369" x="296.5386" y="50"/><text fill="#000000" font-family="sans-serif" font-size="14" lengthAdjust="spacing" textLength="114.8369" x="303.5386" y="69.9951">Monthly Reports</text></g><g class="participant participant-tail" data-participant="MonthlyReports"><rect fill="#E2E2F0" height="30.2969" rx="2.5" ry="2.5" style="stroke:#181818;stroke-width:0.5;" width="128.8369" x="296.5386" y="216.8281"/><text fill="#000000" font-family="sans-serif" font-size="14" lengthAdjust="spacing" textLength="114.8369" x="303.5386" y="236.8232">Monthly Reports</text></g><g class="message" data-participant-1="User" data-participant-2="GoalData"><polygon fill="#181818" points="124.5176,108.4297,134.5176,112.4297,124.5176,116.4297,128.5176,112.4297" style="stroke:#181818;stroke-width:1;"/><line style="stroke:#181818;stroke-width:1;" x1="23.9551" x2="130.5176" y1="112.4297" y2="112.4297"/><text fill="#000000" font-family="sans-serif" font-size="13" lengthAdjust="spacing" textLength="88.5625" x="30.9551" y="107.3638">Request Data</text></g><g class="message" data-participant-1="GoalData" data-participant-2="Analytics"><polygon fill="#181818" points="216.4312,137.5625,226.4312,141.5625,216.4312,145.5625,220.4312,141.5625" style="stroke:#181818;stroke-width:1;"/><line style="stroke:#181818;stroke-width:1;" x1="136.5176" x2="222.4312" y1="141.5625" y2="141.5625"/><text fill="#000000" font-family="sans-serif" font-size="13" lengthAdjust="spacing" textLength="67.9136" x="143.5176" y="136.4966">Send Data</text></g><g class="message" data-participant-1="Analytics" data-participant-2="MonthlyReports"><polygon fill="#181818" points="348.957,166.6953,358.957,170.6953,348.957,174.6953,352.957,170.6953" style="stroke:#181818;stroke-width:1;"/><line style="stroke:#181818;stroke-width:1;" x1="228.4312" x2="354.957" y1="170.6953" y2="170.6953"/><text fill="#000000" font-family="sans-serif" font-size="13" lengthAdjust="spacing" textLength="108.5259" x="235.4312" y="165.6294">Generate Report</text></g><g class="message" data-participant-1="MonthlyReports" data-participant-2="User"><polygon fill="#181818" points="34.9551,195.8281,24.9551,199.8281,34.9551,203.8281,30.9551,199.8281" style="stroke:#181818;stroke-width:1;"/><line style="stroke:#181818;stroke-width:1;" x1="28.9551" x2="359.957" y1="199.8281" y2="199.8281"/><text fill="#000000" font-family="sans-serif" font-size="13" lengthAdjust="spacing" textLength="94.0786" x="40.9551" y="194.7622">Deliver Report</text></g><!--SRC=[LOwn2iCm34HtVuN8dX_mK2W4CdLfwGU8L123iLrPBUJlQyMkmUFTFUaEDuaCpqni4hAupIKC0jCQqSE2WXDW1bKgHkOQq1z5vfFfQeHkCSZk3xXJYYmLRLwpZD5wc2-znXRw_Q4ivmBpjnNfBHOU55uLwAOIutCBAmLY56eBp9ZhXTPRMCYxRzbHWny0]--></g></svg>