<svg xmlns="http://www.w3.org/2000/svg" xmlns:xlink="http://www.w3.org/1999/xlink" contentStyleType="text/css" data-diagram-type="DESCRIPTION" height="480px" preserveAspectRatio="none" style="width:463px;height:480px;background:#FFFFFF;" version="1.1" viewBox="0 0 463 480" width="463px" zoomAndPan="magnify"><defs/><g><!--cluster Reporting and Dashboard System--><g class="cluster" data-entity="Reporting and Dashboard System" data-source-line="1" data-uid="ent0002" id="cluster_Reporting and Dashboard System"><path d="M8.5,6 L275.5547,6 A3.75,3.75 0 0 1 278.0547,8.5 L285.0547,28.2969 L453.5,28.2969 A2.5,2.5 0 0 1 456,30.7969 L456,470.69 A2.5,2.5 0 0 1 453.5,473.19 L8.5,473.19 A2.5,2.5 0 0 1 6,470.69 L6,8.5 A2.5,2.5 0 0 1 8.5,6" fill="none" style="stroke:#000000;stroke-width:1.5;"/><line style="stroke:#000000;stroke-width:1.5;" x1="6" x2="285.0547" y1="28.2969" y2="28.2969"/><text fill="#000000" font-family="sans-serif" font-size="14" font-weight="bold" lengthAdjust="spacing" textLength="266.0547" x="10" y="20.9951">Reporting and Dashboard System</text></g><!--entity TicketSystem--><g class="entity" data-entity="TicketSystem" data-source-line="3" data-uid="ent0003" id="entity_TicketSystem"><rect fill="#F1F1F1" height="46.2969" rx="2.5" ry="2.5" style="stroke:#181818;stroke-width:0.5;" width="139.0049" x="128.5" y="41"/><rect fill="#F1F1F1" height="10" style="stroke:#181818;stroke-width:0.5;" width="15" x="247.5049" y="46"/><rect fill="#F1F1F1" height="2" style="stroke:#181818;stroke-width:0.5;" width="4" x="245.5049" y="48"/><rect fill="#F1F1F1" height="2" style="stroke:#181818;stroke-width:0.5;" width="4" x="245.5049" y="52"/><text fill="#000000" font-family="sans-serif" font-size="14" lengthAdjust="spacing" textLength="99.0049" x="143.5" y="73.9951">Ticket System</text></g><!--entity ReportingEngine--><g class="entity" data-entity="ReportingEngine" data-source-line="4" data-uid="ent0004" id="entity_ReportingEngine"><rect fill="#F1F1F1" height="46.2969" rx="2.5" ry="2.5" style="stroke:#181818;stroke-width:0.5;" width="161.1191" x="117.44" y="164.3"/><rect fill="#F1F1F1" height="10" style="stroke:#181818;stroke-width:0.5;" width="15" x="258.5591" y="169.3"/><rect fill="#F1F1F1" height="2" style="stroke:#181818;stroke-width:0.5;" width="4" x="256.5591" y="171.3"/><rect fill="#F1F1F1" height="2" style="stroke:#181818;stroke-width:0.5;" width="4" x="256.5591" y="175.3"/><text fill="#000000" font-family="sans-serif" font-size="14" lengthAdjust="spacing" textLength="121.1191" x="132.44" y="197.2951">Reporting Engine</text></g><!--entity PerformanceReports--><g class="entity" data-entity="PerformanceReports" data-source-line="5" data-uid="ent0005" id="entity_PerformanceReports"><rect fill="#F1F1F1" height="46.2969" rx="2.5" ry="2.5" style="stroke:#181818;stroke-width:0.5;" width="188.2441" x="103.88" y="287.6"/><rect fill="#F1F1F1" height="10" style="stroke:#181818;stroke-width:0.5;" width="15" x="272.1241" y="292.6"/><rect fill="#F1F1F1" height="2" style="stroke:#181818;stroke-width:0.5;" width="4" x="270.1241" y="294.6"/><rect fill="#F1F1F1" height="2" style="stroke:#181818;stroke-width:0.5;" width="4" x="270.1241" y="298.6"/><text fill="#000000" font-family="sans-serif" font-size="14" lengthAdjust="spacing" textLength="148.2441" x="118.88" y="320.5951">Performance Reports</text></g><!--entity Users--><g class="entity" data-entity="Users" data-source-line="6" data-uid="ent0006" id="entity_Users"><rect fill="#F1F1F1" height="46.2969" rx="2.5" ry="2.5" style="stroke:#181818;stroke-width:0.5;" width="196.0576" x="25.97" y="410.89"/><rect fill="#F1F1F1" height="10" style="stroke:#181818;stroke-width:0.5;" width="15" x="202.0276" y="415.89"/><rect fill="#F1F1F1" height="2" style="stroke:#181818;stroke-width:0.5;" width="4" x="200.0276" y="417.89"/><rect fill="#F1F1F1" height="2" style="stroke:#181818;stroke-width:0.5;" width="4" x="200.0276" y="421.89"/><text fill="#000000" font-family="sans-serif" font-size="14" lengthAdjust="spacing" textLength="156.0576" x="40.97" y="443.8851">Managers and Admins</text></g><!--entity ExportFunctionality--><g class="entity" data-entity="ExportFunctionality" data-source-line="7" data-uid="ent0007" id="entity_ExportFunctionality"><rect fill="#F1F1F1" height="46.2969" rx="2.5" ry="2.5" style="stroke:#181818;stroke-width:0.5;" width="180.7246" x="259.64" y="410.89"/><rect fill="#F1F1F1" height="10" style="stroke:#181818;stroke-width:0.5;" width="15" x="420.3646" y="415.89"/><rect fill="#F1F1F1" height="2" style="stroke:#181818;stroke-width:0.5;" width="4" x="418.3646" y="417.89"/><rect fill="#F1F1F1" height="2" style="stroke:#181818;stroke-width:0.5;" width="4" x="418.3646" y="421.89"/><text fill="#000000" font-family="sans-serif" font-size="14" lengthAdjust="spacing" textLength="140.7246" x="274.64" y="443.8851">Export Functionality</text></g><!--link TicketSystem to ReportingEngine--><g class="link" data-entity-1="TicketSystem" data-entity-2="ReportingEngine" data-source-line="9" data-uid="lnk8" id="link_TicketSystem_ReportingEngine"><path d="M198,87.68 C198,109.47 198,136.29 198,158.04" fill="none" id="TicketSystem-to-ReportingEngine" style="stroke:#181818;stroke-width:1;"/><polygon fill="#181818" points="198,164.04,202,155.04,198,159.04,194,155.04,198,164.04" style="stroke:#181818;stroke-width:1;"/><text fill="#000000" font-family="sans-serif" font-size="13" lengthAdjust="spacing" textLength="64.8477" x="199" y="130.3669">Data Flow</text></g><!--link ReportingEngine to PerformanceReports--><g class="link" data-entity-1="ReportingEngine" data-entity-2="PerformanceReports" data-source-line="10" data-uid="lnk9" id="link_ReportingEngine_PerformanceReports"><path d="M198,210.98 C198,232.77 198,259.59 198,281.33" fill="none" id="ReportingEngine-to-PerformanceReports" style="stroke:#181818;stroke-width:1;"/><polygon fill="#181818" points="198,287.33,202,278.33,198,282.33,194,278.33,198,287.33" style="stroke:#181818;stroke-width:1;"/><text fill="#000000" font-family="sans-serif" font-size="13" lengthAdjust="spacing" textLength="115.2988" x="199" y="253.6669">Generate Reports</text></g><!--link PerformanceReports to Users--><g class="link" data-entity-1="PerformanceReports" data-entity-2="Users" data-source-line="11" data-uid="lnk10" id="link_PerformanceReports_Users"><path d="M103.6,327.55 C84.16,335.29 65.99,346.81 54,363.89 C41.84,381.23 52.8288,394.7619 72.6088,407.4419" fill="none" id="PerformanceReports-to-Users" style="stroke:#181818;stroke-width:1;"/><polygon fill="#181818" points="77.66,410.68,72.2419,402.4554,73.4507,407.9816,67.9245,409.1903,77.66,410.68" style="stroke:#181818;stroke-width:1;"/><text fill="#000000" font-family="sans-serif" font-size="13" lengthAdjust="spacing" textLength="99.3154" x="55" y="376.9569">Access Reports</text></g><!--link Users to PerformanceReports--><g class="link" data-entity-1="Users" data-entity-2="PerformanceReports" data-source-line="12" data-uid="lnk11" id="link_Users_PerformanceReports"><path d="M139.72,410.45 C145.89,401.36 152.94,390.73 159,380.89 C168.47,365.52 175.574,353.0403 183.074,339.3703" fill="none" id="Users-to-PerformanceReports" style="stroke:#181818;stroke-width:1;"/><polygon fill="#181818" points="185.96,334.11,178.1241,340.0764,183.555,338.4936,185.1378,343.9245,185.96,334.11" style="stroke:#181818;stroke-width:1;"/><text fill="#000000" font-family="sans-serif" font-size="13" lengthAdjust="spacing" textLength="121.7036" x="170.06" y="376.9569">Permissions Check</text></g><!--link PerformanceReports to ExportFunctionality--><g class="link" data-entity-1="PerformanceReports" data-entity-2="ExportFunctionality" data-source-line="13" data-uid="lnk12" id="link_PerformanceReports_ExportFunctionality"><path d="M253.64,334.26 C269.58,342.23 286.33,352.18 300,363.89 C315.41,377.1 325.5231,390.8592 334.4931,405.5492" fill="none" id="PerformanceReports-to-ExportFunctionality" style="stroke:#181818;stroke-width:1;"/><polygon fill="#181818" points="337.62,410.67,336.3436,400.9042,335.0143,406.4027,329.5158,405.0734,337.62,410.67" style="stroke:#181818;stroke-width:1;"/><text fill="#000000" font-family="sans-serif" font-size="13" lengthAdjust="spacing" textLength="77.7271" x="317.26" y="376.9569">Export Data</text></g><!--SRC=[TP11Ri8m44NtESKeUoxGHINKGbULgj8UO726O0MF8uyhG1LtxyIEGan1ykhDVxR_z6WwR0dgJ-fzY9PRG6xW5MM_zHWQs9mbaglXjmBGOxphFHD7gB-iwIXE0HJ898CoUxrznQrbIl49PbOQ7nHsFZXaGsDGaZJZ8owzTsJj4oJLM3RESlQ-HM4PNPq67zO_RABrZ0SRpocR1mMlL9tNWyNY-RO0FEdU8iBwu8yQlvqEnl_Vg_H6J07Zr5FTExb1JoNKM1f38hDy7ZnyGQ6p8bf6u6LFfdlyn9tkUi6ugg5ULLt-0000]--></g></svg>