<svg xmlns="http://www.w3.org/2000/svg" xmlns:xlink="http://www.w3.org/1999/xlink" contentStyleType="text/css" data-diagram-type="CLASS" height="439px" preserveAspectRatio="none" style="width:493px;height:439px;background:#FFFFFF;" version="1.1" viewBox="0 0 493 439" width="493px" zoomAndPan="magnify"><defs/><g><!--entity Contact Agent Workstation--><g class="entity" data-entity="Contact Agent Workstation" data-source-line="1" data-uid="ent0002" id="entity_Contact Agent Workstation"><polygon fill="#F1F1F1" points="47.78,16,57.78,6,277.0398,6,277.0398,42.2969,267.0398,52.2969,47.78,52.2969,47.78,16" style="stroke:#181818;stroke-width:0.5;"/><line style="stroke:#181818;stroke-width:0.5;" x1="267.0398" x2="277.0398" y1="16" y2="6"/><line style="stroke:#181818;stroke-width:0.5;" x1="47.78" x2="267.0398" y1="16" y2="16"/><line style="stroke:#181818;stroke-width:0.5;" x1="267.0398" x2="267.0398" y1="16" y2="52.2969"/><text fill="#000000" font-family="sans-serif" font-size="14" lengthAdjust="spacing" textLength="189.2598" x="62.78" y="38.9951">Contact Agent Workstation</text></g><!--entity IVR Server--><g class="entity" data-entity="IVR Server" data-source-line="4" data-uid="ent0003" id="entity_IVR Server"><polygon fill="#F1F1F1" points="105.51,139.3,115.51,129.3,219.3039,129.3,219.3039,165.5969,209.3039,175.5969,105.51,175.5969,105.51,139.3" style="stroke:#181818;stroke-width:0.5;"/><line style="stroke:#181818;stroke-width:0.5;" x1="209.3039" x2="219.3039" y1="139.3" y2="129.3"/><line style="stroke:#181818;stroke-width:0.5;" x1="105.51" x2="209.3039" y1="139.3" y2="139.3"/><line style="stroke:#181818;stroke-width:0.5;" x1="209.3039" x2="209.3039" y1="139.3" y2="175.5969"/><text fill="#000000" font-family="sans-serif" font-size="14" lengthAdjust="spacing" textLength="73.7939" x="120.51" y="162.2951">IVR Server</text></g><!--entity Ticket Management Server--><g class="entity" data-entity="Ticket Management Server" data-source-line="7" data-uid="ent0004" id="entity_Ticket Management Server"><polygon fill="#F1F1F1" points="30.72,262.6,40.72,252.6,260.1028,252.6,260.1028,288.8969,250.1028,298.8969,30.72,298.8969,30.72,262.6" style="stroke:#181818;stroke-width:0.5;"/><line style="stroke:#181818;stroke-width:0.5;" x1="250.1028" x2="260.1028" y1="262.6" y2="252.6"/><line style="stroke:#181818;stroke-width:0.5;" x1="30.72" x2="250.1028" y1="262.6" y2="262.6"/><line style="stroke:#181818;stroke-width:0.5;" x1="250.1028" x2="250.1028" y1="262.6" y2="298.8969"/><text fill="#000000" font-family="sans-serif" font-size="14" lengthAdjust="spacing" textLength="189.3828" x="45.72" y="285.5951">Ticket Management Server</text></g><!--entity Customer Database Server--><g class="entity" data-entity="Customer Database Server" data-source-line="10" data-uid="ent0005" id="entity_Customer Database Server"><polygon fill="#F1F1F1" points="123.6,385.89,133.6,375.89,353.2152,375.89,353.2152,412.1869,343.2152,422.1869,123.6,422.1869,123.6,385.89" style="stroke:#181818;stroke-width:0.5;"/><line style="stroke:#181818;stroke-width:0.5;" x1="343.2152" x2="353.2152" y1="385.89" y2="375.89"/><line style="stroke:#181818;stroke-width:0.5;" x1="123.6" x2="343.2152" y1="385.89" y2="385.89"/><line style="stroke:#181818;stroke-width:0.5;" x1="343.2152" x2="343.2152" y1="385.89" y2="422.1869"/><text fill="#000000" font-family="sans-serif" font-size="14" lengthAdjust="spacing" textLength="189.6152" x="138.6" y="408.8851">Customer Database Server</text></g><!--link IVR Server to Ticket Management Server--><g class="link" data-entity-1="IVR Server" data-entity-2="Ticket Management Server" data-source-line="13" data-uid="lnk6" id="link_IVR Server_Ticket Management Server"><path codeLine="13" d="M105.12,158.99 C74.59,165.2 39.5,178.25 20.41,205.6 C6,226.24 17.1466,239.0365 42.5066,249.7965" fill="none" id="IVR Server-to-Ticket Management Server" style="stroke:#181818;stroke-width:1;"/><polygon fill="#181818" points="48.03,252.14,41.3073,244.9425,43.4272,250.1871,38.1826,252.307,48.03,252.14" style="stroke:#181818;stroke-width:1;"/><text fill="#000000" font-family="sans-serif" font-size="13" lengthAdjust="spacing" textLength="97.3604" x="21.41" y="218.6669">Log call details</text></g><!--link IVR Server to Ticket Management Server--><g class="link" data-entity-1="IVR Server" data-entity-2="Ticket Management Server" data-source-line="14" data-uid="lnk7" id="link_IVR Server_Ticket Management Server"><path codeLine="14" d="M159.25,175.98 C156.2,197.77 152.4336,224.6482 149.3836,246.3882" fill="none" id="IVR Server-to-Ticket Management Server-1" style="stroke:#181818;stroke-width:1;"/><polygon fill="#181818" points="148.55,252.33,153.7616,243.973,149.2447,247.3785,145.8392,242.8615,148.55,252.33" style="stroke:#181818;stroke-width:1;"/><text fill="#000000" font-family="sans-serif" font-size="13" lengthAdjust="spacing" textLength="143.5586" x="155.92" y="218.6669">Initiate ticket creation</text></g><!--link Contact Agent Workstation to IVR Server--><g class="link" data-entity-1="Contact Agent Workstation" data-entity-2="IVR Server" data-source-line="16" data-uid="lnk8" id="link_Contact Agent Workstation_IVR Server"><path codeLine="16" d="M162.41,52.68 C162.41,74.47 162.41,101.29 162.41,123.04" fill="none" id="Contact Agent Workstation-to-IVR Server" style="stroke:#181818;stroke-width:1;"/><polygon fill="#181818" points="162.41,129.04,166.41,120.04,162.41,124.04,158.41,120.04,162.41,129.04" style="stroke:#181818;stroke-width:1;"/><text fill="#000000" font-family="sans-serif" font-size="13" lengthAdjust="spacing" textLength="151.5757" x="163.41" y="95.3669">Secure Communication</text></g><!--link IVR Server to Customer Database Server--><g class="link" data-entity-1="IVR Server" data-entity-2="Customer Database Server" data-source-line="17" data-uid="lnk9" id="link_IVR Server_Customer Database Server"><path codeLine="17" d="M219.78,158.26 C251.49,164.19 288.41,177.21 308.41,205.6 C344.32,256.57 336.38,290.17 308.41,345.89 C302.42,357.81 297.1246,364.1602 286.3946,372.0002" fill="none" id="IVR Server-to-Customer Database Server" style="stroke:#181818;stroke-width:1;"/><polygon fill="#181818" points="281.55,375.54,291.1767,373.4601,285.5872,372.5902,286.4571,367.0006,281.55,375.54" style="stroke:#181818;stroke-width:1;"/><text fill="#000000" font-family="sans-serif" font-size="13" lengthAdjust="spacing" textLength="151.5757" x="333.46" y="280.3069">Secure Communication</text></g><!--link Ticket Management Server to Customer Database Server--><g class="link" data-entity-1="Ticket Management Server" data-entity-2="Customer Database Server" data-source-line="18" data-uid="lnk10" id="link_Ticket Management Server_Customer Database Server"><path codeLine="18" d="M142.38,299.24 C141.59,313.62 142.78,332.1 151.41,345.89 C159.06,358.14 165.6312,364.7436 177.9712,372.3436" fill="none" id="Ticket Management Server-to-Customer Database Server" style="stroke:#181818;stroke-width:1;"/><polygon fill="#181818" points="183.08,375.49,177.5144,367.3645,178.8227,372.868,173.3192,374.1762,183.08,375.49" style="stroke:#181818;stroke-width:1;"/><text fill="#000000" font-family="sans-serif" font-size="13" lengthAdjust="spacing" textLength="151.5757" x="152.41" y="341.9569">Secure Communication</text></g><!--SRC=[dP2n2i9038RtFaNetXVe8CYv57HHgNEyXdAqby1TwYA-k_MwMBG5tKBuykLFM1g2t0WhMeLjIwnmaT15HNN2ETopHvPneghw22SADmgpzjdPZXGEoDYIVmc-G6Q8Afu2x53nYf7cqCnT59irQmbxQS5YtqD3YgwFFuvNxDIX4kW4sK3fs376oYEIzdrFELPs20H6l1_OsKdocMNvzYN5Slh_X4y0]--></g></svg>