<svg xmlns="http://www.w3.org/2000/svg" xmlns:xlink="http://www.w3.org/1999/xlink" contentStyleType="text/css" data-diagram-type="ACTIVITY" height="350px" preserveAspectRatio="none" style="width:177px;height:350px;background:#FFFFFF;" version="1.1" viewBox="0 0 177 350" width="177px" zoomAndPan="magnify"><defs/><g><ellipse cx="88.9102" cy="20" fill="#222222" rx="10" ry="10" style="stroke:#222222;stroke-width:1;"/><rect fill="#F1F1F1" height="33.9688" rx="12.5" ry="12.5" style="stroke:#181818;stroke-width:0.5;" width="144.8105" x="16.5049" y="50"/><text fill="#000000" font-family="sans-serif" font-size="12" lengthAdjust="spacing" textLength="124.8105" x="26.5049" y="71.1387">User adjusts weights</text><rect fill="#F1F1F1" height="33.9688" rx="12.5" ry="12.5" style="stroke:#181818;stroke-width:0.5;" width="155.8203" x="11" y="103.9688"/><text fill="#000000" font-family="sans-serif" font-size="12" lengthAdjust="spacing" textLength="135.8203" x="21" y="125.1074">Index Engine previews</text><rect fill="#F1F1F1" height="33.9688" rx="12.5" ry="12.5" style="stroke:#181818;stroke-width:0.5;" width="153.9219" x="11.9492" y="157.9375"/><text fill="#000000" font-family="sans-serif" font-size="12" lengthAdjust="spacing" textLength="133.9219" x="21.9492" y="179.0762">Policy Check validates</text><rect fill="#F1F1F1" height="33.9688" rx="12.5" ry="12.5" style="stroke:#181818;stroke-width:0.5;" width="104.5801" x="36.6201" y="211.9063"/><text fill="#000000" font-family="sans-serif" font-size="12" lengthAdjust="spacing" textLength="84.5801" x="46.6201" y="233.0449">Version saved</text><rect fill="#F1F1F1" height="33.9688" rx="12.5" ry="12.5" style="stroke:#181818;stroke-width:0.5;" width="137.6621" x="20.0791" y="265.875"/><text fill="#000000" font-family="sans-serif" font-size="12" lengthAdjust="spacing" textLength="117.6621" x="30.0791" y="287.0137">Dashboards update</text><ellipse cx="88.9102" cy="329.8438" fill="none" rx="10" ry="10" style="stroke:#222222;stroke-width:1.5;"/><line style="stroke:#222222;stroke-width:2.5;" x1="82.723" x2="95.0973" y1="323.6566" y2="336.0309"/><line style="stroke:#222222;stroke-width:2.5;" x1="95.0973" x2="82.723" y1="323.6566" y2="336.0309"/><line style="stroke:#181818;stroke-width:1;" x1="88.9102" x2="88.9102" y1="30" y2="50"/><polygon fill="#181818" points="84.9102,40,88.9102,50,92.9102,40,88.9102,44" style="stroke:#181818;stroke-width:1;"/><line style="stroke:#181818;stroke-width:1;" x1="88.9102" x2="88.9102" y1="83.9688" y2="103.9688"/><polygon fill="#181818" points="84.9102,93.9688,88.9102,103.9688,92.9102,93.9688,88.9102,97.9688" style="stroke:#181818;stroke-width:1;"/><line style="stroke:#181818;stroke-width:1;" x1="88.9102" x2="88.9102" y1="137.9375" y2="157.9375"/><polygon fill="#181818" points="84.9102,147.9375,88.9102,157.9375,92.9102,147.9375,88.9102,151.9375" style="stroke:#181818;stroke-width:1;"/><line style="stroke:#181818;stroke-width:1;" x1="88.9102" x2="88.9102" y1="191.9063" y2="211.9063"/><polygon fill="#181818" points="84.9102,201.9063,88.9102,211.9063,92.9102,201.9063,88.9102,205.9063" style="stroke:#181818;stroke-width:1;"/><line style="stroke:#181818;stroke-width:1;" x1="88.9102" x2="88.9102" y1="245.875" y2="265.875"/><polygon fill="#181818" points="84.9102,255.875,88.9102,265.875,92.9102,255.875,88.9102,259.875" style="stroke:#181818;stroke-width:1;"/><line style="stroke:#181818;stroke-width:1;" x1="88.9102" x2="88.9102" y1="299.8438" y2="319.8438"/><polygon fill="#181818" points="84.9102,309.8438,88.9102,319.8438,92.9102,309.8438,88.9102,313.8438" style="stroke:#181818;stroke-width:1;"/><!--SRC=[DSen3i8m34RXFQVm1RW0I2p0mCO2kwb_DORAgM8tfRS715tVzpouHahRgwCIosFoS9gXVGxVfSt-GsSJlEXalHfeh6YAURLB6RHRw93HFQdneCA15M-ehiN8kK7-xSYUxuMhE4tZT_vrcBm1]--></g></svg>