<svg xmlns="http://www.w3.org/2000/svg" xmlns:xlink="http://www.w3.org/1999/xlink" contentStyleType="text/css" data-diagram-type="SEQUENCE" height="473px" preserveAspectRatio="none" style="width:842px;height:473px;background:#FFFFFF;" version="1.1" viewBox="0 0 842 473" width="842px" zoomAndPan="magnify"><defs/><g><g><title>User</title><rect fill="#000000" fill-opacity="0.00000" height="311.3281" width="8" x="19.9551" y="81.2969"/><line style="stroke:#181818;stroke-width:0.5;stroke-dasharray:5,5;" x1="23" x2="23" y1="81.2969" y2="392.625"/></g><g><title>Mobile App</title><rect fill="#000000" fill-opacity="0.00000" height="311.3281" width="8" x="216.0908" y="81.2969"/><line style="stroke:#181818;stroke-width:0.5;stroke-dasharray:5,5;" x1="219.2285" x2="219.2285" y1="81.2969" y2="392.625"/></g><g><title>Order Service</title><rect fill="#000000" fill-opacity="0.00000" height="311.3281" width="8" x="343.0435" y="81.2969"/><line style="stroke:#181818;stroke-width:0.5;stroke-dasharray:5,5;" x1="346.9321" x2="346.9321" y1="81.2969" y2="392.625"/></g><g><title>Review Service</title><rect fill="#000000" fill-opacity="0.00000" height="311.3281" width="8" x="468.54" y="81.2969"/><line style="stroke:#181818;stroke-width:0.5;stroke-dasharray:5,5;" x1="472.1548" x2="472.1548" y1="81.2969" y2="392.625"/></g><g><title>Moderation Queue</title><rect fill="#000000" fill-opacity="0.00000" height="311.3281" width="8" x="635.0195" y="81.2969"/><line style="stroke:#181818;stroke-width:0.5;stroke-dasharray:5,5;" x1="638.1499" x2="638.1499" y1="81.2969" y2="392.625"/></g><g><title>Rating Service</title><rect fill="#000000" fill-opacity="0.00000" height="311.3281" width="8" x="774.7075" y="81.2969"/><line style="stroke:#181818;stroke-width:0.5;stroke-dasharray:5,5;" x1="777.8892" x2="777.8892" y1="81.2969" y2="392.625"/></g><g class="participant participant-head" data-participant="User"><text fill="#000000" font-family="sans-serif" font-size="14" lengthAdjust="spacing" textLength="31.9102" x="5" y="77.9951">User</text><ellipse cx="23.9551" cy="13.5" fill="#E2E2F0" rx="8" ry="8" style="stroke:#181818;stroke-width:0.5;"/><path d="M23.9551,21.5 L23.9551,48.5 M10.9551,29.5 L36.9551,29.5 M23.9551,48.5 L10.9551,63.5 M23.9551,48.5 L36.9551,63.5" fill="none" style="stroke:#181818;stroke-width:0.5;"/></g><g class="participant participant-tail" data-participant="User"><text fill="#000000" font-family="sans-serif" font-size="14" lengthAdjust="spacing" textLength="31.9102" x="5" y="404.6201">User</text><ellipse cx="23.9551" cy="416.4219" fill="#E2E2F0" rx="8" ry="8" style="stroke:#181818;stroke-width:0.5;"/><path d="M23.9551,424.4219 L23.9551,451.4219 M10.9551,432.4219 L36.9551,432.4219 M23.9551,451.4219 L10.9551,466.4219 M23.9551,451.4219 L36.9551,466.4219" fill="none" style="stroke:#181818;stroke-width:0.5;"/></g><g class="participant participant-head" data-participant="App"><rect fill="#E2E2F0" height="30.2969" rx="2.5" ry="2.5" style="stroke:#181818;stroke-width:0.5;" width="91.7246" x="174.2285" y="50"/><text fill="#000000" font-family="sans-serif" font-size="14" lengthAdjust="spacing" textLength="77.7246" x="181.2285" y="69.9951">Mobile App</text></g><g class="participant participant-tail" data-participant="App"><rect fill="#E2E2F0" height="30.2969" rx="2.5" ry="2.5" style="stroke:#181818;stroke-width:0.5;" width="91.7246" x="174.2285" y="391.625"/><text fill="#000000" font-family="sans-serif" font-size="14" lengthAdjust="spacing" textLength="77.7246" x="181.2285" y="411.6201">Mobile App</text></g><g class="participant participant-head" data-participant="OrderService"><rect fill="#E2E2F0" height="30.2969" rx="2.5" ry="2.5" style="stroke:#181818;stroke-width:0.5;" width="110.2227" x="291.9321" y="50"/><text fill="#000000" font-family="sans-serif" font-size="14" lengthAdjust="spacing" textLength="96.2227" x="298.9321" y="69.9951">Order Service</text></g><g class="participant participant-tail" data-participant="OrderService"><rect fill="#E2E2F0" height="30.2969" rx="2.5" ry="2.5" style="stroke:#181818;stroke-width:0.5;" width="110.2227" x="291.9321" y="391.625"/><text fill="#000000" font-family="sans-serif" font-size="14" lengthAdjust="spacing" textLength="96.2227" x="298.9321" y="411.6201">Order Service</text></g><g class="participant participant-head" data-participant="ReviewService"><rect fill="#E2E2F0" height="30.2969" rx="2.5" ry="2.5" style="stroke:#181818;stroke-width:0.5;" width="120.7705" x="412.1548" y="50"/><text fill="#000000" font-family="sans-serif" font-size="14" lengthAdjust="spacing" textLength="106.7705" x="419.1548" y="69.9951">Review Service</text></g><g class="participant participant-tail" data-participant="ReviewService"><rect fill="#E2E2F0" height="30.2969" rx="2.5" ry="2.5" style="stroke:#181818;stroke-width:0.5;" width="120.7705" x="412.1548" y="391.625"/><text fill="#000000" font-family="sans-serif" font-size="14" lengthAdjust="spacing" textLength="106.7705" x="419.1548" y="411.6201">Review Service</text></g><g class="participant participant-head" data-participant="ModQueue"><rect fill="#E2E2F0" height="30.2969" rx="2.5" ry="2.5" style="stroke:#181818;stroke-width:0.5;" width="143.7393" x="567.1499" y="50"/><text fill="#000000" font-family="sans-serif" font-size="14" lengthAdjust="spacing" textLength="129.7393" x="574.1499" y="69.9951">Moderation Queue</text></g><g class="participant participant-tail" data-participant="ModQueue"><rect fill="#E2E2F0" height="30.2969" rx="2.5" ry="2.5" style="stroke:#181818;stroke-width:0.5;" width="143.7393" x="567.1499" y="391.625"/><text fill="#000000" font-family="sans-serif" font-size="14" lengthAdjust="spacing" textLength="129.7393" x="574.1499" y="411.6201">Moderation Queue</text></g><g class="participant participant-head" data-participant="RatingService"><rect fill="#E2E2F0" height="30.2969" rx="2.5" ry="2.5" style="stroke:#181818;stroke-width:0.5;" width="115.6367" x="720.8892" y="50"/><text fill="#000000" font-family="sans-serif" font-size="14" lengthAdjust="spacing" textLength="101.6367" x="727.8892" y="69.9951">Rating Service</text></g><g class="participant participant-tail" data-participant="RatingService"><rect fill="#E2E2F0" height="30.2969" rx="2.5" ry="2.5" style="stroke:#181818;stroke-width:0.5;" width="115.6367" x="720.8892" y="391.625"/><text fill="#000000" font-family="sans-serif" font-size="14" lengthAdjust="spacing" textLength="101.6367" x="727.8892" y="411.6201">Rating Service</text></g><g class="message" data-participant-1="User" data-participant-2="App"><polygon fill="#181818" points="208.0908,108.4297,218.0908,112.4297,208.0908,116.4297,212.0908,112.4297" style="stroke:#181818;stroke-width:1;"/><line style="stroke:#181818;stroke-width:1;" x1="23.9551" x2="214.0908" y1="112.4297" y2="112.4297"/><text fill="#000000" font-family="sans-serif" font-size="13" lengthAdjust="spacing" textLength="156.7554" x="30.9551" y="107.3638">Submit Order Validation</text></g><g class="message" data-participant-1="App" data-participant-2="OrderService"><polygon fill="#181818" points="335.0435,137.5625,345.0435,141.5625,335.0435,145.5625,339.0435,141.5625" style="stroke:#181818;stroke-width:1;"/><line style="stroke:#181818;stroke-width:1;" x1="220.0908" x2="341.0435" y1="141.5625" y2="141.5625"/><text fill="#000000" font-family="sans-serif" font-size="13" lengthAdjust="spacing" textLength="94.7007" x="227.0908" y="136.4966">Validate Order</text></g><g class="message" data-participant-1="OrderService" data-participant-2="App"><polygon fill="#181818" points="231.0908,166.6953,221.0908,170.6953,231.0908,174.6953,227.0908,170.6953" style="stroke:#181818;stroke-width:1;"/><line style="stroke:#181818;stroke-width:1;" x1="225.0908" x2="346.0435" y1="170.6953" y2="170.6953"/><text fill="#000000" font-family="sans-serif" font-size="13" lengthAdjust="spacing" textLength="102.9526" x="237.0908" y="165.6294">Order Validated</text></g><g class="message" data-participant-1="User" data-participant-2="App"><polygon fill="#181818" points="208.0908,195.8281,218.0908,199.8281,208.0908,203.8281,212.0908,199.8281" style="stroke:#181818;stroke-width:1;"/><line style="stroke:#181818;stroke-width:1;" x1="23.9551" x2="214.0908" y1="199.8281" y2="199.8281"/><text fill="#000000" font-family="sans-serif" font-size="13" lengthAdjust="spacing" textLength="172.1357" x="30.9551" y="194.7622">Submit Rating and Review</text></g><g class="message" data-participant-1="App" data-participant-2="ReviewService"><polygon fill="#181818" points="460.54,224.9609,470.54,228.9609,460.54,232.9609,464.54,228.9609" style="stroke:#181818;stroke-width:1;"/><line style="stroke:#181818;stroke-width:1;" x1="220.0908" x2="466.54" y1="228.9609" y2="228.9609"/><text fill="#000000" font-family="sans-serif" font-size="13" lengthAdjust="spacing" textLength="170.5552" x="227.0908" y="223.895">Accept Rating and Review</text></g><g class="message" data-participant-1="ReviewService" data-participant-2="ModQueue"><polygon fill="#181818" points="627.0195,254.0938,637.0195,258.0938,627.0195,262.0938,631.0195,258.0938" style="stroke:#181818;stroke-width:1;"/><line style="stroke:#181818;stroke-width:1;" x1="472.54" x2="633.0195" y1="258.0938" y2="258.0938"/><text fill="#000000" font-family="sans-serif" font-size="13" lengthAdjust="spacing" textLength="142.4795" x="479.54" y="253.0278">Queue for Moderation</text></g><g class="message" data-participant-1="ModQueue" data-participant-2="ReviewService"><polygon fill="#181818" points="483.54,283.2266,473.54,287.2266,483.54,291.2266,479.54,287.2266" style="stroke:#181818;stroke-width:1;"/><line style="stroke:#181818;stroke-width:1;" x1="477.54" x2="638.0195" y1="287.2266" y2="287.2266"/><text fill="#000000" font-family="sans-serif" font-size="13" lengthAdjust="spacing" textLength="140.4165" x="489.54" y="282.1606">Moderation Complete</text></g><g class="message" data-participant-1="ReviewService" data-participant-2="RatingService"><polygon fill="#181818" points="766.7075,312.3594,776.7075,316.3594,766.7075,320.3594,770.7075,316.3594" style="stroke:#181818;stroke-width:1;"/><line style="stroke:#181818;stroke-width:1;" x1="472.54" x2="772.7075" y1="316.3594" y2="316.3594"/><text fill="#000000" font-family="sans-serif" font-size="13" lengthAdjust="spacing" textLength="165.5977" x="479.54" y="311.2935">Update Aggregate Rating</text></g><g class="message" data-participant-1="RatingService" data-participant-2="App"><polygon fill="#181818" points="231.0908,341.4922,221.0908,345.4922,231.0908,349.4922,227.0908,345.4922" style="stroke:#181818;stroke-width:1;"/><line style="stroke:#181818;stroke-width:1;" x1="225.0908" x2="777.7075" y1="345.4922" y2="345.4922"/><text fill="#000000" font-family="sans-serif" font-size="13" lengthAdjust="spacing" textLength="173.8496" x="237.0908" y="340.4263">Aggregate Rating Updated</text></g><g class="message" data-participant-1="App" data-participant-2="User"><polygon fill="#181818" points="34.9551,370.625,24.9551,374.625,34.9551,378.625,30.9551,374.625" style="stroke:#181818;stroke-width:1;"/><line style="stroke:#181818;stroke-width:1;" x1="28.9551" x2="219.0908" y1="374.625" y2="374.625"/><text fill="#000000" font-family="sans-serif" font-size="13" lengthAdjust="spacing" textLength="84.335" x="40.9551" y="369.5591">Confirmation</text></g><!--SRC=[RL7BRiCW4Bpp5QlS-mCS8bazHrKR9NU2rzPADY22dTylJzUR-eIP6MPsnqe7w-7sH2-Sye4qEMK2d2xsGHD2vzm9r3ETdF_oFNguebz9OvPaf09S-uChuOk92tIeljZeem9P0zyBBaKVmNnvCuuoCtBZ33LZaHQ3ZtEQNy9rUSmKog1mLnFrEKP4Ccds2yZ6Ou75djmCcHFsnt5rI6NwkdNBOnr8wBH6ToHdklImbI5BGJ34F_ZNcX2DFmZPbVjfPpTXmF_-h4C9DvTxwCRHuvY-2Y-ORDlwNLQVntBgsgaZ6TFDG7xEe_m2]--></g></svg>