<svg xmlns="http://www.w3.org/2000/svg" xmlns:xlink="http://www.w3.org/1999/xlink" contentStyleType="text/css" data-diagram-type="ACTIVITY" height="558px" preserveAspectRatio="none" style="width:383px;height:558px;background:#FFFFFF;" version="1.1" viewBox="0 0 383 558" width="383px" zoomAndPan="magnify"><defs/><g><ellipse cx="178.0049" cy="20" fill="#222222" rx="10" ry="10" style="stroke:#222222;stroke-width:1;"/><rect fill="#F1F1F1" height="33.9688" rx="12.5" ry="12.5" style="stroke:#181818;stroke-width:0.5;" width="306.125" x="24.9424" y="50"/><text fill="#000000" font-family="sans-serif" font-size="12" lengthAdjust="spacing" textLength="286.125" x="34.9424" y="71.1387">Authenticate with Social Media API using OAuth</text><rect fill="#F1F1F1" height="33.9688" rx="12.5" ry="12.5" style="stroke:#181818;stroke-width:0.5;" width="334.0098" x="11" y="147.9688"/><text fill="#000000" font-family="sans-serif" font-size="12" lengthAdjust="spacing" textLength="314.0098" x="21" y="169.1074">Retrieve User Data (followers, engagement metrics)</text><rect fill="#F1F1F1" height="33.9688" rx="12.5" ry="12.5" style="stroke:#181818;stroke-width:0.5;" width="138.1836" x="108.9131" y="201.9375"/><text fill="#000000" font-family="sans-serif" font-size="12" lengthAdjust="spacing" textLength="118.1836" x="118.9131" y="223.0762">Check Data Validity</text><polygon fill="#F1F1F1" points="140.2891,255.9063,215.7207,255.9063,227.7207,267.9063,215.7207,279.9063,140.2891,279.9063,128.2891,267.9063,140.2891,255.9063" style="stroke:#181818;stroke-width:0.5;"/><text fill="#000000" font-family="sans-serif" font-size="11" lengthAdjust="spacing" textLength="75.4316" x="140.2891" y="271.7144">Is Data Valid?</text><text fill="#000000" font-family="sans-serif" font-size="11" lengthAdjust="spacing" textLength="19.0083" x="109.2808" y="265.312">yes</text><text fill="#000000" font-family="sans-serif" font-size="11" lengthAdjust="spacing" textLength="13.7017" x="227.7207" y="265.312">no</text><rect fill="#F1F1F1" height="33.9688" rx="12.5" ry="12.5" style="stroke:#181818;stroke-width:0.5;" width="165.8984" x="24.7852" y="289.9063"/><text fill="#000000" font-family="sans-serif" font-size="12" lengthAdjust="spacing" textLength="145.8984" x="34.7852" y="311.0449">Store in Cloud Database</text><rect fill="#F1F1F1" height="33.9688" rx="12.5" ry="12.5" style="stroke:#181818;stroke-width:0.5;" width="75.1836" x="210.6836" y="289.9063"/><text fill="#000000" font-family="sans-serif" font-size="12" lengthAdjust="spacing" textLength="55.1836" x="220.6836" y="311.0449">Log Error</text><rect fill="#F1F1F1" height="33.9688" rx="12.5" ry="12.5" style="stroke:#181818;stroke-width:0.5;" width="52.4609" x="222.0449" y="343.875"/><text fill="#000000" font-family="sans-serif" font-size="12" lengthAdjust="spacing" textLength="32.4609" x="232.0449" y="365.0137">Retry</text><polygon fill="#F1F1F1" points="178.0049,383.8438,190.0049,395.8438,178.0049,407.8438,166.0049,395.8438,178.0049,383.8438" style="stroke:#181818;stroke-width:0.5;"/><polygon fill="#F1F1F1" points="178.0049,103.9688,190.0049,115.9688,178.0049,127.9688,166.0049,115.9688,178.0049,103.9688" style="stroke:#181818;stroke-width:0.5;"/><polygon fill="#F1F1F1" points="146.4497,427.8438,209.5601,427.8438,221.5601,439.8438,209.5601,451.8438,146.4497,451.8438,134.4497,439.8438,146.4497,427.8438" style="stroke:#181818;stroke-width:0.5;"/><text fill="#000000" font-family="sans-serif" font-size="11" lengthAdjust="spacing" textLength="63.1104" x="146.4497" y="443.6519">More Data?</text><rect fill="#F1F1F1" height="33.9688" rx="12.5" ry="12.5" style="stroke:#181818;stroke-width:0.5;" width="156.5234" x="99.7432" y="471.8438"/><text fill="#000000" font-family="sans-serif" font-size="12" lengthAdjust="spacing" textLength="136.5234" x="109.7432" y="492.9824">Handle API Rate Limits</text><ellipse cx="178.0049" cy="536.8125" fill="none" rx="11" ry="11" style="stroke:#222222;stroke-width:1;"/><ellipse cx="178.0049" cy="536.8125" fill="#222222" rx="6" ry="6" style="stroke:#222222;stroke-width:1;"/><line style="stroke:#181818;stroke-width:1;" x1="178.0049" x2="178.0049" y1="30" y2="50"/><polygon fill="#181818" points="174.0049,40,178.0049,50,182.0049,40,178.0049,44" style="stroke:#181818;stroke-width:1;"/><line style="stroke:#181818;stroke-width:1;" x1="178.0049" x2="178.0049" y1="181.9375" y2="201.9375"/><polygon fill="#181818" points="174.0049,191.9375,178.0049,201.9375,182.0049,191.9375,178.0049,195.9375" style="stroke:#181818;stroke-width:1;"/><line style="stroke:#181818;stroke-width:1;" x1="248.2754" x2="248.2754" y1="323.875" y2="343.875"/><polygon fill="#181818" points="244.2754,333.875,248.2754,343.875,252.2754,333.875,248.2754,337.875" style="stroke:#181818;stroke-width:1;"/><line style="stroke:#181818;stroke-width:1;" x1="128.2891" x2="107.7344" y1="267.9063" y2="267.9063"/><line style="stroke:#181818;stroke-width:1;" x1="107.7344" x2="107.7344" y1="267.9063" y2="289.9063"/><polygon fill="#181818" points="103.7344,279.9063,107.7344,289.9063,111.7344,279.9063,107.7344,283.9063" style="stroke:#181818;stroke-width:1;"/><line style="stroke:#181818;stroke-width:1;" x1="227.7207" x2="248.2754" y1="267.9063" y2="267.9063"/><line style="stroke:#181818;stroke-width:1;" x1="248.2754" x2="248.2754" y1="267.9063" y2="289.9063"/><polygon fill="#181818" points="244.2754,279.9063,248.2754,289.9063,252.2754,279.9063,248.2754,283.9063" style="stroke:#181818;stroke-width:1;"/><line style="stroke:#181818;stroke-width:1;" x1="107.7344" x2="107.7344" y1="323.875" y2="395.8438"/><line style="stroke:#181818;stroke-width:1;" x1="107.7344" x2="166.0049" y1="395.8438" y2="395.8438"/><polygon fill="#181818" points="156.0049,391.8438,166.0049,395.8438,156.0049,399.8438,160.0049,395.8438" style="stroke:#181818;stroke-width:1;"/><line style="stroke:#181818;stroke-width:1;" x1="248.2754" x2="248.2754" y1="377.8438" y2="395.8438"/><line style="stroke:#181818;stroke-width:1;" x1="248.2754" x2="190.0049" y1="395.8438" y2="395.8438"/><polygon fill="#181818" points="200.0049,391.8438,190.0049,395.8438,200.0049,399.8438,196.0049,395.8438" style="stroke:#181818;stroke-width:1;"/><line style="stroke:#181818;stroke-width:1;" x1="178.0049" x2="178.0049" y1="235.9063" y2="255.9063"/><polygon fill="#181818" points="174.0049,245.9063,178.0049,255.9063,182.0049,245.9063,178.0049,249.9063" style="stroke:#181818;stroke-width:1;"/><line style="stroke:#181818;stroke-width:1;" x1="178.0049" x2="178.0049" y1="127.9688" y2="147.9688"/><polygon fill="#181818" points="174.0049,137.9688,178.0049,147.9688,182.0049,137.9688,178.0049,141.9688" style="stroke:#181818;stroke-width:1;"/><line style="stroke:#181818;stroke-width:1;" x1="221.5601" x2="357.0098" y1="439.8438" y2="439.8438"/><polygon fill="#181818" points="353.0098,280.4063,357.0098,270.4063,361.0098,280.4063,357.0098,276.4063" style="stroke:#181818;stroke-width:1;"/><line style="stroke:#181818;stroke-width:1;" x1="357.0098" x2="357.0098" y1="115.9688" y2="439.8438"/><line style="stroke:#181818;stroke-width:1;" x1="357.0098" x2="190.0049" y1="115.9688" y2="115.9688"/><polygon fill="#181818" points="200.0049,111.9688,190.0049,115.9688,200.0049,119.9688,196.0049,115.9688" style="stroke:#181818;stroke-width:1;"/><line style="stroke:#181818;stroke-width:1;" x1="178.0049" x2="178.0049" y1="407.8438" y2="427.8438"/><polygon fill="#181818" points="174.0049,417.8438,178.0049,427.8438,182.0049,417.8438,178.0049,421.8438" style="stroke:#181818;stroke-width:1;"/><line style="stroke:#181818;stroke-width:1;" x1="178.0049" x2="178.0049" y1="83.9688" y2="103.9688"/><polygon fill="#181818" points="174.0049,93.9688,178.0049,103.9688,182.0049,93.9688,178.0049,97.9688" style="stroke:#181818;stroke-width:1;"/><line style="stroke:#181818;stroke-width:1;" x1="178.0049" x2="178.0049" y1="451.8438" y2="471.8438"/><polygon fill="#181818" points="174.0049,461.8438,178.0049,471.8438,182.0049,461.8438,178.0049,465.8438" style="stroke:#181818;stroke-width:1;"/><line style="stroke:#181818;stroke-width:1;" x1="178.0049" x2="178.0049" y1="505.8125" y2="525.8125"/><polygon fill="#181818" points="174.0049,515.8125,178.0049,525.8125,182.0049,515.8125,178.0049,519.8125" style="stroke:#181818;stroke-width:1;"/><!--SRC=[JP31QiD034Jl_eevsj0li0yXf8K64beIshjgoxR8UZUiv9hyVQqaXnurl1bff4RPYdexsyZHf2LZB68ZpgaL2ZXo9uJjvnwpIXpmuMHJPBuoMG7K9xOi_CluKivu9IEKVGeXBPpr1Hm76dXQip4vsMhLk6qtSdjvuDyKf1ExkIuzoht-qpSL_3AKDzPg1LRhsL9cICGkfBcxip-ax7OEoYXZUfA7DE0jvvIRn-ottjTmxAH_bi0oIbXTHq_ri4rLrEyKkrNqtYT_oK4cCMqAjNJz0m00]--></g></svg>