<svg xmlns="http://www.w3.org/2000/svg" xmlns:xlink="http://www.w3.org/1999/xlink" contentStyleType="text/css" data-diagram-type="ACTIVITY" height="362px" preserveAspectRatio="none" style="width:324px;height:362px;background:#FFFFFF;" version="1.1" viewBox="0 0 324 362" width="324px" zoomAndPan="magnify"><defs/><g><ellipse cx="162.2305" cy="20" fill="#222222" rx="10" ry="10" style="stroke:#222222;stroke-width:1;"/><rect fill="#F1F1F1" height="33.9688" rx="12.5" ry="12.5" style="stroke:#181818;stroke-width:0.5;" width="132.2305" x="96.1152" y="50"/><text fill="#000000" font-family="sans-serif" font-size="12" lengthAdjust="spacing" textLength="112.2305" x="106.1152" y="71.1387">User selects locale</text><polygon fill="#F1F1F1" points="124.8826,103.9688,199.5784,103.9688,211.5784,115.9688,199.5784,127.9688,124.8826,127.9688,112.8826,115.9688,124.8826,103.9688" style="stroke:#181818;stroke-width:0.5;"/><text fill="#000000" font-family="sans-serif" font-size="11" lengthAdjust="spacing" textLength="74.6958" x="124.8826" y="119.7769">Is locale RTL?</text><text fill="#000000" font-family="sans-serif" font-size="11" lengthAdjust="spacing" textLength="19.0083" x="93.8743" y="113.3745">yes</text><text fill="#000000" font-family="sans-serif" font-size="11" lengthAdjust="spacing" textLength="13.7017" x="211.5784" y="113.3745">no</text><rect fill="#F1F1F1" height="33.9688" rx="12.5" ry="12.5" style="stroke:#181818;stroke-width:0.5;" width="141.2305" x="11" y="137.9688"/><text fill="#000000" font-family="sans-serif" font-size="12" lengthAdjust="spacing" textLength="121.2305" x="21" y="159.1074">App switches to RTL</text><rect fill="#F1F1F1" height="33.9688" rx="12.5" ry="12.5" style="stroke:#181818;stroke-width:0.5;" width="141.2305" x="172.2305" y="137.9688"/><text fill="#000000" font-family="sans-serif" font-size="12" lengthAdjust="spacing" textLength="121.2305" x="182.2305" y="159.1074">App switches to LTR</text><polygon fill="#F1F1F1" points="162.2305,177.9375,174.2305,189.9375,162.2305,201.9375,150.2305,189.9375,162.2305,177.9375" style="stroke:#181818;stroke-width:0.5;"/><rect fill="#F1F1F1" height="33.9688" rx="12.5" ry="12.5" style="stroke:#181818;stroke-width:0.5;" width="123.8633" x="100.2988" y="221.9375"/><text fill="#000000" font-family="sans-serif" font-size="12" lengthAdjust="spacing" textLength="103.8633" x="110.2988" y="243.0762">Reload resources</text><rect fill="#F1F1F1" height="33.9688" rx="12.5" ry="12.5" style="stroke:#181818;stroke-width:0.5;" width="129.3535" x="97.5537" y="275.9063"/><text fill="#000000" font-family="sans-serif" font-size="12" lengthAdjust="spacing" textLength="109.3535" x="107.5537" y="297.0449">Persist preference</text><ellipse cx="162.2305" cy="340.875" fill="none" rx="11" ry="11" style="stroke:#222222;stroke-width:1;"/><ellipse cx="162.2305" cy="340.875" fill="#222222" rx="6" ry="6" style="stroke:#222222;stroke-width:1;"/><line style="stroke:#181818;stroke-width:1;" x1="162.2305" x2="162.2305" y1="30" y2="50"/><polygon fill="#181818" points="158.2305,40,162.2305,50,166.2305,40,162.2305,44" style="stroke:#181818;stroke-width:1;"/><line style="stroke:#181818;stroke-width:1;" x1="112.8826" x2="81.6152" y1="115.9688" y2="115.9688"/><line style="stroke:#181818;stroke-width:1;" x1="81.6152" x2="81.6152" y1="115.9688" y2="137.9688"/><polygon fill="#181818" points="77.6152,127.9688,81.6152,137.9688,85.6152,127.9688,81.6152,131.9688" style="stroke:#181818;stroke-width:1;"/><line style="stroke:#181818;stroke-width:1;" x1="211.5784" x2="242.8457" y1="115.9688" y2="115.9688"/><line style="stroke:#181818;stroke-width:1;" x1="242.8457" x2="242.8457" y1="115.9688" y2="137.9688"/><polygon fill="#181818" points="238.8457,127.9688,242.8457,137.9688,246.8457,127.9688,242.8457,131.9688" style="stroke:#181818;stroke-width:1;"/><line style="stroke:#181818;stroke-width:1;" x1="81.6152" x2="81.6152" y1="171.9375" y2="189.9375"/><line style="stroke:#181818;stroke-width:1;" x1="81.6152" x2="150.2305" y1="189.9375" y2="189.9375"/><polygon fill="#181818" points="140.2305,185.9375,150.2305,189.9375,140.2305,193.9375,144.2305,189.9375" style="stroke:#181818;stroke-width:1;"/><line style="stroke:#181818;stroke-width:1;" x1="242.8457" x2="242.8457" y1="171.9375" y2="189.9375"/><line style="stroke:#181818;stroke-width:1;" x1="242.8457" x2="174.2305" y1="189.9375" y2="189.9375"/><polygon fill="#181818" points="184.2305,185.9375,174.2305,189.9375,184.2305,193.9375,180.2305,189.9375" style="stroke:#181818;stroke-width:1;"/><line style="stroke:#181818;stroke-width:1;" x1="162.2305" x2="162.2305" y1="83.9688" y2="103.9688"/><polygon fill="#181818" points="158.2305,93.9688,162.2305,103.9688,166.2305,93.9688,162.2305,97.9688" style="stroke:#181818;stroke-width:1;"/><line style="stroke:#181818;stroke-width:1;" x1="162.2305" x2="162.2305" y1="201.9375" y2="221.9375"/><polygon fill="#181818" points="158.2305,211.9375,162.2305,221.9375,166.2305,211.9375,162.2305,215.9375" style="stroke:#181818;stroke-width:1;"/><line style="stroke:#181818;stroke-width:1;" x1="162.2305" x2="162.2305" y1="255.9063" y2="275.9063"/><polygon fill="#181818" points="158.2305,265.9063,162.2305,275.9063,166.2305,265.9063,162.2305,269.9063" style="stroke:#181818;stroke-width:1;"/><line style="stroke:#181818;stroke-width:1;" x1="162.2305" x2="162.2305" y1="309.875" y2="329.875"/><polygon fill="#181818" points="158.2305,319.875,162.2305,329.875,166.2305,319.875,162.2305,323.875" style="stroke:#181818;stroke-width:1;"/><!--SRC=[RSun2iCm44JHVaynfNq5kGWf0ow2S0vWv34M24diRWYvVPmYNSg11_FDLtMHy30gZ8N93QMbjN2Il6Eu_IRYCbz6-C6AuKqR1GZNtc6lxEcWmTlNJC9Yn53RNp4lyHHro_lv6bdQka5fxQc9DacuKosReojtAciwEyIyzGy0]--></g></svg>