<svg xmlns="http://www.w3.org/2000/svg" xmlns:xlink="http://www.w3.org/1999/xlink" contentStyleType="text/css" data-diagram-type="ACTIVITY" height="352px" preserveAspectRatio="none" style="width:212px;height:352px;background:#FFFFFF;" version="1.1" viewBox="0 0 212 352" width="212px" zoomAndPan="magnify"><defs/><g><ellipse cx="106.21" cy="20" fill="#222222" rx="10" ry="10" style="stroke:#222222;stroke-width:1;"/><rect fill="#F1F1F1" height="33.9688" rx="12.5" ry="12.5" style="stroke:#181818;stroke-width:0.5;" width="131.0527" x="40.6836" y="50"/><text fill="#000000" font-family="sans-serif" font-size="12" lengthAdjust="spacing" textLength="111.0527" x="50.6836" y="71.1387">User selects filters</text><rect fill="#F1F1F1" height="33.9688" rx="12.5" ry="12.5" style="stroke:#181818;stroke-width:0.5;" width="182.5566" x="14.9316" y="103.9688"/><text fill="#000000" font-family="sans-serif" font-size="12" lengthAdjust="spacing" textLength="162.5566" x="24.9316" y="125.1074">System queries warehouse</text><rect fill="#F1F1F1" height="33.9688" rx="12.5" ry="12.5" style="stroke:#181818;stroke-width:0.5;" width="155.9316" x="28.2441" y="157.9375"/><text fill="#000000" font-family="sans-serif" font-size="12" lengthAdjust="spacing" textLength="135.9316" x="38.2441" y="179.0762">System renders charts</text><rect fill="#F1F1F1" height="33.9688" rx="12.5" ry="12.5" style="stroke:#181818;stroke-width:0.5;" width="131.8145" x="40.3027" y="211.9063"/><text fill="#000000" font-family="sans-serif" font-size="12" lengthAdjust="spacing" textLength="111.8145" x="50.3027" y="233.0449">User drills to posts</text><rect fill="#F1F1F1" height="33.9688" rx="12.5" ry="12.5" style="stroke:#181818;stroke-width:0.5;" width="190.4199" x="11" y="265.875"/><text fill="#000000" font-family="sans-serif" font-size="12" lengthAdjust="spacing" textLength="170.4199" x="21" y="287.0137">System returns post metrics</text><ellipse cx="106.21" cy="330.8438" fill="none" rx="11" ry="11" style="stroke:#222222;stroke-width:1;"/><ellipse cx="106.21" cy="330.8438" fill="#222222" rx="6" ry="6" style="stroke:#222222;stroke-width:1;"/><line style="stroke:#181818;stroke-width:1;" x1="106.21" x2="106.21" y1="30" y2="50"/><polygon fill="#181818" points="102.21,40,106.21,50,110.21,40,106.21,44" style="stroke:#181818;stroke-width:1;"/><line style="stroke:#181818;stroke-width:1;" x1="106.21" x2="106.21" y1="83.9688" y2="103.9688"/><polygon fill="#181818" points="102.21,93.9688,106.21,103.9688,110.21,93.9688,106.21,97.9688" style="stroke:#181818;stroke-width:1;"/><line style="stroke:#181818;stroke-width:1;" x1="106.21" x2="106.21" y1="137.9375" y2="157.9375"/><polygon fill="#181818" points="102.21,147.9375,106.21,157.9375,110.21,147.9375,106.21,151.9375" style="stroke:#181818;stroke-width:1;"/><line style="stroke:#181818;stroke-width:1;" x1="106.21" x2="106.21" y1="191.9063" y2="211.9063"/><polygon fill="#181818" points="102.21,201.9063,106.21,211.9063,110.21,201.9063,106.21,205.9063" style="stroke:#181818;stroke-width:1;"/><line style="stroke:#181818;stroke-width:1;" x1="106.21" x2="106.21" y1="245.875" y2="265.875"/><polygon fill="#181818" points="102.21,255.875,106.21,265.875,110.21,255.875,106.21,259.875" style="stroke:#181818;stroke-width:1;"/><line style="stroke:#181818;stroke-width:1;" x1="106.21" x2="106.21" y1="299.8438" y2="319.8438"/><polygon fill="#181818" points="102.21,309.8438,106.21,319.8438,110.21,309.8438,106.21,313.8438" style="stroke:#181818;stroke-width:1;"/><!--SRC=[NOnD2eCm58JtESMxG2zGePSe7a3Y50FHs3SJfBStY5te-lkX1bS8pvvm8pAYQ9-K1MSN7g-6tZyAitqhF86s3OwfLEAA7SlO6ejJ6_xJupfwofccOckXUCzKVU61R8OynTEWohe3]--></g></svg>