<svg xmlns="http://www.w3.org/2000/svg" xmlns:xlink="http://www.w3.org/1999/xlink" contentStyleType="text/css" data-diagram-type="SEQUENCE" height="340px" preserveAspectRatio="none" style="width:412px;height:340px;background:#FFFFFF;" version="1.1" viewBox="0 0 412 340" width="412px" zoomAndPan="magnify"><defs/><g><g><title>User</title><rect fill="#000000" fill-opacity="0.00000" height="178.6641" width="8" x="19.9551" y="81.2969"/><line style="stroke:#181818;stroke-width:0.5;stroke-dasharray:5,5;" x1="23" x2="23" y1="81.2969" y2="259.9609"/></g><g><title>Social Data</title><rect fill="#000000" fill-opacity="0.00000" height="178.6641" width="8" x="132.5176" y="81.2969"/><line style="stroke:#181818;stroke-width:0.5;stroke-dasharray:5,5;" x1="135.8247" x2="135.8247" y1="81.2969" y2="259.9609"/></g><g><title>NLP Engine</title><rect fill="#000000" fill-opacity="0.00000" height="178.6641" width="8" x="235.7837" y="81.2969"/><line style="stroke:#181818;stroke-width:0.5;stroke-dasharray:5,5;" x1="239.2104" x2="239.2104" y1="81.2969" y2="259.9609"/></g><g><title>Reports</title><rect fill="#000000" fill-opacity="0.00000" height="178.6641" width="8" x="368.3096" y="81.2969"/><line style="stroke:#181818;stroke-width:0.5;stroke-dasharray:5,5;" x1="372.1436" x2="372.1436" y1="81.2969" y2="259.9609"/></g><g class="participant participant-head" data-participant="User"><text fill="#000000" font-family="sans-serif" font-size="14" lengthAdjust="spacing" textLength="31.9102" x="5" y="77.9951">User</text><ellipse cx="23.9551" cy="13.5" fill="#E2E2F0" rx="8" ry="8" style="stroke:#181818;stroke-width:0.5;"/><path d="M23.9551,21.5 L23.9551,48.5 M10.9551,29.5 L36.9551,29.5 M23.9551,48.5 L10.9551,63.5 M23.9551,48.5 L36.9551,63.5" fill="none" style="stroke:#181818;stroke-width:0.5;"/></g><g class="participant participant-tail" data-participant="User"><text fill="#000000" font-family="sans-serif" font-size="14" lengthAdjust="spacing" textLength="31.9102" x="5" y="271.9561">User</text><ellipse cx="23.9551" cy="283.7578" fill="#E2E2F0" rx="8" ry="8" style="stroke:#181818;stroke-width:0.5;"/><path d="M23.9551,291.7578 L23.9551,318.7578 M10.9551,299.7578 L36.9551,299.7578 M23.9551,318.7578 L10.9551,333.7578 M23.9551,318.7578 L36.9551,333.7578" fill="none" style="stroke:#181818;stroke-width:0.5;"/></g><g class="participant participant-head" data-participant="SD"><rect fill="#E2E2F0" height="30.2969" rx="2.5" ry="2.5" style="stroke:#181818;stroke-width:0.5;" width="93.3857" x="89.8247" y="50"/><text fill="#000000" font-family="sans-serif" font-size="14" lengthAdjust="spacing" textLength="79.3857" x="96.8247" y="69.9951">Social Data</text></g><g class="participant participant-tail" data-participant="SD"><rect fill="#E2E2F0" height="30.2969" rx="2.5" ry="2.5" style="stroke:#181818;stroke-width:0.5;" width="93.3857" x="89.8247" y="258.9609"/><text fill="#000000" font-family="sans-serif" font-size="14" lengthAdjust="spacing" textLength="79.3857" x="96.8247" y="278.9561">Social Data</text></g><g class="participant participant-head" data-participant="NLP"><rect fill="#E2E2F0" height="30.2969" rx="2.5" ry="2.5" style="stroke:#181818;stroke-width:0.5;" width="93.1465" x="193.2104" y="50"/><text fill="#000000" font-family="sans-serif" font-size="14" lengthAdjust="spacing" textLength="79.1465" x="200.2104" y="69.9951">NLP Engine</text></g><g class="participant participant-tail" data-participant="NLP"><rect fill="#E2E2F0" height="30.2969" rx="2.5" ry="2.5" style="stroke:#181818;stroke-width:0.5;" width="93.1465" x="193.2104" y="258.9609"/><text fill="#000000" font-family="sans-serif" font-size="14" lengthAdjust="spacing" textLength="79.1465" x="200.2104" y="278.9561">NLP Engine</text></g><g class="participant participant-head" data-participant="R"><rect fill="#E2E2F0" height="30.2969" rx="2.5" ry="2.5" style="stroke:#181818;stroke-width:0.5;" width="68.332" x="338.1436" y="50"/><text fill="#000000" font-family="sans-serif" font-size="14" lengthAdjust="spacing" textLength="54.332" x="345.1436" y="69.9951">Reports</text></g><g class="participant participant-tail" data-participant="R"><rect fill="#E2E2F0" height="30.2969" rx="2.5" ry="2.5" style="stroke:#181818;stroke-width:0.5;" width="68.332" x="338.1436" y="258.9609"/><text fill="#000000" font-family="sans-serif" font-size="14" lengthAdjust="spacing" textLength="54.332" x="345.1436" y="278.9561">Reports</text></g><g class="message" data-participant-1="User" data-participant-2="SD"><polygon fill="#181818" points="124.5176,108.4297,134.5176,112.4297,124.5176,116.4297,128.5176,112.4297" style="stroke:#181818;stroke-width:1;"/><line style="stroke:#181818;stroke-width:1;" x1="23.9551" x2="130.5176" y1="112.4297" y2="112.4297"/><text fill="#000000" font-family="sans-serif" font-size="13" lengthAdjust="spacing" textLength="88.5625" x="30.9551" y="107.3638">Request Data</text></g><g class="message" data-participant-1="SD" data-participant-2="NLP"><polygon fill="#181818" points="227.7837,137.5625,237.7837,141.5625,227.7837,145.5625,231.7837,141.5625" style="stroke:#181818;stroke-width:1;"/><line style="stroke:#181818;stroke-width:1;" x1="136.5176" x2="233.7837" y1="141.5625" y2="141.5625"/><text fill="#000000" font-family="sans-serif" font-size="13" lengthAdjust="spacing" textLength="67.9136" x="143.5176" y="136.4966">Send Data</text></g><g class="message" data-participant-1="NLP" data-participant-2="NLP"><line style="stroke:#181818;stroke-width:1;" x1="239.7837" x2="281.7837" y1="170.6953" y2="170.6953"/><line style="stroke:#181818;stroke-width:1;" x1="281.7837" x2="281.7837" y1="170.6953" y2="183.6953"/><line style="stroke:#181818;stroke-width:1;" x1="240.7837" x2="281.7837" y1="183.6953" y2="183.6953"/><polygon fill="#181818" points="250.7837,179.6953,240.7837,183.6953,250.7837,187.6953,246.7837,183.6953" style="stroke:#181818;stroke-width:1;"/><text fill="#000000" font-family="sans-serif" font-size="13" lengthAdjust="spacing" textLength="85.0015" x="246.7837" y="165.6294">Process Data</text></g><g class="message" data-participant-1="NLP" data-participant-2="R"><polygon fill="#181818" points="360.3096,208.8281,370.3096,212.8281,360.3096,216.8281,364.3096,212.8281" style="stroke:#181818;stroke-width:1;"/><line style="stroke:#181818;stroke-width:1;" x1="239.7837" x2="366.3096" y1="212.8281" y2="212.8281"/><text fill="#000000" font-family="sans-serif" font-size="13" lengthAdjust="spacing" textLength="108.5259" x="246.7837" y="207.7622">Generate Report</text></g><g class="message" data-participant-1="R" data-participant-2="User"><polygon fill="#181818" points="34.9551,237.9609,24.9551,241.9609,34.9551,245.9609,30.9551,241.9609" style="stroke:#181818;stroke-width:1;"/><line style="stroke:#181818;stroke-width:1;" x1="28.9551" x2="371.3096" y1="241.9609" y2="241.9609"/><text fill="#000000" font-family="sans-serif" font-size="13" lengthAdjust="spacing" textLength="94.0786" x="40.9551" y="236.895">Deliver Report</text></g><!--SRC=[LOr13W8X34NtdAAPlHTWuGhZnfW9n0Cqs1YI2M1RFVy0emkMVI_z3wCMXeSG6rEHDSLKCIiieSI46pXKN005Wflz_RR29RzIfg7RENjFjR3AaDwONe3JkSrOyFJ-aEZODi5rtDuj1ChF0_RnFrsvH1APXBTmfKoCId24ZE-yLomusjAtvNvc1m00]--></g></svg>