<svg xmlns="http://www.w3.org/2000/svg" xmlns:xlink="http://www.w3.org/1999/xlink" contentStyleType="text/css" data-diagram-type="ACTIVITY" height="438px" preserveAspectRatio="none" style="width:194px;height:438px;background:#FFFFFF;" version="1.1" viewBox="0 0 194 438" width="194px" zoomAndPan="magnify"><defs/><g><ellipse cx="97.2949" cy="20" fill="#222222" rx="10" ry="10" style="stroke:#222222;stroke-width:1;"/><rect fill="#F1F1F1" height="33.9688" rx="12.5" ry="12.5" style="stroke:#181818;stroke-width:0.5;" width="152.7734" x="20.9082" y="50"/><text fill="#000000" font-family="sans-serif" font-size="12" lengthAdjust="spacing" textLength="132.7734" x="30.9082" y="71.1387">Scheduler triggers job</text><rect fill="#F1F1F1" height="33.9688" rx="12.5" ry="12.5" style="stroke:#181818;stroke-width:0.5;" width="172.5898" x="11" y="125.3677"/><text fill="#000000" font-family="sans-serif" font-size="12" lengthAdjust="spacing" textLength="152.5898" x="21" y="146.5063">API Gateway calls Etimad</text><rect fill="#F1F1F1" height="33.9688" rx="12.5" ry="12.5" style="stroke:#181818;stroke-width:0.5;" width="108.2656" x="43.1621" y="200.7354"/><text fill="#000000" font-family="sans-serif" font-size="12" lengthAdjust="spacing" textLength="88.2656" x="53.1621" y="221.874">Data validated</text><rect fill="#F1F1F1" height="33.9688" rx="12.5" ry="12.5" style="stroke:#181818;stroke-width:0.5;" width="141.4355" x="26.5771" y="276.103"/><text fill="#000000" font-family="sans-serif" font-size="12" lengthAdjust="spacing" textLength="121.4355" x="36.5771" y="297.2417">Warehouse updated</text><rect fill="#F1F1F1" height="33.9688" rx="12.5" ry="12.5" style="stroke:#181818;stroke-width:0.5;" width="123.7402" x="35.4248" y="351.4707"/><text fill="#000000" font-family="sans-serif" font-size="12" lengthAdjust="spacing" textLength="103.7402" x="45.4248" y="372.6094">Email status sent</text><ellipse cx="97.2949" cy="416.4395" fill="none" rx="11" ry="11" style="stroke:#222222;stroke-width:1;"/><ellipse cx="97.2949" cy="416.4395" fill="#222222" rx="6" ry="6" style="stroke:#222222;stroke-width:1;"/><line style="stroke:#181818;stroke-width:1;" x1="97.2949" x2="97.2949" y1="30" y2="50"/><polygon fill="#181818" points="93.2949,40,97.2949,50,101.2949,40,97.2949,44" style="stroke:#181818;stroke-width:1;"/><line style="stroke:#181818;stroke-width:1;" x1="97.2949" x2="97.2949" y1="83.9688" y2="125.3677"/><polygon fill="#181818" points="93.2949,115.3677,97.2949,125.3677,101.2949,115.3677,97.2949,119.3677" style="stroke:#181818;stroke-width:1;"/><text fill="#000000" font-family="sans-serif" font-size="11" lengthAdjust="spacing" textLength="69.4912" x="101.2949" y="105.2734">API Gateway</text><line style="stroke:#181818;stroke-width:1;" x1="97.2949" x2="97.2949" y1="159.3364" y2="200.7354"/><polygon fill="#181818" points="93.2949,190.7354,97.2949,200.7354,101.2949,190.7354,97.2949,194.7354" style="stroke:#181818;stroke-width:1;"/><text fill="#000000" font-family="sans-serif" font-size="11" lengthAdjust="spacing" textLength="38.7578" x="101.2949" y="180.6411">Etimad</text><line style="stroke:#181818;stroke-width:1;" x1="97.2949" x2="97.2949" y1="234.7041" y2="276.103"/><polygon fill="#181818" points="93.2949,266.103,97.2949,276.103,101.2949,266.103,97.2949,270.103" style="stroke:#181818;stroke-width:1;"/><text fill="#000000" font-family="sans-serif" font-size="11" lengthAdjust="spacing" textLength="62.0791" x="101.2949" y="256.0088">Warehouse</text><line style="stroke:#181818;stroke-width:1;" x1="97.2949" x2="97.2949" y1="310.0718" y2="351.4707"/><polygon fill="#181818" points="93.2949,341.4707,97.2949,351.4707,101.2949,341.4707,97.2949,345.4707" style="stroke:#181818;stroke-width:1;"/><text fill="#000000" font-family="sans-serif" font-size="11" lengthAdjust="spacing" textLength="74.6689" x="101.2949" y="331.3765">Email Service</text><line style="stroke:#181818;stroke-width:1;" x1="97.2949" x2="97.2949" y1="385.4395" y2="405.4395"/><polygon fill="#181818" points="93.2949,395.4395,97.2949,405.4395,101.2949,395.4395,97.2949,399.4395" style="stroke:#181818;stroke-width:1;"/><!--SRC=[JOfB2i8m443tSugvW1T8G10iuaxemlMO36qaDMLcKl7sRIr-Tk_ndXg90RWsz1nhPa6Jr7KiYlToyx3Ru-5onXCPF-dbmVqP1ifPiR4qK7ol7tH7CiA9SehBkhKh2VUbAY_vorZ7tz4Cb3AsB5CAwxMv6bbLL7wO1r0humm0]--></g></svg>