<svg xmlns="http://www.w3.org/2000/svg" xmlns:xlink="http://www.w3.org/1999/xlink" contentStyleType="text/css" data-diagram-type="ACTIVITY" height="480px" preserveAspectRatio="none" style="width:552px;height:480px;background:#FFFFFF;" version="1.1" viewBox="0 0 552 480" width="552px" zoomAndPan="magnify"><defs/><g><ellipse cx="345.3562" cy="20" fill="#222222" rx="10" ry="10" style="stroke:#222222;stroke-width:1;"/><rect fill="#F1F1F1" height="33.9688" rx="12.5" ry="12.5" style="stroke:#181818;stroke-width:0.5;" width="204.0371" x="243.3376" y="50"/><text fill="#000000" font-family="sans-serif" font-size="12" lengthAdjust="spacing" textLength="184.0371" x="253.3376" y="71.1387">Poll Delivery Service for status</text><polygon fill="#F1F1F1" points="299.4521,103.9688,391.2603,103.9688,403.2603,115.9688,391.2603,127.9688,299.4521,127.9688,287.4521,115.9688,299.4521,103.9688" style="stroke:#181818;stroke-width:0.5;"/><text fill="#000000" font-family="sans-serif" font-size="11" lengthAdjust="spacing" textLength="91.8081" x="299.4521" y="119.7769">Status received?</text><text fill="#000000" font-family="sans-serif" font-size="11" lengthAdjust="spacing" textLength="19.0083" x="268.4438" y="113.3745">yes</text><text fill="#000000" font-family="sans-serif" font-size="11" lengthAdjust="spacing" textLength="13.7017" x="403.2603" y="113.3745">no</text><rect fill="#F1F1F1" height="33.9688" rx="12.5" ry="12.5" style="stroke:#181818;stroke-width:0.5;" width="192.5117" x="121.0835" y="137.9688"/><text fill="#000000" font-family="sans-serif" font-size="12" lengthAdjust="spacing" textLength="172.5117" x="131.0835" y="159.1074">Update map with new status</text><rect fill="#F1F1F1" height="33.9688" rx="12.5" ry="12.5" style="stroke:#181818;stroke-width:0.5;" width="237.2598" x="98.7095" y="191.9375"/><text fill="#000000" font-family="sans-serif" font-size="12" lengthAdjust="spacing" textLength="217.2598" x="108.7095" y="213.0762">Poll Delivery Service for courier GPS</text><polygon fill="#F1F1F1" points="177.8914,245.9063,256.7874,245.9063,268.7874,257.9063,256.7874,269.9063,177.8914,269.9063,165.8914,257.9063,177.8914,245.9063" style="stroke:#181818;stroke-width:0.5;"/><text fill="#000000" font-family="sans-serif" font-size="11" lengthAdjust="spacing" textLength="78.896" x="177.8914" y="261.7144">GPS received?</text><text fill="#000000" font-family="sans-serif" font-size="11" lengthAdjust="spacing" textLength="19.0083" x="146.8831" y="255.312">yes</text><text fill="#000000" font-family="sans-serif" font-size="11" lengthAdjust="spacing" textLength="13.7017" x="268.7874" y="255.312">no</text><rect fill="#F1F1F1" height="33.9688" rx="12.5" ry="12.5" style="stroke:#181818;stroke-width:0.5;" width="220.5781" x="11" y="279.9063"/><text fill="#000000" font-family="sans-serif" font-size="12" lengthAdjust="spacing" textLength="200.5781" x="21" y="301.0449">Update map with courier location</text><rect fill="#F1F1F1" height="33.9688" rx="12.5" ry="12.5" style="stroke:#181818;stroke-width:0.5;" width="172.0977" x="35.2402" y="333.875"/><text fill="#000000" font-family="sans-serif" font-size="12" lengthAdjust="spacing" textLength="152.0977" x="45.2402" y="355.0137">Push notifications to user</text><rect fill="#F1F1F1" height="33.9688" rx="12.5" ry="12.5" style="stroke:#181818;stroke-width:0.5;" width="123.623" x="251.5781" y="279.9063"/><text fill="#000000" font-family="sans-serif" font-size="12" lengthAdjust="spacing" textLength="103.623" x="261.5781" y="301.0449">Handle GPS error</text><polygon fill="#F1F1F1" points="217.3394,373.8438,229.3394,385.8438,217.3394,397.8438,205.3394,385.8438,217.3394,373.8438" style="stroke:#181818;stroke-width:0.5;"/><rect fill="#F1F1F1" height="33.9688" rx="12.5" ry="12.5" style="stroke:#181818;stroke-width:0.5;" width="136.3438" x="405.2012" y="137.9688"/><text fill="#000000" font-family="sans-serif" font-size="12" lengthAdjust="spacing" textLength="116.3438" x="415.2012" y="159.1074">Handle status error</text><polygon fill="#F1F1F1" points="345.3562,403.8438,357.3562,415.8438,345.3562,427.8438,333.3562,415.8438,345.3562,403.8438" style="stroke:#181818;stroke-width:0.5;"/><ellipse cx="345.3562" cy="458.8438" fill="none" rx="11" ry="11" style="stroke:#222222;stroke-width:1;"/><ellipse cx="345.3562" cy="458.8438" fill="#222222" rx="6" ry="6" style="stroke:#222222;stroke-width:1;"/><line style="stroke:#181818;stroke-width:1;" x1="345.3562" x2="345.3562" y1="30" y2="50"/><polygon fill="#181818" points="341.3562,40,345.3562,50,349.3562,40,345.3562,44" style="stroke:#181818;stroke-width:1;"/><line style="stroke:#181818;stroke-width:1;" x1="217.3394" x2="217.3394" y1="171.9375" y2="191.9375"/><polygon fill="#181818" points="213.3394,181.9375,217.3394,191.9375,221.3394,181.9375,217.3394,185.9375" style="stroke:#181818;stroke-width:1;"/><line style="stroke:#181818;stroke-width:1;" x1="121.2891" x2="121.2891" y1="313.875" y2="333.875"/><polygon fill="#181818" points="117.2891,323.875,121.2891,333.875,125.2891,323.875,121.2891,327.875" style="stroke:#181818;stroke-width:1;"/><line style="stroke:#181818;stroke-width:1;" x1="165.8914" x2="121.2891" y1="257.9063" y2="257.9063"/><line style="stroke:#181818;stroke-width:1;" x1="121.2891" x2="121.2891" y1="257.9063" y2="279.9063"/><polygon fill="#181818" points="117.2891,269.9063,121.2891,279.9063,125.2891,269.9063,121.2891,273.9063" style="stroke:#181818;stroke-width:1;"/><line style="stroke:#181818;stroke-width:1;" x1="268.7874" x2="313.3896" y1="257.9063" y2="257.9063"/><line style="stroke:#181818;stroke-width:1;" x1="313.3896" x2="313.3896" y1="257.9063" y2="279.9063"/><polygon fill="#181818" points="309.3896,269.9063,313.3896,279.9063,317.3896,269.9063,313.3896,273.9063" style="stroke:#181818;stroke-width:1;"/><line style="stroke:#181818;stroke-width:1;" x1="121.2891" x2="121.2891" y1="367.8438" y2="385.8438"/><line style="stroke:#181818;stroke-width:1;" x1="121.2891" x2="205.3394" y1="385.8438" y2="385.8438"/><polygon fill="#181818" points="195.3394,381.8438,205.3394,385.8438,195.3394,389.8438,199.3394,385.8438" style="stroke:#181818;stroke-width:1;"/><line style="stroke:#181818;stroke-width:1;" x1="313.3896" x2="313.3896" y1="313.875" y2="385.8438"/><line style="stroke:#181818;stroke-width:1;" x1="313.3896" x2="229.3394" y1="385.8438" y2="385.8438"/><polygon fill="#181818" points="239.3394,381.8438,229.3394,385.8438,239.3394,389.8438,235.3394,385.8438" style="stroke:#181818;stroke-width:1;"/><line style="stroke:#181818;stroke-width:1;" x1="217.3394" x2="217.3394" y1="225.9063" y2="245.9063"/><polygon fill="#181818" points="213.3394,235.9063,217.3394,245.9063,221.3394,235.9063,217.3394,239.9063" style="stroke:#181818;stroke-width:1;"/><line style="stroke:#181818;stroke-width:1;" x1="287.4521" x2="217.3394" y1="115.9688" y2="115.9688"/><line style="stroke:#181818;stroke-width:1;" x1="217.3394" x2="217.3394" y1="115.9688" y2="137.9688"/><polygon fill="#181818" points="213.3394,127.9688,217.3394,137.9688,221.3394,127.9688,217.3394,131.9688" style="stroke:#181818;stroke-width:1;"/><line style="stroke:#181818;stroke-width:1;" x1="403.2603" x2="473.373" y1="115.9688" y2="115.9688"/><line style="stroke:#181818;stroke-width:1;" x1="473.373" x2="473.373" y1="115.9688" y2="137.9688"/><polygon fill="#181818" points="469.373,127.9688,473.373,137.9688,477.373,127.9688,473.373,131.9688" style="stroke:#181818;stroke-width:1;"/><line style="stroke:#181818;stroke-width:1;" x1="217.3394" x2="217.3394" y1="397.8438" y2="415.8438"/><line style="stroke:#181818;stroke-width:1;" x1="217.3394" x2="333.3562" y1="415.8438" y2="415.8438"/><polygon fill="#181818" points="323.3562,411.8438,333.3562,415.8438,323.3562,419.8438,327.3562,415.8438" style="stroke:#181818;stroke-width:1;"/><line style="stroke:#181818;stroke-width:1;" x1="473.373" x2="473.373" y1="171.9375" y2="415.8438"/><line style="stroke:#181818;stroke-width:1;" x1="473.373" x2="357.3562" y1="415.8438" y2="415.8438"/><polygon fill="#181818" points="367.3562,411.8438,357.3562,415.8438,367.3562,419.8438,363.3562,415.8438" style="stroke:#181818;stroke-width:1;"/><line style="stroke:#181818;stroke-width:1;" x1="345.3562" x2="345.3562" y1="83.9688" y2="103.9688"/><polygon fill="#181818" points="341.3562,93.9688,345.3562,103.9688,349.3562,93.9688,345.3562,97.9688" style="stroke:#181818;stroke-width:1;"/><line style="stroke:#181818;stroke-width:1;" x1="345.3562" x2="345.3562" y1="427.8438" y2="447.8438"/><polygon fill="#181818" points="341.3562,437.8438,345.3562,447.8438,349.3562,437.8438,345.3562,441.8438" style="stroke:#181818;stroke-width:1;"/><!--SRC=[TSyn3i8m30NGFQVuOti565YGOAnKSO2eTOMb45Us2-Bsj8GY1hfPzek_OnxLGzWraXAEbFXE-aHBUkUEC8Z2FFfa-y03glPTGwcZ6VQ76dwbZEf9LWTWTndxw8HR7F5WloBJu_j-7c-7T38fa-BKj8jSikPoC-XFrBeXIHUT9UyBQoQRpn3dWKlVu8B9I1T0oGXLbi_ESynzekK8aAeKadiUmYzSMVdOAeiBvZA-0000]--></g></svg>