<svg xmlns="http://www.w3.org/2000/svg" xmlns:xlink="http://www.w3.org/1999/xlink" contentStyleType="text/css" data-diagram-type="ACTIVITY" height="602px" preserveAspectRatio="none" style="width:312px;height:602px;background:#FFFFFF;" version="1.1" viewBox="0 0 312 602" width="312px" zoomAndPan="magnify"><defs/><g><ellipse cx="142.5879" cy="20" fill="#222222" rx="10" ry="10" style="stroke:#222222;stroke-width:1;"/><rect fill="#F1F1F1" height="33.9688" rx="12.5" ry="12.5" style="stroke:#181818;stroke-width:0.5;" width="225.9629" x="29.6064" y="50"/><text fill="#000000" font-family="sans-serif" font-size="12" lengthAdjust="spacing" textLength="205.9629" x="39.6064" y="71.1387">Fetch Data from Social Media APIs</text><rect fill="#F1F1F1" height="33.9688" rx="12.5" ry="12.5" style="stroke:#181818;stroke-width:0.5;" width="166.1504" x="59.5127" y="147.9688"/><text fill="#000000" font-family="sans-serif" font-size="12" lengthAdjust="spacing" textLength="146.1504" x="69.5127" y="169.1074">Process Data for Metrics</text><rect fill="#F1F1F1" height="33.9688" rx="12.5" ry="12.5" style="stroke:#181818;stroke-width:0.5;" width="263.1758" x="11" y="201.9375"/><text fill="#000000" font-family="sans-serif" font-size="12" lengthAdjust="spacing" textLength="243.1758" x="21" y="223.0762">Store Processed Data in Cloud Database</text><rect fill="#F1F1F1" height="33.9688" rx="12.5" ry="12.5" style="stroke:#181818;stroke-width:0.5;" width="75.1836" x="104.9961" y="304.3086"/><text fill="#000000" font-family="sans-serif" font-size="12" lengthAdjust="spacing" textLength="55.1836" x="114.9961" y="325.4473">Log Error</text><rect fill="#F1F1F1" height="33.9688" rx="12.5" ry="12.5" style="stroke:#181818;stroke-width:0.5;" width="140.4922" x="72.3418" y="373.2773"/><text fill="#000000" font-family="sans-serif" font-size="12" lengthAdjust="spacing" textLength="120.4922" x="82.3418" y="394.416">Retry Fetching Data</text><polygon fill="#F1F1F1" points="85.6973,255.9063,199.4785,255.9063,211.4785,267.9063,199.4785,279.9063,85.6973,279.9063,73.6973,267.9063,85.6973,255.9063" style="stroke:#181818;stroke-width:0.5;"/><text fill="#000000" font-family="sans-serif" font-size="11" lengthAdjust="spacing" textLength="19.0083" x="146.5879" y="290.1167">yes</text><text fill="#000000" font-family="sans-serif" font-size="11" lengthAdjust="spacing" textLength="113.7813" x="85.6973" y="271.7144">Error Fetching Data?</text><polygon fill="#F1F1F1" points="142.5879,427.2461,154.5879,439.2461,142.5879,451.2461,130.5879,439.2461,142.5879,427.2461" style="stroke:#181818;stroke-width:0.5;"/><polygon fill="#F1F1F1" points="142.5879,103.9688,154.5879,115.9688,142.5879,127.9688,130.5879,115.9688,142.5879,103.9688" style="stroke:#181818;stroke-width:0.5;"/><polygon fill="#F1F1F1" points="68.2573,471.2461,216.9185,471.2461,228.9185,483.2461,216.9185,495.2461,68.2573,495.2461,56.2573,483.2461,68.2573,471.2461" style="stroke:#181818;stroke-width:0.5;"/><text fill="#000000" font-family="sans-serif" font-size="11" lengthAdjust="spacing" textLength="148.6611" x="68.2573" y="487.0542">Continuous Data Fetching?</text><rect fill="#F1F1F1" height="33.9688" rx="12.5" ry="12.5" style="stroke:#181818;stroke-width:0.5;" width="192.5469" x="46.3145" y="515.2461"/><text fill="#000000" font-family="sans-serif" font-size="12" lengthAdjust="spacing" textLength="172.5469" x="56.3145" y="536.3848">Generate Dashboard Metrics</text><ellipse cx="142.5879" cy="580.2148" fill="none" rx="11" ry="11" style="stroke:#222222;stroke-width:1;"/><ellipse cx="142.5879" cy="580.2148" fill="#222222" rx="6" ry="6" style="stroke:#222222;stroke-width:1;"/><line style="stroke:#181818;stroke-width:1;" x1="142.5879" x2="142.5879" y1="30" y2="50"/><polygon fill="#181818" points="138.5879,40,142.5879,50,146.5879,40,142.5879,44" style="stroke:#181818;stroke-width:1;"/><line style="stroke:#181818;stroke-width:1;" x1="142.5879" x2="142.5879" y1="181.9375" y2="201.9375"/><polygon fill="#181818" points="138.5879,191.9375,142.5879,201.9375,146.5879,191.9375,142.5879,195.9375" style="stroke:#181818;stroke-width:1;"/><line style="stroke:#181818;stroke-width:1;" x1="142.5879" x2="142.5879" y1="338.2773" y2="373.2773"/><polygon fill="#181818" points="138.5879,363.2773,142.5879,373.2773,146.5879,363.2773,142.5879,367.2773" style="stroke:#181818;stroke-width:1;"/><line style="stroke:#181818;stroke-width:1;" x1="142.5879" x2="142.5879" y1="279.9063" y2="304.3086"/><polygon fill="#181818" points="138.5879,294.3086,142.5879,304.3086,146.5879,294.3086,142.5879,298.3086" style="stroke:#181818;stroke-width:1;"/><line style="stroke:#181818;stroke-width:1;" x1="211.4785" x2="223.4785" y1="267.9063" y2="267.9063"/><polygon fill="#181818" points="219.4785,345.7773,223.4785,355.7773,227.4785,345.7773,223.4785,349.7773" style="stroke:#181818;stroke-width:1;"/><line style="stroke:#181818;stroke-width:1;" x1="223.4785" x2="223.4785" y1="267.9063" y2="439.2461"/><line style="stroke:#181818;stroke-width:1;" x1="223.4785" x2="154.5879" y1="439.2461" y2="439.2461"/><polygon fill="#181818" points="164.5879,435.2461,154.5879,439.2461,164.5879,443.2461,160.5879,439.2461" style="stroke:#181818;stroke-width:1;"/><line style="stroke:#181818;stroke-width:1;" x1="142.5879" x2="142.5879" y1="407.2461" y2="427.2461"/><polygon fill="#181818" points="138.5879,417.2461,142.5879,427.2461,146.5879,417.2461,142.5879,421.2461" style="stroke:#181818;stroke-width:1;"/><line style="stroke:#181818;stroke-width:1;" x1="142.5879" x2="142.5879" y1="235.9063" y2="255.9063"/><polygon fill="#181818" points="138.5879,245.9063,142.5879,255.9063,146.5879,245.9063,142.5879,249.9063" style="stroke:#181818;stroke-width:1;"/><line style="stroke:#181818;stroke-width:1;" x1="142.5879" x2="142.5879" y1="127.9688" y2="147.9688"/><polygon fill="#181818" points="138.5879,137.9688,142.5879,147.9688,146.5879,137.9688,142.5879,141.9688" style="stroke:#181818;stroke-width:1;"/><line style="stroke:#181818;stroke-width:1;" x1="228.9185" x2="286.1758" y1="483.2461" y2="483.2461"/><polygon fill="#181818" points="282.1758,296.8086,286.1758,286.8086,290.1758,296.8086,286.1758,292.8086" style="stroke:#181818;stroke-width:1;"/><line style="stroke:#181818;stroke-width:1;" x1="286.1758" x2="286.1758" y1="115.9688" y2="483.2461"/><line style="stroke:#181818;stroke-width:1;" x1="286.1758" x2="154.5879" y1="115.9688" y2="115.9688"/><polygon fill="#181818" points="164.5879,111.9688,154.5879,115.9688,164.5879,119.9688,160.5879,115.9688" style="stroke:#181818;stroke-width:1;"/><line style="stroke:#181818;stroke-width:1;" x1="142.5879" x2="142.5879" y1="451.2461" y2="471.2461"/><polygon fill="#181818" points="138.5879,461.2461,142.5879,471.2461,146.5879,461.2461,142.5879,465.2461" style="stroke:#181818;stroke-width:1;"/><line style="stroke:#181818;stroke-width:1;" x1="142.5879" x2="142.5879" y1="83.9688" y2="103.9688"/><polygon fill="#181818" points="138.5879,93.9688,142.5879,103.9688,146.5879,93.9688,142.5879,97.9688" style="stroke:#181818;stroke-width:1;"/><line style="stroke:#181818;stroke-width:1;" x1="142.5879" x2="142.5879" y1="495.2461" y2="515.2461"/><polygon fill="#181818" points="138.5879,505.2461,142.5879,515.2461,146.5879,505.2461,142.5879,509.2461" style="stroke:#181818;stroke-width:1;"/><line style="stroke:#181818;stroke-width:1;" x1="142.5879" x2="142.5879" y1="549.2148" y2="569.2148"/><polygon fill="#181818" points="138.5879,559.2148,142.5879,569.2148,146.5879,559.2148,142.5879,563.2148" style="stroke:#181818;stroke-width:1;"/><!--SRC=[LOzD2eDG38JtdY9BlO8kIh4_55gGUeAeKGFsHV8YnTlt-LDAbyDyavbuGxKelP3LFPpG45gL5vHICmxme8OHZiNDPv7II6WHG5gerEJzZei6p9Jhm0IpD5627Q5cWzX1FiYqgGezBIYt49zLGtvjPzUjzY41wyb1F9DF0XPktgM3bSms_GnzytzgSSWrtEuxuTtpG13duepT9DC-zniw955w9KUAHi7nVIMepUyJRp9-0000]--></g></svg>