<svg xmlns="http://www.w3.org/2000/svg" xmlns:xlink="http://www.w3.org/1999/xlink" contentStyleType="text/css" data-diagram-type="ACTIVITY" height="534px" preserveAspectRatio="none" style="width:354px;height:534px;background:#FFFFFF;" version="1.1" viewBox="0 0 354 534" width="354px" zoomAndPan="magnify"><defs/><g><ellipse cx="179.0718" cy="20" fill="#222222" rx="10" ry="10" style="stroke:#222222;stroke-width:1;"/><rect fill="#F1F1F1" height="33.9688" rx="12.5" ry="12.5" style="stroke:#181818;stroke-width:0.5;" width="122.3516" x="117.896" y="50"/><text fill="#000000" font-family="sans-serif" font-size="12" lengthAdjust="spacing" textLength="102.3516" x="127.896" y="71.1387">Task Assignment</text><polygon fill="#F1F1F1" points="122.2188,103.9688,235.9248,103.9688,247.9248,115.9688,235.9248,127.9688,122.2188,127.9688,110.2188,115.9688,122.2188,103.9688" style="stroke:#181818;stroke-width:0.5;"/><text fill="#000000" font-family="sans-serif" font-size="11" lengthAdjust="spacing" textLength="113.7061" x="122.2188" y="119.7769">Notification Method?</text><text fill="#000000" font-family="sans-serif" font-size="11" lengthAdjust="spacing" textLength="30.5186" x="79.7002" y="113.3745">Email</text><text fill="#000000" font-family="sans-serif" font-size="11" lengthAdjust="spacing" textLength="23.4556" x="247.9248" y="113.3745">SMS</text><rect fill="#F1F1F1" height="33.9688" rx="12.5" ry="12.5" style="stroke:#181818;stroke-width:0.5;" width="159.998" x="11" y="137.9688"/><text fill="#000000" font-family="sans-serif" font-size="12" lengthAdjust="spacing" textLength="139.998" x="21" y="159.1074">Send Email Notification</text><rect fill="#F1F1F1" height="33.9688" rx="12.5" ry="12.5" style="stroke:#181818;stroke-width:0.5;" width="152.293" x="190.998" y="137.9688"/><text fill="#000000" font-family="sans-serif" font-size="12" lengthAdjust="spacing" textLength="132.293" x="200.998" y="159.1074">Send SMS Notification</text><polygon fill="#F1F1F1" points="179.0718,177.9375,191.0718,189.9375,179.0718,201.9375,167.0718,189.9375,179.0718,177.9375" style="stroke:#181818;stroke-width:0.5;"/><rect fill="#F1F1F1" height="33.9688" rx="12.5" ry="12.5" style="stroke:#181818;stroke-width:0.5;" width="130.2266" x="113.9585" y="221.9375"/><text fill="#000000" font-family="sans-serif" font-size="12" lengthAdjust="spacing" textLength="110.2266" x="123.9585" y="243.0762">User Accepts Task</text><rect fill="#F1F1F1" height="33.9688" rx="12.5" ry="12.5" style="stroke:#181818;stroke-width:0.5;" width="110.9551" x="123.5942" y="275.9063"/><text fill="#000000" font-family="sans-serif" font-size="12" lengthAdjust="spacing" textLength="90.9551" x="133.5942" y="297.0449">Task Execution</text><polygon fill="#F1F1F1" points="131.6262,329.875,226.5173,329.875,238.5173,341.875,226.5173,353.875,131.6262,353.875,119.6262,341.875,131.6262,329.875" style="stroke:#181818;stroke-width:0.5;"/><text fill="#000000" font-family="sans-serif" font-size="11" lengthAdjust="spacing" textLength="94.8911" x="131.6262" y="345.6831">Task Completed?</text><text fill="#000000" font-family="sans-serif" font-size="11" lengthAdjust="spacing" textLength="19.2178" x="100.4084" y="339.2808">Yes</text><text fill="#000000" font-family="sans-serif" font-size="11" lengthAdjust="spacing" textLength="14.9585" x="238.5173" y="339.2808">No</text><rect fill="#F1F1F1" height="33.9688" rx="12.5" ry="12.5" style="stroke:#181818;stroke-width:0.5;" width="96.9277" x="61.1624" y="363.875"/><text fill="#000000" font-family="sans-serif" font-size="12" lengthAdjust="spacing" textLength="76.9277" x="71.1624" y="385.0137">Task Closure</text><rect fill="#F1F1F1" height="33.9688" rx="12.5" ry="12.5" style="stroke:#181818;stroke-width:0.5;" width="136.3613" x="180.3367" y="363.875"/><text fill="#000000" font-family="sans-serif" font-size="12" lengthAdjust="spacing" textLength="116.3613" x="190.3367" y="385.0137">Escalation Decision</text><rect fill="#F1F1F1" height="33.9688" rx="12.5" ry="12.5" style="stroke:#181818;stroke-width:0.5;" width="96.9277" x="200.0535" y="417.8438"/><text fill="#000000" font-family="sans-serif" font-size="12" lengthAdjust="spacing" textLength="76.9277" x="210.0535" y="438.9824">Task Closure</text><polygon fill="#F1F1F1" points="179.0718,457.8125,191.0718,469.8125,179.0718,481.8125,167.0718,469.8125,179.0718,457.8125" style="stroke:#181818;stroke-width:0.5;"/><ellipse cx="179.0718" cy="512.8125" fill="none" rx="11" ry="11" style="stroke:#222222;stroke-width:1;"/><ellipse cx="179.0718" cy="512.8125" fill="#222222" rx="6" ry="6" style="stroke:#222222;stroke-width:1;"/><line style="stroke:#181818;stroke-width:1;" x1="179.0718" x2="179.0718" y1="30" y2="50"/><polygon fill="#181818" points="175.0718,40,179.0718,50,183.0718,40,179.0718,44" style="stroke:#181818;stroke-width:1;"/><line style="stroke:#181818;stroke-width:1;" x1="110.2188" x2="90.999" y1="115.9688" y2="115.9688"/><line style="stroke:#181818;stroke-width:1;" x1="90.999" x2="90.999" y1="115.9688" y2="137.9688"/><polygon fill="#181818" points="86.999,127.9688,90.999,137.9688,94.999,127.9688,90.999,131.9688" style="stroke:#181818;stroke-width:1;"/><line style="stroke:#181818;stroke-width:1;" x1="247.9248" x2="267.1445" y1="115.9688" y2="115.9688"/><line style="stroke:#181818;stroke-width:1;" x1="267.1445" x2="267.1445" y1="115.9688" y2="137.9688"/><polygon fill="#181818" points="263.1445,127.9688,267.1445,137.9688,271.1445,127.9688,267.1445,131.9688" style="stroke:#181818;stroke-width:1;"/><line style="stroke:#181818;stroke-width:1;" x1="90.999" x2="90.999" y1="171.9375" y2="189.9375"/><line style="stroke:#181818;stroke-width:1;" x1="90.999" x2="167.0718" y1="189.9375" y2="189.9375"/><polygon fill="#181818" points="157.0718,185.9375,167.0718,189.9375,157.0718,193.9375,161.0718,189.9375" style="stroke:#181818;stroke-width:1;"/><line style="stroke:#181818;stroke-width:1;" x1="267.1445" x2="267.1445" y1="171.9375" y2="189.9375"/><line style="stroke:#181818;stroke-width:1;" x1="267.1445" x2="191.0718" y1="189.9375" y2="189.9375"/><polygon fill="#181818" points="201.0718,185.9375,191.0718,189.9375,201.0718,193.9375,197.0718,189.9375" style="stroke:#181818;stroke-width:1;"/><line style="stroke:#181818;stroke-width:1;" x1="179.0718" x2="179.0718" y1="83.9688" y2="103.9688"/><polygon fill="#181818" points="175.0718,93.9688,179.0718,103.9688,183.0718,93.9688,179.0718,97.9688" style="stroke:#181818;stroke-width:1;"/><line style="stroke:#181818;stroke-width:1;" x1="179.0718" x2="179.0718" y1="201.9375" y2="221.9375"/><polygon fill="#181818" points="175.0718,211.9375,179.0718,221.9375,183.0718,211.9375,179.0718,215.9375" style="stroke:#181818;stroke-width:1;"/><line style="stroke:#181818;stroke-width:1;" x1="179.0718" x2="179.0718" y1="255.9063" y2="275.9063"/><polygon fill="#181818" points="175.0718,265.9063,179.0718,275.9063,183.0718,265.9063,179.0718,269.9063" style="stroke:#181818;stroke-width:1;"/><line style="stroke:#181818;stroke-width:1;" x1="248.5173" x2="248.5173" y1="397.8438" y2="417.8438"/><polygon fill="#181818" points="244.5173,407.8438,248.5173,417.8438,252.5173,407.8438,248.5173,411.8438" style="stroke:#181818;stroke-width:1;"/><line style="stroke:#181818;stroke-width:1;" x1="119.6262" x2="109.6262" y1="341.875" y2="341.875"/><line style="stroke:#181818;stroke-width:1;" x1="109.6262" x2="109.6262" y1="341.875" y2="363.875"/><polygon fill="#181818" points="105.6262,353.875,109.6262,363.875,113.6262,353.875,109.6262,357.875" style="stroke:#181818;stroke-width:1;"/><line style="stroke:#181818;stroke-width:1;" x1="238.5173" x2="248.5173" y1="341.875" y2="341.875"/><line style="stroke:#181818;stroke-width:1;" x1="248.5173" x2="248.5173" y1="341.875" y2="363.875"/><polygon fill="#181818" points="244.5173,353.875,248.5173,363.875,252.5173,353.875,248.5173,357.875" style="stroke:#181818;stroke-width:1;"/><line style="stroke:#181818;stroke-width:1;" x1="109.6262" x2="109.6262" y1="397.8438" y2="469.8125"/><line style="stroke:#181818;stroke-width:1;" x1="109.6262" x2="167.0718" y1="469.8125" y2="469.8125"/><polygon fill="#181818" points="157.0718,465.8125,167.0718,469.8125,157.0718,473.8125,161.0718,469.8125" style="stroke:#181818;stroke-width:1;"/><line style="stroke:#181818;stroke-width:1;" x1="248.5173" x2="248.5173" y1="451.8125" y2="469.8125"/><line style="stroke:#181818;stroke-width:1;" x1="248.5173" x2="191.0718" y1="469.8125" y2="469.8125"/><polygon fill="#181818" points="201.0718,465.8125,191.0718,469.8125,201.0718,473.8125,197.0718,469.8125" style="stroke:#181818;stroke-width:1;"/><line style="stroke:#181818;stroke-width:1;" x1="179.0718" x2="179.0718" y1="309.875" y2="329.875"/><polygon fill="#181818" points="175.0718,319.875,179.0718,329.875,183.0718,319.875,179.0718,323.875" style="stroke:#181818;stroke-width:1;"/><line style="stroke:#181818;stroke-width:1;" x1="179.0718" x2="179.0718" y1="481.8125" y2="501.8125"/><polygon fill="#181818" points="175.0718,491.8125,179.0718,501.8125,183.0718,491.8125,179.0718,495.8125" style="stroke:#181818;stroke-width:1;"/><!--SRC=[PO_13e9034Jl-nKzmY_0mH3b21Vqu76p56bSjcHR4ZzVMJGOFKvdfdqLjL5DSRPoXqg4Rc72eAMX0RAMbGPoLea3DAWZzuSSTCG0MJrPyha1A3eCFIG9tuNIe1U4h6kwFVOIlw7Gqs2AYs24oZcSLM25ATzCzGFTiaLNf3GxyZHxLDnfhYZfo6PxbYNY1w3bPDNYhDzUEQ4ZIIl_Amb7bESd]--></g></svg>