<svg xmlns="http://www.w3.org/2000/svg" xmlns:xlink="http://www.w3.org/1999/xlink" contentStyleType="text/css" data-diagram-type="DESCRIPTION" height="185px" preserveAspectRatio="none" style="width:520px;height:185px;background:#FFFFFF;" version="1.1" viewBox="0 0 520 185" width="520px" zoomAndPan="magnify"><defs/><g><!--entity User--><g class="entity" data-entity="User" data-source-line="1" data-uid="ent0002" id="entity_User"><ellipse cx="166.1151" cy="14" fill="#F1F1F1" rx="8" ry="8" style="stroke:#181818;stroke-width:0.5;"/><path d="M166.1151,22 L166.1151,49 M153.1151,30 L179.1151,30 M166.1151,49 L153.1151,64 M166.1151,49 L179.1151,64" fill="none" style="stroke:#181818;stroke-width:0.5;"/><text fill="#000000" font-family="sans-serif" font-size="14" lengthAdjust="spacing" textLength="31.9102" x="150.16" y="78.4951">User</text></g><!--entity Admin--><g class="entity" data-entity="Admin" data-source-line="2" data-uid="ent0003" id="entity_Admin"><ellipse cx="433.1221" cy="14" fill="#F1F1F1" rx="8" ry="8" style="stroke:#181818;stroke-width:0.5;"/><path d="M433.1221,22 L433.1221,49 M420.1221,30 L446.1221,30 M433.1221,49 L420.1221,64 M433.1221,49 L446.1221,64" fill="none" style="stroke:#181818;stroke-width:0.5;"/><text fill="#000000" font-family="sans-serif" font-size="14" lengthAdjust="spacing" textLength="44.8643" x="410.69" y="78.4951">Admin</text></g><!--entity UC1--><g class="entity" data-entity="UC1" data-source-line="4" data-uid="ent0004" id="entity_UC1"><ellipse cx="79.1178" cy="160.5136" fill="#F1F1F1" rx="73.1178" ry="17.0236" style="stroke:#181818;stroke-width:0.5;"/><text fill="#000000" font-family="sans-serif" font-size="14" lengthAdjust="spacing" textLength="114.1328" x="22.0514" y="165.162">Rate Restaurant</text></g><!--entity UC2--><g class="entity" data-entity="UC2" data-source-line="5" data-uid="ent0005" id="entity_UC2"><ellipse cx="252.121" cy="160.5062" fill="#F1F1F1" rx="64.681" ry="15.3362" style="stroke:#181818;stroke-width:0.5;"/><text fill="#000000" font-family="sans-serif" font-size="14" lengthAdjust="spacing" textLength="92.6201" x="205.811" y="165.1546">Write Review</text></g><!--entity UC3--><g class="entity" data-entity="UC3" data-source-line="6" data-uid="ent0006" id="entity_UC3"><ellipse cx="433.1245" cy="160.5109" fill="#F1F1F1" rx="81.5545" ry="18.7109" style="stroke:#181818;stroke-width:0.5;"/><text fill="#000000" font-family="sans-serif" font-size="14" lengthAdjust="spacing" textLength="134.3262" x="365.9614" y="165.1593">Review Moderation</text></g><!--link User to UC1--><g class="link" data-entity-1="User" data-entity-2="UC1" data-source-line="8" data-uid="lnk7" id="link_User_UC1"><path d="M149.75,66.25 C132.72,88.74 110.0716,118.6363 94.8316,138.7663" fill="none" id="User-to-UC1" style="stroke:#181818;stroke-width:1;"/><polygon fill="#181818" points="91.21,143.55,99.8316,138.7889,94.228,139.5636,93.4533,133.96,91.21,143.55" style="stroke:#181818;stroke-width:1;"/></g><!--link User to UC2--><g class="link" data-entity-1="User" data-entity-2="UC2" data-source-line="9" data-uid="lnk8" id="link_User_UC2"><path d="M182.5,66.52 C199.75,89.57 222.8335,120.3974 237.6535,140.1874" fill="none" id="User-to-UC2" style="stroke:#181818;stroke-width:1;"/><polygon fill="#181818" points="241.25,144.99,239.057,135.3884,238.2529,140.9878,232.6535,140.1837,241.25,144.99" style="stroke:#181818;stroke-width:1;"/></g><!--link Admin to UC3--><g class="link" data-entity-1="Admin" data-entity-2="UC3" data-source-line="10" data-uid="lnk9" id="link_Admin_UC3"><path d="M433.12,82.26 C433.12,102.15 433.12,119.65 433.12,135.47" fill="none" id="Admin-to-UC3" style="stroke:#181818;stroke-width:1;"/><polygon fill="#181818" points="433.12,141.47,437.12,132.47,433.12,136.47,429.12,132.47,433.12,141.47" style="stroke:#181818;stroke-width:1;"/></g><!--SRC=[JOwn2e0m34JtV4LmTr1tGPnT2k8SD4C7MqXI_Nqn57JB9IztHxjbmLLPW7oSZZCcWAAyap8sWOmni1eLeMGDak8wTn-mINJYYdpNQ_zxzpqk-M0XYpbLP01uGx5jHxVxYHwyGrN30m00]--></g></svg>