<svg xmlns="http://www.w3.org/2000/svg" xmlns:xlink="http://www.w3.org/1999/xlink" contentStyleType="text/css" data-diagram-type="SEQUENCE" height="240px" preserveAspectRatio="none" style="width:460px;height:240px;background:#FFFFFF;" version="1.1" viewBox="0 0 460 240" width="460px" zoomAndPan="magnify"><defs/><g><g><title>PerformanceData</title><rect fill="#000000" fill-opacity="0.00000" height="78.2656" width="8" x="65.4448" y="81.2969"/><line style="stroke:#181818;stroke-width:0.5;stroke-dasharray:5,5;" x1="69" x2="69" y1="81.2969" y2="159.5625"/></g><g><title>KPIEngine</title><rect fill="#000000" fill-opacity="0.00000" height="78.2656" width="8" x="243.2168" y="81.2969"/><line style="stroke:#181818;stroke-width:0.5;stroke-dasharray:5,5;" x1="246.3501" x2="246.3501" y1="81.2969" y2="159.5625"/></g><g><title>HR</title><rect fill="#000000" fill-opacity="0.00000" height="78.2656" width="8" x="433.2524" y="81.2969"/><line style="stroke:#181818;stroke-width:0.5;stroke-dasharray:5,5;" x1="437.125" x2="437.125" y1="81.2969" y2="159.5625"/></g><g class="participant participant-head" data-participant="PerformanceData"><text fill="#000000" font-family="sans-serif" font-size="14" lengthAdjust="spacing" textLength="122.8896" x="5" y="77.9951">PerformanceData</text><ellipse cx="69.4448" cy="13.5" fill="#E2E2F0" rx="8" ry="8" style="stroke:#181818;stroke-width:0.5;"/><path d="M69.4448,21.5 L69.4448,48.5 M56.4448,29.5 L82.4448,29.5 M69.4448,48.5 L56.4448,63.5 M69.4448,48.5 L82.4448,63.5" fill="none" style="stroke:#181818;stroke-width:0.5;"/></g><g class="participant participant-tail" data-participant="PerformanceData"><text fill="#000000" font-family="sans-serif" font-size="14" lengthAdjust="spacing" textLength="122.8896" x="5" y="171.5576">PerformanceData</text><ellipse cx="69.4448" cy="183.3594" fill="#E2E2F0" rx="8" ry="8" style="stroke:#181818;stroke-width:0.5;"/><path d="M69.4448,191.3594 L69.4448,218.3594 M56.4448,199.3594 L82.4448,199.3594 M69.4448,218.3594 L56.4448,233.3594 M69.4448,218.3594 L82.4448,233.3594" fill="none" style="stroke:#181818;stroke-width:0.5;"/></g><g class="participant participant-head" data-participant="KPIEngine"><rect fill="#E2E2F0" height="30.2969" rx="2.5" ry="2.5" style="stroke:#181818;stroke-width:0.5;" width="83.7334" x="205.3501" y="50"/><text fill="#000000" font-family="sans-serif" font-size="14" lengthAdjust="spacing" textLength="69.7334" x="212.3501" y="69.9951">KPIEngine</text></g><g class="participant participant-tail" data-participant="KPIEngine"><rect fill="#E2E2F0" height="30.2969" rx="2.5" ry="2.5" style="stroke:#181818;stroke-width:0.5;" width="83.7334" x="205.3501" y="158.5625"/><text fill="#000000" font-family="sans-serif" font-size="14" lengthAdjust="spacing" textLength="69.7334" x="212.3501" y="178.5576">KPIEngine</text></g><g class="participant participant-head" data-participant="HR"><rect fill="#E2E2F0" height="30.2969" rx="2.5" ry="2.5" style="stroke:#181818;stroke-width:0.5;" width="34.2549" x="420.125" y="50"/><text fill="#000000" font-family="sans-serif" font-size="14" lengthAdjust="spacing" textLength="20.2549" x="427.125" y="69.9951">HR</text></g><g class="participant participant-tail" data-participant="HR"><rect fill="#E2E2F0" height="30.2969" rx="2.5" ry="2.5" style="stroke:#181818;stroke-width:0.5;" width="34.2549" x="420.125" y="158.5625"/><text fill="#000000" font-family="sans-serif" font-size="14" lengthAdjust="spacing" textLength="20.2549" x="427.125" y="178.5576">HR</text></g><g class="message" data-participant-1="PerformanceData" data-participant-2="KPIEngine"><polygon fill="#181818" points="235.2168,108.4297,245.2168,112.4297,235.2168,116.4297,239.2168,112.4297" style="stroke:#181818;stroke-width:1;"/><line style="stroke:#181818;stroke-width:1;" x1="69.4448" x2="241.2168" y1="112.4297" y2="112.4297"/><text fill="#000000" font-family="sans-serif" font-size="13" lengthAdjust="spacing" textLength="153.772" x="76.4448" y="107.3638">Send performance data</text></g><g class="message" data-participant-1="KPIEngine" data-participant-2="HR"><polygon fill="#181818" points="425.2524,137.5625,435.2524,141.5625,425.2524,145.5625,429.2524,141.5625" style="stroke:#181818;stroke-width:1;"/><line style="stroke:#181818;stroke-width:1;" x1="247.2168" x2="431.2524" y1="141.5625" y2="141.5625"/><text fill="#000000" font-family="sans-serif" font-size="13" lengthAdjust="spacing" textLength="166.0356" x="254.2168" y="136.4966">Process and forward data</text></g><!--SRC=[IqmkoIzI24WjIiiloatCIqvrIIn9v2f8B2h9JCuiICmhKV0Ey7JDIy_CIqKHzGZYuaBJfQ1hXr1ifH2ScfUYK81Gef02CXck0AJQ8yXA8Q0eFpcrk5WX4QWQgBGyiIW5h180]--></g></svg>