<svg xmlns="http://www.w3.org/2000/svg" xmlns:xlink="http://www.w3.org/1999/xlink" contentStyleType="text/css" data-diagram-type="DESCRIPTION" height="488px" preserveAspectRatio="none" style="width:410px;height:488px;background:#FFFFFF;" version="1.1" viewBox="0 0 410 488" width="410px" zoomAndPan="magnify"><defs/><g><!--cluster User Device--><g class="cluster" data-entity="User Device" data-source-line="3" data-uid="ent0003" id="cluster_User Device"><path d="M33.5,114.8 L128.3096,114.8 A3.75,3.75 0 0 1 130.8096,117.3 L137.8096,137.0969 L387.5,137.0969 A2.5,2.5 0 0 1 390,139.5969 L390,259.6 A2.5,2.5 0 0 1 387.5,262.1 L33.5,262.1 A2.5,2.5 0 0 1 31,259.6 L31,117.3 A2.5,2.5 0 0 1 33.5,114.8" fill="none" style="stroke:#000000;stroke-width:1.5;"/><line style="stroke:#000000;stroke-width:1.5;" x1="31" x2="137.8096" y1="137.0969" y2="137.0969"/><text fill="#000000" font-family="sans-serif" font-size="14" font-weight="bold" lengthAdjust="spacing" textLength="93.8096" x="35" y="129.7951">User Device</text></g><!--cluster Backend Server--><g class="cluster" data-entity="Backend Server" data-source-line="8" data-uid="ent0008" id="cluster_Backend Server"><path d="M8.5,294.1 L133.5928,294.1 A3.75,3.75 0 0 1 136.0928,296.6 L143.0928,316.3969 L400.5,316.3969 A2.5,2.5 0 0 1 403,318.8969 L403,478.75 A2.5,2.5 0 0 1 400.5,481.25 L8.5,481.25 A2.5,2.5 0 0 1 6,478.75 L6,296.6 A2.5,2.5 0 0 1 8.5,294.1" fill="none" style="stroke:#000000;stroke-width:1.5;"/><line style="stroke:#000000;stroke-width:1.5;" x1="6" x2="143.0928" y1="316.3969" y2="316.3969"/><text fill="#000000" font-family="sans-serif" font-size="14" font-weight="bold" lengthAdjust="spacing" textLength="124.0928" x="10" y="309.0951">Backend Server</text></g><!--entity GPS Module--><g class="entity" data-entity="GPS Module" data-source-line="4" data-uid="ent0004" id="entity_GPS Module"><ellipse cx="115.9977" cy="220.3095" fill="#F1F1F1" rx="61.3477" ry="14.6695" style="stroke:#181818;stroke-width:0.5;"/><text fill="#000000" font-family="sans-serif" font-size="14" lengthAdjust="spacing" textLength="83.5352" x="74.2301" y="224.958">GPS Module</text></g><!--entity Manual City Input--><g class="entity" data-entity="Manual City Input" data-source-line="5" data-uid="ent0006" id="entity_Manual City Input"><ellipse cx="289.0046" cy="220.3129" fill="#F1F1F1" rx="76.9646" ry="17.7929" style="stroke:#181818;stroke-width:0.5;"/><text fill="#000000" font-family="sans-serif" font-size="14" lengthAdjust="spacing" textLength="123.4639" x="227.2726" y="224.9614">Manual City Input</text></g><!--entity Process GPS Data--><g class="entity" data-entity="Process GPS Data" data-source-line="9" data-uid="ent0009" id="entity_Process GPS Data"><ellipse cx="111.9986" cy="347.1317" fill="#F1F1F1" rx="77.2586" ry="17.8517" style="stroke:#181818;stroke-width:0.5;"/><text fill="#000000" font-family="sans-serif" font-size="14" lengthAdjust="spacing" textLength="124.168" x="49.9147" y="351.7802">Process GPS Data</text></g><!--entity Process City Input--><g class="entity" data-entity="Process City Input" data-source-line="10" data-uid="ent0011" id="entity_Process City Input"><ellipse cx="306.0024" cy="347.1265" fill="#F1F1F1" rx="78.1324" ry="18.0265" style="stroke:#181818;stroke-width:0.5;"/><text fill="#000000" font-family="sans-serif" font-size="14" lengthAdjust="spacing" textLength="126.2529" x="242.8759" y="351.7749">Process City Input</text></g><!--entity Restaurant Detection--><g class="entity" data-entity="Restaurant Detection" data-source-line="11" data-uid="ent0013" id="entity_Restaurant Detection"><ellipse cx="109.9951" cy="445.197" fill="#F1F1F1" rx="88.2351" ry="20.047" style="stroke:#181818;stroke-width:0.5;"/><text fill="#000000" font-family="sans-serif" font-size="14" lengthAdjust="spacing" textLength="149.7344" x="35.1279" y="449.8455">Restaurant Detection</text></g><!--entity Location Services--><g class="entity" data-entity="Location Services" data-source-line="12" data-uid="ent0015" id="entity_Location Services"><ellipse cx="309.9979" cy="445.1996" fill="#F1F1F1" rx="76.7479" ry="17.7496" style="stroke:#181818;stroke-width:0.5;"/><text fill="#000000" font-family="sans-serif" font-size="14" lengthAdjust="spacing" textLength="122.9443" x="248.5257" y="449.848">Location Services</text></g><!--entity User--><g class="entity" data-entity="User" data-source-line="1" data-uid="ent0002" id="entity_User"><ellipse cx="201.9951" cy="14" fill="#F1F1F1" rx="8" ry="8" style="stroke:#181818;stroke-width:0.5;"/><path d="M201.9951,22 L201.9951,49 M188.9951,30 L214.9951,30 M201.9951,49 L188.9951,64 M201.9951,49 L214.9951,64" fill="none" style="stroke:#181818;stroke-width:0.5;"/><text fill="#000000" font-family="sans-serif" font-size="14" lengthAdjust="spacing" textLength="31.9102" x="186.04" y="78.4951">User</text></g><!--link User Device to GPS Module--><g class="link" data-entity-1="User Device" data-entity-2="GPS Module" data-source-line="4" data-uid="lnk5" id="link_User Device_GPS Module"><path d="M201.75,142.74 C198.11,145.99 159.4252,180.5334 135.7652,201.6634" fill="none" id="User Device-to-GPS Module" style="stroke:#181818;stroke-width:1;"/><polygon fill="#181818" points="131.29,205.66,140.6671,202.6485,135.0193,202.3295,135.3383,196.6816,131.29,205.66" style="stroke:#181818;stroke-width:1;"/></g><!--link User Device to Manual City Input--><g class="link" data-entity-1="User Device" data-entity-2="Manual City Input" data-source-line="5" data-uid="lnk7" id="link_User Device_Manual City Input"><path d="M202.25,142.74 C205.78,145.85 241.4022,177.2889 265.8222,198.8489" fill="none" id="User Device-to-Manual City Input" style="stroke:#181818;stroke-width:1;"/><polygon fill="#181818" points="270.32,202.82,266.2206,193.8648,266.5718,199.5108,260.9259,199.862,270.32,202.82" style="stroke:#181818;stroke-width:1;"/></g><!--link GPS Module to Process GPS Data--><g class="link" data-entity-1="GPS Module" data-entity-2="Process GPS Data" data-source-line="9" data-uid="lnk10" id="link_GPS Module_Process GPS Data"><path d="M115.56,235.14 C114.82,258.12 113.5422,298.0931 112.7422,323.0531" fill="none" id="GPS Module-to-Process GPS Data" style="stroke:#181818;stroke-width:1;"/><polygon fill="#181818" points="112.55,329.05,116.8363,320.1828,112.7102,324.0526,108.8404,319.9265,112.55,329.05" style="stroke:#181818;stroke-width:1;"/></g><!--link Manual City Input to Process City Input--><g class="link" data-entity-1="Manual City Input" data-entity-2="Process City Input" data-source-line="10" data-uid="lnk12" id="link_Manual City Input_Process City Input"><path d="M291.33,238.4 C294.57,262.17 299.5781,299.0252 302.8381,322.8952" fill="none" id="Manual City Input-to-Process City Input" style="stroke:#181818;stroke-width:1;"/><polygon fill="#181818" points="303.65,328.84,306.3954,319.3815,302.9734,323.886,298.4689,320.464,303.65,328.84" style="stroke:#181818;stroke-width:1;"/></g><!--link Process GPS Data to Restaurant Detection--><g class="link" data-entity-1="Process GPS Data" data-entity-2="Restaurant Detection" data-source-line="11" data-uid="lnk14" id="link_Process GPS Data_Restaurant Detection"><path d="M111.64,365.31 C111.29,382.04 110.8973,401.4314 110.5273,418.8614" fill="none" id="Process GPS Data-to-Restaurant Detection" style="stroke:#181818;stroke-width:1;"/><polygon fill="#181818" points="110.4,424.86,114.5901,415.9469,110.5061,419.8611,106.5919,415.7771,110.4,424.86" style="stroke:#181818;stroke-width:1;"/></g><!--link Process City Input to Location Services--><g class="link" data-entity-1="Process City Input" data-entity-2="Location Services" data-source-line="12" data-uid="lnk16" id="link_Process City Input_Location Services"><path d="M306.72,365.31 C307.44,382.79 308.3225,403.7451 309.0425,421.1851" fill="none" id="Process City Input-to-Location Services" style="stroke:#181818;stroke-width:1;"/><polygon fill="#181818" points="309.29,427.18,312.9154,418.0227,309.0838,422.1843,304.9222,418.3527,309.29,427.18" style="stroke:#181818;stroke-width:1;"/></g><!--link User to User Device--><g class="link" data-entity-1="User" data-entity-2="User Device" data-source-line="15" data-uid="lnk17" id="link_User_User Device"><path d="M202,82.24 C202,88.8025 202,95.6419 202,102.2391 C202,105.5377 202,108.7757 202,111.8883 C202,112.6665 202,113.4368 202,114.1983 C202,114.3886 202,130.8753 202,131.0645" fill="none" id="User-to-User Device" style="stroke:#181818;stroke-width:1;"/><polygon fill="#181818" points="202,137.0645,206,128.0645,202,132.0645,198,128.0645,202,137.0645" style="stroke:#181818;stroke-width:1;"/></g><!--SRC=[RP112i8m44NtESMdAxle5LneGGGBnU9AN0pf8CMIb6HI4F7kDkqcnUwIpEFz-I4jrk7csIara7xHav75AqeUEyqPFWgu9oyF5CKUkrFTeB9jw3dV1YeoWNeSEtdZR8OWkVec6OVfmAP5msvajyIaqaLIEwlPUyH1IK8nQyEyXjD8R3WM-ifUA3WoCkqjhAMpPiN_-IzMKwJcdQUYVcuqDu_prH_y0000]--></g></svg>