<svg xmlns="http://www.w3.org/2000/svg" xmlns:xlink="http://www.w3.org/1999/xlink" contentStyleType="text/css" data-diagram-type="ACTIVITY" height="634px" preserveAspectRatio="none" style="width:293px;height:634px;background:#FFFFFF;" version="1.1" viewBox="0 0 293 634" width="293px" zoomAndPan="magnify"><defs/><g><ellipse cx="136.7202" cy="20" fill="#222222" rx="10" ry="10" style="stroke:#222222;stroke-width:1;"/><rect fill="#F1F1F1" height="33.9688" rx="12.5" ry="12.5" style="stroke:#181818;stroke-width:0.5;" width="180.5059" x="46.4673" y="50"/><text fill="#000000" font-family="sans-serif" font-size="12" lengthAdjust="spacing" textLength="160.5059" x="56.4673" y="71.1387">User interacts with system</text><rect fill="#F1F1F1" height="33.9688" rx="12.5" ry="12.5" style="stroke:#181818;stroke-width:0.5;" width="81.916" x="95.7622" y="147.9688"/><text fill="#000000" font-family="sans-serif" font-size="12" lengthAdjust="spacing" textLength="61.916" x="105.7622" y="169.1074">Input data</text><rect fill="#F1F1F1" height="33.9688" rx="12.5" ry="12.5" style="stroke:#181818;stroke-width:0.5;" width="96.8398" x="88.3003" y="223.3364"/><text fill="#000000" font-family="sans-serif" font-size="12" lengthAdjust="spacing" textLength="76.8398" x="98.3003" y="244.4751">Process data</text><polygon fill="#F1F1F1" points="105.7478,277.3052,167.6926,277.3052,179.6926,289.3052,167.6926,301.3052,105.7478,301.3052,93.7478,289.3052,105.7478,277.3052" style="stroke:#181818;stroke-width:0.5;"/><text fill="#000000" font-family="sans-serif" font-size="11" lengthAdjust="spacing" textLength="61.9448" x="105.7478" y="293.1133">Data valid?</text><text fill="#000000" font-family="sans-serif" font-size="11" lengthAdjust="spacing" textLength="19.0083" x="74.7395" y="286.7109">yes</text><text fill="#000000" font-family="sans-serif" font-size="11" lengthAdjust="spacing" textLength="13.7017" x="179.6926" y="286.7109">no</text><rect fill="#F1F1F1" height="33.9688" rx="12.5" ry="12.5" style="stroke:#181818;stroke-width:0.5;" width="107.832" x="17.2461" y="311.3052"/><text fill="#000000" font-family="sans-serif" font-size="12" lengthAdjust="spacing" textLength="87.832" x="27.2461" y="332.4438">Run prediction</text><rect fill="#F1F1F1" height="33.9688" rx="12.5" ry="12.5" style="stroke:#181818;stroke-width:0.5;" width="120.3242" x="11" y="365.2739"/><text fill="#000000" font-family="sans-serif" font-size="12" lengthAdjust="spacing" textLength="100.3242" x="21" y="386.4126">Generate results</text><rect fill="#F1F1F1" height="33.9688" rx="12.5" ry="12.5" style="stroke:#181818;stroke-width:0.5;" width="101.9082" x="151.3242" y="311.3052"/><text fill="#000000" font-family="sans-serif" font-size="12" lengthAdjust="spacing" textLength="81.9082" x="161.3242" y="332.4438">Handle errors</text><polygon fill="#F1F1F1" points="136.7202,405.2427,148.7202,417.2427,136.7202,429.2427,124.7202,417.2427,136.7202,405.2427" style="stroke:#181818;stroke-width:0.5;"/><rect fill="#F1F1F1" height="33.9688" rx="12.5" ry="12.5" style="stroke:#181818;stroke-width:0.5;" width="96.2598" x="88.5903" y="449.2427"/><text fill="#000000" font-family="sans-serif" font-size="12" lengthAdjust="spacing" textLength="76.2598" x="98.5903" y="470.3813">Store results</text><polygon fill="#F1F1F1" points="136.7202,103.9688,148.7202,115.9688,136.7202,127.9688,124.7202,115.9688,136.7202,103.9688" style="stroke:#181818;stroke-width:0.5;"/><polygon fill="#F1F1F1" points="105.9089,503.2114,167.5315,503.2114,179.5315,515.2114,167.5315,527.2114,105.9089,527.2114,93.9089,515.2114,105.9089,503.2114" style="stroke:#181818;stroke-width:0.5;"/><text fill="#000000" font-family="sans-serif" font-size="11" lengthAdjust="spacing" textLength="61.6226" x="105.9089" y="519.0195">More data?</text><text fill="#000000" font-family="sans-serif" font-size="11" lengthAdjust="spacing" textLength="19.0083" x="179.5315" y="512.6172">yes</text><rect fill="#F1F1F1" height="33.9688" rx="12.5" ry="12.5" style="stroke:#181818;stroke-width:0.5;" width="141.5059" x="65.9673" y="547.2114"/><text fill="#000000" font-family="sans-serif" font-size="12" lengthAdjust="spacing" textLength="121.5059" x="75.9673" y="568.3501">End user interaction</text><ellipse cx="136.7202" cy="612.1802" fill="none" rx="11" ry="11" style="stroke:#222222;stroke-width:1;"/><ellipse cx="136.7202" cy="612.1802" fill="#222222" rx="6" ry="6" style="stroke:#222222;stroke-width:1;"/><line style="stroke:#181818;stroke-width:1;" x1="136.7202" x2="136.7202" y1="30" y2="50"/><polygon fill="#181818" points="132.7202,40,136.7202,50,140.7202,40,136.7202,44" style="stroke:#181818;stroke-width:1;"/><line style="stroke:#181818;stroke-width:1;" x1="136.7202" x2="136.7202" y1="181.9375" y2="223.3364"/><polygon fill="#181818" points="132.7202,213.3364,136.7202,223.3364,140.7202,213.3364,136.7202,217.3364" style="stroke:#181818;stroke-width:1;"/><text fill="#000000" font-family="sans-serif" font-size="11" lengthAdjust="spacing" textLength="91.1797" x="140.7202" y="203.2422">Predictive Model</text><line style="stroke:#181818;stroke-width:1;" x1="71.1621" x2="71.1621" y1="345.2739" y2="365.2739"/><polygon fill="#181818" points="67.1621,355.2739,71.1621,365.2739,75.1621,355.2739,71.1621,359.2739" style="stroke:#181818;stroke-width:1;"/><line style="stroke:#181818;stroke-width:1;" x1="93.7478" x2="71.1621" y1="289.3052" y2="289.3052"/><line style="stroke:#181818;stroke-width:1;" x1="71.1621" x2="71.1621" y1="289.3052" y2="311.3052"/><polygon fill="#181818" points="67.1621,301.3052,71.1621,311.3052,75.1621,301.3052,71.1621,305.3052" style="stroke:#181818;stroke-width:1;"/><line style="stroke:#181818;stroke-width:1;" x1="179.6926" x2="202.2783" y1="289.3052" y2="289.3052"/><line style="stroke:#181818;stroke-width:1;" x1="202.2783" x2="202.2783" y1="289.3052" y2="311.3052"/><polygon fill="#181818" points="198.2783,301.3052,202.2783,311.3052,206.2783,301.3052,202.2783,305.3052" style="stroke:#181818;stroke-width:1;"/><line style="stroke:#181818;stroke-width:1;" x1="71.1621" x2="71.1621" y1="399.2427" y2="417.2427"/><line style="stroke:#181818;stroke-width:1;" x1="71.1621" x2="124.7202" y1="417.2427" y2="417.2427"/><polygon fill="#181818" points="114.7202,413.2427,124.7202,417.2427,114.7202,421.2427,118.7202,417.2427" style="stroke:#181818;stroke-width:1;"/><line style="stroke:#181818;stroke-width:1;" x1="202.2783" x2="202.2783" y1="345.2739" y2="417.2427"/><line style="stroke:#181818;stroke-width:1;" x1="202.2783" x2="148.7202" y1="417.2427" y2="417.2427"/><polygon fill="#181818" points="158.7202,413.2427,148.7202,417.2427,158.7202,421.2427,154.7202,417.2427" style="stroke:#181818;stroke-width:1;"/><line style="stroke:#181818;stroke-width:1;" x1="136.7202" x2="136.7202" y1="257.3052" y2="277.3052"/><polygon fill="#181818" points="132.7202,267.3052,136.7202,277.3052,140.7202,267.3052,136.7202,271.3052" style="stroke:#181818;stroke-width:1;"/><line style="stroke:#181818;stroke-width:1;" x1="136.7202" x2="136.7202" y1="429.2427" y2="449.2427"/><polygon fill="#181818" points="132.7202,439.2427,136.7202,449.2427,140.7202,439.2427,136.7202,443.2427" style="stroke:#181818;stroke-width:1;"/><line style="stroke:#181818;stroke-width:1;" x1="136.7202" x2="136.7202" y1="127.9688" y2="147.9688"/><polygon fill="#181818" points="132.7202,137.9688,136.7202,147.9688,140.7202,137.9688,136.7202,141.9688" style="stroke:#181818;stroke-width:1;"/><line style="stroke:#181818;stroke-width:1;" x1="179.5315" x2="267.2324" y1="515.2114" y2="515.2114"/><polygon fill="#181818" points="263.2324,329.8872,267.2324,319.8872,271.2324,329.8872,267.2324,325.8872" style="stroke:#181818;stroke-width:1;"/><line style="stroke:#181818;stroke-width:1;" x1="267.2324" x2="267.2324" y1="115.9688" y2="515.2114"/><line style="stroke:#181818;stroke-width:1;" x1="267.2324" x2="148.7202" y1="115.9688" y2="115.9688"/><polygon fill="#181818" points="158.7202,111.9688,148.7202,115.9688,158.7202,119.9688,154.7202,115.9688" style="stroke:#181818;stroke-width:1;"/><line style="stroke:#181818;stroke-width:1;" x1="136.7202" x2="136.7202" y1="483.2114" y2="503.2114"/><polygon fill="#181818" points="132.7202,493.2114,136.7202,503.2114,140.7202,493.2114,136.7202,497.2114" style="stroke:#181818;stroke-width:1;"/><line style="stroke:#181818;stroke-width:1;" x1="136.7202" x2="136.7202" y1="83.9688" y2="103.9688"/><polygon fill="#181818" points="132.7202,93.9688,136.7202,103.9688,140.7202,93.9688,136.7202,97.9688" style="stroke:#181818;stroke-width:1;"/><line style="stroke:#181818;stroke-width:1;" x1="136.7202" x2="136.7202" y1="527.2114" y2="547.2114"/><polygon fill="#181818" points="132.7202,537.2114,136.7202,547.2114,140.7202,537.2114,136.7202,541.2114" style="stroke:#181818;stroke-width:1;"/><line style="stroke:#181818;stroke-width:1;" x1="136.7202" x2="136.7202" y1="581.1802" y2="601.1802"/><polygon fill="#181818" points="132.7202,591.1802,136.7202,601.1802,140.7202,591.1802,136.7202,595.1802" style="stroke:#181818;stroke-width:1;"/><!--SRC=[JP11QiD034NtSmejdKKkO4ExIMYx28IK7c3m_631L6CaEI6txqnjGdRI__hYIUPHFOJ-nw34uj0ukj6TVI9xcEDt28ePqGDH_oNpufIYnw6s-pSwAnAFpZVGgIJa9lTdBIFCddDyfUvGQxh5pEbzHpv1g7l0TjMjWSiYD6-RYWoh-06fC0vIs9BTcenie4xAblkCaZ88gaLNNn9V6yAt5tr9hXVGVU8wtfsQr-0g2ji64lgZ95fUt_3F4ipB_0S0]--></g></svg>