<svg xmlns="http://www.w3.org/2000/svg" xmlns:xlink="http://www.w3.org/1999/xlink" contentStyleType="text/css" data-diagram-type="SEQUENCE" height="648px" preserveAspectRatio="none" style="width:722px;height:648px;background:#FFFFFF;" version="1.1" viewBox="0 0 722 648" width="722px" zoomAndPan="magnify"><defs/><g><g><title>User</title><rect fill="#000000" fill-opacity="0.00000" height="486.125" width="8" x="19.9551" y="81.2969"/><line style="stroke:#181818;stroke-width:0.5;stroke-dasharray:5,5;" x1="23" x2="23" y1="81.2969" y2="567.4219"/></g><g><title>App</title><rect fill="#000000" fill-opacity="0.00000" height="486.125" width="8" x="297.7915" y="81.2969"/><line style="stroke:#181818;stroke-width:0.5;stroke-dasharray:5,5;" x1="301.1162" x2="301.1162" y1="81.2969" y2="567.4219"/></g><g><title>Backend</title><rect fill="#000000" fill-opacity="0.00000" height="486.125" width="8" x="489.4839" y="81.2969"/><line style="stroke:#181818;stroke-width:0.5;stroke-dasharray:5,5;" x1="493.3032" x2="493.3032" y1="81.2969" y2="567.4219"/></g><g><title>Database</title><rect fill="#000000" fill-opacity="0.00000" height="486.125" width="8" x="671.7373" y="81.2969"/><line style="stroke:#181818;stroke-width:0.5;stroke-dasharray:5,5;" x1="675.3369" x2="675.3369" y1="81.2969" y2="567.4219"/></g><g class="participant participant-head" data-participant="User"><text fill="#000000" font-family="sans-serif" font-size="14" lengthAdjust="spacing" textLength="31.9102" x="5" y="77.9951">User</text><ellipse cx="23.9551" cy="13.5" fill="#E2E2F0" rx="8" ry="8" style="stroke:#181818;stroke-width:0.5;"/><path d="M23.9551,21.5 L23.9551,48.5 M10.9551,29.5 L36.9551,29.5 M23.9551,48.5 L10.9551,63.5 M23.9551,48.5 L36.9551,63.5" fill="none" style="stroke:#181818;stroke-width:0.5;"/></g><g class="participant participant-tail" data-participant="User"><text fill="#000000" font-family="sans-serif" font-size="14" lengthAdjust="spacing" textLength="31.9102" x="5" y="579.417">User</text><ellipse cx="23.9551" cy="591.2188" fill="#E2E2F0" rx="8" ry="8" style="stroke:#181818;stroke-width:0.5;"/><path d="M23.9551,599.2188 L23.9551,626.2188 M10.9551,607.2188 L36.9551,607.2188 M23.9551,626.2188 L10.9551,641.2188 M23.9551,626.2188 L36.9551,641.2188" fill="none" style="stroke:#181818;stroke-width:0.5;"/></g><g class="participant participant-head" data-participant="App"><rect fill="#E2E2F0" height="30.2969" rx="2.5" ry="2.5" style="stroke:#181818;stroke-width:0.5;" width="41.3506" x="281.1162" y="50"/><text fill="#000000" font-family="sans-serif" font-size="14" lengthAdjust="spacing" textLength="27.3506" x="288.1162" y="69.9951">App</text></g><g class="participant participant-tail" data-participant="App"><rect fill="#E2E2F0" height="30.2969" rx="2.5" ry="2.5" style="stroke:#181818;stroke-width:0.5;" width="41.3506" x="281.1162" y="566.4219"/><text fill="#000000" font-family="sans-serif" font-size="14" lengthAdjust="spacing" textLength="27.3506" x="288.1162" y="586.417">App</text></g><g class="participant participant-head" data-participant="Backend"><rect fill="#E2E2F0" height="30.2969" rx="2.5" ry="2.5" style="stroke:#181818;stroke-width:0.5;" width="74.3613" x="456.3032" y="50"/><text fill="#000000" font-family="sans-serif" font-size="14" lengthAdjust="spacing" textLength="60.3613" x="463.3032" y="69.9951">Backend</text></g><g class="participant participant-tail" data-participant="Backend"><rect fill="#E2E2F0" height="30.2969" rx="2.5" ry="2.5" style="stroke:#181818;stroke-width:0.5;" width="74.3613" x="456.3032" y="566.4219"/><text fill="#000000" font-family="sans-serif" font-size="14" lengthAdjust="spacing" textLength="60.3613" x="463.3032" y="586.417">Backend</text></g><g class="participant participant-head" data-participant="Database"><rect fill="#E2E2F0" height="30.2969" rx="2.5" ry="2.5" style="stroke:#181818;stroke-width:0.5;" width="80.8008" x="635.3369" y="50"/><text fill="#000000" font-family="sans-serif" font-size="14" lengthAdjust="spacing" textLength="66.8008" x="642.3369" y="69.9951">Database</text></g><g class="participant participant-tail" data-participant="Database"><rect fill="#E2E2F0" height="30.2969" rx="2.5" ry="2.5" style="stroke:#181818;stroke-width:0.5;" width="80.8008" x="635.3369" y="566.4219"/><text fill="#000000" font-family="sans-serif" font-size="14" lengthAdjust="spacing" textLength="66.8008" x="642.3369" y="586.417">Database</text></g><g class="message" data-participant-1="User" data-participant-2="App"><polygon fill="#181818" points="289.7915,108.4297,299.7915,112.4297,289.7915,116.4297,293.7915,112.4297" style="stroke:#181818;stroke-width:1;"/><line style="stroke:#181818;stroke-width:1;" x1="23.9551" x2="295.7915" y1="112.4297" y2="112.4297"/><text fill="#000000" font-family="sans-serif" font-size="13" lengthAdjust="spacing" textLength="64.251" x="30.9551" y="107.3638">Open App</text></g><g class="message" data-participant-1="App" data-participant-2="Backend"><polygon fill="#181818" points="481.4839,137.5625,491.4839,141.5625,481.4839,145.5625,485.4839,141.5625" style="stroke:#181818;stroke-width:1;"/><line style="stroke:#181818;stroke-width:1;" x1="301.7915" x2="487.4839" y1="141.5625" y2="141.5625"/><text fill="#000000" font-family="sans-serif" font-size="13" lengthAdjust="spacing" textLength="82.5576" x="308.7915" y="136.4966">Fetch Menus</text></g><g class="message" data-participant-1="Backend" data-participant-2="Database"><polygon fill="#181818" points="663.7373,166.6953,673.7373,170.6953,663.7373,174.6953,667.7373,170.6953" style="stroke:#181818;stroke-width:1;"/><line style="stroke:#181818;stroke-width:1;" x1="493.4839" x2="669.7373" y1="170.6953" y2="170.6953"/><text fill="#000000" font-family="sans-serif" font-size="13" lengthAdjust="spacing" textLength="86.106" x="500.4839" y="165.6294">Query Menus</text></g><g class="message" data-participant-1="Database" data-participant-2="Backend"><polygon fill="#181818" points="504.4839,195.8281,494.4839,199.8281,504.4839,203.8281,500.4839,199.8281" style="stroke:#181818;stroke-width:1;"/><line style="stroke:#181818;stroke-width:1;stroke-dasharray:2,2;" x1="498.4839" x2="674.7373" y1="199.8281" y2="199.8281"/><text fill="#000000" font-family="sans-serif" font-size="13" lengthAdjust="spacing" textLength="90.5493" x="510.4839" y="194.7622">Return Menus</text></g><g class="message" data-participant-1="Backend" data-participant-2="App"><polygon fill="#181818" points="312.7915,224.9609,302.7915,228.9609,312.7915,232.9609,308.7915,228.9609" style="stroke:#181818;stroke-width:1;"/><line style="stroke:#181818;stroke-width:1;stroke-dasharray:2,2;" x1="306.7915" x2="492.4839" y1="228.9609" y2="228.9609"/><text fill="#000000" font-family="sans-serif" font-size="13" lengthAdjust="spacing" textLength="90.5493" x="318.7915" y="223.895">Return Menus</text></g><g class="message" data-participant-1="User" data-participant-2="App"><polygon fill="#181818" points="289.7915,254.0938,299.7915,258.0938,289.7915,262.0938,293.7915,258.0938" style="stroke:#181818;stroke-width:1;"/><line style="stroke:#181818;stroke-width:1;" x1="23.9551" x2="295.7915" y1="258.0938" y2="258.0938"/><text fill="#000000" font-family="sans-serif" font-size="13" lengthAdjust="spacing" textLength="253.8364" x="30.9551" y="253.0278">Filter Products by Section/Search Term</text></g><g class="message" data-participant-1="App" data-participant-2="Backend"><polygon fill="#181818" points="481.4839,283.2266,491.4839,287.2266,481.4839,291.2266,485.4839,287.2266" style="stroke:#181818;stroke-width:1;"/><line style="stroke:#181818;stroke-width:1;" x1="301.7915" x2="487.4839" y1="287.2266" y2="287.2266"/><text fill="#000000" font-family="sans-serif" font-size="13" lengthAdjust="spacing" textLength="167.6924" x="308.7915" y="282.1606">Request Filtered Products</text></g><g class="message" data-participant-1="Backend" data-participant-2="Database"><polygon fill="#181818" points="663.7373,312.3594,673.7373,316.3594,663.7373,320.3594,667.7373,316.3594" style="stroke:#181818;stroke-width:1;"/><line style="stroke:#181818;stroke-width:1;" x1="493.4839" x2="669.7373" y1="316.3594" y2="316.3594"/><text fill="#000000" font-family="sans-serif" font-size="13" lengthAdjust="spacing" textLength="153.8101" x="500.4839" y="311.2935">Query Filtered Products</text></g><g class="message" data-participant-1="Database" data-participant-2="Backend"><polygon fill="#181818" points="504.4839,341.4922,494.4839,345.4922,504.4839,349.4922,500.4839,345.4922" style="stroke:#181818;stroke-width:1;"/><line style="stroke:#181818;stroke-width:1;stroke-dasharray:2,2;" x1="498.4839" x2="674.7373" y1="345.4922" y2="345.4922"/><text fill="#000000" font-family="sans-serif" font-size="13" lengthAdjust="spacing" textLength="158.2534" x="510.4839" y="340.4263">Return Filtered Products</text></g><g class="message" data-participant-1="Backend" data-participant-2="App"><polygon fill="#181818" points="312.7915,370.625,302.7915,374.625,312.7915,378.625,308.7915,374.625" style="stroke:#181818;stroke-width:1;"/><line style="stroke:#181818;stroke-width:1;stroke-dasharray:2,2;" x1="306.7915" x2="492.4839" y1="374.625" y2="374.625"/><text fill="#000000" font-family="sans-serif" font-size="13" lengthAdjust="spacing" textLength="158.2534" x="318.7915" y="369.5591">Return Filtered Products</text></g><g class="message" data-participant-1="User" data-participant-2="App"><polygon fill="#181818" points="289.7915,399.7578,299.7915,403.7578,289.7915,407.7578,293.7915,403.7578" style="stroke:#181818;stroke-width:1;"/><line style="stroke:#181818;stroke-width:1;" x1="23.9551" x2="295.7915" y1="403.7578" y2="403.7578"/><text fill="#000000" font-family="sans-serif" font-size="13" lengthAdjust="spacing" textLength="94.1104" x="30.9551" y="398.6919">Select Product</text></g><g class="message" data-participant-1="App" data-participant-2="Backend"><polygon fill="#181818" points="481.4839,428.8906,491.4839,432.8906,481.4839,436.8906,485.4839,432.8906" style="stroke:#181818;stroke-width:1;"/><line style="stroke:#181818;stroke-width:1;" x1="301.7915" x2="487.4839" y1="432.8906" y2="432.8906"/><text fill="#000000" font-family="sans-serif" font-size="13" lengthAdjust="spacing" textLength="132.3931" x="308.7915" y="427.8247">Fetch Product Detail</text></g><g class="message" data-participant-1="Backend" data-participant-2="Database"><polygon fill="#181818" points="663.7373,458.0234,673.7373,462.0234,663.7373,466.0234,667.7373,462.0234" style="stroke:#181818;stroke-width:1;"/><line style="stroke:#181818;stroke-width:1;" x1="493.4839" x2="669.7373" y1="462.0234" y2="462.0234"/><text fill="#000000" font-family="sans-serif" font-size="13" lengthAdjust="spacing" textLength="135.9414" x="500.4839" y="456.9575">Query Product Detail</text></g><g class="message" data-participant-1="Database" data-participant-2="Backend"><polygon fill="#181818" points="504.4839,487.1563,494.4839,491.1563,504.4839,495.1563,500.4839,491.1563" style="stroke:#181818;stroke-width:1;"/><line style="stroke:#181818;stroke-width:1;stroke-dasharray:2,2;" x1="498.4839" x2="674.7373" y1="491.1563" y2="491.1563"/><text fill="#000000" font-family="sans-serif" font-size="13" lengthAdjust="spacing" textLength="140.3848" x="510.4839" y="486.0903">Return Product Detail</text></g><g class="message" data-participant-1="Backend" data-participant-2="App"><polygon fill="#181818" points="312.7915,516.2891,302.7915,520.2891,312.7915,524.2891,308.7915,520.2891" style="stroke:#181818;stroke-width:1;"/><line style="stroke:#181818;stroke-width:1;stroke-dasharray:2,2;" x1="306.7915" x2="492.4839" y1="520.2891" y2="520.2891"/><text fill="#000000" font-family="sans-serif" font-size="13" lengthAdjust="spacing" textLength="140.3848" x="318.7915" y="515.2231">Return Product Detail</text></g><g class="message" data-participant-1="App" data-participant-2="User"><polygon fill="#181818" points="34.9551,545.4219,24.9551,549.4219,34.9551,553.4219,30.9551,549.4219" style="stroke:#181818;stroke-width:1;"/><line style="stroke:#181818;stroke-width:1;" x1="28.9551" x2="300.7915" y1="549.4219" y2="549.4219"/><text fill="#000000" font-family="sans-serif" font-size="13" lengthAdjust="spacing" textLength="144.3521" x="40.9551" y="544.356">Display Product Detail</text></g><!--SRC=[VP31hi8W44Nt_Og9U-E-YvTe6dVc-Qn-m4WdaRnA4OQ5VoyqO8H65WIOUpap5nGy6RXOCer6mr98ZOfXjTLw1MZ1xxcmG_5FQfZ5UCuD7J9UqTBiI9Uc2IrW_HE0BVngKZFQhr2Ce1RsnE861rBEDh4Oz8HfuS-HUKP3giBw4t4YTaQLZDGvK_EXzd9aVpsQQN22BLoVq9DWEQbDJsZyN6SozyN89teuiXoVq_06r08ipTKm5NOHREdCG_Oq-an9_VB_KOME6ELOor4ugo6-KOi4XIsD65Aqq4chHopxlW00]--></g></svg>