<svg xmlns="http://www.w3.org/2000/svg" xmlns:xlink="http://www.w3.org/1999/xlink" contentStyleType="text/css" data-diagram-type="SEQUENCE" height="298px" preserveAspectRatio="none" style="width:532px;height:298px;background:#FFFFFF;" version="1.1" viewBox="0 0 532 298" width="532px" zoomAndPan="magnify"><defs/><g><g><title>PerformanceData</title><rect fill="#000000" fill-opacity="0.00000" height="136.5313" width="8" x="65.4448" y="81.2969"/><line style="stroke:#181818;stroke-width:0.5;stroke-dasharray:5,5;" x1="69" x2="69" y1="81.2969" y2="217.8281"/></g><g><title>HRSystem</title><rect fill="#000000" fill-opacity="0.00000" height="136.5313" width="8" x="298.3335" y="81.2969"/><line style="stroke:#181818;stroke-width:0.5;stroke-dasharray:5,5;" x1="302.103" x2="302.103" y1="81.2969" y2="217.8281"/></g><g><title>Management</title><rect fill="#000000" fill-opacity="0.00000" height="136.5313" width="8" x="478.1367" y="81.2969"/><line style="stroke:#181818;stroke-width:0.5;stroke-dasharray:5,5;" x1="482.0249" x2="482.0249" y1="81.2969" y2="217.8281"/></g><g class="participant participant-head" data-participant="PerformanceData"><text fill="#000000" font-family="sans-serif" font-size="14" lengthAdjust="spacing" textLength="122.8896" x="5" y="77.9951">PerformanceData</text><ellipse cx="69.4448" cy="13.5" fill="#E2E2F0" rx="8" ry="8" style="stroke:#181818;stroke-width:0.5;"/><path d="M69.4448,21.5 L69.4448,48.5 M56.4448,29.5 L82.4448,29.5 M69.4448,48.5 L56.4448,63.5 M69.4448,48.5 L82.4448,63.5" fill="none" style="stroke:#181818;stroke-width:0.5;"/></g><g class="participant participant-tail" data-participant="PerformanceData"><text fill="#000000" font-family="sans-serif" font-size="14" lengthAdjust="spacing" textLength="122.8896" x="5" y="229.8232">PerformanceData</text><ellipse cx="69.4448" cy="241.625" fill="#E2E2F0" rx="8" ry="8" style="stroke:#181818;stroke-width:0.5;"/><path d="M69.4448,249.625 L69.4448,276.625 M56.4448,257.625 L82.4448,257.625 M69.4448,276.625 L56.4448,291.625 M69.4448,276.625 L82.4448,291.625" fill="none" style="stroke:#181818;stroke-width:0.5;"/></g><g class="participant participant-head" data-participant="HRSystem"><text fill="#000000" font-family="sans-serif" font-size="14" lengthAdjust="spacing" textLength="72.4609" x="263.103" y="77.9951">HRSystem</text><ellipse cx="302.3335" cy="13.5" fill="#E2E2F0" rx="8" ry="8" style="stroke:#181818;stroke-width:0.5;"/><path d="M302.3335,21.5 L302.3335,48.5 M289.3335,29.5 L315.3335,29.5 M302.3335,48.5 L289.3335,63.5 M302.3335,48.5 L315.3335,63.5" fill="none" style="stroke:#181818;stroke-width:0.5;"/></g><g class="participant participant-tail" data-participant="HRSystem"><text fill="#000000" font-family="sans-serif" font-size="14" lengthAdjust="spacing" textLength="72.4609" x="263.103" y="229.8232">HRSystem</text><ellipse cx="302.3335" cy="241.625" fill="#E2E2F0" rx="8" ry="8" style="stroke:#181818;stroke-width:0.5;"/><path d="M302.3335,249.625 L302.3335,276.625 M289.3335,257.625 L315.3335,257.625 M302.3335,276.625 L289.3335,291.625 M302.3335,276.625 L315.3335,291.625" fill="none" style="stroke:#181818;stroke-width:0.5;"/></g><g class="participant participant-head" data-participant="Management"><text fill="#000000" font-family="sans-serif" font-size="14" lengthAdjust="spacing" textLength="92.2236" x="433.0249" y="77.9951">Management</text><ellipse cx="482.1367" cy="13.5" fill="#E2E2F0" rx="8" ry="8" style="stroke:#181818;stroke-width:0.5;"/><path d="M482.1367,21.5 L482.1367,48.5 M469.1367,29.5 L495.1367,29.5 M482.1367,48.5 L469.1367,63.5 M482.1367,48.5 L495.1367,63.5" fill="none" style="stroke:#181818;stroke-width:0.5;"/></g><g class="participant participant-tail" data-participant="Management"><text fill="#000000" font-family="sans-serif" font-size="14" lengthAdjust="spacing" textLength="92.2236" x="433.0249" y="229.8232">Management</text><ellipse cx="482.1367" cy="241.625" fill="#E2E2F0" rx="8" ry="8" style="stroke:#181818;stroke-width:0.5;"/><path d="M482.1367,249.625 L482.1367,276.625 M469.1367,257.625 L495.1367,257.625 M482.1367,276.625 L469.1367,291.625 M482.1367,276.625 L495.1367,291.625" fill="none" style="stroke:#181818;stroke-width:0.5;"/></g><g class="message" data-participant-1="PerformanceData" data-participant-2="HRSystem"><polygon fill="#181818" points="290.3335,108.4297,300.3335,112.4297,290.3335,116.4297,294.3335,112.4297" style="stroke:#181818;stroke-width:1;"/><line style="stroke:#181818;stroke-width:1;" x1="69.4448" x2="296.3335" y1="112.4297" y2="112.4297"/><text fill="#000000" font-family="sans-serif" font-size="13" lengthAdjust="spacing" textLength="153.772" x="76.4448" y="107.3638">Send performance data</text></g><g class="message" data-participant-1="HRSystem" data-participant-2="Management"><polygon fill="#181818" points="470.1367,137.5625,480.1367,141.5625,470.1367,145.5625,474.1367,141.5625" style="stroke:#181818;stroke-width:1;"/><line style="stroke:#181818;stroke-width:1;" x1="302.3335" x2="476.1367" y1="141.5625" y2="141.5625"/><text fill="#000000" font-family="sans-serif" font-size="13" lengthAdjust="spacing" textLength="155.8032" x="309.3335" y="136.4966">Forward data for review</text></g><g class="message" data-participant-1="Management" data-participant-2="HRSystem"><polygon fill="#181818" points="313.3335,166.6953,303.3335,170.6953,313.3335,174.6953,309.3335,170.6953" style="stroke:#181818;stroke-width:1;"/><line style="stroke:#181818;stroke-width:1;" x1="307.3335" x2="481.1367" y1="170.6953" y2="170.6953"/><text fill="#000000" font-family="sans-serif" font-size="13" lengthAdjust="spacing" textLength="136.0874" x="319.3335" y="165.6294">Acknowledge receipt</text></g><g class="message" data-participant-1="HRSystem" data-participant-2="PerformanceData"><polygon fill="#181818" points="80.4448,195.8281,70.4448,199.8281,80.4448,203.8281,76.4448,199.8281" style="stroke:#181818;stroke-width:1;"/><line style="stroke:#181818;stroke-width:1;" x1="74.4448" x2="301.3335" y1="199.8281" y2="199.8281"/><text fill="#000000" font-family="sans-serif" font-size="13" lengthAdjust="spacing" textLength="208.8887" x="86.4448" y="194.7622">Confirmation of data processing</text></g><!--SRC=[NOvD2i9034RtSufSm0jq8OWYRWIn9mWpcM7G9YKJBBszRVqPscM-lEybw4qKRgHHj4FsT493XqjwkRTZCUg-unKP4tN4vjoc0BlzdswW9GxGLmB2xFpjPxQg6ZYB3gXXWM2gWD8hq-0gixOV_8DbU598DA6UScyhz-Qr1ex2CK-1PM6G-3dKgtWg9NDoRm00]--></g></svg>