<svg xmlns="http://www.w3.org/2000/svg" xmlns:xlink="http://www.w3.org/1999/xlink" contentStyleType="text/css" data-diagram-type="ACTIVITY" height="416px" preserveAspectRatio="none" style="width:414px;height:416px;background:#FFFFFF;" version="1.1" viewBox="0 0 414 416" width="414px" zoomAndPan="magnify"><defs/><g><ellipse cx="224.0381" cy="20" fill="#222222" rx="10" ry="10" style="stroke:#222222;stroke-width:1;"/><rect fill="#F1F1F1" height="33.9688" rx="12.5" ry="12.5" style="stroke:#181818;stroke-width:0.5;" width="215.1699" x="116.4531" y="50"/><text fill="#000000" font-family="sans-serif" font-size="12" lengthAdjust="spacing" textLength="195.1699" x="126.4531" y="71.1387">Incoming Multi-Channel Request</text><polygon fill="#F1F1F1" points="144.1458,103.9688,303.9304,103.9688,315.9304,115.9688,303.9304,127.9688,144.1458,127.9688,132.1458,115.9688,144.1458,103.9688" style="stroke:#181818;stroke-width:0.5;"/><text fill="#000000" font-family="sans-serif" font-size="11" lengthAdjust="spacing" textLength="159.7847" x="144.1458" y="119.7769">Preferred Channel Available?</text><text fill="#000000" font-family="sans-serif" font-size="11" lengthAdjust="spacing" textLength="19.0083" x="113.1375" y="113.3745">yes</text><text fill="#000000" font-family="sans-serif" font-size="11" lengthAdjust="spacing" textLength="13.7017" x="315.9304" y="113.3745">no</text><rect fill="#F1F1F1" height="33.9688" rx="12.5" ry="12.5" style="stroke:#181818;stroke-width:0.5;" width="219.7871" x="11" y="137.9688"/><text fill="#000000" font-family="sans-serif" font-size="12" lengthAdjust="spacing" textLength="199.7871" x="21" y="159.1074">System Opens Preferred Channel</text><rect fill="#F1F1F1" height="33.9688" rx="12.5" ry="12.5" style="stroke:#181818;stroke-width:0.5;" width="152.791" x="250.7871" y="137.9688"/><text fill="#000000" font-family="sans-serif" font-size="12" lengthAdjust="spacing" textLength="132.791" x="260.7871" y="159.1074">Open Default Channel</text><polygon fill="#F1F1F1" points="224.0381,177.9375,236.0381,189.9375,224.0381,201.9375,212.0381,189.9375,224.0381,177.9375" style="stroke:#181818;stroke-width:0.5;"/><rect fill="#F1F1F1" height="33.9688" rx="12.5" ry="12.5" style="stroke:#181818;stroke-width:0.5;" width="316.0859" x="65.9951" y="221.9375"/><text fill="#000000" font-family="sans-serif" font-size="12" lengthAdjust="spacing" textLength="296.0859" x="75.9951" y="243.0762">Route to Relevant Agent or Automated Response</text><rect fill="#F1F1F1" height="33.9688" rx="12.5" ry="12.5" style="stroke:#181818;stroke-width:0.5;" width="110.5625" x="168.7568" y="275.9063"/><text fill="#000000" font-family="sans-serif" font-size="12" lengthAdjust="spacing" textLength="90.5625" x="178.7568" y="297.0449">Log Interaction</text><rect fill="#F1F1F1" height="33.9688" rx="12.5" ry="12.5" style="stroke:#181818;stroke-width:0.5;" width="217.4551" x="115.3105" y="329.875"/><text fill="#000000" font-family="sans-serif" font-size="12" lengthAdjust="spacing" textLength="197.4551" x="125.3105" y="351.0137">Provide Feedback Option to User</text><ellipse cx="224.0381" cy="394.8438" fill="none" rx="11" ry="11" style="stroke:#222222;stroke-width:1;"/><ellipse cx="224.0381" cy="394.8438" fill="#222222" rx="6" ry="6" style="stroke:#222222;stroke-width:1;"/><line style="stroke:#181818;stroke-width:1;" x1="224.0381" x2="224.0381" y1="30" y2="50"/><polygon fill="#181818" points="220.0381,40,224.0381,50,228.0381,40,224.0381,44" style="stroke:#181818;stroke-width:1;"/><line style="stroke:#181818;stroke-width:1;" x1="132.1458" x2="120.8936" y1="115.9688" y2="115.9688"/><line style="stroke:#181818;stroke-width:1;" x1="120.8936" x2="120.8936" y1="115.9688" y2="137.9688"/><polygon fill="#181818" points="116.8936,127.9688,120.8936,137.9688,124.8936,127.9688,120.8936,131.9688" style="stroke:#181818;stroke-width:1;"/><line style="stroke:#181818;stroke-width:1;" x1="315.9304" x2="327.1826" y1="115.9688" y2="115.9688"/><line style="stroke:#181818;stroke-width:1;" x1="327.1826" x2="327.1826" y1="115.9688" y2="137.9688"/><polygon fill="#181818" points="323.1826,127.9688,327.1826,137.9688,331.1826,127.9688,327.1826,131.9688" style="stroke:#181818;stroke-width:1;"/><line style="stroke:#181818;stroke-width:1;" x1="120.8936" x2="120.8936" y1="171.9375" y2="189.9375"/><line style="stroke:#181818;stroke-width:1;" x1="120.8936" x2="212.0381" y1="189.9375" y2="189.9375"/><polygon fill="#181818" points="202.0381,185.9375,212.0381,189.9375,202.0381,193.9375,206.0381,189.9375" style="stroke:#181818;stroke-width:1;"/><line style="stroke:#181818;stroke-width:1;" x1="327.1826" x2="327.1826" y1="171.9375" y2="189.9375"/><line style="stroke:#181818;stroke-width:1;" x1="327.1826" x2="236.0381" y1="189.9375" y2="189.9375"/><polygon fill="#181818" points="246.0381,185.9375,236.0381,189.9375,246.0381,193.9375,242.0381,189.9375" style="stroke:#181818;stroke-width:1;"/><line style="stroke:#181818;stroke-width:1;" x1="224.0381" x2="224.0381" y1="83.9688" y2="103.9688"/><polygon fill="#181818" points="220.0381,93.9688,224.0381,103.9688,228.0381,93.9688,224.0381,97.9688" style="stroke:#181818;stroke-width:1;"/><line style="stroke:#181818;stroke-width:1;" x1="224.0381" x2="224.0381" y1="201.9375" y2="221.9375"/><polygon fill="#181818" points="220.0381,211.9375,224.0381,221.9375,228.0381,211.9375,224.0381,215.9375" style="stroke:#181818;stroke-width:1;"/><line style="stroke:#181818;stroke-width:1;" x1="224.0381" x2="224.0381" y1="255.9063" y2="275.9063"/><polygon fill="#181818" points="220.0381,265.9063,224.0381,275.9063,228.0381,265.9063,224.0381,269.9063" style="stroke:#181818;stroke-width:1;"/><line style="stroke:#181818;stroke-width:1;" x1="224.0381" x2="224.0381" y1="309.875" y2="329.875"/><polygon fill="#181818" points="220.0381,319.875,224.0381,329.875,228.0381,319.875,224.0381,323.875" style="stroke:#181818;stroke-width:1;"/><line style="stroke:#181818;stroke-width:1;" x1="224.0381" x2="224.0381" y1="363.8438" y2="383.8438"/><polygon fill="#181818" points="220.0381,373.8438,224.0381,383.8438,228.0381,373.8438,224.0381,377.8438" style="stroke:#181818;stroke-width:1;"/><!--SRC=[POv1QiD034NtSmejdKKlu5a4qr88j2Guv00J-ziPEfQSaMp8xJiE10hTQFFVV_fg8PjpzO4xcIAFzBqaYs_ljy2CH2tk2zIyYmDLfum1EQEdLzoi8QPmJTZlo6vWgXxGdIEgpmyrJ7ISmKh_YjuXAQXYUS8RHHyOGldz1-4-3cLQAuk1JCgOX3MmKJEYNCdKB2PJi29keREmmhlwIqOwi267pgAmBufJbZNse4-WluRkf-pQearwKMJlr6J-1G00]--></g></svg>