<svg xmlns="http://www.w3.org/2000/svg" xmlns:xlink="http://www.w3.org/1999/xlink" contentStyleType="text/css" data-diagram-type="ACTIVITY" height="352px" preserveAspectRatio="none" style="width:195px;height:352px;background:#FFFFFF;" version="1.1" viewBox="0 0 195 352" width="195px" zoomAndPan="magnify"><defs/><g><ellipse cx="97.6553" cy="20" fill="#222222" rx="10" ry="10" style="stroke:#222222;stroke-width:1;"/><rect fill="#F1F1F1" height="33.9688" rx="12.5" ry="12.5" style="stroke:#181818;stroke-width:0.5;" width="169.4961" x="12.9072" y="50"/><text fill="#000000" font-family="sans-serif" font-size="12" lengthAdjust="spacing" textLength="149.4961" x="22.9072" y="71.1387">User creates opportunity</text><rect fill="#F1F1F1" height="33.9688" rx="12.5" ry="12.5" style="stroke:#181818;stroke-width:0.5;" width="173.3105" x="11" y="103.9688"/><text fill="#000000" font-family="sans-serif" font-size="12" lengthAdjust="spacing" textLength="153.3105" x="21" y="125.1074">System enriches features</text><rect fill="#F1F1F1" height="33.9688" rx="12.5" ry="12.5" style="stroke:#181818;stroke-width:0.5;" width="127.7773" x="33.7666" y="157.9375"/><text fill="#000000" font-family="sans-serif" font-size="12" lengthAdjust="spacing" textLength="107.7773" x="43.7666" y="179.0762">ML Service scores</text><rect fill="#F1F1F1" height="33.9688" rx="12.5" ry="12.5" style="stroke:#181818;stroke-width:0.5;" width="169.7129" x="12.7988" y="211.9063"/><text fill="#000000" font-family="sans-serif" font-size="12" lengthAdjust="spacing" textLength="149.7129" x="22.7988" y="233.0449">System stores prediction</text><rect fill="#F1F1F1" height="33.9688" rx="12.5" ry="12.5" style="stroke:#181818;stroke-width:0.5;" width="128.1289" x="33.5908" y="265.875"/><text fill="#000000" font-family="sans-serif" font-size="12" lengthAdjust="spacing" textLength="108.1289" x="43.5908" y="287.0137">User saves record</text><ellipse cx="97.6553" cy="330.8438" fill="none" rx="11" ry="11" style="stroke:#222222;stroke-width:1;"/><ellipse cx="97.6553" cy="330.8438" fill="#222222" rx="6" ry="6" style="stroke:#222222;stroke-width:1;"/><line style="stroke:#181818;stroke-width:1;" x1="97.6553" x2="97.6553" y1="30" y2="50"/><polygon fill="#181818" points="93.6553,40,97.6553,50,101.6553,40,97.6553,44" style="stroke:#181818;stroke-width:1;"/><line style="stroke:#181818;stroke-width:1;" x1="97.6553" x2="97.6553" y1="83.9688" y2="103.9688"/><polygon fill="#181818" points="93.6553,93.9688,97.6553,103.9688,101.6553,93.9688,97.6553,97.9688" style="stroke:#181818;stroke-width:1;"/><line style="stroke:#181818;stroke-width:1;" x1="97.6553" x2="97.6553" y1="137.9375" y2="157.9375"/><polygon fill="#181818" points="93.6553,147.9375,97.6553,157.9375,101.6553,147.9375,97.6553,151.9375" style="stroke:#181818;stroke-width:1;"/><line style="stroke:#181818;stroke-width:1;" x1="97.6553" x2="97.6553" y1="191.9063" y2="211.9063"/><polygon fill="#181818" points="93.6553,201.9063,97.6553,211.9063,101.6553,201.9063,97.6553,205.9063" style="stroke:#181818;stroke-width:1;"/><line style="stroke:#181818;stroke-width:1;" x1="97.6553" x2="97.6553" y1="245.875" y2="265.875"/><polygon fill="#181818" points="93.6553,255.875,97.6553,265.875,101.6553,255.875,97.6553,259.875" style="stroke:#181818;stroke-width:1;"/><line style="stroke:#181818;stroke-width:1;" x1="97.6553" x2="97.6553" y1="299.8438" y2="319.8438"/><polygon fill="#181818" points="93.6553,309.8438,97.6553,319.8438,101.6553,309.8438,97.6553,313.8438" style="stroke:#181818;stroke-width:1;"/><!--SRC=[BOt13OGm30J_hi9ra1Qu5wA0o2mwFqWYso3HFJuTpvqPQJsg1T6qEep5K0FEVOnkSJQDkz2qt1uu6CrKlcdtZ4w3f_hClC0k5R1B_xCtz_Xj7ePD9RItyfvulP8RijyAKNRZ0G00]--></g></svg>