<svg xmlns="http://www.w3.org/2000/svg" xmlns:xlink="http://www.w3.org/1999/xlink" contentStyleType="text/css" data-diagram-type="ACTIVITY" height="444px" preserveAspectRatio="none" style="width:413px;height:444px;background:#FFFFFF;" version="1.1" viewBox="0 0 413 444" width="413px" zoomAndPan="magnify"><defs/><g><ellipse cx="201.3052" cy="20" fill="#222222" rx="10" ry="10" style="stroke:#222222;stroke-width:1;"/><rect fill="#F1F1F1" height="33.9688" rx="12.5" ry="12.5" style="stroke:#181818;stroke-width:0.5;" width="154.1328" x="124.2388" y="50"/><text fill="#000000" font-family="sans-serif" font-size="12" lengthAdjust="spacing" textLength="134.1328" x="134.2388" y="71.1387">User logs into account</text><rect fill="#F1F1F1" height="33.9688" rx="12.5" ry="12.5" style="stroke:#181818;stroke-width:0.5;" width="205.9121" x="98.3491" y="103.9688"/><text fill="#000000" font-family="sans-serif" font-size="12" lengthAdjust="spacing" textLength="185.9121" x="108.3491" y="125.1074">User views current information</text><rect fill="#F1F1F1" height="33.9688" rx="12.5" ry="12.5" style="stroke:#181818;stroke-width:0.5;" width="161.6855" x="120.4624" y="157.9375"/><text fill="#000000" font-family="sans-serif" font-size="12" lengthAdjust="spacing" textLength="141.6855" x="130.4624" y="179.0762">User selects edit option</text><rect fill="#F1F1F1" height="33.9688" rx="12.5" ry="12.5" style="stroke:#181818;stroke-width:0.5;" width="130.543" x="136.0337" y="211.9063"/><text fill="#000000" font-family="sans-serif" font-size="12" lengthAdjust="spacing" textLength="110.543" x="146.0337" y="233.0449">User updates data</text><polygon fill="#F1F1F1" points="159.5422,287.2739,243.0681,287.2739,255.0681,299.2739,243.0681,311.2739,159.5422,311.2739,147.5422,299.2739,159.5422,287.2739" style="stroke:#181818;stroke-width:0.5;"/><text fill="#000000" font-family="sans-serif" font-size="11" lengthAdjust="spacing" textLength="83.5259" x="159.5422" y="303.082">Changes valid?</text><text fill="#000000" font-family="sans-serif" font-size="11" lengthAdjust="spacing" textLength="19.0083" x="128.5339" y="296.6797">yes</text><text fill="#000000" font-family="sans-serif" font-size="11" lengthAdjust="spacing" textLength="13.7017" x="255.0681" y="296.6797">no</text><rect fill="#F1F1F1" height="33.9688" rx="12.5" ry="12.5" style="stroke:#181818;stroke-width:0.5;" width="174.7695" x="11" y="321.2739"/><text fill="#000000" font-family="sans-serif" font-size="12" lengthAdjust="spacing" textLength="154.7695" x="21" y="342.4126">System confirms changes</text><rect fill="#F1F1F1" height="33.9688" rx="12.5" ry="12.5" style="stroke:#181818;stroke-width:0.5;" width="196.9121" x="205.7695" y="321.2739"/><text fill="#000000" font-family="sans-serif" font-size="12" lengthAdjust="spacing" textLength="176.9121" x="215.7695" y="342.4126">System shows error message</text><polygon fill="#F1F1F1" points="201.3052,367.1416,213.3052,379.1416,201.3052,391.1416,189.3052,379.1416,201.3052,367.1416" style="stroke:#181818;stroke-width:0.5;"/><text fill="#000000" font-family="sans-serif" font-size="11" lengthAdjust="spacing" textLength="101.3311" x="213.3052" y="376.5474">User updates data</text><ellipse cx="201.3052" cy="422.1416" fill="none" rx="11" ry="11" style="stroke:#222222;stroke-width:1;"/><ellipse cx="201.3052" cy="422.1416" fill="#222222" rx="6" ry="6" style="stroke:#222222;stroke-width:1;"/><line style="stroke:#181818;stroke-width:1;" x1="201.3052" x2="201.3052" y1="30" y2="50"/><polygon fill="#181818" points="197.3052,40,201.3052,50,205.3052,40,201.3052,44" style="stroke:#181818;stroke-width:1;"/><line style="stroke:#181818;stroke-width:1;" x1="201.3052" x2="201.3052" y1="83.9688" y2="103.9688"/><polygon fill="#181818" points="197.3052,93.9688,201.3052,103.9688,205.3052,93.9688,201.3052,97.9688" style="stroke:#181818;stroke-width:1;"/><line style="stroke:#181818;stroke-width:1;" x1="201.3052" x2="201.3052" y1="137.9375" y2="157.9375"/><polygon fill="#181818" points="197.3052,147.9375,201.3052,157.9375,205.3052,147.9375,201.3052,151.9375" style="stroke:#181818;stroke-width:1;"/><line style="stroke:#181818;stroke-width:1;" x1="201.3052" x2="201.3052" y1="191.9063" y2="211.9063"/><polygon fill="#181818" points="197.3052,201.9063,201.3052,211.9063,205.3052,201.9063,201.3052,205.9063" style="stroke:#181818;stroke-width:1;"/><line style="stroke:#181818;stroke-width:1;" x1="147.5422" x2="98.3848" y1="299.2739" y2="299.2739"/><line style="stroke:#181818;stroke-width:1;" x1="98.3848" x2="98.3848" y1="299.2739" y2="321.2739"/><polygon fill="#181818" points="94.3848,311.2739,98.3848,321.2739,102.3848,311.2739,98.3848,315.2739" style="stroke:#181818;stroke-width:1;"/><line style="stroke:#181818;stroke-width:1;" x1="255.0681" x2="304.2256" y1="299.2739" y2="299.2739"/><line style="stroke:#181818;stroke-width:1;" x1="304.2256" x2="304.2256" y1="299.2739" y2="321.2739"/><polygon fill="#181818" points="300.2256,311.2739,304.2256,321.2739,308.2256,311.2739,304.2256,315.2739" style="stroke:#181818;stroke-width:1;"/><line style="stroke:#181818;stroke-width:1;" x1="98.3848" x2="98.3848" y1="355.2427" y2="379.1416"/><line style="stroke:#181818;stroke-width:1;" x1="98.3848" x2="189.3052" y1="379.1416" y2="379.1416"/><polygon fill="#181818" points="179.3052,375.1416,189.3052,379.1416,179.3052,383.1416,183.3052,379.1416" style="stroke:#181818;stroke-width:1;"/><line style="stroke:#181818;stroke-width:1;" x1="304.2256" x2="304.2256" y1="355.2427" y2="379.1416"/><line style="stroke:#181818;stroke-width:1;" x1="304.2256" x2="213.3052" y1="379.1416" y2="379.1416"/><polygon fill="#181818" points="223.3052,375.1416,213.3052,379.1416,223.3052,383.1416,219.3052,379.1416" style="stroke:#181818;stroke-width:1;"/><line style="stroke:#181818;stroke-width:1;" x1="201.3052" x2="201.3052" y1="245.875" y2="287.2739"/><polygon fill="#181818" points="197.3052,277.2739,201.3052,287.2739,205.3052,277.2739,201.3052,281.2739" style="stroke:#181818;stroke-width:1;"/><text fill="#000000" font-family="sans-serif" font-size="11" lengthAdjust="spacing" textLength="144.1226" x="205.3052" y="267.1797">System validates changes</text><line style="stroke:#181818;stroke-width:1;" x1="201.3052" x2="201.3052" y1="391.1416" y2="411.1416"/><polygon fill="#181818" points="197.3052,401.1416,201.3052,411.1416,205.3052,401.1416,201.3052,405.1416" style="stroke:#181818;stroke-width:1;"/><!--SRC=[ROv12eD034NtSueiTT4BABIB7g7q0CFurG5D98aMRzy1BRZe9X3U-_3Cete8pTkWDCbWbDc5OagoihSds38-HcbL1NinUj4vUXR-2OO9oOtGPITPhcXTkkWmAZUs8TpkzDhDCTCMftoWD4OUO6t8FLNFupdmeoOVmLJji3eGDUSs2VTPvyiKau4gbgjbevHig8hI3BCue2su9Fmf0tUv3y5SbYy0]--></g></svg>