<svg xmlns="http://www.w3.org/2000/svg" xmlns:xlink="http://www.w3.org/1999/xlink" contentStyleType="text/css" data-diagram-type="SEQUENCE" height="457px" preserveAspectRatio="none" style="width:661px;height:457px;background:#FFFFFF;" version="1.1" viewBox="0 0 661 457" width="661px" zoomAndPan="magnify"><defs/><g><g><title>Analyst</title><rect fill="#000000" fill-opacity="0.00000" height="295.1953" width="8" x="29.9937" y="81.2969"/><line style="stroke:#181818;stroke-width:0.5;stroke-dasharray:5,5;" x1="33" x2="33" y1="81.2969" y2="376.4922"/></g><g><title>Web App</title><rect fill="#000000" fill-opacity="0.00000" height="295.1953" width="8" x="153.2837" y="81.2969"/><line style="stroke:#181818;stroke-width:0.5;stroke-dasharray:5,5;" x1="156.7119" x2="156.7119" y1="81.2969" y2="376.4922"/></g><g><title>API Gateway</title><rect fill="#000000" fill-opacity="0.00000" height="295.1953" width="8" x="284.0894" y="81.2969"/><line style="stroke:#181818;stroke-width:0.5;stroke-dasharray:5,5;" x1="287.8677" x2="287.8677" y1="81.2969" y2="376.4922"/></g><g><title>Etimad API</title><rect fill="#000000" fill-opacity="0.00000" height="295.1953" width="8" x="390.2744" y="81.2969"/><line style="stroke:#181818;stroke-width:0.5;stroke-dasharray:5,5;" x1="393.311" x2="393.311" y1="81.2969" y2="376.4922"/></g><g><title>Warehouse</title><rect fill="#000000" fill-opacity="0.00000" height="295.1953" width="8" x="487.7427" y="81.2969"/><line style="stroke:#181818;stroke-width:0.5;stroke-dasharray:5,5;" x1="491.2378" x2="491.2378" y1="81.2969" y2="376.4922"/></g><g><title>Alerts Service</title><rect fill="#000000" fill-opacity="0.00000" height="295.1953" width="8" x="595.6528" y="81.2969"/><line style="stroke:#181818;stroke-width:0.5;stroke-dasharray:5,5;" x1="599.2476" x2="599.2476" y1="81.2969" y2="376.4922"/></g><g class="participant participant-head" data-participant="Analyst"><text fill="#000000" font-family="sans-serif" font-size="14" lengthAdjust="spacing" textLength="51.9873" x="5" y="77.9951">Analyst</text><ellipse cx="33.9937" cy="13.5" fill="#E2E2F0" rx="8" ry="8" style="stroke:#181818;stroke-width:0.5;"/><path d="M33.9937,21.5 L33.9937,48.5 M20.9937,29.5 L46.9937,29.5 M33.9937,48.5 L20.9937,63.5 M33.9937,48.5 L46.9937,63.5" fill="none" style="stroke:#181818;stroke-width:0.5;"/></g><g class="participant participant-tail" data-participant="Analyst"><text fill="#000000" font-family="sans-serif" font-size="14" lengthAdjust="spacing" textLength="51.9873" x="5" y="388.4873">Analyst</text><ellipse cx="33.9937" cy="400.2891" fill="#E2E2F0" rx="8" ry="8" style="stroke:#181818;stroke-width:0.5;"/><path d="M33.9937,408.2891 L33.9937,435.2891 M20.9937,416.2891 L46.9937,416.2891 M33.9937,435.2891 L20.9937,450.2891 M33.9937,435.2891 L46.9937,450.2891" fill="none" style="stroke:#181818;stroke-width:0.5;"/></g><g class="participant participant-head" data-participant="WebApp"><rect fill="#E2E2F0" height="30.2969" rx="2.5" ry="2.5" style="stroke:#181818;stroke-width:0.5;" width="77.1436" x="118.7119" y="50"/><text fill="#000000" font-family="sans-serif" font-size="14" lengthAdjust="spacing" textLength="63.1436" x="125.7119" y="69.9951">Web App</text></g><g class="participant participant-tail" data-participant="WebApp"><rect fill="#E2E2F0" height="30.2969" rx="2.5" ry="2.5" style="stroke:#181818;stroke-width:0.5;" width="77.1436" x="118.7119" y="375.4922"/><text fill="#000000" font-family="sans-serif" font-size="14" lengthAdjust="spacing" textLength="63.1436" x="125.7119" y="395.4873">Web App</text></g><g class="participant participant-head" data-participant="APIGateway"><rect fill="#E2E2F0" height="30.2969" rx="2.5" ry="2.5" style="stroke:#181818;stroke-width:0.5;" width="102.4434" x="236.8677" y="50"/><text fill="#000000" font-family="sans-serif" font-size="14" lengthAdjust="spacing" textLength="88.4434" x="243.8677" y="69.9951">API Gateway</text></g><g class="participant participant-tail" data-participant="APIGateway"><rect fill="#E2E2F0" height="30.2969" rx="2.5" ry="2.5" style="stroke:#181818;stroke-width:0.5;" width="102.4434" x="236.8677" y="375.4922"/><text fill="#000000" font-family="sans-serif" font-size="14" lengthAdjust="spacing" textLength="88.4434" x="243.8677" y="395.4873">API Gateway</text></g><g class="participant participant-head" data-participant="EtimadAPI"><rect fill="#E2E2F0" height="30.2969" rx="2.5" ry="2.5" style="stroke:#181818;stroke-width:0.5;" width="89.9268" x="349.311" y="50"/><text fill="#000000" font-family="sans-serif" font-size="14" lengthAdjust="spacing" textLength="75.9268" x="356.311" y="69.9951">Etimad API</text></g><g class="participant participant-tail" data-participant="EtimadAPI"><rect fill="#E2E2F0" height="30.2969" rx="2.5" ry="2.5" style="stroke:#181818;stroke-width:0.5;" width="89.9268" x="349.311" y="375.4922"/><text fill="#000000" font-family="sans-serif" font-size="14" lengthAdjust="spacing" textLength="75.9268" x="356.311" y="395.4873">Etimad API</text></g><g class="participant participant-head" data-participant="Warehouse"><text fill="#000000" font-family="sans-serif" font-size="14" lengthAdjust="spacing" textLength="79.0098" x="449.2378" y="77.9951">Warehouse</text><path d="M473.7427,29 C473.7427,19 491.7427,19 491.7427,19 C491.7427,19 509.7427,19 509.7427,29 L509.7427,55 C509.7427,65 491.7427,65 491.7427,65 C491.7427,65 473.7427,65 473.7427,55 L473.7427,29" fill="#E2E2F0" style="stroke:#181818;stroke-width:0.5;"/><path d="M473.7427,29 C473.7427,39 491.7427,39 491.7427,39 C491.7427,39 509.7427,39 509.7427,29" fill="none" style="stroke:#181818;stroke-width:0.5;"/></g><g class="participant participant-tail" data-participant="Warehouse"><text fill="#000000" font-family="sans-serif" font-size="14" lengthAdjust="spacing" textLength="79.0098" x="449.2378" y="388.4873">Warehouse</text><path d="M473.7427,401.7891 C473.7427,391.7891 491.7427,391.7891 491.7427,391.7891 C491.7427,391.7891 509.7427,391.7891 509.7427,401.7891 L509.7427,427.7891 C509.7427,437.7891 491.7427,437.7891 491.7427,437.7891 C491.7427,437.7891 473.7427,437.7891 473.7427,427.7891 L473.7427,401.7891" fill="#E2E2F0" style="stroke:#181818;stroke-width:0.5;"/><path d="M473.7427,401.7891 C473.7427,411.7891 491.7427,411.7891 491.7427,411.7891 C491.7427,411.7891 509.7427,411.7891 509.7427,401.7891" fill="none" style="stroke:#181818;stroke-width:0.5;"/></g><g class="participant participant-head" data-participant="AlertsService"><rect fill="#E2E2F0" height="30.2969" rx="2.5" ry="2.5" style="stroke:#181818;stroke-width:0.5;" width="110.8105" x="544.2476" y="50"/><text fill="#000000" font-family="sans-serif" font-size="14" lengthAdjust="spacing" textLength="96.8105" x="551.2476" y="69.9951">Alerts Service</text></g><g class="participant participant-tail" data-participant="AlertsService"><rect fill="#E2E2F0" height="30.2969" rx="2.5" ry="2.5" style="stroke:#181818;stroke-width:0.5;" width="110.8105" x="544.2476" y="375.4922"/><text fill="#000000" font-family="sans-serif" font-size="14" lengthAdjust="spacing" textLength="96.8105" x="551.2476" y="395.4873">Alerts Service</text></g><g class="message" data-participant-1="Analyst" data-participant-2="WebApp"><polygon fill="#181818" points="145.2837,108.4297,155.2837,112.4297,145.2837,116.4297,149.2837,112.4297" style="stroke:#181818;stroke-width:1;"/><line style="stroke:#181818;stroke-width:1;" x1="33.9937" x2="151.2837" y1="112.4297" y2="112.4297"/><text fill="#000000" font-family="sans-serif" font-size="13" lengthAdjust="spacing" textLength="99.29" x="40.9937" y="107.3638">Initiate request</text></g><g class="message" data-participant-1="WebApp" data-participant-2="APIGateway"><polygon fill="#181818" points="276.0894,137.5625,286.0894,141.5625,276.0894,145.5625,280.0894,141.5625" style="stroke:#181818;stroke-width:1;"/><line style="stroke:#181818;stroke-width:1;" x1="157.2837" x2="282.0894" y1="141.5625" y2="141.5625"/><text fill="#000000" font-family="sans-serif" font-size="13" lengthAdjust="spacing" textLength="106.8057" x="164.2837" y="136.4966">Forward request</text></g><g class="message" data-participant-1="APIGateway" data-participant-2="EtimadAPI"><polygon fill="#181818" points="382.2744,166.6953,392.2744,170.6953,382.2744,174.6953,386.2744,170.6953" style="stroke:#181818;stroke-width:1;"/><line style="stroke:#181818;stroke-width:1;" x1="288.0894" x2="388.2744" y1="170.6953" y2="170.6953"/><text fill="#000000" font-family="sans-serif" font-size="13" lengthAdjust="spacing" textLength="69.3735" x="295.0894" y="165.6294">Fetch data</text></g><g class="message" data-participant-1="EtimadAPI" data-participant-2="APIGateway"><polygon fill="#181818" points="299.0894,195.8281,289.0894,199.8281,299.0894,203.8281,295.0894,199.8281" style="stroke:#181818;stroke-width:1;"/><line style="stroke:#181818;stroke-width:1;" x1="293.0894" x2="393.2744" y1="199.8281" y2="199.8281"/><text fill="#000000" font-family="sans-serif" font-size="13" lengthAdjust="spacing" textLength="77.3652" x="305.0894" y="194.7622">Return data</text></g><g class="message" data-participant-1="APIGateway" data-participant-2="WebApp"><polygon fill="#181818" points="168.2837,224.9609,158.2837,228.9609,168.2837,232.9609,164.2837,228.9609" style="stroke:#181818;stroke-width:1;"/><line style="stroke:#181818;stroke-width:1;" x1="162.2837" x2="287.0894" y1="228.9609" y2="228.9609"/><text fill="#000000" font-family="sans-serif" font-size="13" lengthAdjust="spacing" textLength="77.3652" x="174.2837" y="223.895">Return data</text></g><g class="message" data-participant-1="WebApp" data-participant-2="Warehouse"><polygon fill="#181818" points="479.7427,254.0938,489.7427,258.0938,479.7427,262.0938,483.7427,258.0938" style="stroke:#181818;stroke-width:1;"/><line style="stroke:#181818;stroke-width:1;" x1="157.2837" x2="485.7427" y1="258.0938" y2="258.0938"/><text fill="#000000" font-family="sans-serif" font-size="13" lengthAdjust="spacing" textLength="68.0596" x="164.2837" y="253.0278">Store data</text></g><g class="message" data-participant-1="Warehouse" data-participant-2="WebApp"><polygon fill="#181818" points="168.2837,283.2266,158.2837,287.2266,168.2837,291.2266,164.2837,287.2266" style="stroke:#181818;stroke-width:1;"/><line style="stroke:#181818;stroke-width:1;" x1="162.2837" x2="490.7427" y1="287.2266" y2="287.2266"/><text fill="#000000" font-family="sans-serif" font-size="13" lengthAdjust="spacing" textLength="104.9839" x="174.2837" y="282.1606">Confirm storage</text></g><g class="message" data-participant-1="WebApp" data-participant-2="WebApp"><line style="stroke:#181818;stroke-width:1;" x1="157.2837" x2="199.2837" y1="316.3594" y2="316.3594"/><line style="stroke:#181818;stroke-width:1;" x1="199.2837" x2="199.2837" y1="316.3594" y2="329.3594"/><line style="stroke:#181818;stroke-width:1;" x1="158.2837" x2="199.2837" y1="329.3594" y2="329.3594"/><polygon fill="#181818" points="168.2837,325.3594,158.2837,329.3594,168.2837,333.3594,164.2837,329.3594" style="stroke:#181818;stroke-width:1;"/><text fill="#000000" font-family="sans-serif" font-size="13" lengthAdjust="spacing" textLength="99.2075" x="164.2837" y="311.2935">Compute index</text></g><g class="message" data-participant-1="WebApp" data-participant-2="AlertsService"><polygon fill="#181818" points="587.6528,354.4922,597.6528,358.4922,587.6528,362.4922,591.6528,358.4922" style="stroke:#181818;stroke-width:1;"/><line style="stroke:#181818;stroke-width:1;" x1="157.2837" x2="593.6528" y1="358.4922" y2="358.4922"/><text fill="#000000" font-family="sans-serif" font-size="13" lengthAdjust="spacing" textLength="130.0952" x="164.2837" y="353.4263">Schedule reminders</text></g><!--SRC=[NP4nRiCm34LtduB8tWjuA60KRP6jQ8RCZCJM0cnPfUYckNsfIBRbRFhy3-GdXKOcXixZS8lI16HnnWNq0eSpNQ0BuG0OGT_wtFlTnn7UKUYAjpkZkiWzzofkH9liEvQbgiQYu0KZwIXawgSvKXwsg8Tv0x54E17_EfF9N2gLfYbhmDDp2Tp2qJjncWgOVcRI5REHa2rl2syJNv7jIcrU8jV82fAO7bBoPgq-DliacTbdQDzeILKJMw1rxnPE-YjK_ALQDtYP_9VZ4Q9o-4rravKOmwnxEs_fhzwwFfaECZtPUKZt6HFAyHy0]--></g></svg>