<svg xmlns="http://www.w3.org/2000/svg" xmlns:xlink="http://www.w3.org/1999/xlink" contentStyleType="text/css" data-diagram-type="SEQUENCE" height="340px" preserveAspectRatio="none" style="width:432px;height:340px;background:#FFFFFF;" version="1.1" viewBox="0 0 432 340" width="432px" zoomAndPan="magnify"><defs/><g><g><title>User</title><rect fill="#000000" fill-opacity="0.00000" height="178.6641" width="8" x="19.9551" y="81.2969"/><line style="stroke:#181818;stroke-width:0.5;stroke-dasharray:5,5;" x1="23" x2="23" y1="81.2969" y2="259.9609"/></g><g><title>App</title><rect fill="#000000" fill-opacity="0.00000" height="178.6641" width="8" x="139.8428" y="81.2969"/><line style="stroke:#181818;stroke-width:0.5;stroke-dasharray:5,5;" x1="143.1675" x2="143.1675" y1="81.2969" y2="259.9609"/></g><g><title>Search Service</title><rect fill="#000000" fill-opacity="0.00000" height="178.6641" width="8" x="336.2261" y="81.2969"/><line style="stroke:#181818;stroke-width:0.5;stroke-dasharray:5,5;" x1="339.9277" x2="339.9277" y1="81.2969" y2="259.9609"/></g><g class="participant participant-head" data-participant="User"><text fill="#000000" font-family="sans-serif" font-size="14" lengthAdjust="spacing" textLength="31.9102" x="5" y="77.9951">User</text><ellipse cx="23.9551" cy="13.5" fill="#E2E2F0" rx="8" ry="8" style="stroke:#181818;stroke-width:0.5;"/><path d="M23.9551,21.5 L23.9551,48.5 M10.9551,29.5 L36.9551,29.5 M23.9551,48.5 L10.9551,63.5 M23.9551,48.5 L36.9551,63.5" fill="none" style="stroke:#181818;stroke-width:0.5;"/></g><g class="participant participant-tail" data-participant="User"><text fill="#000000" font-family="sans-serif" font-size="14" lengthAdjust="spacing" textLength="31.9102" x="5" y="271.9561">User</text><ellipse cx="23.9551" cy="283.7578" fill="#E2E2F0" rx="8" ry="8" style="stroke:#181818;stroke-width:0.5;"/><path d="M23.9551,291.7578 L23.9551,318.7578 M10.9551,299.7578 L36.9551,299.7578 M23.9551,318.7578 L10.9551,333.7578 M23.9551,318.7578 L36.9551,333.7578" fill="none" style="stroke:#181818;stroke-width:0.5;"/></g><g class="participant participant-head" data-participant="App"><rect fill="#E2E2F0" height="30.2969" rx="2.5" ry="2.5" style="stroke:#181818;stroke-width:0.5;" width="41.3506" x="123.1675" y="50"/><text fill="#000000" font-family="sans-serif" font-size="14" lengthAdjust="spacing" textLength="27.3506" x="130.1675" y="69.9951">App</text></g><g class="participant participant-tail" data-participant="App"><rect fill="#E2E2F0" height="30.2969" rx="2.5" ry="2.5" style="stroke:#181818;stroke-width:0.5;" width="41.3506" x="123.1675" y="258.9609"/><text fill="#000000" font-family="sans-serif" font-size="14" lengthAdjust="spacing" textLength="27.3506" x="130.1675" y="278.9561">App</text></g><g class="participant participant-head" data-participant="SearchService"><rect fill="#E2E2F0" height="30.2969" rx="2.5" ry="2.5" style="stroke:#181818;stroke-width:0.5;" width="118.5967" x="280.9277" y="50"/><text fill="#000000" font-family="sans-serif" font-size="14" lengthAdjust="spacing" textLength="104.5967" x="287.9277" y="69.9951">Search Service</text></g><g class="participant participant-tail" data-participant="SearchService"><rect fill="#E2E2F0" height="30.2969" rx="2.5" ry="2.5" style="stroke:#181818;stroke-width:0.5;" width="118.5967" x="280.9277" y="258.9609"/><text fill="#000000" font-family="sans-serif" font-size="14" lengthAdjust="spacing" textLength="104.5967" x="287.9277" y="278.9561">Search Service</text></g><g class="message" data-participant-1="User" data-participant-2="App"><polygon fill="#181818" points="131.8428,108.4297,141.8428,112.4297,131.8428,116.4297,135.8428,112.4297" style="stroke:#181818;stroke-width:1;"/><line style="stroke:#181818;stroke-width:1;" x1="23.9551" x2="137.8428" y1="112.4297" y2="112.4297"/><text fill="#000000" font-family="sans-serif" font-size="13" lengthAdjust="spacing" textLength="73.5439" x="30.9551" y="107.3638">Type query</text></g><g class="message" data-participant-1="App" data-participant-2="SearchService"><polygon fill="#181818" points="328.2261,137.5625,338.2261,141.5625,328.2261,145.5625,332.2261,141.5625" style="stroke:#181818;stroke-width:1;"/><line style="stroke:#181818;stroke-width:1;" x1="143.8428" x2="334.2261" y1="141.5625" y2="141.5625"/><text fill="#000000" font-family="sans-serif" font-size="13" lengthAdjust="spacing" textLength="74.4009" x="150.8428" y="136.4966">Send query</text></g><g class="message" data-participant-1="SearchService" data-participant-2="SearchService"><line style="stroke:#181818;stroke-width:1;" x1="340.2261" x2="382.2261" y1="170.6953" y2="170.6953"/><line style="stroke:#181818;stroke-width:1;" x1="382.2261" x2="382.2261" y1="170.6953" y2="183.6953"/><line style="stroke:#181818;stroke-width:1;" x1="341.2261" x2="382.2261" y1="183.6953" y2="183.6953"/><polygon fill="#181818" points="351.2261,179.6953,341.2261,183.6953,351.2261,187.6953,347.2261,183.6953" style="stroke:#181818;stroke-width:1;"/><text fill="#000000" font-family="sans-serif" font-size="13" lengthAdjust="spacing" textLength="77.8477" x="347.2261" y="165.6294">Apply filters</text></g><g class="message" data-participant-1="SearchService" data-participant-2="App"><polygon fill="#181818" points="154.8428,208.8281,144.8428,212.8281,154.8428,216.8281,150.8428,212.8281" style="stroke:#181818;stroke-width:1;"/><line style="stroke:#181818;stroke-width:1;" x1="148.8428" x2="339.2261" y1="212.8281" y2="212.8281"/><text fill="#000000" font-family="sans-serif" font-size="13" lengthAdjust="spacing" textLength="172.3833" x="160.8428" y="207.7622">Return ranked restaurants</text></g><g class="message" data-participant-1="App" data-participant-2="User"><polygon fill="#181818" points="34.9551,237.9609,24.9551,241.9609,34.9551,245.9609,30.9551,241.9609" style="stroke:#181818;stroke-width:1;"/><line style="stroke:#181818;stroke-width:1;" x1="28.9551" x2="142.8428" y1="241.9609" y2="241.9609"/><text fill="#000000" font-family="sans-serif" font-size="13" lengthAdjust="spacing" textLength="95.8877" x="40.9551" y="236.895">Display results</text></g><!--SRC=[ROv12W8n34NtFKMOlHVeGX0yWQC729s8nL9ZaWgz_RGwBeekty_BJp3OG-2Y98vHB8R8c0qEp0DFCw646ymahnXe0bJuH5lYNE-0tRwlUZXN9dWMakeQztYmVSEyRC8m-QEsWbJX6fEHwA_zldSYAv91CDzf0I4rB0rCl-VxTnwEKJbXxK99fYi0]--></g></svg>