<svg xmlns="http://www.w3.org/2000/svg" xmlns:xlink="http://www.w3.org/1999/xlink" contentStyleType="text/css" data-diagram-type="ACTIVITY" height="688px" preserveAspectRatio="none" style="width:195px;height:688px;background:#FFFFFF;" version="1.1" viewBox="0 0 195 688" width="195px" zoomAndPan="magnify"><defs/><g><ellipse cx="93.7383" cy="20" fill="#222222" rx="10" ry="10" style="stroke:#222222;stroke-width:1;"/><rect fill="#F1F1F1" height="33.9688" rx="12.5" ry="12.5" style="stroke:#181818;stroke-width:0.5;" width="163.291" x="12.0928" y="50"/><text fill="#000000" font-family="sans-serif" font-size="12" lengthAdjust="spacing" textLength="143.291" x="22.0928" y="71.1387">User Adds Items to Cart</text><rect fill="#F1F1F1" height="33.9688" rx="12.5" ry="12.5" style="stroke:#181818;stroke-width:0.5;" width="125.5098" x="30.9834" y="173.77"/><text fill="#000000" font-family="sans-serif" font-size="12" lengthAdjust="spacing" textLength="105.5098" x="40.9834" y="194.9087">Modify Quantities</text><polygon fill="#F1F1F1" points="42.4604,125.3677,145.0161,125.3677,157.0161,137.3677,145.0161,149.3677,42.4604,149.3677,30.4604,137.3677,42.4604,125.3677" style="stroke:#181818;stroke-width:0.5;"/><text fill="#000000" font-family="sans-serif" font-size="11" lengthAdjust="spacing" textLength="19.0083" x="97.7383" y="159.5781">yes</text><text fill="#000000" font-family="sans-serif" font-size="11" lengthAdjust="spacing" textLength="102.5557" x="42.4604" y="141.1758">Modify Quantities?</text><polygon fill="#F1F1F1" points="93.7383,227.7388,105.7383,239.7388,93.7383,251.7388,81.7383,239.7388,93.7383,227.7388" style="stroke:#181818;stroke-width:0.5;"/><rect fill="#F1F1F1" height="33.9688" rx="12.5" ry="12.5" style="stroke:#181818;stroke-width:0.5;" width="149.7031" x="18.8867" y="293.1377"/><text fill="#000000" font-family="sans-serif" font-size="12" lengthAdjust="spacing" textLength="129.7031" x="28.8867" y="314.2764">Enter Address Details</text><rect fill="#F1F1F1" height="33.9688" rx="12.5" ry="12.5" style="stroke:#181818;stroke-width:0.5;" width="162.7285" x="12.374" y="347.1064"/><text fill="#000000" font-family="sans-serif" font-size="12" lengthAdjust="spacing" textLength="142.7285" x="22.374" y="368.2451">Select Payment Method</text><rect fill="#F1F1F1" height="33.9688" rx="12.5" ry="12.5" style="stroke:#181818;stroke-width:0.5;" width="101.9141" x="42.7813" y="449.4775"/><text fill="#000000" font-family="sans-serif" font-size="12" lengthAdjust="spacing" textLength="81.9141" x="52.7813" y="470.6162">Enter Coupon</text><polygon fill="#F1F1F1" points="53.2751,401.0752,134.2014,401.0752,146.2014,413.0752,134.2014,425.0752,53.2751,425.0752,41.2751,413.0752,53.2751,401.0752" style="stroke:#181818;stroke-width:0.5;"/><text fill="#000000" font-family="sans-serif" font-size="11" lengthAdjust="spacing" textLength="19.0083" x="97.7383" y="435.2856">yes</text><text fill="#000000" font-family="sans-serif" font-size="11" lengthAdjust="spacing" textLength="80.9263" x="53.2751" y="416.8833">Enter Coupon?</text><polygon fill="#F1F1F1" points="93.7383,503.4463,105.7383,515.4463,93.7383,527.4463,81.7383,515.4463,93.7383,503.4463" style="stroke:#181818;stroke-width:0.5;"/><rect fill="#F1F1F1" height="33.9688" rx="12.5" ry="12.5" style="stroke:#181818;stroke-width:0.5;" width="165.4766" x="11" y="547.4463"/><text fill="#000000" font-family="sans-serif" font-size="12" lengthAdjust="spacing" textLength="145.4766" x="21" y="568.585">Finalize Order Summary</text><rect fill="#F1F1F1" height="33.9688" rx="12.5" ry="12.5" style="stroke:#181818;stroke-width:0.5;" width="100.6953" x="43.3906" y="601.415"/><text fill="#000000" font-family="sans-serif" font-size="12" lengthAdjust="spacing" textLength="80.6953" x="53.3906" y="622.5537">Submit Order</text><ellipse cx="93.7383" cy="666.3838" fill="none" rx="11" ry="11" style="stroke:#222222;stroke-width:1;"/><ellipse cx="93.7383" cy="666.3838" fill="#222222" rx="6" ry="6" style="stroke:#222222;stroke-width:1;"/><line style="stroke:#181818;stroke-width:1;" x1="93.7383" x2="93.7383" y1="30" y2="50"/><polygon fill="#181818" points="89.7383,40,93.7383,50,97.7383,40,93.7383,44" style="stroke:#181818;stroke-width:1;"/><line style="stroke:#181818;stroke-width:1;" x1="93.7383" x2="93.7383" y1="149.3677" y2="173.77"/><polygon fill="#181818" points="89.7383,163.77,93.7383,173.77,97.7383,163.77,93.7383,167.77" style="stroke:#181818;stroke-width:1;"/><line style="stroke:#181818;stroke-width:1;" x1="157.0161" x2="169.0161" y1="137.3677" y2="137.3677"/><polygon fill="#181818" points="165.0161,180.7544,169.0161,190.7544,173.0161,180.7544,169.0161,184.7544" style="stroke:#181818;stroke-width:1;"/><line style="stroke:#181818;stroke-width:1;" x1="169.0161" x2="169.0161" y1="137.3677" y2="239.7388"/><line style="stroke:#181818;stroke-width:1;" x1="169.0161" x2="105.7383" y1="239.7388" y2="239.7388"/><polygon fill="#181818" points="115.7383,235.7388,105.7383,239.7388,115.7383,243.7388,111.7383,239.7388" style="stroke:#181818;stroke-width:1;"/><line style="stroke:#181818;stroke-width:1;" x1="93.7383" x2="93.7383" y1="207.7388" y2="227.7388"/><polygon fill="#181818" points="89.7383,217.7388,93.7383,227.7388,97.7383,217.7388,93.7383,221.7388" style="stroke:#181818;stroke-width:1;"/><line style="stroke:#181818;stroke-width:1;" x1="93.7383" x2="93.7383" y1="83.9688" y2="125.3677"/><polygon fill="#181818" points="89.7383,115.3677,93.7383,125.3677,97.7383,115.3677,93.7383,119.3677" style="stroke:#181818;stroke-width:1;"/><text fill="#000000" font-family="sans-serif" font-size="11" lengthAdjust="spacing" textLength="53.0986" x="97.7383" y="105.2734">View Cart</text><line style="stroke:#181818;stroke-width:1;" x1="93.7383" x2="93.7383" y1="251.7388" y2="293.1377"/><polygon fill="#181818" points="89.7383,283.1377,93.7383,293.1377,97.7383,283.1377,93.7383,287.1377" style="stroke:#181818;stroke-width:1;"/><text fill="#000000" font-family="sans-serif" font-size="11" lengthAdjust="spacing" textLength="51.8525" x="97.7383" y="273.0435">Checkout</text><line style="stroke:#181818;stroke-width:1;" x1="93.7383" x2="93.7383" y1="327.1064" y2="347.1064"/><polygon fill="#181818" points="89.7383,337.1064,93.7383,347.1064,97.7383,337.1064,93.7383,341.1064" style="stroke:#181818;stroke-width:1;"/><line style="stroke:#181818;stroke-width:1;" x1="93.7383" x2="93.7383" y1="425.0752" y2="449.4775"/><polygon fill="#181818" points="89.7383,439.4775,93.7383,449.4775,97.7383,439.4775,93.7383,443.4775" style="stroke:#181818;stroke-width:1;"/><line style="stroke:#181818;stroke-width:1;" x1="146.2014" x2="158.2014" y1="413.0752" y2="413.0752"/><polygon fill="#181818" points="154.2014,456.4619,158.2014,466.4619,162.2014,456.4619,158.2014,460.4619" style="stroke:#181818;stroke-width:1;"/><line style="stroke:#181818;stroke-width:1;" x1="158.2014" x2="158.2014" y1="413.0752" y2="515.4463"/><line style="stroke:#181818;stroke-width:1;" x1="158.2014" x2="105.7383" y1="515.4463" y2="515.4463"/><polygon fill="#181818" points="115.7383,511.4463,105.7383,515.4463,115.7383,519.4463,111.7383,515.4463" style="stroke:#181818;stroke-width:1;"/><line style="stroke:#181818;stroke-width:1;" x1="93.7383" x2="93.7383" y1="483.4463" y2="503.4463"/><polygon fill="#181818" points="89.7383,493.4463,93.7383,503.4463,97.7383,493.4463,93.7383,497.4463" style="stroke:#181818;stroke-width:1;"/><line style="stroke:#181818;stroke-width:1;" x1="93.7383" x2="93.7383" y1="381.0752" y2="401.0752"/><polygon fill="#181818" points="89.7383,391.0752,93.7383,401.0752,97.7383,391.0752,93.7383,395.0752" style="stroke:#181818;stroke-width:1;"/><line style="stroke:#181818;stroke-width:1;" x1="93.7383" x2="93.7383" y1="527.4463" y2="547.4463"/><polygon fill="#181818" points="89.7383,537.4463,93.7383,547.4463,97.7383,537.4463,93.7383,541.4463" style="stroke:#181818;stroke-width:1;"/><line style="stroke:#181818;stroke-width:1;" x1="93.7383" x2="93.7383" y1="581.415" y2="601.415"/><polygon fill="#181818" points="89.7383,591.415,93.7383,601.415,97.7383,591.415,93.7383,595.415" style="stroke:#181818;stroke-width:1;"/><line style="stroke:#181818;stroke-width:1;" x1="93.7383" x2="93.7383" y1="635.3838" y2="655.3838"/><polygon fill="#181818" points="89.7383,645.3838,93.7383,655.3838,97.7383,645.3838,93.7383,649.3838" style="stroke:#181818;stroke-width:1;"/><!--SRC=[POr12i8m44NtESKixS8BfA18LN1HL8hkendfO9EKp0IffpUr8eBB-V_FUomcYbBwn1XXPIt3Jj0nI80gDwMQB-1C-FXST8DP7IpT1ZWcuuM4a9S5I8iUPWDoeG3qtw9Kw7EaHbhLulKUKeRfZPV96f4PrYY6khpL3NPu5JYOmQ4Ng57QO4lrjay_LKXzy7_Yt_Bhr5lofgCdmZxQN3V9EHE7qPCkZcIACvubz2y0]--></g></svg>