<svg xmlns="http://www.w3.org/2000/svg" xmlns:xlink="http://www.w3.org/1999/xlink" contentStyleType="text/css" data-diagram-type="DESCRIPTION" height="425px" preserveAspectRatio="none" style="width:262px;height:425px;background:#FFFFFF;" version="1.1" viewBox="0 0 262 425" width="262px" zoomAndPan="magnify"><defs/><g><!--entity admin--><g class="entity" data-entity="admin" data-source-line="1" data-uid="ent0002" id="entity_admin"><ellipse cx="131.2994" cy="14" fill="#F1F1F1" rx="8" ry="8" style="stroke:#181818;stroke-width:0.5;"/><path d="M131.2994,22 L131.2994,49 M118.2994,30 L144.2994,30 M131.2994,49 L118.2994,64 M131.2994,49 L144.2994,64" fill="none" style="stroke:#181818;stroke-width:0.5;"/><text fill="#000000" font-family="sans-serif" font-size="14" lengthAdjust="spacing" textLength="152.3389" x="55.13" y="78.4951">System Administrator</text></g><!--entity UC1--><g class="entity" data-entity="UC1" data-source-line="3" data-uid="ent0003" id="entity_UC1"><ellipse cx="131.2947" cy="169.2489" fill="#F1F1F1" rx="125.2947" ry="27.4589" style="stroke:#181818;stroke-width:0.5;"/><text fill="#000000" font-family="sans-serif" font-size="14" lengthAdjust="spacing" textLength="230.6172" x="15.9861" y="173.8974">Manage Synchronization Process</text></g><!--entity UC2--><g class="entity" data-entity="UC2" data-source-line="4" data-uid="ent0004" id="entity_UC2"><ellipse cx="131.2867" cy="282.1953" fill="#F1F1F1" rx="115.4267" ry="25.4853" style="stroke:#181818;stroke-width:0.5;"/><text fill="#000000" font-family="sans-serif" font-size="14" lengthAdjust="spacing" textLength="209.5693" x="26.502" y="286.8438">Bi-directional Synchronization</text></g><!--entity UC3--><g class="entity" data-entity="UC3" data-source-line="5" data-uid="ent0005" id="entity_UC3"><ellipse cx="131.2939" cy="393.7428" fill="#F1F1F1" rx="118.2639" ry="26.0528" style="stroke:#181818;stroke-width:0.5;"/><text fill="#000000" font-family="sans-serif" font-size="14" lengthAdjust="spacing" textLength="215.6465" x="23.4707" y="398.3912">Full Customer Record Tracking</text></g><!--link admin to UC1--><g class="link" data-entity-1="admin" data-entity-2="UC1" data-source-line="7" data-uid="lnk6" id="link_admin_UC1"><path d="M131.29,82.07 C131.29,101.25 131.29,118.17 131.29,135.55" fill="none" id="admin-to-UC1" style="stroke:#181818;stroke-width:1;"/><polygon fill="#181818" points="131.29,141.55,135.29,132.55,131.29,136.55,127.29,132.55,131.29,141.55" style="stroke:#181818;stroke-width:1;"/></g><!--link UC1 to UC2--><g class="link" data-entity-1="UC1" data-entity-2="UC2" data-source-line="8" data-uid="lnk7" id="link_UC1_UC2"><path d="M131.29,197.11 C131.29,215.2 131.29,232.87 131.29,250.49" fill="none" id="UC1-to-UC2" style="stroke:#181818;stroke-width:1;"/><polygon fill="#181818" points="131.29,256.49,135.29,247.49,131.29,251.49,127.29,247.49,131.29,256.49" style="stroke:#181818;stroke-width:1;"/></g><!--link UC2 to UC3--><g class="link" data-entity-1="UC2" data-entity-2="UC3" data-source-line="9" data-uid="lnk8" id="link_UC2_UC3"><path d="M131.29,308.05 C131.29,325.73 131.29,343.4 131.29,361.22" fill="none" id="UC2-to-UC3" style="stroke:#181818;stroke-width:1;"/><polygon fill="#181818" points="131.29,367.22,135.29,358.22,131.29,362.22,127.29,358.22,131.29,367.22" style="stroke:#181818;stroke-width:1;"/></g><!--SRC=[NOv12eD034NtSuhWtaLrNsY5xWgbsWE4JB2XpWmauyAUlYe3GXU1n-TzVf1oKgZwnJ87kFWWKImhhca5Q81RujniJ6WCrHqZZWpz4kcjASeNiwG83qt4PdlbrPqE_ogr5sNQB9p-UyLl3lysJnDqi-KKME79bDJ3e4WVYMFHM-Vsjw2kp_lQUeMRbPl2hVi1]--></g></svg>